<?xml version="1.0" encoding="utf-8"?>
<!-- Svg Vector Icons : http://www.onlinewebfonts.com/icon -->
<!DOCTYPE svg PUBLIC "-//W3C//DTD SVG 1.1//EN" "http://www.w3.org/Graphics/SVG/1.1/DTD/svg11.dtd">
<svg version="1.1" xmlns="http://www.w3.org/2000/svg" xmlns:xlink="http://www.w3.org/1999/xlink" x="0px" y="0px"
     viewBox="0 0 1000 1000" enable-background="new 0 0 1000 1000" xml:space="preserve">
<metadata> Svg Vector Icons : http://www.onlinewebfonts.com/icon </metadata>
    <g><path style="fill: #fff" d="M23.2,268.1c-7.3,0-13.2-5.9-13.2-13.2V98.5C10,49.7,49.7,10,98.4,10h156.2c7.3,0,13.2,5.9,13.2,13.2c0,7.3-5.9,13.2-13.2,13.2H98.4c-34.2,0-62.1,27.9-62.1,62.1v156.5C36.3,262.2,30.4,268.1,23.2,268.1L23.2,268.1z"/>
        <path style="fill: #fff" d="M259,990H98.4C49.7,990,10,950.3,10,901.5V745.2c0-7.3,5.9-13.2,13.2-13.2c7.3,0,13.2,5.9,13.2,13.2v156.3c0,34.2,27.9,62.1,62.1,62.1H259c7.3,0,13.2,5.9,13.2,13.2C272.2,984.1,266.3,990,259,990L259,990z"/>
        <path style="fill: #fff" d="M901.5,990H738.1c-7.3,0-13.2-5.9-13.2-13.2s5.9-13.2,13.2-13.2h163.4c34.3,0,62.1-27.9,62.1-62.1V744.1c0-7.3,5.9-13.2,13.2-13.2c7.3,0,13.2,5.9,13.2,13.2v157.4C990,950.3,950.3,990,901.5,990L901.5,990z"/>
        <path style="fill: #fff" d="M976.8,266.9c-7.3,0-13.2-5.9-13.2-13.2V98.5c0-34.3-27.9-62.1-62.1-62.1H743.8c-7.3,0-13.2-5.9-13.2-13.2c0-7.3,5.9-13.2,13.2-13.2h157.7c48.8,0,88.5,39.7,88.5,88.5v155.2C990,261,984.1,266.9,976.8,266.9L976.8,266.9z"/>
        <path style="fill: #fff" d="M967.6,513.2h-930c-7.3,0-13.2-5.9-13.2-13.2c0-7.3,5.9-13.2,13.2-13.2h930c7.3,0,13.2,5.9,13.2,13.2C980.7,507.3,974.8,513.2,967.6,513.2L967.6,513.2z"/></g>
</svg>