<svg xmlns="http://www.w3.org/2000/svg" viewBox="0 0 95 80">
    <path fill="currentColor"
          d="M75.54,79.06A18.5,18.5,0,1,1,94,60.56,18.51,18.51,0,0,1,75.54,79.06Zm0-31.54a13,13,0,1,0,13,13A13.06,13.06,0,0,0,75.54,47.52Z"/>
    <path fill="currentColor"
          d="M19.46,79.06A18.5,18.5,0,1,1,38,60.56,18.51,18.51,0,0,1,19.46,79.06Zm0-31.54a13,13,0,1,0,13,13A13.06,13.06,0,0,0,19.46,47.52Z"/>
    <path fill="currentColor"
          d="M68.4,34.67a2.69,2.69,0,0,1,0,5.38H56.23a3,3,0,0,1-2.35-1.24L44.32,24.94,36.93,37.48l16.35,9.11A3.4,3.4,0,0,1,55,49.39a3.34,3.34,0,0,1-.28,1.69l-7.6,17.24a3.44,3.44,0,0,1-6.29-2.78L47.24,51.1,29.16,41l-.17-.1a5,5,0,0,1-1.69-6.81l11-18.66a5,5,0,0,1,9,4.3L57.56,34.67ZM43.47,6.89A5.94,5.94,0,1,0,49.41.94,5.94,5.94,0,0,0,43.47,6.89Z"/>
</svg>