<svg width="24" height="32" viewBox="0 0 24 32" fill="none" xmlns="http://www.w3.org/2000/svg">
<path d="M1.65147 0.50654C1.82766 0.418446 1.98182 0.330352 2.11396 0.264282C2.6205 0.308329 3.08299 0.396423 3.5675 0.396423C4.44844 0.374399 5.30735 0.352376 6.18829 0.374399C6.89304 0.396423 7.61981 0.396423 8.32456 0.418446C9.4918 0.396423 10.659 0.440469 11.8043 0.440469C12.531 0.440469 13.2578 0.374399 14.0066 0.330352C14.2048 0.330352 14.425 0.352376 14.6232 0.352376C14.6673 0.352376 14.7334 0.374399 14.7774 0.374399C15.372 0.198212 15.9887 0.308329 16.6054 0.308329C17.244 0.330352 17.8607 0.330352 18.4994 0.396423C18.8738 0.440469 19.2702 0.418446 19.6226 0.616657C19.7107 0.660703 19.8648 0.616657 19.9749 0.594633C20.4594 0.484516 20.7458 0.63868 20.8779 1.12319C20.8999 1.18927 20.9219 1.25534 20.9219 1.32141C20.944 2.02615 20.966 2.75293 20.966 3.45768C20.988 4.09635 20.988 4.75706 21.01 5.39573C21.0321 6.01239 20.966 6.62905 21.0321 7.2457C21.0761 7.73022 21.0321 8.19271 21.0541 8.67722C21.0541 9.38197 21.1201 10.0647 21.1422 10.7694C21.1642 11.2099 21.1201 11.6724 21.1201 12.1129C21.1422 12.7295 21.2303 13.3682 21.2303 13.9849C21.2523 14.9759 21.2303 15.967 21.2303 16.936C21.2303 17.0681 21.2523 17.2223 21.2743 17.3544C21.3624 17.9931 21.2963 18.6098 21.2743 19.2485C21.2523 19.6008 21.1642 19.9312 21.1422 20.2836C21.1201 20.5258 21.1862 20.7901 21.2082 21.0324C21.2303 21.1865 21.2523 21.3407 21.2303 21.4948C21.1642 22.1555 21.1862 22.8383 21.2082 23.499C21.2303 24.1376 21.2303 24.7984 21.0761 25.4591C21.0541 25.5251 21.0541 25.6132 21.0761 25.6573C21.2303 26.0757 21.1422 26.4942 21.0541 26.8906C21.01 27.1549 20.988 27.4191 21.0321 27.7054C21.0981 28.1239 21.0541 28.5423 21.01 28.9608C20.966 29.6655 20.944 30.3703 20.7017 31.031C20.5475 31.4494 20.3053 31.7357 19.8648 31.7577C19.4904 31.7798 19.094 31.7798 18.7196 31.8018C18.5654 31.8018 18.4113 31.8018 18.2351 31.8018C17.244 31.9119 16.253 31.9339 15.2399 31.9119C14.8875 31.9119 14.5572 32 14.2048 32C13.2358 32 12.2888 31.956 11.3197 31.9339C10.7031 31.9339 10.1085 31.956 9.4918 31.956C8.94121 31.956 8.39063 31.8899 7.84004 31.8679C6.87101 31.8458 5.92401 31.8679 4.95498 31.8238C4.36035 31.8018 3.76572 31.7357 3.19311 31.6476C2.73062 31.5816 2.31217 31.4054 1.82766 31.4054C1.5854 31.4054 1.34314 31.2512 1.10089 31.1631C0.946721 31.097 0.792558 30.9869 0.902674 30.8107C1.01279 30.6125 0.770534 30.6346 0.770534 30.5244C0.748511 30.2602 0.704464 29.9738 0.660417 29.7096C0.61637 29.2911 0.572324 28.8947 0.5503 28.4763C0.528277 28.0358 0.528277 27.5953 0.506253 27.1769C0.48423 26.7364 0.374113 26.2739 0.462207 25.8555C0.5503 25.3049 0.28602 24.8204 0.374113 24.3138C0.462207 23.8293 0.263996 23.3889 0.330066 22.9043C0.396136 22.4639 0.396136 22.0234 0.396136 21.5609C0.396136 21.3407 0.506253 21.0984 0.263996 20.8782C0.219949 20.8341 0.263996 20.5699 0.35209 20.4818C0.61637 20.1734 0.48423 19.9092 0.28602 19.6229C0.506253 19.2705 0.528277 18.9181 0.0437622 18.5657C0.28602 18.5878 0.374113 18.5878 0.5503 18.5878C0.48423 18.3675 0.41816 18.1693 0.396136 17.9711C0.374113 17.839 0.41816 17.7068 0.396136 17.5747C0.35209 16.8039 0.330066 16.033 0.396136 15.2402C0.396136 15.2182 0.41816 15.1961 0.396136 15.1961C0.175903 14.8438 0.462207 14.5354 0.506253 14.1831C0.396136 14.1831 0.28602 14.1831 0.175903 14.1831C0.308043 13.9408 0.440183 13.7206 0.572324 13.5003C0.440183 13.3902 0.330066 13.3242 0.28602 13.2801C0.330066 13.0819 0.41816 12.9277 0.396136 12.7736C0.374113 12.4652 0.48423 12.1569 0.35209 11.8486C0.308043 11.7605 0.48423 11.5623 0.594347 11.3421C0.528277 11.254 0.396136 11.1218 0.330066 11.0337C0.374113 10.7034 0.440183 10.373 0.48423 10.0427C0.506253 9.93255 0.462207 9.80041 0.48423 9.6903C0.61637 9.27185 0.528277 8.85341 0.572324 8.45699C0.61637 8.01652 0.5503 7.57605 0.5503 7.11356C0.5503 7.06951 0.528277 7.04749 0.5503 7.00344C0.902675 6.4969 0.660417 5.88025 0.704464 5.28562C0.770534 4.49277 0.858628 3.72196 1.03481 2.95114C1.12291 2.57674 1.12291 2.20234 1.25505 1.82794C1.27707 1.73985 1.34314 1.65176 1.40921 1.56366C1.34314 1.43152 1.25505 1.25534 1.18898 1.10117C1.36517 0.880937 1.51933 0.682727 1.65147 0.50654C1.65147 0.50654 1.67349 0.484516 1.65147 0.50654ZM3.39132 29.7536C3.83179 29.7316 4.14011 29.7096 4.44844 29.6875C5.65973 29.6655 6.87101 29.6435 8.06028 29.6215C8.30253 29.6215 8.54479 29.5554 8.78705 29.5554C9.29359 29.5334 9.80013 29.4893 10.2846 29.4893C10.7692 29.4893 11.2537 29.5554 11.7382 29.5334C12.487 29.4893 13.2138 29.3792 13.9625 29.4893C14.1167 29.5114 14.2929 29.5114 14.425 29.4893C15.0417 29.3572 15.6804 29.4673 16.297 29.4673C16.7815 29.4673 17.2661 29.5114 17.7726 29.5114C18.0369 29.5114 18.3012 29.4233 18.5875 29.3792C18.6095 29.2251 18.6976 29.0268 18.6535 28.8507C18.4553 28.256 18.6095 27.6394 18.5434 27.0447C18.4773 26.4721 18.6095 25.8995 18.6095 25.3269C18.6095 24.49 18.5875 23.6752 18.5434 22.8383C18.5214 22.2657 18.7196 21.7151 18.6095 21.1425C18.5434 20.8341 18.4994 20.7681 18.191 20.7901C17.1339 20.8562 16.0988 20.9222 15.0417 20.9663C14.6893 20.9883 14.3369 20.9002 13.9846 20.9443C13.0816 21.0544 12.1787 21.0544 11.2537 21.0544C10.8793 21.0544 10.4829 21.0984 10.1085 21.1204C9.38168 21.1425 8.65491 21.1425 7.92814 21.1645C7.64183 21.1645 7.37755 21.2746 7.09125 21.2526C6.49662 21.2306 5.90198 21.1425 5.32938 21.1425C4.93296 21.1425 4.53653 21.2085 4.14011 21.2966C3.83179 21.3627 3.61155 21.8692 3.72167 22.1776C3.74369 22.2657 3.78774 22.3317 3.78774 22.4198C3.78774 22.9704 3.78774 23.543 3.74369 24.0936C3.6556 24.9966 3.72167 25.8995 3.52346 26.8025C3.50143 26.8685 3.5675 26.9346 3.58953 27.0007C3.61155 27.0447 3.6556 27.0888 3.63357 27.1108C3.36929 27.6834 3.43536 28.3001 3.41334 28.8947C3.41334 28.9828 3.41334 29.0489 3.41334 29.137C3.43536 29.3131 3.41334 29.5114 3.39132 29.7536ZM18.9839 11.0337C18.7857 11.0557 18.6535 11.0557 18.4994 11.0778C17.5744 11.2099 16.6494 11.3421 15.7244 11.4522C14.3369 11.6063 12.9495 11.4301 11.584 11.4301C10.615 11.4301 9.62394 11.298 8.65491 11.254C7.77397 11.1879 6.87101 11.1879 5.99008 11.2319C5.39545 11.254 4.75677 11.4301 4.25023 10.9456C4.22821 11.0557 4.18416 11.1438 4.16214 11.2319C4.14011 11.32 4.09607 11.4962 4.09607 11.5182C4.38237 11.6063 3.98595 11.7825 4.14011 11.8926C4.40439 12.0468 4.18416 12.245 4.14011 12.3772C3.96393 12.9057 4.25023 13.4123 4.14011 13.9408C4.00797 14.5134 4.27225 15.1081 4.03 15.6586C4.00797 15.7027 4.03 15.8348 4.05202 15.8348C4.3163 15.8569 4.20618 16.0551 4.18416 16.1432C4.07404 16.4515 3.87583 16.7378 4.16214 17.0461C4.18416 17.0681 4.16214 17.1122 4.14011 17.1342C3.91988 17.3324 4.03 17.5306 4.09607 17.7729C4.11809 17.861 4.09607 17.9711 4.07404 18.0592C4.00797 18.3235 4.14011 18.5878 4.40439 18.6098C4.6907 18.6318 4.99903 18.6318 5.28533 18.6318C5.83591 18.6318 6.40852 18.6318 6.95911 18.6318C7.55374 18.6318 8.14837 18.6098 8.743 18.6538C9.31561 18.6979 9.8662 18.83 10.4608 18.786C11.2316 18.7199 12.0465 18.83 12.8173 18.8741C13.7423 18.9181 14.6673 18.9842 15.5923 19.0502C16.6274 19.1163 17.6405 19.1824 18.6976 19.2485C18.7196 19.1383 18.7636 19.0062 18.7636 18.8961C18.7636 18.4997 18.7857 18.1032 18.7416 17.6848C18.6756 17.0461 18.7636 16.4074 18.8077 15.7467C18.8297 15.2182 18.8738 14.6896 18.8958 14.161C18.9398 13.4783 18.9619 12.7736 19.0059 12.0908C18.9839 11.7605 18.9839 11.4301 18.9839 11.0337ZM4.16214 5.28562C4.05202 5.32966 3.91988 5.35169 3.91988 5.37371C3.91988 5.50585 3.91988 5.70406 4.00797 5.77013C4.16214 5.90227 4.18416 6.03441 4.16214 6.18858C4.16214 6.54095 4.05202 6.89333 4.14011 7.22368C4.20618 7.55403 3.98595 7.88438 4.20618 8.19271C4.27225 8.2808 4.22821 8.43496 4.20618 8.5671C4.18416 8.74329 4.14011 8.91948 4.11809 9.13971C4.99903 9.20578 5.79187 9.27185 6.60673 9.29388C7.97218 9.33792 9.33763 9.33792 10.7031 9.35995C11.0775 9.35995 11.4299 9.40399 11.8043 9.40399C12.2667 9.40399 12.7072 9.35995 13.1697 9.35995C13.6542 9.35995 14.1608 9.47006 14.6453 9.42602C15.5703 9.35995 16.4512 9.6022 17.3321 9.73434C17.9047 9.80042 18.4773 9.95458 19.138 10.0867C19.1601 8.74329 19.1821 7.44391 19.2482 6.16655C19.3142 4.86717 19.4464 3.58982 19.4243 2.24639C19.2922 2.29044 19.2261 2.33448 19.1601 2.33448C18.2571 2.37853 17.3762 2.42258 16.4732 2.4446C16.1649 2.4446 15.8566 2.46662 15.5482 2.4446C15.1518 2.42258 14.7554 2.37853 14.3369 2.35651C14.2048 2.35651 14.0506 2.35651 13.9185 2.33448C13.2138 2.26841 12.509 2.13627 11.7822 2.11425C10.7471 2.0702 9.71203 2.0702 8.67693 2.04818C7.7079 2.04818 6.71685 2.0702 5.74782 2.04818C5.13117 2.04818 4.51451 2.00413 3.89786 1.98211C3.5675 2.20234 3.80976 2.48865 3.80976 2.7309C3.80976 3.03923 3.91988 3.34756 3.98595 3.72196C3.76572 4.03028 3.80976 4.77908 4.16214 5.28562Z" fill="#76B39D"/>
<path d="M1.69561 0.396421C1.65156 0.286304 1.60751 0.176187 1.54144 0C1.69561 0.0220234 1.80572 0.0660702 2.00393 0.0880936C1.84977 0.242257 1.7837 0.308328 1.69561 0.396421C1.69561 0.396421 1.69561 0.374398 1.69561 0.396421Z" fill="#EB611B"/>
<path d="M1.67359 0.484516C1.56347 0.484516 1.45336 0.484516 1.29919 0.484516C1.29919 0.418446 1.32122 0.352376 1.34324 0.264282C1.47538 0.308329 1.5855 0.352376 1.69562 0.396423L1.67359 0.374399C1.67359 0.418446 1.67359 0.462493 1.67359 0.484516C1.67359 0.484516 1.65157 0.50654 1.67359 0.484516Z" fill="#EB611B"/>
<path d="M3.39142 29.7536C3.41344 29.5114 3.43547 29.3131 3.45749 29.1149C3.45749 29.0268 3.45749 28.9608 3.45749 28.8727C3.50154 28.278 3.43547 27.6614 3.67772 27.0888C3.67772 27.0668 3.63368 27.0227 3.63368 26.9787C3.61165 26.9126 3.56761 26.8465 3.56761 26.7805C3.76582 25.8995 3.67772 24.9745 3.78784 24.0716C3.85391 23.521 3.83189 22.9484 3.83189 22.3978C3.83189 22.3097 3.78784 22.2436 3.76582 22.1555C3.6557 21.8472 3.87593 21.3407 4.18426 21.2746C4.58068 21.1865 4.9771 21.1204 5.37352 21.1204C5.96816 21.1204 6.56279 21.2085 7.1354 21.2306C7.39968 21.2306 7.68598 21.1425 7.97228 21.1425C8.69906 21.1204 9.42583 21.1204 10.1526 21.0984C10.549 21.0984 10.9234 21.0323 11.2978 21.0323C12.2008 21.0323 13.1037 21.0544 14.0287 20.9222C14.3811 20.8782 14.7335 20.9442 15.0858 20.9442C16.143 20.9002 17.1781 20.8341 18.2352 20.7681C18.5435 20.746 18.5876 20.8121 18.6536 21.1204C18.7637 21.693 18.5655 22.2436 18.5876 22.8162C18.6316 23.6311 18.6536 24.468 18.6536 25.3049C18.6536 25.8775 18.5215 26.4721 18.5876 27.0227C18.6536 27.6173 18.4995 28.234 18.6977 28.8286C18.7417 28.9828 18.6536 29.203 18.6316 29.3572C18.3453 29.4012 18.081 29.4893 17.8167 29.4893C17.3322 29.4893 16.8477 29.4453 16.3412 29.4453C15.7245 29.4453 15.1079 29.3131 14.4692 29.4673C14.315 29.5114 14.1609 29.4893 14.0067 29.4673C13.2579 29.3572 12.5091 29.4453 11.7823 29.5114C11.2978 29.5554 10.8133 29.4673 10.3288 29.4673C9.82225 29.4673 9.31571 29.5114 8.8312 29.5334C8.58894 29.5554 8.34668 29.5994 8.10443 29.5994C6.89314 29.6215 5.68185 29.6435 4.49259 29.6655C4.14021 29.7096 3.83189 29.7316 3.39142 29.7536Z" fill="#76B39D" fill-opacity="0.3"/>
</svg>
