<svg width="233" height="155" viewBox="0 0 233 155" fill="none" xmlns="http://www.w3.org/2000/svg">
<g clip-path="url(#clip0)">
<path d="M26.0758 56.4249C25.9774 56.3264 25.8298 56.2279 25.5838 56.0802C26.125 55.4402 26.371 54.7509 25.6822 54.0123C26.617 53.5692 26.0266 52.7322 26.2726 52.0429C25.4854 51.5505 24.649 51.0581 23.9111 50.5658C23.7635 50.4673 23.6651 50.2211 23.5175 50.0734C23.1731 49.581 22.8287 49.0394 22.4843 48.5471C21.5987 47.3654 20.7131 46.1837 19.8275 45.0513C19.6799 44.8543 19.5323 44.5589 19.2863 44.4605C18.3023 44.0173 18.1055 43.1803 18.0071 42.2448C17.9087 40.7677 17.7119 39.3399 17.7119 37.8628C17.7119 37.1735 17.9579 36.4842 18.1547 35.8441C18.4991 34.5639 18.3023 33.2346 18.4499 31.9052C18.5975 30.2311 18.2531 28.5571 18.3515 26.8831C18.4007 25.7506 18.2531 24.6674 18.3023 23.535C18.4007 21.8609 18.9911 20.4823 20.4671 19.6453C21.2543 19.2022 21.5495 18.5129 21.7463 17.7743C21.9431 17.085 22.3859 16.5927 23.0747 16.3957C23.8127 16.1495 24.3539 15.6572 24.7966 15.0663C24.8458 15.0171 24.895 14.9186 24.9442 14.8694C25.5346 14.574 26.3218 14.4263 26.617 13.9831C27.0598 13.2938 27.601 13.1953 28.2898 13.1461C28.4866 13.1461 28.6834 13.1461 28.831 12.9984C29.7166 12.3583 30.553 11.7183 31.4386 11.0289C31.8322 11.4228 32.2258 11.3244 32.767 11.0782C33.6526 10.6351 34.735 10.4381 35.4729 9.94575C36.3585 9.35491 37.3917 9.55185 38.2281 8.96102C38.8677 8.51789 39.8025 8.37018 40.6389 8.32094C41.5737 8.22247 42.2133 7.5824 43.0989 7.48393C43.2957 7.43469 43.4925 7.33622 43.6893 7.38545C44.5749 7.48393 45.4113 7.13927 46.1492 6.74538C47.2808 6.15454 48.4124 5.85913 49.6916 5.80989C49.9868 5.80989 50.3804 5.66218 50.528 5.46523C51.1184 4.82516 51.758 4.8744 52.4468 5.07134C52.5944 4.77593 52.5452 4.3328 53.0864 4.52974C53.7752 4.77592 54.3656 4.8744 54.9068 4.23432C55.0544 4.08662 55.3988 4.18509 55.694 4.08662C56.1367 3.93891 56.6287 3.64349 57.0223 3.69272C57.5143 3.74196 58.0063 3.7912 58.3507 3.49578C58.6459 3.2496 58.9411 3.2496 59.3347 3.2496C60.1711 3.2496 61.0075 3.10189 61.8931 2.95418C62.8771 2.80647 63.8611 2.65876 64.8451 2.46181C66.2719 2.1664 67.6494 1.77251 69.1254 1.87098C71.1918 1.96945 73.209 1.42785 75.3246 1.52632C76.161 1.57556 76.9973 1.28014 77.8337 1.0832C77.9321 1.0832 78.0305 0.935487 78.1289 0.935487C80.9825 0.787778 83.8853 0.590832 86.7389 0.49236C88.1164 0.443123 89.5432 0.590832 90.97 0.590832C91.462 0.590832 91.954 0.492359 92.446 0.443123C94.2664 0.34465 96.136 0.196941 97.9564 0.147705C99.1863 0.0984685 100.367 0.196941 101.597 0.0984684C103.27 -0.0492407 104.943 0.0984684 106.566 0.34465C106.665 0.34465 106.714 0.393887 106.812 0.34465C107.944 -0.0984771 109.125 0.34465 110.256 0.246178C111.289 0.147705 112.372 0.295414 113.405 0.443123C114.487 0.590832 115.57 0.49236 116.652 0.738541C117.833 0.984723 119.112 0.738541 120.342 0.640069C121.277 0.541596 122.163 0.640069 122.95 1.0832C123.639 1.42785 124.278 1.42785 125.016 1.23091C125.508 1.13243 126.049 1.13243 126.492 1.18167C127.82 1.37861 129.1 1.52632 130.428 1.42785C131.412 1.37861 132.445 1.72327 133.429 1.87098C134.069 1.96945 134.659 2.21563 135.299 2.41258C136.43 2.75723 137.66 2.95418 138.841 3.10189C140.416 3.29883 142.039 3.39731 143.614 3.54502C144.499 3.64349 145.385 3.64349 146.319 3.74196C147.451 3.84043 148.583 3.88967 149.616 4.48051C150.206 4.82516 150.846 4.82516 151.535 4.67745C152.469 4.43127 153.453 4.38203 154.437 4.38203C155.766 4.38203 157.094 4.43127 158.423 4.57898C159.505 4.67745 160.538 5.02211 161.621 5.12058C162.998 5.26829 164.425 5.12058 165.803 5.26829C167.082 5.416 168.41 5.26829 169.64 5.80989C169.837 5.90836 170.083 5.85913 170.329 5.85913C171.706 5.90836 173.035 6.05607 174.363 6.4992C175.052 6.74538 175.79 6.69614 176.528 6.74538C178.398 6.84385 180.07 7.48393 181.792 8.124C182.826 8.51789 183.908 8.86254 184.941 9.30567C185.974 9.7488 187.008 10.1919 187.942 10.7828C188.828 11.3736 189.763 11.866 190.747 12.2599C191.239 12.4568 191.731 12.7522 192.223 12.9492C193.453 13.3923 194.387 14.1801 195.322 15.0171C195.421 15.1156 195.519 15.3617 195.617 15.3617C196.454 15.3125 196.847 16.0511 197.487 16.3957C198.569 17.0358 199.652 17.7251 200.783 18.3652C201.767 18.9068 202.505 19.793 202.997 20.6793C203.637 21.8117 203.834 23.1411 204.227 24.4212C204.424 25.1105 204.769 25.7506 204.867 26.4399C205.064 27.5724 205.261 28.7048 205.999 29.6895C206.294 30.0834 206.195 30.822 206.195 31.4128C206.146 33.1361 206.195 34.8594 205.949 36.5826C205.802 37.5674 205.261 38.4536 204.867 39.3891C204.621 39.9307 204.227 40.3738 203.932 40.8662C203.342 41.9494 202.85 43.0818 202.259 44.2143C202.21 44.3127 202.161 44.4605 202.063 44.4605C200.882 44.9528 200.685 46.233 199.947 47.1192C199.16 48.0547 198.668 49.2856 197.782 50.0242C196.847 50.8119 196.503 51.6982 196.208 52.7322C196.159 52.9783 196.06 53.2245 196.109 53.4215C196.257 54.5047 195.863 55.4894 195.421 56.4249C195.273 56.7203 195.322 57.1142 195.322 57.4096C195.273 58.1974 195.667 59.0344 195.027 59.773C194.978 59.8222 194.929 59.9207 194.929 59.9699C194.929 62.0871 193.699 63.9581 193.649 66.1245C193.649 66.3706 193.502 66.6661 193.403 66.9122C192.567 68.6355 192.321 70.4573 192.124 72.3282C192.124 72.476 192.173 72.6729 192.075 72.7714C191.189 74.3469 191.189 76.1687 190.845 77.892C190.747 78.4828 190.402 79.0736 190.156 79.6152C190.009 79.9599 189.861 80.2553 189.812 80.6C189.566 82.1263 189.566 83.7019 189.172 85.1789C188.68 87.0007 188.533 88.8717 187.942 90.6934C187.204 92.909 186.958 95.2724 186.27 97.488C186.024 98.2266 186.024 99.0144 185.876 99.8021C185.63 100.984 185.335 102.165 185.089 103.347C184.449 106.203 183.957 109.059 183.662 111.964C183.564 112.85 183.465 113.736 183.022 114.573C182.875 114.819 183.022 115.213 183.072 115.607C182.284 115.952 182.678 116.887 182.53 117.576C182.235 118.906 181.94 120.284 181.989 121.614C182.038 122.943 181.202 124.273 181.94 125.651C181.989 125.75 181.94 125.947 181.891 126.094C181.596 127.276 181.251 128.507 180.956 129.787C180.71 129.738 180.464 129.689 180.12 129.639C179.972 129.886 179.775 130.181 179.578 130.427C179.431 130.575 179.234 130.821 179.037 130.821C177.463 131.117 176.38 132.052 175.298 133.234C174.658 133.923 173.773 134.415 172.986 134.957C172.494 135.302 172.002 135.548 171.559 135.942C170.919 136.533 170.378 137.222 169.788 137.911C169.296 138.502 168.951 139.437 168.312 139.634C167.426 139.93 167.131 140.718 166.54 141.21C165.852 141.752 165.261 142.49 164.671 143.13C164.622 143.179 164.573 143.278 164.474 143.278C162.506 143.869 161.079 145.592 159.013 146.084C158.472 146.232 158.029 146.675 157.488 146.921C157.193 147.069 156.897 147.266 156.553 147.315C155.667 147.463 154.88 147.66 154.142 148.3C153.65 148.743 152.765 149.334 151.879 148.595C151.535 149.432 150.895 149.432 150.206 149.531C149.173 149.679 148.238 150.122 147.205 150.466C146.27 150.762 145.385 151.106 144.352 151.008C143.81 150.959 143.22 151.156 142.679 151.353C141.35 151.796 140.022 152.14 138.644 152.288C137.71 152.387 136.824 152.584 135.889 152.781C135.692 152.83 135.545 153.027 135.348 153.174C133.626 152.337 133.626 152.337 133.183 153.224C132.642 153.224 132.101 153.224 131.56 153.224C130.625 153.224 129.739 153.421 128.854 153.765C128.214 154.011 127.525 154.208 126.836 154.258C124.918 154.504 122.999 155.045 121.031 154.799C120.637 154.75 120.293 154.651 119.899 154.553C119.801 154.504 119.604 154.405 119.604 154.455C118.965 155.144 118.571 154.405 118.128 154.208C117.341 153.814 116.554 153.716 115.619 153.765C113.897 153.913 112.224 154.208 110.502 153.913C109.518 153.716 108.485 153.814 107.452 153.765C106.271 153.667 105.041 153.47 103.86 153.322C103.418 153.273 102.926 153.224 102.483 153.371C101.499 153.667 100.662 153.322 99.7767 153.125C99.3831 153.027 98.9403 153.125 98.4975 153.076C97.9072 152.977 97.0708 153.371 96.6772 152.387C96.4804 152.485 96.136 152.534 96.0376 152.682C95.5456 153.421 94.9552 153.224 94.3156 153.027C93.4792 152.781 92.692 152.436 91.8556 152.337C91.216 152.288 91.1668 151.894 91.0684 151.5C90.7732 151.648 90.5272 151.894 90.2812 151.943C89.9368 151.993 89.494 151.943 89.2972 151.747C88.4608 150.959 87.4769 151.057 86.4437 151.254C86.1485 150.91 85.9025 150.614 85.6073 150.319C85.2137 150.466 84.9185 150.663 84.4265 150.368C83.9837 150.122 83.2949 150.22 82.7045 150.171C81.8681 150.122 80.9825 150.269 80.2445 149.679C80.1461 149.58 79.9493 149.531 79.8017 149.531C79.0637 149.777 78.5717 148.989 77.8337 149.186C77.6369 149.235 77.3418 148.842 77.145 148.694C76.8006 148.792 76.4562 148.989 76.2102 148.891C75.177 148.497 74.1438 148.005 73.1598 147.561C72.9138 147.463 72.6678 147.365 72.3726 147.315C71.5362 147.168 70.6506 147.118 70.011 146.429C69.8634 146.281 69.6174 146.183 69.3714 146.134C68.6826 145.937 67.8954 145.937 67.3542 145.247C67.2066 145.05 66.7146 145.1 66.4195 144.952C66.0751 144.755 65.7799 144.46 65.4355 144.213C64.9927 144.804 64.6975 144.115 64.3531 144.016C63.9595 143.918 63.6151 143.721 63.2215 143.524C62.0899 142.982 60.8599 142.539 59.6299 142.342C59.3839 142.293 59.0887 142.244 58.8427 142.096C58.1047 141.604 57.4159 141.062 56.6779 140.521C55.7432 139.831 54.8576 139.044 53.8244 138.551C52.5944 137.96 51.2168 137.616 49.9376 137.123C49.7408 137.025 49.544 136.877 49.3472 136.828C48.7076 136.532 48.3632 135.745 47.5268 135.794C47.4284 135.794 47.2808 135.695 47.2316 135.597C47.0348 134.465 45.9524 134.366 45.2145 133.874C44.6733 133.48 44.3289 132.938 43.9845 132.397C43.3941 131.461 42.6069 130.575 42.1149 129.59C41.5245 128.458 40.6881 127.424 40.4421 126.094C40.3437 125.602 39.9009 125.257 39.8025 124.667C39.6057 123.239 39.0645 121.811 38.7201 120.383C38.5725 119.644 38.7201 118.807 38.4741 118.118C38.1789 117.281 38.2773 116.296 37.5885 115.607C37.4409 115.459 37.3425 115.164 37.3425 115.016C37.5885 113.441 37.0473 111.964 36.7521 110.437C36.6045 109.699 36.7029 108.96 36.4569 108.222C36.0141 106.941 35.6697 105.612 35.3253 104.283C35.2761 104.036 35.2761 103.741 35.2269 103.495C35.1285 102.904 35.3253 102.215 34.735 101.772C34.6366 101.673 34.6366 101.476 34.6366 101.328C34.5382 100.541 34.4398 99.8021 34.3414 99.0144C34.2922 98.5712 34.1938 98.1773 34.1446 97.7342C34.0954 97.488 34.1446 97.1926 33.997 97.0449C33.505 96.5033 33.505 95.8632 33.4066 95.1739C33.1114 93.2537 32.6194 91.3827 31.9306 89.561C31.783 89.1671 32.029 88.5763 32.0782 87.9362C31.9798 87.8377 31.8814 87.493 31.6354 87.3453C30.7498 86.7545 30.8482 85.7698 30.5038 84.9328C30.2086 84.1942 30.7498 83.308 30.061 82.6679C29.9626 82.5694 30.2578 82.077 30.3562 81.7324C29.1754 80.7477 29.0278 80.2553 29.4214 79.3198C29.0278 78.8767 28.2406 78.5813 28.8802 77.7442C28.9294 77.6458 28.831 77.3996 28.7326 77.2026C28.4866 76.7595 28.4866 76.7595 28.831 76.1687C28.1914 75.9717 28.2898 75.0362 27.5518 74.8393C27.4534 74.8393 27.5026 74.3469 27.4534 74.0515C27.355 73.2637 27.2074 72.476 27.0598 71.5405C27.109 71.4912 27.355 71.2943 27.4534 70.9989C27.5518 70.7527 27.601 70.4573 27.6502 70.1126C27.4042 70.0141 27.1582 69.9649 26.7646 69.8172C26.863 69.3248 27.0106 68.8325 27.109 68.2416C26.9614 68.1432 26.7646 68.0447 26.5678 67.8477C26.5678 66.9122 26.4694 65.9768 26.5678 64.992C26.7154 63.6626 26.2726 62.4317 26.3218 61.1516C26.3218 60.2161 26.2234 59.3791 25.9282 58.4436C25.7314 58.0497 26.0266 57.2619 26.0758 56.4249ZM175.298 128.655C175.052 128.113 174.757 127.768 174.757 127.424C174.708 126.685 174.757 125.947 174.904 125.257C175.052 124.519 175.347 123.83 175.495 123.14C175.692 122.254 175.839 121.368 176.233 120.531C176.528 119.94 176.282 119.152 176.774 118.561C176.872 118.463 176.774 118.167 176.725 117.97C176.725 117.773 176.626 117.527 176.725 117.429C177.266 116.887 177.069 116.296 177.069 115.656C177.069 115.312 177.168 114.967 177.315 114.672C177.61 113.982 178.152 113.293 178.25 112.554C178.398 111.471 179.185 110.486 178.791 109.305C178.742 109.108 178.89 108.862 178.988 108.615C179.234 107.778 179.431 106.991 179.677 106.154C180.021 104.923 180.366 103.692 180.71 102.461C180.808 102.165 180.956 101.87 181.005 101.575C181.054 101.033 181.202 100.541 181.546 100.048C181.842 99.6052 181.891 99.0144 181.989 98.4728C182.137 97.6357 182.137 96.7987 182.284 95.9617C182.53 94.5831 182.875 93.2045 183.219 91.8259C183.564 90.6442 183.76 89.4133 184.252 88.2808C184.498 87.69 184.695 87.0007 184.646 86.4099C184.548 85.1297 184.794 83.948 185.138 82.7171C185.286 82.1755 185.384 81.6339 185.482 81.0923C185.581 80.5015 185.728 79.8614 185.827 79.2706C186.122 77.695 187.155 76.3164 187.106 74.6424C187.106 73.953 186.909 73.1653 187.204 72.5744C187.942 70.9496 187.696 69.1771 188.287 67.5031C188.631 66.4199 188.484 65.189 189.467 64.3519C189.566 64.2535 189.517 64.0073 189.517 63.8104C189.517 63.2195 189.418 62.6287 189.517 62.0871C189.763 60.8069 190.156 59.576 190.353 58.2959C190.501 57.3111 190.894 56.3264 190.648 55.3909C189.959 55.3417 189.369 55.2925 188.729 55.194C188.09 56.031 187.696 57.1142 186.466 57.2127C186.368 57.2127 186.27 57.3111 186.22 57.4096C185.679 58.1482 184.597 58.0497 184.006 58.739C183.564 58.5421 183.465 58.9359 183.268 59.1329C183.022 59.3791 182.727 58.9852 182.383 59.3791C181.989 59.8714 181.153 60.0191 180.513 60.2161C179.431 60.5115 178.299 60.5115 177.266 61.2008C176.971 61.3978 176.528 61.3978 176.134 61.447C175.938 61.4962 175.741 61.3978 175.544 61.447C174.412 61.8409 173.281 62.284 172.149 62.6779C171.706 62.8256 171.165 63.2195 170.821 63.0718C169.984 62.6779 169.394 63.121 168.804 63.4165C168.262 63.2687 167.672 63.2687 167.131 63.2687C166.688 63.2687 166.245 63.2195 165.852 63.2195C165.557 63.2195 165.212 63.0718 165.065 63.2195C164.228 63.8103 163.244 63.5642 162.359 63.8104C161.621 64.0073 160.883 64.3027 160.145 64.4504C158.226 64.7458 156.307 64.8936 154.388 65.1397C153.749 65.2382 153.158 65.4844 152.519 65.5336C151.731 65.6321 150.895 65.6321 150.108 65.7798C148.976 65.9768 147.845 66.2722 146.664 66.4199C144.942 66.6168 143.171 66.6661 141.449 66.8138C140.416 66.9122 139.333 67.1584 138.3 67.2569C137.611 67.3061 136.873 67.2569 136.184 67.3061C135.446 67.3554 134.708 67.5031 134.02 67.5523C133.134 67.6015 132.248 67.6016 131.363 67.6016C129.838 67.6508 128.362 67.9462 126.836 67.5031C126.64 67.4538 126.394 67.6015 126.197 67.7C124.819 68.2909 123.393 68.5863 121.917 68.2909C121.474 68.1924 120.982 68.2416 120.539 68.2416C119.604 68.2909 118.669 68.4878 117.735 68.3893C116.701 68.2909 115.717 68.2416 114.733 68.6848C114.487 68.7832 114.192 68.734 113.946 68.734C113.405 68.734 112.864 68.6848 112.323 68.6848C110.404 68.734 108.436 68.9309 106.566 68.3401C106.419 68.2909 106.222 68.2909 106.123 68.3401C105.287 69.1279 104.254 68.6848 103.319 68.6848C101.991 68.6848 100.662 68.3401 99.3831 68.1924C98.4483 68.0939 97.5628 67.9954 96.628 67.9954C96.0868 67.9954 95.5456 68.1924 95.0044 68.1924C93.0364 68.0939 91.0192 67.9462 89.0512 67.8477C87.6737 67.7493 86.2469 67.7493 84.8693 67.6508C83.3933 67.5523 81.9665 67.4046 80.4905 67.2569C79.8017 67.2077 79.1129 67.06 78.4241 66.9615C77.4893 66.863 76.6038 66.7153 75.669 66.6661C74.685 66.6168 73.6518 66.6168 72.6678 66.5676C72.225 66.5183 71.6838 66.2722 71.2902 66.3706C69.9126 66.7645 68.6334 66.026 67.305 66.0752C66.0259 66.0752 64.7467 65.7306 63.4675 65.5336C62.7295 65.4352 61.9915 65.3367 61.2535 65.189C60.2203 64.992 59.1871 64.6966 58.1539 64.4997C57.3175 64.352 56.3827 64.4997 55.5956 64.3027C53.7752 63.8596 51.9056 63.6134 50.1344 62.8256C49.4948 62.5302 48.7076 62.6287 48.0188 62.3333C45.9032 61.3978 43.5909 61.0039 41.6721 59.576C41.5245 59.4775 41.3769 59.3791 41.2293 59.3791C40.4421 59.3791 39.8517 58.9852 39.3105 58.4436C39.1629 58.2959 38.9661 58.2466 38.7693 58.2466C37.1457 58.1974 36.1125 57.065 35.0301 56.1295C34.489 55.6371 34.0462 55.4894 33.3082 55.4402C33.4066 55.9818 33.4558 56.3757 33.5542 56.8188C33.6034 57.3111 33.8986 57.8035 34.1446 58.1974C34.6858 58.9852 34.6858 60.0191 35.4237 60.7085C35.4729 60.7577 35.4729 60.8562 35.4237 60.9054C34.9809 61.447 35.3745 61.8409 35.6205 62.284C35.8173 62.6287 35.9157 63.0226 36.0141 63.3672C36.1617 64.155 36.2109 64.992 36.4569 65.7798C37.0473 67.5523 37.5393 69.3248 37.9329 71.1466C38.0313 71.4912 38.3757 71.8359 38.3265 72.1805C38.1789 73.4607 38.6217 74.6916 38.3265 75.9717C38.1789 76.5133 38.1789 77.2519 38.4741 77.695C39.2613 78.9259 38.9169 80.3045 39.2613 81.5847C39.4581 82.3232 39.3105 83.1602 39.5565 83.8988C39.7533 84.4896 39.7533 84.982 39.6057 85.5728C39.5073 85.9175 39.6549 86.4099 39.8517 86.7053C40.2453 87.1484 40.1961 87.5915 40.2453 88.0839C40.3437 88.8224 40.0485 89.6594 40.8357 90.201C40.8849 90.2503 40.8849 90.398 40.9341 90.5457C40.9833 91.1365 40.9833 91.7274 41.0817 92.3182C41.1801 92.9583 41.1309 93.5984 41.5737 94.1892C41.9673 94.78 42.3117 95.5678 42.1641 96.4048C42.0657 96.848 41.7705 97.2911 41.8197 97.685C41.8689 98.1773 42.1641 98.6205 42.3117 99.0636C42.3609 99.2605 42.3117 99.4575 42.3609 99.6544C42.4101 99.9006 42.4593 100.196 42.5085 100.442C42.8037 101.525 43.1481 102.609 43.3941 103.741C43.6401 105.021 43.5909 106.449 44.0829 107.631C44.6733 109.157 44.4273 110.733 44.8701 112.259C45.2145 113.588 44.8701 115.065 45.8048 116.296C45.8048 116.346 45.854 116.346 45.854 116.395C46.592 118.069 46.592 119.841 46.6904 121.614C47.4284 122.008 47.822 122.648 48.0188 123.436C48.7568 123.485 49.3472 123.78 49.8884 124.273C50.8232 125.11 51.4136 126.291 52.742 126.685C53.0864 126.784 53.4308 127.079 53.6276 127.424C54.0704 128.212 54.7592 128.458 55.5464 128.556C56.186 128.655 56.6779 128.901 56.9239 129.541C57.3175 129.442 57.7603 129.147 57.9571 129.295C58.5967 129.689 59.3347 129.787 60.0235 129.984C60.8107 130.23 61.5979 130.624 62.3851 130.92C62.7295 131.018 62.9755 131.117 63.2215 131.461C63.5659 131.954 63.9595 132.446 64.4023 132.791C64.8943 133.135 65.4847 133.431 66.0751 133.578C66.7146 133.726 67.2066 134.465 67.9938 134.071C68.043 134.021 68.2398 134.12 68.289 134.169C68.9286 134.612 69.519 135.055 69.9618 135.4C70.4538 135.351 70.8474 135.252 71.0934 135.351C71.487 135.548 71.979 135.843 72.1758 136.188C72.5694 136.877 73.1106 136.877 73.7502 136.926C75.0786 137.074 76.407 137.37 77.7353 137.616C77.8829 137.665 78.0305 137.763 78.1289 137.862C78.8669 138.256 79.6541 138.65 80.3921 139.044C80.7857 139.24 81.1793 139.585 81.5729 139.634C82.5077 139.733 83.3933 140.028 84.2789 140.274C85.6565 140.668 87.1325 140.718 88.6084 140.865C89.1496 140.915 89.7892 140.767 90.1336 141.456C90.1828 141.555 90.4288 141.555 90.5272 141.555C91.3144 141.702 92.1508 141.85 92.938 141.998C93.1348 142.047 93.2824 142.195 93.4792 142.195C94.7092 142.145 95.9392 142.096 97.1692 142.047C97.4152 142.047 97.7104 141.998 97.8579 142.145C98.5959 142.884 99.5799 142.736 100.466 143.081C100.712 143.179 101.105 143.327 101.253 143.229C101.696 142.933 101.942 143.229 102.286 143.327C102.729 143.426 103.221 143.327 103.663 143.426C104.5 143.573 105.336 143.869 106.173 143.869C107.009 143.869 107.747 144.312 108.633 144.213C109.764 144.115 110.945 144.509 112.077 144.804C112.716 144.952 113.257 144.755 113.848 144.706C114.389 144.607 114.93 145.346 115.619 145.198C115.717 145.198 115.767 145.198 115.865 145.198C117.046 144.903 118.276 144.853 119.506 144.952C120.244 145.05 121.08 144.607 121.818 145.198C121.867 145.247 121.966 145.198 122.064 145.198C122.704 145.149 123.393 144.558 123.983 145.346C124.032 145.395 124.278 145.247 124.426 145.198C125.213 145.001 126 144.755 126.787 144.607C127.427 144.509 128.116 144.312 128.657 144.509C129.149 144.656 129.493 144.706 129.985 144.558C130.477 144.361 131.068 144.066 131.51 144.164C132.248 144.312 132.494 143.623 133.085 143.573C133.675 143.475 134.118 143.967 134.807 143.721C135.594 143.376 136.529 143.13 137.316 143.278C138.792 143.524 140.022 142.933 141.4 142.589C141.892 142.49 142.433 142.293 142.925 142.293C143.761 142.293 144.548 142.244 145.385 141.899C146.467 141.456 147.697 141.259 148.878 140.964C149.567 140.767 150.255 140.373 150.944 140.816C151.387 140.373 152.322 139.782 152.666 139.881C153.404 140.127 153.847 139.733 154.29 139.29C154.683 138.896 155.028 138.6 155.618 138.896C155.766 138.994 156.061 138.847 156.258 138.797C157.291 138.453 158.324 138.108 159.308 137.714C160.194 137.37 161.227 137.074 161.867 136.434C162.9 135.351 164.228 134.858 165.507 134.218C166.737 133.578 168.066 133.184 169.394 132.741C170.132 132.495 170.919 132.347 171.559 131.954C172.936 131.067 174.216 129.984 175.544 128.999C175.298 128.802 175.347 128.655 175.298 128.655ZM29.815 20.5316C27.9946 22.7964 26.0758 24.8151 23.4191 26.1938C23.5175 26.4399 23.5667 26.7846 23.7635 26.9815C24.0587 27.4247 24.4523 27.7693 24.7966 28.2124C25.387 29.0002 25.9774 29.6895 27.0106 30.0342C27.6994 30.2804 28.3882 30.5758 28.9294 31.0682C29.5198 31.6098 30.4546 31.659 30.8482 32.496C30.8974 32.6437 31.291 32.6437 31.4878 32.7422C31.783 32.8407 32.0782 32.9391 32.3734 33.0868C33.3082 33.4807 34.1938 34.0223 35.1777 34.2685C35.8665 34.4655 36.3585 34.7609 36.6537 35.4502C37.7361 35.5979 38.8185 35.4502 39.8517 35.8441C40.4421 36.041 40.9833 36.6811 41.7705 36.2872C41.8689 36.238 42.0657 36.3857 42.1641 36.5334C42.3117 36.8288 42.5085 36.8288 42.8037 36.8288C43.1973 36.8288 43.6893 36.9273 43.9845 37.1735C45.0669 38.109 46.4936 38.0105 47.7728 38.5028C48.068 38.6506 48.4124 38.7983 48.7076 38.8475C49.79 39.0937 50.8232 39.3399 51.9056 39.586C52.5452 39.7338 53.1356 40.1276 53.726 40.1276C54.3656 40.1276 54.8576 40.2261 55.3988 40.4723C55.5956 40.5708 55.8416 40.7185 56.0876 40.6692C57.9571 40.2754 59.5807 41.3586 61.3519 41.654C62.4343 41.8017 63.4675 42.0971 64.5499 42.1956C65.0911 42.2448 65.5831 42.0971 66.1243 42.4418C66.321 42.5402 66.7146 42.5402 66.9114 42.4418C67.551 41.9002 68.1414 42.1463 68.7318 42.3925C70.011 42.9834 71.3886 43.1311 72.7662 43.0818C74.193 43.0818 75.5706 43.1803 76.899 43.6727C77.145 43.7711 77.4893 43.7219 77.7845 43.7219C78.5717 43.7219 79.4573 43.4265 80.0477 43.7219C81.0809 44.2143 82.2125 44.0666 83.2457 44.362C83.9345 44.5097 84.6233 44.5097 85.3613 44.5589C86.1977 44.5589 86.9849 44.5097 87.8213 44.5589C88.5592 44.6082 89.248 44.7066 89.9368 45.0021C90.6748 45.3467 91.462 45.5437 92.2984 45.6914C93.184 45.8391 94.0696 45.8391 94.9552 45.8883C95.2504 45.9375 95.5948 46.0853 95.89 45.9868C97.1692 45.6421 98.3991 45.9868 99.6291 46.036C101.45 46.0853 103.27 46.2822 105.139 46.3807C106.517 46.4299 107.944 46.4791 109.371 46.5284C110.994 46.5776 112.569 46.6269 114.192 46.6761C114.291 46.6761 114.34 46.6761 114.438 46.6761C115.324 46.2822 116.16 46.6269 116.947 46.873C117.439 47.0207 117.833 46.9715 118.276 46.8238C119.555 46.4299 120.834 46.1345 121.867 46.7746C122.655 46.6761 123.245 46.6269 123.786 46.5776C124.131 46.5284 124.475 46.4791 124.819 46.4299C125.951 46.2822 127.082 46.1837 128.165 46.036C128.46 45.9868 128.755 46.0853 129.1 46.0853C129.641 46.1345 130.182 46.3314 130.674 46.2822C131.707 46.1345 132.74 45.7898 133.774 46.3314C133.823 46.3807 133.921 46.3314 134.02 46.2822C135.742 46.1345 137.513 45.9375 139.284 45.8391C140.268 45.7898 141.252 45.8391 142.187 45.8391C142.925 45.8391 143.663 45.8391 144.401 45.6914C145.336 45.4944 146.27 45.2482 147.303 45.3959C147.992 45.4944 148.779 45.4452 149.37 45.1498C151.043 44.362 152.814 44.6574 154.536 44.5097C155.766 44.362 157.045 44.2143 158.275 44.0173C159.702 43.8204 161.079 43.6234 162.506 43.2788C164.474 42.7864 166.54 42.5402 168.508 41.9986C169.542 41.7032 170.575 41.5063 171.608 41.457C171.952 41.457 172.444 41.3586 172.69 41.1124C173.428 40.4231 174.314 40.2754 175.2 40.0784C175.692 39.9799 176.184 39.783 176.626 39.6353C176.971 39.5368 177.266 39.3891 177.61 39.2906C178.102 39.0937 178.644 38.8967 179.136 38.6998C179.382 38.6013 179.628 38.5028 179.874 38.4044C180.907 38.0597 182.088 38.109 182.776 37.075C182.875 36.9273 183.121 36.9765 183.318 36.878C184.449 36.3857 185.778 36.0903 186.712 35.401C187.745 34.6132 188.926 34.1208 189.91 33.333C190.107 33.1853 190.304 33.0868 190.501 32.9884C191.731 32.3975 192.961 31.8559 194.191 31.2159C194.781 30.9204 195.224 30.3788 195.765 30.0342C197.487 28.951 198.963 27.5724 200.488 26.243C200.636 26.1445 200.685 25.8983 200.734 25.7506C200.39 25.209 200.144 24.7167 200.095 24.1751C199.996 23.0919 199.553 22.2056 198.52 21.8117C197.881 21.5655 197.733 20.827 197.241 20.6793C196.109 20.2854 195.076 19.6945 194.092 18.956C193.6 18.5621 192.961 18.2667 192.518 17.8236C192.124 17.4297 191.78 17.0358 191.189 16.8881C190.747 16.7896 190.205 16.6911 189.861 16.4449C188.336 15.411 186.86 14.2785 184.941 14.0816C184.695 14.0324 184.4 13.9339 184.154 13.8847C183.76 13.7862 183.318 13.5892 182.973 13.6385C182.334 13.7369 181.792 13.54 181.202 13.2938C180.464 12.9492 179.775 12.506 178.988 12.3583C177.512 12.0629 175.987 11.9644 174.462 11.7675C174.314 11.7675 174.166 11.8167 174.019 11.7675C172.838 11.4228 171.657 11.0289 170.476 10.7335C169.64 10.5366 168.804 10.3889 167.967 10.2412C166.983 10.0935 165.95 10.0935 164.966 9.84727C163.687 9.50262 162.408 9.25644 161.129 9.15796C160.686 9.10873 160.194 9.05949 159.751 8.96102C158.029 8.56713 156.356 8.124 154.634 7.68087C154.339 7.63164 153.995 7.53316 153.699 7.63164C152.027 8.32094 150.403 7.92705 148.779 7.5824C147.599 7.33622 146.418 7.09003 145.237 6.99156C143.663 6.89309 142.138 7.0408 140.563 6.99156C138.989 6.94233 137.365 6.79462 135.791 6.74538C133.921 6.69614 132.15 5.9576 130.231 6.00683C128.165 6.00683 126.098 5.61294 123.983 5.66218C122.064 5.76065 120.195 4.72669 118.227 5.12058C118.177 5.12058 118.128 5.12058 118.128 5.12058C116.701 5.02211 115.225 4.97287 113.799 4.8744C112.913 4.82516 112.027 4.67745 111.142 4.62822C110.158 4.57898 109.174 4.43127 108.239 4.52974C107.501 4.57898 106.812 4.72669 106.074 4.48051C105.287 4.23432 104.451 4.18509 103.663 4.18509C101.007 4.18509 98.3499 4.23432 95.644 4.28356C94.1188 4.3328 92.5936 4.48051 91.0684 4.48051C88.6084 4.43127 86.1485 4.3328 83.6885 4.23432C83.4425 4.23432 83.2457 4.28356 82.9997 4.3328C81.7697 4.52974 80.6381 5.26829 79.3589 4.97287C79.2605 4.97287 79.1129 5.02211 79.0145 5.02211C78.2765 5.21905 77.5877 5.36676 76.8498 5.56371C75.5706 5.90836 74.2914 6.25302 72.9138 6.15454C72.3726 6.10531 71.7822 6.15454 71.2902 6.25302C68.781 6.89309 66.2719 7.63163 63.7627 8.27171C62.6803 8.51789 61.6471 8.91178 60.5155 8.91178C60.1711 8.91178 59.7775 9.10873 59.4331 9.2072C58.8919 9.40415 58.3999 9.84727 57.8587 9.89651C56.1859 10.0442 54.71 10.832 53.1356 11.3736C51.9548 11.7675 50.7248 12.0137 49.6424 12.6537C49.0028 12.9984 48.2648 13.1461 47.576 13.3923C46.9364 13.6385 46.346 13.9339 45.5588 13.8847C44.8209 13.7862 44.1321 14.0816 43.4925 14.5247C43.2957 14.6724 43.0005 15.1648 42.5577 14.8201C41.9181 15.411 41.1801 15.5095 40.3437 15.2633C40.2453 15.2633 40.1469 15.3617 40.0485 15.411C38.9661 16.0511 37.8837 16.6911 36.7521 17.3312C36.4569 17.4789 36.1125 17.7251 35.7681 17.7251C34.735 17.6759 33.9478 18.3159 33.3574 18.8575C32.2258 19.9407 31.045 20.2854 29.815 20.5316ZM22.9763 34.8101C22.8779 34.8594 22.8287 34.8594 22.7303 34.9086C22.7795 35.4994 22.7795 36.0903 22.8779 36.6319C22.9763 37.8135 23.1239 38.946 23.2715 40.1276C23.3699 41.3093 23.3207 42.4418 22.3859 43.4265C21.7463 44.0666 21.8939 44.3127 22.6319 44.7559C23.4191 45.2482 24.2555 45.6914 24.895 46.3314C25.9774 47.4146 27.1582 48.2517 28.6342 48.744C29.4214 48.9902 30.2578 49.3841 30.8974 49.8765C31.4386 50.3196 32.029 50.5165 32.6686 50.7135C33.751 51.1074 34.8826 51.5013 35.8665 52.0921C37.0473 52.7814 38.1297 53.5692 39.4581 53.9138C40.1469 54.1108 40.9341 54.2585 41.4753 54.7016C42.5085 55.5386 43.6401 55.9325 44.8701 56.2772C45.0177 56.3264 45.1161 56.4249 45.2637 56.4741C45.7064 56.6711 46.1984 56.9665 46.6412 57.0157C47.3792 57.065 48.0188 57.065 48.4616 57.7543C48.5108 57.8527 48.7076 57.902 48.8552 57.9512C49.9376 58.1482 51.02 58.3451 52.0532 58.5913C53.1848 58.8867 54.3164 59.0837 55.3496 59.6253C55.9892 59.9699 56.5795 60.1176 57.2191 60.1669C57.8587 60.2161 58.4983 60.2653 59.1379 60.3638C59.5315 60.413 59.9251 60.61 60.3679 60.7085C61.0567 60.9054 61.8439 60.9054 62.4835 61.2501C63.8119 61.9394 65.2387 61.4962 66.6162 61.5947C67.1082 61.6439 67.6986 61.4962 68.1906 61.6932C70.0602 62.3825 72.0774 62.0378 73.9962 62.3333C75.669 62.5794 77.4401 62.3825 79.0637 63.0718C79.3589 63.1703 79.7033 63.1703 79.9985 63.1703C80.5889 63.1703 81.1793 63.0226 81.7205 63.0718C82.6061 63.121 83.4917 63.0718 84.3773 63.2195C85.3121 63.3672 86.3945 63.2195 87.3785 63.2687C89.3464 63.4165 91.3144 63.4657 93.2332 63.5149C93.9712 63.5149 94.7584 63.6134 95.4472 63.4657C96.6772 63.121 97.858 63.4657 99.0387 63.6134C101.007 63.8103 102.975 64.155 104.943 64.4504C105.681 64.5489 106.468 64.4012 107.157 64.6474C109.026 65.2382 110.994 65.189 112.913 65.3367C113.995 65.4352 115.127 65.2874 116.209 65.2382C117.489 65.2382 118.768 65.189 120.096 65.189C120.883 65.189 121.671 65.2874 122.409 65.2874C122.605 65.2874 122.802 65.3367 122.95 65.2874C123.737 64.8443 124.77 65.2874 125.41 64.4997C125.459 64.4504 125.656 64.4504 125.754 64.4504C127.525 64.3027 129.247 64.2042 131.018 64.0565C131.117 64.0565 131.166 64.0565 131.264 64.0565C132.101 64.155 132.937 64.2535 133.774 64.3519C133.921 64.3519 134.118 64.352 134.216 64.2535C134.659 63.8596 135.151 63.7611 135.742 63.7611C136.43 63.7611 137.119 63.6134 137.808 63.5149C139.136 63.2687 140.514 62.9733 141.842 62.7764C143.86 62.481 145.877 62.2348 147.894 61.9886C148.091 61.9394 148.287 61.9394 148.484 61.8409C149.763 61.1516 151.141 61.0531 152.519 60.8069C153.355 60.6592 154.142 60.3146 154.979 60.1669C156.75 59.9699 158.423 59.4283 159.948 58.4436C160.194 58.2959 160.538 58.1482 160.833 58.1482C161.817 58.1482 162.703 57.4589 163.736 57.7543C163.933 57.8035 164.179 57.6558 164.425 57.5573C165.704 56.8188 167.082 56.4741 168.558 56.5726C168.705 56.5726 168.853 56.5726 169 56.4741C170.329 55.8341 171.706 55.194 172.986 54.5047C173.379 54.3077 173.527 53.7661 173.92 53.5692C174.363 53.3722 174.904 53.4215 175.396 53.2738C175.79 53.1261 176.085 52.8306 176.43 52.6829C177.709 52.1413 179.086 51.8951 180.07 50.8119C180.169 50.7135 180.366 50.7135 180.464 50.6642C180.956 50.4673 181.448 50.3688 181.891 50.0734C182.137 49.9257 182.186 49.5318 182.383 49.2856C182.776 48.8425 183.17 48.0547 183.613 48.0055C184.548 47.907 185.286 47.3654 186.171 47.3162C186.565 47.3162 187.008 47.07 187.352 46.8238C188.582 46.036 189.959 45.5437 191.337 45.3467C192.764 45.1005 193.994 44.7066 195.125 43.8204C195.47 43.5742 195.863 43.328 196.109 43.0326C196.897 42.1463 197.93 41.457 198.569 40.4231C199.258 39.2906 200.095 38.109 201.079 37.2719C202.161 36.3857 202.21 35.3025 202.259 34.1208C202.259 33.4315 202.21 32.693 202.21 32.0036C202.21 31.1666 202.309 30.3296 201.964 29.2956C201.571 29.5911 201.226 29.788 201.029 30.0834C200.488 30.9697 199.603 31.462 198.717 31.9544C197.979 32.3483 197.143 32.693 196.552 33.2838C196.011 33.8254 195.568 34.4162 194.781 34.6132C193.748 34.9086 192.862 35.6964 191.731 35.7456C191.485 35.7456 191.14 35.9426 191.042 36.1395C190.697 36.7796 190.156 36.9273 189.467 37.0258C189.123 37.075 188.828 37.3212 188.533 37.4689C187.303 38.0105 186.024 38.5521 184.794 39.1429C183.908 39.5368 182.973 39.7338 182.137 40.3738C181.645 40.7677 180.956 40.9154 180.366 41.0631C179.382 41.2601 178.398 41.3586 177.512 41.9002C177.069 42.1463 176.626 42.3925 176.134 42.5402C175.347 42.7372 174.658 42.9341 173.871 43.2788C172.641 43.8696 171.264 44.0666 169.935 44.4112C169.542 44.5097 169.05 44.4604 168.656 44.6574C167.574 45.2482 166.491 45.4452 165.311 45.5437C163.392 45.6914 161.621 46.5776 159.702 46.6761C157.783 46.7746 155.913 47.1192 153.995 47.3654C152.42 47.5623 150.747 47.1192 149.271 48.1532C149.173 48.2517 148.976 48.2024 148.829 48.2024C147.992 48.3009 147.107 48.3009 146.27 48.4486C144.844 48.6455 143.466 49.0887 141.99 49.0394C141.203 48.9902 140.416 48.9902 139.678 49.1379C138.644 49.3841 137.66 49.5318 136.578 49.3841C136.086 49.3349 135.545 49.3349 135.053 49.3841C133.626 49.4333 132.15 49.581 130.723 49.6303C129.887 49.6795 129.001 49.581 128.165 49.6303C127.082 49.6795 126 49.7287 124.868 49.778C123.491 49.8765 122.163 50.0242 120.785 50.1226C120.145 50.1719 119.407 50.0734 118.817 50.2703C117.882 50.5658 116.947 50.4181 116.013 50.3688C114.979 50.3688 113.946 50.3196 112.913 50.3196C111.339 50.3196 109.764 50.4181 108.239 50.4181C106.074 50.4181 103.86 50.3688 101.696 50.4673C100.22 50.5165 98.7435 50.3688 97.3168 50.5165C96.0376 50.6642 94.7092 50.4673 93.4792 50.6642C92.2984 50.8612 91.2652 49.8765 90.0844 50.4673C89.986 50.5165 89.7892 50.3196 89.6416 50.2703C88.5592 49.9257 87.5261 49.6303 86.3453 49.6795C84.6233 49.7287 82.8521 50.1226 81.1301 49.581C81.0809 49.581 80.9825 49.581 80.8841 49.581C78.9161 49.4826 76.899 49.6303 74.931 49.1871C74.8326 49.1379 74.685 49.1379 74.5866 49.1871C73.3566 49.2856 72.1266 48.744 70.8474 49.1871C70.3554 49.3349 69.8142 49.1871 69.273 49.1379C68.9778 49.0887 68.5842 49.0887 68.3874 48.8917C68.043 48.5471 67.6986 48.6948 67.305 48.6948C65.9767 48.6948 64.5991 48.6455 63.2707 48.5963C62.7295 48.5963 62.1883 48.6455 61.6963 48.4978C60.7615 48.2517 59.7775 48.4978 58.8919 47.8578C58.4983 47.5623 57.8095 47.7101 57.3667 47.4639C56.6779 47.07 55.9892 47.07 55.202 47.1192C55.0544 47.1192 54.9068 47.2669 54.7592 47.2177C53.5292 46.9223 52.2008 47.1192 51.02 46.5776C50.3804 46.2822 49.6424 46.3314 48.9536 46.1345C48.3632 45.9868 47.822 45.6421 47.2316 45.5437C45.5588 45.199 43.8861 45.002 42.3117 44.165C42.0657 44.0666 41.7705 44.0666 41.5245 43.9681C41.1801 43.8696 40.7865 43.7711 40.4421 43.6234C39.6549 43.2295 38.8677 42.8357 37.8837 42.9834C37.3425 43.0818 36.8013 42.9834 36.2601 42.8849C36.0141 42.8356 35.6697 42.7372 35.5713 42.5402C35.2269 42.0479 34.735 42.0479 34.243 41.9986C33.751 41.9986 33.2098 42.0479 33.013 41.3586C33.013 41.2601 32.6686 41.1616 32.521 41.1616C32.0782 41.2108 31.8322 41.0139 31.6354 40.7185C31.045 39.9307 30.1102 39.5368 29.323 39.3891C28.4374 39.2414 27.9454 38.7983 27.355 38.3059C26.4202 37.5181 25.5838 36.6319 24.5014 36.0903C23.9111 35.7948 23.3699 35.401 22.9763 34.8101Z" fill="#1E1F44"/>
<path d="M182.924 186.113C183.563 185.818 183.76 186.458 184.154 186.704C183.662 186.704 183.121 186.704 182.924 186.113C182.924 186.064 182.924 186.113 182.924 186.113Z" fill="#1E1F44"/>
<path d="M29.8146 20.5316C31.0938 20.2854 32.2254 19.9407 33.2586 19.0052C33.849 18.4636 34.6362 17.8236 35.6694 17.8728C35.9646 17.8728 36.309 17.6759 36.6534 17.4789C37.7358 16.8388 38.8674 16.1988 39.9498 15.5587C40.0481 15.5095 40.1958 15.3617 40.245 15.411C41.0813 15.6572 41.8193 15.5587 42.4589 14.9679C42.9017 15.3125 43.1969 14.8201 43.3937 14.6724C44.0333 14.2293 44.7221 13.9339 45.4601 14.0324C46.1981 14.1308 46.8377 13.7862 47.4773 13.54C48.1661 13.2938 48.9041 13.1461 49.5437 12.8015C50.626 12.1614 51.9052 11.9152 53.0368 11.5213C54.562 10.9797 56.038 10.1919 57.76 10.0442C58.3012 9.99498 58.7932 9.60109 59.3344 9.35491C59.6788 9.2072 60.0724 9.05949 60.4168 9.05949C61.5483 9.05949 62.5815 8.6656 63.6639 8.41941C66.1731 7.77934 68.6823 7.0408 71.1915 6.40072C71.7326 6.25301 72.2738 6.25301 72.815 6.30225C74.1926 6.40072 75.4718 6.05607 76.751 5.71141C77.489 5.51447 78.1778 5.36676 78.9158 5.16981C79.0142 5.12058 79.1618 5.07134 79.2602 5.12058C80.5394 5.41599 81.671 4.67745 82.9009 4.4805C83.1469 4.43127 83.3437 4.38203 83.5897 4.38203C86.0497 4.4805 88.5097 4.57898 90.9697 4.62821C92.4949 4.62821 94.02 4.4805 95.5452 4.43127C98.202 4.38203 100.859 4.33279 103.565 4.33279C104.352 4.33279 105.188 4.43127 105.976 4.62821C106.714 4.82516 107.402 4.72669 108.14 4.67745C109.075 4.57898 110.059 4.67745 111.043 4.77592C111.929 4.82516 112.814 4.97287 113.7 5.0221C115.127 5.12058 116.603 5.16981 118.029 5.26829C118.079 5.26829 118.128 5.31752 118.128 5.26829C120.096 4.82516 121.965 5.85912 123.884 5.80989C126 5.71141 128.066 6.15454 130.132 6.15454C132.051 6.15454 133.822 6.84385 135.692 6.89309C137.266 6.94232 138.89 7.09003 140.464 7.13927C142.039 7.1885 143.564 7.0408 145.138 7.13927C146.319 7.1885 147.549 7.43469 148.681 7.7301C150.354 8.07476 151.977 8.46865 153.601 7.77934C153.847 7.68087 154.24 7.7301 154.535 7.82858C156.257 8.22247 157.93 8.6656 159.652 9.10872C160.095 9.2072 160.587 9.25643 161.03 9.30567C162.358 9.40414 163.588 9.69956 164.867 9.99498C165.851 10.2412 166.835 10.2412 167.869 10.3889C168.705 10.5366 169.541 10.6843 170.378 10.8812C171.558 11.1767 172.739 11.5705 173.92 11.9152C174.068 11.9644 174.215 11.9152 174.363 11.9152C175.888 12.1121 177.364 12.2106 178.889 12.506C179.676 12.6537 180.365 13.0969 181.103 13.4415C181.644 13.6877 182.235 13.8847 182.874 13.7862C183.268 13.7369 183.662 13.9339 184.055 14.0324C184.301 14.0816 184.596 14.2293 184.842 14.2293C186.761 14.4263 188.237 15.5587 189.762 16.5927C190.156 16.8388 190.648 16.9373 191.091 17.0358C191.681 17.1835 192.025 17.5774 192.419 17.9713C192.911 18.4144 193.501 18.7098 193.993 19.1037C194.928 19.8423 196.011 20.3839 197.142 20.827C197.634 21.0239 197.782 21.7625 198.421 21.9594C199.455 22.3533 199.848 23.2396 199.996 24.3228C200.045 24.8644 200.291 25.406 200.635 25.8983C200.537 26.046 200.488 26.2922 200.389 26.3907C198.913 27.7693 197.388 29.0987 195.666 30.1819C195.125 30.5266 194.682 31.0682 194.092 31.3636C192.911 32.0036 191.632 32.5452 190.402 33.1361C190.205 33.2346 189.959 33.333 189.812 33.4807C188.828 34.2685 187.647 34.7609 186.614 35.5487C185.63 36.2872 184.35 36.5826 183.219 37.0258C183.022 37.075 182.776 37.075 182.678 37.2227C181.94 38.2074 180.759 38.2074 179.775 38.5521C179.529 38.6506 179.283 38.749 179.037 38.8475C178.545 39.0444 178.004 39.2414 177.512 39.4383C177.167 39.586 176.872 39.6845 176.528 39.783C176.036 39.9307 175.593 40.1276 175.101 40.2261C174.215 40.4231 173.33 40.5708 172.592 41.2601C172.346 41.5063 171.903 41.6047 171.509 41.6047C170.427 41.654 169.443 41.8509 168.41 42.1463C166.442 42.6879 164.375 42.9341 162.407 43.4265C160.981 43.7711 159.603 43.9681 158.176 44.165C156.946 44.362 155.667 44.5097 154.437 44.6574C152.715 44.8543 150.944 44.5097 149.271 45.2975C148.681 45.5929 147.894 45.5929 147.205 45.5436C146.172 45.3959 145.286 45.6914 144.302 45.8391C143.564 45.9868 142.826 45.9868 142.088 45.9868C141.104 45.9868 140.12 45.9375 139.185 45.9868C137.414 46.0853 135.692 46.2822 133.921 46.4299C133.822 46.4299 133.724 46.4791 133.675 46.4791C132.642 45.9375 131.608 46.2822 130.575 46.4299C130.083 46.5284 129.493 46.3314 129.001 46.233C128.706 46.1837 128.361 46.1345 128.066 46.1837C126.935 46.2822 125.803 46.4299 124.721 46.5776C124.376 46.6269 124.032 46.6761 123.687 46.7253C123.146 46.7746 122.605 46.873 121.769 46.9223C120.735 46.2822 119.456 46.6269 118.177 46.9715C117.734 47.1192 117.341 47.1684 116.849 47.0207C116.061 46.7746 115.176 46.4299 114.339 46.8238C114.29 46.873 114.192 46.8238 114.093 46.8238C112.47 46.7746 110.895 46.7253 109.272 46.6761C107.845 46.6269 106.468 46.6269 105.041 46.5284C103.22 46.4299 101.4 46.2822 99.5304 46.1837C98.3004 46.1345 97.0704 45.7898 95.7912 46.1345C95.496 46.1837 95.2008 46.036 94.8564 46.036C93.9708 45.9868 93.0852 45.9868 92.1997 45.8391C91.4125 45.6914 90.5761 45.4944 89.8381 45.1498C89.1493 44.8543 88.4113 44.7559 87.7225 44.7066C86.8861 44.6574 86.0989 44.7066 85.2625 44.7066C84.5737 44.7066 83.8357 44.7066 83.1469 44.5097C82.1137 44.2635 80.9822 44.362 79.949 43.8696C79.3094 43.5742 78.4238 43.8696 77.6858 43.8696C77.3906 43.8696 77.0462 43.9188 76.8002 43.8204C75.4718 43.328 74.0942 43.2295 72.6674 43.2295C71.2898 43.2295 69.9123 43.0818 68.6331 42.5402C68.0427 42.294 67.4031 42.0479 66.8127 42.5895C66.6651 42.7372 66.2223 42.7372 66.0255 42.5895C65.5335 42.2448 64.9923 42.3925 64.4511 42.3433C63.3687 42.2448 62.3355 41.9494 61.2531 41.8017C59.482 41.5063 57.9076 40.4231 55.9888 40.817C55.792 40.8662 55.546 40.7185 55.3 40.62C54.7588 40.3246 54.2668 40.2261 53.6272 40.2754C53.0368 40.2754 52.3972 39.9307 51.8068 39.7338C50.7736 39.4876 49.6913 39.2414 48.6089 38.9952C48.2645 38.8967 47.9693 38.749 47.6741 38.6506C46.4441 38.1582 45.0173 38.2074 43.8857 37.3212C43.5905 37.075 43.0985 36.9765 42.7049 36.9765C42.3605 36.9765 42.2129 36.9765 42.0653 36.6811C42.0161 36.5826 41.7701 36.3857 41.6717 36.4349C40.8845 36.7796 40.3433 36.1887 39.753 35.9918C38.7198 35.5979 37.6374 35.7456 36.555 35.5979C36.2598 34.9086 35.7678 34.6132 35.079 34.4162C34.095 34.1208 33.2094 33.6284 32.2746 33.2346C31.9794 33.0868 31.6842 32.9884 31.389 32.8899C31.143 32.7914 30.7986 32.7914 30.7494 32.6437C30.405 31.8067 29.4211 31.7575 28.8307 31.2159C28.2895 30.7235 27.6007 30.4281 26.9119 30.1819C25.9279 29.8372 25.2883 29.1479 24.6979 28.3602C24.3535 27.917 24.0091 27.5724 23.6647 27.1292C23.5171 26.8831 23.4679 26.5876 23.3203 26.3415C26.0263 24.8151 27.9451 22.7964 29.8146 20.5316ZM96.0864 24.5197C95.5944 24.5197 95.1024 24.4212 94.6104 24.4705C93.774 24.569 92.9376 24.7167 92.1012 24.8644C90.7237 25.0613 89.2969 25.1105 87.9685 25.4552C86.7385 25.7506 85.6069 26.243 84.3277 25.8491C84.2785 25.8491 84.1801 25.8983 84.0817 25.8983C83.0977 26.1445 82.1137 26.4399 81.1298 26.6369C80.5394 26.7353 79.949 26.7846 79.4078 26.7846C78.0794 26.8338 76.751 26.9323 75.5702 27.6216C75.275 27.8186 74.8322 27.917 74.4878 27.917C73.6514 27.9663 73.1594 28.2617 72.7166 29.0495C72.323 29.788 72.6182 30.7727 71.9294 31.4128C72.4706 31.9052 71.6834 32.1514 71.7326 32.5945C71.8802 33.4315 71.9786 34.2685 72.1262 35.1548C72.323 35.204 72.569 35.3517 72.815 35.401C74.291 35.5487 75.767 35.6471 77.1938 35.7456C78.2762 35.7948 79.4078 35.6964 80.441 35.8441C82.1629 36.041 83.8849 36.238 85.6561 36.1887C87.3781 36.0903 89.0509 36.6319 90.7729 36.6319C91.4617 36.6319 92.2488 36.878 92.9376 36.7303C93.6756 36.5826 94.3152 36.7303 95.004 36.8288C95.3976 36.878 95.7912 36.878 96.1848 36.8288C97.218 36.7796 98.202 36.6319 99.2352 36.9765C99.6288 37.1242 100.072 37.075 100.514 37.075C101.646 37.075 102.778 37.075 103.909 37.1242C104.844 37.1735 105.73 37.3704 106.664 37.4196C108.681 37.5181 110.699 37.4196 112.716 37.6658C114.438 37.8628 116.209 37.6658 117.98 37.6166C118.767 37.5674 119.505 38.0597 119.801 38.8475C119.85 38.8475 119.948 38.8967 119.997 38.8967C120.686 38.946 121.424 38.8967 122.015 39.0937C122.9 39.4383 123.835 39.3399 124.524 38.946C125.508 38.4536 126.443 38.109 127.525 37.9612C128.115 37.8628 128.755 37.8628 129.345 37.7151C130.624 37.4196 131.854 37.1242 133.084 36.6811C134.413 36.238 135.741 35.8441 137.119 35.5979C139.038 35.3025 140.907 34.7609 142.826 34.3178C143.023 34.2685 143.17 34.17 143.367 34.0716C144.105 33.8254 144.843 33.6284 145.581 33.3823C145.975 33.2346 146.467 33.2346 146.762 32.9391C147.352 32.3975 148.09 32.2991 148.73 32.0036C149.714 31.5113 150.698 30.9697 151.682 30.3296C152.075 30.0834 152.174 29.5418 152.075 29.0495C151.928 28.5571 151.731 28.114 151.141 27.9663C150.354 27.7201 149.616 27.3754 148.878 27.08C147.746 26.6861 146.713 26.1938 145.434 26.243C144.351 26.2922 143.269 26.0953 142.186 25.9968C140.809 25.8491 139.48 25.6029 138.103 25.4552C137.316 25.3567 136.528 25.3075 135.741 25.2583C134.806 25.209 133.872 24.9628 132.937 25.209C132.691 25.2583 132.297 25.209 132.051 25.0613C131.608 24.7659 131.116 24.7167 130.624 24.7659C130.083 24.8151 129.542 24.7659 129.001 24.7167C127.328 24.6674 125.606 24.0766 123.933 24.6182C123.884 24.6182 123.786 24.6182 123.687 24.6182C122.9 24.5197 122.162 24.4212 121.375 24.372C119.505 24.2243 117.636 24.0766 115.766 23.9781C114.635 23.8796 113.503 23.8796 112.371 23.7812C111.781 23.7319 111.141 23.535 110.551 23.4858C109.567 23.338 108.583 23.535 107.648 23.4365C106.714 23.3873 105.73 23.2888 104.795 23.1903C103.712 23.0919 102.63 22.9441 101.548 22.8457C100.318 22.7964 99.0384 22.7472 97.8084 22.7964C97.5624 22.7964 97.218 23.0426 97.0704 23.2396C96.6276 23.5842 96.3816 24.0766 96.0864 24.5197C96.0864 24.5197 96.0372 24.5197 96.0864 24.5197Z" fill="#EB611B"/>
<path d="M22.9761 34.8101C23.4189 35.4009 23.9109 35.7948 24.5997 36.0903C25.6821 36.5826 26.5185 37.5181 27.4533 38.3059C28.0437 38.7983 28.5849 39.1921 29.4213 39.3891C30.2085 39.5368 31.1925 39.8815 31.7337 40.7185C31.9305 41.0139 32.1765 41.2601 32.6193 41.1616C32.7669 41.1124 33.062 41.2601 33.1112 41.3585C33.2588 42.0479 33.8492 41.9986 34.3412 41.9986C34.8824 41.9986 35.3252 41.9986 35.6696 42.5402C35.8172 42.7372 36.1124 42.8356 36.3584 42.8849C36.8996 42.9833 37.4408 43.0326 37.982 42.9833C38.966 42.8356 39.7532 43.2295 40.5404 43.6234C40.8848 43.7711 41.2292 43.8696 41.6228 43.9681C41.8688 44.0173 42.164 44.0173 42.41 44.165C43.9351 44.9528 45.6571 45.199 47.3299 45.5436C47.9203 45.6421 48.4615 45.9868 49.0519 46.1345C49.7407 46.3314 50.4787 46.2822 51.1183 46.5776C52.3483 47.1192 53.6275 46.873 54.8574 47.2177C55.005 47.2669 55.1526 47.1192 55.3002 47.1192C56.0382 47.0207 56.727 47.07 57.465 47.4638C57.9078 47.71 58.5966 47.5623 58.9902 47.8577C59.8758 48.4486 60.8598 48.2516 61.7946 48.4978C62.2866 48.6455 62.8278 48.5963 63.369 48.5963C64.6973 48.6455 66.0749 48.6948 67.4033 48.6948C67.7969 48.6948 68.1413 48.547 68.4857 48.8917C68.6825 49.0886 69.0761 49.0886 69.3713 49.1379C69.9125 49.1871 70.5029 49.3348 70.9457 49.1871C72.2249 48.744 73.4549 49.2856 74.6849 49.1871C74.7833 49.1871 74.9308 49.1871 75.0292 49.1871C76.9972 49.6302 79.0144 49.4825 80.9824 49.581C81.0808 49.581 81.13 49.581 81.2284 49.581C82.9504 50.1226 84.7215 49.7287 86.4435 49.6795C87.6243 49.6302 88.7067 49.9257 89.7399 50.2703C89.8875 50.3195 90.0843 50.5165 90.1827 50.4673C91.3635 49.8764 92.3967 50.8612 93.5775 50.6642C94.8567 50.4673 96.1358 50.615 97.415 50.5165C98.891 50.3688 100.367 50.5165 101.794 50.4673C103.959 50.3688 106.173 50.4673 108.337 50.418C109.912 50.418 111.486 50.3195 113.011 50.3195C114.044 50.3195 115.078 50.3688 116.111 50.3688C117.046 50.3688 117.98 50.5165 118.915 50.2703C119.555 50.0734 120.244 50.2211 120.883 50.1226C122.261 50.0241 123.589 49.8764 124.967 49.778C126.049 49.6795 127.132 49.6302 128.263 49.6302C129.1 49.6302 129.985 49.6795 130.822 49.6302C132.248 49.581 133.724 49.4825 135.151 49.3841C135.643 49.3348 136.184 49.3348 136.676 49.3841C137.709 49.4825 138.743 49.3348 139.776 49.1379C140.514 48.9902 141.35 48.9902 142.088 49.0394C143.564 49.0886 144.942 48.6948 146.369 48.4486C147.205 48.3009 148.091 48.3009 148.927 48.2024C149.075 48.2024 149.271 48.2024 149.37 48.1532C150.797 47.1192 152.519 47.5623 154.093 47.3654C156.012 47.1192 157.881 46.7745 159.8 46.6761C161.719 46.5776 163.49 45.6913 165.409 45.5436C166.59 45.4452 167.721 45.199 168.754 44.6574C169.099 44.4604 169.591 44.5097 170.034 44.4112C171.362 44.0665 172.74 43.8696 173.97 43.2788C174.708 42.9341 175.445 42.6879 176.233 42.5402C176.725 42.4417 177.167 42.1956 177.61 41.9001C178.496 41.3585 179.48 41.2601 180.464 41.0631C181.103 40.9647 181.792 40.7677 182.235 40.3738C183.022 39.7337 184.006 39.5368 184.892 39.1429C186.122 38.5521 187.352 38.0105 188.631 37.4689C188.975 37.3212 189.271 37.075 189.566 37.0257C190.205 36.9273 190.747 36.7796 191.14 36.1395C191.239 35.9425 191.583 35.7456 191.829 35.7456C193.01 35.7456 193.846 34.9086 194.879 34.6132C195.667 34.4162 196.109 33.8254 196.65 33.2838C197.241 32.693 198.077 32.3483 198.815 31.9544C199.701 31.462 200.537 30.9697 201.128 30.0834C201.324 29.788 201.669 29.5911 202.062 29.2956C202.407 30.2804 202.308 31.1666 202.308 32.0036C202.308 32.693 202.358 33.4315 202.358 34.1208C202.358 35.3025 202.308 36.3364 201.177 37.2719C200.144 38.1089 199.356 39.2906 198.668 40.4231C198.028 41.5063 196.995 42.1463 196.208 43.0326C195.912 43.328 195.519 43.5742 195.224 43.8204C194.092 44.7066 192.862 45.1005 191.435 45.3467C190.058 45.5436 188.68 46.0852 187.45 46.8238C187.106 47.07 186.663 47.2669 186.269 47.3161C185.384 47.3654 184.597 47.907 183.711 48.0054C183.268 48.0547 182.875 48.8425 182.481 49.2856C182.284 49.5318 182.235 49.9257 181.989 50.0734C181.546 50.3195 181.005 50.4673 180.562 50.6642C180.415 50.7134 180.218 50.7134 180.169 50.8119C179.185 51.8951 177.758 52.1413 176.528 52.6829C176.134 52.8306 175.839 53.1753 175.495 53.2737C175.003 53.4214 174.462 53.3722 174.019 53.5691C173.625 53.7661 173.428 54.3077 173.084 54.5046C171.756 55.1939 170.427 55.834 169.099 56.4741C168.951 56.5233 168.804 56.5726 168.656 56.5726C167.18 56.4249 165.802 56.8187 164.523 57.5573C164.326 57.6558 164.031 57.8035 163.834 57.7542C162.801 57.4588 161.916 58.1481 160.932 58.1481C160.636 58.1481 160.292 58.2958 160.046 58.4435C158.521 59.4283 156.897 59.9699 155.077 60.1668C154.24 60.2653 153.453 60.6099 152.617 60.8069C151.239 61.0531 149.862 61.2008 148.583 61.8408C148.435 61.9393 148.189 61.9393 147.992 61.9886C145.975 62.2347 143.958 62.4809 141.941 62.7763C140.563 62.9733 139.235 63.2687 137.906 63.5149C137.217 63.6134 136.529 63.7611 135.84 63.7611C135.249 63.7611 134.757 63.8103 134.315 64.2534C134.216 64.3519 134.019 64.3519 133.872 64.3519C133.035 64.2534 132.199 64.155 131.363 64.0565C131.264 64.0565 131.215 64.0565 131.117 64.0565C129.346 64.2042 127.624 64.3027 125.852 64.4504C125.754 64.4504 125.557 64.4504 125.508 64.4996C124.819 65.2874 123.786 64.8443 123.048 65.2874C122.9 65.3859 122.704 65.2874 122.507 65.2874C121.72 65.2382 120.932 65.1889 120.194 65.1889C118.915 65.1889 117.636 65.1889 116.308 65.2382C115.225 65.2382 114.094 65.3859 113.011 65.3366C111.092 65.1889 109.125 65.2874 107.255 64.6473C106.566 64.4011 105.779 64.5488 105.041 64.4504C103.073 64.2042 101.105 63.8103 99.137 63.6134C97.9562 63.5149 96.7754 63.1702 95.5454 63.4656C94.8567 63.6626 94.0695 63.5641 93.3315 63.5149C91.3635 63.4656 89.3955 63.4164 87.4767 63.2687C86.4435 63.1702 85.4103 63.3672 84.4756 63.2195C83.59 63.0718 82.7044 63.121 81.8188 63.0718C81.2284 63.0225 80.6872 63.1702 80.0968 63.1702C79.8016 63.1702 79.4572 63.2195 79.162 63.0718C77.5384 62.3825 75.8164 62.5794 74.0945 62.3332C72.1757 62.087 70.1585 62.3824 68.2889 61.6931C67.7969 61.4962 67.2065 61.6439 66.7145 61.5947C65.3369 61.4962 63.9594 61.9393 62.5818 61.25C61.9422 60.9054 61.155 60.9054 60.4662 60.7084C60.0726 60.6099 59.679 60.413 59.2362 60.3638C58.5966 60.2653 57.957 60.2653 57.3174 60.1668C56.6778 60.1176 56.0874 59.9206 55.4478 59.6252C54.4146 59.0836 53.2831 58.8867 52.1515 58.5913C51.0691 58.3451 49.9867 58.1481 48.9535 57.9512C48.8059 57.9019 48.6091 57.8527 48.5599 57.7542C48.1171 57.0649 47.4283 57.0649 46.7395 57.0157C46.2475 57.0157 45.8047 56.671 45.3619 56.4741C45.2143 56.4249 45.1159 56.3264 44.9683 56.2771C43.7383 55.9325 42.5576 55.5386 41.5736 54.7016C41.0324 54.2585 40.2452 54.1107 39.5564 53.9138C38.228 53.5691 37.0964 52.7814 35.9648 52.0921C34.9808 51.5012 33.8492 51.1073 32.7668 50.7134C32.1273 50.5165 31.5861 50.2703 30.9957 49.8764C30.3069 49.3841 29.5197 48.9902 28.7325 48.744C27.2565 48.3009 26.0757 47.4146 24.9933 46.3314C24.3537 45.6913 23.5173 45.199 22.7301 44.7558C21.9922 44.3127 21.8446 44.0665 22.4841 43.4265C23.4189 42.4417 23.4681 41.3093 23.3697 40.1276C23.2713 38.946 23.1237 37.8135 22.9761 36.6319C22.9269 36.041 22.8777 35.4502 22.8285 34.9086C22.7793 34.8594 22.8777 34.8593 22.9761 34.8101Z" fill="#EB611B"/>
<path d="M96.0376 24.5197C96.3328 24.0766 96.628 23.5842 96.9723 23.1903C97.1691 22.9934 97.4643 22.7472 97.7103 22.7472C98.9403 22.7472 100.22 22.7472 101.45 22.7964C102.532 22.8457 103.614 22.9934 104.697 23.1411C105.631 23.2396 106.615 23.338 107.55 23.3873C108.485 23.4365 109.469 23.2888 110.453 23.4365C111.043 23.535 111.683 23.6827 112.273 23.7319C113.405 23.8304 114.537 23.8796 115.668 23.9289C117.538 24.0766 119.407 24.1751 121.277 24.3228C122.064 24.372 122.802 24.5197 123.589 24.569C123.688 24.569 123.737 24.569 123.835 24.569C125.557 24.0274 127.23 24.6182 128.903 24.6674C129.444 24.6674 129.985 24.7659 130.526 24.7167C131.068 24.6674 131.51 24.7167 131.953 25.0121C132.199 25.1598 132.593 25.2583 132.839 25.1598C133.774 24.9136 134.708 25.1106 135.643 25.209C136.43 25.2583 137.218 25.3075 138.005 25.406C139.382 25.5537 140.711 25.7999 142.088 25.9476C143.171 26.0953 144.253 26.243 145.335 26.1938C146.615 26.1445 147.648 26.6369 148.779 27.0308C149.567 27.3262 150.305 27.6708 151.043 27.917C151.633 28.114 151.83 28.5079 151.977 29.0002C152.125 29.4926 152.027 30.0342 151.584 30.2804C150.649 30.8712 149.665 31.4128 148.632 31.9544C147.992 32.2991 147.254 32.3975 146.664 32.8899C146.369 33.1361 145.877 33.1853 145.483 33.333C144.745 33.5792 144.007 33.7761 143.269 34.0223C143.072 34.0716 142.925 34.2193 142.728 34.2685C140.809 34.7116 138.94 35.2532 137.021 35.5487C135.594 35.7456 134.315 36.1395 132.986 36.6319C131.756 37.0257 130.526 37.3212 129.247 37.6658C128.657 37.8135 128.017 37.8628 127.427 37.912C126.394 38.0597 125.41 38.4044 124.426 38.8967C123.737 39.2414 122.802 39.3399 121.917 39.0444C121.277 38.7983 120.539 38.8967 119.899 38.8475C119.801 38.8475 119.752 38.7983 119.703 38.7983C119.407 38.0105 118.669 37.5181 117.882 37.5673C116.111 37.6166 114.34 37.8135 112.618 37.6166C110.601 37.3704 108.583 37.5181 106.566 37.3704C105.631 37.3212 104.746 37.1242 103.811 37.075C102.679 37.0257 101.548 37.0257 100.416 37.0257C99.9735 37.0257 99.5307 37.075 99.1371 36.9273C98.1531 36.5826 97.1199 36.6811 96.0868 36.7796C95.6932 36.8288 95.2996 36.8288 94.906 36.7796C94.2172 36.6811 93.5776 36.5334 92.8396 36.6811C92.1508 36.8288 91.3636 36.5826 90.6748 36.5826C88.9528 36.5826 87.28 36.0903 85.5581 36.1395C83.7869 36.238 82.0649 36.041 80.3429 35.7948C79.2605 35.6471 78.1781 35.7456 77.0957 35.6964C75.6197 35.5979 74.1438 35.4994 72.717 35.3517C72.471 35.3517 72.225 35.1548 72.0282 35.1055C71.8806 34.17 71.7822 33.333 71.6346 32.5452C71.5362 32.1021 72.3234 31.8067 71.8314 31.3636C72.5202 30.7235 72.225 29.788 72.6186 29.0002C73.0122 28.2617 73.5534 27.917 74.3898 27.8678C74.7834 27.8678 75.177 27.7693 75.4721 27.5724C76.6529 26.8831 77.9813 26.7846 79.3097 26.7354C79.9001 26.6861 80.4905 26.6861 81.0317 26.5876C82.0157 26.3907 82.9997 26.0953 83.9837 25.8491C84.0821 25.8491 84.1313 25.7999 84.2297 25.7999C85.5089 26.1938 86.6404 25.7014 87.8704 25.406C89.1988 25.0613 90.6256 25.0121 92.0032 24.8151C92.8396 24.7167 93.676 24.5197 94.5124 24.4212C95.0536 24.4212 95.5948 24.4705 96.0376 24.5197C95.9392 24.8151 95.8408 25.1598 95.6932 25.406C95.4964 25.6522 95.2012 25.9968 94.906 26.046C94.168 26.243 93.3808 26.2922 92.5936 26.4399C92.1016 26.5384 91.5604 26.8831 91.1668 26.7354C90.2812 26.4399 89.74 26.8831 89.1496 27.277C88.9036 27.4247 88.6084 27.5231 88.3132 27.6708C87.6736 28.0647 86.9356 27.8678 86.2469 27.9663C85.2629 28.1632 84.2789 28.5079 83.3933 28.951C82.7045 29.2956 81.9665 29.3449 81.2285 29.4433C80.3921 29.5418 79.5557 29.788 78.7193 29.985C78.5225 30.0342 78.3257 30.2804 78.1289 30.4281C78.9653 30.6743 79.7525 30.5758 80.4905 30.7235C82.0649 31.1174 83.6393 30.8712 85.2137 31.2159C86.1976 31.4128 87.2308 31.4128 88.2148 31.5113C88.6084 31.5605 88.9528 31.6098 89.3464 31.659C91.0684 31.8559 92.7904 32.0036 94.4632 32.2006C94.8568 32.2498 95.2996 32.3975 95.5948 32.2498C96.4804 31.9052 97.2675 32.2991 98.1039 32.3483C99.0387 32.3975 99.9735 32.7422 100.958 32.7914C102.483 32.9391 104.008 32.9391 105.484 32.9884C105.779 32.9884 106.123 33.0868 106.419 33.1361C107.403 33.333 108.387 33.53 109.371 33.6777C110.748 33.8746 112.175 34.0716 113.553 34.17C114.586 34.2685 115.668 34.2685 116.701 34.3177C117.144 34.367 117.538 34.4655 117.981 34.5639C118.473 34.6624 118.915 34.7609 119.358 34.8593C119.998 33.7269 120.736 32.9391 121.917 33.0376C123.737 33.1361 125.311 32.496 126.984 31.9544C128.165 31.5605 129.346 31.1666 130.576 30.9204C132.396 30.5265 134.266 30.1819 136.086 29.8372C137.021 29.6403 137.956 29.3941 138.89 29.1479C138.94 29.1479 138.94 29.0002 138.989 28.9018C138.792 28.8525 138.644 28.754 138.448 28.754C137.119 28.6556 135.791 28.6063 134.462 28.5079C133.036 28.4094 131.609 28.3109 130.133 28.2617C128.804 28.2124 127.476 28.1632 126.148 28.114C125.016 28.0647 123.884 28.0647 122.753 28.0155C120.982 27.917 119.26 27.8186 117.489 27.7201C117.243 27.7201 117.046 27.6216 116.8 27.5724C116.308 27.4247 115.767 27.2277 115.275 27.1785C114.094 27.08 112.864 27.4247 111.683 26.8831C111.437 26.7846 111.142 26.8338 110.847 26.8831C109.715 27.1292 108.682 26.8338 107.599 26.5876C107.452 26.5384 107.206 26.4892 107.107 26.5384C105.877 27.1785 104.647 26.8338 103.417 26.5876C102.04 26.3415 100.662 26.1445 99.2355 26.1445C98.2515 26.0953 96.9231 25.4552 96.0376 24.5197Z" fill="#1E1F44"/>
<path d="M96.0375 24.5197C96.8739 25.4552 98.2515 26.0953 99.4323 26.0953C100.859 26.0953 102.237 26.2922 103.614 26.5384C104.795 26.7846 106.074 27.08 107.304 26.4892C107.452 26.4399 107.649 26.4892 107.796 26.5384C108.879 26.7846 109.912 27.08 111.043 26.8338C111.289 26.7846 111.634 26.7354 111.88 26.8338C113.061 27.3754 114.291 27.0308 115.471 27.1292C116.012 27.1785 116.504 27.3754 116.996 27.5231C117.242 27.5724 117.439 27.6216 117.685 27.6708C119.456 27.7693 121.178 27.8678 122.95 27.9663C124.081 28.0155 125.213 28.0155 126.344 28.0647C127.673 28.114 129.001 28.1632 130.33 28.2124C131.756 28.2617 133.183 28.3602 134.659 28.4586C135.987 28.5571 137.316 28.6063 138.644 28.7048C138.841 28.7048 138.989 28.8033 139.185 28.8525C139.136 29.0002 139.136 29.0987 139.087 29.0987C138.152 29.3449 137.217 29.5911 136.283 29.788C134.462 30.1819 132.593 30.4773 130.772 30.8712C129.542 31.1666 128.362 31.5605 127.181 31.9052C125.508 32.4468 123.934 33.0868 122.113 32.9884C120.932 32.9391 120.194 33.6777 119.555 34.8101C119.112 34.7116 118.669 34.6132 118.177 34.5147C117.734 34.4162 117.341 34.3177 116.898 34.2685C115.865 34.2193 114.783 34.2193 113.749 34.1208C112.372 33.9731 110.945 33.8254 109.567 33.6284C108.583 33.4807 107.599 33.2838 106.615 33.0868C106.32 33.0376 105.976 32.9391 105.681 32.9391C104.155 32.8407 102.63 32.8407 101.154 32.7422C100.219 32.6437 99.2847 32.3483 98.3007 32.2991C97.4643 32.2498 96.6771 31.8559 95.7915 32.2006C95.4471 32.3483 95.0043 32.2006 94.6599 32.1513C92.9379 31.9544 91.216 31.8067 89.5432 31.6097C89.1496 31.5605 88.8052 31.5113 88.4116 31.462C87.4276 31.3636 86.3944 31.3636 85.4104 31.1666C83.836 30.822 82.2616 31.0681 80.6873 30.6743C79.9493 30.4773 79.1621 30.5758 78.3257 30.3788C78.5225 30.2311 78.6701 29.985 78.9161 29.9357C79.7525 29.7388 80.5889 29.4926 81.4253 29.3941C82.1632 29.2956 82.852 29.2464 83.59 28.9018C84.4756 28.4586 85.4596 28.114 86.4436 27.917C87.1324 27.7693 87.8212 27.9663 88.51 27.6216C88.756 27.4739 89.1004 27.3754 89.3464 27.2277C89.986 26.8338 90.5272 26.3907 91.3635 26.6861C91.7571 26.8338 92.2983 26.4892 92.7903 26.3907C93.5775 26.243 94.3155 26.1938 95.1027 25.9968C95.3979 25.8983 95.6931 25.6029 95.8899 25.3567C95.8899 25.1598 95.9391 24.8151 96.0375 24.5197C96.0375 24.5197 96.0867 24.5197 96.0375 24.5197Z" fill="white"/>
</g>
<defs>
<clipPath id="clip0">
<rect width="232.615" height="155" fill="white"/>
</clipPath>
</defs>
</svg>
