<svg width="63" height="56" viewBox="0 0 63 56" fill="none" xmlns="http://www.w3.org/2000/svg">
<path d="M32.3087 30.3246C33.6963 28.7635 34.2167 26.682 34.9105 24.774C38.2062 16.7951 43.2363 10.2038 48.7869 3.78599C50.0011 2.22489 51.3887 0.490343 53.4702 0.663798C56.2455 0.663798 59.0207 1.87798 61.1022 3.43908C62.6633 4.65326 62.4898 6.73472 62.1429 8.64272C61.4491 13.4995 59.3676 18.0093 57.2862 22.1722C52.4295 31.5388 45.6647 39.8646 39.7673 48.5373C38.2062 50.7922 36.1247 52.7002 34.0432 54.4348C32.3087 55.649 30.5741 56.5163 28.4927 55.649C23.636 53.9144 18.9527 51.833 16.0039 46.9762C13.4021 42.8133 11.4941 38.4769 9.06575 34.4875C7.15775 31.3653 5.59665 28.0697 4.20901 24.6006C2.12756 19.3969 0.739917 14.0198 0.0460973 8.64272C-0.127358 6.90817 0.219552 5.17362 0.739917 3.61253C1.9541 0.316888 4.72938 -0.72384 8.02502 0.490343C13.9225 2.74526 18.7792 6.56126 22.5952 11.7649C26.5847 17.3155 30.2272 23.0395 31.9618 29.8042C31.7883 29.9777 32.1352 30.1511 32.3087 30.3246ZM12.3614 10.7242C11.1472 13.8464 13.2287 16.1013 13.9225 18.5296C16.5243 26.8555 20.5138 34.6609 24.8501 42.293C25.7174 41.4257 25.544 40.9053 25.3705 40.385C23.8094 35.7017 23.289 30.6715 21.5545 25.9882C20.1669 22.5191 18.4323 19.2235 17.0447 15.9278C16.0039 14.0198 14.6163 11.9384 12.3614 10.7242Z" fill="#76B39D"/>
</svg>
