<svg width="18" height="16" viewBox="0 0 18 16" fill="none" xmlns="http://www.w3.org/2000/svg">
<g clip-path="url(#clip0)">
<path d="M6.29875 3.70736C6.29875 3.69646 6.27695 3.69646 6.29875 3.70736V3.70736Z" fill="#1E1F44"/>
<path d="M11.5811 8.46648C11.6159 8.44904 11.6334 8.4316 11.6508 8.42288L11.5811 8.46648Z" fill="#1E1F44"/>
<path d="M12.1914 9.46921C12.1914 9.47793 12.1914 9.47793 12.1914 9.47793C12.2088 9.46921 12.2176 9.45177 12.1914 9.46921Z" fill="#1E1F44"/>
<path d="M4.56152 2.47628C4.56152 2.47628 4.57024 2.47628 4.56152 2.47628C4.57024 2.47628 4.57024 2.46757 4.57024 2.45885L4.56152 2.47628Z" fill="#1E1F44"/>
<path d="M4.61391 2.47629C4.60519 2.49373 4.58775 2.48501 4.57031 2.48501C4.57031 2.5286 4.58775 2.54604 4.62263 2.55476C4.64879 2.51988 4.61391 2.49373 4.61391 2.47629Z" fill="#1E1F44"/>
<path d="M1.91992 0.592917L1.93736 0.584198C1.92864 0.592917 1.92864 0.592917 1.91992 0.592917Z" fill="#1E1F44"/>
<path d="M12.8454 10.3063C12.828 10.3237 12.8193 10.3324 12.8105 10.3499L12.8454 10.3063Z" fill="#1E1F44"/>
<path d="M15.8533 14.8229L15.8271 14.8142C15.8359 14.8229 15.8446 14.8229 15.8533 14.8229Z" fill="#1E1F44"/>
<path d="M13.5692 11.6316C13.5779 11.6316 13.5779 11.6229 13.5866 11.6229C13.5866 11.588 13.543 11.5357 13.4907 11.4747L13.4297 11.527L13.5692 11.6316Z" fill="#1E1F44"/>
<path d="M2.6084 1.03761C2.6084 1.03761 2.6193 1.03761 2.6193 1.04851C2.6193 1.03761 2.6193 1.03761 2.6084 1.03761Z" fill="#1E1F44"/>
<path d="M15.4286 14.788C15.4068 14.7989 15.4177 14.7989 15.4286 14.788V14.788Z" fill="#1E1F44"/>
<path d="M13.9873 12.3379V12.3466L14.0135 12.2769L13.9873 12.3379Z" fill="#1E1F44"/>
<path d="M15.1295 13.6806C15.0859 13.6109 15.0771 13.6109 15.0771 13.6283C15.0946 13.6545 15.112 13.6719 15.1295 13.6806Z" fill="#1E1F44"/>
<path d="M16.0103 15.1106C16.0451 15.1368 16.0364 15.1281 16.0103 15.1106C15.9754 15.0845 15.9492 15.067 15.9492 15.067C15.9754 15.0845 15.9928 15.1019 16.0103 15.1106Z" fill="#1E1F44"/>
<path d="M15.9496 14.9362H15.967C15.9408 14.9275 15.9408 14.9275 15.9496 14.9362Z" fill="#1E1F44"/>
<path d="M4.62587 9.92262C4.60407 9.92262 4.61497 9.94442 4.62587 9.92262V9.92262Z" fill="#1E1F44"/>
<path d="M9.46157 4.71716C9.44413 4.68229 9.42669 4.65613 9.41797 4.63869L9.46157 4.71716Z" fill="#1E1F44"/>
<path d="M10.4215 4.07194C10.4302 4.07194 10.4302 4.07194 10.4302 4.07194C10.4215 4.0545 10.4041 4.03706 10.4215 4.07194Z" fill="#1E1F44"/>
<path d="M3.27128 11.5357C3.26256 11.527 3.26256 11.527 3.24512 11.527L3.27128 11.5357Z" fill="#1E1F44"/>
<path d="M3.26256 11.4834C3.26256 11.4834 3.25384 11.4747 3.24512 11.4747C3.24512 11.4834 3.25384 11.4834 3.26256 11.4834Z" fill="#1E1F44"/>
<path d="M3.2627 11.4834C3.28013 11.4921 3.28013 11.5183 3.28013 11.5357C3.33245 11.5531 3.35861 11.5357 3.35861 11.5008C3.31501 11.4572 3.28885 11.4834 3.2627 11.4834Z" fill="#1E1F44"/>
<path d="M1.1529 13.9422L1.10059 13.8812C1.11802 13.9074 1.13546 13.9248 1.1529 13.9422Z" fill="#1E1F44"/>
<path d="M11.2061 3.35695C11.2235 3.37439 11.2409 3.39183 11.2584 3.40055L11.2061 3.35695Z" fill="#1E1F44"/>
<path d="M15.9314 0.558027C15.9227 0.549308 15.914 0.540588 15.9053 0.540588L15.9314 0.601624C15.9402 0.584185 15.9314 0.575466 15.9314 0.558027Z" fill="#1E1F44"/>
<path d="M12.4967 2.59838C12.488 2.58966 12.488 2.58094 12.4793 2.57222C12.4444 2.57222 12.3921 2.6071 12.3311 2.67685L12.4008 2.75533L12.4967 2.59838Z" fill="#1E1F44"/>
<path d="M16.9956 0.645232C16.9956 0.645232 16.3853 0.66267 16.1498 0.592916C16.2981 0.523161 16.1585 0.549319 16.0888 0.523161L16.115 0.566758C16.0103 0.601635 15.9231 0.514441 15.8621 0.523161C15.8708 0.53188 15.8795 0.5406 15.8882 0.549319L15.897 0.523161C15.9144 0.53188 15.9231 0.549319 15.9318 0.558038C15.9493 0.575477 15.9667 0.592916 15.9406 0.610354L15.9318 0.601635C15.9144 0.645232 15.8534 0.680109 15.8272 0.688828L15.7487 0.610354C15.8447 0.80218 15.1994 0.723706 15.1297 0.793461C14.9727 0.767303 14.9989 0.967848 14.8681 1.00273C14.7111 1.11608 14.6937 0.959128 14.5629 0.959128C14.4321 0.994006 14.6675 1.02888 14.6414 1.06376H14.4408C14.4932 0.994006 14.4147 0.985286 14.3711 0.967848C14.2752 1.0376 13.9962 1.0376 14.1182 1.22071C13.9264 1.26431 13.8741 1.20327 13.813 1.24687C13.8566 1.25559 13.9177 1.24687 13.9438 1.28174C13.8305 1.26431 13.9351 1.31662 13.97 1.31662C13.9613 1.45613 13.3335 1.41253 13.473 1.59564L13.4468 1.56948C13.5515 1.70899 13.6997 1.79619 13.7171 1.91826L13.6299 1.90082V2.00545C13.5602 1.99673 13.5427 1.95313 13.5253 1.9357C13.4991 2.0752 13.316 2.1188 13.2027 2.20599L13.6387 2.4327C13.4817 2.44142 13.1765 2.4327 13.2637 2.55477L13.1068 2.49373C12.7231 2.45014 13.0806 2.703 12.9498 2.703L12.7406 2.66812L12.8278 2.58965C12.6795 2.6158 12.6098 2.60708 12.4615 2.58965C12.4703 2.58965 12.479 2.58965 12.4877 2.59837L12.479 2.6158C12.5313 2.68556 12.5313 2.77275 12.4615 2.82507C12.3569 2.89482 12.3831 3.04305 12.1215 3.05177L12.2087 3.20872L12.0343 3.23488L11.9384 3.13897C12.043 3.04305 12.1912 2.82507 12.3133 2.69428L12.2697 2.65068C12.1912 2.72916 12.1564 2.85123 12.0953 2.89482C12.0517 2.90354 11.8861 2.85995 11.8686 2.74659L11.9209 2.8861C11.6855 3.14768 11.6855 3.1564 11.3106 3.30463L11.3803 3.33079C11.3542 3.40926 11.3368 3.48774 11.2408 3.4267C11.0665 3.56621 10.8397 3.67085 10.6218 3.64469L10.7177 3.7842C10.6741 3.81035 10.4561 3.68828 10.5956 3.86267L10.5782 3.98474C10.5259 4.01962 10.5607 4.11553 10.4474 4.09809C10.4387 4.09809 10.4299 4.09809 10.4212 4.09809L10.4299 4.10681C10.273 4.15913 10.5346 4.21144 10.3515 4.26376C10.2294 4.22016 10.4561 4.45559 10.3776 4.48174L10.1509 4.36839C9.95037 4.37711 10.0986 4.56022 9.95037 4.70845C9.81958 4.71717 9.6452 4.61253 9.56672 4.43815C9.65392 4.65613 9.63648 4.56894 9.61904 4.72589C9.54057 4.67357 9.54056 4.65613 9.50569 4.57766C9.35746 4.57766 9.51441 4.68229 9.45337 4.73461C9.558 4.87411 9.72367 5.07466 9.71495 5.10082L9.77599 5.11826C9.77599 5.24033 9.74111 5.33624 9.61032 5.35368L9.54928 5.29264L9.50569 5.39728L9.42721 5.32752L9.34002 5.45831L9.3749 5.46703C9.35746 5.50191 9.30514 5.61526 9.21795 5.62398L9.17435 5.58038C8.97381 5.58038 8.95637 5.73733 8.90405 5.89428C8.75582 5.84196 8.58144 5.85068 8.51168 5.64142C8.61631 5.40599 8.36345 5.28392 8.2501 5.14441C7.92749 4.98747 7.70078 4.90027 7.39561 4.72589C7.46536 4.35967 6.93348 4.45559 6.88116 4.18529L6.75037 4.22888C6.77653 3.99346 6.43648 4.0109 6.4016 3.74932C6.32313 3.74932 6.29697 3.74932 6.27953 3.7406C6.27953 3.74932 6.27953 3.77548 6.22721 3.82779C6.21849 3.74932 6.07898 3.72316 6.19234 3.61853H6.21849C6.33185 3.52262 6.02667 3.54877 6.07027 3.41798L5.99179 3.54877L5.92204 3.46158H5.96563C5.66046 3.4267 5.54711 3.27847 5.43375 3.14768C5.32912 3.00817 5.21577 2.87738 4.93675 2.82507C5.08498 2.76403 4.81468 2.82507 4.91931 2.703C4.96291 2.49373 4.71877 2.59837 4.60542 2.57221C4.5967 2.58093 4.5967 2.58093 4.57926 2.58965L4.48334 2.44142C4.69261 2.37166 4.2828 2.47629 4.46591 2.42398C4.34384 2.24087 4.14329 2.08392 3.92531 1.9357C3.70732 1.78747 3.48062 1.63052 3.29751 1.46485L3.28879 1.49973C3.19288 1.42125 3.03593 1.3515 2.99234 1.25559C2.94874 1.16839 2.76563 1.18583 2.73076 1.15967C2.62612 1.13352 2.59997 1.0376 2.61741 1.02888C2.51277 0.976567 2.37326 0.967848 2.27735 0.854496C2.27735 0.810899 2.18144 0.758583 2.08552 0.714986C1.98961 0.66267 1.91114 0.610354 1.92858 0.592916H1.91986C1.8501 0.523161 1.76291 0.470845 1.67572 0.409809C1.58852 0.357493 1.50133 0.296458 1.41414 0.226703H1.42285C1.28335 0.183106 1.15255 0.104632 1.04792 0C1.0828 0.026158 1.10024 0.0610354 1.11768 0.104632C1.18743 0.217984 1.23975 0.340055 1.28335 0.479564C1.45773 0.793461 1.64084 1.09864 1.8501 1.38638C1.98089 1.64796 2.10296 1.90954 2.22503 2.18856C2.59997 2.76403 2.99234 3.32207 3.41087 3.85395L3.59397 3.87139C3.62885 4.11553 3.76836 4.29864 3.92531 4.46431C4.08225 4.62997 4.24792 4.79564 4.30896 5.03106L4.41359 4.93515C4.49206 5.02234 4.43103 5.08338 4.43103 5.11826C4.79724 5.54551 5.20705 5.93788 5.59942 6.33025C5.99179 6.72262 6.358 7.11499 6.6283 7.55967C6.61958 7.62943 6.6719 7.69918 6.72422 7.76894C6.69806 7.78638 6.6719 7.7951 6.63702 7.81254C6.39288 7.7079 6.26209 7.95204 6.12258 8.05668C5.95691 8.37057 5.86972 8.58856 5.6779 8.89373C5.28552 8.79782 5.39016 9.34714 5.10242 9.36458L5.15473 9.50409C4.89315 9.45177 4.91931 9.80055 4.62285 9.80055C4.63157 9.87902 4.62285 9.9139 4.61414 9.92262C4.62285 9.92262 4.65773 9.93134 4.71877 9.98365C4.63157 9.98365 4.60542 10.1232 4.48334 9.99237V9.96621C4.36999 9.83542 4.41359 10.1493 4.25664 10.0883L4.41359 10.1929L4.30896 10.254V10.2104C4.25664 10.8469 3.68116 10.5853 3.62013 11.1782C3.52422 10.9951 3.62885 11.3177 3.4719 11.1695C3.19288 11.0561 3.35855 11.3613 3.34983 11.4834C3.35855 11.4921 3.36727 11.5008 3.37599 11.5183L3.23648 11.6142C3.10569 11.3439 3.31495 11.867 3.21032 11.6316C2.75691 11.7886 2.50405 12.3466 2.07681 12.6343L2.14656 12.6692C2.05065 12.7477 1.99833 12.9221 1.8501 12.9134C1.70187 12.9046 1.83266 13.1924 1.81523 13.2273C1.82394 13.3755 1.63212 13.3057 1.6234 13.2708C1.5798 13.3842 1.67572 13.6196 1.48389 13.6545C1.27463 13.5237 1.34438 14.1253 1.15255 13.9335L1.16999 13.951C0.890975 13.9597 0.986887 14.3259 0.707868 14.352C0.707868 14.352 0.699149 14.3346 0.69043 14.3172L0.95201 15.2065L1.67572 15.7471L2.46046 15.9913L3.07953 15.1455L3.86427 14.7619L5.22449 13.2708L5.18089 13.0267C5.71277 12.9918 5.78253 12.3466 6.26209 12.2245L6.14874 12.0937C6.22721 11.9978 6.29697 12.085 6.34057 12.085C7.10787 11.2654 7.7531 10.2888 8.62503 9.73079C8.64247 9.73079 8.65991 9.73079 8.68607 9.72207C8.97381 9.96621 9.27026 10.1842 9.558 10.4109C10.0376 10.7771 10.491 11.1608 10.9008 11.6316C11.0403 11.9019 11.3019 12.0763 11.5722 12.2594C11.8425 12.4425 12.1302 12.6256 12.3395 12.8785C12.3482 13.0441 13.534 13.733 13.6648 13.7678C13.6474 13.7155 13.6299 13.6545 13.6125 13.6022C13.8392 13.7243 13.9787 13.8463 14.1182 13.951C14.2577 14.0556 14.3972 14.1515 14.5978 14.2474H14.5629C14.5803 14.2736 14.6327 14.2561 14.7286 14.2997C14.7809 14.3259 14.8332 14.3608 14.9117 14.4305C14.9902 14.4916 15.0773 14.5875 15.2081 14.7008C15.2343 14.7095 15.2343 14.7008 15.2692 14.7357C15.243 14.7095 15.2169 14.6834 15.1907 14.6485C15.2605 14.6747 15.3302 14.6921 15.4174 14.7444C15.4348 14.7619 15.4348 14.7706 15.4261 14.7793L15.6354 14.8926C15.6528 14.9101 15.6703 14.9275 15.679 14.945C15.7487 14.9711 15.7487 14.9275 15.9057 15.0409C15.8621 14.9886 15.9929 15.0845 15.9842 15.0583C15.9929 15.067 16.0103 15.0758 16.019 15.0932C16.115 15.1542 16.2893 15.2501 16.3504 15.2937C16.3504 15.2937 16.2545 15.2327 16.1585 15.1542C16.0626 15.0758 15.9667 14.9711 15.9318 14.9275C16.0452 15.0409 15.9667 14.9537 15.9493 14.9275H15.9406C15.8708 14.8578 15.8882 14.849 15.8621 14.8055C15.8621 14.8055 15.8621 14.8055 15.8621 14.8142H15.8708C15.8708 14.8229 15.8708 14.8229 15.8621 14.8142C15.8621 14.8142 15.8534 14.8142 15.8359 14.7967H15.8447C15.8098 14.7706 15.7662 14.7183 15.7487 14.7008L15.7662 14.6834C15.7313 14.6747 15.6528 14.5787 15.5831 14.4741C15.5133 14.3695 15.461 14.2561 15.4261 14.2125C15.3912 14.1166 15.2779 14.0643 15.2169 13.9597C15.1035 13.8114 15.1907 13.8463 15.1558 13.7504C15.0948 13.6458 15.1384 13.8027 15.1035 13.7678C15.0861 13.7155 15.0686 13.6719 15.0512 13.6196C15.1035 13.6807 15.0948 13.6283 15.0948 13.6022C15.025 13.5063 14.964 13.2883 14.8681 13.3232C14.7983 13.1662 14.8245 13.1313 14.7809 13.0703C14.7809 13.1052 14.7983 13.1488 14.7896 13.1662C14.7809 13.079 14.7635 13.1488 14.7722 13.1749C14.7286 13.1488 14.6763 13.018 14.6239 12.8959C14.5803 12.7738 14.5367 12.6605 14.4844 12.6954L14.5019 12.6779C14.4234 12.7302 14.3798 12.8174 14.2926 12.8087V12.739L14.2141 12.7128C14.2054 12.6518 14.2403 12.6518 14.249 12.6431C14.1444 12.5907 14.0746 12.4251 13.9962 12.3117C13.9613 12.4164 13.9264 12.521 13.8915 12.6256C13.8566 12.4948 13.813 12.2332 13.7259 12.2856L13.752 12.1635C13.7346 11.8409 13.5776 12.1025 13.5602 11.9891L13.5689 11.8147L13.6474 11.9019C13.6125 11.7711 13.6125 11.7101 13.6038 11.5793C13.6038 11.588 13.6038 11.5967 13.5951 11.5967L13.5863 11.588C13.534 11.6229 13.4643 11.6055 13.412 11.5357C13.3509 11.4311 13.2201 11.4311 13.194 11.1956L13.0719 11.2567L13.037 11.091L13.1155 11.0125C13.2027 11.1259 13.4032 11.2916 13.5166 11.4311L13.5515 11.4049C13.4817 11.3264 13.3771 11.2654 13.3335 11.2044C13.3248 11.1608 13.3509 11.0213 13.4381 11.0125L13.3248 11.0387C13.0893 10.7771 13.0806 10.7771 12.9411 10.4022L12.9237 10.4632C12.8539 10.4283 12.7842 10.4022 12.8365 10.315C12.7057 10.1319 12.6098 9.90518 12.6272 9.68719L12.5051 9.76567C12.479 9.72207 12.5923 9.51281 12.4354 9.6436L12.322 9.61744C12.2872 9.55641 12.2 9.59128 12.2174 9.47793C12.2174 9.46921 12.2174 9.46049 12.2174 9.45177L12.2087 9.46049C12.1564 9.30354 12.1128 9.55641 12.0692 9.3733C12.1128 9.25995 11.8948 9.46049 11.8686 9.38202L11.9645 9.16403C11.9558 8.96349 11.7814 9.103 11.6419 8.94605C11.6332 8.81526 11.7291 8.64087 11.8948 8.57112C11.6855 8.64959 11.7727 8.63215 11.6245 8.61472C11.6681 8.54496 11.6942 8.53624 11.764 8.50136C11.764 8.35314 11.6681 8.50136 11.6158 8.44033C11.485 8.53624 11.2844 8.69319 11.267 8.68447L11.2496 8.74551C11.1275 8.74551 11.0403 8.70191 11.0229 8.57112L11.0839 8.5188L10.9793 8.46649L11.049 8.38801L10.9182 8.30082L10.9095 8.3357C10.8746 8.31826 10.77 8.25722 10.7613 8.17003L10.8049 8.12643C10.8049 7.96948 10.709 7.92589 10.6043 7.88229C11.3542 7.08883 11.9209 6.19074 12.8539 5.56294C13.4556 5.35368 13.6561 4.61253 14.2839 4.30736C14.4932 4.34224 15.3389 3.31335 15.3651 3.17384L15.1035 3.13025C15.3825 2.71172 15.6964 2.69428 15.8795 2.27575L15.897 2.32807C15.9754 2.31935 15.6615 1.96185 16.5596 1.88338L16.5771 1.90082C16.5945 1.88338 16.5596 1.8485 16.6381 1.85722L16.4637 1.8485C16.4724 1.76131 16.4463 1.64796 16.5073 1.56948C16.5422 1.56948 16.5771 1.59564 16.5945 1.6218L16.734 1.42997L16.8823 1.47357C16.8823 1.36894 16.6556 1.19455 16.8997 1.16839C16.7079 1.0812 16.8823 1.02016 16.7951 0.959128C16.8212 0.967848 16.8648 0.976567 16.8997 0.994006C16.9258 0.941689 17.0305 0.758583 16.9956 0.645232Z" fill="#1E1F44"/>
<path d="M1.62398 13.273V13.2621C1.62398 13.2621 1.61309 13.273 1.62398 13.273Z" fill="#1E1F44"/>
<path d="M16.5596 1.65668C16.6119 1.71771 16.5944 1.69155 16.5596 1.65668V1.65668Z" fill="#1E1F44"/>
<path d="M13.2024 2.18855C13.2024 2.18855 13.2111 2.18855 13.2024 2.18855L13.1152 2.13623L13.2024 2.18855Z" fill="#1E1F44"/>
<path d="M14.4057 0.898102C14.3359 0.941698 14.3446 0.950418 14.3708 0.967856C14.3969 0.950418 14.4144 0.932979 14.4057 0.898102Z" fill="#1E1F44"/>
<path d="M16.8649 1.03761C16.8387 1.07249 16.8213 1.09865 16.8213 1.09865C16.8474 1.09865 16.891 1.10737 16.9259 1.09865C16.9521 1.08121 16.9085 1.05505 16.8649 1.03761Z" fill="#1E1F44"/>
<path d="M16.0974 0.523157L16.0625 0.47084C16.0625 0.496999 16.0712 0.514437 16.0974 0.523157Z" fill="#1E1F44"/>
</g>
<defs>
<clipPath id="clip0">
<rect width="16.3139" height="16" fill="white" transform="translate(0.69043)"/>
</clipPath>
</defs>
</svg>
