<svg width="28" height="32" viewBox="0 0 28 32" fill="none" xmlns="http://www.w3.org/2000/svg">
<path d="M2.59506 19.6842C2.59506 19.5315 2.60354 19.3704 2.59506 19.2178C2.56962 18.726 2.45939 18.2426 2.59506 17.7508C2.60354 17.7084 2.61202 17.666 2.59506 17.6236C2.42547 17.242 2.5357 16.8605 2.55266 16.4789C2.5781 15.9447 2.55266 15.4104 2.5781 14.8847C2.61202 14.2403 2.67986 13.5958 2.72225 12.9429C2.73921 12.68 2.77313 12.4256 2.92576 12.2052C3.06144 12.0101 3.0784 11.7642 3.20559 11.5522C3.40062 11.2385 3.46846 10.84 3.59565 10.4669C3.27343 10.3566 2.97664 10.221 2.6629 10.1446C1.99301 9.97505 1.76406 9.72066 1.67079 9.01685C1.65383 8.88966 1.61991 8.77095 1.56903 8.65223C1.36552 8.15194 1.30617 7.60077 0.992422 7.15135C0.83131 6.91392 0.950024 6.65105 1.0009 6.42211C1.06874 6.0914 1.17897 5.74374 1.374 5.47239C1.52663 5.25192 1.80646 5.09081 2.06933 4.98058C2.46787 4.81947 2.88337 4.69227 3.30734 4.63292C3.83308 4.5566 4.37577 4.57356 4.90998 4.53116C5.55443 4.48876 6.19888 4.40397 6.8518 4.38701C7.30122 4.37005 7.75064 4.42941 8.19158 4.45484C8.52228 4.4718 8.8445 4.50572 9.13281 4.52268C9.33632 4.27677 9.27696 4.04783 9.26848 3.83584C9.24304 3.36946 9.31936 2.92852 9.58223 2.5215C9.73486 2.29255 9.81117 2.01273 9.96381 1.78378C10.2182 1.38524 10.515 1.03758 10.9644 0.825589C11.2273 0.706875 11.4477 0.494886 11.6936 0.342254C11.8039 0.274417 11.9395 0.21506 12.0752 0.198101C12.8299 0.0878666 13.5761 -0.039327 14.3393 0.0115505C14.5004 0.02003 14.6615 0.0709074 14.8141 0.121785C15.1618 0.248978 15.5094 0.376172 15.8486 0.520325C16.1115 0.639039 16.3998 0.749273 16.6118 0.927344C16.8577 1.13933 17.0358 1.42764 17.2393 1.68203C17.2817 1.7329 17.2902 1.82618 17.341 1.8601C17.5021 1.96185 17.5445 2.11448 17.6293 2.26712C17.9092 2.80981 18.0364 3.37794 18.0703 3.97151C18.0788 4.13262 18.1042 4.29373 18.1212 4.49724C18.6214 4.49724 19.0878 4.49724 19.5542 4.49724C19.7577 4.49724 19.9782 4.4718 20.1647 4.53964C20.4361 4.6414 20.6989 4.61596 20.9703 4.61596C21.4112 4.62444 21.8606 4.67531 22.3016 4.70923C22.6153 4.73467 22.9375 4.75163 23.2513 4.76859C23.5396 4.78555 23.8279 4.79403 24.1162 4.80251C24.7607 4.82795 25.244 5.25192 25.7782 5.52327C25.8715 5.57415 25.9224 5.7183 25.9817 5.82854C26.1598 6.15076 26.3548 6.47298 26.5159 6.81217C26.7194 7.24462 26.9653 7.67708 27.0756 8.13498C27.1604 8.49112 27.1095 8.90662 26.7873 9.2034C26.4227 9.54259 26.1004 9.94961 25.5493 10.0005C25.4984 10.009 25.439 10.0344 25.3966 10.0683C25.1168 10.3397 24.7607 10.3651 24.396 10.3651C24.3706 10.3651 24.3452 10.3905 24.2773 10.4245C24.3367 10.7891 24.2434 11.1707 24.3706 11.5692C24.4469 11.8066 24.3876 12.0865 24.4045 12.3493C24.4384 12.7733 24.5063 13.1973 24.5317 13.6213C24.5402 13.7824 24.4893 13.9435 24.4639 14.1046C24.4469 14.2233 24.43 14.3505 24.4469 14.4692C24.4893 14.9356 24.5317 15.3935 24.4723 15.8599C24.4639 15.9362 24.396 16.004 24.3791 16.0803C24.3621 16.1651 24.3367 16.2754 24.3791 16.3517C24.43 16.4534 24.4639 16.5213 24.3621 16.6061C24.3282 16.6315 24.3112 16.7078 24.3282 16.7502C24.5147 17.276 24.3876 17.8186 24.4215 18.3529C24.4639 19.0567 24.4384 19.7605 24.4554 20.4643C24.4639 20.8967 24.5063 21.3377 24.5063 21.7701C24.5063 21.9397 24.396 22.1432 24.4469 22.2789C24.5911 22.652 24.4469 23.0166 24.4978 23.3812C24.5402 23.6865 24.5063 24.0003 24.4978 24.3055C24.4978 24.3564 24.5063 24.4158 24.4893 24.4666C24.3112 24.95 24.3876 25.4587 24.3706 25.9506C24.3621 26.1371 24.2688 26.3152 24.2519 26.5017C24.2349 26.6883 24.3367 26.9087 24.2773 27.0614C24.1756 27.2988 24.2434 27.5956 24.0229 27.7821C24.1162 28.2485 23.6583 28.4859 23.5735 28.876C23.5481 28.9947 23.5142 29.1134 23.5057 29.2321C23.4887 29.5544 23.4718 29.8681 23.1835 30.0886C23.1326 30.1225 23.1156 30.2327 23.1241 30.3091C23.1665 30.9026 22.6747 31.2333 22.2253 31.352C21.7504 31.4792 21.2756 31.564 20.7922 31.6573C20.7074 31.6743 20.5887 31.6827 20.5209 31.6403C20.1902 31.4623 19.8595 31.4453 19.5203 31.5979C19.427 31.6403 19.2998 31.6488 19.1896 31.6319C18.6723 31.5725 18.1551 31.5047 17.6293 31.4453C17.4513 31.4284 17.2817 31.4029 17.1036 31.4029C16.8153 31.3944 16.527 31.4029 16.2302 31.4029C16.2048 31.4029 16.1624 31.3775 16.1539 31.386C15.891 31.6319 15.5434 31.4453 15.2381 31.5556C14.9244 31.6658 14.5597 31.6658 14.2206 31.6573C13.8983 31.6488 13.5931 31.7082 13.2878 31.7845C13.1012 31.8354 12.9062 31.8608 12.7112 31.8608C12.1176 31.8608 11.5325 31.9202 10.9474 31.9965C10.8796 32.005 10.8118 31.9965 10.7354 31.988C10.3878 31.9541 10.0486 31.8354 9.6755 31.9626C9.53135 32.0134 9.3448 31.9202 9.17521 31.8947C8.79363 31.8354 8.40357 31.9032 8.03894 31.7336C7.53865 31.4962 6.99596 31.4623 6.45327 31.564C6.20736 31.6149 5.96145 31.5979 5.71554 31.4962C5.57987 31.4368 5.42724 31.4368 5.28308 31.386C4.92694 31.2672 4.56232 31.1655 4.35033 30.8178C4.33337 30.7924 4.31641 30.7585 4.29945 30.7585C3.94331 30.6822 3.8246 30.3769 3.63805 30.1225C3.34974 29.7324 3.22255 29.2915 3.15471 28.8166C3.14623 28.7403 3.12927 28.6471 3.0784 28.5877C2.83249 28.274 2.89185 27.9093 2.89185 27.5532C2.89185 27.3327 2.87489 27.1123 2.84097 26.8918C2.77313 26.4169 2.72225 25.9506 2.79857 25.4587C2.84945 25.128 2.73921 24.7804 2.73073 24.4412C2.72225 23.9494 2.73921 23.4491 2.73921 22.9573C2.73921 22.6435 2.73921 22.3213 2.68834 22.0076C2.6629 21.8719 2.6629 21.7616 2.68834 21.626C2.72225 21.4564 2.67986 21.2698 2.64594 21.1002C2.5781 20.8119 2.5357 20.5236 2.65442 20.2438C2.73921 20.0403 2.69682 19.8707 2.51026 19.7266C2.54418 19.7181 2.56962 19.7011 2.59506 19.6842ZM21.2247 29.2491C21.5045 29.0541 21.6826 28.7827 21.6995 28.4605C21.7334 27.7737 22.0981 27.1462 22.0302 26.4424C22.0218 26.3661 22.0726 26.2813 22.0896 26.2049C22.1066 26.1117 22.132 26.0099 22.115 25.9251C22.0218 25.5011 22.132 25.0856 22.1829 24.6701C22.1913 24.5853 22.2253 24.509 22.2253 24.4327C22.2168 23.8307 22.1913 23.2201 22.1829 22.6181C22.1829 22.4315 22.2507 22.245 22.2253 22.0584C22.1574 21.5242 22.2761 20.9985 22.2846 20.4643C22.2931 20.176 22.344 19.8877 22.2337 19.6078C22.2083 19.54 22.2337 19.4552 22.2422 19.3704C22.2677 19.0991 22.3694 18.8023 22.3016 18.5564C22.2422 18.3274 22.2168 18.107 22.2083 17.878C22.1829 17.064 22.1829 16.2584 22.3694 15.4613C22.3864 15.3935 22.344 15.3087 22.3525 15.2324C22.3694 15.1561 22.4712 15.0628 22.4542 15.0289C22.3185 14.8169 22.4118 14.5964 22.4118 14.3844C22.4118 13.9774 22.4966 13.5789 22.5729 13.1718C22.6832 12.5528 22.751 11.9338 22.8528 11.3148C22.8951 11.035 22.9799 10.7636 23.0563 10.4669C22.1489 10.4245 21.2671 10.3821 20.3767 10.3566C20.2156 10.3481 20.046 10.3821 19.8849 10.399C19.7747 10.4075 19.656 10.4499 19.5542 10.4245C19.2235 10.3397 18.8843 10.3566 18.5451 10.3651C18.1975 10.3736 17.8498 10.2464 17.5106 10.4075C17.4428 10.4414 17.3495 10.416 17.2647 10.4075C16.7814 10.3905 16.298 10.3566 15.8232 10.3651C15.3653 10.3736 14.9074 10.3905 14.458 10.4669C14.034 10.5432 13.61 10.4923 13.186 10.5347C13.008 10.5517 12.8299 10.628 12.6518 10.628C11.9395 10.6025 11.2273 10.6704 10.5319 10.806C9.92989 10.9163 9.3448 10.9248 8.74275 10.8654C8.429 10.8315 8.10678 10.806 7.79304 10.806C7.60649 10.806 7.41146 10.8824 7.23339 10.8654C6.84333 10.84 6.45326 10.7806 6.0632 10.7212C5.66466 10.6619 5.25765 10.6365 4.84215 10.611C4.89302 10.8145 4.9439 10.9587 4.96934 11.1113C5.04566 11.4929 5.02022 11.8914 5.05414 12.273C5.11349 12.892 4.99478 13.511 5.08805 14.1385C5.13045 14.4099 5.07957 14.6897 5.07957 14.961C5.07957 15.2493 5.08805 15.5376 5.07957 15.8259C5.07109 16.0973 5.03718 16.3686 5.01174 16.64C4.9863 16.8944 4.96086 17.1318 5.0287 17.4031C5.08805 17.6236 5.12197 17.895 5.07109 18.1578C5.02022 18.4377 5.05414 18.7344 5.0287 19.0227C4.99478 19.4637 5.13893 19.9216 4.95238 20.354C4.92694 20.4134 4.97782 20.5067 4.99478 20.583C5.01174 20.6847 5.05414 20.795 5.05414 20.8967C5.04566 21.1002 4.97782 21.3038 4.99478 21.5073C5.02022 21.7108 5.14741 21.9058 4.97782 22.1093C4.96086 22.1263 5.00326 22.1771 5.01174 22.2195C5.0287 22.3383 5.05414 22.457 5.06262 22.5757C5.07109 23.2541 5.07957 23.9409 5.07109 24.6193C5.07109 24.95 5.07957 25.2891 5.02022 25.6114C4.95238 25.9506 4.9439 26.2813 4.99478 26.612C5.03718 26.8663 5.0287 27.1292 5.07109 27.3921C5.11349 27.6465 5.11349 27.9009 5.18981 28.1637C5.2746 28.4605 5.38484 28.7064 5.67314 28.8675C5.84274 28.9693 6.00385 29.1304 6.11408 29.3C6.31759 29.6137 6.66525 29.6561 6.94508 29.6731C7.51321 29.6985 8.08982 29.6222 8.65795 29.5629C8.96322 29.5289 9.25152 29.5968 9.53983 29.5968C10.1164 29.5968 10.7015 29.4102 11.2612 29.69C11.3036 29.7155 11.3714 29.69 11.4223 29.69C11.5749 29.6731 11.7106 29.6307 11.8632 29.7324C11.9565 29.8003 12.0667 29.6222 12.2363 29.707C12.4314 29.8003 12.6942 29.8342 12.8977 29.7918C13.2369 29.724 13.5761 29.7748 13.9068 29.7664C14.0425 29.7664 14.1782 29.7664 14.3138 29.7664C14.7378 29.7833 15.1618 29.8088 15.5773 29.8003C15.7808 29.8003 15.9758 29.724 16.1793 29.6985C16.6627 29.6392 17.1375 29.6052 17.6209 29.5459C18.0279 29.495 18.4349 29.4272 18.8419 29.3933C19.3676 29.3509 19.9019 29.3424 20.4276 29.2576C20.6735 29.2152 20.9533 29.2491 21.2247 29.2491ZM24.7183 6.52386C24.2688 6.33731 23.3191 6.20164 22.8782 6.20164C22.4118 6.20164 21.9115 6.33731 21.4706 6.01509C21.4197 5.98117 21.318 6.01509 21.2416 6.00661C20.8261 5.99813 20.4022 6.05748 20.0036 5.97269C19.427 5.85397 18.8419 5.89637 18.2653 5.88789C17.4682 5.87093 16.6711 5.97269 15.8656 6.02357C15.7808 6.03205 15.696 6.03205 15.6197 6.00661C15.3399 5.90485 15.077 5.94725 14.8056 6.04052C14.7378 6.06596 14.67 6.07444 14.6021 6.07444C14.1358 6.10836 13.6694 6.1338 13.203 6.15924C12.6094 6.18468 12.0159 6.22708 11.4308 6.22708C11.0662 6.23556 10.7015 6.1762 10.3284 6.16772C9.46351 6.15076 8.5986 6.21012 7.73368 6.01509C6.91116 5.82854 6.0632 5.87093 5.22373 5.97269C4.97782 5.99813 4.71495 5.92181 4.47752 5.98117C4.02811 6.0914 3.58717 6.25251 3.15471 6.43059C2.69682 6.61714 2.58658 6.89696 2.71377 7.36334C2.79857 7.6686 2.88337 7.97387 2.96816 8.28761C3.05296 8.61831 3.18015 8.72007 3.51933 8.72007C3.867 8.72007 4.20618 8.71159 4.55384 8.70311C5.07109 8.68615 5.59683 8.61831 6.11408 8.66919C6.6059 8.72007 7.07227 8.78791 7.57257 8.70311C7.93719 8.63527 8.35269 8.5844 8.68339 8.69463C9.07345 8.8303 9.44655 8.62679 9.81965 8.75399C9.97229 8.80486 10.1419 8.77943 10.3115 8.78791C10.3963 8.78791 10.4726 8.78791 10.5574 8.77095C10.7439 8.72855 10.922 8.65223 11.1085 8.63527C11.5664 8.59288 12.0243 8.55896 12.4738 8.57592C12.7366 8.5844 12.991 8.60136 13.2539 8.55048C13.3302 8.53352 13.4235 8.55896 13.4998 8.55896C14.1358 8.53352 14.7717 8.5844 15.3992 8.47416C15.5434 8.44872 15.7045 8.47416 15.8571 8.48264C16.0776 8.4996 16.298 8.51656 16.5185 8.55048C16.8238 8.60136 17.1121 8.53352 17.4173 8.50808C17.7904 8.47416 18.172 8.49112 18.5451 8.50808C19.232 8.542 19.9273 8.48264 20.6226 8.46568C20.9109 8.4572 21.2077 8.44872 21.496 8.44024C21.6571 8.43176 21.8352 8.38089 21.9878 8.40632C22.4118 8.49112 22.8273 8.50808 23.2513 8.39785C23.7516 8.27065 24.3028 8.31305 24.7267 7.99083C24.7183 7.49053 24.7183 7.02416 24.7183 6.52386ZM16.6881 4.36157C16.7983 4.05631 16.5948 3.84432 16.4676 3.62385C16.1793 3.12355 15.8571 2.63174 15.2975 2.37735C15.0007 2.24168 14.6869 2.13144 14.3817 2.01273C14.3308 1.99577 14.2714 1.99577 14.2206 2.00425C13.7287 2.02121 13.2284 2.01273 12.7621 2.22472C12.4822 2.35191 12.1939 2.48758 11.9141 2.62326C11.8802 2.64022 11.8548 2.68261 11.8293 2.70805C11.6512 2.88612 11.4732 3.05572 11.2951 3.23379C11.134 3.3949 10.9983 4.00543 11.0746 4.19198C11.2018 4.48876 11.5156 4.63292 11.8632 4.58204C12.0243 4.5566 12.1939 4.52268 12.355 4.53116C12.7027 4.54812 13.0419 4.61596 13.3896 4.60748C13.9322 4.59052 14.4665 4.53116 15.0007 4.49724C15.3738 4.4718 15.7384 4.43789 16.1115 4.46332C16.315 4.46332 16.51 4.48028 16.6881 4.36157Z" fill="#890620"/>
<path d="M14.865 26.6796C14.6615 26.9594 14.4834 27.2138 14.2629 27.5275C14.1018 27.5021 13.9068 27.4682 13.7033 27.4512C13.5506 27.4343 13.398 27.4512 13.2454 27.4512C13.2199 27.4936 13.1945 27.536 13.169 27.5784C13.1436 27.5106 13.1267 27.4088 13.0843 27.3919C12.584 27.1968 12.5755 26.7983 12.6264 26.3489C12.6433 26.1708 12.5585 25.9843 12.5416 25.7977C12.5076 25.4585 12.4907 25.1109 12.4652 24.7717C12.4313 24.3816 12.372 24 12.3465 23.61C12.3041 23.0079 12.2617 22.3974 12.2533 21.7953C12.2448 21.3035 12.2448 20.8117 12.3465 20.3284C12.4059 20.0486 12.3889 19.7518 12.355 19.4635C12.2956 18.9717 12.4228 18.5053 12.5246 18.0389C12.5755 17.7845 12.55 17.5301 12.5585 17.2757C12.5755 16.8518 12.6603 16.4278 12.7535 16.0123C12.8214 15.6901 12.9486 15.3763 13.0503 15.0626C13.0843 14.9608 13.1182 14.8506 13.1606 14.7488C13.3132 14.3927 13.8389 14.2824 14.0933 14.5623C14.2205 14.7064 14.3477 14.876 14.3901 15.0541C14.4919 15.4865 14.6021 15.9275 14.5851 16.3599C14.5682 16.8094 14.6954 17.2079 14.7717 17.6319C14.7971 17.7676 14.7293 17.9202 14.7378 18.0643C14.7547 18.3357 14.8565 18.607 14.7208 18.8784C14.6954 18.9208 14.7208 18.9886 14.7208 19.0395C14.7717 19.3871 14.831 19.7348 14.865 20.0825C14.8734 20.1927 14.7463 20.3538 14.7887 20.4217C14.9413 20.6506 14.6275 20.8456 14.7632 21.0067C14.9328 21.2187 14.7208 21.4392 14.831 21.6342C14.8565 21.6766 14.865 21.7699 14.8395 21.7953C14.5343 22.0837 14.8226 22.4652 14.6869 22.779C14.6615 22.8299 14.7378 22.9231 14.7632 22.9994C14.7802 23.0503 14.8141 23.1436 14.7971 23.1521C14.5682 23.3047 14.7632 23.4743 14.7717 23.6269C14.7971 24.0848 14.848 24.5342 14.8565 24.9921C14.8565 25.3313 14.9328 25.679 14.7887 26.0182C14.7632 26.069 14.7717 26.1708 14.8056 26.2217C14.9243 26.4082 14.7802 26.4845 14.6445 26.5863C14.7208 26.6202 14.7717 26.6372 14.865 26.6796Z" fill="#890620"/>
<path d="M19.2914 16.4789C19.3253 16.7503 19.3762 17.0216 19.3931 17.293C19.4101 17.5643 19.3677 17.8441 19.3931 18.1155C19.427 18.4971 19.4949 18.8786 19.5712 19.2517C19.6814 19.8453 19.8256 20.4389 19.9273 21.0325C19.9612 21.2444 19.9188 21.4734 19.9273 21.6854C19.9358 21.9652 19.9697 22.245 19.9867 22.5333C19.9952 22.7538 19.9273 22.9912 19.9952 23.1778C20.0884 23.4237 20.063 23.6696 20.0715 23.907C20.08 24.2801 20.1224 24.6532 20.0036 25.0179C19.9867 25.0772 19.9358 25.162 19.9612 25.1959C20.1648 25.4842 20.0715 25.7895 20.0206 26.0863C20.0121 26.1287 19.9952 26.1711 20.0121 26.1965C20.2241 26.5781 20.08 26.9342 19.9528 27.2904C19.9273 27.3497 19.9528 27.4261 19.9358 27.4854C19.851 27.7144 19.7747 27.9518 19.6645 28.1638C19.6221 28.2401 19.4949 28.291 19.3931 28.3079C19.1302 28.3503 18.8674 28.3758 18.6045 28.3758C18.4943 28.3758 18.3162 28.3164 18.2908 28.2401C18.206 28.0111 17.9007 27.9772 17.8837 27.672C17.8668 27.3073 17.7566 26.9512 17.6972 26.5866C17.6802 26.5103 17.6972 26.4255 17.6972 26.3491C17.7057 26.2559 17.7396 26.1456 17.7142 26.0608C17.57 25.569 17.6633 25.0772 17.6718 24.5854C17.6802 24.1445 17.7735 23.695 17.7989 23.2541C17.8159 22.9743 17.7566 22.686 17.7481 22.4061C17.7396 21.9652 17.7481 21.5243 17.7396 21.0833C17.7396 20.8883 17.7142 20.7018 17.7142 20.5067C17.6972 19.8368 17.6718 19.1585 17.6718 18.4886C17.6718 18.1155 17.7142 17.7424 17.765 17.3778C17.8074 17.0047 17.8922 16.64 17.9431 16.2754C17.9685 16.0549 17.994 15.8345 17.9685 15.614C17.9261 15.2494 18.0449 14.9272 18.2145 14.6219C18.2908 14.4777 18.3756 14.2742 18.613 14.3251C18.8589 14.3845 19.0455 14.5456 19.0963 14.783C19.2066 15.3342 19.2829 15.8938 19.3762 16.4535C19.3422 16.4789 19.3168 16.4789 19.2914 16.4789Z" fill="#890620"/>
<path d="M8.28489 26.1031C8.28489 25.5011 8.30184 24.899 8.27641 24.297C8.25945 23.8391 8.20009 23.3812 8.18313 22.9233C8.17465 22.7367 8.22553 22.5417 8.22553 22.3552C8.21705 22.0414 8.18313 21.7277 8.16617 21.4139C8.14073 21.0578 8.11529 20.7017 8.09834 20.337C8.06442 19.7095 8.18313 19.0821 8.08985 18.4461C8.03898 18.1239 8.13225 17.7847 8.12377 17.4455C8.11529 16.7332 8.4036 16.0718 8.45448 15.368C8.47992 15.0712 8.64103 14.944 8.92933 14.8847C9.20916 14.8338 9.33635 14.9016 9.39571 15.1815C9.46355 15.5037 9.5229 15.8344 9.53986 16.1651C9.5653 16.5636 9.54834 16.9622 9.55682 17.3692C9.5653 17.7508 9.6077 18.1239 9.61618 18.5054C9.63314 18.9209 9.62466 19.328 9.63314 19.7435C9.64162 20.1166 9.61618 20.4981 9.67554 20.8628C9.71793 21.1511 9.74337 21.4224 9.70945 21.7192C9.66706 22.0669 9.72641 22.4315 9.75185 22.7876C9.77729 23.1777 9.79425 23.5762 9.81969 23.9663C9.86209 24.509 9.91296 25.0517 9.94688 25.5944C9.9808 26.0777 9.95536 26.561 9.76881 27.0104C9.70945 27.1631 9.50594 27.2903 9.35331 27.3751C9.24308 27.4429 9.08197 27.4344 8.94629 27.4514C8.64103 27.4853 8.47144 27.3751 8.41208 27.0698C8.34424 26.7476 8.29337 26.4254 8.23401 26.1031C8.25945 26.1031 8.27641 26.1031 8.28489 26.1031Z" fill="#890620"/>
</svg>
