<svg id="Calque_1" data-name="Calque 1" xmlns="http://www.w3.org/2000/svg" viewBox="0 0 274.63 281.69"><defs><style>.cls-1{fill:#1e1f44;}.cls-2{fill:#eb611b;}.cls-3{fill:#76b39d;}.cls-4{fill:#fff;}</style></defs><path class="cls-1" d="M10.07,138.27c-1.11-.47-2.17-.9-3.22-1.36a2.32,2.32,0,0,1-1.49-1.5,2.07,2.07,0,0,0-.51-1c-1.1-1-.85-2.16-.56-3.32.48-1.91.84-3.9,2-5.52a15.88,15.88,0,0,1,3.83-4.21,10.44,10.44,0,0,1,2.9-1c1.78-.52,3.57-1,5.37-1.46,1.15-.27,2.34-.41,3.51-.57.61-.09,1.23-.09,1.84-.17,1.64-.22,3.29-.41,4.92-.7s3.38-.67,5.06-1c.82-.18,1.63-.38,2.44-.58.21,0,.41-.22.59-.19,1.83.3,3.49-.55,5.24-.77,2.41-.31,4.8-.79,7.21-1.13,2.58-.36,5.16-.64,7.74-1,3.57-.43,7.13-.91,10.7-1.27a17.83,17.83,0,0,0,6.76-1.88c2-1.12,4.21-1.14,6.31-1.64,1.61-.39,3.31-.39,5-.64a16.42,16.42,0,0,1,4.49-.41,13,13,0,0,0,3-.41,25.93,25.93,0,0,1,2.78-.29,4.57,4.57,0,0,0,2.33-.76,6.08,6.08,0,0,1,5.38-.85,2.5,2.5,0,0,0,.76.19l5.88.36c1.15.08,2.29.21,3.43.29.78.06,1.56,0,2.33.09.62,0,1.23.16,1.84.18a22.8,22.8,0,0,0,3.72.25c1.07-.13,2.22.43,3.34.62s2.38.33,3.57.47l4.93.5c0-.66.13-1.32.11-2,0-1.28-.24-2.56-.22-3.84a3.64,3.64,0,0,1,1.39-3,7.2,7.2,0,0,0,1.13-1.42c.22-.29.35-.74.63-.87,1.6-.72,2.59-2.45,4.48-2.66a.37.37,0,0,0,.14-.07c2.71-1.79,5.81-2.56,8.87-3.45,1.49-.43,2.94-1,4.43-1.42s3.29-.81,4.94-1.2,3.08-.82,4.64-1.09a75.8,75.8,0,0,1,10.73-1.22c1.14,0,2.28-.27,3.42-.33,2.55-.12,5.1-.19,7.65-.3,1,0,2-.18,3-.21a116.54,116.54,0,0,1,16.29.34,18.43,18.43,0,0,0,2.35,0,3.31,3.31,0,0,1,.94,0c2.73.8,5.58.25,8.34.81,2.3.48,4.63.8,6.95,1.16.67.1,1.35.1,2,.16a9.63,9.63,0,0,1,2.78.36,6.81,6.81,0,0,0,3.51.27,20.8,20.8,0,0,1,3.44,0c3.36.32,6.71.7,10.06,1.06a36.54,36.54,0,0,1,13.59,4.43c2.76,1.5,5.23,3.39,7.94,4.94,1.11.64,1.39,1.91,1.76,3a29.41,29.41,0,0,1,1.5,4.93c.35,2.46.66,5-1,7.26-.3.42-.41,1-.69,1.41a54.14,54.14,0,0,1-4.65,6.43,4.71,4.71,0,0,0-.75,1.84c-.6,2.35-.66,4.77-1.35,7.13-1,3.54-1.72,7.19-2.57,10.8s-1.91,7.45-2.59,11.23c-.82,4.47-2.18,8.84-2.55,13.39-.09,1.08-.52,2.12-.69,3.19-.33,2-.66,4-.84,6-.07.8,0,1.62-.08,2.45a2.88,2.88,0,0,1-1.92,2.41c-1.68.55-2.79,1.82-4,2.85a64.84,64.84,0,0,0-5.13,5,18.1,18.1,0,0,1-5,3.22,26.92,26.92,0,0,1-4.39,2c-2.29.72-4.64,1.23-7,1.78-1.83.44-3.67.8-5.5,1.2-.5.11-1,.43-1.48,0a.37.37,0,0,0-.3,0c-1.08.9-2.47.43-3.7.8a13.53,13.53,0,0,1-8,.36,3.51,3.51,0,0,0-1.07,0l-4.3.3a.68.68,0,0,1-.32,0,11,11,0,0,0-4.1-.67c-1.45-.13-2.9-.26-4.33-.5s-3.06.34-4.52-.29c-1.65-.72-3.5-.74-5.11-1.56-.13-.06-.31,0-.47,0a55.07,55.07,0,0,1-6.17-1.18c-2.48-.76-4.86-1.85-7.28-2.82-1.49-.6-3-1.2-4.44-1.83a9.4,9.4,0,0,1-2.33-1.16,14.2,14.2,0,0,0-4.37-2.38,17.05,17.05,0,0,1-3.23-2c-2.34-1.54-3.4-3.86-4.53-6.18-.36-.76-.71-.9-1.44-.53a37.58,37.58,0,0,1-3.48,1.59c-4.26,1.62-8.53,3.19-12.8,4.78a2,2,0,0,1-.75.24c-2.75-.16-5.17,1.39-7.89,1.52a22.57,22.57,0,0,0-7.66,1.93,71,71,0,0,1-6.91,2.47c-2.67.81-5.39,1.45-8.08,2.19a10.63,10.63,0,0,1-2.05.71c-1.42.06-2.36,1-3.54,1.55s-2.52,1-3.8,1.4a27.17,27.17,0,0,0-4,1.21c-1.89,1-3.91.74-5.86,1.08-.61.1-1.21.27-1.82.37a19.21,19.21,0,0,1-2.28.3c-1.19,0-2.38,0-3.57,0a9.59,9.59,0,0,1-2.61-.12c-1.7-.38-3.48-.42-5.22-.63-2.17-.26-4.33-.55-6.49-.84a7.78,7.78,0,0,0-.76-.2c-2.25.07-4.2-1.06-6.3-1.57L50,193.33a7.55,7.55,0,0,1-1.79-.52,21,21,0,0,0-6.79-2.24,4,4,0,0,1-1-.42,10.85,10.85,0,0,0-2.29-1c-2.84-.49-5.42-1.76-8.15-2.56-1.78-.53-3.24-1.61-5-2.23a7.41,7.41,0,0,1-2.31-2c-1.19-1.22-2.36-2.47-3.48-3.77a15.53,15.53,0,0,1-2.75-5c-.73-2.05-1.36-4.13-2-6.21a16.74,16.74,0,0,1-.82-3.79c-.12-1.59-.54-3.16-.82-4.74q-.54-3.06-1.07-6.13c-.38-2.25-.75-4.51-1.12-6.76,0-.26-.09-.51-.11-.77-.14-1.7-.29-3.41-.42-5.11C10.11,139.49,10.1,138.93,10.07,138.27Zm134.44-13.36-.27.25c.23.61.48,1.22.7,1.83.52,1.49,1.05,3,1.51,4.49.34,1.09.6,2.21.83,3.32a14.32,14.32,0,0,1,.76,3.94,4.94,4.94,0,0,0,0,1.67c.77,2.63.56,5.41,1.29,8.06.49,1.72.8,3.5,1.18,5.25a2.2,2.2,0,0,1,.07.76,10.22,10.22,0,0,0,.54,3.64c.45,2.2.86,4.4,1.25,6.61a18.36,18.36,0,0,0,.66,3.83,9.49,9.49,0,0,1,.86,3.59,2.6,2.6,0,0,0,1.26,2.16c.86.54,1.47,1.34,2.29,1.83,1.14.68,2,1.81,3.36,2.14a35.64,35.64,0,0,1,4.39,1.52,2.3,2.3,0,0,1,.91.53,7.33,7.33,0,0,0,3.2,1.83c1.11.4,2.17,1,3.25,1.46a7.41,7.41,0,0,0,1.23.54,19.5,19.5,0,0,1,4.47,1.34,8.84,8.84,0,0,0,2.18.77,36.27,36.27,0,0,1,4.6.86,16.86,16.86,0,0,0,5.62.85,4.12,4.12,0,0,1,.91.15c.81.19,1.6.43,2.42.56,2.14.34,4.3.61,6.45.95a20.59,20.59,0,0,0,5.65.32,9.83,9.83,0,0,1,2.3,0,8.07,8.07,0,0,0,3.49-.15,2.72,2.72,0,0,1,1.37-.24c1.14.29,2.14-.26,3.2-.38l1.35-.16c1.33-.16,2.68-.26,4-.51,1.73-.34,3.41-.92,5.14-1.19a45.33,45.33,0,0,0,7.16-2c1.76-.58,3.64-1,5-2.42a3.59,3.59,0,0,1,1.25-.63c1.3-.55,2.59-1.14,3.92-1.58a11.83,11.83,0,0,0,3.81-2.58,4.19,4.19,0,0,1-.15-3.25c.27-1.11.67-2.19.94-3.29.77-3.11,1.58-6.2,2.22-9.33.58-2.81,1.84-5.4,2.24-8.27.3-2.16,1.22-4.23,1.5-6.39a36.17,36.17,0,0,1,1.62-7.44,13.24,13.24,0,0,0,.28-1.69c.35-1.95.68-3.9,1.08-5.84.14-.64.51-1.24.65-1.88.21-1,.33-1.94.46-2.91s.25-1.94.37-2.9c-.85-.27-1.39-.25-1.91.41a5.53,5.53,0,0,1-1.62,1.19c-3.29,1.91-7,2.54-10.59,3.73a4.88,4.88,0,0,1-2.09.33,19.11,19.11,0,0,0-5.23.49c-2.26.33-4.49.82-6.75,1.14-2.89.42-5.8.76-8.7,1.09-1.81.2-3.64.38-5.46.46-1.51.07-3.12-.37-4.51,0a16.08,16.08,0,0,1-4.61.48,20.15,20.15,0,0,0-3.11.05c-3.42.54-6.84.12-10.26.1s-6.56-.28-9.84-.46c-1.35-.08-2.7-.22-4.05-.36-1.66-.18-3.31-.45-5-.59-2.28-.19-4.57-.21-6.84-.46-2.75-.31-5.48-.77-8.21-1.21a18.92,18.92,0,0,1-3.35-.76c-2.54-.91-5.08-1.87-7.56-2.94-1.49-.65-3.12-1.13-4.27-2.42C145.17,125,144.79,125,144.51,124.91ZM23.76,177.75a6.82,6.82,0,0,1,5.13,1.32,23.18,23.18,0,0,0,5.61,2.8c1.19.36,2.34.88,3.55,1.12a7.21,7.21,0,0,1,3.75,1.7,3.3,3.3,0,0,0,1.36.65,32.14,32.14,0,0,1,4.43,1.23,21.57,21.57,0,0,0,4,1.58c1.91.46,3.78,1.09,5.69,1.51,2.32.51,4.76.21,7.06,1a.76.76,0,0,0,.61-.06,3.32,3.32,0,0,1,2.1-.23c1.25,0,2.5.18,3.76.19,2.57,0,5.13,0,7.7,0a4.11,4.11,0,0,0,.77-.12c1.94-.34,4-.09,5.84-.86.14-.05.32,0,.47,0,.67-.11,1.34-.2,2-.36.86-.2,1.71-.45,2.56-.67a11.11,11.11,0,0,0,3.12-.83,10.94,10.94,0,0,1,3.33-1.09c.54-.13,1.09-.21,1.62-.37a2.45,2.45,0,0,0,1.1-.52,2,2,0,0,1,1.53-.6,14.47,14.47,0,0,0,3.23-.35c1.49-.4,2.91-1,4.37-1.55,1.62-.57,3.3-1,4.88-1.64,2-.85,3.85-2.21,6.1-2.58a5,5,0,0,0,1.47-.28c1.95-1.07,4.16-1.11,6.24-1.64,2.51-.64,5.12-.83,7.55-1.83a12.4,12.4,0,0,1,2.11-.47,15.46,15.46,0,0,0,2.28-.54c1-.38,1.85-.94,2.8-1.37,1.82-.84,3.65-1.64,5.49-2.44.55-.24.63-.61.45-1.14a11.58,11.58,0,0,1-.45-1.63c-.28-1.58-.48-3.17-.82-4.73-.63-3-1.35-5.87-2-8.8-.27-1.17-.5-2.35-.84-3.49s-.13-2.48-1.12-3.42a.75.75,0,0,1-.16-.44,18.48,18.48,0,0,0-1-4.26c-.31-.83-.13-1.92-.6-2.59a8.27,8.27,0,0,1-.91-2.59,8.71,8.71,0,0,0-.41-.93c-2.12.58-4.09,1.25-6.12,1.63-1.63.31-2.95,1.31-4.66,1.57a74.09,74.09,0,0,0-8.68,2.31,48,48,0,0,1-8,1.86,5.64,5.64,0,0,0-1.41.53,7.65,7.65,0,0,1-1.12.44c-1.16.24-2.37.32-3.5.66a18.28,18.28,0,0,1-5.34.85,14.19,14.19,0,0,0-1.83.19c-2,.27-3.91.6-5.88.8-2.94.29-5.89.47-8.84.72a19.14,19.14,0,0,1-3.09.26,20.16,20.16,0,0,0-3.56,0,19.56,19.56,0,0,1-5,.07,19.49,19.49,0,0,0-3.41-.05,10.54,10.54,0,0,1-1.38-.08c-1.6-.25-3.19-.53-4.79-.77-1.44-.22-2.89-.36-4.33-.59-3.64-.61-7.27-1.28-10.92-1.86s-7.19-1-10.78-1.59c-.82-.12-1.61-.45-2.43-.58-3.45-.53-6.9-1-10.35-1.54-.31-.05-.62-.12-.93-.19-2.68-.59-5.37-1.19-8.06-1.77a2.83,2.83,0,0,0-.8.06c.23,1.16.46,2.27.65,3.37.28,1.58.52,3.17.8,4.76.48,2.8,1.07,5.58,1.45,8.39a30.69,30.69,0,0,0,.88,5.37,27.13,27.13,0,0,1,.43,3c.35,1.73.87,3.42,1.15,5.16A17.24,17.24,0,0,0,23.76,177.75Zm113.57-74a6.47,6.47,0,0,0,3.21,2.93,3,3,0,0,1,.69.35,24.43,24.43,0,0,0,9.08,3.8,14,14,0,0,1,1.76.6c1.42.49,2.82,1.08,4.27,1.44,2.51.63,5.06,1.12,7.59,1.64,1.26.25,2.54.45,3.81.62.86.11,1.73.09,2.58.19s1.74.34,2.61.44a39.36,39.36,0,0,1,5.57.55c2.84.71,5.89,0,8.6,1.36a.37.37,0,0,0,.15,0c3.39.14,6.78.3,10.17.42,2.24.08,4.51-.11,6.72.19,2,.27,4-.22,6-.11,1.23.07,2.49-.28,3.74-.3s2.79.29,4.15.13c2.86-.35,5.73,0,8.59-.52,2.28-.44,4.65-.41,7-.73s4.63-.74,6.92-1.26a66.46,66.46,0,0,0,6.74-1.7,50.36,50.36,0,0,0,10.42-4.49,14.12,14.12,0,0,1,1.78-1,24.21,24.21,0,0,0,7-5,3.21,3.21,0,0,1-.31-.9,2.66,2.66,0,0,0-1.5-2.38c-1-.58-2-1.26-3-1.93-.68-.46-1.3-1-2-1.44-.89-.52-1.83-1-2.76-1.42a5.27,5.27,0,0,0-1-.38c-1.45-.37-2.91-.69-4.35-1.06-1-.25-2-.6-3-.82s-2.26-.39-3.39-.6c-3.22-.57-6.45-1.14-9.67-1.74-1.57-.29-3.08-1.07-4.73-.39a1.1,1.1,0,0,1-.62,0,26.77,26.77,0,0,0-6.2-.67,34.76,34.76,0,0,1-7.16-.65c-2.94-.62-6-.21-9-.8a35.44,35.44,0,0,0-5.47-.25c-1.86-.07-3.73-.15-5.59-.24-.62,0-1.24-.1-1.86-.09-2.94,0-5.87.17-8.8.05a37.29,37.29,0,0,0-10.69,1c-.5.12-1,.15-1.54.22-1,.15-2,.24-2.93.46-1.93.46-3.84,1-5.75,1.49-1.75.49-3.5,1-5.22,1.56s-3.58,1.41-5.43,1.91a18.29,18.29,0,0,0-3.95,1.3c-.41.21-1,0-1.43.26-1.79.92-3.54,1.92-5.31,2.88A2.24,2.24,0,0,1,143,99a3.8,3.8,0,0,0-2.05,1.32C139.82,101.44,138.63,102.52,137.33,103.74ZM133,113.4c-2.45-.12-4.74-.22-7-.35-.57,0-1.14-.11-1.7-.19-1.55-.22-3.09-.57-4.64-.65s-3.25.13-4.78-.59a2.11,2.11,0,0,0-.62-.09A100.08,100.08,0,0,1,102,110.09c-.76-.14-1.48-.45-2.23-.65a2.92,2.92,0,0,0-1.22-.18,28.44,28.44,0,0,0-2.84.78,31.49,31.49,0,0,1-6,1.64c-2.16.21-4.31.71-6.46,1.1-.46.08-.9.26-1.36.37a12.19,12.19,0,0,1-2.41.56c-1.86.05-3.73.66-5.59,0a1.58,1.58,0,0,0-.78,0c-1.7.27-3.4.5-5.08.86-2.24.47-4.45,1-6.67,1.57s-4.69.93-7,1.71a38.36,38.36,0,0,1-4.56.93c-.93.19-1.83.47-2.76.62-2.87.46-5.74.89-8.61,1.33-.26,0-.5.15-.75.2-.65.15-1.3.31-2,.41-.41.06-.84-.05-1.25,0-2.08.4-4.16.87-6.25,1.26s-4.21.77-6.32,1.11c-1.52.24-3,.42-4.58.59-1.23.14-2.47.23-3.7.36-.93.1-1.94-.1-2.94.79a8.46,8.46,0,0,1,1.43.11c2.61.66,5.23,1.28,7.88,1.81,1.91.38,3.7,1.34,5.73,1.21a.83.83,0,0,1,.31,0c2.16.61,4.34,1.14,6.47,1.85A55.53,55.53,0,0,0,39.8,132c2.26.45,4.55.7,6.81,1.16a65.29,65.29,0,0,0,10.51,1.54,11.08,11.08,0,0,1,1.39.2c1.58.27,3.17.56,4.75.82,1.38.21,2.76.39,4.14.59a3.81,3.81,0,0,1,.44.15,12.37,12.37,0,0,0,2,.46c2.54.16,5.09.31,7.64.35a33.72,33.72,0,0,0,5.12-.26c3.5-.47,7-1.09,10.48-1.62,1.23-.19,2.48-.24,3.71-.41,2-.27,4-.58,6-.88a1.79,1.79,0,0,0,.59-.2c1.44-.82,3.1-.8,4.65-1.21,3.26-.88,6.63-1.38,9.91-2.2s6.22-1.76,9.32-2.67c2.25-.65,4.5-1.3,6.73-2,.74-.23,1.42-.63,2.14-.91s1.6-.48,2.34-.84a1.25,1.25,0,0,0,.1-2.32,5.47,5.47,0,0,1-1.65-1.6,19.68,19.68,0,0,0-2.71-3.43,2.66,2.66,0,0,1-1-2A9.83,9.83,0,0,0,133,113.4Zm3.11,3.09a11.55,11.55,0,0,1,1.79,1.33c1.56,1.75,3.81,2.3,5.76,3.35,2.14,1.15,4.54,1.85,6.65,3a31.81,31.81,0,0,0,5.91,2.29,60.47,60.47,0,0,0,8.44,2.2,18.72,18.72,0,0,0,4.47.48,5,5,0,0,1,.94.09l8.37,1c.05,0,.1,0,.15,0,1.66,0,3.33,0,5,.07s3.56.26,5.33.18a30.57,30.57,0,0,1,5.58.4c2.84.38,5.69.75,8.55.94,2.18.14,4.38,0,6.57,0a10.69,10.69,0,0,0,1.82-.37,15.76,15.76,0,0,1,1.67-.29,66.69,66.69,0,0,0,7.73-.59c4.4-.84,8.82-1.62,13.21-2.55,2.17-.46,4.11-1.74,6.37-2a16.29,16.29,0,0,0,2.26-.58,14.16,14.16,0,0,0,1.61-.45c2-.83,3.81-2,5.81-2.84,1.33-.55,2.88-1,3.64-2.49a.66.66,0,0,1,.33-.31,49,49,0,0,1,4.83-1.64,10,10,0,0,0,5.51-3c1.07-1.21,2.1-2.46,3.07-3.76a2.82,2.82,0,0,0,.44-1.47,23.27,23.27,0,0,0-.06-2.64,4.58,4.58,0,0,0-.23-.86c-2,1.3-3.83,2.6-5.76,3.78a20.17,20.17,0,0,1-2.93,1.39c-2.83,1.18-5.49,2.78-8.55,3.35a3.23,3.23,0,0,0-.57.26c-1.35.52-2.69,1.09-4.07,1.54-.73.25-1.54.28-2.3.46-2.13.48-4.27,1-6.39,1.48-2.88.7-5.87.52-8.79,1.21a48.86,48.86,0,0,1-7.78.82c-2.44.16-4.88.17-7.33.26-4.22.14-8.45.32-12.67.43-3.66.11-7.31.14-11,.21a10.73,10.73,0,0,1-1.88,0,25.59,25.59,0,0,0-6.82-.51,8.28,8.28,0,0,1-1.09-.09c-3.51-.25-7-.46-10.54-.75-2.12-.17-4.29,0-6.35-.66a4.69,4.69,0,0,0-1.49-.44,15.55,15.55,0,0,1-4.75-.68c-.6-.16-1.19-.38-1.79-.53a26.05,26.05,0,0,1-4.65-1.24c-1.56-.74-3.3-.34-4.79-1.21s-3.32-1.72-5-2.57a.43.43,0,0,1-.12-.11,7.59,7.59,0,0,0-3.46-2.26C136.66,112.23,138,114.48,136.09,116.49Zm2.92,9c-2.89,1-5.6,2.11-8.37,3-3.24,1.06-6.37,2.5-9.77,3.06a4.11,4.11,0,0,0-.56.27c-.89.31-1.77.64-2.67.88-1.36.37-2.74.62-4.1,1-1,.27-1.94.73-2.94,1-1.47.34-3,.51-4.45.84a15.58,15.58,0,0,1-2.35.75c-2.83.14-5.39,1.55-8.23,1.56-2,1-4.15.87-6.23,1.31a36.84,36.84,0,0,1-6.93.82c-3.23,0-6.46-.22-9.68-.42a25.38,25.38,0,0,1-5-.49,30.39,30.39,0,0,0-4.8-.36c-2.64-.24-5.27-.52-7.91-.77-1-.1-2.09,0-3.1-.24-2.51-.48-5-1-7.49-1.63-3.75-.89-7.52-1.71-11.21-2.8-4.69-1.38-9.3-3-14-4.51A8.33,8.33,0,0,0,16,128a20.44,20.44,0,0,1-4.64-.37c-.67-.07-1.34-.2-2-.32a.76.76,0,0,0-1,.7c-.16,1-.29,2.07-.42,3.11a1.16,1.16,0,0,0,.89,1.3A37.55,37.55,0,0,0,13,133.73c3.16.68,6.38,1.05,9.51,1.83a80.88,80.88,0,0,0,8.43,1.63c1.33.18,2.63.57,3.95.79,3.44.58,6.88,1.1,10.32,1.69,1.59.27,3.16.66,4.74,1,1.27.27,2.53.57,3.82.76,2.11.32,4.23.55,6.34.85,1.29.19,2.57.56,3.86.62,1.86.09,3.73,0,5.59-.06,1.07,0,2.15.14,3.21.08,1.6-.07,3.19-.33,4.78-.38,1,0,2,.43,2.92.25,3.59-.69,7.33-.12,10.84-1.35.17-.06.41.06.61.05a18.48,18.48,0,0,0,2.47-.08c2.51-.37,5-1,7.51-1.16a23,23,0,0,0,4.42-.85c.6-.16,1.21-.23,1.81-.36,1.26-.27,2.51-.57,3.76-.84s2.72-.61,4.09-.89a12.8,12.8,0,0,0,3.47-.71,21.72,21.72,0,0,1,4.81-1.76,27.35,27.35,0,0,1,3.37-.61,6.45,6.45,0,0,0,2.08-.5A21.93,21.93,0,0,1,134.5,132c1.7-.39,3.35-1,5-1.46C139.34,128.81,139.19,127.23,139,125.48Z"/><path class="cls-2" d="M137.33,103.74c1.3-1.22,2.49-2.3,3.64-3.42A3.8,3.8,0,0,1,143,99a2.24,2.24,0,0,0,.74-.25c1.77-1,3.52-2,5.31-2.88.41-.22,1-.05,1.43-.26a18.29,18.29,0,0,1,3.95-1.3c1.85-.5,3.61-1.31,5.43-1.91s3.47-1.07,5.22-1.56c1.91-.53,3.82-1,5.75-1.49,1-.22,2-.31,2.93-.46.51-.07,1-.1,1.54-.22a37.29,37.29,0,0,1,10.69-1c2.93.12,5.86,0,8.8-.05.62,0,1.24.07,1.86.09,1.86.09,3.73.17,5.59.24a35.44,35.44,0,0,1,5.47.25c3,.59,6.08.18,9,.8a34.76,34.76,0,0,0,7.16.65,26.77,26.77,0,0,1,6.2.67,1.1,1.1,0,0,0,.62,0c1.65-.68,3.16.1,4.73.39,3.22.6,6.45,1.17,9.67,1.74,1.13.21,2.27.35,3.39.6s2,.57,3,.82c1.44.37,2.9.69,4.35,1.06a5.27,5.27,0,0,1,1,.38c.93.46,1.87.9,2.76,1.42.71.42,1.33,1,2,1.44,1,.67,1.95,1.35,3,1.93a2.66,2.66,0,0,1,1.5,2.38,3.21,3.21,0,0,0,.31.9,24.21,24.21,0,0,1-7,5,14.12,14.12,0,0,0-1.78,1,50.36,50.36,0,0,1-10.42,4.49,66.46,66.46,0,0,1-6.74,1.7q-3.43.78-6.92,1.26c-2.31.32-4.68.29-7,.73-2.86.56-5.73.17-8.59.52-1.36.16-2.77-.16-4.15-.13s-2.51.37-3.74.3c-2-.11-4,.38-6,.11-2.21-.3-4.48-.11-6.72-.19-3.39-.12-6.78-.28-10.17-.42a.37.37,0,0,1-.15,0c-2.71-1.4-5.76-.65-8.6-1.36a39.36,39.36,0,0,0-5.57-.55c-.87-.1-1.73-.33-2.61-.44s-1.72-.08-2.58-.19c-1.27-.17-2.55-.37-3.81-.62-2.53-.52-5.08-1-7.59-1.64-1.45-.36-2.85-1-4.27-1.44a14,14,0,0,0-1.76-.6,24.43,24.43,0,0,1-9.08-3.8,3,3,0,0,0-.69-.35A6.47,6.47,0,0,1,137.33,103.74Zm53.26-1.56a22.6,22.6,0,0,0-2.32.16c-1.85.29-3.68.77-5.54,1a44.69,44.69,0,0,0-8.28,1.35,2,2,0,0,0-1.54,1.56,6.57,6.57,0,0,0-.12,3.79,11.2,11.2,0,0,0,1.42.27c3,.17,5.94.28,8.91.46,3.31.21,6.62.54,9.94.69,4.27.2,8.54.26,12.82.39a1.9,1.9,0,0,1,1.17.25c1.23,1.16,2.64,1,4.06.64,2.62-.69,5.21-1.48,7.82-2.16s5.21-1.14,7.75-1.92a17.62,17.62,0,0,0,3.86-2,1,1,0,0,0-.1-1.81c-1.73-.71-3.42-1.62-5.39-1.47a8.35,8.35,0,0,1-1.41-.09c-3-.28-6-.59-9-.83-2-.16-4-.23-6-.35-1.31-.09-2.61-.2-3.91-.3-2.33-.17-4.67-.36-7-.51-1.87-.12-3.75-.21-5.62-.27-1,0-1,0-1.48,1.17Z"/><path class="cls-3" d="M133,113.4a9.83,9.83,0,0,1,.24,1.36,2.66,2.66,0,0,0,1,2,19.68,19.68,0,0,1,2.71,3.43,5.47,5.47,0,0,0,1.65,1.6,1.25,1.25,0,0,1-.1,2.32c-.74.36-1.57.54-2.34.84s-1.4.68-2.14.91c-2.23.69-4.48,1.34-6.73,2-3.1.91-6.18,1.89-9.32,2.67s-6.65,1.32-9.91,2.2c-1.55.41-3.21.39-4.65,1.21a1.79,1.79,0,0,1-.59.2c-2,.3-4,.61-6,.88-1.23.17-2.48.22-3.71.41-3.49.53-7,1.15-10.48,1.62a33.72,33.72,0,0,1-5.12.26c-2.55,0-5.1-.19-7.64-.35a12.37,12.37,0,0,1-2-.46,3.81,3.81,0,0,0-.44-.15c-1.38-.2-2.76-.38-4.14-.59-1.58-.26-3.17-.55-4.75-.82a11.08,11.08,0,0,0-1.39-.2,65.29,65.29,0,0,1-10.51-1.54c-2.26-.46-4.55-.71-6.81-1.16a55.53,55.53,0,0,1-7.3-1.58c-2.13-.71-4.31-1.24-6.47-1.85a.83.83,0,0,0-.31,0c-2,.13-3.82-.83-5.73-1.21-2.65-.53-5.27-1.15-7.88-1.81a8.46,8.46,0,0,0-1.43-.11c1-.89,2-.69,2.94-.79,1.23-.13,2.47-.22,3.7-.36,1.53-.17,3.06-.35,4.58-.59q3.17-.51,6.32-1.11c2.09-.39,4.17-.86,6.25-1.26.41-.08.84,0,1.25,0,.66-.1,1.31-.26,2-.41.25,0,.49-.16.75-.2,2.87-.44,5.74-.87,8.61-1.33.93-.15,1.83-.43,2.76-.62a38.36,38.36,0,0,0,4.56-.93c2.28-.78,4.64-1.15,7-1.71s4.43-1.1,6.67-1.57c1.68-.36,3.38-.59,5.08-.86a1.58,1.58,0,0,1,.78,0c1.86.69,3.73.08,5.59,0a12.19,12.19,0,0,0,2.41-.56c.46-.11.9-.29,1.36-.37,2.15-.39,4.3-.89,6.46-1.1a31.49,31.49,0,0,0,6-1.64,28.44,28.44,0,0,1,2.84-.78,2.92,2.92,0,0,1,1.22.18c.75.2,1.47.51,2.23.65a100.08,100.08,0,0,0,12.22,1.44,2.11,2.11,0,0,1,.62.09c1.53.72,3.16.5,4.78.59s3.09.43,4.64.65c.56.08,1.13.16,1.7.19C128.24,113.18,130.53,113.28,133,113.4Zm-7.31,6.48a7,7,0,0,0-1.24-.78,8.83,8.83,0,0,0-1.38-.23c-3.13-.56-6.25-1.15-9.39-1.69-1.79-.3-3.6-.51-5.4-.8s-3.58-.62-5.38-.91c-2.16-.34-4.34-.6-6.49-1a2,2,0,0,0-1.85.4,2.73,2.73,0,0,1-1.66.65c-2.7-.21-5.29.51-7.9.85-3.59.47-7.09,1.49-10.72,1.85-2.37.23-4.71.79-7.06,1.25-1.17.23-2.32.59-3.49.81s-2.27.28-3.4.45a71,71,0,0,1-8.48,1.12,9.29,9.29,0,0,0-3.83.62,5.71,5.71,0,0,0-3.23,4.68c0,1,.27,1.31,1.28,1.35a6.26,6.26,0,0,1,1.57.06c1.43.45,3.06-.25,4.38.8.09.07.3,0,.45,0,1.34,0,2.67,0,4,.12,1.77.12,3.52.34,5.28.52,2,.21,3.93.33,5.86.66,1.78.3,3.6,0,5.35.5.26.08.61-.14.91-.14a9,9,0,0,1,2.75.11,4.43,4.43,0,0,0,2.74.07,22.29,22.29,0,0,1,2.42-.55c.92-.16,1.87-.18,2.78-.39,3-.73,6-1.55,9.08-2.28,3.43-.83,6.88-1.6,10.33-2.38,4.72-1.07,9.36-2.51,14.14-3.35a6.49,6.49,0,0,0,.76-.19c1.75-.48,3.51-1,5.25-1.45A14.5,14.5,0,0,0,125.67,119.88Z"/><path class="cls-2" d="M136.09,116.49c1.87-2,.57-4.26.67-6.39a7.59,7.59,0,0,1,3.46,2.26.43.43,0,0,0,.12.11c1.67.85,3.38,1.62,5,2.57s3.23.47,4.79,1.21a26.05,26.05,0,0,0,4.65,1.24c.6.15,1.19.37,1.79.53a15.55,15.55,0,0,0,4.75.68,4.69,4.69,0,0,1,1.49.44c2.06.71,4.23.49,6.35.66,3.51.29,7,.5,10.54.75a8.28,8.28,0,0,0,1.09.09,25.59,25.59,0,0,1,6.82.51,10.73,10.73,0,0,0,1.88,0c3.66-.07,7.31-.1,11-.21,4.22-.11,8.45-.29,12.67-.43,2.45-.09,4.89-.1,7.33-.26a48.86,48.86,0,0,0,7.78-.82c2.92-.69,5.91-.51,8.79-1.21,2.12-.52,4.26-1,6.39-1.48.76-.18,1.57-.21,2.3-.46,1.38-.45,2.72-1,4.07-1.54a3.23,3.23,0,0,1,.57-.26c3.06-.57,5.72-2.17,8.55-3.35a20.17,20.17,0,0,0,2.93-1.39c1.93-1.18,3.8-2.48,5.76-3.78a4.58,4.58,0,0,1,.23.86,23.27,23.27,0,0,1,.06,2.64,2.82,2.82,0,0,1-.44,1.47c-1,1.3-2,2.55-3.07,3.76a10,10,0,0,1-5.51,3,49,49,0,0,0-4.83,1.64.66.66,0,0,0-.33.31c-.76,1.49-2.31,1.94-3.64,2.49-2,.84-3.82,2-5.81,2.84a14.16,14.16,0,0,1-1.61.45,16.29,16.29,0,0,1-2.26.58c-2.26.27-4.2,1.55-6.37,2-4.39.93-8.81,1.71-13.21,2.55a66.69,66.69,0,0,1-7.73.59,15.76,15.76,0,0,0-1.67.29,10.69,10.69,0,0,1-1.82.37c-2.19.06-4.39.16-6.57,0-2.86-.19-5.71-.56-8.55-.94a30.57,30.57,0,0,0-5.58-.4c-1.77.08-3.55-.14-5.33-.18s-3.32-.05-5-.07c0,0-.1,0-.15,0l-8.37-1a5,5,0,0,0-.94-.09,18.72,18.72,0,0,1-4.47-.48,60.47,60.47,0,0,1-8.44-2.2,31.81,31.81,0,0,1-5.91-2.29c-2.11-1.19-4.51-1.89-6.65-3-1.95-1-4.2-1.6-5.76-3.35A11.55,11.55,0,0,0,136.09,116.49Z"/><path class="cls-3" d="M139,125.48c.18,1.75.33,3.33.51,5.06-1.67.5-3.32,1.07-5,1.46a21.93,21.93,0,0,0-4.82,1.71,6.45,6.45,0,0,1-2.08.5,27.35,27.35,0,0,0-3.37.61,21.72,21.72,0,0,0-4.81,1.76,12.8,12.8,0,0,1-3.47.71c-1.37.28-2.73.58-4.09.89s-2.5.57-3.76.84c-.6.13-1.21.2-1.81.36a23,23,0,0,1-4.42.85c-2.52.17-5,.79-7.51,1.16a18.48,18.48,0,0,1-2.47.08c-.2,0-.44-.11-.61-.05-3.51,1.23-7.25.66-10.84,1.35-.92.18-2-.28-2.92-.25-1.59,0-3.18.31-4.78.38-1.06.06-2.14-.09-3.21-.08-1.86,0-3.73.15-5.59.06-1.29-.06-2.57-.43-3.86-.62-2.11-.3-4.23-.53-6.34-.85-1.29-.19-2.55-.49-3.82-.76-1.58-.32-3.15-.71-4.74-1-3.44-.59-6.88-1.11-10.32-1.69-1.32-.22-2.62-.61-3.95-.79a80.88,80.88,0,0,1-8.43-1.63c-3.13-.78-6.35-1.15-9.51-1.83a37.55,37.55,0,0,1-4.17-1.36,1.16,1.16,0,0,1-.89-1.3c.13-1,.26-2.07.42-3.11a.76.76,0,0,1,1-.7c.67.12,1.34.25,2,.32A20.44,20.44,0,0,0,16,128a8.33,8.33,0,0,1,3.3.76c4.66,1.49,9.27,3.13,14,4.51,3.69,1.09,7.46,1.91,11.21,2.8,2.49.59,5,1.15,7.49,1.63,1,.2,2.07.14,3.1.24,2.64.25,5.27.53,7.91.77a30.39,30.39,0,0,1,4.8.36,25.38,25.38,0,0,0,5,.49c3.22.2,6.45.46,9.68.42a36.84,36.84,0,0,0,6.93-.82c2.08-.44,4.27-.34,6.23-1.31,2.84,0,5.4-1.42,8.23-1.56a15.58,15.58,0,0,0,2.35-.75c1.47-.33,3-.5,4.45-.84,1-.23,2-.69,2.94-1,1.36-.37,2.74-.62,4.1-1,.9-.24,1.78-.57,2.67-.88a4.11,4.11,0,0,1,.56-.27c3.4-.56,6.53-2,9.77-3.06C133.41,127.59,136.12,126.52,139,125.48Z"/><path class="cls-1" d="M190.59,102.18c.45-1.16.45-1.2,1.48-1.17,1.87.06,3.75.15,5.62.27,2.34.15,4.68.34,7,.51,1.3.1,2.6.21,3.91.3,2,.12,4,.19,6,.35,3,.24,6,.55,9,.83a8.35,8.35,0,0,0,1.41.09c2-.15,3.66.76,5.39,1.47a1,1,0,0,1,.1,1.81,17.62,17.62,0,0,1-3.86,2c-2.54.78-5.17,1.25-7.75,1.92s-5.2,1.47-7.82,2.16c-1.42.37-2.83.52-4.06-.64a1.9,1.9,0,0,0-1.17-.25c-4.28-.13-8.55-.19-12.82-.39-3.32-.15-6.63-.48-9.94-.69-3-.18-5.94-.29-8.91-.46a11.2,11.2,0,0,1-1.42-.27,6.57,6.57,0,0,1,.12-3.79,2,2,0,0,1,1.54-1.56,44.69,44.69,0,0,1,8.28-1.35c1.86-.19,3.69-.67,5.54-1a22.6,22.6,0,0,1,2.32-.16c-.53.38-.72,1.1-1.55,1.21a18.86,18.86,0,0,0-4.62,1.11,41,41,0,0,1-5.58,1.38c-.46.12-.9.33-1.35.49l.08.27,29.75,3a2.57,2.57,0,0,1,2.53-1.19,5.07,5.07,0,0,0,1.36-.28c1.91-.53,3.8-1.17,5.74-1.58a13,13,0,0,0,4.39-1.26l-14.09-.78c-.57,0-1.15,0-1.71-.09-1.45-.15-2.89-.34-4.33-.49a10.71,10.71,0,0,0-2.63-.19c-2.29.35-4.45-.5-6.7-.51A1.24,1.24,0,0,1,190.59,102.18Z"/><path class="cls-1" d="M125.67,119.88a14.5,14.5,0,0,1-1.57.68c-1.74.5-3.5,1-5.25,1.45a6.49,6.49,0,0,1-.76.19c-4.78.84-9.42,2.28-14.14,3.35-3.45.78-6.9,1.55-10.33,2.38-3,.73-6.05,1.55-9.08,2.28-.91.21-1.86.23-2.78.39a22.29,22.29,0,0,0-2.42.55,4.43,4.43,0,0,1-2.74-.07,9,9,0,0,0-2.75-.11c-.3,0-.65.22-.91.14-1.75-.51-3.57-.2-5.35-.5-1.93-.33-3.9-.45-5.86-.66-1.76-.18-3.51-.4-5.28-.52-1.33-.1-2.66-.09-4-.12-.15,0-.36.1-.45,0-1.32-1.05-3-.35-4.38-.8a6.26,6.26,0,0,0-1.57-.06c-1,0-1.26-.32-1.28-1.35A5.71,5.71,0,0,1,48,122.45a9.29,9.29,0,0,1,3.83-.62,71,71,0,0,0,8.48-1.12c1.13-.17,2.27-.25,3.4-.45s2.32-.58,3.49-.81c2.35-.46,4.69-1,7.06-1.25,3.63-.36,7.13-1.38,10.72-1.85,2.61-.34,5.2-1.06,7.9-.85a2.73,2.73,0,0,0,1.66-.65,2,2,0,0,1,1.85-.4c2.15.42,4.33.68,6.49,1,1.8.29,3.58.63,5.38.91s3.61.5,5.4.8c3.14.54,6.26,1.13,9.39,1.69a8.83,8.83,0,0,1,1.38.23A7,7,0,0,1,125.67,119.88ZM52.8,126.53c.73.16,1.13.27,1.53.32,1.25.16,2.5.27,3.74.43s2.35.38,3.53.54c1.59.23,3.19.41,4.77.67.7.11,1.36.46,2.06.56a36.1,36.1,0,0,1,5.75.77,3,3,0,0,0,2.36-.19,6.08,6.08,0,0,1,3.06-1.36c3.17-.62,6.37-1.09,9.54-1.72,5.27-1,10.52-2.19,15.79-3.27,2.69-.55,5.4-1.06,8.1-1.59,1.79-.34,3.58-.69,5.37-1a2.4,2.4,0,0,1,.92.06c.71.16,1-.24,1.38-.9-2-.22-3.92-.55-5.81-.6-2.67,0-5.28-.53-7.91-.83a48.3,48.3,0,0,0-4.92-.63,20.17,20.17,0,0,1-5.84-.86,8.81,8.81,0,0,0-4,0,15.33,15.33,0,0,0-2,.55l-5.11,1.3c-1.14.28-2.28.58-3.43.82-3.15.64-6.31,1.22-9.46,1.87-2,.41-3.94.95-5.92,1.36-1.57.32-3.17.5-4.75.79-1.11.21-2.21.55-3.32.75A13,13,0,0,0,52.8,126.53Z"/><path class="cls-4" d="M190.59,102.18a1.24,1.24,0,0,0,1.29,1.06c2.25,0,4.41.86,6.7.51a10.71,10.71,0,0,1,2.63.19c1.44.15,2.88.34,4.33.49.56,0,1.14,0,1.71.09l14.09.78a13,13,0,0,1-4.39,1.26c-1.94.41-3.83,1-5.74,1.58a5.07,5.07,0,0,1-1.36.28,2.57,2.57,0,0,0-2.53,1.19l-29.75-3-.08-.27c.45-.16.89-.37,1.35-.49a41,41,0,0,0,5.58-1.38,18.86,18.86,0,0,1,4.62-1.11c.83-.11,1-.83,1.55-1.21Z"/><path class="cls-4" d="M52.8,126.53a13,13,0,0,1,5.43-2.2c1.11-.2,2.21-.54,3.32-.75,1.58-.29,3.18-.47,4.75-.79,2-.41,3.94-1,5.92-1.36,3.15-.65,6.31-1.23,9.46-1.87,1.15-.24,2.29-.54,3.43-.82l5.11-1.3a15.33,15.33,0,0,1,2-.55,8.81,8.81,0,0,1,4,0,20.17,20.17,0,0,0,5.84.86,48.3,48.3,0,0,1,4.92.63c2.63.3,5.24.78,7.91.83,1.89.05,3.78.38,5.81.6-.37.66-.67,1.06-1.38.9a2.4,2.4,0,0,0-.92-.06c-1.79.32-3.58.67-5.37,1-2.7.53-5.41,1-8.1,1.59-5.27,1.08-10.52,2.22-15.79,3.27-3.17.63-6.37,1.1-9.54,1.72a6.08,6.08,0,0,0-3.06,1.36,3,3,0,0,1-2.36.19,36.1,36.1,0,0,0-5.75-.77c-.7-.1-1.36-.45-2.06-.56-1.58-.26-3.18-.44-4.77-.67-1.18-.16-2.35-.38-3.53-.54s-2.49-.27-3.74-.43C53.93,126.8,53.53,126.69,52.8,126.53Z"/></svg>