<svg width="218" height="24" viewBox="0 0 218 24" fill="none" xmlns="http://www.w3.org/2000/svg">
<path d="M0.862437 5.94421H1.98983L5.87309 17.9107L9.63108 5.94421H10.8211V22.8601H9.63108V9.89127L6.37416 19.9782H5.30939L1.98983 9.89127V22.8601H0.799805V5.94421H0.862437Z" fill="#1E1F44"/>
<path d="M17.9004 22.8687C19.341 17.23 20.7815 11.5914 22.2847 5.95276H23.4121L27.7965 22.8687H26.6065L25.5417 18.7963L20.1552 18.859L19.0904 22.8687H17.9004ZM25.2912 17.8566L22.8484 8.39617L20.4057 17.9192L25.2912 17.8566Z" fill="#1E1F44"/>
<path d="M36.062 8.7735V22.8077H34.9346V5.89148H36.062L41.9495 19.863V5.89148H43.0769V22.8077H41.9495L36.062 8.7735Z" fill="#1E1F44"/>
<path d="M52.1619 17.8559C52.1619 19.8607 52.7256 21.9282 55.1056 21.9282C57.1725 21.9282 57.9241 20.174 57.9241 18.3571V15.0992H55.2309V14.0968H59.0515V17.9185C59.0515 20.4872 58.2373 23.1186 55.1056 23.1186C52.475 23.1186 50.9092 21.239 50.9092 18.733V10.5257C50.9092 7.76905 52.0366 5.63892 55.1683 5.63892C58.8637 5.63892 59.0515 8.58351 59.0515 11.4028V11.5908H57.9241C57.9241 11.2775 57.9241 11.0269 57.9241 10.7136C57.9241 8.77146 57.7362 6.82928 55.1056 6.82928C52.9761 6.82928 52.0992 8.33291 52.0992 10.2751V17.8559H52.1619Z" fill="#1E1F44"/>
<path d="M67.002 5.95276H73.829V6.95518H68.192V13.6589H73.0148V14.6614H68.192V21.8037H73.829V22.8061H67.002V5.95276Z" fill="#1E1F44"/>
<path d="M88.2335 22.8685H80.8428C80.8428 22.5552 80.9054 22.1793 80.968 21.8661L86.7303 7.01768H80.9054V6.01526H88.1082C88.1082 6.26586 88.0456 6.45382 87.9829 6.64177C87.9829 6.76708 87.9829 6.82973 87.9203 6.95503C87.3566 8.39601 86.7303 10.0249 86.1666 11.5286C84.8513 14.9744 83.4734 18.4202 82.1581 21.8661H88.2335V22.8685Z" fill="#1E1F44"/>
<path d="M110.971 17.6054H113.477V19.0464C113.477 21.3645 111.786 23.0561 109.468 23.0561C107.088 23.0561 105.146 21.4898 105.146 19.0464V9.64862C105.146 7.20521 107.025 5.63892 109.406 5.63892C111.848 5.63892 113.414 7.39316 113.414 9.77393V11.3402H110.909C110.909 11.027 110.909 10.6511 110.909 10.3378C110.909 9.27272 110.721 8.20763 109.28 8.20763C108.466 8.20763 107.589 8.7715 107.589 9.64862V18.8584C107.589 19.8609 108.341 20.55 109.28 20.55C110.721 20.55 110.909 19.6103 110.909 18.5452C110.971 18.2319 110.971 17.9187 110.971 17.6054Z" fill="#76B39D"/>
<path d="M128.196 9.71123V18.733C128.196 21.1764 126.693 23.1186 124.125 23.1186C121.808 23.1186 119.929 21.427 119.929 19.0462V9.64858C119.929 7.20519 121.808 5.63892 124.188 5.63892C126.568 5.63892 128.196 7.33049 128.196 9.71123ZM122.371 18.8583C122.371 19.8607 123.186 20.5499 124.188 20.5499C125.19 20.5499 125.691 19.7354 125.691 18.7956V9.39798C125.691 8.64617 124.751 8.14496 124.125 8.14496C123.311 8.14496 122.434 8.70882 122.434 9.58593V18.8583H122.371Z" fill="#76B39D"/>
<path d="M137.964 12.0924V22.7432H135.459V5.82727H137.964L142.349 16.3527V5.82727H144.854V22.7432H142.349V22.6179L137.964 12.0924Z" fill="#76B39D"/>
<path d="M160.392 11.1526H157.887C157.887 10.9647 157.887 10.8393 157.887 10.5887C157.887 9.46103 157.761 8.0827 156.384 8.0827C155.381 8.0827 154.692 8.89717 154.692 9.83693C154.692 14.0346 160.517 12.7189 160.517 18.4828C160.517 21.0515 158.638 22.8684 156.07 22.8684C153.753 22.8684 151.937 21.3647 151.937 18.984V17.543H154.442C154.442 17.6057 154.442 17.6683 154.442 17.731C154.442 18.984 154.504 20.6129 156.196 20.6129C157.511 20.6129 158.012 19.2972 158.012 18.1695C158.012 14.7237 152.124 14.849 152.124 9.89959C152.124 7.39355 154.129 5.82727 156.509 5.82727C158.826 5.82727 160.517 7.33089 160.517 9.64898V11.1526H160.392Z" fill="#76B39D"/>
<path d="M167.781 22.8683V5.95215H170.287V22.8683H167.781Z" fill="#76B39D"/>
<path d="M180.245 9.64875V18.8586C180.245 19.8611 180.996 20.5502 181.936 20.5502C182.813 20.5502 183.564 20.049 183.564 19.1092V16.2272H181.81V14.0971H186.07V19.1092C186.07 21.4274 184.378 23.119 182.061 23.119C179.681 23.119 177.739 21.5527 177.739 19.1092V9.71141C177.739 7.26797 179.618 5.70166 181.998 5.70166C184.441 5.70166 186.007 7.45593 186.007 9.83671V11.7163H183.502C183.502 11.3404 183.502 10.9018 183.502 10.4632C183.502 9.33549 183.314 8.33306 181.873 8.33306C181.059 8.20776 180.245 8.77162 180.245 9.64875Z" fill="#76B39D"/>
<path d="M196.086 12.0924V22.7432H193.581V5.82727H196.086L200.471 16.3527V5.82727H202.976V22.7432H200.471V22.6179L196.086 12.0924Z" fill="#76B39D"/>
<path d="M216.386 15.2874H212.816V20.7383H217.2V22.8685H210.311V5.95207H217.2V8.08228H212.816V13.0946H216.386V15.2874ZM216.135 1.44103L212.315 4.63635L211.313 3.94716C212.377 2.38083 213.004 1.50368 214.006 0L216.135 1.44103Z" fill="#76B39D"/>
</svg>
