<?xml version="1.0" encoding="utf-8"?>
<svg version="1.1" xmlns="http://www.w3.org/2000/svg" xmlns:xlink="http://www.w3.org/1999/xlink" x="0px" y="0px"
	 viewBox="0 0 91 10" style="enable-background:new 0 0 91 10;" xml:space="preserve">
<style type="text/css">
	.st0{fill:#1E1F44;stroke:#000000;stroke-width:0.25;stroke-miterlimit:10;}
	.st1{fill:#76B39D;}
</style>
<path class="st0" d="M0.5,2.8H1l1.6,5l1.6-5h0.5v7.1H4.1V4.5L2.8,8.7H2.3L1,4.5v5.4H0.5L0.5,2.8L0.5,2.8z"/>
<path class="st0" d="M7.6,9.9c0.6-2.4,1.2-4.7,1.8-7.1h0.5l1.8,7.1h-0.5l-0.4-1.7l-2.3,0L8.1,9.9H7.6z M10.7,7.8l-1-3.9l-1,4
	L10.7,7.8z"/>
<path class="st0" d="M15.2,4v5.9h-0.5V2.8h0.5l2.5,5.8V2.8h0.5v7.1h-0.5L15.2,4z"/>
<path class="st0" d="M21.9,7.8c0,0.8,0.2,1.7,1.2,1.7c0.9,0,1.2-0.7,1.2-1.5V6.7h-1.1V6.2h1.6v1.6c0,1.1-0.3,2.2-1.6,2.2
	c-1.1,0-1.8-0.8-1.8-1.8V4.7c0-1.2,0.5-2,1.8-2c1.5,0,1.6,1.2,1.6,2.4v0.1h-0.5c0-0.1,0-0.2,0-0.4c0-0.8-0.1-1.6-1.2-1.6
	c-0.9,0-1.3,0.6-1.3,1.4L21.9,7.8L21.9,7.8z"/>
<path class="st0" d="M28.1,2.8H31v0.4h-2.4v2.8h2v0.4h-2v3H31v0.4h-2.9V2.8z"/>
<path class="st0" d="M37,9.9h-3.1c0-0.1,0-0.3,0.1-0.4l2.4-6.2h-2.4V2.9h3c0,0.1,0,0.2-0.1,0.3c0,0.1,0,0.1,0,0.1
	c-0.2,0.6-0.5,1.3-0.7,1.9C35.6,6.6,35,8,34.5,9.5H37V9.9z"/>
<path class="st1" d="M46.5,7.7h1v0.6c0,1-0.7,1.7-1.7,1.7c-1,0-1.8-0.7-1.8-1.7V4.4c0-1,0.8-1.7,1.8-1.7c1,0,1.7,0.7,1.7,1.7v0.7h-1
	c0-0.1,0-0.3,0-0.4c0-0.4-0.1-0.9-0.7-0.9c-0.3,0-0.7,0.2-0.7,0.6v3.8c0,0.4,0.3,0.7,0.7,0.7c0.6,0,0.7-0.4,0.7-0.8
	C46.5,8,46.5,7.8,46.5,7.7z"/>
<path class="st1" d="M53.7,4.4v3.8c0,1-0.6,1.8-1.7,1.8c-1,0-1.8-0.7-1.8-1.7V4.4c0-1,0.8-1.7,1.8-1.7S53.7,3.4,53.7,4.4z M51.3,8.2
	c0,0.4,0.3,0.7,0.8,0.7c0.4,0,0.6-0.3,0.6-0.7V4.3c0-0.3-0.4-0.5-0.7-0.5c-0.3,0-0.7,0.2-0.7,0.6L51.3,8.2L51.3,8.2z"/>
<path class="st1" d="M57.8,5.4v4.4h-1V2.8h1l1.8,4.4V2.8h1v7.1h-1V9.8L57.8,5.4z"/>
<path class="st1" d="M67.2,5h-1c0-0.1,0-0.1,0-0.2c0-0.5-0.1-1-0.6-1c-0.4,0-0.7,0.3-0.7,0.7c0,1.8,2.4,1.2,2.4,3.6
	c0,1.1-0.8,1.8-1.9,1.8c-1,0-1.7-0.6-1.7-1.6V7.7h1c0,0,0,0.1,0,0.1c0,0.5,0,1.2,0.7,1.2c0.5,0,0.8-0.5,0.8-1c0-1.4-2.5-1.4-2.5-3.5
	c0-1,0.8-1.7,1.8-1.7c1,0,1.7,0.6,1.7,1.6L67.2,5L67.2,5z"/>
<path class="st1" d="M70.2,9.9V2.8h1v7.1H70.2z"/>
<path class="st1" d="M75.5,4.4v3.8c0,0.4,0.3,0.7,0.7,0.7c0.4,0,0.7-0.2,0.7-0.6V7.1h-0.7V6.2h1.8v2.1c0,1-0.7,1.7-1.7,1.7
	c-1,0-1.8-0.7-1.8-1.7V4.4c0-1,0.8-1.7,1.8-1.7c1,0,1.7,0.7,1.7,1.7v0.8h-1c0-0.2,0-0.3,0-0.5c0-0.5-0.1-0.9-0.7-0.9
	C75.8,3.8,75.5,4,75.5,4.4z"/>
<path class="st1" d="M82.1,5.4v4.4h-1V2.8h1l1.8,4.4V2.8h1v7.1h-1V9.8L82.1,5.4z"/>
<path class="st1" d="M90.6,6.7h-1.5V9h1.8v0.9H88V2.8h2.9v0.9h-1.8v2.1h1.5V6.7z M90.5,1l-1.6,1.3L88.4,2c0.4-0.7,0.7-1,1.1-1.6
	L90.5,1z"/>
</svg>
