<svg width="36" height="32" viewBox="0 0 36 32" fill="none" xmlns="http://www.w3.org/2000/svg">
<path d="M30.9403 9.4609C31.1952 9.49732 31.432 9.66122 31.5959 9.89796C31.8144 10.2075 32.2332 10.3168 32.3607 10.6992C32.7067 10.7357 32.8524 11.0817 33.1074 11.2456C33.3259 11.3912 33.508 11.5916 33.7083 11.7919C33.7994 11.8829 33.8904 12.0104 33.9815 12.1015C34.1272 12.229 34.2911 12.32 34.455 12.4111C34.5096 12.4475 34.6007 12.4293 34.6553 12.4293C34.8374 12.7024 34.9831 12.9756 35.1834 13.2305C35.3473 13.4491 35.3473 13.6676 35.3473 13.9044C35.3473 13.9408 35.3109 14.0136 35.3291 14.0318C35.584 14.1957 35.5112 14.4325 35.5294 14.6692C35.5476 14.9424 35.4202 15.1609 35.3109 15.3794C35.2927 15.3976 35.2927 15.4341 35.2745 15.4705C35.0377 15.3976 34.9102 15.5615 34.7463 15.7072C34.5642 15.8529 34.3821 16.0532 34.109 15.8893C34.0725 15.8711 33.9815 15.8711 33.9633 15.8893C33.9269 16.0168 33.8722 15.9804 33.7812 15.944C33.4898 15.8347 33.1802 15.7619 32.8888 15.6526C32.7431 15.598 32.6157 15.5069 32.4882 15.4159C32.3789 15.343 32.2515 15.2702 32.1422 15.1791C31.9965 15.0334 31.8872 14.8877 31.7598 14.7238C31.6869 14.651 31.6505 14.5235 31.5594 14.5053C31.2499 14.396 31.0313 14.1411 30.8128 13.9226C30.6307 13.7587 30.485 13.6676 30.1936 13.7405C30.2665 13.6312 30.3029 13.5948 30.3575 13.5401C30.2118 13.4127 30.0479 13.267 29.884 13.1395C29.7201 13.0302 29.6109 12.9028 29.5198 12.7206C29.447 12.5932 29.2467 12.5385 29.1374 12.4111C29.0646 12.3382 28.846 12.5203 28.9007 12.2472C28.9189 12.2107 28.7003 12.1379 28.6457 12.0286C28.3908 11.5916 27.8808 11.4277 27.5713 11.0452C27.5166 10.9724 27.3527 10.9906 27.2799 10.9542C27.0614 10.6264 27.0067 10.1893 26.5879 10.0072C26.3511 9.89796 26.169 9.67943 25.9505 9.49732C25.7138 9.297 25.386 9.1331 25.2221 8.87815C24.9125 8.38645 24.3479 8.20435 24.0019 7.76728C23.838 7.54875 23.6741 7.33022 23.5102 7.1299C23.3645 6.96601 23.2007 6.76569 23.0185 6.67463C22.7636 6.52894 22.5268 6.36505 22.3812 6.11009C22.3447 6.03725 22.2719 5.96441 22.2173 5.92799C21.7074 5.56377 21.2157 5.16313 20.7786 4.68965C20.5965 4.48933 20.3415 4.38006 20.1412 4.17974C19.7406 3.79731 19.3399 3.37846 18.9393 2.97782C18.83 2.86856 18.7026 2.75929 18.5751 2.65003C17.9377 3.2692 17.3368 3.87016 16.6994 4.4529C16.3898 4.74428 16.1713 5.12671 15.716 5.25418C15.4246 5.74588 14.8419 5.92799 14.5141 6.36505C14.4412 6.4561 14.332 6.51073 14.2409 6.58358C14.1134 6.67463 13.9495 6.74748 13.8767 6.87495C13.6582 7.20275 13.3668 7.42128 12.9844 7.43949C12.7476 8.02224 12.3652 8.44109 11.7824 8.65962C11.7096 8.89636 11.3636 8.87815 11.2907 9.07847C11.1451 9.51553 10.708 9.62479 10.453 9.95259C10.2891 10.1529 10.0524 10.3168 9.85208 10.4807C9.72461 10.5718 9.57892 10.6264 9.45144 10.7174C9.39681 10.7539 9.30576 10.7721 9.28755 10.8267C9.16007 11.0817 8.88691 11.1727 8.66838 11.3184C8.50448 11.4277 8.34058 11.5551 8.23132 11.719C8.15847 11.8465 8.031 11.8465 7.95815 11.9376C7.8671 12.0468 7.83068 12.2107 7.77604 12.3746C7.66678 12.3564 7.5393 12.3382 7.41183 12.3382C7.30256 12.3564 7.17508 12.3928 7.10224 12.4657C6.8655 12.6842 6.66518 12.9028 6.44665 13.1213C6.33738 13.2305 6.20991 13.3398 6.08243 13.4309C5.71821 13.6858 5.48147 14.0682 5.13547 14.3414C4.97157 14.4871 4.84409 14.651 4.57093 14.6146C4.49809 14.5964 4.37061 14.7056 4.58914 14.8513C4.13387 14.7785 4.00639 15.1609 3.84249 15.3612C3.53291 15.7437 3.11406 15.944 2.71342 16.0897C2.33099 16.2171 1.93035 16.3628 1.5115 16.3082C1.03802 16.2536 0.546326 16.1625 0.382428 15.5798C0.364217 15.5069 0.291374 15.4341 0.236741 15.3794C0.0182109 15.0881 0.0182109 15.0881 0 14.6328C0.0546326 14.651 0.109265 14.651 0.163898 14.6692C0.163898 14.5782 0.127476 14.4325 0.163898 14.3778C0.346007 14.1957 0.291374 14.0136 0.236741 13.9044C0.145687 13.6858 0.218531 13.5766 0.327796 13.3944C0.509905 13.1031 0.764857 12.9392 1.03802 12.7389C1.31118 12.5203 1.52971 12.229 1.78467 11.974C1.91214 11.8465 2.09425 11.7555 2.23994 11.6462C2.33099 11.5734 2.40384 11.5005 2.47668 11.4095C2.53131 11.3548 2.56773 11.2638 2.62237 11.2456C3.00479 11.1909 3.15048 10.8449 3.38722 10.6264C3.62396 10.4079 3.80607 10.1711 4.11566 10.0254C4.40703 9.87975 4.64377 9.58837 4.91694 9.38805C5.09904 9.24237 5.31758 9.11489 5.5179 8.9692C5.64537 8.87815 5.71821 8.75067 5.84569 8.65962C6.17349 8.44109 6.11885 8.11329 6.0278 7.82192C5.99138 7.69444 5.91853 7.6216 6.04601 7.51233C6.06422 7.49412 6.06422 7.42128 6.04601 7.38486C5.91853 6.92958 6.0278 6.49252 6.11885 6.05546C6.13706 5.92799 6.11885 5.80051 6.11885 5.69124C6.13706 4.76249 6.13706 3.85195 6.15528 2.92319C6.15528 2.72287 6.13706 2.55897 5.99138 2.41329C5.8639 2.24939 5.77285 2.06728 5.80927 1.83054C5.84569 1.5938 5.82748 1.33884 5.8639 1.1021C5.90032 0.774307 6.15528 0.610409 6.42844 0.573987C6.90192 0.482933 7.41183 0.4283 7.88531 0.446511C8.55911 0.482933 9.2147 0.592198 9.8885 0.665042C10.362 0.719674 10.6534 1.01105 10.7808 1.41169C10.9629 1.97622 11.1086 2.54076 11.0722 3.15993C11.054 3.45131 11.0904 3.76089 11.1268 4.07048C11.1451 4.19795 11.2179 4.30722 11.3818 4.32543C11.5275 4.32543 11.6732 4.36185 11.746 4.16153C11.8553 3.88837 12.092 3.76089 12.3288 3.6152C12.4198 3.56057 12.5473 3.52415 12.5655 3.45131C12.7112 3.06888 13.0754 2.85035 13.385 2.72287C14.0042 2.48613 14.423 1.97622 14.9875 1.66664C15.4428 1.41169 15.8799 1.1021 16.3352 0.883572C16.8451 0.62862 17.4096 0.464722 17.9377 0.246191C18.0288 0.209769 18.1016 0.136926 18.1927 0.100504C18.5022 -0.026972 18.7936 -0.0633937 19.085 0.173348C19.3582 0.391878 19.686 0.519354 19.9773 0.701463C20.3051 0.901783 20.6329 1.12031 20.9607 1.30242C21.3978 1.53916 21.8348 1.81233 22.1991 2.15833C22.5268 2.44971 22.9821 2.57718 23.2189 2.97782C23.7288 3.12351 23.8927 3.68805 24.3479 3.92479C24.53 4.01584 24.6757 4.17974 24.8578 4.23437C25.1492 4.32543 25.3313 4.48933 25.4952 4.72607C25.6409 4.9446 25.8048 5.07207 26.0598 5.18134C26.2419 5.25418 26.3329 5.56377 26.515 5.65482C26.7154 5.74588 26.9703 5.80051 27.0431 5.96441C27.207 6.31041 27.4802 6.47431 27.7898 6.63821C27.9537 6.72926 28.0994 6.87495 28.2269 7.02064C28.3543 7.16633 28.5182 7.20275 28.6639 7.34843C28.9735 7.67623 29.3559 7.93118 29.7019 8.24077C29.884 8.38645 30.0115 8.56856 30.1936 8.73246C30.3211 8.85994 30.3939 9.00562 30.6125 9.06026C30.74 9.06026 30.8128 9.27879 30.9403 9.4609Z" fill="#EB611B"/>
<path d="M21.9076 24.9219C21.3067 24.7216 20.7239 24.7216 20.123 24.7398C19.5584 24.758 19.0121 24.7398 18.4476 24.7216C17.8102 24.7034 17.1728 24.6487 16.5354 24.6123C16.1348 24.5759 15.7524 24.5213 15.3153 24.4848C15.2789 24.9401 15.2425 25.3408 15.206 25.7414C15.1696 26.1056 15.1514 26.4698 15.1332 26.8158C15.1332 26.9615 15.1332 27.1072 15.1332 27.2529C15.1696 27.8721 15.1878 28.4912 14.9875 29.1104C14.9329 29.2561 14.9693 29.42 14.9511 29.5839C14.86 30.2395 14.6415 30.8222 13.9859 31.1136C13.822 31.1864 13.6581 31.2229 13.476 31.2411C12.7658 31.3686 12.0555 31.496 11.3453 31.6235C11.0539 31.6781 10.7444 31.6964 10.4348 31.7328C9.88845 31.7692 9.34213 31.842 8.7958 31.8056C8.17663 31.7692 7.55746 31.6599 6.9565 31.5325C6.62871 31.4778 6.37375 31.2775 6.13701 31.0225C5.88206 30.7676 5.84564 30.4034 5.62711 30.1484C5.57248 30.0756 5.59069 29.9117 5.59069 29.8024C5.57248 29.4018 5.53605 29.0011 5.51784 28.6005C5.49963 28.3273 5.57248 28.036 5.49963 27.781C5.42679 27.5079 5.46321 27.2711 5.48142 27.0162C5.49963 26.7976 5.48142 26.5609 5.48142 26.3241C5.48142 26.142 5.46321 25.9417 5.49963 25.7596C5.55427 25.4682 5.62711 25.1586 5.51784 24.8673C5.69995 24.3209 5.42679 23.7564 5.59069 23.1919C5.69995 22.7912 5.68174 22.3724 5.53605 21.9717C5.53605 21.9535 5.51784 21.9353 5.51784 21.9353C5.49963 21.4436 5.445 20.9519 5.49963 20.4602C5.55427 19.9686 5.59069 19.4951 5.53605 19.0034C5.51784 18.8395 5.53605 18.6574 5.55427 18.4935C5.57248 17.7286 5.59069 16.982 5.7728 16.2353C5.80922 16.0896 5.86385 15.9439 5.91848 15.7801C5.9549 15.6708 6.04596 15.5615 6.02775 15.4523C5.97312 15.088 6.19165 14.8513 6.41018 14.6146C6.9565 13.9772 7.53925 13.3398 8.15842 12.757C8.65011 12.3018 9.14181 11.8283 9.59708 11.3184C9.85203 11.027 10.107 10.7356 10.4712 10.5717C10.6351 10.4989 10.7626 10.2986 10.8718 10.1347C11.0904 9.78868 11.3817 9.53372 11.7095 9.29698C12.0191 9.06024 12.2559 8.76887 12.529 8.4957C12.8204 8.20433 13.1118 7.91296 13.4214 7.62158C13.7492 7.312 14.0952 7.02062 14.4412 6.71104C14.769 6.40145 15.1332 6.16471 15.5156 5.90976C15.898 5.67302 16.2258 5.32701 16.5901 5.07206C16.9361 4.83532 17.2821 4.54394 17.7191 4.4711C17.8648 4.45289 18.0105 4.43468 18.138 4.4711C18.6297 4.58037 19.1032 4.70784 19.4674 5.12669C19.6495 5.34522 19.9226 5.4727 20.1594 5.6366C20.3051 5.74586 20.469 5.81871 20.56 5.96439C20.7239 6.21934 20.9607 6.36503 21.2338 6.4743C21.507 6.58356 21.7437 6.76567 21.9076 6.9842C22.2718 7.47589 22.7818 7.80369 23.2552 8.16791C23.9472 8.71423 24.6575 9.24235 25.3495 9.80689C25.9322 10.2804 26.4786 10.7903 27.0431 11.2638C27.4073 11.5733 27.7897 11.8829 28.1357 12.2107C28.3361 12.411 28.5182 12.6114 28.7549 12.757C28.9734 12.9027 29.1373 13.1577 29.3195 13.3762C29.4287 13.5037 29.538 13.613 29.7201 13.6858C29.8476 13.7404 29.9568 13.9043 30.0479 14.0318C30.1389 14.1775 30.1389 14.396 30.3939 14.396C30.4303 14.396 30.4485 14.4507 30.4667 14.4871C30.6124 14.7602 30.7217 15.0516 30.922 15.2884C31.2862 15.7072 31.3044 16.2171 31.3955 16.7088C31.5048 17.3098 31.3955 17.9107 31.4319 18.5117C31.4501 18.8759 31.3591 19.2765 31.523 19.6408C31.5412 19.6954 31.4865 19.8047 31.4683 19.8775C31.4501 19.9503 31.4501 20.005 31.4683 20.0778C31.4865 20.2417 31.5412 20.4238 31.523 20.5877C31.4865 21.1705 31.3773 21.7532 31.3773 22.336C31.3955 22.9733 31.2498 23.5925 31.1952 24.2299C31.1588 24.5941 31.268 24.9765 31.2498 25.3408C31.177 26.6702 31.0859 27.9995 31.0131 29.3289C30.9949 29.6385 30.9766 29.9663 30.9584 30.2759C30.922 30.7858 30.7581 31.2047 30.23 31.405C30.0479 31.4778 29.8476 31.5689 29.6837 31.6599C29.4834 31.7692 29.283 31.8056 29.0645 31.7328C28.937 31.6964 28.8278 31.7328 28.7003 31.751C28.3179 31.842 27.9172 31.8602 27.5166 31.8785C27.2252 31.8967 26.9156 31.8785 26.606 31.8967C26.3693 31.9149 26.1326 31.9331 25.8776 31.9513C25.6044 31.9695 25.3313 31.8602 25.0581 31.9877C24.9488 32.0241 24.8032 31.9695 24.6757 31.9513C24.3843 31.9149 24.1111 31.8602 23.8198 31.842C23.3645 31.8056 22.9457 31.6417 22.545 31.4596C22.5086 31.4414 22.4722 31.405 22.454 31.3686C22.2718 31.0225 22.0351 30.6765 21.9258 30.2941C21.7984 29.9299 21.7619 29.5475 21.7802 29.1468C21.7984 28.5641 21.7073 27.9631 21.7437 27.3804C21.7802 26.5245 21.7073 25.7232 21.9076 24.9219ZM7.81241 30.1666C8.08558 30.1848 8.32232 30.1666 8.55906 30.2031C9.26928 30.3123 9.99772 30.2759 10.7262 30.2759C10.799 30.2759 10.8901 30.2941 10.9447 30.2759C11.3453 30.112 11.7278 30.2395 12.092 30.3123C12.6565 30.4216 13.2028 30.4034 13.7674 30.2941C14.0223 30.2577 14.168 30.112 14.2044 29.8753C14.3319 29.074 14.6233 28.2727 14.3683 27.435C14.3319 27.344 14.3501 27.2347 14.3319 27.1254C14.3137 26.2695 14.2955 25.4136 14.2773 24.5577C14.2773 24.1388 14.5504 23.5925 14.86 23.5197C15.2607 23.4286 15.6613 23.3376 16.0619 23.3011C16.8996 23.2465 17.7373 23.2101 18.575 23.1919C19.3399 23.1737 20.1048 23.1737 20.8696 23.1737C21.6527 23.1737 22.2354 23.6471 22.8364 24.0478C22.9092 24.1024 22.9639 24.2117 23.0003 24.3027C23.0731 24.5941 23.1824 24.8855 23.2006 25.1951C23.2552 25.6321 23.2734 26.0692 23.2552 26.488C23.237 27.1618 23.2006 27.8174 23.1278 28.473C23.0913 28.9283 23.0003 29.3836 22.9457 29.8388C22.9092 30.0574 22.9274 30.2941 22.9092 30.5491C23.3463 30.5491 23.7105 30.5491 24.0929 30.5491C24.5846 30.5309 25.0763 30.4944 25.568 30.3852C26.1143 30.2577 26.6971 30.3305 27.2616 30.3305C27.9901 30.3305 28.7003 30.3487 29.4287 30.3487C29.6108 30.3487 29.7929 30.2941 29.975 30.2759C29.9933 30.2031 30.0115 30.1484 30.0115 30.112C30.0115 29.4018 29.9204 28.6916 30.1754 27.9995C30.1936 27.9813 30.1754 27.9449 30.1754 27.9085C30.1754 26.9433 30.1936 25.9781 30.1936 25.013C30.1936 23.8839 30.1389 22.7548 30.0297 21.644C29.9933 21.2433 29.9022 20.8427 29.9386 20.4602C29.975 20.1507 29.9568 19.8593 29.884 19.5679C29.8658 19.4586 29.8476 19.3312 29.8476 19.2219C29.8658 18.7848 29.884 18.3478 29.9933 17.9107C30.1207 17.4372 30.0843 16.9455 30.0661 16.4539C30.0479 16.0532 29.8658 15.8529 29.5926 15.6162C28.937 15.0698 28.2086 14.6328 27.6258 13.9772C27.4255 13.7586 27.1706 13.5947 26.952 13.3944C26.8064 13.267 26.6789 13.1031 26.5332 12.9938C26.3329 12.8299 26.0779 12.7388 25.9322 12.5385C25.6409 12.1379 25.2402 11.9011 24.876 11.6098C24.6028 11.373 24.3115 11.1545 24.0747 10.8995C23.6741 10.4443 23.2734 9.98899 22.7635 9.6612C22.5268 9.51551 22.2718 9.36982 22.1262 9.15129C21.8348 8.67781 21.4706 8.31359 20.9971 8.04043C20.906 7.9858 20.7786 7.91296 20.7421 7.80369C20.6329 7.54874 20.3961 7.43947 20.214 7.25736C20.0865 7.12989 19.9955 7.00241 19.8862 6.85673C19.7587 6.69283 19.6859 6.45609 19.522 6.34682C19.2306 6.12829 18.9939 5.87334 18.83 5.54554C18.8118 5.50912 18.7571 5.50912 18.7207 5.49091C18.575 5.60018 18.4294 5.67302 18.3019 5.80049C18.138 5.94618 17.9923 6.09187 17.8466 6.23756C17.5188 6.56535 17.191 6.91136 16.845 7.22094C16.5354 7.47589 16.1894 7.69442 15.8616 7.93117C15.3881 8.25896 14.8964 8.56855 14.5869 9.07845C14.4958 9.20593 14.3319 9.29698 14.2044 9.40625C13.8948 9.67941 13.5306 9.91615 13.2757 10.2439C12.9479 10.6628 12.5472 10.9906 12.1648 11.3548C12.0009 11.5005 11.8552 11.7008 11.6549 11.8283C11.2361 12.065 10.8901 12.3746 10.6351 12.7753C10.544 12.9209 10.3984 13.0484 10.2709 13.1395C9.83382 13.4491 9.39676 13.7404 9.06896 14.1775C8.99612 14.2685 8.90507 14.3414 8.81401 14.4142C8.54085 14.651 8.17663 14.7785 7.92168 15.0698C7.73957 15.2884 7.46641 15.434 7.26609 15.5797C7.30251 15.8893 7.33893 16.1261 7.35714 16.3628C7.37535 16.5085 7.35714 16.6724 7.37535 16.8181C7.4482 17.2005 7.59388 17.5647 7.64852 17.9471C7.75778 18.6027 7.83062 19.2583 7.90347 19.9139C7.92168 20.1507 7.86705 20.3874 7.84884 20.6424C7.84884 20.7698 7.7942 20.9155 7.84884 21.0248C8.04916 21.389 7.92168 21.7532 7.93989 22.1356C7.9581 22.7366 7.73957 23.3194 7.93989 23.9385C7.97631 24.0478 7.92168 24.1935 7.92168 24.3209C7.92168 24.4302 7.90347 24.5395 7.90347 24.6487C7.88526 24.8309 7.88526 25.013 7.86705 25.1951C7.83062 25.5047 7.72136 25.796 7.92168 26.1056C7.97631 26.1967 7.9581 26.3241 7.93989 26.4516C7.93989 26.7794 7.88526 27.1072 7.90347 27.435C7.92168 27.8903 7.99452 28.3456 8.03094 28.8008C8.04916 28.9283 8.03094 29.0558 8.01273 29.1833C7.92168 29.511 7.86705 29.8206 7.81241 30.1666Z" fill="#EB611B"/>
</svg>
