<svg width="194" height="72" viewBox="0 0 194 72" fill="none" xmlns="http://www.w3.org/2000/svg">
<g clip-path="url(#clip0)">
<path d="M3.90783 34.6149C3.20511 34.3256 2.54373 34.0363 1.88235 33.747C1.42764 33.5816 1.05562 33.3337 0.931608 32.8377C0.890271 32.6311 0.766262 32.3831 0.600917 32.2178C-0.101802 31.5979 0.0635433 30.8539 0.270225 30.11C0.55958 28.9115 0.807599 27.6716 1.55165 26.6384C2.25437 25.6878 2.95709 24.6546 3.94917 23.9933C4.48654 23.6627 5.14792 23.5387 5.76797 23.3321C6.88405 23.0014 8.00013 22.6708 9.15755 22.4228C9.90161 22.2575 10.6457 22.1749 11.3897 22.0509C11.7617 22.0095 12.1751 22.0095 12.5471 21.9269C13.5805 21.8029 14.614 21.6789 15.6474 21.4723C16.7221 21.307 17.7555 21.059 18.8303 20.811C19.3263 20.687 19.8637 20.563 20.3597 20.439C20.4837 20.3977 20.6077 20.3151 20.7317 20.3151C21.8892 20.5217 22.9226 19.9844 24.0387 19.8191C25.5681 19.6125 27.0562 19.3232 28.5857 19.1165C30.1978 18.9099 31.8512 18.7032 33.4634 18.4966C35.6955 18.2073 37.969 17.918 40.2012 17.7113C41.6893 17.546 43.1774 17.2567 44.4588 16.5128C45.7403 15.8102 47.1044 15.8102 48.4271 15.4796C49.4605 15.2316 50.494 15.2316 51.5687 15.0663C52.5194 14.9423 53.4288 14.6943 54.3796 14.8183C54.9996 14.901 55.661 14.653 56.281 14.5703C56.8598 14.4877 57.4385 14.405 58.0172 14.405C58.5546 14.405 59.0093 14.1984 59.464 13.9091C60.4974 13.2891 61.6134 12.9585 62.8535 13.3718C63.0189 13.4131 63.1842 13.4958 63.3496 13.4958C64.5897 13.5784 65.8298 13.6198 67.0699 13.7024C67.7726 13.7438 68.5166 13.8264 69.2193 13.8677C69.7154 13.9091 70.2114 13.9091 70.7075 13.9091C71.0795 13.9504 71.4929 13.9917 71.8649 14.0331C72.6503 14.0744 73.3943 14.281 74.2211 14.1984C74.8824 14.1157 75.6265 14.4877 76.3292 14.5703C77.0733 14.6943 77.8173 14.777 78.5614 14.8596C79.5535 14.9836 80.5455 15.0663 81.6616 15.1903C81.7029 14.777 81.7443 14.3637 81.7443 13.9504C81.7029 13.1238 81.5789 12.3386 81.6203 11.512C81.6203 10.7681 81.8683 10.1068 82.4883 9.61087C82.7777 9.40423 82.9844 9.03227 83.1911 8.70163C83.3151 8.53632 83.3977 8.24702 83.6044 8.16436C84.5965 7.70974 85.2579 6.63519 86.4153 6.46987C86.4566 6.46987 86.4566 6.42854 86.498 6.42854C88.1928 5.31266 90.1769 4.81672 92.0784 4.23811C93.0291 3.94881 93.9385 3.61818 94.8893 3.32888C95.9227 3.03957 96.9561 2.83293 97.9895 2.58495C98.9816 2.33698 99.9323 2.08901 100.924 1.88236C103.157 1.5104 105.389 1.17977 107.704 1.09711C108.406 1.09711 109.15 0.931798 109.853 0.890469C111.465 0.807811 113.077 0.766483 114.689 0.683825C115.309 0.642496 115.929 0.559838 116.55 0.559838C119.98 0.435851 123.411 0.394522 126.801 0.766483C127.297 0.807811 127.793 0.766483 128.289 0.766483C128.496 0.766483 128.702 0.683825 128.868 0.766483C130.604 1.26243 132.381 0.931798 134.118 1.26243C135.564 1.55173 137.052 1.75838 138.499 2.00635C138.913 2.08901 139.367 2.08901 139.781 2.13034C140.359 2.17167 141.021 2.13034 141.558 2.33698C142.302 2.66761 143.005 2.54363 143.749 2.5023C144.452 2.46097 145.196 2.46097 145.898 2.54363C148.007 2.75027 150.115 2.99824 152.223 3.20489C155.282 3.53552 158.093 4.52741 160.779 5.97393C162.516 6.92449 164.086 8.12303 165.781 9.0736C166.484 9.48688 166.649 10.2721 166.897 10.9747C167.228 12.0079 167.683 13.0412 167.848 14.0744C168.055 15.6449 168.261 17.2154 167.228 18.6619C167.021 18.9099 166.98 19.2818 166.773 19.5298C165.905 20.935 164.913 22.2989 163.838 23.58C163.59 23.8693 163.466 24.324 163.384 24.7373C163.012 26.2251 162.97 27.7543 162.516 29.2421C161.854 31.4739 161.441 33.7883 160.903 36.0614C160.366 38.4171 159.705 40.7729 159.25 43.1286C158.754 45.939 157.886 48.708 157.638 51.5597C157.597 52.221 157.307 52.8822 157.183 53.5848C156.977 54.866 156.77 56.1059 156.646 57.3871C156.605 57.883 156.687 58.4203 156.605 58.9163C156.48 59.7015 156.026 60.2388 155.406 60.4454C154.331 60.7761 153.628 61.6026 152.843 62.2639C151.685 63.2145 150.652 64.3304 149.619 65.4049C148.709 66.3142 147.593 66.8514 146.477 67.43C145.568 67.8846 144.658 68.3806 143.708 68.6699C142.261 69.1245 140.773 69.4551 139.326 69.7858C138.168 70.0751 137.011 70.2817 135.854 70.5297C135.523 70.6124 135.234 70.819 134.903 70.5297C134.862 70.4884 134.738 70.4884 134.696 70.4884C133.993 71.067 133.125 70.7777 132.381 70.9843C130.769 71.4803 129.074 71.7282 127.338 71.2323C127.132 71.1496 126.884 71.2323 126.677 71.2323C125.768 71.2736 124.858 71.3563 123.949 71.4389C123.866 71.4389 123.825 71.4389 123.742 71.4389C122.915 71.0256 122.006 71.1083 121.138 71.0256C120.228 70.943 119.319 70.8603 118.41 70.695C117.459 70.5297 116.467 70.9017 115.557 70.5297C114.524 70.0751 113.367 70.0751 112.333 69.5378C112.251 69.4965 112.127 69.5378 112.044 69.5378C110.762 69.2898 109.398 69.1658 108.158 68.7939C106.587 68.2979 105.099 67.6367 103.57 67.0167C102.619 66.6448 101.71 66.2728 100.759 65.8595C100.263 65.6529 99.6843 65.4876 99.3122 65.1156C98.4855 64.413 97.5348 63.9997 96.5427 63.6278C95.7987 63.3385 95.1786 62.8012 94.5172 62.3879C93.0291 61.4373 92.3677 59.9495 91.665 58.503C91.417 58.007 91.2103 57.9244 90.7556 58.1724C90.0529 58.5443 89.3088 58.8749 88.5648 59.1642C85.8779 60.1975 83.1911 61.1894 80.5042 62.1813C80.3388 62.2226 80.1735 62.3466 80.0495 62.3466C78.3134 62.2226 76.7839 63.2145 75.0891 63.2971C73.3943 63.3798 71.8235 63.8757 70.2528 64.4957C68.8473 65.0743 67.3592 65.6116 65.9124 66.0662C64.2176 66.5621 62.5228 66.9754 60.8281 67.43C60.3734 67.554 59.96 67.8433 59.5466 67.8846C58.6372 67.926 58.0585 68.5459 57.3145 68.8765C56.5291 69.2072 55.7437 69.4965 54.917 69.7444C54.0902 70.0337 53.1395 70.1164 52.3954 70.5297C51.1967 71.1496 49.9152 70.9843 48.7165 71.191C48.3445 71.2736 47.9724 71.3563 47.5591 71.4389C47.063 71.5216 46.6083 71.6042 46.1123 71.6456C45.3682 71.6869 44.6242 71.6042 43.8801 71.6456C43.3428 71.6456 42.8054 71.6869 42.2267 71.5629C41.1519 71.3149 40.0358 71.3149 38.9198 71.1496C37.5557 70.9843 36.1916 70.819 34.8275 70.6124C34.6621 70.571 34.4968 70.4884 34.3314 70.4884C32.926 70.5297 31.6859 69.8271 30.3631 69.4965C29.9084 69.3725 29.4124 69.2898 28.9577 69.1658C28.5857 69.0832 28.1723 69.0419 27.8416 68.8352C26.5188 68.0913 25.0721 67.678 23.5426 67.43C23.3359 67.3887 23.1293 67.2647 22.9226 67.182C22.4265 66.9754 21.9718 66.6448 21.4758 66.5621C19.6983 66.2315 18.0449 65.4462 16.3501 64.9503C15.234 64.6197 14.3246 63.9584 13.2085 63.5451C12.6298 63.3385 12.2164 62.7185 11.7617 62.2639C11.0177 61.4787 10.2736 60.6934 9.57092 59.8668C8.78552 58.9576 8.24815 57.8417 7.83479 56.7258C7.38009 55.4446 6.96672 54.1221 6.5947 52.7996C6.34668 52.0143 6.13999 51.2291 6.09866 50.4025C6.01599 49.4106 5.76797 48.4187 5.60262 47.4268C5.3546 46.1456 5.14792 44.8644 4.94124 43.5419C4.69322 42.1367 4.48654 40.6902 4.23852 39.285C4.27986 39.285 4.23852 39.1197 4.23852 38.9544C4.15585 37.8799 4.07317 36.8053 3.94917 35.7308C3.94917 35.4001 3.90783 35.0282 3.90783 34.6149ZM88.6475 26.1838C88.6061 26.2251 88.5235 26.3078 88.4821 26.3491C88.6475 26.721 88.7715 27.1343 88.9368 27.5063C89.2675 28.4569 89.5982 29.3661 89.8876 30.3167C90.0942 31.0192 90.2596 31.7218 90.4249 32.4244C90.5903 33.251 90.9623 34.0363 90.921 34.9042C90.8796 35.2761 90.797 35.6481 90.921 35.9374C91.417 37.5906 91.2516 39.3677 91.7477 41.0209C92.037 42.0954 92.2437 43.2113 92.4917 44.3272C92.5331 44.4925 92.5744 44.6578 92.5331 44.8231C92.4091 45.6084 92.6984 46.3523 92.8638 47.0962C93.1531 48.5014 93.4011 49.8652 93.6492 51.2704C93.7732 52.0557 93.7732 52.9649 94.0625 53.6675C94.3932 54.4114 94.5999 55.1553 94.5999 55.9406C94.5999 56.5605 94.9719 57.0565 95.3853 57.3044C95.9227 57.6351 96.2947 58.131 96.8321 58.4617C97.5348 58.8749 98.0722 59.6189 98.9402 59.8255C99.891 60.0322 100.8 60.4454 101.71 60.7761C101.916 60.8587 102.164 60.9414 102.288 61.1067C102.826 61.7266 103.57 61.9746 104.314 62.2639C105.017 62.5119 105.678 62.8838 106.381 63.1731C106.629 63.2971 106.877 63.4625 107.166 63.5038C108.117 63.7518 109.109 63.8757 109.977 64.3717C110.39 64.5783 110.886 64.7436 111.341 64.8676C112.292 65.0743 113.325 65.0743 114.235 65.4049C115.392 65.8182 116.55 65.9422 117.79 65.9422C117.996 65.9422 118.162 65.9835 118.368 66.0248C118.864 66.1488 119.36 66.3141 119.898 66.3555C121.262 66.5621 122.626 66.7274 123.949 66.9341C125.148 67.1407 126.305 67.2647 127.504 67.1407C128 67.0994 128.454 67.0994 128.95 67.1407C129.695 67.2234 130.439 67.2647 131.141 67.0581C131.431 66.9754 131.761 66.8514 132.009 66.8927C132.712 67.0994 133.373 66.7274 134.035 66.6448C134.324 66.6034 134.614 66.5621 134.903 66.5621C135.73 66.4795 136.598 66.3968 137.424 66.2315C138.499 66.0248 139.574 65.6529 140.649 65.4876C142.219 65.2396 143.666 64.7023 145.154 64.2064C146.27 63.8344 147.469 63.5864 148.337 62.6772C148.544 62.4706 148.833 62.3879 149.123 62.2639C149.949 61.9333 150.735 61.5613 151.603 61.272C152.595 60.9414 153.256 60.2801 154 59.6602C153.587 58.9576 153.752 58.255 153.918 57.5937C154.083 56.8912 154.331 56.2299 154.496 55.5273C154.992 53.5848 155.488 51.6424 155.902 49.6586C156.274 47.8814 157.059 46.2696 157.307 44.4512C157.514 43.0873 158.093 41.8061 158.258 40.4422C158.465 38.8304 158.754 37.2599 159.291 35.7308C159.415 35.4001 159.415 35.0282 159.457 34.6562C159.663 33.4163 159.911 32.2178 160.159 30.9779C160.242 30.5646 160.49 30.1927 160.573 29.7794C160.697 29.1595 160.779 28.5395 160.862 27.9609C160.945 27.341 161.027 26.721 161.11 26.1424C160.573 25.9771 160.242 25.9771 159.911 26.3904C159.663 26.721 159.25 26.9277 158.878 27.1343C156.811 28.3329 154.455 28.7462 152.223 29.4901C151.809 29.6141 151.313 29.7381 150.9 29.6967C149.784 29.5727 148.709 29.862 147.593 29.986C146.188 30.1927 144.782 30.5233 143.336 30.6886C141.517 30.9366 139.698 31.1846 137.838 31.3912C136.68 31.5152 135.564 31.6392 134.407 31.6805C133.456 31.7218 132.423 31.4325 131.555 31.6805C130.563 31.9698 129.612 31.9698 128.661 31.9698C128 31.9698 127.338 31.8872 126.677 32.0111C124.527 32.3418 122.378 32.0938 120.228 32.0938C118.162 32.0938 116.095 31.9285 114.028 31.8045C113.16 31.7632 112.333 31.6805 111.465 31.5979C110.432 31.4739 109.398 31.3086 108.324 31.2259C106.877 31.1019 105.43 31.1019 104.025 30.9366C102.288 30.7299 100.552 30.4406 98.8575 30.1927C98.1548 30.0687 97.4108 29.9447 96.7494 29.6967C95.1373 29.1181 93.5665 28.5395 91.9957 27.8369C91.045 27.4236 90.0116 27.1343 89.3088 26.3078C89.0608 26.2664 88.8128 26.2664 88.6475 26.1838ZM12.5471 59.4949C13.8286 59.2469 14.8206 59.7429 15.7714 60.3215C16.8875 61.024 18.0449 61.6853 19.3263 62.0986C20.0704 62.3052 20.8144 62.6359 21.5585 62.8012C22.4679 62.9665 23.2533 63.2558 23.9146 63.8757C24.1213 64.0824 24.452 64.2064 24.7827 64.289C25.6921 64.537 26.6842 64.661 27.5523 65.0743C28.379 65.4462 29.2057 65.8595 30.1151 66.0662C31.3139 66.3555 32.5126 66.7688 33.7114 67.0167C35.1582 67.3474 36.7289 67.1407 38.1757 67.6367C38.2997 67.678 38.4651 67.678 38.5477 67.5953C38.9611 67.306 39.4158 67.43 39.8705 67.43C40.6559 67.43 41.4413 67.554 42.2267 67.554C43.8388 67.554 45.4509 67.554 47.063 67.5127C47.2284 67.5127 47.3937 67.4714 47.5591 67.43C48.7992 67.2234 50.0393 67.3887 51.238 66.8927C51.3207 66.8514 51.4447 66.8927 51.5274 66.8927C51.9407 66.8101 52.3541 66.7688 52.7675 66.6861C53.3048 66.5621 53.8422 66.3968 54.3796 66.2728C55.041 66.1075 55.785 66.1075 56.3637 65.7355C57.0251 65.3222 57.7278 65.2396 58.4719 65.0329C58.8026 64.9503 59.1746 64.909 59.5053 64.785C59.7533 64.7023 60.0427 64.6197 60.208 64.4543C60.4974 64.165 60.7867 64.0824 61.1587 64.0824C61.8615 64.0411 62.5229 64.0411 63.1842 63.8757C64.135 63.6278 65.003 63.2145 65.9538 62.8838C66.9872 62.5119 68.0206 62.2639 69.0127 61.8506C70.2941 61.3133 71.4515 60.4454 72.8569 60.2388C73.1876 60.1975 73.5183 60.1975 73.7663 60.0735C75.0064 59.4122 76.4119 59.3709 77.6933 59.0403C79.2641 58.627 80.9175 58.503 82.447 57.883C82.8604 57.7177 83.3151 57.6764 83.7698 57.5937C84.2658 57.4698 84.7618 57.4284 85.2165 57.2631C85.8366 57.0151 86.374 56.6845 86.994 56.3952C88.1514 55.8579 89.3088 55.362 90.4663 54.866C90.797 54.7007 90.8796 54.4941 90.7556 54.1634C90.6316 53.8328 90.5489 53.5022 90.4663 53.1302C90.3009 52.1383 90.1769 51.1464 89.9289 50.1545C89.5155 48.2947 89.0608 46.4763 88.6475 44.6165C88.4821 43.8725 88.3168 43.1286 88.1101 42.426C87.9034 41.7234 88.0274 40.8555 87.4074 40.2769C87.3247 40.2356 87.3247 40.1116 87.3247 39.9876C87.2007 39.0784 87.0353 38.1692 86.7046 37.3012C86.498 36.764 86.622 36.1027 86.3326 35.6481C85.9606 35.1108 85.9193 34.5735 85.7539 33.9949C85.7126 33.7883 85.5886 33.5816 85.5059 33.4163C84.1831 33.7883 82.943 34.2016 81.6616 34.4495C80.6282 34.6562 79.8015 35.2761 78.7267 35.4414C76.8666 35.7307 75.0891 36.392 73.2703 36.888C71.6169 37.3426 69.9634 37.8799 68.2273 38.0452C67.9379 38.0865 67.6486 38.2518 67.3592 38.3758C67.1112 38.4585 66.9045 38.6238 66.6565 38.6651C65.9124 38.8304 65.1684 38.8717 64.4657 39.0784C63.3496 39.409 62.2335 39.6157 61.1174 39.6157C60.7454 39.6157 60.332 39.6983 59.96 39.7397C58.7199 39.905 57.4798 40.1116 56.2397 40.2356C54.3796 40.4009 52.5194 40.5249 50.6593 40.6902C49.9979 40.7315 49.3365 40.8969 48.7165 40.8555C47.9724 40.7729 47.2284 40.7729 46.4843 40.8555C45.4509 40.9382 44.3762 41.0622 43.3428 40.8969C42.5987 40.7729 41.896 40.8555 41.1933 40.8555C40.9039 40.8555 40.6146 40.8555 40.3252 40.8142C39.3331 40.6489 38.2997 40.4836 37.3076 40.3183C36.3982 40.1943 35.4888 40.1116 34.5794 39.9463C32.2646 39.5743 29.9911 39.161 27.6763 38.7891C25.4028 38.4171 23.1293 38.1278 20.8971 37.7972C20.3597 37.7145 19.8637 37.5079 19.3676 37.4252C17.1768 37.0946 15.0273 36.764 12.8365 36.4333C12.6298 36.392 12.4645 36.3507 12.2578 36.3094C10.563 35.9374 8.8682 35.5654 7.17341 35.1935C7.00806 35.1521 6.84271 35.1935 6.67737 35.2348C6.80138 35.9787 6.96672 36.6813 7.09073 37.3426C7.25608 38.3345 7.42142 39.3264 7.58677 40.3596C7.87612 42.1367 8.24815 43.8725 8.49617 45.6497C8.66152 46.7656 8.70285 47.9228 9.03354 49.0387C9.24023 49.6586 9.15755 50.3199 9.3229 50.9398C9.52958 52.0143 9.86027 53.0889 10.067 54.2048C10.315 56.2299 11.2244 57.9244 12.5471 59.4949ZM84.1418 12.8759C84.5965 13.6611 85.2579 14.3637 86.1673 14.7357C86.3326 14.777 86.4566 14.8596 86.5806 14.9423C88.3168 16.1408 90.2182 16.9261 92.2851 17.3394C92.6571 17.422 93.0291 17.5874 93.4011 17.7113C94.3105 18.0006 95.1786 18.3726 96.088 18.6206C97.6588 19.0339 99.2709 19.3232 100.883 19.6538C101.668 19.8191 102.495 19.9431 103.281 20.0671C103.818 20.1497 104.355 20.1084 104.893 20.1911C105.43 20.2737 105.967 20.3977 106.546 20.4804C107.704 20.6044 108.944 20.563 110.06 20.811C111.837 21.2656 113.78 20.7697 115.475 21.6789C115.516 21.6789 115.557 21.6789 115.557 21.6789C117.707 21.7616 119.815 21.8856 121.965 21.9269C123.37 21.9682 124.817 21.8442 126.181 22.0509C127.462 22.2162 128.702 21.9269 129.943 21.9682C130.728 22.0095 131.513 21.8029 132.299 21.7616C133.167 21.7616 134.076 21.9269 134.903 21.8442C136.722 21.6376 138.499 21.8856 140.318 21.5136C141.765 21.2243 143.253 21.2656 144.7 21.059C146.146 20.8523 147.635 20.6044 149.081 20.2737C150.487 19.9431 151.934 19.6951 153.339 19.1992C155.612 18.4139 157.845 17.6287 159.911 16.3475C160.283 16.1408 160.655 15.8929 161.027 15.7276C162.722 14.9836 164.128 13.8677 165.451 12.5866C165.368 12.3799 165.244 12.2146 165.244 12.0079C165.202 11.3054 164.913 10.8507 164.293 10.5201C163.632 10.1481 163.053 9.73486 162.433 9.32157C162.02 9.03227 161.606 8.66031 161.152 8.41233C160.573 8.0817 159.994 7.7924 159.415 7.5031C159.209 7.42044 159.002 7.29645 158.795 7.25512C157.886 7.00715 156.977 6.8005 156.067 6.59386C155.447 6.42854 154.827 6.2219 154.166 6.05658C153.463 5.89127 152.76 5.80861 152.016 5.68462C149.991 5.31266 147.965 4.98203 145.898 4.56874C144.906 4.40343 143.956 3.90748 142.922 4.32077C142.798 4.3621 142.674 4.32077 142.55 4.32077C141.269 3.99014 139.987 3.90748 138.623 3.90748C137.135 3.90748 135.606 3.82482 134.118 3.49419C132.257 3.0809 130.315 3.3702 128.454 2.99824C127.338 2.7916 126.14 2.87426 125.023 2.83293C123.866 2.7916 122.667 2.75027 121.51 2.66761C121.138 2.66761 120.725 2.58495 120.352 2.58495C118.492 2.58495 116.632 2.70894 114.813 2.62628C112.54 2.54363 110.308 2.75027 108.076 3.28755C107.745 3.3702 107.414 3.3702 107.083 3.41153C106.463 3.49419 105.843 3.57685 105.223 3.70084C104.025 3.99014 102.785 4.32077 101.586 4.6514C100.47 4.9407 99.3949 5.27133 98.2788 5.64329C97.1214 6.01525 96.0053 6.55253 94.8479 6.84183C93.9799 7.08981 93.1531 7.25512 92.3677 7.66841C92.1197 7.7924 91.7064 7.70974 91.4583 7.83373C90.3422 8.41233 89.2262 9.03227 88.1101 9.6522C87.9861 9.73486 87.8207 9.77619 87.6554 9.81752C87.0767 9.90017 86.746 10.2721 86.374 10.6441C85.7126 11.4293 84.9272 12.0906 84.1418 12.8759ZM81.3723 18.9512C79.8428 18.8686 78.396 18.8272 76.9492 18.7446C76.5772 18.7446 76.2465 18.6619 75.8745 18.6206C74.8824 18.4966 73.9317 18.2486 72.9396 18.2073C71.9062 18.166 70.8728 18.2899 69.9221 17.8353C69.7981 17.794 69.674 17.794 69.55 17.794C66.9458 17.67 64.383 17.3394 61.8615 16.8848C61.3654 16.8021 60.9107 16.5955 60.456 16.4715C60.208 16.3888 59.9187 16.3062 59.6706 16.3475C59.0506 16.4715 58.4719 16.6781 57.8932 16.8434C56.6531 17.2154 55.4543 17.7527 54.0902 17.8767C52.7261 18.0006 51.362 18.3313 49.9979 18.5792C49.7086 18.6206 49.4192 18.7446 49.1299 18.8272C48.6338 18.9512 48.0964 19.1579 47.6004 19.1579C46.443 19.1992 45.2442 19.5711 44.0868 19.1579C43.9215 19.1165 43.7561 19.1165 43.5908 19.1579C42.516 19.3232 41.4413 19.4885 40.3665 19.6951C38.9611 19.9844 37.5557 20.3564 36.1502 20.687C34.7034 21.0177 33.2153 21.2656 31.7686 21.7616C30.8592 22.0922 29.8671 22.1335 28.875 22.3402C28.2963 22.4642 27.7176 22.6295 27.1389 22.7121C25.3201 23.0014 23.5013 23.2907 21.7238 23.5387C21.5585 23.58 21.3931 23.6214 21.2691 23.6627C20.8558 23.7454 20.4424 23.8693 20.029 23.9107C19.781 23.952 19.4917 23.8693 19.2436 23.952C17.9209 24.2 16.5981 24.4893 15.3167 24.7373C13.9939 24.9852 12.6711 25.2332 11.3484 25.4398C10.3976 25.6052 9.44691 25.6878 8.45483 25.8118C7.66944 25.8945 6.88405 25.9358 6.14 26.0185C5.56129 26.1011 4.8999 25.9771 4.27986 26.5144C4.69322 26.5557 4.94124 26.5144 5.18926 26.5971C6.84271 27.0103 8.49617 27.4236 10.1496 27.7543C11.3484 28.0022 12.5058 28.5808 13.7459 28.4982C13.8286 28.4982 13.8699 28.4982 13.9526 28.5395C15.3167 28.9115 16.6808 29.2421 18.0449 29.6967C19.533 30.1927 21.1038 30.3993 22.6332 30.6886C24.0387 30.9779 25.4854 31.1432 26.9322 31.4325C29.123 31.8872 31.3139 32.3418 33.546 32.4244C33.8354 32.4244 34.1247 32.5071 34.4141 32.5484C35.4062 32.7137 36.3982 32.9204 37.3903 33.0444C38.2584 33.1684 39.1264 33.2923 39.9945 33.4163C40.0772 33.4163 40.1599 33.499 40.2839 33.499C40.6972 33.5816 41.1106 33.747 41.524 33.7883C43.1361 33.8709 44.7482 33.9949 46.3603 33.9949C47.4351 33.9949 48.5098 33.9949 49.5846 33.8296C51.7754 33.5403 54.0075 33.127 56.1984 32.7964C56.9838 32.6724 57.7692 32.6311 58.5546 32.5484C59.836 32.3831 61.0761 32.1765 62.3575 32.0111C62.4815 32.0111 62.6055 31.9285 62.7295 31.8872C63.6389 31.3912 64.6723 31.3912 65.6644 31.1019C67.7312 30.5646 69.8394 30.234 71.9062 29.6967C73.8904 29.2008 75.8332 28.5808 77.776 28.0022C79.1814 27.589 80.6282 27.1757 82.0336 26.7624C82.4883 26.6384 82.943 26.3491 83.3977 26.1838C83.8938 25.9771 84.3898 25.8945 84.8858 25.6465C85.5472 25.3159 85.5886 24.6133 84.9685 24.2C84.5552 23.9107 84.2245 23.6214 83.9351 23.1668C83.4391 22.4228 82.9017 21.6376 82.2403 21.0177C81.827 20.6457 81.6616 20.2737 81.6203 19.7778C81.5376 19.5298 81.4549 19.2818 81.3723 18.9512ZM83.3564 20.8937C83.8111 21.2243 84.2245 21.4309 84.4725 21.7202C85.4646 22.8361 86.87 23.1668 88.1101 23.828C89.4742 24.5719 90.9623 24.9852 92.2851 25.7291C93.4838 26.3904 94.7652 26.7624 96.0053 27.1757C97.7415 27.7543 99.5189 28.2502 101.338 28.5808C102.288 28.7462 103.198 28.9528 104.149 28.8701C104.355 28.8701 104.521 28.9115 104.727 28.9115C106.505 29.1181 108.241 29.3661 110.018 29.5727C110.06 29.5727 110.101 29.5727 110.101 29.5727C111.134 29.5727 112.209 29.5727 113.243 29.6141C114.359 29.6554 115.475 29.7794 116.591 29.7381C117.79 29.6967 118.947 29.8207 120.104 29.986C121.882 30.234 123.701 30.4406 125.478 30.5646C126.842 30.6473 128.248 30.606 129.612 30.5646C129.984 30.5646 130.356 30.3993 130.769 30.3167C131.1 30.234 131.472 30.1513 131.803 30.1513C133.415 30.0274 135.068 30.0687 136.68 29.7794C139.45 29.2421 142.219 28.7462 144.989 28.1676C146.353 27.8783 147.593 27.0517 148.999 26.8864C149.495 26.845 149.949 26.6384 150.404 26.5144C150.735 26.4317 151.107 26.3491 151.437 26.2251C152.678 25.6878 153.835 24.9852 155.116 24.448C155.943 24.1173 156.935 23.828 157.39 22.8775C157.431 22.7948 157.514 22.7121 157.597 22.6708C158.589 22.2989 159.581 21.8856 160.655 21.6376C162.02 21.307 163.218 20.7697 164.128 19.7365C164.789 18.9512 165.451 18.166 166.071 17.3807C166.236 17.1327 166.319 16.7608 166.36 16.4715C166.401 15.9342 166.36 15.3556 166.319 14.8183C166.319 14.6117 166.236 14.405 166.195 14.281C164.954 15.1076 163.797 15.9342 162.557 16.6781C161.978 17.0501 161.317 17.2981 160.697 17.546C158.919 18.2899 157.225 19.2818 155.323 19.6538C155.199 19.6951 155.075 19.7778 154.951 19.8191C154.083 20.1497 153.256 20.5217 152.388 20.811C151.933 20.9763 151.437 20.9763 150.941 21.1003C149.577 21.3896 148.255 21.7202 146.932 22.0509C145.113 22.5055 143.212 22.3815 141.393 22.7948C139.822 23.1668 138.127 23.2081 136.474 23.3321C134.944 23.4561 133.415 23.4561 131.844 23.4974C129.198 23.58 126.512 23.704 123.866 23.7867C121.551 23.8693 119.278 23.8693 116.963 23.9107C116.55 23.9107 116.177 23.952 115.764 23.9107C114.359 23.6627 112.912 23.4561 111.465 23.58C111.258 23.6214 111.01 23.5387 110.762 23.5387C108.53 23.3734 106.339 23.2494 104.107 23.0841C102.785 22.9601 101.42 23.1254 100.098 22.6708C99.8083 22.5468 99.4776 22.3815 99.1469 22.3815C98.1135 22.4228 97.1214 22.2162 96.1707 21.9682C95.7987 21.8442 95.4266 21.7202 95.0546 21.6376C94.0625 21.3896 93.0291 21.2656 92.1197 20.8523C91.1276 20.3977 90.0529 20.6457 89.1022 20.1084C88.0687 19.5298 86.994 19.0339 85.9606 18.4966C85.9193 18.4966 85.9193 18.4553 85.8779 18.4139C85.2992 17.7527 84.5552 17.2567 83.6871 16.9674C83.6871 18.2073 84.5138 19.6125 83.3564 20.8937ZM85.1752 26.5557C83.3564 27.217 81.6616 27.8783 79.8841 28.4569C77.8587 29.1181 75.8745 30.0274 73.725 30.3993C73.601 30.4406 73.477 30.5233 73.353 30.5646C72.7743 30.7713 72.2369 30.9779 71.6582 31.1019C70.7901 31.3499 69.9221 31.4739 69.0953 31.7218C68.4753 31.8872 67.8552 32.1765 67.2352 32.3418C66.3258 32.5484 65.3751 32.6724 64.4243 32.8791C63.9283 33.003 63.4323 33.3337 62.9362 33.3337C61.1587 33.4163 59.5466 34.3256 57.7692 34.3256C56.5291 34.9455 55.165 34.8628 53.8422 35.1521C52.3954 35.4414 50.9487 35.6481 49.4605 35.6894C47.4351 35.7307 45.4096 35.5654 43.3428 35.4414C42.3093 35.3588 41.2759 35.4001 40.2012 35.1521C39.2505 34.9042 38.1757 35.0282 37.1836 34.9042C35.5302 34.7389 33.8767 34.5735 32.1819 34.4082C31.5205 34.3669 30.8592 34.3669 30.2391 34.2429C28.6683 33.9536 27.0976 33.5816 25.5268 33.2097C23.1706 32.6311 20.7731 32.1351 18.4582 31.4325C15.5234 30.5646 12.5885 29.5314 9.65359 28.5808C8.99221 28.3742 8.24815 28.0022 7.58677 28.0849C6.55336 28.2089 5.64396 27.9609 4.65188 27.8369C4.23852 27.7956 3.78382 27.7129 3.37046 27.6303C2.99843 27.5476 2.79175 27.7543 2.75041 28.0849C2.6264 28.7462 2.58506 29.4074 2.50239 30.0274C2.46105 30.4406 2.66774 30.7299 3.0811 30.8539C3.94917 31.1432 4.81723 31.5152 5.72663 31.7218C7.71078 32.1351 9.73626 32.3831 11.7204 32.8791C13.4979 33.3337 15.234 33.6643 17.0528 33.9123C17.8795 34.0363 18.7063 34.2842 19.533 34.4082C21.6825 34.7802 23.8733 35.1108 26.0228 35.4828C27.0149 35.6481 28.007 35.8961 28.999 36.1027C29.7844 36.268 30.6111 36.4747 31.3965 36.5987C32.7193 36.8053 34.0834 36.9293 35.4062 37.1359C36.2329 37.2599 37.0183 37.5079 37.845 37.5079C39.0024 37.5492 40.2012 37.4666 41.3586 37.4666C42.02 37.4666 42.7227 37.5492 43.3841 37.5079C44.3762 37.4666 45.4096 37.3012 46.4017 37.2599C47.0217 37.2599 47.6417 37.5492 48.2618 37.4252C50.5353 37.0119 52.8915 37.3426 55.0823 36.5573C55.2063 36.516 55.3303 36.5987 55.4543 36.5987C55.9917 36.5987 56.4877 36.64 57.0251 36.5573C58.5959 36.3094 60.1667 35.9374 61.7788 35.8134C62.7709 35.7308 63.6389 35.5241 64.5483 35.2761C64.9204 35.1935 65.2924 35.1521 65.7057 35.0695C66.4911 34.9042 67.2765 34.6975 68.0619 34.5322C68.93 34.3256 69.7981 34.1603 70.6248 33.9949C71.3688 33.8296 72.1956 33.8709 72.8156 33.5403C73.8077 33.0444 74.7998 32.7137 75.8332 32.4244C76.5359 32.2591 77.2386 32.1351 77.9413 32.0525C78.396 31.9698 78.8094 31.9698 79.2641 31.7218C80.2148 31.2259 81.2482 30.8953 82.323 30.6473C83.3977 30.3993 84.4311 30.0274 85.4646 29.7381C85.3819 28.6635 85.2992 27.6716 85.1752 26.5557Z" fill="#1E1F44"/>
<path d="M84.1417 12.8755C84.9685 12.0902 85.7125 11.429 86.4152 10.7264C86.7873 10.3544 87.1593 9.98245 87.6967 9.89979C87.862 9.85846 88.0273 9.81713 88.1514 9.73448C89.2674 9.11454 90.3835 8.49461 91.4996 7.916C91.7476 7.79202 92.161 7.87467 92.409 7.75069C93.1944 7.3374 94.0625 7.17208 94.8892 6.92411C96.0466 6.59348 97.1627 6.09753 98.3201 5.72557C99.3949 5.35361 100.511 5.06431 101.627 4.73368C102.826 4.40305 104.025 4.07241 105.265 3.78311C105.885 3.65912 106.505 3.57647 107.125 3.49381C107.455 3.45248 107.786 3.41115 108.117 3.36982C110.349 2.83255 112.581 2.6259 114.855 2.70856C116.715 2.79122 118.534 2.66723 120.394 2.66723C120.766 2.66723 121.179 2.70856 121.551 2.74989C122.709 2.79122 123.907 2.83255 125.065 2.9152C126.222 2.95653 127.38 2.87388 128.496 3.08052C130.397 3.45248 132.34 3.20451 134.159 3.57647C135.647 3.9071 137.176 3.98976 138.664 3.98976C139.987 3.98976 141.269 4.11374 142.591 4.40305C142.715 4.44437 142.881 4.44437 142.963 4.40305C143.997 3.98976 144.948 4.4857 145.94 4.65102C147.965 5.02298 149.991 5.39494 152.057 5.7669C152.76 5.89089 153.504 5.97354 154.207 6.13886C154.827 6.26285 155.447 6.51082 156.108 6.67614C157.018 6.92411 157.927 7.13075 158.837 7.3374C159.043 7.37873 159.25 7.50271 159.457 7.58537C160.035 7.87467 160.655 8.16398 161.193 8.49461C161.647 8.74258 162.02 9.11454 162.474 9.40384C163.094 9.81713 163.714 10.2718 164.334 10.6024C164.954 10.933 165.244 11.429 165.285 12.0902C165.285 12.2555 165.409 12.4622 165.492 12.6688C164.169 13.95 162.764 15.0659 161.069 15.8098C160.697 15.9751 160.325 16.2231 159.953 16.4298C157.886 17.711 155.654 18.4962 153.38 19.2815C151.975 19.7774 150.569 20.0254 149.123 20.356C147.676 20.6866 146.229 20.9346 144.741 21.1413C143.294 21.3479 141.806 21.3066 140.359 21.5959C138.54 21.9265 136.763 21.6785 134.944 21.9265C134.076 22.0505 133.208 21.8438 132.34 21.8438C131.555 21.8438 130.769 22.0918 129.984 22.0505C128.744 21.9678 127.504 22.2985 126.222 22.1332C124.817 21.9265 123.411 22.0505 122.006 22.0092C119.856 21.9265 117.748 21.8438 115.599 21.7612C115.557 21.7612 115.516 21.7612 115.516 21.7612C113.821 20.8933 111.878 21.3479 110.101 20.8933C108.985 20.604 107.745 20.6866 106.587 20.5627C106.05 20.5213 105.513 20.356 104.934 20.2734C104.397 20.1907 103.859 20.232 103.322 20.1494C102.536 20.0254 101.71 19.9014 100.924 19.7361C99.3122 19.4054 97.7001 19.1161 96.1293 18.7029C95.2199 18.4962 94.3518 18.0829 93.4424 17.7936C93.0704 17.6696 92.6984 17.5043 92.3263 17.4217C90.2595 17.0084 88.358 16.2231 86.6219 15.0246C86.4979 14.9419 86.3326 14.8593 86.2085 14.8179C85.2165 14.322 84.5964 13.6607 84.1417 12.8755ZM117.707 11.8836C117.211 11.9249 116.715 11.9249 116.26 11.9662C115.103 12.1729 113.945 12.4622 112.788 12.5862C111.01 12.7515 109.274 12.9168 107.579 13.4541C107.042 13.6194 106.753 13.9087 106.629 14.446C106.422 15.2312 106.298 15.9751 106.546 16.843C106.794 16.8844 107.125 17.0084 107.455 17.0084C109.316 17.1324 111.217 17.1737 113.077 17.2977C115.185 17.4217 117.252 17.6283 119.36 17.7523C122.047 17.8763 124.734 17.9176 127.462 18.0003C127.71 18.0003 128.041 18.0003 128.206 18.1656C128.992 18.9095 129.86 18.7855 130.769 18.5789C132.423 18.1242 134.035 17.6283 135.688 17.215C137.3 16.8017 138.954 16.5124 140.566 16.0165C141.434 15.7685 142.219 15.2312 143.005 14.7766C143.542 14.446 143.501 13.8674 142.963 13.6194C141.889 13.1648 140.814 12.5862 139.574 12.7102C139.284 12.7515 138.995 12.6688 138.706 12.6688C136.804 12.5035 134.903 12.2969 133.043 12.1316C131.761 12.0489 130.521 12.0076 129.24 11.9249C128.413 11.8836 127.586 11.8009 126.76 11.7596C125.271 11.6356 123.825 11.5116 122.337 11.429C121.138 11.3463 119.98 11.305 118.782 11.2636C117.996 11.1397 117.996 11.1397 117.707 11.8836Z" fill="#76B39D"/>
<path d="M81.3722 18.9508C81.4549 19.2815 81.4962 19.5708 81.5376 19.8187C81.5376 20.356 81.7443 20.6866 82.1576 21.0586C82.819 21.6785 83.3564 22.4638 83.8524 23.2077C84.1418 23.621 84.4725 23.9516 84.8858 24.2409C85.5059 24.6542 85.5059 25.3568 84.8032 25.6874C84.3485 25.9354 83.8111 26.0181 83.315 26.2247C82.8604 26.39 82.447 26.638 81.951 26.8033C80.5455 27.2579 79.1401 27.6299 77.6933 28.0432C75.7505 28.6218 73.8077 29.2417 71.8235 29.7377C69.7567 30.2336 67.6486 30.5643 65.5817 31.1429C64.5897 31.3908 63.5563 31.3908 62.6469 31.9281C62.5228 32.0108 62.3988 32.0521 62.2748 32.0521C60.9934 32.2587 59.7533 32.4241 58.4719 32.5894C57.6865 32.7134 56.9011 32.7134 56.1157 32.8373C53.9249 33.168 51.734 33.5813 49.5019 33.8706C48.4271 33.9946 47.3524 34.0359 46.2776 34.0359C44.6655 33.9946 43.0534 33.9119 41.4413 33.8292C41.0279 33.7879 40.6145 33.6639 40.2012 33.5399C40.1185 33.4986 40.0358 33.4573 39.9118 33.4573C39.0438 33.3333 38.1757 33.2093 37.3076 33.0853C36.3156 32.92 35.3235 32.7547 34.3314 32.5894C34.0421 32.548 33.7527 32.4654 33.4633 32.4654C31.2312 32.3827 29.0403 31.9281 26.8495 31.4735C25.4441 31.1842 23.9973 31.0189 22.5505 30.7296C21.0211 30.4403 19.4503 30.2336 17.9622 29.7377C16.6394 29.2831 15.234 28.9524 13.8699 28.5805C13.7872 28.5805 13.7459 28.5391 13.6632 28.5391C12.3818 28.6218 11.2657 28.0019 10.0669 27.7952C8.41349 27.4646 6.76003 27.0513 5.10658 26.638C4.85856 26.5967 4.61054 26.5967 4.19717 26.5554C4.81722 25.9767 5.4786 26.1007 6.05731 26.0594C6.8427 25.9767 7.6281 25.9354 8.37215 25.8528C9.32289 25.7288 10.315 25.6461 11.2657 25.4808C12.5885 25.2742 13.9112 25.0262 15.234 24.7782C16.5568 24.5302 17.8795 24.2409 19.161 23.993C19.409 23.9516 19.6983 23.993 19.9463 23.9516C20.3597 23.9103 20.7731 23.7863 21.1864 23.7037C21.3518 23.6623 21.5171 23.621 21.6411 23.5797C23.4599 23.2904 25.2787 23.0424 27.0562 22.7531C27.6349 22.6704 28.2136 22.4638 28.7923 22.3811C29.7431 22.1745 30.7351 22.0918 31.6859 21.8025C33.1327 21.3066 34.6208 21.0586 36.0675 20.728C37.473 20.3973 38.8784 20.0254 40.2839 19.7361C41.3586 19.5294 42.4333 19.3641 43.5081 19.1988C43.6734 19.1575 43.8388 19.1575 44.0041 19.1988C45.1615 19.6534 46.3603 19.2401 47.5177 19.1988C48.0138 19.1988 48.5511 18.9922 49.0472 18.8682C49.3365 18.7855 49.6259 18.7029 49.9152 18.6202C51.2793 18.3722 52.6021 18.0416 54.0075 17.9176C55.3303 17.7936 56.5291 17.2563 57.8105 16.8844C58.3892 16.7191 59.0092 16.5124 59.588 16.3884C59.836 16.3471 60.1253 16.4298 60.3733 16.5124C60.828 16.6364 61.2827 16.8431 61.7788 16.9257C64.3416 17.3803 66.9045 17.711 69.4674 17.835C69.5914 17.835 69.7567 17.835 69.8394 17.8763C70.7901 18.3309 71.8235 18.2069 72.8569 18.2482C73.849 18.2896 74.7998 18.5375 75.7918 18.6615C76.1639 18.7029 76.4945 18.7442 76.8666 18.7855C78.396 18.8268 79.8428 18.8682 81.3722 18.9508ZM76.7839 23.0424C76.4119 22.7944 76.2052 22.6291 75.9985 22.5464C75.7092 22.4638 75.4198 22.4638 75.1304 22.3811C73.1463 22.0092 71.2035 21.6372 69.2193 21.3066C68.1033 21.0999 66.9458 20.976 65.8298 20.8106C64.7137 20.6453 63.5563 20.3973 62.4402 20.232C61.0761 20.0254 59.712 19.8601 58.3479 19.5708C57.8518 19.4881 57.5625 19.5294 57.1904 19.8187C56.9011 20.0254 56.4877 20.2734 56.157 20.232C54.4622 20.108 52.8088 20.5627 51.1967 20.7693C48.9232 21.0586 46.7323 21.7199 44.4588 21.9265C42.9707 22.0918 41.4826 22.4225 39.9945 22.7118C39.2504 22.8358 38.5477 23.0837 37.8037 23.2077C37.1009 23.3317 36.3569 23.373 35.6542 23.497C33.8767 23.745 32.1406 24.1583 30.3218 24.1996C29.4951 24.2409 28.7097 24.2409 27.9243 24.5716C26.8495 25.0675 25.8574 26.3487 25.8988 27.5059C25.8988 28.1672 26.0641 28.3325 26.7255 28.3738C27.0562 28.3738 27.4282 28.3325 27.7176 28.4152C28.627 28.7045 29.6604 28.2498 30.4871 28.9111C30.5285 28.9524 30.6938 28.9111 30.7765 28.9111C31.6032 28.9111 32.4713 28.9111 33.298 28.9938C34.4141 29.0764 35.5302 29.2004 36.6049 29.3244C37.845 29.4484 39.0851 29.531 40.2839 29.7377C41.3999 29.9443 42.5574 29.7377 43.6321 30.0683C43.7974 30.1096 44.0041 29.9857 44.2108 29.9857C44.7895 29.9857 45.4096 29.8617 45.9469 30.0683C46.567 30.275 47.1044 30.275 47.6831 30.1096C48.1791 29.9857 48.7165 29.8617 49.2125 29.779C49.7912 29.6964 50.4113 29.655 50.9486 29.531C52.8501 29.0764 54.7516 28.5391 56.6944 28.0845C58.8439 27.5472 61.0347 27.0926 63.1842 26.5967C66.1604 25.9354 69.0953 25.0262 72.1129 24.4889C72.2782 24.4476 72.4436 24.4062 72.6089 24.3649C73.725 24.0756 74.7998 23.745 75.9158 23.4557C76.0398 23.373 76.2879 23.249 76.7839 23.0424Z" fill="#EB611B"/>
<path d="M83.3563 20.8933C84.5551 19.6121 83.7284 18.2069 83.7697 16.8844C84.6378 17.1737 85.3818 17.6283 85.9605 18.3309C86.0019 18.3722 86.0019 18.3722 86.0432 18.4136C87.0766 18.9508 88.1927 19.4468 89.1848 20.0254C90.1355 20.5627 91.2102 20.3147 92.2023 20.7693C93.1117 21.1826 94.1451 21.3066 95.1372 21.5545C95.5092 21.6372 95.8813 21.8025 96.2533 21.8852C97.2454 22.1745 98.2374 22.3398 99.2295 22.2985C99.5189 22.2985 99.8495 22.4638 100.18 22.5878C101.503 23.0424 102.867 22.9184 104.19 23.0011C106.422 23.1664 108.613 23.3317 110.845 23.4557C111.093 23.4557 111.3 23.5383 111.548 23.497C112.995 23.3317 114.441 23.5797 115.847 23.8276C116.219 23.9103 116.632 23.8276 117.045 23.8276C119.36 23.7863 121.634 23.745 123.949 23.7037C126.594 23.621 129.281 23.5383 131.927 23.4144C133.456 23.373 135.027 23.373 136.556 23.249C138.21 23.125 139.863 23.125 141.475 22.7118C143.294 22.2985 145.196 22.3811 147.014 21.9678C148.337 21.6372 149.701 21.3479 151.024 21.0173C151.52 20.8933 152.016 20.8933 152.471 20.728C153.339 20.4387 154.166 20.0667 155.034 19.7361C155.158 19.6947 155.282 19.6121 155.406 19.5708C157.348 19.1988 159.002 18.2069 160.779 17.463C161.399 17.215 162.061 16.9257 162.64 16.5951C163.838 15.8512 165.037 15.0246 166.277 14.198C166.318 14.322 166.401 14.5286 166.401 14.7353C166.442 15.2726 166.484 15.8512 166.442 16.3884C166.442 16.7191 166.36 17.091 166.153 17.2977C165.533 18.1243 164.872 18.9095 164.21 19.6534C163.301 20.6866 162.102 21.2239 160.738 21.5545C159.705 21.8025 158.713 22.2158 157.679 22.5878C157.596 22.6291 157.514 22.7118 157.472 22.7944C156.976 23.745 156.026 24.0343 155.199 24.3649C153.918 24.9022 152.801 25.6461 151.52 26.1421C151.189 26.266 150.859 26.3487 150.487 26.4314C150.032 26.5553 149.536 26.762 149.081 26.8033C147.634 26.9686 146.436 27.7952 145.072 28.0845C142.302 28.6631 139.532 29.1591 136.763 29.6963C135.151 29.9856 133.497 29.9443 131.885 30.0683C131.513 30.1096 131.183 30.1923 130.852 30.2336C130.48 30.3163 130.108 30.4403 129.694 30.4816C128.33 30.5229 126.925 30.5643 125.561 30.4816C123.742 30.3576 121.965 30.1096 120.187 29.903C119.03 29.7377 117.872 29.6137 116.673 29.655C115.557 29.6963 114.441 29.5724 113.325 29.531C112.292 29.4897 111.217 29.4897 110.184 29.4897C110.142 29.4897 110.101 29.4897 110.101 29.4897C108.324 29.2831 106.587 29.0351 104.81 28.8284C104.603 28.7871 104.397 28.7458 104.231 28.7871C103.28 28.8698 102.371 28.6631 101.42 28.4978C99.6015 28.1672 97.8241 27.6712 96.0879 27.0926C94.8478 26.6793 93.5664 26.3074 92.3677 25.6461C91.0449 24.9022 89.5155 24.4476 88.1927 23.745C86.9526 23.0837 85.5472 22.7531 84.5551 21.6372C84.1831 21.4306 83.811 21.2239 83.3563 20.8933Z" fill="#76B39D"/>
<path d="M85.1752 26.5553C85.2992 27.6712 85.3819 28.6631 85.5059 29.7377C84.4725 30.0683 83.3977 30.3989 82.3643 30.6469C81.2895 30.8949 80.2975 31.2255 79.3054 31.7215C78.8507 31.9281 78.4373 31.9694 77.9826 32.0521C77.2799 32.1347 76.5359 32.2587 75.8745 32.4241C74.8411 32.672 73.8077 33.044 72.8569 33.5399C72.2369 33.8706 71.4101 33.8292 70.6661 33.9945C69.798 34.1599 68.93 34.3665 68.1032 34.5318C67.3178 34.6971 66.5325 34.9038 65.7471 35.0691C65.375 35.1518 64.9617 35.1931 64.5896 35.2757C63.6802 35.5237 62.7708 35.7304 61.8201 35.813C60.2493 35.937 58.6785 36.309 57.0664 36.5569C56.5704 36.6396 56.033 36.5983 55.4956 36.5983C55.3716 36.5983 55.2063 36.5156 55.1236 36.5569C52.8914 37.3422 50.5353 36.9702 48.3031 37.4249C47.7244 37.5488 47.063 37.2595 46.443 37.2595C45.4509 37.3009 44.4175 37.4662 43.4254 37.5075C42.764 37.5488 42.0613 37.4662 41.3999 37.4662C40.2425 37.4662 39.0437 37.5488 37.8863 37.5075C37.0596 37.4662 36.2742 37.2182 35.4475 37.1355C34.1247 36.9289 32.7606 36.8049 31.4378 36.5983C30.6111 36.4743 29.8257 36.2676 29.0403 36.1023C28.0483 35.8957 27.0562 35.6477 26.0641 35.4824C23.9146 35.1104 21.7238 34.7798 19.5743 34.4078C18.7476 34.2839 17.9208 34.0359 17.0941 33.9119C15.3167 33.6639 13.5392 33.3333 11.7617 32.8787C9.77758 32.3827 7.75209 32.1347 5.76795 31.7215C4.85854 31.5148 4.03182 31.1429 3.12242 30.8535C2.75039 30.7296 2.50237 30.4816 2.54371 30.027C2.62638 29.3657 2.70905 28.7044 2.79172 28.0845C2.83306 27.7539 3.03974 27.5886 3.41177 27.6299C3.82513 27.7125 4.2385 27.7952 4.6932 27.8365C5.64394 27.9192 6.59467 28.2085 7.62808 28.0845C8.28947 28.0019 9.03352 28.3325 9.6949 28.5805C12.6298 29.531 15.5233 30.5642 18.4996 31.4322C20.8144 32.1347 23.2119 32.6307 25.5681 33.2093C27.1389 33.5813 28.7096 33.9532 30.2804 34.2425C30.9005 34.3665 31.5619 34.3252 32.2232 34.4078C33.8767 34.5732 35.5302 34.7385 37.2249 34.9038C38.217 34.9864 39.2918 34.9038 40.2425 35.1518C41.2759 35.3997 42.3093 35.3997 43.3841 35.4411C45.4095 35.565 47.435 35.7304 49.5019 35.689C50.9486 35.689 52.4367 35.4824 53.8835 35.1518C55.2063 34.8625 56.5704 34.9451 57.8105 34.3252C59.5879 34.3252 61.2001 33.4159 62.9775 33.3333C63.4736 33.292 63.9696 32.9613 64.4656 32.8787C65.375 32.672 66.3671 32.548 67.2765 32.3414C67.8966 32.1761 68.5166 31.9281 69.1366 31.7215C70.0047 31.4735 70.8728 31.3082 71.6995 31.1015C72.2782 30.9362 72.8156 30.7296 73.3943 30.5642C73.5183 30.5229 73.6423 30.3989 73.7663 30.3989C75.9158 30.027 77.9 29.1177 79.9254 28.4565C81.6616 27.8779 83.3564 27.2166 85.1752 26.5553Z" fill="#EB611B"/>
<path d="M117.707 11.8836C117.996 11.1397 117.996 11.1397 118.658 11.1397C119.856 11.181 121.014 11.2223 122.213 11.305C123.701 11.3876 125.148 11.5116 126.636 11.6356C127.462 11.6769 128.289 11.7596 129.116 11.8009C130.397 11.8836 131.637 11.9249 132.919 12.0076C134.82 12.1729 136.722 12.3382 138.582 12.5448C138.871 12.5862 139.161 12.6275 139.45 12.5862C140.69 12.5035 141.765 13.0821 142.839 13.4954C143.418 13.7434 143.46 14.322 142.881 14.6526C142.095 15.1072 141.31 15.6445 140.442 15.8925C138.83 16.3884 137.176 16.6777 135.564 17.091C133.911 17.5043 132.299 18.0003 130.645 18.4549C129.736 18.7029 128.868 18.7855 128.082 18.0416C127.917 17.8763 127.586 17.8763 127.338 17.8763C124.651 17.7936 121.965 17.7523 119.236 17.6283C117.128 17.5456 115.061 17.339 112.953 17.1737C111.093 17.0497 109.192 17.0084 107.331 16.8844C107.001 16.8844 106.711 16.7604 106.422 16.7191C106.174 15.8512 106.257 15.1072 106.505 14.322C106.67 13.7847 106.918 13.4954 107.456 13.3301C109.15 12.8341 110.928 12.6688 112.664 12.4622C113.821 12.3382 114.979 12.0489 116.136 11.8423C116.715 11.8836 117.211 11.9249 117.707 11.8836C117.376 12.1316 117.252 12.5862 116.715 12.6688C115.723 12.7928 114.772 12.9995 113.78 13.3714C112.664 13.826 111.424 13.95 110.266 14.2393C109.977 14.322 109.688 14.446 109.398 14.5286C109.398 14.57 109.44 14.6526 109.44 14.694C115.64 15.3139 121.882 15.9338 128.206 16.5538C128.496 16.0165 129.074 15.8098 129.819 15.8098C130.108 15.8098 130.397 15.7272 130.687 15.6445C131.885 15.3139 133.084 14.9006 134.324 14.6526C135.234 14.446 136.184 14.4046 137.094 13.8674C134.076 13.7021 131.141 13.5367 128.206 13.3714C127.834 13.3714 127.504 13.3714 127.132 13.3301C126.222 13.2474 125.313 13.1235 124.403 13.0408C123.866 12.9995 123.287 12.8341 122.75 12.9168C121.303 13.1235 119.939 12.5862 118.534 12.5862C118.12 12.5448 117.79 12.3382 117.707 11.8836Z" fill="#1E1F44"/>
<path d="M76.7839 23.0424C76.3292 23.249 76.0811 23.373 75.7918 23.4557C74.6757 23.7863 73.601 24.0756 72.4849 24.3649C72.3195 24.4062 72.1542 24.4476 71.9888 24.4889C68.9713 25.0262 66.0364 25.9354 63.0602 26.5967C60.8693 27.0926 58.7199 27.5886 56.5704 28.0845C54.6689 28.5391 52.7674 29.0764 50.8246 29.531C50.2459 29.655 49.6672 29.6963 49.0885 29.779C48.5924 29.8617 48.0551 29.9857 47.559 30.1096C46.9803 30.275 46.4429 30.275 45.8229 30.0683C45.2855 29.903 44.6655 29.9857 44.0868 29.9857C43.8801 29.9857 43.6734 30.1096 43.5081 30.0683C42.392 29.7377 41.2759 29.9443 40.1598 29.7377C38.9197 29.531 37.6796 29.4484 36.4809 29.3244C35.3648 29.2004 34.2487 29.0764 33.174 28.9938C32.3472 28.9524 31.4792 28.9524 30.6524 28.9111C30.5698 28.9111 30.4044 28.9524 30.3631 28.9111C29.5364 28.2498 28.503 28.7045 27.5936 28.4152C27.3042 28.3325 26.9322 28.3738 26.6015 28.3738C25.9814 28.3325 25.8161 28.1672 25.7747 27.5059C25.7747 26.3487 26.7668 25.0262 27.8002 24.5716C28.5856 24.1996 29.4124 24.1996 30.1977 24.1996C32.0165 24.1583 33.7527 23.745 35.5301 23.497C36.2329 23.373 36.9769 23.3317 37.6796 23.2077C38.4237 23.0837 39.1264 22.8357 39.8705 22.7118C41.3586 22.4225 42.8053 22.0918 44.3348 21.9265C46.6083 21.7199 48.8405 21.0586 51.0726 20.7693C52.7261 20.5627 54.3382 20.108 56.033 20.232C56.3637 20.2734 56.777 20.0254 57.0664 19.8187C57.4384 19.5294 57.7691 19.4881 58.2238 19.5708C59.5879 19.8187 60.952 19.984 62.3161 20.232C63.4322 20.3973 64.5896 20.6453 65.7057 20.8106C66.8218 20.9759 67.9792 21.1413 69.0953 21.3066C71.0794 21.6372 73.0636 22.0092 75.0064 22.3811C75.2957 22.4225 75.5851 22.4225 75.8745 22.5464C76.2051 22.6291 76.3705 22.7944 76.7839 23.0424ZM30.8178 27.2166C31.2725 27.2993 31.5205 27.3819 31.7685 27.4233C32.5539 27.5059 33.3393 27.5886 34.1247 27.7126C34.8688 27.7952 35.6128 27.9605 36.3569 28.0432C37.3489 28.1672 38.3823 28.2912 39.3744 28.4565C39.8291 28.5391 40.2425 28.7458 40.6558 28.8284C41.8546 28.9938 43.0947 28.9524 44.2935 29.3244C44.7482 29.4484 45.4922 29.4897 45.7816 29.2004C46.3603 28.7045 47.0217 28.4565 47.7244 28.3325C49.7085 27.9605 51.734 27.6712 53.7595 27.2579C57.0664 26.5967 60.3733 25.8941 63.7215 25.1915C65.4163 24.8609 67.1111 24.5302 68.8473 24.1996C69.9633 23.993 71.1208 23.745 72.2369 23.5797C72.4022 23.5383 72.6502 23.5797 72.8156 23.621C73.2703 23.745 73.4356 23.4557 73.6836 23.0424C72.4022 22.9184 71.2034 22.6704 70.0047 22.6704C68.3099 22.6291 66.6978 22.3398 65.003 22.1332C63.9696 22.0092 62.9362 21.7612 61.9028 21.7199C60.6213 21.7199 59.3812 21.5545 58.2238 21.1826C57.3144 20.8933 56.529 21.0586 55.661 21.1413C55.2476 21.1826 54.8342 21.3892 54.4209 21.4719C53.3461 21.7612 52.2714 22.0092 51.1966 22.2985C50.4939 22.4638 49.7499 22.6704 49.0471 22.7944C47.063 23.2077 45.0788 23.5797 43.0947 23.993C41.8546 24.2409 40.6145 24.5716 39.3744 24.8609C38.3823 25.0675 37.3903 25.1915 36.3982 25.3568C35.6955 25.4808 34.9928 25.6874 34.29 25.8114C33.0913 26.0594 32.0165 26.4314 30.8178 27.2166Z" fill="#1E1F44"/>
<path d="M164.376 63.4207C180.197 63.4207 193.022 50.5978 193.022 34.7798C193.022 18.9619 180.197 6.13886 164.376 6.13886C148.555 6.13886 135.73 18.9619 135.73 34.7798C135.73 50.5978 148.555 63.4207 164.376 63.4207Z" fill="#F9F9EC"/>
<path d="M156.398 63.834C156.477 63.8738 156.517 63.8738 156.398 63.834V63.834Z" fill="#1E1F44"/>
<path d="M142.261 13.8257L142.302 13.7844C142.302 13.7432 142.302 13.6607 142.302 13.6194L142.261 13.8257Z" fill="#1E1F44"/>
<path d="M150.404 7.9975C150.444 7.9975 150.444 7.9975 150.444 7.9975C150.444 7.95773 150.444 7.95773 150.404 7.9975Z" fill="#1E1F44"/>
<path d="M134.324 34.9451C134.324 35.0276 134.324 35.0689 134.365 35.1101C134.324 35.0689 134.324 35.0276 134.324 34.9451Z" fill="#1E1F44"/>
<path d="M174.378 62.9661C174.378 62.9661 174.339 63.0059 174.378 62.9661C174.378 62.9661 174.418 62.9661 174.458 62.9661H174.378Z" fill="#1E1F44"/>
<path d="M174.213 63.0899C174.006 63.1311 174.254 63.0074 174.336 62.9661C174.089 63.0074 173.841 63.0486 173.635 63.1724C173.635 63.2549 174.089 63.0899 174.213 63.0899Z" fill="#1E1F44"/>
<path d="M192.732 43.6242L192.812 43.7037C192.772 43.6242 192.772 43.6242 192.732 43.6242Z" fill="#1E1F44"/>
<path d="M142.302 13.6163L142.342 13.5367C142.342 13.5765 142.342 13.5765 142.302 13.6163Z" fill="#1E1F44"/>
<path d="M159.126 5.10564C159.126 5.14542 159.166 5.14542 159.166 5.18519C159.166 5.18519 159.166 5.18519 159.206 5.18519L159.126 5.10564Z" fill="#1E1F44"/>
<path d="M192.319 29.0761C192.319 29.0348 192.36 29.0348 192.319 29.0761L192.236 28.8698C192.278 28.9523 192.319 29.0348 192.319 29.0761Z" fill="#1E1F44"/>
<path d="M171.61 5.97355C171.61 5.97355 171.651 5.97355 171.651 5.93222C171.444 5.84956 170.907 5.72558 170.204 5.56026L170.121 5.68425C170.618 5.76691 171.114 5.89089 171.61 5.97355Z" fill="#1E1F44"/>
<path d="M181.737 14.3633C181.489 14.0327 181.241 13.7434 180.952 13.4128C182.522 14.57 183.514 15.6032 184.424 16.6364C185.292 17.6696 186.119 18.6615 187.111 20.0254L186.945 19.9014C187.028 20.108 187.276 20.1907 187.731 20.852C188.144 21.5132 188.888 22.7531 189.55 25.3981H189.508C189.591 25.5635 189.632 25.5635 189.674 25.9354C189.632 25.6461 189.55 25.3155 189.508 25.0262C189.798 25.5221 190.046 25.9354 190.294 26.638C190.335 26.8033 190.294 26.8447 190.252 26.886C190.418 27.4646 190.624 28.0432 190.748 28.6218L190.707 29.2004C190.914 29.7377 191.203 29.407 191.244 30.9362C191.41 30.3576 191.492 31.6388 191.575 31.4735C191.575 31.5562 191.534 31.7215 191.492 31.8868C191.575 32.3414 191.616 32.9613 191.699 33.5399C191.74 34.1185 191.823 34.6558 191.864 34.8625C191.864 34.8625 191.906 34.6558 191.947 34.2839C191.988 33.9532 192.071 33.4573 192.071 32.9613C192.154 31.9281 192.195 30.8122 192.236 30.275C192.36 31.5562 192.319 30.6056 192.36 30.3576L192.278 30.275C192.195 29.4897 192.36 29.4897 192.319 29.0764C192.319 29.0764 192.278 29.0764 192.278 29.1178L192.319 29.1591C192.319 29.2004 192.278 29.2004 192.236 29.1591C192.195 29.1591 192.195 29.1591 192.154 28.9524L192.195 28.9938C192.112 28.6631 191.988 28.1259 191.947 27.8779L192.071 27.8365C191.988 27.7126 191.864 27.4233 191.782 27.01C191.74 26.8033 191.699 26.5967 191.658 26.3487C191.616 26.1007 191.534 25.8528 191.492 25.6048C191.41 25.1088 191.286 24.6129 191.162 24.1996C191.038 23.7863 190.955 23.4144 190.872 23.249C190.707 22.4638 190.087 21.6372 189.674 20.728C188.93 19.3228 189.426 19.9427 189.095 19.1988C188.599 18.3309 189.095 19.4468 188.847 19.1161C188.681 18.7442 188.516 18.3722 188.309 18.0416C188.723 18.6202 188.557 18.2482 188.516 18.1243C187.937 17.2563 187.069 15.8098 186.656 15.7272C186.243 15.1486 186.036 14.8593 185.912 14.6526C185.747 14.446 185.664 14.322 185.457 14.074C185.581 14.2393 185.829 14.57 185.788 14.6113C185.457 14.1153 185.581 14.446 185.705 14.6113C185.375 14.322 184.672 13.4541 183.969 12.7102C183.266 11.9249 182.522 11.305 182.398 11.3463L182.44 11.305C182.15 11.3463 182.274 11.6769 181.737 11.429L181.572 11.0157L181.034 10.7264C180.745 10.4371 180.952 10.5197 180.952 10.4784C180.538 10.2304 180.042 9.94113 179.505 9.56917C178.967 9.23853 178.471 8.86657 177.934 8.6186C178.223 8.94923 178.513 9.32119 178.761 9.69315C177.975 9.07322 176.446 8.08132 176.198 8.16398L175.743 7.75069C174.007 6.67614 174.379 7.37873 173.676 7.00677C173.387 6.84146 173.098 6.67614 172.767 6.51082C173.098 6.59348 173.428 6.71747 173.718 6.80013C173.263 6.59348 172.932 6.42817 172.643 6.30418C172.354 6.18019 172.064 6.01488 171.692 5.89089C171.734 5.93222 171.775 5.93222 171.775 5.93222L171.651 5.89089C171.486 5.97355 170.99 5.89089 170.287 5.7669C169.791 5.68425 169.336 5.60159 168.84 5.51893C168.592 5.4776 168.303 5.43627 167.972 5.39494C167.683 5.35361 167.311 5.27096 166.897 5.1883L166.484 5.35361C166.07 5.27096 165.698 5.22963 165.285 5.1883V5.02298C166.484 5.06431 168.716 5.1883 170.245 5.51893L170.287 5.43627C169.832 5.35361 169.336 5.27096 168.923 5.22963C168.468 5.1883 168.055 5.14697 167.765 5.10564C167.476 5.02298 166.732 4.81634 167.311 4.73368L166.732 4.85767C165.988 4.77501 165.409 4.81634 164.913 4.77501C164.417 4.77501 164.045 4.77501 163.632 4.77501C163.218 4.77501 162.846 4.77501 162.35 4.77501C162.102 4.77501 161.813 4.77501 161.523 4.77501C161.193 4.77501 160.862 4.81634 160.449 4.85767L160.738 4.899C160.407 4.98165 160.118 5.02298 159.87 5.06431C159.622 5.10564 159.415 5.10564 159.333 5.06431C157.431 5.35361 155.488 5.80823 154.207 6.05621C154.124 6.13886 154.083 6.22152 154 6.34551C153.628 6.4695 152.926 6.42817 152.843 6.7588C152.595 6.88278 152.347 7.0481 152.057 7.17209C151.809 7.29607 151.603 7.37873 151.396 7.50272C151.189 7.62671 150.983 7.75069 150.652 7.83335C150.611 7.83335 150.569 7.87468 150.528 7.87468C149.949 8.12265 149.991 8.16398 149.991 8.20531C149.991 8.24664 149.991 8.28797 149.329 8.6186C148.875 8.74259 148.999 9.07322 148.42 9.40385L147.676 9.56917C146.518 10.1891 146.518 10.5197 145.072 11.6769C144.328 12.1729 143.832 12.2969 144.162 11.7596C143.708 12.5035 143.997 12.1316 143.294 12.9581C143.087 12.9995 143.17 12.9168 143.294 12.6688C142.509 13.2474 142.922 13.1648 142.426 13.6607C142.426 13.95 142.509 14.322 142.343 14.5286L142.591 14.3633C142.385 14.6526 142.137 14.9833 141.889 15.3139C141.641 15.6445 141.351 15.9338 141.062 16.2645L141.021 16.1818C140.855 16.4298 140.649 16.6777 140.483 16.967L140.359 16.9257C140.111 17.2977 139.863 17.6696 139.615 18.0416L139.739 17.9176C139.574 18.2069 139.036 19.0748 138.706 19.5708L138.664 19.5294C137.631 20.852 137.259 22.2571 136.598 24.0343L136.556 23.745C136.184 24.3236 136.68 23.993 136.35 24.6956L136.184 24.6542C136.184 25.3981 135.854 25.4808 135.606 25.9354L135.895 25.7701L135.606 26.638C135.44 27.0926 135.316 27.2579 135.234 27.2166C135.151 27.2166 135.11 27.0513 135.068 26.9686L135.11 27.6712L134.862 27.7539C134.986 28.2912 134.696 28.2498 134.655 29.1178C134.572 29.1591 134.572 28.9524 134.49 29.2417V29.9857L134.531 30.7296C134.531 30.4403 134.531 30.151 134.531 29.8617L134.82 30.027C134.944 30.9362 134.614 31.2255 134.655 31.8868C134.655 31.7215 134.614 31.5975 134.614 31.4322C134.572 32.4654 134.489 32.548 134.365 33.1267C134.448 32.9613 134.531 32.672 134.531 33.0853C134.531 33.416 134.407 33.2506 134.365 33.5399C134.572 33.6226 134.614 34.3665 134.572 35.0691C134.531 35.0691 134.531 35.0278 134.49 34.9865C134.531 35.1518 134.572 35.2344 134.531 35.5651L134.324 35.3997L134.531 35.9783C134.49 36.3503 134.696 36.9289 134.531 36.8876L134.49 36.6809C134.531 37.6728 134.614 38.6647 134.779 39.6153L134.614 39.698C134.779 39.8219 134.82 40.2352 134.862 40.5659C134.903 40.9378 134.986 41.2271 135.11 41.1445C135.11 41.4338 135.234 41.971 135.358 42.3843C135.482 42.7976 135.564 43.1283 135.358 43.0043C135.44 43.2522 135.482 43.4589 135.564 43.6655C135.647 43.8722 135.73 44.0788 135.812 44.2441C135.978 44.6161 136.102 44.9881 136.308 45.36C136.474 45.732 136.639 46.1039 136.846 46.5172C137.052 46.9305 137.218 47.4265 137.466 47.9637C137.548 48.4184 137.838 49.1623 138.251 49.9062C138.458 50.2782 138.706 50.6914 138.954 51.0634C139.202 51.4354 139.45 51.8073 139.657 52.0966C140.566 53.2952 141.393 54.2044 142.261 55.0723C143.129 55.9402 144.038 56.7668 145.237 57.7174C145.526 58.0893 145.898 58.42 146.312 58.7919C146.725 59.1226 147.221 59.4532 147.717 59.7425C148.709 60.3211 149.743 60.8584 150.569 61.3956L151.107 61.4783C152.181 62.3049 154.124 62.8008 155.778 63.5447C156.232 63.5861 156.48 63.6274 156.563 63.6687C156.48 63.6274 156.356 63.5861 156.356 63.4621C156.852 63.7101 157.886 63.834 157.762 63.9994H157.638C157.597 64.082 157.969 64.1647 158.465 64.2473C158.961 64.2887 159.498 64.3713 159.787 64.4953L159.498 64.206C159.829 64.2887 160.159 64.33 160.449 64.3713H160.201C162.35 64.4127 163.88 64.5366 165.409 64.5366C166.939 64.5366 168.427 64.4953 170.369 63.8754C170.121 64.0407 170.328 63.958 170.576 63.9167C170.824 63.834 171.155 63.7101 171.238 63.834C171.775 63.8754 172.23 63.7514 172.643 63.5447C173.056 63.3381 173.428 63.1315 173.8 62.9661C173.8 62.9661 173.8 62.9248 173.842 62.8835C174.296 62.7182 174.751 62.5942 175.206 62.4289C174.503 63.0488 176.074 61.8089 175.454 62.3462C177.273 61.7676 179.215 60.7757 181.117 59.5358C183.018 58.296 184.755 56.7255 186.284 55.1963L186.077 55.279C186.284 55.0723 186.491 54.8657 186.656 54.659C186.863 54.4111 187.028 54.2044 187.235 53.9564C187.607 53.5018 187.979 53.0885 188.268 52.7992C188.599 52.5099 188.805 52.0966 188.971 51.7247C189.136 51.3527 189.26 51.0221 189.343 50.8981C189.508 50.4848 189.798 50.1128 190.004 49.9062C190.17 49.6996 190.294 49.6169 190.211 49.8235C190.666 48.9556 190.872 48.0051 191.534 46.8479C191.658 46.7652 191.782 46.5172 191.947 46.1866C192.071 45.856 192.195 45.4013 192.36 44.9881C192.608 44.1615 192.774 43.3349 192.939 43.3762L192.898 43.3349C193.642 41.7231 193.601 40.0286 194.055 38.2101C194.055 38.2101 194.055 38.2514 194.097 38.3341C193.973 37.0529 193.683 35.7717 193.394 34.5318C193.022 34.8625 192.65 35.2344 192.319 35.5651C191.988 36.5983 191.616 37.5488 191.203 38.4994C191.038 39.8219 190.748 41.1858 190.418 42.467C190.046 43.7482 189.591 45.0294 189.012 46.2693C187.979 48.1704 186.697 49.9475 185.251 51.518C181.944 55.5683 177.438 58.6266 172.436 60.1971L171.403 60.7344C169.832 60.8997 168.137 61.2303 166.319 61.3543C164.541 61.5196 162.681 61.4783 161.027 61.1063L160.945 61.313C159.994 61.189 160.077 61.065 159.87 60.9823C157.721 60.6104 155.571 59.9905 153.587 59.1225C152.553 58.7093 151.603 58.172 150.652 57.6347C149.701 57.0561 148.792 56.4775 147.924 55.8162C147.056 55.155 146.27 54.4524 145.485 53.7085C144.741 52.9232 143.997 52.1793 143.377 51.3114C142.095 49.6582 141.021 47.8811 140.235 46.0626C140.153 45.6906 139.822 44.9881 139.574 44.2855C139.491 44.1201 139.45 43.9548 139.367 43.7895C139.326 43.6242 139.285 43.4589 139.243 43.2936C139.161 43.0043 139.078 42.7563 139.078 42.591C138.582 41.4338 138.21 40.1526 137.962 38.83C137.755 37.5489 137.59 36.2263 137.631 34.9451L137.672 35.0278C137.631 34.6145 137.631 34.2425 137.631 33.8292C137.631 33.7879 137.672 33.7879 137.672 33.8292C137.631 33.4986 137.631 33.0853 137.631 32.672C137.672 32.2587 137.672 31.8041 137.755 31.3495C137.879 30.4403 138.127 29.531 138.334 28.7045V28.7871C139.367 24.0756 141.599 19.7774 144.7 16.2645C147.841 12.7928 151.933 10.1064 156.563 8.82524C158.754 8.3293 161.11 7.83335 163.632 7.75069C164.872 7.66803 166.153 7.70936 167.435 7.83335C168.716 7.95734 169.956 8.20531 171.196 8.6186C171.61 8.82524 174.338 9.52784 176.859 10.8504C179.133 12.3382 181.365 14.1153 181.737 14.3633Z" fill="#1E1F44"/>
<path d="M190.25 26.8447C190.171 26.8447 190.211 26.8844 190.25 26.8447V26.8447Z" fill="#1E1F44"/>
<path d="M177.851 8.57698L177.934 8.61823L177.727 8.41196L177.851 8.57698Z" fill="#1E1F44"/>
<path d="M189.012 18.4953C188.681 17.9177 188.599 17.9177 188.64 18.0002C188.764 18.2065 188.888 18.3715 189.012 18.4953Z" fill="#1E1F44"/>
<path d="M191.451 31.8031C191.492 32.1331 191.534 32.0094 191.534 31.8031C191.492 31.473 191.451 31.2255 191.451 31.2255C191.451 31.3905 191.451 31.5968 191.451 31.8031Z" fill="#1E1F44"/>
<path d="M192.443 30.2748L192.526 30.3573C192.484 30.1511 192.443 30.1923 192.443 30.2748Z" fill="#1E1F44"/>
<path d="M161.895 17.215C161.895 17.2563 161.937 17.339 161.978 17.4217C162.433 17.4217 162.433 17.4217 162.846 17.1737C162.888 17.1737 162.888 17.1324 162.929 17.1324C163.342 17.2563 163.838 17.1324 164.252 17.463C164.417 17.587 164.706 17.6283 164.913 17.6283C165.574 17.711 166.153 17.9589 166.773 18.3722C166.897 18.4549 167.021 18.4962 167.145 18.5375C167.765 18.7442 168.303 19.0748 168.757 19.5294C168.84 19.6121 169.047 19.6121 169.171 19.6948C169.377 19.8601 169.625 19.9841 169.791 20.2734C169.915 20.48 170.204 20.604 170.411 20.7693C170.576 20.8933 170.741 21.0586 170.865 21.1826C170.989 21.3066 171.072 21.3892 171.196 21.1826C171.486 21.5546 171.692 21.9265 172.106 22.2571C172.478 22.5878 172.974 22.8771 173.098 23.4144C173.139 23.5383 173.263 23.621 173.387 23.6623C173.718 23.745 173.842 23.993 173.924 24.2823C174.048 24.6956 174.338 24.9849 174.586 25.2742C174.792 25.4808 174.875 25.6874 174.875 25.9767C174.875 26.2247 174.999 26.3487 175.206 26.39C175.123 26.4727 175.082 26.514 174.999 26.5967C175.04 26.638 175.04 26.6793 175.082 26.7207C175.66 27.3819 176.033 28.1259 176.157 28.9938C176.239 29.531 176.198 30.1096 175.95 30.6469C175.826 30.8536 175.702 31.1015 175.371 31.0602C175.288 31.0602 175.206 31.1015 175.123 31.1429C174.71 31.3908 174.379 31.2669 174.048 30.9775C173.8 30.7709 173.594 30.6056 173.263 30.4816C172.808 30.3163 172.436 29.9857 172.106 29.5724C171.982 29.407 171.858 29.2417 171.692 29.2004C171.444 29.1177 171.362 28.9111 171.279 28.7045C171.113 28.2912 170.907 27.8365 170.452 27.6299C170.369 27.5886 170.245 27.4646 170.245 27.4233C170.328 27.0513 169.956 26.9273 169.873 26.638C169.873 26.5554 169.708 26.4314 169.625 26.4314C169.336 26.3487 169.171 26.1834 169.047 25.9354C169.005 25.8528 168.881 25.8114 168.84 25.7701C168.799 25.7288 168.84 25.6461 168.881 25.6048C168.716 25.4395 168.509 25.3155 168.385 25.1502C167.972 24.5716 167.476 24.0756 166.98 23.5797C166.649 23.249 166.236 23.1664 165.905 22.8357C165.574 22.5464 165.161 22.3811 164.748 22.2571C164.5 22.1745 164.293 22.0505 164.045 22.0092C163.673 21.9265 163.301 21.8025 162.929 21.8025C162.681 21.8025 162.309 21.8439 162.144 22.0092C161.937 22.1745 161.689 22.2158 161.441 22.3398C161.151 22.5051 160.903 22.5878 160.862 23.0011C160.821 23.2904 160.531 23.4557 160.325 23.621C160.201 23.745 160.077 23.8276 159.994 23.993C159.87 24.2409 159.705 24.4476 159.498 24.6542C159.126 25.0262 158.837 25.4395 158.506 25.8114C158.175 26.1834 157.927 26.638 157.39 26.7207C157.348 26.7207 157.307 26.762 157.266 26.8033C156.852 27.3819 156.15 27.4646 155.654 27.9192C155.53 28.0019 155.323 28.0019 155.199 28.1259C155.406 28.1259 155.571 28.1259 155.778 28.1259C156.315 28.0845 156.811 28.0432 157.348 27.8779C157.803 27.7539 158.341 27.7952 158.837 27.7952C159.167 27.7952 159.291 28.4152 159.002 28.7045C158.837 28.8284 158.63 28.9524 158.465 29.0351C157.803 29.2417 157.142 29.4484 156.439 29.6137C156.108 29.6964 155.695 29.655 155.364 29.6137C154.91 29.5724 154.455 29.531 154 29.531C153.794 29.531 153.587 29.5724 153.38 29.5724C153.132 29.5724 152.967 29.4484 152.843 29.2417C152.719 28.9524 152.595 28.6631 152.512 28.3738C152.388 27.8779 152.181 27.3406 152.14 26.8447C152.099 25.9767 151.892 25.1915 151.768 24.3649C151.644 23.5797 152.14 22.9597 152.884 22.8771C153.256 22.8358 153.422 23.1664 153.628 23.373C154 23.869 154.042 24.4062 154 24.9849C153.959 25.3981 154.042 25.8114 154.042 26.2247C154.042 26.2247 154.083 26.2661 154.042 26.2661C153.794 26.8447 154.166 27.4646 154 28.0432C154 28.0845 154.042 28.1672 154.083 28.2498C154.331 28.2498 154.538 28.2498 154.827 28.2498C154.703 28.0845 154.579 27.9605 154.538 27.7952C154.496 27.6299 154.538 27.4646 154.538 27.2993C154.538 27.0926 154.579 26.9273 154.579 26.7207C154.579 26.1007 154.703 25.5221 155.034 24.9435C155.158 24.7369 155.158 24.4889 155.199 24.2409C155.199 23.9516 155.406 23.6623 155.571 23.4144C155.736 23.1664 155.984 22.9184 155.943 22.5878C155.943 22.5051 156.026 22.4225 156.108 22.3398C156.439 21.8025 156.894 21.3479 156.935 20.6866C156.935 20.6453 156.976 20.5627 157.018 20.5627C157.39 20.356 157.431 19.9427 157.597 19.6121C157.679 19.4468 157.803 19.2401 157.927 19.1161C158.258 18.8268 158.506 18.3722 158.961 18.1656C159.043 18.1243 159.126 18.0829 159.209 18.0829C159.539 18.1656 159.829 18.0416 160.118 17.835C160.366 17.6283 160.697 17.5456 161.027 17.4217C161.151 17.3803 161.317 17.2563 161.482 17.463C161.523 17.4217 161.73 17.2977 161.895 17.215Z" fill="#1E1F44"/>
<path d="M154.331 39.9872C154.248 40.0286 154.166 40.0286 154.166 40.0699C153.918 40.4419 153.546 40.6898 153.339 41.1031C153.298 41.2271 153.546 41.3511 153.256 41.4338C153.174 41.4338 153.174 41.7231 153.132 41.8471C153.008 42.095 152.884 42.3017 152.719 42.5083C152.471 42.8389 152.181 43.1696 152.057 43.5829C151.933 43.9135 151.644 44.2028 151.603 44.6161C151.603 44.6574 151.52 44.7401 151.479 44.7814C150.859 45.3187 150.693 46.0626 150.569 46.8892C150.983 46.8065 151.313 47.0545 151.727 46.9305C151.851 46.8892 151.975 46.9718 152.099 46.9718C152.429 46.9718 152.801 47.0132 153.132 47.0132C154 47.0132 154.827 46.7652 155.695 46.9718C155.902 47.0132 156.15 46.9718 156.398 47.0132C156.894 47.0545 157.348 47.1372 157.845 47.2198C158.175 47.2611 158.506 47.0958 158.878 47.2198C159.25 47.3851 159.705 47.4265 160.077 47.5504C160.325 47.6331 160.531 47.7984 160.614 48.0877C160.697 48.3357 160.862 48.5423 160.614 48.7903C160.531 48.873 160.614 49.0796 160.614 49.2863C161.069 48.997 161.193 48.5837 161.482 48.2117C161.069 47.8397 160.697 47.4678 160.325 47.1372C160.077 46.8892 159.87 46.5585 159.498 46.4346C159.415 46.3932 159.374 46.3519 159.333 46.2692C158.837 45.6906 158.341 45.0707 158.051 44.3268C158.01 44.2441 158.051 44.1615 158.01 43.9962C158.217 44.0375 158.423 44.0375 158.589 44.1201C159.126 44.2855 159.581 44.6161 159.994 44.9467C160.449 45.3187 160.862 45.6906 161.317 46.0626C161.771 46.4346 162.102 46.9718 162.392 47.5091C162.598 47.8811 162.516 48.253 162.309 48.5837C161.771 49.3689 161.234 50.1542 160.738 50.9394C160.49 51.3114 160.242 51.6833 159.994 52.0553C159.953 52.0966 159.953 52.138 159.911 52.1793C159.746 52.3859 159.498 52.4686 159.291 52.3859C159.085 52.2619 159.002 51.9726 159.085 51.7247C159.167 51.518 159.291 51.3527 159.415 51.1461C159.705 50.6914 159.994 50.2782 160.366 49.7409C160.201 49.8235 160.118 49.8649 160.077 49.8649C159.829 49.9062 159.581 49.9889 159.374 49.9889C158.919 49.9889 158.465 50.0302 158.01 50.1955C157.886 50.2368 157.721 50.3195 157.638 50.2782C157.224 50.1542 156.852 50.3195 156.48 50.4435C156.356 50.4848 156.191 50.5261 156.067 50.4848C155.778 50.4021 155.53 50.4435 155.282 50.4848C154.992 50.5261 154.703 50.5261 154.414 50.5261C153.918 50.5261 153.422 50.5261 152.925 50.6501C152.264 50.8154 151.561 50.8981 150.9 50.8568C150.528 50.8568 150.197 50.9394 149.825 50.9807C149.329 51.1047 148.833 51.1047 148.337 50.9807C148.213 50.9394 148.089 50.9394 147.965 50.9394C147.51 50.9394 147.552 50.8568 147.304 50.4435C147.18 50.2368 146.973 50.0715 146.89 49.8235C146.725 49.3689 146.518 48.9143 146.56 48.377C146.56 48.1704 146.436 47.9637 146.477 47.8397C146.601 47.6331 146.518 47.4678 146.518 47.2611C146.518 47.0958 146.601 46.9305 146.684 46.7652C146.808 46.5999 146.684 46.5586 146.518 46.4759C146.973 46.4346 146.684 46.0626 146.89 45.8973C146.766 45.36 147.014 44.8641 147.097 44.3681C147.138 43.9548 147.51 43.6655 147.469 43.2109C147.882 43.0043 147.758 42.467 148.048 42.219L148.089 42.1777C147.758 41.8471 148.213 41.7231 148.254 41.5164C148.337 41.2271 148.378 40.9378 148.544 40.7312C148.875 40.2766 148.875 39.6979 149.081 39.202C149.371 38.4994 149.743 37.7968 150.197 37.1769C150.321 36.9702 150.445 36.7636 150.528 36.557C150.941 35.8544 151.231 35.0691 151.768 34.4492C151.892 34.3252 151.975 34.1599 152.016 34.0359C152.099 33.5813 152.471 33.4573 152.843 33.3333C152.925 33.292 153.008 33.2093 153.091 33.168C153.546 33.2506 153.918 33.6226 154.414 33.4573C154.662 33.3746 155.116 33.7053 155.199 33.9532C155.282 34.2012 155.364 34.4492 155.488 34.6971C155.53 34.7798 155.612 34.8211 155.612 34.8211C155.571 35.1518 155.488 35.3997 155.447 35.689C155.654 35.7304 155.736 35.3997 155.943 35.689C155.654 35.7717 155.654 36.0197 155.654 36.2676C155.654 36.5983 155.695 36.8876 155.447 37.2182C155.282 37.3835 155.323 37.7142 155.282 37.9621C155.24 38.0861 155.24 38.2101 155.075 38.2928C154.868 38.4168 154.662 38.6647 154.62 38.954C154.579 39.2433 154.662 39.5326 154.331 39.6979C154.207 39.8219 154.248 39.8633 154.331 39.9872Z" fill="#1E1F44"/>
<path d="M164.293 47.7984C164.334 47.5504 164.376 47.2611 164.417 47.0132C164.458 46.3932 164.872 46.1039 165.326 45.856C165.533 45.732 165.781 45.6493 166.029 45.608C166.856 45.484 167.683 45.3187 168.509 45.236C168.881 45.1947 169.295 45.1947 169.708 45.1534C170.245 45.0707 170.783 44.988 171.32 44.9054C171.858 44.8227 172.395 44.7814 172.891 44.7401C173.47 44.6574 174.048 44.6161 174.627 44.4921C175.289 44.3681 175.909 44.2028 176.611 44.2028C177.066 44.2028 177.562 44.0788 178.017 43.9548C178.141 43.9135 178.265 43.8722 178.306 43.7895C178.554 43.5415 178.637 42.6323 178.471 42.3017C178.389 42.1364 178.347 42.0124 178.306 41.8057C178.223 41.3098 178.058 40.8138 177.934 40.3179C177.727 39.6566 177.727 38.9954 177.81 38.3341C177.893 37.7555 178.058 37.6728 178.678 37.7142C179.298 37.7555 179.711 38.1688 180.125 38.4994C180.414 38.7474 180.497 39.1607 180.704 39.5326C180.745 39.6153 180.786 39.7393 180.828 39.7806C181.117 40.0699 181.324 40.4005 181.406 40.8552C181.406 40.9378 181.489 40.9791 181.53 41.0618C181.654 41.2271 181.82 41.3511 181.861 41.5164C182.026 42.0124 182.109 42.5083 182.233 43.0043C182.316 43.3349 182.316 43.6655 182.316 43.9962C182.316 44.0788 182.316 44.1615 182.357 44.2441C182.564 44.6161 182.44 44.988 182.233 45.3187C182.068 45.5667 181.861 45.732 181.861 46.0626C181.861 46.3106 181.2 46.5999 180.869 46.5999C180.786 46.5999 180.704 46.5999 180.662 46.5999C180.084 46.9718 179.422 47.0958 178.761 47.2611C178.017 47.4678 177.273 47.6331 176.529 47.8397C176.405 47.8811 176.281 48.0464 176.115 48.1704C175.95 48.129 175.702 48.0464 175.537 48.2944C175.495 48.3357 175.371 48.377 175.288 48.377C174.999 48.3357 174.751 48.4597 174.462 48.501C173.966 48.625 173.511 48.7903 173.015 48.8316C172.932 48.8316 172.85 48.9143 172.767 48.9556C172.684 48.997 172.602 49.0796 172.56 49.0796C172.312 48.873 172.106 49.1209 171.899 49.1623C171.486 49.2036 171.031 49.2863 170.617 49.3276C170.245 49.3689 169.832 49.3276 169.46 49.3276C169.336 49.3276 169.253 49.2449 169.129 49.2449C168.675 49.2449 168.22 49.2863 167.724 49.3276C167.683 49.3276 167.641 49.3689 167.641 49.3689C167.187 49.2036 166.691 49.3276 166.194 49.2863C166.112 49.2863 166.029 49.2036 165.946 49.1623C165.822 49.1209 165.74 49.0383 165.616 49.0383C165.244 49.1623 165.078 48.873 164.83 48.749C164.665 48.6663 164.582 48.4597 164.582 48.253C164.582 48.0877 164.458 47.9224 164.376 47.7571C164.334 47.7984 164.293 47.7984 164.293 47.7984Z" fill="#1E1F44"/>
<path d="M175.33 38.2514C175.33 38.0448 175.288 37.8795 175.33 37.7142C175.413 37.3422 175.454 36.9702 175.619 36.6396C175.785 36.309 176.033 35.937 176.322 35.813C176.818 35.6064 177.314 35.2757 177.934 35.3584C178.058 35.3584 178.182 35.3584 178.306 35.3997C179.215 35.689 180.125 35.9783 180.993 36.2676C181.2 36.3503 181.365 36.433 181.406 36.6396C181.448 36.8049 181.53 36.9289 181.613 37.0942C181.324 37.4662 180.952 37.5902 180.497 37.4662C179.877 37.3009 179.215 37.2182 178.637 36.8876C178.389 36.7636 178.058 36.6809 177.769 36.6396C177.479 36.5983 177.231 36.7636 177.025 36.9702C176.694 37.3009 176.322 37.6315 175.991 37.9621C175.909 38.1688 175.661 38.2928 175.33 38.2514Z" fill="#1E1F44"/>
</g>
<defs>
<clipPath id="clip0">
<rect width="193.785" height="71.1271" fill="white" transform="translate(0.104858 0.683449)"/>
</clipPath>
</defs>
</svg>
