<svg width="140" height="93" viewBox="0 0 140 93" fill="none" xmlns="http://www.w3.org/2000/svg">
<g clip-path="url(#clip0)">
<path d="M1.15015 26.4719C1.42121 26.2012 1.64709 25.9305 1.96333 25.5696C1.60192 25.2538 1.28568 24.9381 0.924271 24.5321C0.924271 24.5772 0.924271 24.4418 0.969447 24.3967C2.0085 24.1261 3.04756 23.7652 4.08662 23.6298C4.85462 23.5396 5.53226 23.4494 6.20991 23.0885C6.52614 22.908 6.97791 22.908 7.33932 22.7727C8.37837 22.3667 9.41743 21.9156 10.4565 21.4193C11.089 21.1036 11.6762 21.0133 12.3539 21.0584C13.7092 21.1036 15.0645 21.0133 16.4198 20.6073C16.8715 20.472 17.3233 20.5171 17.7751 20.4269C18.4075 20.2915 19.04 20.066 19.6725 19.8855C19.8532 19.8404 20.1242 19.7051 20.2598 19.7502C21.0278 20.1111 21.6151 19.7502 22.3379 19.5246C23.0155 19.2991 23.7835 19.2991 24.5515 19.254C25.5002 19.1638 26.4037 19.1186 27.2169 18.5773C28.0753 18.036 29.1595 18.0811 30.1534 18.1262C31.1473 18.1262 32.0508 18.036 32.9091 17.4946C33.6771 17.0435 34.671 17.0435 35.5746 17.0886C36.8847 17.1337 38.1044 16.7728 39.279 16.3217C39.8663 16.0961 40.4084 15.6901 41.1764 15.9608C41.5378 16.0961 42.1703 16.0059 42.4865 15.7804C43.1642 15.1939 43.9774 15.5999 44.655 15.3744C45.6037 15.0135 46.6879 15.0135 47.5915 14.5623C47.8625 14.427 48.3143 14.5172 48.6305 14.4721C49.3082 14.3819 50.031 14.2917 50.7086 14.1563C51.1152 14.1112 51.5218 14.0661 51.9284 13.9759C52.4705 13.8857 53.103 13.8857 53.5999 13.615C54.2324 13.2541 54.8197 13.2541 55.4522 13.3894C56.1298 13.4797 56.7623 13.3894 57.3947 13.0737C57.982 12.803 58.6145 12.7128 59.2921 12.7128C60.015 12.7128 60.9637 13.0285 61.6413 12.2165C61.822 11.991 62.3641 12.0812 62.7256 12.0812C64.1712 12.1263 64.1712 12.1263 65.7072 11.4496C65.8427 11.4045 66.0686 11.3594 66.2041 11.4045C67.0625 11.7654 67.7853 11.3143 68.5533 11.0887C69.4117 10.8181 70.2248 10.1414 71.2187 10.6376C71.2639 10.6827 71.3542 10.6376 71.4446 10.6376C72.9354 10.4121 74.3811 10.0963 75.8719 9.91583C77.0465 9.78049 78.1759 9.4196 79.2601 9.01359C79.757 8.83314 80.2992 8.96848 80.8413 8.96848C82.1966 8.96848 83.5067 8.78803 84.7716 8.24669C85.6752 7.88579 86.7142 7.84068 87.7081 7.75046C88.5213 7.66023 89.3344 7.66023 90.1024 7.20912C90.238 7.164 90.4187 7.07378 90.509 7.11889C91.3674 7.43468 92.1806 7.02867 92.9937 7.02867C93.2196 7.02867 93.4907 6.93845 93.7165 6.84822C94.2587 6.66777 94.7556 6.3971 95.3881 6.53244C95.7043 6.62266 96.0657 6.35199 96.382 6.21666C96.9693 5.9911 97.5565 5.67531 98.2342 5.94599C98.4149 5.9911 98.5956 6.03621 98.7763 5.94599C99.725 5.53998 100.719 5.81065 101.713 5.6302C102.526 5.49487 103.339 5.17908 104.152 4.99864C105.372 4.72797 106.547 4.32196 107.857 4.50241C108.444 4.59263 109.031 4.32196 109.664 4.23174C111.064 4.00618 112.465 3.73551 113.865 3.50995C114.407 3.41972 114.995 3.46483 115.582 3.37461C116.666 3.14905 117.796 3.3295 118.789 2.60771C119.06 2.38215 119.648 2.60771 120.054 2.5626C121.681 2.38215 123.262 2.24682 124.843 2.02126C125.34 1.97614 125.837 1.84081 126.334 1.75058C128.051 1.52503 129.767 1.29947 131.484 1.11902C133.11 0.938572 134.782 0.758125 136.408 0.577677C136.86 0.532566 137.357 0.577677 137.764 0.713013C138.893 1.07391 139.164 1.52503 139.164 2.78816C139.164 3.23928 138.351 4.00618 137.718 4.23174C137.673 4.23174 137.583 4.27685 137.447 4.36707C137.402 5.26931 137.357 6.17154 137.357 7.07378C137.357 8.20158 137.402 9.28426 137.447 10.4121C137.538 12.397 137.764 14.427 137.628 16.4119C137.538 18.1262 137.764 19.7953 137.764 21.4645C137.764 22.7727 137.673 24.0358 137.718 25.3441C137.809 27.5546 137.583 29.7199 137.583 31.9304C137.583 32.156 137.492 32.4266 137.447 32.6522C137.402 32.8326 137.221 33.1033 137.267 33.2386C137.538 34.0507 137.267 34.7724 137.041 35.5393C136.86 36.0807 136.86 36.622 136.408 37.0731C136.137 37.3438 136.137 37.8852 136.002 38.2912C135.64 39.419 135.324 40.5468 134.963 41.6746C134.917 41.855 134.827 41.9903 134.782 42.1708C134.601 42.7121 134.42 43.2535 134.195 43.7497C134.014 44.2459 133.878 44.8324 133.517 45.1933C132.839 45.9151 132.523 46.8173 132.207 47.6744C132.026 48.1255 131.845 48.5316 131.62 48.9376C131.123 49.8398 130.535 50.6969 129.993 51.554C129.903 51.6894 129.858 51.9149 129.722 52.0052C128.864 52.4563 128.773 53.4036 128.231 54.0352C127.689 54.6668 127.328 55.4337 126.65 55.975C126.063 56.4261 125.566 57.0577 125.159 57.6441C124.753 58.1855 124.391 58.7268 123.804 59.1328C122.765 59.8095 122.223 60.8922 121.545 61.8847C121.455 62.02 121.364 62.1102 121.274 62.2004C120.325 63.1478 119.377 64.0951 118.383 64.9523C117.66 65.5387 116.892 66.0349 116.485 66.8921C116.44 66.9372 116.395 67.0274 116.35 67.0725C115.266 67.7943 114.136 68.471 113.052 69.1928C112.42 69.5988 111.787 69.9146 111.381 70.6815C110.974 71.4935 110.025 71.6739 109.257 72.0799C108.58 72.4408 107.857 72.6664 107.495 73.3882C107.45 73.5235 107.315 73.6137 107.179 73.6588C106.185 74.0197 105.417 74.8317 104.333 75.1024C103.61 75.2829 102.933 75.8242 102.436 76.4107C102.074 76.8618 101.668 77.1324 101.171 77.3129C100.538 77.5836 99.9057 77.764 99.3184 78.0798C98.8667 78.3054 98.5504 78.7565 98.0987 78.982C97.0144 79.5234 95.9754 80.2001 94.7556 80.4256C94.3942 80.5158 94.0328 80.6963 93.7165 80.9218C92.6775 81.5534 91.5933 82.0496 90.4187 82.3203C90.3735 82.3203 90.238 82.3203 90.238 82.3654C89.2441 83.403 87.8436 83.4481 86.5787 83.7639C86.0817 83.8992 85.5848 84.0346 85.133 84.3503C84.5909 84.7112 83.8681 84.8015 83.2356 85.027C82.6935 85.2526 82.1514 85.5684 81.5189 85.433C81.4737 85.433 81.3382 85.433 81.293 85.4781C80.8865 86.0646 80.1636 85.7488 79.6215 86.1097C79.1246 86.4706 78.4921 86.651 77.9048 86.8766C77.7241 86.9668 77.4982 86.9668 77.2723 86.9668C77.0916 86.9668 76.8206 86.9668 76.7754 87.0119C76.5043 87.6886 75.6912 87.3277 75.3298 87.7788C75.2394 87.8691 75.0135 87.9593 74.9232 87.9142C74.2004 87.5082 73.6131 88.1848 72.9806 88.0946C72.8902 88.0946 72.7547 88.1397 72.7095 88.23C72.3933 88.9517 71.7608 88.5457 71.3091 88.5909C70.6766 88.636 69.999 88.1848 69.502 88.9066C69.4568 88.9969 69.1406 88.8615 69.0051 88.9066C68.5533 88.9969 68.1015 89.1773 67.6498 89.1322C67.0625 89.042 67.0173 89.448 66.8818 89.7638C66.5204 89.4029 66.2493 88.7262 65.9331 89.6735C65.0747 89.5833 64.3971 90.666 63.4032 89.9893C63.2225 89.8991 62.7707 90.2149 62.4545 90.3051C62.1383 90.3953 61.7317 90.666 61.4606 90.5758C60.8281 90.26 60.2409 90.6209 59.6987 90.7562C59.1114 90.8916 58.6597 90.8464 58.1627 90.7111C57.5754 91.2524 56.7623 91.5231 56.0395 91.3427C55.3166 91.1622 54.7293 91.2976 54.0969 91.4329C53.5999 91.5682 53.103 91.9742 52.606 91.4329C52.1543 91.6585 51.6573 91.7938 51.2056 91.6133C50.5279 91.3427 49.8955 91.4329 49.263 91.6585C49.1275 91.7036 48.9016 91.7036 48.7661 91.6133C48.1336 91.2524 47.5915 91.2525 47.0042 91.7938C46.8235 91.9742 46.2814 91.9291 46.0103 91.7938C45.2423 91.4329 44.5195 91.4329 43.7515 91.6585C43.6611 91.7036 43.5708 91.6133 43.4352 91.6133C42.4414 91.5682 41.4475 91.478 40.4536 91.4329C40.0922 91.3878 39.776 91.6133 39.3242 91.3878C38.9628 91.2073 38.3755 91.478 37.8785 91.5231C37.3816 91.6133 36.9298 91.9742 36.3877 91.5682C36.2522 91.478 35.8908 91.478 35.7553 91.5682C35.439 91.7938 35.2583 91.9291 34.9421 91.6133C34.8969 91.5682 34.671 91.5682 34.5807 91.6133C33.9934 91.7938 33.5416 91.7487 33.0447 91.2524C32.7736 90.9818 32.096 91.1171 31.599 91.1171C31.2376 91.1171 30.8762 91.478 30.6052 90.8916C30.6052 90.8465 30.1082 91.0269 29.9275 91.072C29.7468 90.9367 29.5209 90.7111 29.295 90.7111C28.3915 90.8013 27.5332 90.4855 26.6748 90.3953C26.1779 90.3502 25.7261 90.26 25.1388 90.1698C25.1388 90.2149 25.0485 90.3953 25.0033 90.5307C24.3708 90.0344 23.7835 89.7638 22.9252 90.0795C22.4282 90.26 21.7054 89.854 21.1181 89.6735C20.9374 89.6284 20.8019 89.4029 20.6212 89.2675C20.4405 89.1322 20.2598 89.042 20.0339 88.9066C19.808 88.9969 19.4918 88.9969 19.2659 89.1322C18.7689 89.4029 18.3624 89.7187 17.9106 88.9969C17.7751 88.7713 17.1878 88.8164 16.8264 88.7713C16.0584 88.6811 15.2904 88.5457 14.5675 88.4555C13.5737 87.9142 12.8057 87.0119 11.5407 87.1473C10.9986 87.1924 10.592 87.0571 10.1403 86.7413C9.37225 86.1999 8.46873 85.8841 7.52002 85.8841C7.24896 85.8841 6.97791 85.5684 6.70685 85.433C5.80332 86.1548 5.21603 84.8917 4.35768 85.2526C4.13179 82.9519 3.77038 80.8316 3.95109 78.6211C4.04144 77.6287 3.72521 76.5911 3.63485 75.5535C3.58968 75.0122 3.68003 74.4257 3.68003 73.8844C3.68003 73.6588 3.68003 73.4784 3.68003 73.2528C3.58968 72.0799 3.45415 70.907 3.3638 69.7341C3.27344 68.5161 3.22827 67.2981 3.13791 66.0801C3.09274 65.268 2.82168 64.456 3.04756 63.5989C3.13791 63.3282 2.82168 62.832 2.86685 62.426C2.86685 62.2455 2.82168 62.02 2.91203 61.8847C3.5445 60.802 3.18309 59.7193 2.95721 58.5915C2.7765 57.8697 2.7765 57.1479 2.7765 56.381C2.73133 54.757 2.82168 53.0878 2.5958 51.4638C2.46027 50.2909 2.23439 49.1631 2.27956 47.9451C2.27956 47.6744 2.05368 47.4038 2.46027 47.2233C2.55062 47.1782 2.55062 46.9526 2.55062 46.8624C2.46027 45.7346 2.36991 44.5617 2.27956 43.4339C2.27956 43.2535 2.23439 43.073 2.27956 42.8926C2.55062 42.1257 2.36991 41.3588 2.23439 40.5919C2.05368 39.6896 2.14403 38.7423 2.23439 37.7949C2.14403 37.3438 2.27956 36.7122 2.0085 36.0356C1.87297 35.7198 1.78262 35.2687 1.87297 34.998C2.18921 34.0958 2.09886 33.1484 2.0085 32.2913C1.91815 31.3439 2.41509 30.3064 1.69227 29.4041C1.60192 29.3139 1.69227 29.0884 1.69227 28.9079C1.51156 28.9079 1.37603 28.9079 1.28568 28.8628C1.24051 28.0959 1.19533 27.2839 1.15015 26.4719ZM100.493 68.3808C101.577 67.9296 102.481 67.5687 103.429 67.1627C103.52 67.1176 103.61 67.0274 103.655 66.9372C103.836 66.3958 104.333 66.3507 104.785 66.1703C105.056 66.0801 105.372 65.9898 105.553 65.8545C106.366 65.2229 107.089 64.456 107.992 63.8696C109.845 62.6064 111.652 61.2982 113.459 60.0351C114.588 59.2682 115.446 58.1404 116.802 57.6441C116.937 57.599 116.982 57.4186 117.118 57.3284C117.886 56.6517 118.699 55.975 119.467 55.2983C119.557 55.2081 119.693 55.1179 119.783 55.0277C120.732 53.6292 121.636 52.2758 123.036 51.2383C123.217 51.1029 123.352 50.8323 123.443 50.6067C123.94 49.7045 124.617 48.9827 125.43 48.2609C126.244 47.5842 126.921 46.7271 126.921 45.5542C126.605 45.4188 126.424 45.1031 125.972 45.4639C125.611 45.7797 125.024 45.7797 124.527 45.9151C124.211 45.3737 123.985 45.0579 123.397 44.9226C122.494 44.6519 121.59 44.2008 120.596 44.2459C120.506 44.2459 120.371 44.2008 120.28 44.1557C119.422 43.7948 118.609 43.3888 117.75 43.073C117.389 42.9377 116.982 42.8926 116.621 42.8023C116.44 42.7572 116.26 42.7572 116.079 42.7121C115.085 42.261 114.091 41.6746 113.052 41.4039C112.284 41.1783 111.561 40.9979 110.838 40.5919C110.703 40.5468 110.522 40.4565 110.432 40.5016C109.754 40.7723 109.257 40.3212 108.67 40.1408C107.947 39.9603 107.269 39.6445 106.547 39.419C105.869 39.1934 105.146 39.0581 104.469 38.8325C102.661 38.2461 100.809 37.6145 98.8667 36.9829C98.6408 37.6145 98.3697 38.2009 98.2794 38.8325C98.0535 39.9603 97.918 41.0881 97.7824 42.2159C97.7372 42.5768 97.7373 42.9828 97.6469 43.3437C97.5114 43.8399 97.2855 44.3362 97.1951 44.8775C97.1048 45.4639 97.2855 46.0955 97.1048 46.6369C96.653 48.1255 96.8337 49.7045 96.2464 51.148C95.885 52.0052 95.6591 52.9976 95.7043 53.8999C95.7947 55.4337 94.8911 56.6517 94.5749 58.005C94.349 58.9073 93.9876 59.8095 93.4907 60.6666C92.813 61.8847 92.1354 63.0124 90.7349 63.644C89.9217 64.0049 89.1537 64.5914 88.4761 65.268C87.7533 66.0349 87.0756 66.8921 86.1269 67.4334C84.6813 68.2905 83.2356 68.9672 81.6545 69.4183C80.1185 69.8243 78.5825 70.1852 77.0465 70.501C75.6008 70.8168 74.1552 71.0424 72.6644 71.2679C71.8964 71.4033 71.0832 71.5386 70.3152 71.4484C69.231 71.313 68.1919 71.3581 67.1528 71.3581C66.7914 71.3581 66.43 71.4935 66.0686 71.4032C64.5326 70.9521 62.9514 70.9972 61.4154 70.8168C60.5571 70.7266 59.7439 70.7717 58.9307 70.4108C58.0724 70.0499 57.1237 70.0048 56.2202 69.7792C55.0456 69.5086 53.871 69.283 52.6964 68.877C51.4315 68.471 50.2117 67.9296 48.9919 67.4334C48.0884 67.0725 47.1397 66.6665 46.2362 66.2154C45.5134 65.8545 44.9261 65.3583 44.2032 65.0425C42.8479 64.5011 41.7637 63.7342 40.9957 62.5162C40.7247 62.0651 40.4536 61.8847 39.9567 62.02C39.6856 62.0651 39.3242 62.0651 39.1435 61.9298C38.3755 61.3433 37.6075 60.7569 37.6075 59.6291C37.6075 59.1328 37.472 58.5915 37.3816 57.9148C37.4268 57.8697 37.6075 57.7795 37.7882 57.599C38.5562 56.8772 39.4145 56.1554 40.1374 55.3885C41.0861 54.351 40.9054 52.6367 39.9115 51.8698C39.2338 51.3285 38.4207 50.8774 37.8334 50.2458C37.6978 50.1105 37.4268 50.1105 37.2461 50.0202C36.9298 49.93 36.5684 49.8398 36.2974 49.7496C36.1618 49.0729 36.0263 48.4864 35.8908 47.9C35.7101 46.9977 35.6197 46.0955 35.439 45.1482C35.168 43.6144 34.8517 42.0806 34.7162 40.5468C34.5355 39.0581 34.4903 37.5694 34.4903 36.0807C34.4903 35.0882 34.1741 34.0958 34.7614 33.2838C34.1289 32.6071 33.5868 32.0206 32.9995 31.4342C32.864 31.2988 32.7284 31.1184 32.5477 30.983C30.9666 29.9004 29.8823 28.547 29.8372 26.4719C29.5661 26.4719 29.295 26.517 29.024 26.517C28.7981 27.8252 29.2047 29.0432 28.8433 30.2613C28.7981 30.4417 28.9336 30.6673 29.024 30.8477C29.1143 31.1635 29.3402 31.4342 29.3402 31.75C29.3402 33.0582 29.2047 34.3664 29.295 35.6747C29.3402 36.1258 28.8884 36.7123 29.024 37.1183C29.2047 37.6596 28.8433 38.0656 28.9788 38.5167C29.0692 38.8776 28.7529 39.419 29.3854 39.5994C29.4306 39.5994 29.4757 39.8701 29.4757 39.9603C29.295 41.4941 29.6564 43.073 29.2499 44.6519C29.2047 44.8324 29.2047 45.0128 29.2499 45.1933C29.3854 46.1857 28.8433 47.1331 29.2499 48.1255C28.7077 49.1631 29.024 50.2007 29.1143 51.2383C29.1595 51.6894 28.8884 51.8698 28.4367 51.8698C27.9849 51.8698 27.488 51.8247 27.0362 51.8247C25.455 51.7796 23.919 51.7345 22.2475 51.6894C22.2023 51.0578 22.2023 50.4262 22.0668 49.8398C21.8861 49.1631 22.0216 48.4864 22.112 47.8098C22.1572 47.6293 22.1572 47.4038 22.112 47.2684C21.7958 46.682 21.9313 46.0053 21.8861 45.3737C21.8409 44.7873 21.8861 44.1557 21.7958 43.5692C21.5699 42.4866 21.6151 41.449 21.7958 40.3663C21.8409 40.0956 21.9313 39.7347 21.7958 39.5092C21.3892 38.5618 21.3892 37.5694 21.4343 36.622C21.5247 35.3589 21.3892 34.0507 21.7958 32.7875C21.8409 32.6071 21.8861 32.3815 21.7958 32.2462C21.4795 31.7499 21.2085 31.2537 21.7958 30.7575C21.8409 30.7124 21.8409 30.5319 21.7958 30.4417C21.2536 29.8553 21.5247 29.1786 21.5699 28.5019C21.5699 28.3666 21.4343 28.1861 21.4343 28.1861C21.0729 28.2312 20.7567 28.2763 20.4856 28.3215C19.1304 28.547 17.7299 28.7275 16.3746 29.0432C15.6518 29.2237 15.0645 29.9004 14.2061 29.5395C14.1158 29.4944 13.9802 29.5395 13.9351 29.5846C13.2574 30.2161 12.3991 29.8553 11.5859 29.9906C10.9986 30.0808 10.3661 30.0808 9.82402 30.3966C9.32708 30.7124 8.87531 30.8026 8.3332 30.7575C7.88143 30.7124 7.42967 30.7575 6.93273 30.7575C6.93273 31.4342 6.88755 32.1108 6.93273 32.7875C7.02308 33.78 7.15861 34.7724 7.24896 35.7198C7.33932 36.622 7.33932 37.6145 7.42967 38.5167C7.5652 40.1859 7.92661 41.855 7.7459 43.5692C7.65555 44.3361 7.65555 45.0579 7.70073 45.8248C7.83626 47.5842 8.01696 49.2985 8.19767 50.9225C7.33932 51.1931 6.61649 51.3736 5.89367 51.5992C5.8485 51.96 5.80332 52.2758 5.80332 52.5916C5.89367 53.539 6.20991 54.4412 7.11343 54.8923C7.65555 55.163 8.42355 55.0728 8.55908 55.9299C9.59813 56.1554 9.91437 57.1479 10.4565 57.8246C11.4504 59.0426 12.3539 60.3508 13.2574 61.614C13.664 62.2004 14.1158 62.7418 14.2061 63.5087C14.2513 63.7793 14.4772 64.05 14.6579 64.3207C15.0645 64.9071 15.5162 65.4936 16.0584 66.2154C13.6188 66.1703 11.36 65.4485 9.2819 66.4861C9.01084 67.2078 8.78496 67.8394 8.55908 68.5161C8.60425 68.6063 8.73978 68.8319 8.83014 69.0123C9.19155 69.6439 9.37225 70.3206 9.2819 71.0875C9.19155 71.8092 8.92049 72.4859 9.46261 73.1626C9.55296 73.2528 9.46261 73.5235 9.41743 73.6588C9.10119 74.8769 9.50778 76.0047 9.59814 77.2227C11.089 76.4107 11.8118 76.4107 12.3991 77.1776C12.4894 77.0873 12.5798 76.9971 12.7153 76.9069C12.7153 76.9069 12.7605 76.9069 12.896 76.952C13.7092 78.1249 15.1548 78.0798 16.4198 78.3505C16.8715 78.4407 17.3685 78.4407 17.6847 78.8016C18.7238 79.9294 20.0339 79.5234 21.2988 79.5234C21.1633 79.2076 21.0278 78.9369 20.8019 78.7565C19.808 77.8091 18.7689 76.9069 17.8654 75.9144C17.2329 75.2377 16.6005 74.6964 15.9228 74.11C15.2904 73.5686 14.7031 72.937 13.9802 72.2604C14.2965 72.2153 14.432 72.2153 14.5224 72.2153C16.2391 72.8017 18.0009 73.0724 19.808 73.1626C20.8019 73.2077 21.8861 73.3431 22.4282 74.4708C22.5638 74.7415 22.6993 74.9671 22.88 75.1926C22.9703 75.1475 23.0607 75.0573 23.151 75.0122C23.1962 74.5611 23.2414 74.11 23.2866 73.6137C25.2743 73.6137 27.2169 73.6137 29.1595 73.6137C29.3854 75.9144 29.4306 78.1249 28.2108 80.2001C29.3854 80.6512 30.3341 81.4181 31.5539 80.7414C31.8701 80.967 32.0056 81.373 32.5477 81.4181C33.135 81.4632 33.7223 81.5083 34.3096 81.4632C34.671 81.4181 35.0324 81.5083 35.439 81.5534C35.4842 81.4632 35.6197 81.2827 35.7101 81.0572C36.0263 81.4632 36.1167 82.4556 36.704 81.373C36.7491 81.3279 36.8847 81.3279 36.975 81.373C38.0593 81.5534 39.2338 81.2827 40.2277 82.0045C40.3632 82.0947 40.5891 82.185 40.7247 82.0948C41.4927 81.8241 42.351 82.6812 43.0738 81.9594C43.119 81.9143 43.2545 82.0496 43.3449 82.0496C44.5195 82.4556 45.6037 82.185 46.6428 81.5083C46.8235 81.6436 47.0042 81.9143 47.2301 81.9143C47.6818 81.9594 48.1336 81.9143 48.5402 81.9143C48.6305 81.9143 48.7209 81.8241 48.8112 81.779C49.1726 81.2827 49.7599 81.3279 50.2117 81.4632C51.1152 81.7339 52.0639 81.1925 52.9675 81.6436C53.0126 81.6888 53.103 81.6436 53.1482 81.5985C53.5096 81.1023 54.0065 81.373 54.5035 81.373C55.4973 81.373 56.4912 81.373 57.4399 81.2827C57.7562 81.2376 58.1176 80.9218 58.3886 80.967C59.2018 81.0572 59.8343 80.7414 60.5571 80.3354C60.6926 80.5158 60.783 80.6512 60.8282 80.7865C61.0992 80.7414 61.551 80.561 61.5961 80.6963C62.0027 81.2827 62.4545 80.967 62.9063 80.8316C63.2677 80.7414 63.6743 80.6963 64.0357 80.6061C64.9844 80.3805 65.9782 80.3354 66.8366 79.9294C67.9208 79.388 69.0051 79.2978 70.1345 79.1174C70.7218 79.0271 71.2639 78.6211 71.8512 79.0271C71.8964 79.0723 72.0319 79.0271 72.0319 78.982C72.3029 78.4858 72.7547 79.0271 73.1161 78.8467C73.4775 78.6663 73.9293 78.576 74.3359 78.4858C75.3298 78.2602 76.3688 78.17 77.3627 77.8542C78.8083 77.358 80.1636 76.7264 81.6093 76.1851C82.1062 76.0047 82.6032 75.7791 83.1905 75.9144C83.5519 76.0047 83.8681 75.9595 84.1392 75.6438C84.3199 75.4633 84.6361 75.4182 84.9072 75.328C85.0427 75.2829 85.2686 75.2829 85.3589 75.1926C86.2624 74.4709 87.0756 74.2002 88.0695 74.11C88.6568 74.0648 89.3344 74.11 89.6959 73.6137C90.0573 73.1175 90.509 72.8919 90.9608 72.9822C92.1806 73.2077 92.9937 72.3506 93.8521 71.8093C94.3942 71.4484 94.9815 71.2679 95.5236 71.1777C96.2464 71.0424 96.7434 70.7717 97.2403 70.2755C97.7824 69.689 98.5052 69.283 99.3184 69.283C99.7702 69.1928 100.312 68.9672 100.493 68.3808ZM37.743 34.9078C37.7882 35.4942 37.8334 36.0807 37.9689 36.6671C38.1948 37.5694 38.511 38.4265 38.6917 39.2836C39.0531 40.9979 39.3694 42.7572 39.7308 44.4715C39.8663 45.1933 40.1825 45.9151 40.1825 46.6369C40.1825 47.3586 40.3181 48.0353 40.4988 48.712C40.6343 49.2082 40.6343 49.7045 40.7247 50.1556C40.8602 50.9225 40.9505 51.7345 41.0861 52.5014C41.3571 53.8547 41.8992 55.1179 42.2607 56.4712C42.4865 57.3284 42.8479 58.2306 42.4865 59.1779C42.4414 59.3133 42.6672 59.584 42.8028 59.7644C42.9383 59.8997 43.1642 59.99 43.3449 60.1253C44.2936 61.0726 45.3778 61.7944 46.6879 62.0651C47.5011 62.2455 48.1336 62.832 48.8564 63.1929C50.3021 63.9147 51.7477 64.7267 53.374 64.9523C53.5999 64.9974 53.8258 65.1327 54.0969 65.2229C54.9552 65.5387 55.8587 65.9447 56.7623 66.0801C58.1176 66.3056 59.4729 66.8018 60.8733 66.7116C61.054 66.7116 61.2347 66.7567 61.4154 66.8018C63.3128 67.1176 65.2103 67.5236 67.1528 67.7041C69.2761 67.9296 71.4446 67.7943 73.5679 67.4785C75.7815 67.1627 77.95 66.7567 80.1185 66.2605C81.6996 65.8996 83.2356 65.3131 84.7716 64.8169C84.9975 64.7267 85.1782 64.5462 85.4041 64.456C85.8559 64.1854 86.3076 63.8696 86.8046 63.7342C87.3015 63.5538 87.4822 63.2831 87.5274 62.7869C87.5726 62.3358 87.6177 61.8395 87.7984 61.4335C88.205 60.5764 88.3406 59.6742 88.3857 58.7268C88.3857 58.5013 88.4761 58.3208 88.5664 58.1404C89.1537 56.6968 89.2893 55.1179 90.238 53.8096C90.1476 52.727 90.7801 51.7796 90.9156 50.6969C90.9608 50.4262 90.9156 50.1105 91.006 49.8849C91.3222 48.8022 91.7288 47.7195 91.9998 46.6369C92.4064 45.1031 92.7679 43.6144 93.1293 42.0806C93.1744 41.855 93.2196 41.6294 93.31 41.449C94.0328 40.3663 93.7166 38.8776 94.6653 37.8852C94.6653 37.0731 95.0718 36.3965 95.4784 35.7198C95.7043 35.404 95.6591 35.1333 95.4784 34.9078C94.6201 35.3138 93.7617 35.6296 93.0841 36.1709C92.0902 36.9378 90.9608 37.1634 89.8766 37.5694C89.47 37.7047 89.0634 37.7949 88.6568 37.9303C87.9791 38.1107 87.3015 38.2009 86.7142 38.4716C86.1269 38.7423 85.5396 38.8776 84.9523 38.8325C84.1843 38.7423 83.5519 38.9678 82.8742 39.1934C82.4676 39.3287 81.9707 39.419 81.5189 39.4641C81.0672 39.5092 80.5702 39.4641 80.1185 39.4641C78.8535 39.5092 77.6338 39.5543 76.3688 39.5994C76.0074 39.5994 75.6008 39.5994 75.2846 39.7347C74.2004 40.1859 73.1161 39.9603 72.0319 39.9603C70.8573 40.0054 69.6827 40.0505 68.5081 40.0956C67.3787 40.1408 66.2041 40.1408 65.0747 40.2761C64.0357 40.4114 63.0418 40.3663 62.0027 40.0505C61.822 40.0054 61.6413 40.0505 61.4606 40.0505C60.0602 40.0054 58.6145 40.0505 57.214 39.6445C56.4912 39.419 55.7232 39.5092 54.9552 39.419C53.103 39.1032 51.2056 38.7423 49.3533 38.3814C48.3143 38.1558 47.2752 37.84 46.191 37.7498C44.655 37.5694 43.2094 37.1634 41.8089 36.622C40.4988 36.1709 39.1435 35.5393 37.743 34.9078ZM121.681 41.449C122.358 40.3663 122.539 39.2836 122.404 38.1558C122.404 37.9754 122.449 37.7949 122.449 37.6145C122.494 36.8025 122.584 35.9905 122.539 35.1784C122.494 34.5469 122.449 33.9604 122.629 33.2838C122.81 32.6973 123.081 32.0206 122.765 31.3439C122.675 31.1635 122.765 30.8477 122.855 30.6222C123.172 29.6748 123.036 28.7275 123.036 27.735C123.036 27.0583 123.036 26.3816 123.081 25.705C123.126 25.1185 123.262 24.4869 123.307 23.9005C123.443 22.2765 123.578 20.6524 123.668 18.9833C123.668 18.8931 123.623 18.7577 123.623 18.6675C123.578 17.8555 123.533 17.0435 123.578 16.2315C123.623 15.239 123.804 14.2466 123.849 13.2541C123.94 12.1714 123.985 11.0887 123.985 10.0061C123.985 9.32937 123.985 8.60758 123.985 7.88579C123.307 7.97602 122.675 8.02113 122.087 8.20158C119.377 9.01359 116.576 9.32937 113.82 9.91583C112.555 10.1865 111.381 10.9083 110.025 10.8181C109.077 11.8556 107.676 11.3594 106.547 11.8105C105.417 12.2616 104.062 12.2165 102.842 12.4421C102.661 12.4872 102.436 12.6225 102.255 12.6225C101.577 12.7579 100.854 12.8481 100.177 13.0285C99.4539 13.209 98.7763 13.5248 98.0987 13.7954C98.0083 13.8406 97.8728 13.7954 97.7824 13.7954C96.6078 13.8857 95.3881 13.9759 94.2135 14.1112C93.6714 14.2015 93.1293 14.427 92.4968 14.6526C92.7678 14.9232 92.9034 15.1037 93.0841 15.1939C94.6653 15.8255 96.0657 16.7277 97.421 17.7202C98.3697 18.442 99.2281 19.254 100.086 20.0209C100.674 20.5171 101.125 21.0584 101.171 21.9156C101.216 22.5923 101.577 23.2689 101.713 23.9907C101.848 24.9381 102.029 25.9305 101.984 26.8779C101.939 27.9154 101.668 28.953 100.99 29.765C100.403 30.4868 99.7702 31.2086 99.0474 32.0206C99.3636 32.3815 99.5895 32.7424 99.9057 32.8777C100.945 33.374 101.984 33.8251 103.068 34.186C103.836 34.4567 104.649 34.592 105.417 34.9078C106.998 35.5393 108.625 36.1258 110.161 36.9378C110.884 37.2987 111.516 37.7047 112.329 37.6596C112.374 37.6596 112.465 37.7047 112.51 37.7498C113.052 38.3814 113.82 38.3814 114.498 38.6069C115.356 38.9227 116.214 39.3738 117.073 39.6896C118.564 40.1408 120.009 40.6821 121.364 41.449C121.41 41.4941 121.545 41.449 121.681 41.449ZM98.4601 22.9983C97.1951 22.3667 96.0205 21.7351 94.846 21.1487C94.1231 20.7878 93.3551 20.4269 92.6323 20.066C91.6836 19.6149 90.7801 19.1186 89.7862 18.7577C88.1147 18.1713 86.4432 17.6751 84.7716 17.2239C83.6874 16.9082 82.5128 16.6375 81.3834 17.0435C80.3443 17.3593 79.3505 17.7202 78.3114 18.036C77.4079 18.3066 76.5495 18.6224 75.646 18.8029C74.7425 18.9833 73.8841 19.3893 72.9354 19.254C72.7547 19.254 72.5288 19.3442 72.3481 19.4344C71.4446 19.8855 70.4055 19.9758 69.4117 20.2464C69.2761 20.2915 69.1406 20.3367 69.0051 20.3367C68.3726 20.2013 67.8305 20.4269 67.2432 20.5622C66.8366 20.6524 66.3397 20.6524 65.9331 20.6524C65.4813 20.6524 64.8488 20.472 64.5778 20.6976C63.8098 21.3742 62.9966 21.2389 62.1834 21.1487C60.6023 20.9682 59.0663 21.7802 57.4851 21.4645C57.3496 21.4193 57.214 21.5096 57.0785 21.5096C55.6329 21.7351 54.2324 22.0058 52.7868 22.1862C52.0639 22.2765 51.3863 22.3667 50.799 22.8178C50.7086 22.908 50.5279 22.9983 50.3924 22.9531C49.3082 22.7276 48.3595 22.9983 47.3204 23.314C46.7331 23.4945 45.9651 23.5396 45.2423 23.4945C44.6098 23.4494 43.7515 23.314 43.119 23.9456C42.8479 24.2614 42.3058 24.3516 41.8541 24.4418C40.544 24.5772 39.279 24.7576 38.0141 25.1185C37.8334 25.1636 37.6075 25.2087 37.472 25.1185C36.9298 24.8027 36.5233 25.2538 35.936 25.1636C36.1167 25.3892 36.1618 25.5696 36.2522 25.6147C37.0654 25.9756 37.8785 26.4268 38.7369 26.6523C40.4536 27.1034 42.1703 27.5546 43.887 27.8252C45.0164 28.0057 46.1007 28.5019 47.3656 28.3215C48.0884 28.1861 48.9016 28.5921 49.6696 28.7275C51.0249 28.9981 52.335 29.3139 53.6903 29.5846C54.1872 29.6748 54.6842 29.7199 55.1811 29.765C55.9943 29.8101 56.8074 29.8101 57.6206 29.8553C58.7049 29.9004 59.7891 29.8101 60.8282 29.9455C62.2738 30.1259 63.6743 30.577 65.1651 30.3515C65.3458 30.3064 65.5265 30.3966 65.7072 30.3966C66.7914 30.3966 67.8757 30.4417 68.9147 30.3515C69.9538 30.2613 70.9928 30.3515 71.9867 29.9906C72.2126 29.9004 72.6192 29.9455 72.7999 30.1259C73.1161 30.3966 73.3872 30.2613 73.7034 30.171C74.0197 30.0808 74.2907 29.9004 74.6069 29.8553C75.8267 29.8553 77.0013 29.1335 78.3114 29.4944C78.4469 29.5395 78.6728 29.4492 78.8535 29.4041C79.7119 29.2688 80.5251 29.1335 81.3834 29.0432C82.2869 28.9079 83.2356 28.8628 84.1392 28.7275C85.4944 28.5019 86.8046 28.2312 88.1599 27.9154C89.0634 27.6899 90.0573 27.5546 90.7801 27.0583C92.2709 26.0659 93.8973 25.4794 95.5236 24.8027C96.653 24.4418 97.6017 24.0358 98.4601 22.9983ZM33.903 28.7275C33.8578 28.7726 33.8127 28.8628 33.7675 28.9079C34.4 29.3139 34.9873 29.765 35.6649 30.0357C37.3816 30.7124 39.0983 31.2988 40.8602 31.8853C41.312 32.0206 41.7637 32.0206 42.2155 32.1108C43.3449 32.3815 44.4291 32.6973 45.5585 32.968C47.1397 33.3289 48.7661 33.6446 50.3472 34.0055C50.5279 34.0507 50.7086 34.1409 50.8893 34.1409C52.0639 33.8702 53.103 34.7724 54.2776 34.592C56.4009 35.3589 58.7049 34.9529 60.8282 35.7198C60.8733 35.7649 60.9637 35.7649 61.054 35.7649C62.1383 35.9002 63.1773 36.0356 64.2616 36.1258C65.1651 36.216 66.1138 36.216 67.0625 36.3062C68.2371 36.4416 69.4117 36.5769 70.5862 36.3514C70.9025 36.3062 71.2639 36.3062 71.535 36.3965C72.3933 36.622 73.2516 36.4867 74.11 36.3062C74.6069 36.1709 75.1039 36.1258 75.6008 36.0356C77.0013 35.81 78.4469 35.6296 79.8474 35.404C80.254 35.3589 80.7057 35.0431 81.0672 35.0882C81.6545 35.1333 82.1966 34.9529 82.7387 34.8176C83.7326 34.6371 84.6361 34.2762 85.63 34.0958C86.9401 33.8251 88.0695 33.1935 89.3344 32.8777C89.741 32.7875 90.1476 32.6522 90.5542 32.562C91.1867 32.4266 91.8191 32.3364 92.4516 32.156C92.9034 32.0206 93.3551 31.7499 93.8069 31.5695C94.846 31.0733 95.9302 30.6222 96.9693 30.0357C97.7824 29.5395 98.5052 28.9079 99.2732 28.3215C100.764 27.1937 100.809 26.923 100.177 25.0734C99.4088 25.6147 98.686 26.2012 97.8728 26.6072C96.7434 27.1937 95.5236 27.735 94.349 28.2312C92.3613 29.0432 90.3735 29.9004 88.2502 30.3515C86.4883 30.7124 84.7716 31.1635 83.0098 31.5244C82.3321 31.6597 81.6545 31.7048 80.9768 31.8402C80.254 31.9755 79.486 32.2913 78.7632 32.2011C76.8206 31.9755 75.0587 32.968 73.1161 32.968C71.7157 32.968 70.3152 33.3289 68.9599 33.2838C68.3274 33.2838 67.7853 33.5093 67.198 33.5093C65.0747 33.5093 62.9514 33.4642 60.9185 32.7875C60.6926 32.7424 60.5119 32.6522 60.286 32.6522C59.0663 32.6071 57.8465 32.6071 56.6267 32.562C55.4522 32.5169 54.2776 32.5169 53.103 32.3815C51.3411 32.2011 49.5792 31.75 47.7722 31.75C46.5524 31.75 45.2875 31.3891 44.0677 31.1184C42.9835 30.8928 41.9444 30.5319 40.8602 30.3064C38.4658 29.6748 36.1618 29.2237 33.903 28.7275ZM128.005 6.71289C128.096 7.88579 128.141 8.83314 128.186 9.78049C128.231 10.9083 128.231 12.0361 128.367 13.1188C128.502 13.9308 128.548 14.7428 128.457 15.5548C128.367 16.457 128.276 17.4044 128.457 18.2615C128.638 19.0735 128.683 19.8404 128.683 20.6976C128.638 22.096 128.683 23.4945 128.728 24.8478C128.728 25.4343 128.999 25.9756 128.773 26.6072C128.593 27.1937 128.728 27.9154 128.773 28.547C128.909 29.765 129.316 30.983 129.225 32.2011C129.135 33.5093 129.451 34.7724 129.451 36.0356C129.451 37.2085 129.541 38.3363 129.18 39.5092C128.954 40.231 129.044 41.1332 128.954 41.9452C128.954 42.0354 129.09 42.1257 129.225 42.3061C129.361 41.9903 129.496 41.7648 129.587 41.4941C129.677 41.1783 129.722 40.7723 129.858 40.5016C130.309 39.7347 130.716 38.9227 131.258 38.2009C132.026 37.1183 132.388 35.9454 132.297 34.6371C132.297 34.4567 132.252 34.2762 132.297 34.0958C132.433 32.7875 132.613 31.4793 132.794 30.171C132.975 28.7726 133.156 27.329 133.246 25.9305C133.291 25.299 133.517 24.6674 133.201 24.0358C133.11 23.8103 133.201 23.4945 133.246 23.2238C133.291 22.8629 133.381 22.502 133.381 22.1862C133.381 21.1938 133.336 20.2013 133.381 19.2089C133.427 17.6751 133.472 16.1413 133.562 14.6075C133.607 13.7052 133.788 12.8481 133.878 11.991C134.014 10.1865 134.104 8.33691 134.24 6.53244C134.24 6.21666 134.24 5.90087 134.24 5.49487C132.839 5.76554 131.529 5.67531 130.355 6.3971C130.084 6.53244 129.767 6.57755 129.451 6.62266C128.954 6.66777 128.457 6.66777 128.005 6.71289ZM48.9919 81.9143C48.9919 81.9594 48.9919 82.0045 48.9919 82.0496C49.3533 82.0496 49.7148 82.0496 50.0762 82.0496C50.0762 82.0045 50.0762 81.9594 50.0762 81.9143C49.7148 81.9143 49.3533 81.9143 48.9919 81.9143Z" fill="#1E1F44"/>
<path d="M100.493 68.3784C100.312 68.9648 99.7702 69.1904 99.0022 69.1904C98.189 69.2355 97.5114 69.6415 96.9241 70.1828C96.4272 70.6791 95.9302 70.9497 95.2074 71.0851C94.6653 71.1753 94.078 71.4009 93.5359 71.7166C92.6775 72.258 91.9095 73.1151 90.6446 72.8895C90.1928 72.7993 89.7411 73.0249 89.3796 73.5211C89.0182 74.0173 88.2954 73.9722 87.7533 74.0173C86.7594 74.1076 85.9462 74.4234 85.0427 75.1C84.9072 75.1903 84.7265 75.1903 84.5909 75.2354C84.3199 75.3256 84.0036 75.3707 83.8229 75.5511C83.5519 75.8669 83.2356 75.9571 82.8742 75.8218C82.2869 75.6414 81.79 75.8669 81.2931 76.0925C79.8926 76.6338 78.4921 77.3105 77.0465 77.7616C76.0978 78.0774 75.0135 78.1676 74.0197 78.3932C73.6131 78.4834 73.1613 78.5736 72.7999 78.7541C72.4385 78.9345 72.0319 78.3932 71.7157 78.8894C71.7157 78.9345 71.5801 78.9796 71.535 78.9345C70.9477 78.5285 70.3604 78.9345 69.8183 79.0248C68.6889 79.2052 67.6046 79.2954 66.5204 79.8368C65.662 80.2428 64.6682 80.2879 63.7194 80.5135C63.358 80.6037 62.9514 80.6488 62.59 80.739C62.1383 80.8743 61.6865 81.1901 61.2799 80.6037C61.2347 80.5135 60.783 80.6488 60.5119 80.6939C60.4667 80.6037 60.3764 80.4683 60.2409 80.2428C59.5632 80.6488 58.8856 81.0097 58.0724 80.8743C57.7562 80.8292 57.4399 81.1901 57.1237 81.1901C56.1298 81.2804 55.1811 81.2803 54.1872 81.2803C53.6903 81.2803 53.2385 81.0548 52.8319 81.5059C52.7868 81.551 52.6964 81.5961 52.6512 81.551C51.7477 81.0999 50.799 81.5961 49.8955 81.3706C49.4437 81.2352 48.9016 81.2352 48.495 81.6864C48.4498 81.7766 48.3143 81.8217 48.2239 81.8217C47.7722 81.8668 47.3204 81.9119 46.9138 81.8217C46.6879 81.7766 46.5072 81.551 46.3265 81.4157C45.2875 82.0924 44.2032 82.363 43.0287 81.957C42.9383 81.9119 42.8028 81.8217 42.7576 81.8668C42.0348 82.5886 41.1764 81.7315 40.4084 82.0021C40.2729 82.0472 40.047 82.0021 39.9115 81.9119C38.9176 81.145 37.743 81.4608 36.6588 81.2803C36.5684 81.2803 36.3877 81.2352 36.3877 81.2803C35.8004 82.363 35.7101 81.3706 35.3939 80.9646C35.2583 81.1901 35.168 81.3706 35.1228 81.4608C34.7162 81.4157 34.3548 81.3255 33.9934 81.3706C33.4061 81.4157 32.8188 81.4157 32.2315 81.3255C31.6894 81.2803 31.599 80.8743 31.2376 80.6488C30.0179 81.3255 29.0692 80.5586 27.8946 80.1074C29.0692 78.0323 29.024 75.8218 28.8433 73.5211C26.9007 73.5211 24.9581 73.5211 22.9703 73.5211C22.9252 74.0625 22.88 74.4685 22.8348 74.9196C22.7445 74.9647 22.6541 75.0549 22.5638 75.1C22.4282 74.8745 22.2475 74.6489 22.112 74.3782C21.5699 73.2504 20.5308 73.1151 19.4918 73.07C17.6847 72.9798 15.9228 72.7091 14.2061 72.1226C14.1158 72.0775 13.9802 72.1227 13.664 72.1678C14.3868 72.8444 14.9741 73.5211 15.6066 74.0173C16.2842 74.5587 16.9619 75.1451 17.5492 75.8218C18.4527 76.8143 19.4918 77.7165 20.4856 78.6639C20.7115 78.8894 20.8471 79.115 20.9826 79.4308C19.6725 79.4308 18.3624 79.8368 17.3685 78.709C17.0522 78.3481 16.5553 78.3481 16.1035 78.2579C14.8386 77.9421 13.4381 78.0323 12.5798 76.8594C12.4894 76.8143 12.4442 76.8143 12.3991 76.8143C12.3087 76.9045 12.1732 76.9947 12.0828 77.0849C11.5407 76.318 10.7727 76.3181 9.2819 77.1301C9.19155 75.912 8.78496 74.7842 9.10119 73.5662C9.14637 73.3858 9.19155 73.1602 9.14637 73.07C8.60425 72.3933 8.87531 71.6715 8.96566 70.9949C9.05602 70.2731 8.87531 69.5964 8.5139 68.9197C8.42355 68.7393 8.28802 68.5588 8.24284 68.4235C8.5139 67.7468 8.73978 67.1152 8.96566 66.3934C11.0438 65.3559 13.3026 66.0777 15.7421 66.1228C15.2 65.401 14.7482 64.8145 14.3417 64.2281C14.1609 63.9574 13.8899 63.6867 13.8899 63.4161C13.7995 62.6492 13.3478 62.1078 12.9412 61.5214C12.0377 60.2131 11.1341 58.95 10.1402 57.732C9.59813 57.0553 9.2819 56.0628 8.24284 55.8373C8.10731 55.0253 7.33931 55.0704 6.7972 54.7997C5.89367 54.3486 5.57743 53.4463 5.48708 52.499C5.44191 52.1832 5.53226 51.8674 5.57743 51.5065C6.25508 51.281 6.9779 51.1005 7.88143 50.8299C7.70072 49.2058 7.52002 47.4465 7.38449 45.7322C7.33931 45.0104 7.38449 44.2435 7.42967 43.4766C7.61037 41.7624 7.24896 40.1384 7.11343 38.4241C7.02308 37.5219 7.02308 36.5294 6.93273 35.6272C6.84237 34.6798 6.75202 33.6422 6.61649 32.6949C6.52614 32.0182 6.61649 31.3415 6.61649 30.6649C7.11343 30.6649 7.5652 30.6198 8.01696 30.6649C8.55908 30.71 9.05602 30.5746 9.50778 30.304C10.0047 29.9882 10.6372 29.9882 11.2697 29.898C12.0377 29.7626 12.896 30.1686 13.6188 29.492C13.664 29.4468 13.8447 29.4017 13.8899 29.4468C14.7482 29.7626 15.3355 29.1311 16.0584 28.9506C17.4136 28.6348 18.8141 28.4544 20.1694 28.2288C20.4405 28.1837 20.7567 28.1386 21.1181 28.0935C21.1181 28.1386 21.2988 28.2739 21.2536 28.4093C21.2085 29.086 20.9374 29.7626 21.4795 30.3491C21.5247 30.3942 21.5247 30.6198 21.4795 30.6649C20.8922 31.1611 21.2085 31.6573 21.4795 32.1536C21.5699 32.2889 21.5247 32.5145 21.4795 32.6949C21.0729 33.958 21.2085 35.2212 21.1181 36.5294C21.0729 37.4768 21.0278 38.4692 21.4795 39.4166C21.5699 39.6421 21.5247 40.003 21.4795 40.2737C21.2536 41.3564 21.2085 42.3939 21.4795 43.4766C21.6151 44.0631 21.5699 44.6946 21.5699 45.2811C21.6151 45.9127 21.4795 46.5442 21.7958 47.1758C21.8861 47.3111 21.8409 47.5367 21.7958 47.7171C21.7054 48.3938 21.5247 49.0254 21.7506 49.7472C21.8861 50.3336 21.8861 50.9652 21.9313 51.5968C23.5576 51.6419 25.1388 51.687 26.72 51.7321C27.1717 51.7321 27.6687 51.7321 28.1205 51.7772C28.5722 51.7772 28.8433 51.6419 28.7981 51.1456C28.7529 50.1081 28.4367 49.0254 28.9336 48.0329C28.527 47.0405 29.1143 46.0931 28.9336 45.1007C28.8885 44.9202 28.8885 44.7398 28.9336 44.5593C29.295 43.0255 28.9788 41.4466 29.1595 39.8677C29.1595 39.7323 29.1143 39.5068 29.0692 39.5068C28.4367 39.3263 28.7529 38.785 28.6626 38.4241C28.527 37.973 28.8885 37.567 28.7077 37.0256C28.5722 36.6196 29.024 36.0783 28.9788 35.5821C28.8433 34.2738 29.024 32.9656 29.024 31.6573C29.024 31.3415 28.7981 31.0709 28.7077 30.7551C28.6174 30.5746 28.4819 30.304 28.527 30.1686C28.8884 28.9506 28.4819 27.6875 28.7077 26.4244C28.9788 26.4244 29.2499 26.3792 29.5209 26.3792C29.5661 28.4544 30.6052 29.8529 32.2315 30.8904C32.4122 31.0258 32.5477 31.1611 32.6833 31.3415C33.2706 31.928 33.8127 32.5145 34.4451 33.1911C33.8579 34.0031 34.1741 35.0407 34.1741 35.9881C34.1741 37.4768 34.2193 38.9654 34.4 40.4541C34.5807 41.9879 34.8969 43.5217 35.1228 45.0555C35.2583 45.9578 35.3938 46.9051 35.5746 47.8074C35.6649 48.3938 35.8456 48.9803 35.9811 49.6569C36.2974 49.7472 36.6136 49.8374 36.9298 49.9276C37.1557 49.9727 37.3816 50.0178 37.5171 50.1532C38.1496 50.8299 38.9176 51.2359 39.5953 51.7772C40.5891 52.5441 40.815 54.2584 39.8211 55.2959C39.0983 56.0628 38.2851 56.7846 37.472 57.5064C37.3364 57.6417 37.1106 57.7771 37.0654 57.8222C37.1557 58.4989 37.2913 59.0402 37.2913 59.5364C37.2913 60.6642 38.0593 61.2507 38.8273 61.8371C39.008 61.9725 39.3694 61.9725 39.6404 61.9274C40.1374 61.792 40.4084 61.9725 40.6795 62.4236C41.4475 63.6416 42.5317 64.4536 43.887 64.9499C44.6098 65.2205 45.2423 65.7619 45.9199 66.1228C46.8235 66.5739 47.727 66.9799 48.6757 67.3408C49.8955 67.837 51.1152 68.3784 52.3802 68.7844C53.5096 69.1453 54.7293 69.3708 55.9039 69.6866C56.8075 69.9122 57.7562 70.0024 58.6145 70.3182C59.4277 70.634 60.286 70.5888 61.0992 70.7242C62.6352 70.9046 64.2616 70.8595 65.7524 71.3106C66.0686 71.4009 66.4752 71.2655 66.8366 71.2655C67.8757 71.2655 68.9599 71.2204 69.999 71.3557C70.767 71.446 71.5801 71.3106 72.3481 71.1753C73.7938 70.9497 75.2846 70.6791 76.7302 70.4084C78.2662 70.0926 79.8022 69.7317 81.3382 69.3257C82.9194 68.8746 84.4102 68.1979 85.8107 67.3408C86.7594 66.7543 87.3919 65.8972 88.1599 65.1754C88.8375 64.4987 89.6055 63.9123 90.4187 63.5514C91.8192 62.9649 92.4968 61.792 93.1745 60.574C93.6714 59.7169 94.0328 58.8147 94.2587 57.9124C94.6201 56.5591 95.4784 55.341 95.3881 53.8072C95.3429 52.905 95.5688 51.9125 95.9302 51.0554C96.5627 49.6118 96.3368 48.0329 96.7886 46.5442C96.9693 46.0029 96.7886 45.3713 96.8789 44.7849C96.9693 44.2435 97.1951 43.7924 97.3307 43.2511C97.421 42.8902 97.421 42.4842 97.4662 42.1233C97.6469 40.9955 97.7824 39.8677 97.9632 38.7399C98.0987 38.1083 98.3697 37.5219 98.5504 36.8903C100.493 37.5219 102.345 38.1534 104.152 38.7399C104.83 38.9654 105.553 39.1008 106.23 39.3263C106.953 39.5519 107.631 39.8677 108.354 40.0481C108.941 40.1835 109.438 40.6797 110.116 40.409C110.206 40.3639 110.387 40.4541 110.522 40.4992C111.2 40.9053 111.968 41.0857 112.736 41.3113C113.775 41.5819 114.769 42.1684 115.763 42.6195C115.943 42.7097 116.124 42.6646 116.305 42.7097C116.711 42.8 117.073 42.8451 117.434 42.9804C118.293 43.3413 119.151 43.7022 119.964 44.0631C120.054 44.1082 120.19 44.1533 120.28 44.1533C121.274 44.1533 122.133 44.5593 123.081 44.83C123.669 45.0104 123.894 45.3262 124.211 45.8224C124.708 45.6871 125.295 45.6871 125.656 45.3713C126.108 45.0104 126.289 45.3262 126.605 45.4616C126.605 46.6345 125.927 47.4916 125.114 48.1683C124.301 48.8449 123.623 49.5667 123.126 50.5141C122.991 50.7396 122.901 51.0103 122.72 51.1456C121.319 52.1381 120.416 53.5366 119.467 54.935C119.377 55.0253 119.286 55.1155 119.151 55.2057C118.383 55.8824 117.57 56.5591 116.802 57.2357C116.711 57.326 116.621 57.5064 116.485 57.5515C115.175 58.0478 114.272 59.1755 113.142 59.9425C111.29 61.2056 109.528 62.5589 107.676 63.777C106.818 64.3634 106.095 65.1303 105.237 65.7619C105.011 65.9423 104.74 65.9874 104.469 66.0777C104.062 66.2581 103.565 66.3032 103.339 66.8446C103.294 66.9348 103.204 67.025 103.113 67.0701C102.481 67.5664 101.577 67.9272 100.493 68.3784ZM38.1044 69.6415C36.4781 69.6415 34.9873 69.6415 33.4513 69.6415C32.5026 69.6415 31.599 69.7317 30.6503 69.7317C27.9397 69.6866 25.184 69.5964 22.4734 69.5062C21.344 69.461 20.2598 69.5062 19.1304 69.3708C17.3685 69.1453 15.6066 68.7844 13.7995 68.6039C12.6701 68.4686 11.5407 68.6039 10.2758 68.6039C10.7727 69.8219 11.4955 70.634 12.5798 70.9949C13.7544 71.3557 14.9289 71.7166 16.2391 71.7166C17.1426 71.7166 18.0009 72.0324 18.9948 72.0324C20.7567 71.9873 22.4734 72.2129 24.2353 72.2129C26.3586 72.2129 28.527 72.1678 30.6503 72.0324C33.2706 71.852 35.8456 71.5362 38.4658 71.3106C38.24 71.5362 38.0593 71.7617 37.8334 71.9873C37.6075 72.2129 37.3364 72.4384 37.1557 72.664C36.7491 73.1602 36.7491 73.9722 37.1557 74.4685C37.4268 74.8294 38.1496 74.9196 38.7369 74.5587C39.1887 74.288 39.5953 73.9271 40.047 73.6113C40.4084 73.2956 40.7698 73.0249 41.0861 72.664C41.6734 72.0324 42.2607 71.4009 42.8028 70.7693C42.9383 70.634 42.9835 70.3633 43.0287 70.1828C43.1642 69.4159 42.8028 68.8295 41.8541 68.3333C41.3571 68.0626 40.8602 67.7468 40.3633 67.4761C39.3242 67.025 38.3303 66.4386 37.0654 66.4386C37.0202 67.6115 37.7882 68.4686 38.1044 69.6415ZM33.9482 53.5366C32.8188 53.5366 31.9153 53.5366 31.0117 53.5366C27.8494 53.4915 24.6419 53.4915 21.4795 53.4012C19.4014 53.3561 17.3233 53.1757 15.2452 53.0403C14.6127 52.9952 13.9802 52.8599 13.3478 52.7246C11.8118 52.3637 10.2758 52.5441 8.73978 52.4539C8.19766 52.4088 7.7459 52.5441 7.38449 52.905C7.52002 53.717 7.97178 54.2132 8.60425 54.6193C9.64331 55.2508 10.7727 55.6568 11.9021 55.7922C14.5675 56.0628 17.2781 56.1079 19.9887 56.1531C21.4343 56.1531 22.9252 55.9726 24.3708 55.8824C25.9972 55.7922 27.5783 55.7019 29.2047 55.6117C30.6503 55.5215 32.1411 55.4313 33.6771 55.2959C33.3609 55.6568 33.0447 55.9726 32.7736 56.2884C32.4122 56.7846 32.5026 57.6869 32.9091 58.0929C33.3157 58.544 33.8127 58.2733 34.2193 58.0929C34.7614 57.8673 35.2131 57.5515 35.6649 57.1906C36.3426 56.6493 36.8847 55.9726 37.6075 55.5215C38.24 55.1155 38.4658 54.6193 38.4658 53.9426C38.4658 53.2208 38.0593 52.5892 37.472 52.2734C36.3877 51.687 35.2583 51.2359 33.9934 51.281C33.6771 51.281 33.2254 51.4163 33.135 51.5516C33.0447 51.8223 33.2254 52.2283 33.3609 52.5441C33.4964 52.8148 33.7223 53.0855 33.9482 53.5366ZM28.7077 57.7771C26.4489 57.9124 24.3708 58.0478 22.2023 58.1831C22.0216 60.9349 22.9703 63.5965 22.6541 66.4386C24.7322 66.7092 26.72 66.9348 28.7077 67.1603C28.4819 66.213 28.4819 66.213 28.7529 65.1754C28.7981 64.9499 28.8433 64.6792 28.7981 64.4085C28.6174 63.2807 29.024 62.1078 28.5722 61.0251C28.527 60.8898 28.527 60.7094 28.5722 60.6191C28.8885 59.7169 28.6174 58.8147 28.7077 57.7771Z" fill="#F9F9EC"/>
<path d="M98.4601 22.9958C97.6017 24.0334 96.6078 24.4394 95.5236 24.8905C93.8972 25.5221 92.2709 26.1086 90.7801 27.1461C90.0573 27.6424 89.0634 27.7777 88.1599 28.0033C86.8497 28.319 85.4944 28.5897 84.1391 28.8153C83.2356 28.9506 82.2869 29.0408 81.3834 29.1311C80.525 29.2213 79.6667 29.3566 78.8535 29.492C78.6728 29.5371 78.4921 29.6273 78.3114 29.5822C77.0465 29.2213 75.8719 29.9431 74.6069 29.9431C74.2907 29.9431 74.0196 30.1235 73.7034 30.2589C73.3872 30.3491 73.1161 30.4844 72.7999 30.2137C72.6192 30.0784 72.2126 29.9882 71.9867 30.0784C70.9928 30.4393 69.9538 30.3491 68.9147 30.4393C67.8757 30.5295 66.7914 30.4844 65.7072 30.4844C65.5265 30.4844 65.3458 30.4393 65.1651 30.4393C63.6743 30.6649 62.2738 30.2137 60.8281 30.0333C59.7891 29.898 58.7049 29.9431 57.6206 29.9431C56.8074 29.9431 55.9943 29.898 55.1811 29.8529C54.6842 29.8077 54.1872 29.7626 53.6903 29.6724C52.335 29.4017 51.0249 29.0859 49.6696 28.8153C48.9016 28.6348 48.0884 28.2739 47.3656 28.4093C46.1006 28.5897 45.0164 28.0935 43.887 27.913C42.1251 27.6875 40.4084 27.2364 38.7369 26.7401C37.8785 26.5146 37.0654 26.0635 36.2522 25.7026C36.1618 25.6574 36.1167 25.477 35.936 25.2514C36.5233 25.3417 36.975 24.8905 37.472 25.2063C37.6075 25.2966 37.8334 25.2514 38.0141 25.2063C39.279 24.8454 40.5439 24.665 41.8541 24.5297C42.3058 24.4845 42.8479 24.3492 43.119 24.0334C43.7515 23.4019 44.5646 23.5372 45.2423 23.5823C45.9651 23.6274 46.6879 23.5823 47.3204 23.4019C48.3595 23.0861 49.3082 22.7703 50.3924 23.041C50.4828 23.0861 50.6635 22.9507 50.799 22.9056C51.3863 22.4545 52.1091 22.3643 52.7867 22.2741C54.2324 22.0485 55.6329 21.8229 57.0785 21.5974C57.214 21.5523 57.3496 21.5072 57.4851 21.5523C59.0663 21.8681 60.6023 21.056 62.1834 21.2365C62.9966 21.3267 63.855 21.462 64.5778 20.7854C64.8488 20.5598 65.4813 20.7403 65.9331 20.7403C66.3848 20.7403 66.8366 20.7403 67.2432 20.65C67.8305 20.5147 68.3726 20.2891 69.0051 20.4245C69.1406 20.4696 69.2761 20.3794 69.4117 20.3343C70.4055 20.0636 71.3994 19.9734 72.3481 19.5222C72.5288 19.432 72.7547 19.2967 72.9354 19.3418C73.8841 19.432 74.7425 19.026 75.646 18.8907C76.5495 18.7102 77.453 18.3944 78.3114 18.1238C79.3505 17.808 80.3443 17.4471 81.3834 17.1313C82.558 16.7704 83.6874 17.0411 84.7716 17.3118C86.4883 17.7629 88.1598 18.2591 89.7862 18.8456C90.7801 19.2065 91.6836 19.7027 92.6323 20.1538C93.3551 20.5147 94.1231 20.8756 94.8459 21.2365C96.0657 21.7327 97.2403 22.3643 98.4601 22.9958ZM60.8281 22.8154C61.1896 23.3567 61.7768 23.4019 62.2738 23.447C63.4935 23.5823 64.7133 23.6725 65.8879 23.7176C68.5533 23.8981 71.2187 24.0334 73.8841 24.1688C74.2907 24.2139 74.6521 24.259 75.0587 24.3041C75.4653 24.3492 75.8267 24.3943 76.2333 24.4394C76.2333 24.5297 76.2333 24.5748 76.2333 24.665C75.1491 24.9357 74.11 25.1612 73.0258 25.4319C72.3029 25.6123 71.5801 25.9281 70.8573 26.0183C70.2248 26.0635 69.7731 26.289 69.502 26.6048C64.3519 26.0635 59.3825 25.5672 54.3679 25.071C54.3679 24.9808 54.3679 24.8905 54.3679 24.8454C56.3105 24.6199 58.0272 23.6725 59.9246 23.447C60.2409 23.4019 60.6023 23.4019 60.5119 22.8154C60.1505 22.8605 59.7891 22.8605 59.4729 22.9056C58.3886 23.041 57.2592 23.1763 56.175 23.3567C55.0004 23.5823 53.7806 23.853 52.606 24.0785C52.2446 24.1688 52.0187 24.3041 51.9284 24.665C51.838 25.0259 51.7025 25.4319 51.6573 25.8379C51.567 26.6499 51.7929 26.9206 52.6512 26.9657C55.9039 27.1461 59.1566 27.3717 62.4545 27.507C64.5778 27.5973 66.7011 27.5973 68.8244 27.6875C69.0051 27.6875 69.2761 27.7326 69.4117 27.8679C69.9989 28.5446 70.7669 28.319 71.3994 28.1837C72.5288 27.9582 73.6131 27.5973 74.7425 27.2815C76.2785 26.8755 77.8145 26.5597 79.3505 26.0635C80.0733 25.8379 80.7961 25.4319 81.4737 25.0259C81.8803 24.8003 81.8352 24.3492 81.4737 24.1688C80.9316 23.8981 80.3443 23.5823 79.757 23.5372C77.4982 23.2665 75.2394 23.041 73.0258 22.8605C70.7218 22.6801 68.4178 22.5447 66.159 22.4094C64.7133 22.3192 63.2677 22.2741 61.8672 22.1838C61.3251 22.1838 61.0089 22.2741 60.8281 22.8154Z" fill="#76B39D"/>
<path d="M33.903 28.7251C36.1618 29.2213 38.4207 29.7175 40.6795 30.2138C41.7637 30.4393 42.8028 30.8002 43.887 31.0258C45.1068 31.2964 46.3265 31.6573 47.5915 31.6573C49.3985 31.7024 51.1604 32.1085 52.9223 32.2889C54.0969 32.4242 55.2715 32.4242 56.446 32.4693C57.6658 32.5145 58.8856 32.5145 60.1053 32.5596C60.3312 32.5596 60.5119 32.6498 60.7378 32.6949C62.7707 33.3716 64.894 33.4167 67.0173 33.4167C67.6046 33.4167 68.1467 33.1911 68.7792 33.1911C70.1796 33.2362 71.5801 32.8754 72.9354 32.8754C74.878 32.8754 76.6399 31.928 78.5825 32.1085C79.3053 32.1987 80.0733 31.8829 80.7961 31.7476C81.4737 31.6573 82.1514 31.6122 82.829 31.4318C84.5909 31.0709 86.3076 30.6198 88.0695 30.2589C90.1928 29.8077 92.1805 28.9506 94.1683 28.1386C95.3881 27.6424 96.5627 27.1462 97.6921 26.5146C98.5052 26.1086 99.2281 25.5221 99.9961 24.9808C100.629 26.8304 100.538 27.101 99.0925 28.2288C98.3245 28.8153 97.6017 29.4469 96.7885 29.9431C95.7947 30.5295 94.7104 30.9807 93.6262 31.4769C93.1744 31.7024 92.7227 31.928 92.2709 32.0633C91.6384 32.2438 91.006 32.334 90.3735 32.4693C89.9669 32.5596 89.5603 32.6498 89.1537 32.7851C87.8888 33.146 86.7594 33.7325 85.4493 34.0032C84.5006 34.1836 83.5519 34.5445 82.558 34.7249C82.0159 34.8152 81.4737 35.0407 80.8865 34.9956C80.4799 34.9505 80.0733 35.2212 79.6667 35.3114C78.2662 35.537 76.8206 35.7174 75.4201 35.943C74.9232 36.0332 74.4262 36.0783 73.9293 36.2136C73.0709 36.4392 72.2578 36.5745 71.3542 36.3039C71.038 36.2136 70.6766 36.2136 70.4055 36.2587C69.2309 36.4843 68.0564 36.349 66.8818 36.2136C65.9782 36.1234 65.0295 36.1234 64.0808 36.0332C62.9966 35.943 61.9576 35.8076 60.8733 35.6723C60.783 35.6723 60.7378 35.6723 60.6474 35.6272C58.5241 34.8603 56.2202 35.3114 54.0969 34.4994C52.9223 34.6798 51.9284 33.7776 50.7086 34.0483C50.5731 34.0934 50.3472 33.958 50.1665 33.9129C48.5853 33.552 46.959 33.2363 45.3778 32.8754C44.2484 32.6047 43.1642 32.2889 42.0348 32.0182C41.583 31.928 41.0861 31.928 40.6795 31.7927C38.9628 31.2062 37.2009 30.6198 35.4842 29.9431C34.8066 29.6724 34.2193 29.1762 33.5868 28.8153C33.8127 28.8153 33.8578 28.7702 33.903 28.7251Z" fill="#76B39D"/>
<path d="M38.1044 69.6415C37.7882 68.4686 37.0202 67.6115 37.0654 66.4386C38.3303 66.4386 39.3694 67.025 40.3632 67.4761C40.8602 67.7017 41.3571 68.0626 41.8541 68.3333C42.7576 68.8295 43.1642 69.4159 43.0286 70.1828C42.9835 70.4084 42.9383 70.6339 42.8028 70.7693C42.2606 71.4008 41.6734 72.0324 41.0861 72.664C40.7698 72.9798 40.4084 73.2955 40.047 73.6113C39.6404 73.9722 39.2338 74.288 38.7369 74.5587C38.1496 74.9196 37.4268 74.8293 37.1557 74.4684C36.7943 73.9722 36.7491 73.1602 37.1557 72.664C37.3364 72.3933 37.6075 72.2129 37.8334 71.9873C38.0592 71.7617 38.2851 71.5362 38.4658 71.3106C35.8456 71.5813 33.2254 71.852 30.6503 72.0324C28.527 72.1677 26.3586 72.2129 24.2353 72.2129C22.4734 72.2129 20.7115 71.9873 18.9948 72.0324C18.0461 72.0324 17.1426 71.7166 16.2391 71.7166C14.9289 71.7166 13.7544 71.3557 12.5798 70.9948C11.4955 70.6791 10.7727 69.8219 10.2758 68.6039C11.5407 68.6039 12.6701 68.5137 13.7995 68.6039C15.5614 68.7844 17.3233 69.1453 19.1303 69.3708C20.2146 69.5062 21.344 69.461 22.4734 69.5062C25.184 69.5964 27.9397 69.6866 30.6503 69.7317C31.599 69.7317 32.5026 69.6415 33.4513 69.6415C34.9421 69.5964 36.4781 69.6415 38.1044 69.6415Z" fill="#1E1F44"/>
<path d="M33.9482 53.5366C33.6771 53.0855 33.4964 52.8148 33.3609 52.5441C33.2254 52.2283 33.0898 51.8674 33.135 51.5517C33.1802 51.3712 33.6771 51.281 33.9934 51.281C35.2583 51.2359 36.3877 51.687 37.472 52.2734C38.0592 52.5892 38.4658 53.2208 38.4658 53.9426C38.4658 54.6193 38.24 55.1155 37.6075 55.5215C36.8847 55.9726 36.3425 56.6944 35.6649 57.1906C35.2131 57.5515 34.7162 57.8673 34.2193 58.0929C33.8127 58.2733 33.3157 58.4989 32.9091 58.0929C32.5026 57.6869 32.4122 56.7395 32.7736 56.2884C32.9995 55.9726 33.3157 55.6568 33.6771 55.2959C32.096 55.3862 30.6503 55.5215 29.2047 55.6117C27.5783 55.7019 25.9972 55.7922 24.3708 55.8824C22.9252 55.9726 21.4343 56.1982 19.9887 56.1531C17.2781 56.108 14.5675 56.0628 11.9021 55.7922C10.7727 55.702 9.59813 55.2959 8.60425 54.6193C7.97178 54.2133 7.52002 53.717 7.38449 52.905C7.7459 52.5441 8.19767 52.4088 8.73978 52.4539C10.2758 52.5441 11.857 52.3186 13.3478 52.7246C13.9802 52.8599 14.6127 52.9952 15.2452 53.0403C17.3233 53.1757 19.4014 53.3561 21.4795 53.4012C24.6419 53.4915 27.8494 53.4915 31.0117 53.5366C31.9153 53.5366 32.8188 53.5366 33.9482 53.5366Z" fill="#1E1F44"/>
<path d="M28.7077 57.7771C28.6174 58.8147 28.8884 59.7169 28.5722 60.6191C28.527 60.7545 28.527 60.9349 28.5722 61.0251C29.024 62.1529 28.6174 63.2807 28.7981 64.4085C28.8433 64.6341 28.7981 64.9048 28.7529 65.1754C28.4819 66.213 28.4819 66.213 28.7077 67.1604C26.72 66.9348 24.7322 66.6641 22.6541 66.4386C22.9252 63.5965 21.9765 60.98 22.2023 58.1831C24.3708 58.0478 26.4489 57.9124 28.7077 57.7771Z" fill="#1E1F44"/>
<path d="M78.989 24.0785L61.6865 22.6801L52.9675 24.5748V25.6123L70.6314 27.2364L80.2088 24.4846" fill="#F9F9EC"/>
<path d="M60.8281 22.8154C61.0089 22.2741 61.3251 22.1838 61.7768 22.1838C63.2225 22.2741 64.6681 22.3192 66.0686 22.4094C68.3726 22.5447 70.6766 22.6801 72.9354 22.8605C75.1942 23.041 77.4531 23.2665 79.6667 23.5372C80.254 23.6274 80.8413 23.9432 81.3834 24.1688C81.7448 24.3492 81.7448 24.8003 81.3834 25.0259C80.7058 25.4319 80.0281 25.8379 79.2601 26.0635C77.7693 26.5146 76.1881 26.8755 74.6521 27.2815C73.5227 27.5522 72.4385 27.9582 71.3091 28.1837C70.6314 28.3191 69.9086 28.4995 69.3213 27.8679C69.1858 27.7326 68.9599 27.6875 68.734 27.6875C66.6107 27.6424 64.4874 27.6424 62.3641 27.507C59.1114 27.3717 55.8587 27.1462 52.5609 26.9657C51.7025 26.9206 51.4766 26.6499 51.567 25.8379C51.6122 25.4319 51.7025 25.071 51.838 24.665C51.9284 24.3041 52.1543 24.1688 52.5157 24.0785C53.6903 23.853 54.8649 23.5372 56.0846 23.3568C57.1689 23.1763 58.2531 23.041 59.3825 22.9056C59.7439 22.8605 60.0601 22.8605 60.4216 22.8154C60.5119 23.4019 60.1505 23.4019 59.8343 23.447C57.8917 23.6725 56.175 24.6199 54.2776 24.8454C54.2776 24.9357 54.2776 25.0259 54.2776 25.071C59.2921 25.5672 64.3067 26.0635 69.4117 26.6048C69.6827 26.289 70.1797 26.0635 70.767 26.0184C71.4898 25.9281 72.2126 25.6123 72.9354 25.4319C74.0196 25.1612 75.0587 24.8906 76.1429 24.665C76.1429 24.5748 76.1429 24.5297 76.1429 24.4394C75.7364 24.3943 75.3749 24.3492 74.9684 24.3041C74.5618 24.259 74.2004 24.2139 73.7938 24.1688C71.1284 24.0334 68.463 23.853 65.7976 23.7177C64.5778 23.6274 63.358 23.5372 62.1834 23.447C61.7769 23.4019 61.1896 23.3568 60.8281 22.8154Z" fill="#1E1F44"/>
</g>
<defs>
<clipPath id="clip0">
<rect width="138.149" height="91.4417" fill="white" transform="translate(0.924271 0.620384)"/>
</clipPath>
</defs>
</svg>
