<svg width="33" height="32" viewBox="0 0 33 32" fill="none" xmlns="http://www.w3.org/2000/svg">
<path d="M5.65141 0.50654C5.8276 0.418446 5.98176 0.330352 6.1139 0.264282C6.62044 0.308329 7.08293 0.396423 7.56744 0.396423C8.44838 0.374399 9.30729 0.352376 10.1882 0.374399C10.893 0.396423 11.6197 0.396423 12.3245 0.418446C13.4917 0.396423 14.659 0.440469 15.8042 0.440469C16.531 0.440469 17.2577 0.374399 18.0065 0.330352C18.2047 0.330352 18.425 0.352376 18.6232 0.352376C18.6672 0.352376 18.7333 0.374399 18.7774 0.374399C19.372 0.198212 19.9886 0.308329 20.6053 0.308329C21.244 0.330352 21.8606 0.330352 22.4993 0.396423C22.8737 0.440469 23.2701 0.418446 23.6225 0.616657C23.7106 0.660703 23.8648 0.616657 23.9749 0.594633C24.4594 0.484516 24.7457 0.63868 24.8778 1.12319C24.8999 1.18927 24.9219 1.25534 24.9219 1.32141C24.9439 2.02615 24.9659 2.75293 24.9659 3.45768C24.9879 4.09635 24.9879 4.75706 25.01 5.39573C25.032 6.01239 24.9659 6.62905 25.032 7.2457C25.076 7.73022 25.032 8.19271 25.054 8.67722C25.054 9.38197 25.1201 10.0647 25.1421 10.7694C25.1641 11.2099 25.1201 11.6724 25.1201 12.1129C25.1421 12.7295 25.2302 13.3682 25.2302 13.9849C25.2522 14.9759 25.2302 15.967 25.2302 16.936C25.2302 17.0681 25.2522 17.2223 25.2743 17.3544C25.3623 17.9931 25.2963 18.6098 25.2743 19.2485C25.2522 19.6008 25.1641 19.9312 25.1421 20.2836C25.1201 20.5258 25.1862 20.7901 25.2082 21.0324C25.2302 21.1865 25.2522 21.3407 25.2302 21.4948C25.1641 22.1555 25.1862 22.8383 25.2082 23.499C25.2302 24.1376 25.2302 24.7984 25.076 25.4591C25.054 25.5251 25.054 25.6132 25.076 25.6573C25.2302 26.0757 25.1421 26.4942 25.054 26.8906C25.01 27.1549 24.9879 27.4191 25.032 27.7054C25.0981 28.1239 25.054 28.5423 25.01 28.9608C24.9659 29.6655 24.9439 30.3703 24.7016 31.031C24.5475 31.4494 24.3052 31.7357 23.8648 31.7577C23.4904 31.7798 23.0939 31.7798 22.7195 31.8018C22.5654 31.8018 22.4112 31.8018 22.235 31.8018C21.244 31.9119 20.2529 31.9339 19.2398 31.9119C18.8875 31.9119 18.5571 32 18.2047 32C17.2357 32 16.2887 31.956 15.3197 31.9339C14.703 31.9339 14.1084 31.956 13.4917 31.956C12.9412 31.956 12.3906 31.8899 11.84 31.8679C10.871 31.8458 9.92395 31.8679 8.95492 31.8238C8.36029 31.8018 7.76565 31.7357 7.19305 31.6476C6.73055 31.5816 6.31211 31.4054 5.8276 31.4054C5.58534 31.4054 5.34308 31.2512 5.10082 31.1631C4.94666 31.097 4.7925 30.9869 4.90261 30.8107C5.01273 30.6125 4.77047 30.6346 4.77047 30.5244C4.74845 30.2602 4.7044 29.9738 4.66036 29.7096C4.61631 29.2911 4.57226 28.8947 4.55024 28.4763C4.52822 28.0358 4.52822 27.5953 4.50619 27.1769C4.48417 26.7364 4.37405 26.2739 4.46215 25.8555C4.55024 25.3049 4.28596 24.8204 4.37405 24.3138C4.46215 23.8293 4.26394 23.3889 4.33001 22.9043C4.39608 22.4639 4.39608 22.0234 4.39608 21.5609C4.39608 21.3407 4.50619 21.0984 4.26394 20.8782C4.21989 20.8341 4.26394 20.5699 4.35203 20.4818C4.61631 20.1734 4.48417 19.9092 4.28596 19.6229C4.50619 19.2705 4.52822 18.9181 4.0437 18.5657C4.28596 18.5878 4.37405 18.5878 4.55024 18.5878C4.48417 18.3675 4.4181 18.1693 4.39608 17.9711C4.37405 17.839 4.4181 17.7068 4.39608 17.5747C4.35203 16.8039 4.33001 16.033 4.39608 15.2402C4.39608 15.2182 4.4181 15.1961 4.39608 15.1961C4.17584 14.8438 4.46215 14.5354 4.50619 14.1831C4.39608 14.1831 4.28596 14.1831 4.17584 14.1831C4.30798 13.9408 4.44012 13.7206 4.57226 13.5003C4.44012 13.3902 4.33001 13.3242 4.28596 13.2801C4.33001 13.0819 4.4181 12.9277 4.39608 12.7736C4.37405 12.4652 4.48417 12.1569 4.35203 11.8486C4.30798 11.7605 4.48417 11.5623 4.59429 11.3421C4.52822 11.254 4.39608 11.1218 4.33001 11.0337C4.37405 10.7034 4.44012 10.373 4.48417 10.0427C4.50619 9.93255 4.46215 9.80041 4.48417 9.6903C4.61631 9.27185 4.52822 8.85341 4.57226 8.45699C4.61631 8.01652 4.55024 7.57605 4.55024 7.11356C4.55024 7.06951 4.52822 7.04749 4.55024 7.00344C4.90261 6.4969 4.66036 5.88025 4.7044 5.28562C4.77047 4.49277 4.85857 3.72196 5.03475 2.95114C5.12285 2.57674 5.12285 2.20234 5.25499 1.82794C5.27701 1.73985 5.34308 1.65176 5.40915 1.56366C5.34308 1.43152 5.25499 1.25534 5.18892 1.10117C5.3651 0.880937 5.51927 0.682727 5.65141 0.50654C5.67343 0.484516 5.65141 0.50654 5.65141 0.50654ZM7.39126 29.7536C7.83172 29.7316 8.14005 29.7096 8.44838 29.6875C9.65967 29.6655 10.871 29.6435 12.0602 29.6215C12.3025 29.6215 12.5447 29.5554 12.787 29.5554C13.2935 29.5334 13.8001 29.4893 14.2846 29.4893C14.7691 29.4893 15.2536 29.5554 15.7381 29.5334C16.4869 29.4893 17.2137 29.3792 17.9625 29.4893C18.1166 29.5114 18.2928 29.5114 18.425 29.4893C19.0416 29.3572 19.6803 29.4673 20.297 29.4673C20.7815 29.4673 21.266 29.5114 21.7725 29.5114C22.0368 29.5114 22.3011 29.4233 22.5874 29.3792C22.6094 29.2251 22.6975 29.0268 22.6535 28.8507C22.4553 28.256 22.6094 27.6394 22.5434 27.0447C22.4773 26.4721 22.6094 25.8995 22.6094 25.3269C22.6094 24.49 22.5874 23.6752 22.5434 22.8383C22.5213 22.2657 22.7195 21.7151 22.6094 21.1425C22.5434 20.8341 22.4993 20.7681 22.191 20.7901C21.1339 20.8562 20.0988 20.9222 19.0416 20.9663C18.6893 20.9883 18.3369 20.9002 17.9845 20.9443C17.0815 21.0544 16.1786 21.0544 15.2536 21.0544C14.8792 21.0544 14.4828 21.0984 14.1084 21.1204C13.3816 21.1425 12.6548 21.1425 11.9281 21.1645C11.6418 21.1645 11.3775 21.2746 11.0912 21.2526C10.4966 21.2306 9.90192 21.1425 9.32932 21.1425C8.93289 21.1425 8.53647 21.2085 8.14005 21.2966C7.83172 21.3627 7.61149 21.8692 7.72161 22.1776C7.74363 22.2657 7.78768 22.3317 7.78768 22.4198C7.78768 22.9704 7.78768 23.543 7.74363 24.0936C7.65554 24.9966 7.72161 25.8995 7.5234 26.8025C7.50137 26.8685 7.56744 26.9346 7.58947 27.0007C7.61149 27.0447 7.65554 27.0888 7.63351 27.1108C7.36923 27.6834 7.4353 28.3001 7.41328 28.8947C7.41328 28.9828 7.41328 29.0489 7.41328 29.137C7.4353 29.3131 7.41328 29.5114 7.39126 29.7536ZM22.9838 11.0337C22.7856 11.0557 22.6535 11.0557 22.4993 11.0778C21.5743 11.2099 20.6493 11.3421 19.7244 11.4522C18.3369 11.6063 16.9494 11.4301 15.584 11.4301C14.6149 11.4301 13.6239 11.298 12.6548 11.254C11.7739 11.1879 10.871 11.1879 9.99002 11.2319C9.39539 11.254 8.75671 11.4301 8.25017 10.9456C8.22815 11.0557 8.1841 11.1438 8.16208 11.2319C8.14005 11.32 8.096 11.4962 8.096 11.5182C8.38231 11.6063 7.98589 11.7825 8.14005 11.8926C8.40433 12.0468 8.1841 12.245 8.14005 12.3772C7.96387 12.9057 8.25017 13.4123 8.14005 13.9408C8.00791 14.5134 8.27219 15.1081 8.02994 15.6586C8.00791 15.7027 8.02993 15.8348 8.05196 15.8348C8.31624 15.8569 8.20612 16.0551 8.1841 16.1432C8.07398 16.4515 7.87577 16.7378 8.16208 17.0461C8.1841 17.0681 8.16208 17.1122 8.14005 17.1342C7.91982 17.3324 8.02993 17.5306 8.096 17.7729C8.11803 17.861 8.096 17.9711 8.07398 18.0592C8.00791 18.3235 8.14005 18.5878 8.40433 18.6098C8.69064 18.6318 8.99896 18.6318 9.28527 18.6318C9.83585 18.6318 10.4085 18.6318 10.959 18.6318C11.5537 18.6318 12.1483 18.6098 12.7429 18.6538C13.3155 18.6979 13.8661 18.83 14.4608 18.786C15.2316 18.7199 16.0464 18.83 16.8173 18.8741C17.7423 18.9181 18.6672 18.9842 19.5922 19.0502C20.6273 19.1163 21.6404 19.1824 22.6975 19.2485C22.7195 19.1383 22.7636 19.0062 22.7636 18.8961C22.7636 18.4997 22.7856 18.1032 22.7416 17.6848C22.6755 17.0461 22.7636 16.4074 22.8076 15.7467C22.8297 15.2182 22.8737 14.6896 22.8957 14.161C22.9398 13.4783 22.9618 12.7736 23.0058 12.0908C22.9838 11.7605 22.9838 11.4301 22.9838 11.0337ZM8.16208 5.28562C8.05196 5.32966 7.91982 5.35169 7.91982 5.37371C7.91982 5.50585 7.91982 5.70406 8.00791 5.77013C8.16208 5.90227 8.1841 6.03441 8.16208 6.18858C8.16208 6.54095 8.05196 6.89333 8.14005 7.22368C8.20612 7.55403 7.98589 7.88438 8.20612 8.19271C8.27219 8.2808 8.22815 8.43496 8.20612 8.5671C8.1841 8.74329 8.14005 8.91948 8.11803 9.13971C8.99896 9.20578 9.79181 9.27185 10.6067 9.29388C11.9721 9.33792 13.3376 9.33792 14.703 9.35995C15.0774 9.35995 15.4298 9.40399 15.8042 9.40399C16.2667 9.40399 16.7072 9.35995 17.1696 9.35995C17.6542 9.35995 18.1607 9.47006 18.6452 9.42602C19.5702 9.35995 20.4511 9.6022 21.3321 9.73434C21.9047 9.80042 22.4773 9.95458 23.138 10.0867C23.16 8.74329 23.182 7.44391 23.2481 6.16655C23.3142 4.86717 23.4463 3.58982 23.4243 2.24639C23.2921 2.29044 23.2261 2.33448 23.16 2.33448C22.257 2.37853 21.3761 2.42258 20.4732 2.4446C20.1648 2.4446 19.8565 2.46662 19.5482 2.4446C19.1517 2.42258 18.7553 2.37853 18.3369 2.35651C18.2047 2.35651 18.0506 2.35651 17.9184 2.33448C17.2137 2.26841 16.5089 2.13627 15.7822 2.11425C14.7471 2.0702 13.712 2.0702 12.6769 2.04818C11.7078 2.04818 10.7168 2.0702 9.74776 2.04818C9.1311 2.04818 8.51445 2.00413 7.89779 1.98211C7.56744 2.20234 7.8097 2.48865 7.8097 2.7309C7.8097 3.03923 7.91982 3.34756 7.98589 3.72196C7.76565 4.03028 7.8097 4.77908 8.16208 5.28562Z" fill="#FFBF00"/>
<path d="M5.69567 0.396421C5.65162 0.286304 5.60757 0.176187 5.5415 0C5.69567 0.0220234 5.80578 0.0660702 6.00399 0.0880936C5.84983 0.242257 5.78376 0.308328 5.69567 0.396421C5.69567 0.374398 5.69567 0.396421 5.69567 0.396421Z" fill="#FFBF00"/>
<path d="M5.67371 0.484516C5.5636 0.484516 5.45348 0.484516 5.29932 0.484516C5.29932 0.418446 5.32134 0.352376 5.34336 0.264282C5.4755 0.308329 5.58562 0.352376 5.69574 0.396423L5.67371 0.374399C5.67371 0.418446 5.67371 0.462493 5.67371 0.484516C5.65169 0.50654 5.67371 0.484516 5.67371 0.484516Z" fill="#FFBF00"/>
<path d="M7.39136 29.7536C7.41338 29.5114 7.4354 29.3131 7.45743 29.1149C7.45743 29.0268 7.45743 28.9608 7.45743 28.8727C7.50147 28.278 7.4354 27.6614 7.67766 27.0888C7.67766 27.0668 7.63361 27.0227 7.63361 26.9787C7.61159 26.9126 7.56754 26.8465 7.56754 26.7805C7.76576 25.8995 7.67766 24.9745 7.78778 24.0716C7.85385 23.521 7.83183 22.9484 7.83183 22.3978C7.83183 22.3097 7.78778 22.2436 7.76576 22.1555C7.65564 21.8472 7.87587 21.3407 8.1842 21.2746C8.58062 21.1865 8.97704 21.1204 9.37346 21.1204C9.96809 21.1204 10.5627 21.2085 11.1353 21.2306C11.3996 21.2306 11.6859 21.1425 11.9722 21.1425C12.699 21.1204 13.4258 21.1204 14.1525 21.0984C14.549 21.0984 14.9234 21.0323 15.2978 21.0323C16.2007 21.0323 17.1037 21.0544 18.0287 20.9222C18.381 20.8782 18.7334 20.9442 19.0858 20.9442C20.1429 20.9002 21.178 20.8341 22.2351 20.7681C22.5435 20.746 22.5875 20.8121 22.6536 21.1204C22.7637 21.693 22.5655 22.2436 22.5875 22.8162C22.6315 23.6311 22.6536 24.468 22.6536 25.3049C22.6536 25.8775 22.5214 26.4721 22.5875 27.0227C22.6536 27.6173 22.4994 28.234 22.6976 28.8286C22.7417 28.9828 22.6536 29.203 22.6315 29.3572C22.3452 29.4012 22.081 29.4893 21.8167 29.4893C21.3322 29.4893 20.8477 29.4453 20.3411 29.4453C19.7245 29.4453 19.1078 29.3131 18.4691 29.4673C18.315 29.5114 18.1608 29.4893 18.0066 29.4673C17.2578 29.3572 16.509 29.4453 15.7823 29.5114C15.2978 29.5554 14.8132 29.4673 14.3287 29.4673C13.8222 29.4673 13.3157 29.5114 12.8311 29.5334C12.5889 29.5554 12.3466 29.5994 12.1044 29.5994C10.8931 29.6215 9.68179 29.6435 8.49253 29.6655C8.14015 29.7096 7.83183 29.7316 7.39136 29.7536Z" fill="#FFBF00" fill-opacity="0.3"/>
<path d="M23.25 10.8402C23.25 11.246 23.25 11.5842 23.25 11.9224C23.2272 12.6214 23.1817 13.3428 23.1362 14.0418C23.1135 14.5829 23.068 15.124 23.0452 15.6651C23.0225 16.319 22.9315 16.9954 22.977 17.6492C23.0225 18.055 22.9997 18.4609 22.9997 18.8893C22.9997 19.002 22.9542 19.1373 22.9315 19.25C21.8394 19.1824 20.7701 19.1147 19.7235 19.0471C18.768 18.9794 17.8124 18.9118 16.8569 18.8667C16.0378 18.8216 15.2187 18.7089 14.4224 18.7765C13.8082 18.8442 13.2394 18.6863 12.6478 18.6412C12.0336 18.5962 11.4193 18.6187 10.805 18.6187C10.2362 18.6187 9.64465 18.6187 9.07587 18.6187C8.7801 18.6187 8.46158 18.6187 8.16581 18.5962C7.89279 18.5736 7.75628 18.3031 7.82454 18.0325C7.84729 17.9423 7.89279 17.807 7.84729 17.7394C7.75628 17.5139 7.66528 17.311 7.89279 17.0855C7.91554 17.063 7.93829 16.9954 7.91554 16.9954C7.61978 16.6797 7.80179 16.3866 7.93829 16.071C7.96105 15.9808 8.0748 15.7779 7.80179 15.7553C7.77904 15.7553 7.75628 15.62 7.77903 15.5749C8.00655 14.9887 7.73353 14.38 7.89279 13.8163C8.0293 13.2752 7.73353 12.7566 7.89279 12.2155C7.93829 12.1028 8.16581 11.8773 7.89279 11.7195C7.71078 11.6293 8.14306 11.4489 7.84729 11.3362C7.84729 11.3362 7.89279 11.1558 7.91554 11.0431C7.93829 10.9529 7.96105 10.8627 8.00655 10.75C8.52983 11.246 9.18962 11.0656 9.80391 11.0431C10.7367 10.998 11.6468 10.998 12.5568 11.0656C13.5579 11.1333 14.5817 11.2686 15.5828 11.246C17.0161 11.2235 18.4494 11.4264 19.86 11.2686C20.8156 11.1558 21.7712 11.0206 22.7267 10.8853C22.9087 10.8627 23.0452 10.8627 23.25 10.8402Z" fill="#FFBF00" fill-opacity="0.3"/>
</svg>
