<svg id="Calque_1" data-name="Calque 1" xmlns="http://www.w3.org/2000/svg" viewBox="0 0 72 79"><defs></defs><path fill="#eb611b " d="M38.84,38.08c-2.05-1.68-4.58-2.36-6.93-3.33C22,30.65,13.63,24.22,5.5,17.45c-1.86-1.55-4-3.19-4-5.94A17,17,0,0,1,5,1.83c1.45-2,4.1-1.67,6.46-1.3,6.11.93,11.66,3.37,17.08,6.18,11.87,6.15,22.25,14.57,33.26,22A33,33,0,0,1,69.22,36c1.62,2.07,2.53,4.45,1.63,6.88C68.6,49,66.17,54.83,60.06,58.6c-5.15,3.18-10.6,5.71-15.77,8.77a96.1,96.1,0,0,1-12.43,6,80.87,80.87,0,0,1-20.07,5.28,13.43,13.43,0,0,1-6.4-1c-4-1.46-5.55-5.08-4-9.08A39.26,39.26,0,0,1,15.59,50.44c7-5,14.11-9.59,22.57-11.69C38.39,38.69,38.55,38.38,38.84,38.08Zm-24.5,25c3.83,1.49,6.69-1,9.63-1.92a150.08,150.08,0,0,0,29.9-13.82,2.08,2.08,0,0,0-2.43-.67c-5.9,1.9-12.09,2.6-18,4.89-4.33,1.69-8.39,3.9-12.61,5.75A13.08,13.08,0,0,0,14.34,63.08Z"/></svg>