<svg id="Calque_1" data-name="Calque 1" xmlns="http://www.w3.org/2000/svg" viewBox="0 0 120 80"><defs><style>.cls-1{fill:#1e1f44;}</style></defs><path class="cls-1" d="M118.62,32.91a1.49,1.49,0,0,0,0-.21,3,3,0,0,0-.15-.61l0-.11a3.21,3.21,0,0,0-.37-.65l0-.06L95.77,2.49A3,3,0,0,0,93.4,1.33h-89a3,3,0,0,0-3,3V61.89a3,3,0,0,0,3,3h8.39a13.79,13.79,0,1,0,27.58,0H83.5a13.8,13.8,0,0,0,27.59,0h4.55a3,3,0,0,0,3-3V33.1C118.64,33,118.62,33,118.62,32.91ZM26.54,72.68a7.79,7.79,0,0,1-5-13.79,7.8,7.8,0,0,1,12.77,6A7.81,7.81,0,0,1,26.54,72.68ZM75.71,33.1V58.89H38.94a13.76,13.76,0,0,0-24.8,0H7.36V7.32H75.71Zm6-25.78H91.93l17.61,22.79H81.71ZM97.29,72.68a7.79,7.79,0,0,1-5-13.79,7.8,7.8,0,0,1,12.77,6A7.81,7.81,0,0,1,97.29,72.68Zm15.35-13.79h-3a13.75,13.75,0,0,0-24.79,0H81.71V36.1h30.93Z"/></svg>