<svg width="159" height="64" viewBox="0 0 159 64" fill="none" xmlns="http://www.w3.org/2000/svg">
<g clip-path="url(#clip0)">
<path d="M33.6604 56.8337H34.1341L35.7658 61.8292L37.3449 56.8337H37.8449V63.8954H37.3449V58.4814L35.9764 62.6923H35.529L34.1341 58.4814V63.8954H33.6341V56.8337H33.6604Z" fill="#1E1F44"/>
<path d="M40.8188 63.8954C41.4241 61.5415 42.0294 59.1876 42.6611 56.8337H43.1348L44.977 63.8954H44.477L44.0296 62.1954L41.7663 62.2215L41.3189 63.8954H40.8188ZM43.9243 61.8031L42.8979 57.8537L41.8715 61.8292L43.9243 61.8031Z" fill="#1E1F44"/>
<path d="M48.451 58.0106V63.8693H47.9772V56.8075H48.451L50.9248 62.64V56.8075H51.3985V63.8693H50.9248L48.451 58.0106Z" fill="#1E1F44"/>
<path d="M55.2146 61.803C55.2146 62.64 55.4515 63.5031 56.4516 63.5031C57.32 63.5031 57.6358 62.7707 57.6358 62.0123V60.6522H56.5042V60.2338H58.1096V61.8292C58.1096 62.9015 57.7674 64 56.4516 64C55.3462 64 54.6883 63.2154 54.6883 62.1692V58.743C54.6883 57.5922 55.162 56.7029 56.4779 56.7029C58.0306 56.7029 58.1096 57.9322 58.1096 59.1091V59.1876H57.6358C57.6358 59.0568 57.6358 58.9522 57.6358 58.8214C57.6358 58.0106 57.5569 57.1998 56.4516 57.1998C55.5567 57.1998 55.1883 57.8276 55.1883 58.6383V61.803H55.2146Z" fill="#1E1F44"/>
<path d="M61.452 56.8337H64.3206V57.2522H61.952V60.0507H63.9785V60.4692H61.952V63.4508H64.3206V63.8693H61.452V56.8337Z" fill="#1E1F44"/>
<path d="M70.3737 63.8954H67.2682C67.2682 63.7646 67.2945 63.6077 67.3208 63.4769L69.742 57.2783H67.2945V56.8598H70.321C70.321 56.9645 70.2947 57.0429 70.2684 57.1214C70.2684 57.1737 70.2684 57.1998 70.2421 57.2521C70.0052 57.8537 69.742 58.5337 69.5052 59.1614C68.9525 60.5999 68.3735 62.0384 67.8208 63.4769H70.3737V63.8954Z" fill="#1E1F44"/>
<path d="M79.927 61.6984H80.9797V62.3C80.9797 63.2677 80.2691 63.9739 79.2954 63.9739C78.2953 63.9739 77.4795 63.32 77.4795 62.3V58.3768C77.4795 57.3568 78.269 56.7029 79.2691 56.7029C80.2954 56.7029 80.9534 57.4352 80.9534 58.4291V59.083H79.9007C79.9007 58.9522 79.9007 58.7953 79.9007 58.6645C79.9007 58.2199 79.8217 57.7752 79.2164 57.7752C78.8743 57.7752 78.5059 58.0106 78.5059 58.3768V62.2215C78.5059 62.64 78.8217 62.9277 79.2164 62.9277C79.8217 62.9277 79.9007 62.5354 79.9007 62.0907C79.927 61.96 79.927 61.8292 79.927 61.6984Z" fill="#76B39D"/>
<path d="M87.1644 58.403V62.1692C87.1644 63.1892 86.5327 64 85.4537 64C84.48 64 83.6904 63.2938 83.6904 62.3V58.3768C83.6904 57.3568 84.48 56.7029 85.48 56.7029C86.4801 56.7029 87.1644 57.4091 87.1644 58.403ZM84.7168 62.2215C84.7168 62.64 85.0589 62.9277 85.48 62.9277C85.9011 62.9277 86.1117 62.5877 86.1117 62.1954V58.2722C86.1117 57.9583 85.7169 57.7491 85.4537 57.7491C85.1116 57.7491 84.7431 57.9845 84.7431 58.3506V62.2215H84.7168Z" fill="#76B39D"/>
<path d="M91.2699 59.3968V63.8431H90.2172V56.7813H91.2699L93.1122 61.1753V56.7813H94.1649V63.8431H93.1122V63.7908L91.2699 59.3968Z" fill="#76B39D"/>
<path d="M100.692 59.0045H99.639C99.639 58.926 99.639 58.8737 99.639 58.7691C99.639 58.2983 99.5863 57.7229 99.0074 57.7229C98.5863 57.7229 98.2968 58.0629 98.2968 58.4552C98.2968 60.2076 100.744 59.6583 100.744 62.0646C100.744 63.1369 99.9548 63.8954 98.8758 63.8954C97.902 63.8954 97.1388 63.2677 97.1388 62.2738V61.6722H98.1915C98.1915 61.6984 98.1915 61.7246 98.1915 61.7507C98.1915 62.2738 98.2178 62.9538 98.9284 62.9538C99.4811 62.9538 99.6916 62.4046 99.6916 61.9338C99.6916 60.4953 97.2177 60.5476 97.2177 58.4814C97.2177 57.4352 98.0599 56.7813 99.06 56.7813C100.034 56.7813 100.744 57.409 100.744 58.3768V59.0045H100.692Z" fill="#76B39D"/>
<path d="M103.797 63.8954V56.8337H104.85V63.8954H103.797Z" fill="#76B39D"/>
<path d="M109.034 58.3768V62.2215C109.034 62.64 109.35 62.9277 109.745 62.9277C110.113 62.9277 110.429 62.7185 110.429 62.3261V61.123H109.692V60.2338H111.482V62.3261C111.482 63.2938 110.771 64 109.798 64C108.798 64 107.982 63.3462 107.982 62.3261V58.403C107.982 57.3829 108.771 56.7291 109.771 56.7291C110.798 56.7291 111.456 57.4614 111.456 58.4553V59.2399H110.403C110.403 59.083 110.403 58.8999 110.403 58.7168C110.403 58.246 110.324 57.8276 109.719 57.8276C109.377 57.7752 109.034 58.0106 109.034 58.3768Z" fill="#76B39D"/>
<path d="M115.693 59.3968V63.8431H114.64V56.7813H115.693L117.535 61.1753V56.7813H118.588V63.8431H117.535V63.7908L115.693 59.3968Z" fill="#76B39D"/>
<path d="M124.22 60.7307H122.72V63.0061H124.562V63.8954H121.667V56.8337H124.562V57.7229H122.72V59.8153H124.22V60.7307ZM124.115 54.9506L122.509 56.2844L122.088 55.9967C122.535 55.3429 122.799 54.9767 123.22 54.349L124.115 54.9506Z" fill="#76B39D"/>
<path d="M154.801 12.5019C154.985 12.5803 155.196 12.5803 155.38 12.5803C156.222 12.6588 156.985 12.9465 157.749 13.2603C157.933 13.3388 158.117 13.3911 158.17 13.6004C158.249 13.8619 158.222 14.1496 158.143 14.385C158.091 14.5681 157.88 14.5942 157.696 14.6204C157.222 14.6988 156.748 14.6465 156.275 14.5419C155.248 14.3588 154.275 13.9665 153.301 13.6788C153.038 13.6004 152.801 13.4696 152.59 13.3127C152.432 13.208 152.301 13.0511 152.301 12.8419C152.327 12.3449 152.38 11.848 152.748 11.4295C153.064 11.0895 153.406 10.7757 153.722 10.4357C153.959 10.1741 154.222 9.93873 154.511 9.70334C154.933 9.36333 155.38 9.07563 155.88 8.8664C156.038 8.78793 156.222 8.78793 156.38 8.78793C156.722 8.81409 156.906 9.04948 156.88 9.36333C156.827 9.99104 156.617 10.5403 156.248 11.0372C155.854 11.5603 155.433 12.0572 154.827 12.4234C154.801 12.4496 154.801 12.4757 154.801 12.5019ZM156.038 10.0957C155.722 10.0695 155.564 10.331 155.354 10.4618C154.643 10.9588 154.038 11.5342 153.459 12.1619C153.564 12.2142 153.617 12.188 153.643 12.1619C154.038 11.8742 154.485 11.6911 154.854 11.4034C155.143 11.168 155.38 10.9326 155.669 10.6972C155.854 10.5403 155.985 10.3572 156.038 10.0957Z" fill="#76B39D"/>
<path d="M142.458 6.69555C142.511 6.48632 142.458 6.30324 142.458 6.094C142.405 5.25706 142.563 4.47242 142.747 3.66164C142.8 3.47855 142.826 3.26932 143.011 3.19086C143.274 3.06008 143.537 3.06008 143.8 3.08624C143.984 3.11239 144.063 3.32163 144.116 3.47855C144.274 3.92318 144.274 4.39396 144.274 4.86474C144.248 5.91092 144.037 6.90479 143.879 7.92481C143.853 8.18636 143.748 8.4479 143.642 8.68329C143.563 8.86638 143.432 9.0233 143.221 9.0233C142.721 9.07561 142.221 9.10177 141.747 8.81407C141.353 8.57868 140.984 8.26482 140.589 8.02943C140.274 7.84635 140.01 7.61096 139.747 7.37557C139.326 7.00941 138.984 6.61709 138.695 6.17247C138.589 6.04169 138.563 5.85861 138.537 5.70168C138.51 5.36168 138.695 5.15244 139.037 5.10013C139.668 5.04782 140.247 5.1786 140.8 5.46629C141.379 5.78015 141.958 6.12016 142.405 6.61709C142.405 6.69555 142.432 6.69555 142.458 6.69555ZM139.879 5.85861C139.905 6.17247 140.168 6.27708 140.353 6.46016C140.958 7.06172 141.616 7.58481 142.353 8.05559C142.379 7.95097 142.353 7.89866 142.326 7.87251C141.984 7.5325 141.721 7.11403 141.353 6.80017C141.089 6.56478 140.8 6.35555 140.511 6.12016C140.326 5.98938 140.116 5.88477 139.879 5.85861Z" fill="#76B39D"/>
<path d="M150.985 5.25707C151.222 5.04783 151.38 4.76013 151.538 4.52474C152.248 3.45241 153.196 2.61547 154.196 1.80468C154.433 1.6216 154.669 1.41236 154.985 1.46467C155.406 1.54313 155.775 1.80468 156.064 2.09238C156.275 2.30161 156.169 2.61547 156.064 2.87701C155.801 3.58318 155.406 4.18473 154.933 4.76013C153.932 6.01555 152.696 7.06173 151.564 8.18637C151.274 8.47407 150.906 8.70946 150.538 8.89254C150.248 9.02331 149.959 9.10177 149.695 8.91869C149.011 8.52638 148.379 8.08175 148.064 7.29712C147.8 6.6171 147.616 5.91093 147.379 5.23091C147.195 4.70782 147.064 4.18473 146.958 3.63549C146.8 2.79855 146.748 1.98776 146.8 1.15082C146.827 0.889271 146.932 0.65388 147.064 0.41849C147.327 -0.026136 147.801 -0.130754 148.222 0.156945C149.037 0.680035 149.643 1.36005 150.064 2.2493C150.511 3.19086 150.88 4.13242 150.932 5.1786C150.932 5.20476 150.959 5.23091 150.985 5.25707ZM148.59 1.80468C148.327 2.22315 148.564 2.61547 148.59 2.98163C148.748 4.28935 149.09 5.57092 149.537 6.82634C149.669 6.72172 149.695 6.64325 149.669 6.56479C149.59 5.83247 149.643 5.07399 149.511 4.34166C149.406 3.79242 149.248 3.26933 149.116 2.72008C149.037 2.40623 148.906 2.06622 148.59 1.80468Z" fill="#76B39D"/>
<path d="M31.6602 50.3997C30.1075 50.0597 28.5284 49.8505 27.081 49.1704C26.1862 48.7258 25.5808 47.8889 25.0545 47.0519C23.9755 45.2211 23.1333 43.2857 22.6596 41.2195C22.0806 38.7348 21.6332 36.1978 21.9227 33.6608C22.1332 31.9085 22.2648 30.1561 22.6069 28.4299C23.028 26.3114 23.607 24.2452 24.4755 22.3098C25.1598 20.819 25.844 19.2759 26.9231 17.9681C27.4494 17.3404 27.9231 16.6866 28.5021 16.1112C29.239 15.3789 30.3707 15.2481 31.2655 15.7189C31.6602 15.9281 31.5813 16.242 31.5813 16.582C31.5813 17.0004 31.1076 17.4451 31.476 17.8374C31.7655 18.1251 32.2392 18.0466 32.6603 18.1512C34.1604 18.5174 35.2658 19.4851 36.1606 20.6621C38.1081 23.2252 39.2398 26.1545 39.7924 29.3192C40.1609 31.4115 40.3451 33.5039 40.3451 35.5963C40.3714 38.944 39.8451 42.1872 38.3713 45.195C37.5028 46.9212 36.3185 48.4904 34.7921 49.7197C34.5289 49.9551 34.2394 50.112 33.8709 50.1382C33.1604 50.2166 32.3971 50.1643 31.6602 50.3997ZM29.2127 33.1116C29.2127 33.9485 29.0548 34.8378 29.239 35.6486C29.5548 36.9563 29.3443 38.2902 29.5022 39.5979C29.6075 40.3564 29.7391 41.141 29.7654 41.9256C29.818 43.2595 30.2391 44.5149 30.6339 45.7965C30.897 46.6073 31.1076 46.6858 31.7918 46.215C32.1603 45.9534 32.5024 45.6919 32.8182 45.378C34.1341 44.0442 35.0289 42.4487 35.6605 40.7225C36.7396 37.8194 37.4765 34.8639 37.2133 31.7516C37.0027 29.1623 36.4501 26.6253 35.5026 24.2191C35.0026 22.9637 34.5552 21.6559 33.8709 20.479C33.4235 19.6943 32.7393 19.2236 31.8971 18.962C31.0549 18.7005 30.897 18.8051 30.7128 19.6682C29.7654 24.0883 29.318 28.5869 29.2127 33.1116Z" fill="#EB611B"/>
<path d="M49.0826 38.8394C48.6615 39.0225 48.6352 39.441 48.5036 39.781C47.5035 42.3703 46.5035 44.9857 45.4771 47.6012C45.1086 48.5427 44.477 49.2228 43.4506 49.432C43.1348 49.5104 42.8453 49.5104 42.5558 49.3535C42.0558 49.1181 41.8978 48.7781 42.1347 48.2812C43.4506 45.5088 44.2138 42.5534 45.2139 39.6502C45.635 38.4209 46.0297 37.1917 46.4771 35.9886C46.7666 35.1778 46.8982 34.4193 46.3982 33.6347C46.1876 33.3208 46.135 32.9285 45.9245 32.6147C45.3192 31.7516 44.8981 30.7838 44.5559 29.79C44.2928 29.0053 43.7401 28.3776 43.4506 27.6191C42.6611 25.5791 41.582 23.6437 40.8188 21.5513C40.2661 20.0343 39.6345 18.5174 38.9239 17.0527C38.3186 15.7973 38.0818 14.4111 37.8712 13.0249C37.6081 11.2726 37.8449 9.57255 38.1607 7.87251C38.2134 7.58481 38.266 7.32327 38.6344 7.29711C38.9766 7.27096 39.2398 7.42789 39.3187 7.76789C39.7924 9.41563 40.8451 10.8018 41.4768 12.3449C42.0294 13.6527 42.7663 14.8819 43.2664 16.2419C43.6611 17.3404 44.2928 18.3866 44.6612 19.5113C45.2928 21.4728 46.4508 23.2513 47.0824 25.2129C47.214 25.6576 47.5298 25.9714 47.7141 26.3637C48.0825 27.0961 48.4773 27.8022 48.6352 28.5869C49.0036 28.6392 49.03 28.4038 49.1089 28.2469C49.7405 26.5207 50.3195 24.7683 50.9775 23.0683C52.0302 20.3482 53.1092 17.6281 54.2146 14.9081C54.4777 14.2542 54.8462 13.6265 55.2409 13.0249C55.741 12.2926 56.3463 11.7172 57.3727 11.9003C58.1885 12.0572 58.3991 12.3188 58.1359 13.0773C57.7938 14.0711 57.4516 15.065 57.0569 16.0589C55.3462 20.3744 53.8461 24.7422 52.2934 29.11C51.9775 29.9731 51.5828 30.81 51.2143 31.6469C50.7932 32.5885 50.8985 33.3993 51.4775 34.3147C52.346 35.7009 52.9776 37.1917 53.6882 38.6563C54.2935 39.9379 54.8988 41.2456 55.741 42.3964C56.2147 43.0503 56.5831 43.7826 57.0832 44.4365C58.0043 45.6396 58.7412 46.9996 59.8992 48.0196C60.2939 48.3597 60.715 48.4643 61.1624 48.6474C61.8993 48.9089 62.1362 49.1704 62.0309 49.5889C61.9256 50.0597 61.4782 50.3997 60.8466 50.3997C59.636 50.3735 58.4517 50.2951 57.32 49.8505C56.5042 49.5366 55.7936 49.0658 55.2936 48.3335C55.0304 47.9412 54.7146 47.575 54.3461 47.2612C54.1356 47.0781 53.9251 46.8688 53.8198 46.6335C53.2408 45.3257 52.267 44.2272 51.6091 42.9718C50.8985 41.6118 49.8984 40.4348 49.2668 39.0225C49.2668 38.944 49.1615 38.9179 49.0826 38.8394Z" fill="#EB611B"/>
<path d="M82.2166 11.9003V13.0249H68.0314V30.0777H80.427V31.2023H68.0314V49.275H82.2166V50.3997H66.7418V11.9003H82.2166Z" fill="#1E1F44"/>
<path d="M86.717 50.3997C90.033 37.584 93.349 24.6898 96.6388 11.8741H98.0336L107.955 50.3997H106.666L104.139 40.6441L90.4015 40.8794L87.9276 50.4258H86.717V50.3997ZM103.876 39.5194L97.323 14.1496L90.7699 39.7548L103.876 39.5194Z" fill="#1E1F44"/>
<path d="M115.509 50.3997H114.219V13.0249H106.061V11.9003H123.746V13.0249H115.509V50.3997Z" fill="#1E1F44"/>
<path d="M137.931 50.3997H136.642V32.3269L126.378 11.9265H127.667L137.326 31.0977L146.985 11.9265H148.274L137.958 32.3793V50.3997H137.931Z" fill="#1E1F44"/>
<path d="M18.3172 28.3253C18.8435 27.1222 19.5015 25.9714 20.0804 24.7945C21.1595 22.5713 22.028 20.2697 22.6859 17.8897C23.2649 15.8235 23.7123 13.7573 23.3175 11.5603C22.9754 9.67718 22.028 8.31714 20.3173 7.53251C19.133 7.00942 17.8698 6.72172 16.5802 6.56479C14.2642 6.30325 12.1062 6.98327 9.94811 7.66328C8.84276 8.00329 7.86901 8.57869 6.89525 9.2064C6.21099 9.65102 6.13204 9.62487 5.73727 8.94485C5.42146 8.42176 5.00037 8.08175 4.42138 7.92483C3.94766 7.79405 3.42131 7.7679 2.94759 7.63713C2.0791 7.37558 1.50011 7.87252 0.973756 8.42176C0.631626 8.76177 0.526355 9.2587 0.473719 9.70333C0.236859 11.4557 -0.0789536 13.208 0.0263174 15.0127C0.131588 16.8173 0.289495 18.622 0.473719 20.4267C0.57899 21.499 0.447401 22.5713 0.684261 23.6175C1.00007 25.0037 1.44748 26.3376 1.39484 27.7761C1.39484 27.8807 1.44748 27.9853 1.47379 28.0899C1.76329 30.1561 2.42123 32.17 2.63177 34.2624C2.86863 36.5117 3.47394 38.7348 3.63185 41.0102C3.73712 42.318 4.39506 43.5472 4.39506 44.8811C4.39506 45.718 4.86878 46.4504 4.92142 47.2612C5.00037 48.9874 5.47409 50.6089 5.81622 52.2828C6.13204 53.7475 7.10579 54.4013 8.448 54.7413C9.36912 54.9767 10.2376 54.7413 11.1061 54.7413C11.9483 54.7413 12.6852 54.5583 13.001 53.7998L13.0273 53.8259C13.8695 52.7274 14.7379 51.9167 15.5012 50.7659C15.9749 50.0597 16.5275 49.432 17.0013 48.752C17.9224 47.4965 18.7382 46.1365 19.4488 44.7503C19.9489 43.7565 20.3699 42.7364 20.5278 41.6379C21.1332 40.1733 20.8437 39.4148 20.0278 38.6563C19.9225 38.5779 19.8173 38.4994 19.6594 38.4209C19.5278 38.2902 19.3699 38.1332 19.1856 38.0286C18.5014 37.5578 17.7645 37.244 16.975 36.9824C15.9749 36.6686 15.0011 36.6686 14.001 36.7471C14.5011 35.8055 15.0274 35.1778 15.5275 34.1839C16.5275 32.3008 17.4487 30.3131 18.3172 28.3253ZM7.89533 11.7957C8.81645 11.1418 9.7902 10.6449 10.7903 10.1741C11.4745 9.86026 12.2114 9.62487 12.8694 9.28486C14.1853 8.60484 15.6064 8.55253 17.0539 8.47407C18.2382 8.39561 19.712 9.5464 19.9489 10.7495C20.2647 12.2665 20.0541 13.7311 19.6067 15.1696C18.4487 18.8836 16.896 22.4406 15.5538 26.076C14.8169 28.0376 14.1326 30.0254 13.5536 32.0393C12.922 34.2624 12.1851 35.0993 11.7377 37.3748C11.7114 37.4794 11.6324 37.5317 11.5009 37.7671C11.2377 36.2501 11.0535 36.224 10.7903 34.8378C10.4481 33.0331 10.5008 31.15 10.0271 29.3715C9.97443 29.1361 9.97443 28.8746 9.97443 28.6392C9.97443 27.8545 9.94811 27.0699 9.76388 26.3114C9.55334 25.4483 9.65861 24.5329 9.50071 23.6698C9.13226 21.2113 8.6059 18.7789 8.10587 16.3204C7.86901 15.1696 7.7111 14.0188 7.39529 12.868C7.23738 12.3711 7.50056 12.0572 7.89533 11.7957ZM11.5535 50.3212C11.3693 50.2689 11.8956 47.8627 11.8693 47.6796C11.6851 46.2411 11.9746 43.8872 11.843 42.4487C11.764 41.7426 12.1062 40.6702 12.6062 40.1733C13.4221 39.3364 15.5012 39.2317 16.6591 39.1271C17.6855 39.1271 18.5803 39.8333 18.3435 40.9056C18.2645 41.2456 18.2382 41.5595 18.2382 41.8733C18.1329 42.161 18.0013 42.4226 17.8698 42.7103C17.396 43.5995 16.8697 44.4626 16.3433 45.3257L11.5535 50.3212Z" fill="#EB611B"/>
</g>
<defs>
<clipPath id="clip0">
<rect width="158.222" height="64" fill="white"/>
</clipPath>
</defs>
</svg>
