<svg width="28" height="26" viewBox="0 0 28 26" fill="none" xmlns="http://www.w3.org/2000/svg">
<path d="M1 5.3125H27C27.5523 5.3125 28 4.86481 28 4.3125V1.8125C28 1.26019 27.5523 0.8125 27 0.8125H1C0.447688 0.8125 0 1.26019 0 1.8125V4.3125C0 4.86481 0.447688 5.3125 1 5.3125ZM1 15.3125H27C27.5523 15.3125 28 14.8648 28 14.3125V11.8125C28 11.2602 27.5523 10.8125 27 10.8125H1C0.447688 10.8125 0 11.2602 0 11.8125V14.3125C0 14.8648 0.447688 15.3125 1 15.3125ZM1 25.3125H27C27.5523 25.3125 28 24.8648 28 24.3125V21.8125C28 21.2602 27.5523 20.8125 27 20.8125H1C0.447688 20.8125 0 21.2602 0 21.8125V24.3125C0 24.8648 0.447688 25.3125 1 25.3125Z" fill="white"/>
</svg>
