<svg id="Calque_1" data-name="Calque 1" xmlns="http://www.w3.org/2000/svg" viewBox="0 0 92 79"><defs><style>.cls-1{fill:#fff;}.cls-2{fill:#1e1f44;}</style></defs><rect class="cls-1" x="54.21" y="2.63" width="35.54" height="52.42"/><path class="cls-2" d="M89.75,57.27H54.21A2.23,2.23,0,0,1,52,55.05V2.63A2.22,2.22,0,0,1,54.21.41H89.75A2.21,2.21,0,0,1,92,2.63V55.05A2.22,2.22,0,0,1,89.75,57.27ZM56.43,52.83h31.1v-48H56.43Z"/><rect class="cls-2" x="59.54" y="7.57" width="6.22" height="11.81" rx="1.78"/><rect class="cls-2" x="68.87" y="7.57" width="6.22" height="11.81" rx="1.78"/><rect class="cls-2" x="78.2" y="7.57" width="6.22" height="11.81" rx="1.78"/><rect class="cls-2" x="59.54" y="22.68" width="6.22" height="11.81" rx="1.78"/><rect class="cls-2" x="68.87" y="22.68" width="6.22" height="11.81" rx="1.78"/><rect class="cls-2" x="78.2" y="22.68" width="6.22" height="11.81" rx="1.78"/><rect class="cls-2" x="71.09" y="37.78" width="10.22" height="17.71" rx="1.78"/><rect class="cls-1" x="2.25" y="10.63" width="35.54" height="52.42"/><path class="cls-2" d="M37.79,65.26H2.25A2.21,2.21,0,0,1,0,63V10.63A2.21,2.21,0,0,1,2.25,8.41H37.79A2.22,2.22,0,0,1,40,10.63V63A2.22,2.22,0,0,1,37.79,65.26ZM4.47,60.82h31.1v-48H4.47Z"/><rect class="cls-2" x="7.58" y="15.57" width="6.22" height="11.81" rx="1.78"/><rect class="cls-2" x="16.91" y="15.57" width="6.22" height="11.81" rx="1.78"/><rect class="cls-2" x="26.24" y="15.57" width="6.22" height="11.81" rx="1.78"/><rect class="cls-2" x="7.58" y="30.67" width="6.22" height="11.81" rx="1.78"/><rect class="cls-2" x="16.91" y="30.67" width="6.22" height="11.81" rx="1.78"/><rect class="cls-2" x="26.24" y="30.67" width="6.22" height="11.81" rx="1.78"/><rect class="cls-2" x="10.25" y="45.78" width="10.22" height="17.71" rx="1.78"/><rect class="cls-1" x="28.45" y="23.95" width="35.54" height="52.42"/><path class="cls-2" d="M64,78.59H28.45a2.21,2.21,0,0,1-2.22-2.22V24a2.22,2.22,0,0,1,2.22-2.22H64A2.23,2.23,0,0,1,66.21,24V76.37A2.22,2.22,0,0,1,64,78.59ZM30.67,74.15H61.76v-48H30.67Z"/><rect class="cls-2" x="33.78" y="28.9" width="6.22" height="11.81" rx="1.78"/><rect class="cls-2" x="43.11" y="28.9" width="6.22" height="11.81" rx="1.78"/><rect class="cls-2" x="52.44" y="28.9" width="6.22" height="11.81" rx="1.78"/><rect class="cls-2" x="33.78" y="44" width="6.22" height="11.81" rx="1.78"/><rect class="cls-2" x="43.11" y="44" width="6.22" height="11.81" rx="1.78"/><rect class="cls-2" x="52.44" y="44" width="6.22" height="11.81" rx="1.78"/><rect class="cls-2" x="45.33" y="59.1" width="10.22" height="17.71" rx="1.78"/></svg>