<svg id="Calque_1" data-name="Calque 1" xmlns="http://www.w3.org/2000/svg" viewBox="0 0 80 79"><defs><style>.cls-1{fill:#1e1f44;}.cls-2{fill:#eb611b;}.cls-3{fill:#fff;}</style></defs><path class="cls-1" d="M55.07,23.69l.1,0C55.1,23.67,55.08,23.68,55.07,23.69Z"/><path class="cls-1" d="M75.64,23.75c-.45-.12-5.48-.63-7.1-.24a14.37,14.37,0,0,1-2.32-.25,1.34,1.34,0,0,0,.2-.78c.06-1.11-1.65-3.32-2.35-4.07a6.07,6.07,0,0,0-.86-1.17c-.47,0-4.08-5.44-4-5.83a35.26,35.26,0,0,0-1.71-3.18c.36-.24-2.86-5.86-4-6.29,0-.05-2.48-4.39-3.94.08,0,0,1.26,2.47,1,2.66.32.36,3.45,5.57,3.23,5.6a12.13,12.13,0,0,0,2,4.2l5.43,7.39c-.12.23.65.84.86,1.13.3,0-4.47.54-4.47.54-1,.36-23-.16-24.19.27a22.71,22.71,0,0,1-5.36-.34c.06-.21-4.76.1-7.46-.46-.35.25-.19-1,.12-2a20.36,20.36,0,0,0,1-2.22,27.34,27.34,0,0,1,1.74-3.42c.06-.26.67-1.88,1.06-2,.74-.94,2-3,2-3,.38.2,4-7.35,4-7.35S32.8-.39,28.18.49c0,0-5.07,7.85-5.19,7.68-.46.12-2.93,4.54-2.93,4.54l-1,1.53c-.47.24-.91,2.82-1.06,3,0,.16-1.9,4.44-1.71,4.65a5.27,5.27,0,0,0,.07.8,7.54,7.54,0,0,0-2.42.56l-1.41,0-1.52-.07a11.74,11.74,0,0,0-2.67.22l-1.14-.15-.64-.07-.35,0c-.18,0-.37,0-.55,0-1.49.05-4.54,3.32-4.54,3.32C.81,28,.36,28.85.49,29.78A7.29,7.29,0,0,0,1,32.86a20,20,0,0,0,.33,2.56c-.19-.21.24.69.78,1.18.37.77,4,2.26,4.26,2.43,0,0,.54,1.29.37.86,0,.38.09.74.14,1.11s.1.55.16.82c.13.55.29,1.11.45,1.69a14.13,14.13,0,0,1,.63,3.88c.52.54,1.4,6.61,1.65,7,0,0,1,4.74,1.27,5.86.11,1.48.83,6.44.83,6.44.36,1,1.05,3.8,1.26,3.89a8.42,8.42,0,0,0,1.27,1l.67.44a1.68,1.68,0,0,0,.82.29,4,4,0,0,0,1.55-.2l3-.13c1.14.25,3-.07,3.44.27,0,0,3.9.11,3.51.38a6.86,6.86,0,0,1,3.29-.2l-.14,0c2.8.28,4.79-.39,7.3-.05-.11-.29,8-.62,8.58-.56,0,0,2.57,0,4.22,0,.82-.11,6.63-.49,6.75-.13,1.38,0,2.57-.16,3.69-.28l2.08-.22s2.42.37,3.09-.2a3.47,3.47,0,0,0,1.2-2.32l.1-.87c0-.24.07-.48.11-.72.08-.48.17-2.62.2-3a23.08,23.08,0,0,0,.93-4.56,25.06,25.06,0,0,0,.58-3,5.34,5.34,0,0,0,.3-2.73c.14-1.05.64-6.13,1.17-7.39.66-15.07-2.42-3.68-2.42-3.68-1.74,5.64-1.53,8.77-2.66,15.66-.47,2.13-.88,3.69-1.26,5.1-.18.7-.36,1.37-.54,2s-.52,1.89-.52,1.89l-.3,0c-.22,0-7,.1-9.92.17-1.41.42-3.9,0-5.57.35l-9.8.2c-2.9-.32-4,.28-6.59-.11l0-.07a28.69,28.69,0,0,1-8.81,0c-1.57.08-3.25.12-3.27.69-1.15,0-1.33-.18-1.69-.12a8.28,8.28,0,0,1-1.74-.72,3.57,3.57,0,0,0-.45-.27c-.29-1.86.08-3.06,0-4.9-1.3-7.46-3.84-15.25-4.53-22.29,0,0-.37-1.24-.09-1.18,0,0,0,0,0-.06a4.75,4.75,0,0,1,2,.06l-.14,0c2.62.28,4.47-.39,6.81,0-.09-.26,11.68-.4,15.74-.69a14.79,14.79,0,0,1,2.5,0c.62,0,1.19-.06,1.73-.1,4.66.15,9.62,1,14.12.45.19.06,6.08-.06,6.08-.06s1.64,0,3.78,0c1.07,0,2.27-.06,3.45-.11l1.75-.09.83-.06.39,0a1.84,1.84,0,0,1,.86.33c.1.11.17.23.26.31s.18.17.32.1a.78.78,0,0,0,.41-.49,1.75,1.75,0,0,0-.23-1.47,3.54,3.54,0,0,0-.27-.32h3a12.53,12.53,0,0,0,1.92-.2,3.58,3.58,0,0,0,2-1.51,4.48,4.48,0,0,0,.62-1.68,50.17,50.17,0,0,0,.57-5C79.19,27,76.53,24,75.64,23.75Z"/><polygon class="cls-1" points="0.49 29.78 0.49 29.78 0.32 29.61 0.49 29.78"/><path class="cls-1" d="M53.19,67.65h0l.11,0Z"/><path class="cls-1" d="M37.83,50.05Z"/><path class="cls-1" d="M21.88,50.53Z"/><path class="cls-1" d="M53.84,49.68h0l0,0Z"/><path class="cls-1" d="M42.3,50.09a14.43,14.43,0,0,1,0-1.45,4.46,4.46,0,0,0-.73-2c-.35-.42-.77-1-1.32-1-3.56.22-2.32,2.9-2.13,3.41-.06.23.61,4.14.31,4.26a10.75,10.75,0,0,0-.2,2.21,20.82,20.82,0,0,0-.08,3.75s-.3,2,3.32.72l.1,0c.24-.22.35-1.17.36-1.14s.45-4.81.45-4.81.06-.68,0-.73a2.86,2.86,0,0,0,.06-.63A17.17,17.17,0,0,1,42.3,50.09Z"/><path class="cls-1" d="M27.24,50a13.43,13.43,0,0,1,0-1.45,4.51,4.51,0,0,0-.84-1.91c-.37-.41-.82-.95-1.37-.89-3.54.41-2.16,3-1.95,3.52-.05.24.83,4.1.54,4.24a10.85,10.85,0,0,0-.09,2.22,21.54,21.54,0,0,0,.13,3.75s-.2,2,3.35.54h.1c.23-.22.29-1.18.3-1.15s.19-4.83.19-4.83,0-.69,0-.73a3,3,0,0,0,0-.63A16.91,16.91,0,0,1,27.24,50Z"/><path class="cls-1" d="M57.56,50.37a11.65,11.65,0,0,1,.2-1.43,4.42,4.42,0,0,0-.48-2c-.3-.47-.65-1.08-1.2-1.11-3.55-.22-2.65,2.59-2.53,3.12-.09.23.09,4.18-.21,4.27a10.25,10.25,0,0,0-.48,2.17,21.29,21.29,0,0,0-.54,3.71s-.55,2,3.21,1.12l.09,0c.27-.18.49-1.11.5-1.08s1-4.73,1-4.73c.15-.06.15-.66.1-.71a3,3,0,0,0,.14-.62A16.63,16.63,0,0,1,57.56,50.37Z"/><path class="cls-1" d="M21.42,19.72s0,0,0,0Z"/><path class="cls-1" d="M63.21,17.24Z"/><circle class="cls-2" cx="68.69" cy="68.01" r="10.99"/><polygon class="cls-3" points="72.35 67.09 69.6 67.09 69.6 64.35 67.77 64.35 67.77 67.09 65.03 67.09 65.03 68.93 67.77 68.93 67.77 71.67 69.6 71.67 69.6 68.93 72.35 68.93 72.35 67.09"/></svg>