<svg id="Calque_1" data-name="Calque 1" xmlns="http://www.w3.org/2000/svg" viewBox="0 0 55 79"><defs><style>.cls-1{fill:#1e2042;}.cls-2{fill:#82b09d;}.cls-3{fill:#da6933;}.cls-4{fill:#eb611b;}.cls-5{fill:#fff;}</style></defs><path class="cls-1" d="M33.5,71l.38.17c0,.06,0,.11-.06.12-.16.17-.16-.06-.25-.11a.83.83,0,0,1-.27.19c-.44.27-.52.26-.85-.1a2,2,0,0,0-1.05-.47l-.58-.15c-.68-.2-1.39-.37-2.06-.59s-1.07-.28-1.62-.45c-1-.28-1.87-.67-2.83-.88s-1.93-.63-2.9-.91c-.35-.11-.7-.19-1-.29-.63-.18-1.21-.49-1.84-.65-.46-.12-.88-.31-1.36-.4a2.5,2.5,0,0,1-.7-.23,1.32,1.32,0,0,0-.51-.16c-.43,0-.77-.31-1.16-.41A18.92,18.92,0,0,0,12.52,65a1.66,1.66,0,0,1-.33-.16,2.42,2.42,0,0,0-.58-.25,3.14,3.14,0,0,1-.9-.28,10.41,10.41,0,0,0-1.38-.39c-.14-.05-.29-.14-.44-.19l-1-.35c-.53-.16-1-.32-1.56-.51A7.67,7.67,0,0,0,5,62.38c-.27,0-.51-.26-.76-.35a1.79,1.79,0,0,0-1.18-.22s0,0,0,0a4.54,4.54,0,0,0-1.19-.36,3.06,3.06,0,0,1-.58-.27c-.35-.16-.46-.53-.68-.81,0-.05,0-.15-.05-.22a2.34,2.34,0,0,0-.25-1A2.08,2.08,0,0,1,.1,58a1.13,1.13,0,0,0,0-.41,2.31,2.31,0,0,1,.06-.91c.18-.74.31-1.51.46-2.26A2.83,2.83,0,0,1,.75,54a12.64,12.64,0,0,1,.52-1.5c.17-.39.24-.81.42-1.19s.33-1,.52-1.48a7,7,0,0,1,.43-.92c.15-.25.4-.49.36-.83.35-.48.41-1.11.72-1.62s.41-.83.62-1.24c.07-.16.28-.33.23-.43-.1-.28.19-.24.24-.38a4.94,4.94,0,0,1,.33-.88,5,5,0,0,1,.69-1.37,2.26,2.26,0,0,0,.29-.65c.17-.41.31-.82.48-1.23.31-.76.69-1.48.94-2.26a17.2,17.2,0,0,0,.8-2.29,4.54,4.54,0,0,1,.5-1.26,7.72,7.72,0,0,0,.32-1c.16-.39.29-.81.43-1.22.07-.18.06-.39.14-.56.2-.46.26-1,.46-1.42a9.25,9.25,0,0,0,.32-.88,4.25,4.25,0,0,1,.39-1,3.06,3.06,0,0,0,.13-.56c.26-.72.5-1.44.82-2.14.18-.36.25-.74.44-1.1a1.47,1.47,0,0,1,.25-.48c.13-.15.13-.42.2-.62a9.49,9.49,0,0,1,.67-2c0-.05,0-.11,0-.17a4.29,4.29,0,0,1,.4-1.35,1.05,1.05,0,0,0,.11-.53,9.54,9.54,0,0,1,.66-1.86c.11-.36.2-.74.33-1.11s.22-.5.33-.76.2-.56.3-.83a5.55,5.55,0,0,0,.32-.92.38.38,0,0,1,.08-.17,12.43,12.43,0,0,0,.91-1.87,11.5,11.5,0,0,1,.49-1.22c.17-.24.31-.52.46-.77s.23-.48.36-.72a14.13,14.13,0,0,1,1-2,10.19,10.19,0,0,0,.85-1.64c.17-.37.29-.77.43-1.15a11.48,11.48,0,0,1,1.13-2.17A5,5,0,0,1,23,.64,2.09,2.09,0,0,1,24.39.36s.09.07.13.09a3.15,3.15,0,0,0,.7.37,4.48,4.48,0,0,1,1.5.61s.09.05.13.05A9.51,9.51,0,0,1,29,2.29l1.57.59c.33.12.63.29,1,.39A19.38,19.38,0,0,1,33.68,4c.27.09.53.22.8.34l.46.16c.09,0,.2,0,.26.08.42.41,1,.4,1.5.63a14.87,14.87,0,0,0,1.5.55l1.56.64,1.87.72c.86.33,1.7.65,2.56.95l1.43.49c.44.15.84.34,1.27.49.59.23,1.2.45,1.79.66l1.89.67c.47.16,1,.3,1.43.49q1.16.43,2.28.93a5.69,5.69,0,0,1,.64.37.37.37,0,0,0-.22.4,7.76,7.76,0,0,1-.21,2.71c-.11.34-.07.74-.16,1.12s-.28.91-.42,1.36c-.2.68-.38,1.35-.6,2-.07.26-.2.52-.29.77a5.25,5.25,0,0,1-.22.55c-.14.42-.3.81-.43,1.23s-.34,1-.49,1.48a1.38,1.38,0,0,1-.07.26c-.3.61-.59,1.21-.87,1.82a5.54,5.54,0,0,0-.37.87,7.86,7.86,0,0,1-.61,1.5,2.53,2.53,0,0,0-.21.64,1.71,1.71,0,0,1-.37.86,2.43,2.43,0,0,0-.2.35c-.27.52-.49,1-.75,1.54s-.52,1-.77,1.43-.35.76-.54,1.12-.41.63-.62.94a1.62,1.62,0,0,0-.17.32c-.43.92-.85,1.87-1.3,2.79-.17.36-.39.71-.58,1.07-.27.53-.55,1-.8,1.57-.38.78-.74,1.57-1.11,2.33s-.75,1.47-1.12,2.22a9.84,9.84,0,0,0-.37,1,1.19,1.19,0,0,1-.09.15,4.35,4.35,0,0,0-.6,1.27c-.16.45-.36.9-.48,1.36a13.19,13.19,0,0,0-.62,1.69,3.39,3.39,0,0,1-.33.8,2.92,2.92,0,0,0-.19.49,11.78,11.78,0,0,1-.79,2c-.32.75-.61,1.54-.9,2.31-.18.46-.37.94-.56,1.4l0,.09c-.25.87-.47,1.74-.74,2.6-.13.42-.35.81-.49,1.2-.25.77-.48,1.53-.73,2.3a6.21,6.21,0,0,0-.23.65,5.68,5.68,0,0,0-.22,1c0,.49-.26,1-.35,1.46a11,11,0,0,0-.25,1.61,5,5,0,0,0,.13,1.22A.94.94,0,0,1,33.5,71ZM32,69.63a1.32,1.32,0,0,0,.05-.25,4.82,4.82,0,0,1,0-.66c.16-.8.36-1.58.5-2.38a8.78,8.78,0,0,1,.34-1.74c.18-.45.34-.92.5-1.37.51-1.44,1-2.86,1.51-4.3.33-.92.71-1.84,1-2.78.2-.74.61-1.39.75-2.13a4.28,4.28,0,0,1,.17-.46,10.38,10.38,0,0,0,.62-1.75,5.33,5.33,0,0,1,.39-1.1c.16-.45.31-.92.47-1.37s.3-.93.46-1.38.27-.79.43-1.18.47-1.05.7-1.58.38-.9.58-1.35.46-.79.62-1.22.46-.79.62-1.26a7.27,7.27,0,0,1,.85-1.75c.48-.72.68-1.58,1.2-2.29a11.44,11.44,0,0,0,.79-1.78c.25-.54.57-1.08.84-1.61s.66-1.24,1-1.87c.25-.48.53-.95.79-1.44.37-.7.75-1.42,1.08-2.13.25-.54.43-1.11.64-1.64.09-.23.13-.46.23-.69a32,32,0,0,0,1.58-4c.08-.23.23-.46.31-.7q.43-1.12.84-2.25l0-.13A12.67,12.67,0,0,1,52.56,17a10.23,10.23,0,0,0,.35-1.11c.09-.47.27-.92.38-1.36.18-.61.3-1.24.44-1.87l-.39-.14c-.48-.15-1-.28-1.42-.45-.65-.23-1.28-.45-1.92-.7l-.77-.29c-.31-.11-.58-.25-.89-.36-.53-.17-1-.31-1.57-.49s-1.27-.46-1.92-.69l-.75-.24L42.45,8.8c-.18-.06-.37-.17-.55-.23-.5-.18-1-.38-1.52-.52a2.42,2.42,0,0,1-.68-.25.9.9,0,0,0-.3-.12,14.1,14.1,0,0,1-1.91-.6c-.38-.15-.77-.17-1.15-.33-1.38-.51-2.79-.91-4.2-1.33a6.2,6.2,0,0,1-.95-.31,3.49,3.49,0,0,0-.71-.28A11.41,11.41,0,0,1,29.3,4.5a18.21,18.21,0,0,0-2-.66c-.8-.23-1.56-.58-2.36-.8-.46-.12-.9-.32-1.38-.49a4.33,4.33,0,0,0-.39.51c-.25.44-.45.89-.72,1.3a18.67,18.67,0,0,0-1.05,2.33c-.26.51-.53,1-.77,1.53s-.39.81-.56,1.24-.26.74-.41,1.09c-.37.82-.75,1.62-1.1,2.42-.09.2-.06.45-.19.59a4.55,4.55,0,0,0-.5,1.24c-.35.75-.52,1.53-.85,2.27s-.5,1.26-.75,1.88c-.07.22-.24.46-.18.65.11.48-.17.87-.26,1.28-.2.85-.55,1.67-.82,2.49-.17.54-.33,1.1-.52,1.64-.14.38-.32.72-.47,1.09s-.39,1-.56,1.46-.29.87-.44,1.3a12.39,12.39,0,0,0-.65,1.76c-.08.42-.24.8-.36,1.21A7.86,7.86,0,0,0,11.66,33c-.14.86-.65,1.61-.75,2.47l0,.09c-.45.73-.49,1.61-.9,2.36-.22.39-.27.87-.48,1.29s-.26,1.14-.69,1.6c0,0,0,.09,0,.12-.08.28-.18.55-.24.83a2.31,2.31,0,0,1-.32.74c-.08.11-.22.2-.22.33s-.22.34-.22.5a.92.92,0,0,1-.22.51c-.3.51-.42,1.07-.68,1.57-.18.34-.31.72-.5,1.06-.07.15-.25.27-.31.43A3.84,3.84,0,0,1,5.49,48a1.2,1.2,0,0,0-.17.34,1.78,1.78,0,0,1-.16.51c-.31.58-.62,1.14-.91,1.73a11.89,11.89,0,0,0-.52,1.15c-.12.28-.21.6-.32.9a2.4,2.4,0,0,0-.19.72c0,.45,0,.91,0,1.37a.43.43,0,0,1-.06.22.67.67,0,0,0,0,.66,1.6,1.6,0,0,1,.06.4,4.37,4.37,0,0,0,.43,2A5.28,5.28,0,0,0,4.93,59.6a.64.64,0,0,0,.33.1c.18,0,.44,0,.56.12a5.69,5.69,0,0,0,1.52.58c.7.33,1.45.49,2.18.76.35.12.68.27,1,.36a4.94,4.94,0,0,1,1,.31c.19.07.38.18.58.25s.57.16.85.28c.61.22,1.2.49,1.83.67a4.57,4.57,0,0,1,1.16.45.72.72,0,0,0,.25.07,2.8,2.8,0,0,1,1.17.48,3.19,3.19,0,0,0,.33.11,5.18,5.18,0,0,1,1.41.46,7.21,7.21,0,0,0,1.23.5,5.87,5.87,0,0,1,1.65.61,1.17,1.17,0,0,0,.3.1,8.47,8.47,0,0,1,1.29.42,4.53,4.53,0,0,0,1.06.4,1.25,1.25,0,0,1,.26.07c.77.32,1.53.64,2.32.94s1.47.53,2.2.83,1.33.59,2,.87A2,2,0,0,0,32,69.63Z"/><path class="cls-1" d="M26,18.41l.07,0,0,.83.5-.66.07,0-.37,1-.07,0,.28-.81-.42.56-.07,0,0-.7-.29.81-.07,0Z"/><path class="cls-1" d="M26.65,19.83l.64-.95.07,0-.1,1.14-.07,0,0-.28-.35-.12-.16.23Zm.56-.15.05-.65-.36.55Z"/><path class="cls-1" d="M28.07,19.36l-.31.87-.07,0,.37-1,.08,0,.05,1,.31-.86.07,0-.37,1-.08,0Z"/><path class="cls-1" d="M28.88,20.28c0,.12-.05.26.09.31s.22,0,.26-.15l.07-.2-.16,0,0-.06.23.09-.08.23c-.06.16-.17.31-.37.23a.25.25,0,0,1-.16-.35l.18-.51a.28.28,0,0,1,.38-.21c.24.08.17.26.11.44v0l-.07,0,0-.06c0-.12.06-.24-.1-.3s-.21,0-.26.16Z"/><path class="cls-1" d="M30.06,19.87l.41.14v.06L30.11,20l-.14.41.3.11,0,.05-.3-.11-.16.45.34.13,0,.05-.41-.15Z"/><path class="cls-1" d="M31,21.38l-.46-.17s0,0,0-.05l.69-.79-.36-.12,0-.06.45.16v.06c-.07.07-.14.17-.21.25s-.32.37-.48.55l.37.14v0Z"/><path class="cls-2" d="M32.54,21.56l.16.06,0,.09a.26.26,0,0,1-.34.16.27.27,0,0,1-.18-.35l.2-.58a.26.26,0,0,1,.36-.15.26.26,0,0,1,.17.34l0,.09-.16-.06,0-.05c0-.07,0-.13-.06-.17a.1.1,0,0,0-.14.06l-.21.57a.13.13,0,0,0,.07.15c.09,0,.13,0,.16-.09Z"/><path class="cls-2" d="M33.78,21.45l-.2.56a.26.26,0,0,1-.35.18.29.29,0,0,1-.18-.35l.2-.58a.26.26,0,0,1,.36-.15A.26.26,0,0,1,33.78,21.45Zm-.56.43a.12.12,0,0,0,.07.15c.05,0,.11,0,.13-.08l.2-.58c0-.05,0-.09-.06-.1s-.13,0-.14.05Z"/><path class="cls-2" d="M34.34,21.81l-.24.67-.16-.06.37-1,.16.05,0,.75.23-.65.16.06-.37,1-.16-.06Z"/><path class="cls-2" d="M35.74,22.25l-.16-.06v0c0-.08.06-.17,0-.2a.13.13,0,0,0-.15.07c-.09.25.3.31.17.67a.28.28,0,0,1-.36.17.24.24,0,0,1-.17-.32l0-.09.16.06v0c0,.07-.06.18.05.21s.13,0,.16-.1-.29-.33-.18-.65a.27.27,0,0,1,.36-.16.25.25,0,0,1,.17.33l0,.09Z"/><path class="cls-2" d="M36,23.14l.37-1.05.17.06-.37,1Z"/><path class="cls-2" d="M37,22.59l-.21.58a.13.13,0,0,0,.07.15.1.1,0,0,0,.14-.06l.07-.18-.11,0,0-.13.27.1-.11.3a.25.25,0,0,1-.34.16.26.26,0,0,1-.18-.34l.21-.58a.26.26,0,0,1,.36-.16.27.27,0,0,1,.16.35l0,.1-.16-.05,0-.08c0-.07,0-.13-.06-.16S37,22.52,37,22.59Z"/><path class="cls-2" d="M37.94,23.09l-.24.67-.16-.06.37-1.05.16.06,0,.75.23-.65.16.05-.37,1.05L38,23.85Z"/><path class="cls-2" d="M39.13,23.73l-.22-.07-.12.34.27.1-.05.12-.43-.15L39,23l.43.16,0,.12-.27-.09-.11.3.22.08Zm.28-.87-.3.12,0-.06a1.1,1.1,0,0,0,.25-.19Z"/><path class="cls-2" d="M46.19,18.18a.22.22,0,0,0,.08.05.86.86,0,0,1,.3.23s0,0,.06.07,0,.08-.05.13a.11.11,0,0,1-.08,0,.5.5,0,0,1-.21-.09c-.13-.09-.26-.2-.39-.28l-.09-.1a.1.1,0,0,1,0-.08.39.39,0,0,1,.15-.19l.2-.09.14-.07a.65.65,0,0,1,.24-.06.11.11,0,0,1,.08,0c.06,0,.06.06,0,.11a.43.43,0,0,1-.18.22,1.87,1.87,0,0,1-.28.13Zm.3-.3c-.05,0-.08,0-.12,0A2.13,2.13,0,0,0,46,18l0,0,.21,0,.17-.06C46.46,17.93,46.48,17.92,46.49,17.88Z"/><path class="cls-2" d="M44.68,16.67l0-.09a2.21,2.21,0,0,1,.16-.35.09.09,0,0,1,.06-.06s.08,0,.14,0,0,.05,0,.07a.79.79,0,0,1-.06.22,3.45,3.45,0,0,1-.21.43s0,.07-.08.1,0,0-.07,0a.29.29,0,0,1-.2-.11,1.13,1.13,0,0,1-.12-.18c0-.05-.07-.09-.09-.14a1.08,1.08,0,0,1-.1-.24.08.08,0,0,1,0-.07c0-.06,0-.09.1-.07a.51.51,0,0,1,.23.15.83.83,0,0,1,.17.28Zm-.34-.26c0,.05,0,.08,0,.11a2.39,2.39,0,0,0,.21.34v0a1.89,1.89,0,0,0-.09-.21c0-.05-.06-.11-.08-.15S44.38,16.42,44.34,16.41Z"/><path class="cls-2" d="M46,16.9a.91.91,0,0,1,.13-.08,1.75,1.75,0,0,1,.54-.25.14.14,0,0,1,.14,0,.58.58,0,0,1,.13.14c0,.05,0,.08,0,.13a.64.64,0,0,1-.26.21,5.34,5.34,0,0,1-.68.33l-.19.05s-.1,0-.12,0a.46.46,0,0,1-.15-.32v-.34a1.11,1.11,0,0,1,0-.26,1.36,1.36,0,0,1,.12-.39.28.28,0,0,1,.07-.09c.06-.06.13,0,.19,0a.59.59,0,0,1,.16.4,2.2,2.2,0,0,1-.05.49S46,16.88,46,16.9Zm-.17-.65c-.06,0-.05.12-.07.18a2.51,2.51,0,0,0-.06.62l0,0c0-.12.08-.22.1-.34a2.42,2.42,0,0,0,0-.25A.24.24,0,0,0,45.84,16.25Z"/><path class="cls-3" d="M26,17.35a3.27,3.27,0,0,1-.62-.43,1,1,0,0,1-.19-.43,3,3,0,0,1-.05-1,3.15,3.15,0,0,1,.29-1.17c.13-.24.24-.51.38-.74a4.36,4.36,0,0,1,.59-.8,3.66,3.66,0,0,1,.59-.52,1.86,1.86,0,0,1,.33-.19.39.39,0,0,1,.44.09.16.16,0,0,1,0,.15c0,.07-.12.1-.09.17a.52.52,0,0,0,.16.12,1,1,0,0,1,.39.56,3.11,3.11,0,0,1,.08,1.49,6.87,6.87,0,0,1-.24,1A3.48,3.48,0,0,1,27.27,17a2.18,2.18,0,0,1-.76.48l-.15,0A.75.75,0,0,0,26,17.35Zm.55-2.7c0,.12-.1.24-.13.37a3.91,3.91,0,0,1-.17.61,3.58,3.58,0,0,1-.09.35,2.59,2.59,0,0,0-.08.63c0,.13,0,.15.16.11a.4.4,0,0,0,.19-.07,1.94,1.94,0,0,0,.66-.54,3.29,3.29,0,0,0,.7-1.25,4.39,4.39,0,0,0,.15-1.2c0-.21,0-.43,0-.64a.43.43,0,0,0-.21-.32c-.11-.08-.14-.07-.22,0A13.5,13.5,0,0,0,26.54,14.65Z"/><path class="cls-3" d="M29.18,16.53a.24.24,0,0,0-.14.12c-.28.32-.58.66-.87,1a.43.43,0,0,1-.4.16.16.16,0,0,1-.12-.25,9.88,9.88,0,0,0,.91-1.12c.11-.16.25-.31.37-.47a.39.39,0,0,0,.1-.35.79.79,0,0,0,0-.17A1.6,1.6,0,0,1,29,15c0-.12-.05-.26-.05-.39,0-.35-.06-.68-.07-1s0-.51-.05-.76a2.44,2.44,0,0,1,0-.66,3.15,3.15,0,0,1,.32-.76s.05-.08.1-.06a.11.11,0,0,1,.08.11,5.29,5.29,0,0,0,.08.8c0,.23.07.45.07.67s0,.38,0,.56.08.65.06,1c0,.08,0,.13,0,.19a2.48,2.48,0,0,1,0,.38c.05,0,.06,0,.1,0l.54-.68.91-1a1.9,1.9,0,0,1,.25-.24c.11-.08.23-.14.36,0s.13.1,0,.22-.22.27-.32.39c-.49.56-.93,1.13-1.4,1.69a3,3,0,0,1-.29.33.4.4,0,0,0-.11.4,6.48,6.48,0,0,1,.1.77,2.94,2.94,0,0,0,.11.66c0,.12,0,.26.08.38a5.58,5.58,0,0,0,.23.69c0,.07.1.11.14.15s.12.12.08.19a.21.21,0,0,1-.23.06,1.31,1.31,0,0,1-.49-.27.67.67,0,0,1-.22-.33,1.89,1.89,0,0,0-.09-.21.16.16,0,0,1,0-.12c0-.23-.11-.44-.13-.65a5.71,5.71,0,0,1-.13-.72C29.21,16.56,29.19,16.56,29.18,16.53Z"/><path class="cls-1" d="M35.49,14.28l-.06.16-2.08-.74-.9,2.53,1.83.66-.06.16-1.83-.65-.95,2.68,2.1.75-.06.16-2.3-.82,2-5.71Z"/><path class="cls-1" d="M34.13,20.24c1.16-1.74,2.32-3.47,3.5-5.2l.22.07-.56,6.25-.19-.07.13-1.59-2-.69-.87,1.3Zm3.11-.72.37-4.13-2.32,3.46Z"/><path class="cls-1" d="M38.39,21.75l-.2-.07,2-5.56L39,15.69l.06-.16,2.61.93-.06.16-1.22-.44-2,5.56Z"/><path class="cls-1" d="M41.7,22.93l-.2-.07,1-2.7L42,16.58l.2.07L42.64,20l2.43-2.34.2.07-2.61,2.5Z"/><path class="cls-3" d="M25.2,13.36c.13-.16.3-.28.44-.44a5.38,5.38,0,0,0,.74-.89,2.13,2.13,0,0,0,.42-.9.85.85,0,0,0-.24-.76,2.06,2.06,0,0,0-.51-.34,2.41,2.41,0,0,0-1-.18,1.49,1.49,0,0,0-.5.06c-.14,0-.13,0-.15-.09a.31.31,0,0,0-.15-.22,1.28,1.28,0,0,1-.2-.11.3.3,0,0,0-.33,0,.26.26,0,0,0-.14.17,3.8,3.8,0,0,0-.35.77c-.08.27-.16.55-.22.83a3.47,3.47,0,0,0-.13.48,2.76,2.76,0,0,1-.11.65.06.06,0,0,0,0,.06c-.07.32-.07.67-.15,1s-.11.72-.21,1.06a6.17,6.17,0,0,1-.1.62c0,.12,0,.26-.05.38a7.72,7.72,0,0,0-.14.79.49.49,0,0,0,.27.5,1.82,1.82,0,0,0,.39.14.34.34,0,0,0,.34,0,5.16,5.16,0,0,0,.52-.33c.11-.08.22-.14.33-.23a3.59,3.59,0,0,0,.57-.46,1.86,1.86,0,0,0,.33-.41.37.37,0,0,0,.08-.48l0-.05a.18.18,0,0,0-.05-.08,1.2,1.2,0,0,0-.27-.28.91.91,0,0,0-.41-.19,3.51,3.51,0,0,1,.36-.29C24.72,13.85,25,13.62,25.2,13.36Zm-.68-3a1.81,1.81,0,0,1,.51-.08c.13,0,.25,0,.36,0a1.56,1.56,0,0,1,.65.09.49.49,0,0,1,.31.5,1.38,1.38,0,0,1-.29.64c-.38.5-.78.94-1.17,1.41-.21.25-.42.52-.6.78s-.36.38-.55.7c0,0,0,0,0,0,0-.25,0-.26,0-.47s.16-.55.18-.85c0,0,0-.07,0-.11a1,1,0,0,0,.08-.35,2.75,2.75,0,0,1,.11-.41c.07-.38.13-.76.19-1.17a4.68,4.68,0,0,0,.07-.54A.15.15,0,0,1,24.52,10.36ZM23,16.27s.18-.34.19-.37c.06-.22.22-.55.28-.78a.5.5,0,0,1,.23-.3,1.21,1.21,0,0,1,.65,0c.16.06.25.21.15.36a.61.61,0,0,0-.07.14l-.09.1-.36.32Z"/><path class="cls-1" d="M22.09,26.25a2.38,2.38,0,0,0-.16.58c0,.08,0,.09.08.09s.22,0,.34,0,.16-.05.25-.06l.32,0a.17.17,0,0,1,.18.09.06.06,0,0,1,0,.11,1.5,1.5,0,0,0-.36.11h-.05a.37.37,0,0,0-.2.09,1.38,1.38,0,0,1-.27.14l0,0a.65.65,0,0,1-.31.08.19.19,0,0,1-.12,0,3.75,3.75,0,0,1-.33-.26.39.39,0,0,1-.13-.28,1.83,1.83,0,0,1,.09-.62,2.41,2.41,0,0,0,.08-.25,1.06,1.06,0,0,1,.09-.25,3.13,3.13,0,0,1,.35-.71l.29-.4a3.45,3.45,0,0,0,.23-.28.54.54,0,0,1,.12-.09.68.68,0,0,1,.29-.18l0,0a.57.57,0,0,1,.28-.11.7.7,0,0,1,.65.27.25.25,0,0,1,.05.16.08.08,0,0,1,0,.07c0,.05-.07.06-.11,0a.25.25,0,0,0,0-.07.14.14,0,0,0-.2-.08.82.82,0,0,0-.41.27,3.65,3.65,0,0,0-.31.36,3.4,3.4,0,0,0-.29.48A5.32,5.32,0,0,0,22.09,26.25Z"/><path class="cls-1" d="M23.65,27.93a2.16,2.16,0,0,1-.35-.24.47.47,0,0,1-.1-.24,1.82,1.82,0,0,1,0-.57,2.22,2.22,0,0,1,.17-.66c.07-.14.13-.28.21-.42a2.24,2.24,0,0,1,.35-.46,1.3,1.3,0,0,1,.33-.29,1.18,1.18,0,0,1,.19-.11.2.2,0,0,1,.24,0s0,.05,0,.08-.06.06,0,.1.06,0,.09.06a.58.58,0,0,1,.21.32,1.72,1.72,0,0,1,0,.84,3.41,3.41,0,0,1-.14.55,1.88,1.88,0,0,1-.46.75,1.18,1.18,0,0,1-.44.28.11.11,0,0,1-.08,0A.73.73,0,0,0,23.65,27.93ZM24,26.4a.9.9,0,0,0-.08.21,3.37,3.37,0,0,1-.09.34c0,.07,0,.14-.05.21a1,1,0,0,0,0,.35c0,.08,0,.09.08.07l.11,0a1.13,1.13,0,0,0,.38-.31,1.79,1.79,0,0,0,.4-.71,2.29,2.29,0,0,0,.08-.69,2.17,2.17,0,0,0,0-.36.3.3,0,0,0-.12-.19c-.06-.05-.08,0-.12,0A5.86,5.86,0,0,0,24,26.4Z"/><path class="cls-1" d="M27.48,27.37l-.19.43c-.07.16-.15.33-.22.5s-.17.34-.26.5,0,0,0,0a.31.31,0,0,1-.32-.05s0-.05,0-.08a5.05,5.05,0,0,1,.18-.55c.05-.17.1-.33.16-.5a3.75,3.75,0,0,1,.17-.47c.08-.18.14-.36.23-.53s.07-.23.14-.34l-.25.21a2.54,2.54,0,0,1-.36.29l-.16.08s0,0-.06,0l-.18,0a.22.22,0,0,1-.13-.12,2.16,2.16,0,0,1-.18-.66c0-.18-.07-.36-.11-.53,0,0,0,0,0,0s0,0,0,.07c0,.24-.07.48-.09.73s0,.48-.05.71-.08.67-.14,1a1.65,1.65,0,0,1-.07.32.32.32,0,0,1-.08.14.13.13,0,0,1-.2,0,.13.13,0,0,1-.06-.11,2.33,2.33,0,0,1-.05-.28s0,0,0,0a.14.14,0,0,1,0-.06,1.21,1.21,0,0,0,0-.19c0-.14,0-.27,0-.4s0-.53.05-.8,0-.42.05-.64.05-.24.06-.37a2.62,2.62,0,0,1,.11-.4.87.87,0,0,1,.15-.24c0-.07.12-.07.19-.06a.66.66,0,0,1,.4.17.49.49,0,0,1,.13.23,3.15,3.15,0,0,1,.09.52c0,.26,0,.52.06.77,0,.06,0,.13.06.15s.09,0,.13-.06a7.45,7.45,0,0,0,.69-.57.26.26,0,0,1,.37,0,.16.16,0,0,1,0,.07,1.62,1.62,0,0,1,0,.22,2.34,2.34,0,0,1-.09.46A3.28,3.28,0,0,1,27.48,27.37Z"/><path class="cls-1" d="M30,28.26c-.06.14-.12.28-.19.42s-.15.34-.22.5-.17.34-.26.51a0,0,0,0,1,0,0,.29.29,0,0,1-.32,0s0-.06,0-.09.12-.36.18-.55.1-.33.16-.49a3.75,3.75,0,0,1,.17-.47c.08-.18.14-.37.23-.53s.07-.23.14-.34l-.25.21a3.51,3.51,0,0,1-.36.29l-.16.07H29l-.18-.05a.22.22,0,0,1-.13-.12A2.22,2.22,0,0,1,28.5,27c0-.17-.07-.35-.11-.53,0,0,0,0,0,0s0,0,0,.07q-.06.36-.09.72c0,.24,0,.48-.05.72s-.08.66-.14,1a1.65,1.65,0,0,1-.07.32.39.39,0,0,1-.08.14.13.13,0,0,1-.2,0,.13.13,0,0,1-.06-.11c0-.09,0-.19,0-.28s0,0,0,0,0,0,0-.06a.67.67,0,0,0,0-.2c0-.13,0-.26,0-.39s0-.54.05-.8,0-.43,0-.64.05-.25.06-.37a3.11,3.11,0,0,1,.11-.41.91.91,0,0,1,.15-.23c0-.07.12-.07.19-.06a.6.6,0,0,1,.41.17.51.51,0,0,1,.12.23,3.15,3.15,0,0,1,.09.52c0,.26,0,.51.06.77,0,.05,0,.12.06.15s.09,0,.13-.06a7.74,7.74,0,0,0,.69-.57.25.25,0,0,1,.37,0,.21.21,0,0,1,0,.06,1.77,1.77,0,0,1,0,.23,2.34,2.34,0,0,1-.09.46A3.28,3.28,0,0,1,30,28.26Z"/><path class="cls-1" d="M32.06,28.35c-.05.19-.14.36-.2.53a.13.13,0,0,0,0,.12,0,0,0,0,1,0,.05l-.06.06a4.08,4.08,0,0,0-.25.77l-.06.18a0,0,0,0,1-.06,0,0,0,0,0,1,0-.05.11.11,0,0,1,0-.05c0-.16.07-.33.11-.49a2,2,0,0,0,0-.24v-.18c0-.07,0-.07-.07-.08s-.38-.05-.57-.08a1,1,0,0,1-.25,0,.15.15,0,0,0-.16.07c-.11.17-.22.35-.34.52s-.33.57-.52.85a.38.38,0,0,1-.09.09c-.07,0-.11,0-.16,0a.24.24,0,0,1-.05-.14c0-.1,0-.2,0-.3a3.42,3.42,0,0,1,.37-1,3,3,0,0,0,.15-.31l0,0c.07-.09.12-.19.18-.28s.19-.26.28-.4l.24-.31a2.31,2.31,0,0,1,.2-.24c.13-.13.24-.27.36-.4a1,1,0,0,1,.38-.28.35.35,0,0,1,.41.05,1.9,1.9,0,0,1,.21.19.47.47,0,0,1,.12.41c0,.22-.08.43-.12.64A3.18,3.18,0,0,1,32.06,28.35Zm-.46-.77a.15.15,0,0,0-.1.07,3.08,3.08,0,0,0-.37.44l0,0c-.14.17-.29.34-.42.52s-.05.08,0,.09l.41.06.31.05c.07,0,.08,0,.09-.06a.66.66,0,0,1,0-.14v-.26c0-.12,0-.24,0-.36a1.12,1.12,0,0,1,0-.32A.29.29,0,0,0,31.6,27.58Z"/><path class="cls-1" d="M33.42,30.73s0,0,0,0a6.88,6.88,0,0,1,.32-.74l.26-.57.2-.42c.09-.19.17-.38.27-.56s.15-.3.22-.44.15-.29.23-.43,0-.05.09,0,.09.07.08.15A1.33,1.33,0,0,1,35,28c-.11.25-.21.5-.32.74s-.27.63-.42.94-.14.34-.22.5-.24.57-.39.84l-.07.11a.12.12,0,0,1-.16,0,.23.23,0,0,1-.13-.14,4.5,4.5,0,0,0-.16-.48c-.06-.15-.08-.32-.13-.47a2.33,2.33,0,0,1-.13-.52,1.57,1.57,0,0,0-.06-.28.15.15,0,0,1,0-.07.17.17,0,0,0,0-.14s0,0,0,0a1.42,1.42,0,0,0-.07.22c0,.1-.06.21-.09.31s-.06.19-.08.28a.83.83,0,0,1-.06.21c0,.13-.08.27-.13.41a1.88,1.88,0,0,1-.12.3.17.17,0,0,1-.12.1h0a.45.45,0,0,1-.23-.24,1.2,1.2,0,0,1,0-.38c0-.19.08-.39.13-.57s.1-.45.16-.67.11-.37.16-.56.08-.3.11-.44a1.82,1.82,0,0,1,.15-.41c0-.07.09-.1.15-.08a.93.93,0,0,1,.51.34.46.46,0,0,1,.1.26c0,.11,0,.22,0,.33a1,1,0,0,1,0,.25.29.29,0,0,0,0,.09c0,.06,0,.11,0,.17a.25.25,0,0,1,0,.17s0,0,0,0a.79.79,0,0,1,0,.34c0,.3,0,.6,0,.89A1.51,1.51,0,0,0,33.42,30.73Z"/><path class="cls-1" d="M36.52,29.71a2,2,0,0,1-.31.58c-.11.14-.22.26-.34.39l-.35.4-.58.62c-.12.14-.26.26-.38.39a.16.16,0,0,1-.19,0,.59.59,0,0,1-.18-.13.12.12,0,0,1,0-.17l.25-.27a.34.34,0,0,0,.08-.17,1.93,1.93,0,0,1,0-.41c0-.13,0-.26,0-.4s0-.18,0-.27a2.3,2.3,0,0,1,0-.45l.12-.54a2.4,2.4,0,0,1,.12-.44.64.64,0,0,0,0-.07,2.26,2.26,0,0,1,.15-.41c.07-.14.17-.17.32,0a.28.28,0,0,0,.17.09,1.44,1.44,0,0,1,.69.25,1.29,1.29,0,0,1,.24.23.2.2,0,0,1,0,.08l0,.09a.55.55,0,0,1,.09.3.85.85,0,0,1,0,.22A.42.42,0,0,1,36.52,29.71ZM34.91,31h0l.08-.09.14-.16a2.92,2.92,0,0,0,.28-.32l.11-.13a2.37,2.37,0,0,1,.29-.34.05.05,0,0,0,0,0l.07-.1a1.24,1.24,0,0,0,.21-.33.75.75,0,0,0,.07-.33.42.42,0,0,0-.25-.36,1.35,1.35,0,0,0-.49-.11c-.08,0-.08,0-.09.07s-.08.41-.09.62c0,0,0,.06,0,.1l-.06.29a3.85,3.85,0,0,1-.08.49c0,.1-.05.21-.09.31l-.07.18A1.05,1.05,0,0,0,34.91,31Z"/><path class="cls-1" d="M37.88,28.94c.21.08.41.13.61.19l.17.07s.06,0,.05.06-.05,0-.08,0a1.84,1.84,0,0,1-.33,0,3.89,3.89,0,0,1-.49-.12.22.22,0,0,0-.25.11,2.27,2.27,0,0,0-.19.34c-.09.22-.19.43-.28.65s-.07.2-.1.3,0,.09.06.11l.24.08a.23.23,0,0,1,.11.08s0,.06,0,.08a.25.25,0,0,1-.19,0l-.24,0c-.06,0-.08,0-.1.05l-.12.32c-.09.23-.17.47-.26.7a.08.08,0,0,0,0,0s0,.05.05.05h.07l.69-.15.3-.07s.08,0,.1,0,0,.07,0,.1a.35.35,0,0,1-.16.06,3.37,3.37,0,0,0-.34.1l-.41.11-.27.08a.21.21,0,0,1-.23,0h0A.23.23,0,0,1,36,32c0-.16,0-.31.09-.46s.13-.54.21-.8a3.48,3.48,0,0,1,.21-.59l.15-.35a4.19,4.19,0,0,1,.38-.69,1,1,0,0,1,.16-.19.34.34,0,0,1,.27-.08l.17,0Z"/><path class="cls-1" d="M25.36,38.79a.44.44,0,0,1,.57-.28.37.37,0,0,1,.23.5c-.13.38-.6.33-.84.73l.5.18-.07.19L25,39.85c.23-.64.83-.58.95-.93a.18.18,0,0,0-.12-.23.28.28,0,0,0-.34.19v0Z"/><path class="cls-1" d="M26.07,40.22l-.21-.07.48-.45-.09-.65.21.08.05.4.3-.28.21.08-.47.45.08.64-.21-.07-.05-.41Z"/><path class="cls-1" d="M27.18,40.62l.52-1.48.14,0,.11,0c.28.1.38.23.27.53,0,.13-.11.28-.25.3a.41.41,0,0,1,0,.4c-.12.34-.28.35-.59.25Zm.43-.63-.19.55c.2.07.28.08.37-.16s.09-.3-.1-.36l-.05,0Zm.23-.64-.19.53.08,0c.18.06.25-.07.31-.22S28.05,39.43,27.84,39.35Z"/><path class="cls-1" d="M28.42,41.1a.57.57,0,0,1-.27-.75.56.56,0,0,1,.69-.41.63.63,0,0,1-.42,1.16Zm-.08-.69c-.06.18-.06.43.15.5s.36-.12.42-.29.06-.43-.14-.5S28.41,40.24,28.34,40.41Z"/><path class="cls-1" d="M29.14,41.32l-.21-.08.48-.44-.09-.65.21.07,0,.41.3-.28.21.07-.47.45.08.65-.21-.08,0-.4Z"/><path class="cls-1" d="M30.28,41.72c-.37-.13-.32-.62-.22-.91s.38-.7.74-.57.31.63.21.91S30.63,41.85,30.28,41.72Zm.46-1.3c-.24-.08-.43.28-.49.45s-.15.58.09.67.42-.29.48-.46S31,40.5,30.74,40.42Z"/><path class="cls-1" d="M31.39,42.12c-.36-.13-.31-.62-.21-.91s.38-.7.74-.57.31.62.21.91S31.75,42.25,31.39,42.12Zm.46-1.3c-.23-.08-.42.28-.48.45s-.15.58.08.67.43-.29.49-.46S32.08,40.9,31.85,40.82Z"/><path class="cls-1" d="M32.62,41.18l-.29.11.08-.25.28-.1h0l.17.06-.52,1.47-.19-.07Z"/><path class="cls-1" d="M21.51,47.7a.45.45,0,0,1,.58-.29.37.37,0,0,1,.23.5c-.14.39-.6.33-.85.74l.51.18-.07.18-.72-.25c.23-.64.83-.59.95-.94a.18.18,0,0,0-.12-.23.28.28,0,0,0-.34.2v0Z"/><path class="cls-1" d="M22.22,49.12,22,49.05l.48-.45L22.4,48l.22.08.05.41.3-.28.21.07-.48.45.09.65-.21-.08-.06-.4Z"/><path class="cls-1" d="M23.33,49.52,23.86,48l.13.05.12,0c.28.11.38.24.27.54a.39.39,0,0,1-.25.3c.09.1.05.26,0,.39-.12.34-.29.36-.59.25Zm.44-.63-.2.55c.2.07.29.08.38-.16s.08-.29-.1-.36l-.05,0Zm.22-.63-.18.52.07,0c.18.06.26-.07.31-.22S24.21,48.33,24,48.26Z"/><path class="cls-1" d="M24.58,50a.63.63,0,1,1,.68-.41A.56.56,0,0,1,24.58,50Zm-.08-.69c-.06.18-.06.43.14.51s.36-.13.43-.3.06-.43-.14-.5S24.56,49.14,24.5,49.31Z"/><path class="cls-1" d="M25.3,50.22l-.22-.08.48-.44-.09-.65.22.07,0,.41.3-.28.21.07-.48.45.09.65-.21-.08-.06-.4Z"/><path class="cls-1" d="M26.43,50.62c-.36-.13-.32-.62-.21-.91s.38-.69.74-.57.31.63.21.91S26.79,50.75,26.43,50.62Zm.46-1.3c-.23-.08-.42.29-.48.46s-.15.58.08.66.43-.29.49-.46S27.12,49.41,26.89,49.32Z"/><path class="cls-1" d="M27.55,51c-.36-.13-.32-.62-.22-.91s.38-.7.74-.57.31.63.21.91S27.91,51.15,27.55,51Zm.46-1.3c-.24-.08-.42.28-.48.46s-.15.57.08.66.42-.29.48-.46S28.24,49.8,28,49.72Z"/><path class="cls-1" d="M28.49,50.18a.44.44,0,0,1,.57-.28.36.36,0,0,1,.23.49c-.13.39-.6.33-.84.74l.5.18-.07.19-.71-.26c.22-.64.82-.59.94-.93a.19.19,0,0,0-.12-.24.29.29,0,0,0-.34.2v0Z"/><path class="cls-1" d="M26,58.51l-.59.22.16-.5.57-.2h.07l.35.13-1.05,2.94L25.11,61Z"/><path class="cls-1" d="M28,60.8a1,1,0,0,1-1.34.71,1,1,0,0,1-.63-.79h.4a.52.52,0,0,0,.35.43.71.71,0,0,0,.49-1.32.43.43,0,0,0-.53.18l-.25-.16c.1-.3.43-1.23.54-1.53l1.52.54c0,.13-.09.27-.14.39l-1.14-.41-.23.65a.58.58,0,0,1,.43,0A1,1,0,0,1,28,60.8Z"/><path class="cls-1" d="M29.72,60.36l-.13.37-.68-.25-.11.32.68.24-.13.37-.68-.25c-.09.26-.2.6.14.73s.39,0,.48-.3l.38.14a.73.73,0,0,1-1,.55.75.75,0,0,1-.49-1l0-.13.05-.14-.39-.15.13-.36.39.14.11-.31-.39-.14.13-.37.39.15.07-.19.05-.14a.73.73,0,0,1,1-.44c.53.18.56.65.4,1.1l-.38-.13c.09-.25.12-.48-.17-.59a.35.35,0,0,0-.46.19L29.1,60l-.06.16Z"/><path class="cls-1" d="M9.68,55,9.3,54.9l.94-2.63-.56-.2.11-.33,1.53.55-.12.32-.58-.21Z"/><path class="cls-1" d="M11.2,55.65a1.26,1.26,0,1,1,1.36-.83A1.11,1.11,0,0,1,11.2,55.65ZM11,54.27c-.12.36-.12.87.29,1s.73-.24.85-.59.12-.86-.28-1S11.16,53.93,11,54.27Z"/><path class="cls-1" d="M13.36,56.39l-.08,0c-.53-.19-.52-.65-.36-1.11l.37-1L13,54.11l.11-.32.34.12.22-.62.39.14-.22.61.38.14-.12.33-.38-.14-.38,1.07c-.09.24-.1.55.18.66Z"/><path class="cls-1" d="M15.13,57l.06-.29a.64.64,0,0,1-.68.13A1.09,1.09,0,0,1,14,55.33a1.1,1.1,0,0,1,1.36-.82.65.65,0,0,1,.45.52l.13-.24.32.11-.78,2.19Zm-.5-.52a.68.68,0,0,0,.79-.48l.09-.24a.68.68,0,0,0-.32-.87c-.4-.15-.72.25-.85.59S14.22,56.31,14.63,56.46Z"/><path class="cls-1" d="M15.8,57.21l1.05-3,.39.13-1.06,3Z"/><path class="cls-1" d="M16.85,34.63v0s.05,0,0-.07,0,0,.05-.06l-.06-.09a0,0,0,0,1,0,0s0,0,0-.07,0-.11-.05-.16a0,0,0,0,0,0,0s0-.06,0-.1l.06-.16,0-.06a.61.61,0,0,0,.07-.14c0-.06,0-.12.07-.18l.05-.12a.15.15,0,0,1,.14-.1.18.18,0,0,0,.07-.05.09.09,0,0,1,.07,0l.08,0h.08a.06.06,0,0,1,.07,0h0l.13,0s0,0,0,0h.12s.07,0,.11,0l.09,0h.13s.06,0,.09,0a.32.32,0,0,1,.14,0h0a.06.06,0,0,1,.07,0s0,0,0,0a0,0,0,0,0,.07,0h.17l.1,0,.11,0,.16,0a1.55,1.55,0,0,0,.23.08s.06,0,.09,0h0l.32.11.15.07h.05l.2.08.13,0,.17.08h0c.05,0,.08,0,.13,0l.1.05a.67.67,0,0,1,.12.06.25.25,0,0,0,.13.05l.09.06a.08.08,0,0,0,.07,0l.05,0a.61.61,0,0,0,.14.07l.1.06.06.05.11.08.16.08.1.05a.25.25,0,0,1,.1.08.09.09,0,0,0,.07,0l.11,0,.13.06.11.07.15.07a.46.46,0,0,1,.13.08h0a.57.57,0,0,1,.13.08.2.2,0,0,0,.08,0l.16.13.1.09a.39.39,0,0,1,.08.1l.08.09,0,0a.25.25,0,0,1,.08.12h0a.15.15,0,0,1,.05.07l.09.12a.22.22,0,0,1,.05.11.77.77,0,0,1,0,.15.28.28,0,0,1,0,.09.28.28,0,0,0,0,.13.14.14,0,0,1,0,.06l-.09.18-.08.08-.05,0-.11.1h0c-.05,0-.08,0-.12.07l-.12.07a.18.18,0,0,0-.1.07s0,0,0,0a.23.23,0,0,1-.07.1l0,0s0,.07-.05.08h0c0,.07-.11.12-.14.2l0,0a1.09,1.09,0,0,0-.13.17v0a.45.45,0,0,0-.12.16l-.05,0,0,0-.09.16s-.08.12-.13.17-.1.15-.16.22a.56.56,0,0,0-.05.08,1,1,0,0,0-.08.11,1.67,1.67,0,0,0-.18.28.47.47,0,0,1-.06.09s0,0,0,0,0,0-.05.06a1,1,0,0,0-.08.14s-.06.08-.06.14v0l-.09.11h0l0,0h0a.34.34,0,0,0-.17,0,.38.38,0,0,1-.1,0h-.07l-.09,0-.08,0s-.06,0-.09,0l-.09,0h0c-.08,0-.16,0-.24,0s0,0-.06,0h0a.17.17,0,0,0-.1,0s-.07,0-.09,0-.05,0-.07,0l-.12,0a.2.2,0,0,1-.11,0h-.07a.8.8,0,0,1-.15,0l-.11,0h0c-.05-.05-.05-.05-.08,0l-.06,0a.18.18,0,0,0-.1,0l-.08,0a1.41,1.41,0,0,1-.22-.06l0,0h0s0,0-.05,0a.14.14,0,0,0-.08,0l-.19-.07-.11,0-.12-.07-.05,0-.09,0,0,0s-.06,0-.06-.06h0s0,0-.06,0L17.75,39s0,0,0,0,0,0,0,0l0,0a.13.13,0,0,0-.1-.06v0s0,0,0,0,0,0-.06,0a.24.24,0,0,1-.08-.06h0s0,0-.06,0,0,0,0,0,0,0,0,0l-.09-.09,0,0s-.05,0-.07-.07l0,0s0,0-.05-.06l0,0,0-.05s0,0,0,0l0,0-.11-.1,0,0-.05-.09L16.61,38l-.12-.11,0,0s0,0,0-.06h0s0-.07-.05-.1a.14.14,0,0,1,0-.07l0-.12a.75.75,0,0,1,0-.15s0,0,0-.06,0-.12,0-.17a.32.32,0,0,0,0-.09s0-.06,0-.1v0a.37.37,0,0,0,.05-.17.29.29,0,0,0,0-.09.77.77,0,0,0,0-.15s0,0,0,0,0,0,0-.07v0l0-.09v0s0,0,0,0a.11.11,0,0,1,0-.08.78.78,0,0,0,0-.22l0,0v0s0-.07,0-.1,0-.06,0-.09l0,0c0-.05,0-.07,0-.1s0,0,0-.06,0,0,0,0,0,0,0,0,0,0,0-.06v0l0-.1h0l0,0,0,0,0,0v0a.42.42,0,0,1,0-.1,1.21,1.21,0,0,0,.05-.14.54.54,0,0,0,0-.1S16.84,34.66,16.85,34.63Zm4.22,4.8v0l0-.07.05-.07a.27.27,0,0,1,.07-.08s0,0,.05-.06,0,0,0,0v0s0,0,0-.06l0,0,.06-.06s.07-.06.07-.11l0,0,.06-.08.09-.11,0,0,0-.05a.1.1,0,0,0,0,0,.56.56,0,0,0,0-.08.64.64,0,0,1,.1-.13.48.48,0,0,1,.09-.11l0-.06a.24.24,0,0,1,.07-.12l0-.06,0-.06c0-.05.09-.08.11-.14s0-.06,0-.07a1.63,1.63,0,0,0,.11-.17s0-.08.09-.09v0s0,0,0-.06l.08-.12s.05-.06.06-.1l-.07,0a.14.14,0,0,1-.11,0h0s-.07,0-.1,0,0,0,0,0h0s-.05,0-.08,0a.27.27,0,0,0-.13,0h0s0,0,0,0H21.9s0,0-.08,0l-.06,0,0,0h0s-.07,0-.11,0h-.09l-.21-.06h-.07l-.09,0-.14,0-.19-.07-.12,0-.07,0-.08,0-.1,0a.56.56,0,0,1-.16-.07h0a.26.26,0,0,1-.17,0l0,0-.11,0a.35.35,0,0,0-.11,0h0l-.05,0a.61.61,0,0,1-.2-.09h0s-.07,0-.1,0l-.14-.08-.09,0h-.06L18.91,36l-.15-.07-.15-.08-.06,0-.1,0-.1-.05-.05,0c-.06,0-.09,0-.14-.07L18,35.52,18,35.47l-.1-.07-.09,0a1.92,1.92,0,0,1-.17-.13s-.05,0-.06,0a.86.86,0,0,1-.19-.19h0a.2.2,0,0,1-.06-.07h0a.21.21,0,0,1-.1-.13.08.08,0,0,0-.05,0l0,0v.06s0,.07,0,.1h0s0,0,0,0,0,0,0,.05,0,.06,0,.09a.76.76,0,0,1,0,.21s0,0,0,.05a.75.75,0,0,1-.06.13.21.21,0,0,0,0,.06c0,.06,0,.1,0,.15s0,.06,0,.09a.09.09,0,0,1,0,.06s0,0,0,0a.13.13,0,0,1,0,.06s0,.05,0,.08v0a.14.14,0,0,0,0,.06.19.19,0,0,0,0,.07.1.1,0,0,1,0,.09l0,0s0,0,0,.06v0s0,0,0,0a.59.59,0,0,1,0,.13s0,.1,0,.15a1,1,0,0,1,0,.17.41.41,0,0,0,0,.16h0a.46.46,0,0,1-.05.2.1.1,0,0,1,0,.09s0,0,.06,0,0,.1.06.13a.08.08,0,0,1,0,0,.1.1,0,0,0,.05.07.05.05,0,0,1,0,.06h0l.06.06.07.07s0,0,0,0l0,.06,0,.06s0,0,.07,0h0a.43.43,0,0,0,0,.07h0s0,0,0,0a.06.06,0,0,0,0,.05l.13.09h0l.06.08s0,0,0,0l.08.07.15.08s0,0,0,0h0l.08.05h0l.13,0,0,0s.05,0,.08.07a0,0,0,0,0,0,0s0,0,0,0,0,0,.05,0l.08,0,.08,0a.41.41,0,0,1,.11.07s.05,0,.07,0,0,0,.05,0h0l.14.05s.06,0,.07,0h0s.06,0,.07,0h.11s0,0,.07,0a.05.05,0,0,0,0,0h.06s.05,0,.07,0,0,0,.06,0l.09,0a.47.47,0,0,0,.16,0h.06l.09,0,.14,0s.06,0,.07,0,.07,0,.08,0,0,0,.07,0a0,0,0,0,1,.05,0h.26a.44.44,0,0,1,.16,0h.25l.19-.05Zm-3.54-6a.71.71,0,0,1-.32.1v0s0,0,0,.06a.16.16,0,0,0,.05.09.18.18,0,0,1,0,.07s.05,0,.05.08l0,0,0,0,.08.09a.06.06,0,0,1,0,.06.39.39,0,0,1,.11.06s0,0,.06,0h0s0,0,0,0l0,0s.07.07.11.11l0,0,.1.08.06,0a.1.1,0,0,1,.05,0l0,0c.08,0,.12.08.17.11l.11.07s0,0,.05,0,0,0,0,0a0,0,0,0,1,.06,0,.39.39,0,0,0,.14.08.67.67,0,0,1,.14.09h0A.2.2,0,0,1,19,35l.1.07.07,0,.09,0a.18.18,0,0,1,.07,0l.07.06.1,0h0a.52.52,0,0,1,.13.06l.19.1.15.06.16.08h0s.06,0,.09,0l.05,0a.15.15,0,0,1,.13,0l.07,0h0l.12,0h0l.06,0a.22.22,0,0,1,.11.05h0L21,36l.1,0s.05,0,.08,0l.11,0a.11.11,0,0,0,.08,0,.41.41,0,0,1,.19.05l.14,0,.16,0,.23,0,.12,0h.34s.08,0,.13,0h.16l.15,0h.18l.07,0a.88.88,0,0,0,.23-.07h0a.09.09,0,0,1,0-.07.09.09,0,0,0,0-.1s0-.05,0-.06a.48.48,0,0,1-.09-.11l0-.06a.09.09,0,0,0,0-.06l0,0a.43.43,0,0,0-.14-.16l0,0,0,0a.09.09,0,0,1-.06,0l-.07-.07-.15-.09a0,0,0,0,1,0,0l-.11-.09-.09-.05-.1-.06L22.36,35l-.05,0-.16-.12,0,0a.29.29,0,0,1-.18-.07l-.12-.08-.16-.07-.17-.08-.18-.11-.22-.1c-.07,0-.12-.09-.2-.11h0l-.15-.07-.09,0-.1,0s-.06,0-.08,0l-.08-.05-.29-.12-.16-.06-.26-.12h0s-.1,0-.14,0h-.1l-.14,0-.06,0-.3,0a.61.61,0,0,1-.13,0h-.11a.58.58,0,0,0-.19,0,.61.61,0,0,0-.14,0h-.08a.11.11,0,0,1-.08,0h-.09a0,0,0,0,1,0,0,.08.08,0,0,1-.09,0h-.2a.17.17,0,0,0-.1,0A.33.33,0,0,1,17.53,33.41Zm-.46.4h0a.19.19,0,0,0,0,.07A.5.5,0,0,0,17,34a.2.2,0,0,1-.08.1s0,0,0,0a.41.41,0,0,1,.05.09.39.39,0,0,0,.1.14.21.21,0,0,1,.06.08l.05.06.1.09a.58.58,0,0,0,.1.12s.05,0,.06.06a.35.35,0,0,0,.1.11h0s0,0,0,0,.05,0,.05,0l0,0,.1.07a.39.39,0,0,1,.1.08l.06,0,.06,0s0,0,0,0a.18.18,0,0,1,.07.05.37.37,0,0,0,.14.07s0,0,.06,0a1.18,1.18,0,0,0,.19.11.59.59,0,0,1,.17.1l0,0,.07,0,.09,0,.11,0,.2.1.08,0a.45.45,0,0,1,.12.06l.2.11.08,0a1.86,1.86,0,0,0,.19.11l.12,0,.14.06.08,0h0s.06,0,.1,0h0l.19.06h0l.09.05h.08s.05,0,.07,0l.16,0,.22.06h0a.39.39,0,0,1,.15,0l.1,0a.46.46,0,0,0,.2,0h0s.08,0,.11,0h0a.3.3,0,0,1,.16,0h0l.18,0h0s0,0,.06,0h.05a.38.38,0,0,0,.15,0h.08l0,0s.05,0,.06,0h.15a.32.32,0,0,1,.17,0h.2a.75.75,0,0,0,.13-.06.37.37,0,0,1,.14-.07.18.18,0,0,0,.09-.1l0-.07,0-.1h-.05a.2.2,0,0,1-.11,0s-.07,0-.09,0l-.09,0s-.08,0-.12,0h0a.06.06,0,0,1-.07,0h-.39l-.11,0h-.15l-.16,0h0l-.13,0-.21,0a1.8,1.8,0,0,0-.22-.06c-.06,0-.11-.06-.18,0h0l-.1,0a1,1,0,0,1-.16,0l-.08,0a.27.27,0,0,1-.12,0l-.05,0-.16,0-.09,0-.12-.05-.15,0-.07,0a.18.18,0,0,1-.1,0l-.11,0-.17-.06-.23-.1-.16-.06-.14-.06s-.07-.06-.12,0v0a.52.52,0,0,0-.11-.07.42.42,0,0,1-.18-.08h0a2.12,2.12,0,0,1-.21-.11h0s-.08-.06-.13-.06l-.06,0,0,0,0,0-.14-.06-.06,0-.09-.06s0,0,0,0a.14.14,0,0,0-.08-.05h0a.91.91,0,0,1-.13-.08s0,0-.06,0l-.06,0a.88.88,0,0,1-.15-.12l0,0,0,0a.12.12,0,0,0-.08-.06l-.06,0,0,0s0,0,0,0,0,0,0,0h0l0,0a.15.15,0,0,0-.06-.09s0,0-.05-.06,0-.09-.07-.12S17.07,33.84,17.07,33.81Z"/><path class="cls-4" d="M17.23,33.61a.16.16,0,0,0,.05.09.18.18,0,0,1,0,.07s.05,0,.05.08l0,0,0,0,.08.09a.06.06,0,0,1,0,.06.39.39,0,0,1,.11.06s0,0,.06,0h0s0,0,0,0l0,0s.07.07.11.11l0,0,.1.08.06,0a.1.1,0,0,1,.05,0l0,0c.08,0,.12.08.17.11l.11.07s0,0,.05,0,0,0,0,0a0,0,0,0,1,.06,0,.39.39,0,0,0,.14.08.67.67,0,0,1,.14.09h0A.2.2,0,0,1,19,35l.1.07.07,0,.09,0a.18.18,0,0,1,.07,0l.07.06.1,0h0a.52.52,0,0,1,.13.06l.19.1.15.06.16.08h0s.06,0,.09,0l.05,0a.15.15,0,0,1,.13,0l.07,0h0l.12,0h0l.06,0a.22.22,0,0,1,.11.05h0L21,36l.1,0s.05,0,.08,0l.11,0a.11.11,0,0,0,.08,0,.41.41,0,0,1,.19.05l.14,0,.16,0,.23,0,.12,0h.34s.08,0,.13,0h.16l.15,0h.18l.07,0a.88.88,0,0,0,.23-.07h0a.09.09,0,0,1,0-.07.09.09,0,0,0,0-.1s0-.05,0-.06a.48.48,0,0,1-.09-.11l0-.06a.09.09,0,0,0,0-.06l0,0a.43.43,0,0,0-.14-.16l0,0,0,0a.09.09,0,0,1-.06,0l-.07-.07-.15-.09a0,0,0,0,1,0,0l-.11-.09-.09-.05-.1-.06L22.36,35l-.05,0-.16-.12,0,0a.29.29,0,0,1-.18-.07l-.12-.08-.16-.07-.17-.08-.18-.11-.22-.1c-.07,0-.12-.09-.2-.11h0l-.15-.07-.09,0-.1,0s-.06,0-.08,0l-.08-.05-.29-.12-.16-.06-.26-.12h0s-.1,0-.14,0h-.1l-.14,0-.06,0-.3,0a.61.61,0,0,1-.13,0h-.11a.58.58,0,0,0-.19,0,.61.61,0,0,0-.14,0h-.08a.11.11,0,0,1-.08,0h-.09a0,0,0,0,1,0,0,.08.08,0,0,1-.09,0h-.2a.17.17,0,0,0-.1,0,.33.33,0,0,1-.14,0,.71.71,0,0,1-.32.1v0S17.22,33.59,17.23,33.61Zm1.63.82s0,0,.06-.07a.07.07,0,0,1,.08,0h0a.25.25,0,0,1,.15,0l.07,0h.12a.33.33,0,0,0,.14,0,.42.42,0,0,1,.15,0l.1,0,.05,0,.05,0h0l.13.06.11.06.1,0,.1,0,.06,0,.12.06.19.1.08,0h0a.58.58,0,0,1,.18.08l.05,0a.05.05,0,0,1,.05,0l0,0a.18.18,0,0,1,.1,0l.08,0,.14.08a.39.39,0,0,0,.11.06l.11.08.07.07a.07.07,0,0,1,0,0s0,0,0,0l-.13,0h-.25l-.22,0a.76.76,0,0,0-.16,0l-.15,0h-.06a.28.28,0,0,0-.13,0,.12.12,0,0,1-.09,0l-.07,0h0a.08.08,0,0,0-.05-.07l-.19-.08-.21-.1-.09,0-.12,0-.05,0a.33.33,0,0,0-.1-.06h0l-.07,0s-.05,0-.08,0l-.17-.1a.51.51,0,0,1-.18-.09L19,34.66l-.15-.08,0,0a.29.29,0,0,0,0-.09S18.87,34.45,18.86,34.43Z"/><polygon class="cls-4" points="19.82 34.55 19.82 34.55 19.82 34.55 19.82 34.55"/><path class="cls-4" d="M23.52,36.31h-.05a.2.2,0,0,1-.11,0s-.07,0-.09,0l-.09,0s-.08,0-.12,0h0a.06.06,0,0,1-.07,0h-.39l-.11,0h-.15l-.16,0h0l-.13,0-.21,0a1.8,1.8,0,0,0-.22-.06c-.06,0-.11-.06-.18,0h0l-.1,0a1,1,0,0,1-.16,0l-.08,0a.27.27,0,0,1-.12,0l-.05,0-.16,0-.09,0-.12-.05-.15,0-.07,0a.18.18,0,0,1-.1,0l-.11,0-.17-.06-.23-.1-.16-.06-.14-.06s-.07-.06-.12,0v0a.52.52,0,0,0-.11-.07.42.42,0,0,1-.18-.08h0a2.12,2.12,0,0,1-.21-.11h0s-.08-.06-.13-.06l-.06,0,0,0,0,0-.14-.06-.06,0-.09-.06s0,0,0,0a.14.14,0,0,0-.08-.05h0a.91.91,0,0,1-.13-.08s0,0-.06,0l-.06,0a.88.88,0,0,1-.15-.12l0,0,0,0a.12.12,0,0,0-.08-.06l-.06,0,0,0s0,0,0,0,0,0,0,0h0l0,0a.15.15,0,0,0-.06-.09s0,0-.05-.06,0-.09-.07-.12,0,0,0-.08h0a.19.19,0,0,0,0,.07A.5.5,0,0,0,17,34a.2.2,0,0,1-.08.1s0,0,0,0a.41.41,0,0,1,.05.09.39.39,0,0,0,.1.14l.07.08,0,.06.1.09a.58.58,0,0,0,.1.12s.05,0,.06.06a.35.35,0,0,0,.1.11h0s0,0,0,0,.05,0,.05,0l0,0,.1.07a.39.39,0,0,1,.1.08l.06,0,.06,0s0,0,0,0a.18.18,0,0,1,.07.05.37.37,0,0,0,.14.07s0,0,.06,0a1.18,1.18,0,0,0,.19.11.59.59,0,0,1,.17.1l0,0,.07,0,.09,0,.11,0,.2.1.08,0a.45.45,0,0,1,.12.06l.2.11.08,0a1.86,1.86,0,0,0,.19.11l.12,0,.14.06.08,0h0s.06,0,.1,0h0l.19.06h0l.09.05h.08s.05,0,.07,0l.16,0,.22.06h0a.39.39,0,0,1,.15,0l.1,0a.46.46,0,0,0,.2,0h0s.08,0,.11,0h0a.3.3,0,0,1,.16,0h0l.18,0h0s0,0,.06,0h.05a.38.38,0,0,0,.15,0h.08l0,0s.05,0,.06,0h.15a.32.32,0,0,1,.17,0h.2a.75.75,0,0,0,.13-.06.37.37,0,0,1,.14-.07.18.18,0,0,0,.09-.1s0,0,0-.07Z"/><path class="cls-1" d="M19.82,34.55l.05,0h0l.13.06.11.06.1,0,.1,0,.06,0,.12.06.19.1.08,0h0a.58.58,0,0,1,.18.08l.05,0a.05.05,0,0,1,.05,0l0,0a.18.18,0,0,1,.1,0l.08,0,.14.08a.39.39,0,0,0,.11.06l.11.08.07.07a.07.07,0,0,1,0,0s0,0,0,0l-.13,0h-.25l-.22,0a.76.76,0,0,0-.16,0l-.15,0h-.06a.28.28,0,0,0-.13,0,.12.12,0,0,1-.09,0l-.07,0h0a.08.08,0,0,0-.05-.07l-.19-.08-.21-.1-.09,0-.12,0-.05,0a.33.33,0,0,0-.1-.06h0l-.07,0s-.05,0-.08,0l-.17-.1a.51.51,0,0,1-.18-.09L19,34.66l-.15-.08,0,0a.29.29,0,0,0,0-.09s0,0,0,0,0,0,.06-.07a.07.07,0,0,1,.08,0h0a.25.25,0,0,1,.15,0l.07,0h.12a.33.33,0,0,0,.14,0,.42.42,0,0,1,.15,0l.1,0,.05,0s0,0,0,0,0,0,0,0l-.09,0h-.05s-.06,0-.09,0h0s-.05,0-.08,0a.2.2,0,0,0-.11,0l-.09,0-.1,0h0l.08,0,.16.08a.33.33,0,0,0,.1.06l0,0,.17.1,0,0a.15.15,0,0,1,.09,0l.09.06L20,35l0,0,.1.07.14.08.11.05,0,0,.05,0a.09.09,0,0,1,.11,0,.71.71,0,0,0,.2,0H21l.22.05h.12s0,0,0,0l-.14-.06L21,35.19l-.14-.06-.12-.06L20.54,35h0l-.05,0a.45.45,0,0,1-.12-.06l0,0a.19.19,0,0,1-.11-.05h0a.22.22,0,0,1-.13-.06l-.14-.08A.19.19,0,0,1,19.82,34.55Z"/><path class="cls-5" d="M19.82,34.55a.19.19,0,0,0,.1.1l.14.08a.22.22,0,0,0,.13.06h0a.19.19,0,0,0,.11.05l0,0a.45.45,0,0,0,.12.06l.05,0h0l.18.09.12.06.14.06.15.08.14.06s0,0,0,0h-.12L21,35.29h-.14a.71.71,0,0,1-.2,0,.09.09,0,0,0-.11,0l-.05,0,0,0-.11-.05-.14-.08-.1-.07,0,0-.16-.07-.09-.06a.15.15,0,0,0-.09,0l0,0-.17-.1,0,0a.33.33,0,0,1-.1-.06l-.16-.08-.08,0h0l.1,0,.09,0a.2.2,0,0,1,.11,0s0,0,.08,0h0s.06,0,.09,0h.05l.09,0s0,0,0,0,0,0,0,0Z"/><path class="cls-1" d="M13.25,43.52v0s0,0,0-.08,0,0,.05-.06l-.06-.09v0s0,0,0-.07a.75.75,0,0,0,0-.16s0,0,0,0a.09.09,0,0,1,0-.1l.06-.16a.43.43,0,0,1,0-.07.83.83,0,0,0,.07-.13c0-.06.05-.13.07-.18l.05-.12a.18.18,0,0,1,.14-.11.08.08,0,0,0,.07,0,.09.09,0,0,1,.07,0l.08,0h.08A.08.08,0,0,1,14,42h0l.12,0a0,0,0,0,0,0,0h.11s.07,0,.11,0l.1,0h.12a.18.18,0,0,0,.1,0,.33.33,0,0,1,.14,0h0s0,0,.08,0,0,0,0,0a.06.06,0,0,0,.07,0h.08l0,0s0,0,0,0l.09,0,.11,0,.16,0a2.09,2.09,0,0,0,.23.08l.09,0s0,0,0,0l.31.11.15.07.05,0,.2.07.13,0a.56.56,0,0,1,.17.09h0c.05,0,.08,0,.13,0l.1.06.12.06.13,0,.08.05a.09.09,0,0,0,.07,0l.06,0,.13.07a.33.33,0,0,1,.1.06s0,0,.06,0l.12.08.16.09.09,0a.28.28,0,0,1,.11.08s0,0,.06,0a.2.2,0,0,1,.11,0,.61.61,0,0,1,.14.07l.11.06a.61.61,0,0,0,.14.07.57.57,0,0,1,.13.08h0a.67.67,0,0,1,.14.09l.07,0a1,1,0,0,1,.17.13l.09.09a.39.39,0,0,1,.08.1l.08.09,0,0a.25.25,0,0,1,.08.12h0s0,0,.05.07l.09.12a.17.17,0,0,1,0,.11.45.45,0,0,1,0,.16.25.25,0,0,1,0,.08.28.28,0,0,0,0,.13s0,0,0,.06a1.42,1.42,0,0,1-.08.18l-.08.08-.06,0-.11.1h0c-.05,0-.08,0-.11.06a.42.42,0,0,1-.13.07.18.18,0,0,0-.09.08,0,0,0,0,0,0,0,.23.23,0,0,1-.07.1s0,0,0,0,0,.06,0,.08h0c0,.08-.1.13-.14.2l0,0a.76.76,0,0,0-.13.17h0a.48.48,0,0,0-.12.17l-.05,0,0,0-.1.15a1.88,1.88,0,0,1-.12.18,1.66,1.66,0,0,0-.16.21.22.22,0,0,0,0,.08l-.09.11-.18.28a.24.24,0,0,1-.06.09s0,0,0,0,0,0-.05.06a1,1,0,0,0-.08.14c0,.05-.07.08-.07.14v0l-.09.11,0,0,0,0h0a.26.26,0,0,0-.17,0l-.1,0H17.2l-.09,0-.08,0a.24.24,0,0,0-.09,0l-.09,0h0c-.08,0-.16,0-.24,0h-.1a.18.18,0,0,0-.1,0s-.07,0-.09,0,0,0-.07,0h-.12a.35.35,0,0,1-.11,0h-.07a.8.8,0,0,1-.15,0l-.11,0h0c-.05-.06-.05-.06-.08,0l-.06,0a.38.38,0,0,0-.1,0h-.08a.94.94,0,0,1-.22-.07l0,0h0s0,0-.05,0a.16.16,0,0,0-.08-.06.62.62,0,0,1-.19-.07l-.1,0-.12-.07,0,0a.19.19,0,0,1-.1,0l0,0s0,0,0,0,0,0,0,0,0,0-.07,0l-.07-.06s0,0,0,0,0,0,0,0l0,0a.11.11,0,0,0-.09-.06l0,0h0s0,0-.06,0a.14.14,0,0,1-.08,0h0s0,0-.06-.05l0,0h0l-.09-.09a0,0,0,0,0,0,0,.16.16,0,0,1-.07-.07l0,0s-.05,0-.06-.06,0,0,0,0l0,0s0,0,0,0l0,0a.48.48,0,0,0-.11-.09l0,0a.41.41,0,0,1,0-.09.75.75,0,0,1-.07-.12l-.12-.1s0,0,0,0,0-.06,0-.07h0s0-.06-.05-.09a.19.19,0,0,1,0-.07.69.69,0,0,1,0-.13.38.38,0,0,1,0-.15s0,0,0-.06l0-.17s0,0,0-.08,0-.07,0-.1v0a.48.48,0,0,0,.05-.17s0-.05,0-.08a.78.78,0,0,1,0-.16v0s0,0,0-.07v0l0-.08,0,0v0a.09.09,0,0,1,0-.07.83.83,0,0,0,0-.22s0,0,0-.06v0s0-.06,0-.1,0-.05,0-.08l0,0c0-.06,0-.08,0-.1s0-.05,0-.07,0,0,0,0,0,0,0,0,0,0,0-.07v0l0-.09h0s0,0,0,0l0,0,0,0,0,0,.05-.1s0-.09,0-.14a.3.3,0,0,0,0-.1Zm4.2,4.82a.43.43,0,0,0,0-.05.43.43,0,0,1,0-.07l.06-.07.06-.08s0,0,0-.06v0s0,0,0,0,0,0,0-.06l0,0,.07-.06s.06-.06.06-.11l0,0,.06-.08L18,47.5l0,0,0,0,0,0,.05-.09.09-.13.09-.11.05-.06a.24.24,0,0,1,.07-.12l0,0,0-.06c0-.06.09-.09.11-.15a.25.25,0,0,1,0-.07,1.53,1.53,0,0,0,.11-.16s0-.08.09-.1,0,0,0,0l0-.06.09-.12a.31.31,0,0,0,.05-.1L19,46s-.06,0-.11,0h0s-.07,0-.1,0h-.14l-.13,0s0,0-.05,0h-.21a.11.11,0,0,0-.08,0l-.05,0,0,0h0a.16.16,0,0,1-.1,0h-.09l-.22-.06-.07,0-.09,0a.61.61,0,0,0-.13,0l-.19-.07-.12,0-.08,0-.08,0-.09,0a.6.6,0,0,1-.16-.08h0a.29.29,0,0,1-.16,0l-.05,0-.1,0a.21.21,0,0,0-.11,0h0l-.06,0a.54.54,0,0,1-.2-.1h0s-.07,0-.11,0l-.13-.08-.09,0-.06,0-.21-.1-.15-.07L15,44.73l-.06,0-.1-.06-.1,0s0,0-.05,0a.91.91,0,0,1-.14-.07l-.12-.08-.08,0-.09-.07s-.07,0-.09,0L14,44.11l-.07,0a.81.81,0,0,1-.18-.19l0,0s0,0-.05-.06h0c-.05,0-.07-.09-.1-.14a.12.12,0,0,0-.05,0v0s0,0,0,.06,0,.08,0,.11h0s0,0,0,0v.05l0,.09a1.49,1.49,0,0,1,0,.21s0,0,0,0a.58.58,0,0,1,0,.14s0,0,0,.06,0,.1,0,.15,0,.06,0,.09a.09.09,0,0,1,0,.06s0,0,0,0a.13.13,0,0,1,0,.06s0,0,0,.08h0l0,.07s0,0,0,.07a.1.1,0,0,1,0,.09s0,0,0,0,0,0,0,.05v0s0,0,0,0,0,.08,0,.13a.58.58,0,0,0,0,.14,1,1,0,0,1,0,.18s0,.1,0,.15h0a.73.73,0,0,1,0,.2.08.08,0,0,1,0,.08.09.09,0,0,1,.06.06s0,.09.06.13a.05.05,0,0,1,0,0,.13.13,0,0,0,.06.07.05.05,0,0,1,0,0h0l.06.05.07.07,0,0,0,.07a.1.1,0,0,0,0,.05s0,0,.06,0h0a.25.25,0,0,1,0,.07s0,0,0,0a.05.05,0,0,1,0,0s0,0,0,.05l.14.08v0l.06.07s0,0,0,0a.31.31,0,0,1,.09.07l.14.08s.05,0,.05,0h0l.08.05,0,0,.13.05h0s.06,0,.08.07l0,0s0,0,0,0l.05,0,.08.06.08.05A.29.29,0,0,1,15,48L15,48s0,0,.06.05h0a.35.35,0,0,1,.13,0s.06,0,.08,0h0s0,0,.06,0h.11s0,0,.07,0l.05,0h.06s0,0,.06,0,0,0,.06,0l.1,0a.37.37,0,0,0,.15,0h.06a.16.16,0,0,0,.09,0l.14,0a.11.11,0,0,1,.08,0h.07s0,0,.07,0,0,0,0,0h.15s.08,0,.11,0a.44.44,0,0,1,.16,0h.25l.19,0Zm-3.52-6a.86.86,0,0,1-.32.1v0a.17.17,0,0,1,0,.05.16.16,0,0,0,0,.1.18.18,0,0,1,.05.07s0,0,0,.08l0,0,0,0,.08.09a.06.06,0,0,1,0,.06.39.39,0,0,1,.11.06s0,0,.06,0h0s0,0,0,0l0,0s.08.07.12.11l0,0,.1.07s0,0,.05,0,0,0,.06,0l0,0c.07,0,.11.08.17.12l.1.06.06,0h0a.06.06,0,0,1,.07,0,.38.38,0,0,0,.13.09l.14.08,0,0s.07,0,.08,0a.26.26,0,0,0,.11.07l.07,0,.09,0,.06,0,.08.06.09,0,0,0a.52.52,0,0,1,.13.06l.19.1.15.07.17.07h0a.13.13,0,0,1,.09,0,.06.06,0,0,0,.05,0c.05,0,.1,0,.13,0l.07,0,0,0,.12,0,0,0,.06,0s.08,0,.11,0h0l.19.07.1,0,.08,0,.11,0a.11.11,0,0,0,.07,0,.46.46,0,0,1,.2,0l.14,0,.16,0,.23.05.12,0h0a.14.14,0,0,1,.11,0H19s.08,0,.12,0h.17l.14,0h.19l.07,0a1,1,0,0,0,.23-.07,0,0,0,0,0,0,0,.17.17,0,0,1,0-.07.09.09,0,0,0,0-.1s0,0,0-.06l-.09-.11a.15.15,0,0,1,0-.07.1.1,0,0,0,0-.05l0,0c0-.06-.07-.13-.14-.16s0,0,0,0l0,0s0,0-.06,0,0-.05-.06-.06l-.15-.09h0l-.11-.09L19,44l-.1-.05a.38.38,0,0,0-.13-.09l0,0-.17-.12h0a.27.27,0,0,1-.17-.08l-.12-.07-.17-.08-.16-.08c-.07,0-.12-.08-.19-.11a2,2,0,0,0-.21-.1c-.07,0-.12-.1-.2-.11h0L17.14,43,17.05,43l-.1,0-.08,0-.08,0-.29-.11-.16-.07-.26-.12h0s-.09,0-.14,0h-.09l-.15,0-.06,0-.3,0-.12,0h-.11a1.37,1.37,0,0,0-.19,0h-.31a.08.08,0,0,0-.08,0s0,0,0,0a.06.06,0,0,1-.08,0h-.2a.2.2,0,0,0-.11,0A.33.33,0,0,1,13.93,42.3Zm-.46.4h0a.14.14,0,0,0,0,.06.93.93,0,0,0,0,.13.19.19,0,0,1-.08.11s0,0,0,0a.41.41,0,0,1,0,.09.33.33,0,0,0,.1.14.24.24,0,0,1,.06.08l.05,0a.43.43,0,0,1,.09.1.58.58,0,0,0,.1.12s.05,0,.06.06l.1.1s0,0,0,0l0,0s0,0,.06,0,0,0,0,0l.1.07.11.08a.12.12,0,0,0,.05,0l.07,0,0,0s.05,0,.06.05a.46.46,0,0,0,.14.07l.06,0a1.28,1.28,0,0,0,.2.11c.05,0,.12.06.16.1l0,0,.06,0,.09,0,.11,0,.2.1.08,0a.2.2,0,0,1,.12.06l.2.11L16,45a.86.86,0,0,0,.19.11l.12,0,.14.06.08,0h0s.06,0,.1,0h0l.19.07h0l.08,0H17l.08,0,.15,0,.23.06h0a.41.41,0,0,1,.16,0l.1,0a.44.44,0,0,0,.2,0h0s.07,0,.1,0h0a.41.41,0,0,1,.16,0h.19l.05,0h.1c.05,0,.11,0,.16,0h.08l0,0,.06,0h.15a.43.43,0,0,1,.16,0,.3.3,0,0,0,.16,0l0,0a.35.35,0,0,0,.13,0,.33.33,0,0,1,.13-.07c.06,0,.07-.06.09-.1l0-.07a.3.3,0,0,0,0-.1h-.05a.2.2,0,0,1-.11,0,.18.18,0,0,0-.1,0l-.08,0s-.08,0-.13,0h0a.06.06,0,0,1-.07,0H19a.21.21,0,0,0-.11,0H18.7a.41.41,0,0,1-.16,0h-.05a.2.2,0,0,1-.13,0l-.22,0-.21-.06c-.06,0-.11-.06-.18,0h0l-.09,0a1,1,0,0,1-.16-.05l-.08,0-.12,0-.05,0-.16-.06-.09,0-.12,0-.15-.05-.07,0a.29.29,0,0,1-.1,0l-.11-.05-.17-.07-.23-.1a.76.76,0,0,0-.16-.06l-.14-.06s-.06-.06-.11,0l0,0-.1-.07a.54.54,0,0,1-.19-.08h0a.75.75,0,0,1-.2-.1h0c-.05,0-.08-.05-.14-.05l0,0,0,0s0,0,0,0l-.15-.06,0,0s-.07,0-.09-.06,0,0-.05,0a.1.1,0,0,0-.07,0h0s-.09,0-.12-.08l-.07,0a.12.12,0,0,0-.05,0,.88.88,0,0,1-.15-.12l0,0,0,0a.12.12,0,0,0-.08-.06l-.06,0,0,0s0,0,0,0,0,0,0,0,0,0,0,0a0,0,0,0,1,0,0,.24.24,0,0,0-.06-.08.2.2,0,0,1-.06-.07.67.67,0,0,0-.06-.12A.1.1,0,0,1,13.47,42.7Z"/><path class="cls-2" d="M13.63,42.49a.16.16,0,0,0,0,.1.18.18,0,0,1,.05.07s0,0,0,.08l0,0,0,0,.08.09a.06.06,0,0,1,0,.06.39.39,0,0,1,.11.06s0,0,.06,0h0s0,0,0,0l0,0s.08.07.12.11l0,0,.1.07s0,0,.05,0,0,0,.06,0l0,0c.07,0,.11.08.17.12l.1.06.06,0h0a.06.06,0,0,1,.07,0,.38.38,0,0,0,.13.09l.14.08,0,0s.07,0,.08,0a.26.26,0,0,0,.11.07l.07,0,.09,0,.06,0,.08.06.09,0,0,0a.52.52,0,0,1,.13.06l.19.1.15.07.17.07h0a.13.13,0,0,1,.09,0,.06.06,0,0,0,.05,0c.05,0,.1,0,.13,0l.07,0,0,0,.12,0,0,0,.06,0s.08,0,.11,0h0l.19.07.1,0,.08,0,.11,0a.11.11,0,0,0,.07,0,.46.46,0,0,1,.2,0l.14,0,.16,0,.23.05.12,0h0a.14.14,0,0,1,.11,0H19s.08,0,.12,0h.17l.14,0h.19l.07,0a1,1,0,0,0,.23-.07,0,0,0,0,0,0,0,.17.17,0,0,1,0-.07.09.09,0,0,0,0-.1s0,0,0-.06l-.09-.11a.15.15,0,0,1,0-.07.1.1,0,0,0,0-.05l0,0c0-.06-.07-.13-.14-.16s0,0,0,0l0,0s0,0-.06,0,0-.05-.06-.06l-.15-.09h0l-.11-.09L19,44l-.1-.05a.38.38,0,0,0-.13-.09l0,0-.17-.12h0a.27.27,0,0,1-.17-.08l-.12-.07-.17-.08-.16-.08c-.07,0-.12-.08-.19-.11a2,2,0,0,0-.21-.1c-.07,0-.12-.1-.2-.11h0L17.14,43,17.05,43l-.1,0-.08,0-.08,0-.29-.11-.16-.07-.26-.12h0s-.09,0-.14,0h-.09l-.15,0-.06,0-.3,0-.12,0h-.11a1.37,1.37,0,0,0-.19,0h-.31a.08.08,0,0,0-.08,0s0,0,0,0a.06.06,0,0,1-.08,0h-.2a.2.2,0,0,0-.11,0,.33.33,0,0,1-.14,0,.86.86,0,0,1-.32.1v0A.17.17,0,0,1,13.63,42.49Zm1.62.83s0,0,.07-.07a.08.08,0,0,1,.08,0h0l.15,0,.06,0,.12,0h0a.33.33,0,0,0,.13,0,.42.42,0,0,1,.16,0l.1,0,0,0,.05,0h0l.13.06.12.06.09,0,.11.05.06,0,.11.06.2.1.07,0h0a.61.61,0,0,1,.18.09l.06,0,0,0h0l.1,0,.08,0,.14.08.11.06a.31.31,0,0,1,.11.08.46.46,0,0,0,.07.07s0,0,0,.05,0,0,0,0l-.13,0a.22.22,0,0,0-.08,0h-.16l-.23,0a.76.76,0,0,0-.16,0l-.14,0-.07,0H17a.14.14,0,0,1-.09,0l-.07,0h0a.08.08,0,0,0-.05-.07.58.58,0,0,1-.18-.08l-.22-.1L16.3,44l-.12,0,0,0a.39.39,0,0,0-.11-.06h0l-.07,0a.15.15,0,0,1-.07,0l-.18-.1-.18-.09-.11,0-.15-.08,0,0a.36.36,0,0,1,0-.1S15.27,43.35,15.25,43.32Z"/><polygon class="cls-4" points="16.22 43.45 16.22 43.45 16.22 43.45 16.22 43.45"/><path class="cls-2" d="M19.91,45.23h-.05a.2.2,0,0,1-.11,0,.18.18,0,0,0-.1,0l-.08,0s-.08,0-.13,0h0a.06.06,0,0,1-.07,0H19a.21.21,0,0,0-.11,0H18.7a.41.41,0,0,1-.16,0h-.05a.2.2,0,0,1-.13,0l-.22,0-.21-.06c-.06,0-.11-.06-.18,0h0l-.09,0a1,1,0,0,1-.16-.05l-.08,0-.12,0-.05,0-.16-.06-.09,0-.12,0-.15-.05-.07,0a.29.29,0,0,1-.1,0l-.11-.05-.17-.07-.23-.1a.76.76,0,0,0-.16-.06l-.14-.06s-.06-.06-.11,0l0,0-.1-.07a.54.54,0,0,1-.19-.08h0a.75.75,0,0,1-.2-.1h0c-.05,0-.08-.05-.14-.05l0,0,0,0s0,0,0,0l-.15-.06,0,0s-.07,0-.09-.06,0,0-.05,0a.1.1,0,0,0-.07,0h0s-.09,0-.12-.08l-.07,0a.12.12,0,0,0-.05,0,.88.88,0,0,1-.15-.12l0,0,0,0a.12.12,0,0,0-.08-.06l-.06,0,0,0s0,0,0,0,0,0,0,0,0,0,0,0a0,0,0,0,1,0,0,.24.24,0,0,0-.06-.08.2.2,0,0,1-.06-.07.67.67,0,0,0-.06-.12.1.1,0,0,1,0-.07h0a.14.14,0,0,0,0,.06.93.93,0,0,0,0,.13.19.19,0,0,1-.08.11s0,0,0,0a.41.41,0,0,1,0,.09.33.33,0,0,0,.1.14.24.24,0,0,1,.06.08l.05,0a.43.43,0,0,1,.09.1.58.58,0,0,0,.1.12s.05,0,.06.06l.1.1v0l0,0s0,0,.06,0,0,0,0,0l.1.07.11.08a.12.12,0,0,0,.05,0l.07,0,0,0s.05,0,.06.05a.46.46,0,0,0,.14.07l.06,0a1.28,1.28,0,0,0,.2.11c.05,0,.12.06.16.1l0,0,.07,0,.09,0,.11,0,.2.1.08,0a.2.2,0,0,1,.12.06l.2.11L16,45a.86.86,0,0,0,.19.11l.12,0,.14.06.08,0h0s.06,0,.1,0h0l.19.07h0l.08,0H17l.08,0,.15,0,.23.06h0a.41.41,0,0,1,.16,0l.1,0a.44.44,0,0,0,.2,0h0s.07,0,.1,0h0a.41.41,0,0,1,.16,0h.19l.05,0h.1c.05,0,.11,0,.16,0h.08l0,0,.06,0h.15a.43.43,0,0,1,.16,0,.3.3,0,0,0,.16,0l0,0a.35.35,0,0,0,.13,0,.33.33,0,0,1,.13-.07c.06,0,.07-.06.09-.1l0-.07A.3.3,0,0,0,19.91,45.23Z"/><path class="cls-1" d="M16.22,43.45l.05,0h0l.13.06.12.06.09,0,.11.05.06,0,.11.06.2.1.07,0h0a.61.61,0,0,1,.18.09l.06,0,0,0h0l.1,0,.08,0,.14.08.11.06a.31.31,0,0,1,.11.08.46.46,0,0,0,.07.07s0,0,0,.05,0,0,0,0l-.13,0a.22.22,0,0,0-.08,0h-.16l-.23,0a.76.76,0,0,0-.16,0l-.14,0-.07,0H17a.14.14,0,0,1-.09,0l-.07,0h0a.08.08,0,0,0-.05-.07.58.58,0,0,1-.18-.08l-.22-.1L16.3,44l-.12,0,0,0a.39.39,0,0,0-.11-.06h0l-.07,0a.15.15,0,0,1-.07,0l-.18-.1-.18-.09-.11,0-.15-.08,0,0a.36.36,0,0,1,0-.1s0,0,0,0,0,0,.07-.07a.08.08,0,0,1,.08,0h0l.15,0,.06,0,.12,0h0a.33.33,0,0,0,.13,0,.42.42,0,0,1,.16,0l.1,0,0,0,0,0s0,0,0,0l-.08,0H16s-.05,0-.08,0h0l-.08,0H15.7a.11.11,0,0,1-.08,0l-.1,0h0l.08,0a1.29,1.29,0,0,0,.16.09l.1.06,0,0,.18.1,0,0a.12.12,0,0,1,.08,0l.1.06.16.07,0,0,.09.07.14.08.11,0,0,0,.05,0s.08-.05.12,0a.33.33,0,0,0,.19,0l.15,0,.21,0,.11,0h0l0,0-.14-.07-.15-.07L17.24,44,17.12,44l-.18-.09,0,0-.05,0s-.08,0-.12-.07,0,0,0,0a.6.6,0,0,1-.11-.06,0,0,0,0,0,0,0,.29.29,0,0,1-.14,0,.39.39,0,0,0-.14-.08A.19.19,0,0,1,16.22,43.45Z"/><path class="cls-5" d="M16.22,43.45a.19.19,0,0,0,.09.11.39.39,0,0,1,.14.08.29.29,0,0,0,.14,0,0,0,0,0,1,0,0,.6.6,0,0,0,.11.06s0,0,0,0,.08,0,.12.07l.05,0,0,0,.18.09.12.05.13.07.15.07.14.07,0,0h0l-.11,0-.21,0-.15,0a.33.33,0,0,1-.19,0s-.08,0-.12,0l-.05,0,0,0-.11,0L16.55,44l-.09-.07,0,0-.16-.07-.1-.06a.12.12,0,0,0-.08,0l0,0-.18-.1,0,0-.1-.06a1.29,1.29,0,0,1-.16-.09l-.08,0h0l.1,0a.11.11,0,0,0,.08,0h.12l.08,0h0s.06,0,.08,0h.06l.08,0s0,0,0,0l0,0Z"/><circle class="cls-4" cx="38.07" cy="68" r="10.64"/><polygon class="cls-5" points="41.62 67.12 38.96 67.12 38.96 64.46 37.19 64.46 37.19 67.12 34.53 67.12 34.53 68.89 37.19 68.89 37.19 71.55 38.96 71.55 38.96 68.89 41.62 68.89 41.62 67.12"/></svg>