<svg width="31" height="32" viewBox="0 0 31 32" fill="none" xmlns="http://www.w3.org/2000/svg">
<path d="M15.5 0.4375C6.9375 0.4375 0 7.375 0 15.9375C0 24.5 6.9375 31.4375 15.5 31.4375C24.0625 31.4375 31 24.5 31 15.9375C31 7.375 24.0625 0.4375 15.5 0.4375ZM15.5 6.4375C18.5375 6.4375 21 8.9 21 11.9375C21 14.975 18.5375 17.4375 15.5 17.4375C12.4625 17.4375 10 14.975 10 11.9375C10 8.9 12.4625 6.4375 15.5 6.4375ZM15.5 27.9375C11.8313 27.9375 8.54375 26.275 6.34375 23.675C7.51875 21.4625 9.81875 19.9375 12.5 19.9375C12.65 19.9375 12.8 19.9625 12.9438 20.0063C13.7563 20.2688 14.6062 20.4375 15.5 20.4375C16.3937 20.4375 17.25 20.2688 18.0562 20.0063C18.2 19.9625 18.35 19.9375 18.5 19.9375C21.1812 19.9375 23.4813 21.4625 24.6562 23.675C22.4562 26.275 19.1688 27.9375 15.5 27.9375Z" fill="white"/>
</svg>
