<svg id="Calque_1" data-name="Calque 1" xmlns="http://www.w3.org/2000/svg" viewBox="0 0 72 79"><defs><style>.cls-1{fill:#eb611b;}</style></defs><path class="cls-1" d="M33.84,38.75c8.46,2.1,15.57,6.67,22.57,11.69A39.26,39.26,0,0,1,70.62,68.62c1.54,4,0,7.62-4,9.08a13.43,13.43,0,0,1-6.4,1,80.87,80.87,0,0,1-20.07-5.28,96.1,96.1,0,0,1-12.43-6c-5.17-3.06-10.62-5.59-15.77-8.77C5.83,54.83,3.4,49,1.15,42.88c-.9-2.43,0-4.81,1.63-6.88a33,33,0,0,1,7.43-7.25c11-7.47,21.39-15.89,33.26-22,5.42-2.81,11-5.25,17.08-6.18,2.36-.37,5-.69,6.46,1.3a17,17,0,0,1,3.47,9.68c0,2.75-2.12,4.39-4,5.94-8.13,6.77-16.5,13.2-26.41,17.3-2.35,1-4.88,1.65-6.93,3.33C33.45,38.38,33.61,38.69,33.84,38.75ZM51.13,57.31c-4.22-1.85-8.28-4.06-12.61-5.75-5.87-2.29-12.06-3-18-4.89a2.08,2.08,0,0,0-2.43.67A150.08,150.08,0,0,0,48,61.16c2.94.94,5.8,3.41,9.63,1.92A13.08,13.08,0,0,0,51.13,57.31Z"/></svg>