<svg width="86" height="57" viewBox="0 0 86 57" fill="none" xmlns="http://www.w3.org/2000/svg">
<path d="M25.5083 40.0121C24.6204 40.5326 23.7937 40.9918 22.9671 41.4511C22.9364 41.4817 22.8752 41.5123 22.8446 41.5123C21.4974 41.9104 20.5176 42.8901 19.3542 43.5944C18.9561 43.8393 18.5581 44.0842 18.1601 44.3292C17.8845 44.5129 17.6702 44.7885 17.4559 45.0334C17.1191 45.4314 16.5986 45.6764 16.1087 45.9826C16.0474 46.0132 15.8637 45.8907 15.7719 45.8295C14.9452 45.1865 14.8533 44.2679 14.9452 43.3494C15.037 42.3084 15.1289 41.298 14.7921 40.2876C14.5778 39.6753 14.5165 39.0017 14.6084 38.3587C14.639 38.2362 14.6084 38.1138 14.5778 37.9913C14.4553 36.9809 14.2716 35.9705 14.2104 34.9601C14.1491 34.2865 13.996 33.6129 14.241 32.9394C13.9348 31.8677 14.4553 30.7961 14.1797 29.7245C14.1185 29.5408 14.1797 29.3571 14.2104 29.1734C14.241 29.0509 14.3022 28.9284 14.3022 28.8366C14.3022 27.4281 14.3022 25.9891 14.3022 24.5807C14.3022 23.7234 13.9042 23.0804 13.2306 22.5293C12.6795 22.07 12.2202 21.5495 11.6997 21.029C11.516 20.8759 11.3323 20.6922 11.118 20.5697C10.5975 20.233 10.0157 19.9574 9.52584 19.5594C8.91348 19.1001 8.33174 18.5796 7.78062 18.0285C6.83147 17.1099 5.94355 16.1608 4.9944 15.2422C4.93317 15.181 4.84131 15.1504 4.74946 15.0892C4.32081 14.8136 3.92278 14.538 3.58598 14.1706C2.97363 13.5276 2.39189 12.8541 1.68768 12.3029C1.28964 11.9968 0.707906 11.6906 0.769142 11.017C0.187403 10.9251 0.37111 10.3128 0.126167 10.0066C-0.0881573 9.73103 0.00369612 9.45547 0.156785 9.21053C0.401728 8.78188 0.64667 8.32261 0.952849 7.92458C1.22841 7.55717 1.62644 7.49593 2.05509 7.52655C2.30003 7.55717 2.54498 7.49593 2.78992 7.46531C2.94301 7.4347 3.0961 7.31222 3.21857 7.37346C3.80031 7.6184 4.29019 7.34284 4.84131 7.25099C5.57614 7.12852 6.34159 7.0979 7.07641 7.06728C7.75001 7.03666 8.4236 7.06728 9.09719 7.03666C9.52584 7.00605 9.92387 6.85296 10.3525 6.7611C10.5668 6.73049 10.7812 6.63863 10.9955 6.66925C11.9753 6.73049 12.9244 6.66925 13.8736 6.51616C14.639 6.39369 15.4657 6.42431 16.2311 6.36307C16.721 6.30184 17.2415 6.20998 17.7314 6.11813C17.9151 6.08751 18.0988 6.05689 18.3132 6.05689C19.5991 5.96504 20.8544 5.9038 22.1404 5.78133C23.3039 5.65886 24.4673 5.47515 25.6614 5.35268C26.0288 5.32207 26.3963 5.41392 26.7331 5.32207C28.3252 4.98527 29.9479 4.95465 31.5401 4.74033C32.3974 4.61786 33.2853 4.74033 34.1426 4.61786C34.9999 4.49538 35.8265 4.18921 36.6838 4.34229C38.031 3.91365 39.4088 4.0055 40.756 3.97488C41.4908 3.97488 42.1951 3.72994 42.9299 3.6687C43.6647 3.57685 44.4302 3.57685 45.165 3.54623C45.5324 3.51561 45.8692 3.45438 46.2366 3.42376C46.9714 3.36252 47.6756 3.30129 48.4105 3.24005C48.5329 3.24005 48.6554 3.24005 48.7779 3.24005C49.4209 3.1482 50.0638 2.90326 50.7068 2.93387C51.8397 2.99511 52.9113 2.47461 54.0135 2.65831C54.779 2.78079 55.5138 2.38275 56.2486 2.50522C56.463 2.53584 56.6773 2.53584 56.8916 2.53584C57.0447 2.53584 57.259 2.56646 57.3815 2.50522C57.8102 2.26028 58.2694 2.26028 58.7287 2.2909C58.8205 2.2909 58.9124 2.2909 59.0349 2.2909C60.6882 2.13781 62.311 1.98472 63.9643 1.80101C65.0053 1.67854 66.0463 1.52545 67.0873 1.4336C67.8222 1.34175 68.5876 1.34175 69.3531 1.28051C70.4553 1.15804 71.5882 1.03557 72.6904 0.913097C73.1497 0.851862 73.6089 0.851862 74.0682 0.851862C74.7112 0.821244 75.3235 0.790626 75.9665 0.606919C76.5789 0.423212 77.2525 0.392594 77.9261 0.423212C79.0589 0.484448 80.1918 0.0251802 81.3246 0.331359C82.3044 0.117034 83.2842 0.668155 84.2639 0.239505C84.3864 0.178269 84.6314 0.300741 84.7844 0.392594C85.8254 0.821244 85.8867 1.15804 85.6724 2.26028C85.4887 3.27067 84.9375 4.0055 84.3252 4.74033C83.9884 5.19959 83.7741 5.7201 83.4679 6.20998C83.2842 6.51616 83.0698 6.82234 82.8249 7.0979C82.4575 7.46531 81.937 7.67964 81.9064 8.32261C81.9064 8.4757 81.7227 8.59817 81.6308 8.75126C81.4777 8.93497 81.3246 9.08806 81.3246 9.36362C81.3246 9.57794 81.0491 9.76165 80.8654 9.94536C80.7123 10.1291 80.5592 10.3128 80.4367 10.4965C80.0999 10.9864 79.7325 11.4762 79.3651 11.9355C79.0283 12.3335 78.7221 12.7928 78.4466 13.2215C78.3241 13.4358 78.2935 13.6807 77.9567 13.7726C77.8342 13.8032 77.6811 14.1094 77.6811 14.2931C77.6811 14.4768 77.6505 14.4768 77.528 14.538C77.2525 14.6605 77.0994 14.8136 77.1606 15.1504C77.1606 15.2116 77.0994 15.3035 77.0381 15.3647C76.9769 15.3953 76.8544 15.3953 76.8544 15.4566C76.5789 16.3751 75.5073 16.7119 75.2317 17.6917C75.1092 18.1203 74.5581 18.4571 74.1601 18.7939C73.8233 19.0695 73.4252 19.5594 73.2415 19.988C73.2109 20.1105 73.0884 20.2023 72.966 20.2636C72.7823 20.386 72.5067 20.4779 72.4455 20.631C72.1087 21.3964 71.282 21.7945 70.9758 22.5905C70.9758 22.6211 70.9452 22.6211 70.9452 22.6518C70.0267 23.3253 69.7205 24.4276 68.9857 25.2237C68.3427 25.9585 67.8834 26.8464 67.2711 27.5506C66.7812 28.1017 66.475 28.7447 66.1382 29.3571C66.1076 29.3877 66.1076 29.4489 66.077 29.4795C65.3727 29.847 65.036 30.5512 64.4542 31.041C64.1787 31.286 63.9337 31.5922 63.7194 31.929C63.1989 32.725 62.6171 33.4292 61.8517 33.9497C61.6374 34.0722 61.5761 34.409 61.4231 34.6233C61.27 34.8377 61.1475 35.1132 60.9332 35.2051C60.3208 35.5112 59.984 36.0317 59.6778 36.6135C59.2798 37.3177 59.0349 38.1138 58.2388 38.5424C58.0551 38.6343 57.9632 38.8792 57.8408 39.0323C57.6571 39.2466 57.4427 39.4303 57.2284 39.614C57.0141 39.8284 56.5854 39.9202 56.6161 40.3489C56.6161 40.3795 56.6161 40.4101 56.6161 40.4101C55.6975 40.7775 55.6975 42.0941 54.6565 42.3696C54.5647 42.4003 54.4728 42.4615 54.4422 42.5534C54.0442 43.3494 53.34 43.8393 52.7276 44.3904C51.9928 45.064 51.656 46.0132 51.013 46.7174C50.4925 47.2685 50.0945 47.9421 49.5127 48.432C49.1759 48.7075 48.9004 49.1056 48.5942 49.4424C48.0124 50.0853 47.5532 50.7895 46.849 51.3101C46.8183 51.3407 46.7877 51.3713 46.7571 51.4325C46.2978 52.3511 45.4712 52.9634 45.0119 53.882C44.7976 54.2494 44.4608 54.5555 44.1546 54.8923C44.0321 55.0454 43.8484 55.1679 43.7566 55.321C43.3892 55.964 42.8074 56.2089 42.0726 56.2089C41.5215 56.2089 40.9703 56.3008 40.4192 56.2395C39.8375 56.2089 39.3476 55.8415 38.9802 55.4128C38.4291 54.7699 37.9392 54.0963 37.2044 53.6064C37.0819 53.5145 36.99 53.3308 36.8676 53.2084C36.5614 52.8409 36.1633 52.5348 35.949 52.1367C35.7041 51.6775 35.3979 51.3713 34.9999 51.0957C34.8774 51.0039 34.8162 50.8814 34.7243 50.7589C34.5712 50.4834 34.51 50.0853 34.0813 50.0241C34.1119 49.5342 33.5608 49.5342 33.3771 49.1974C33.224 48.9219 32.9791 48.7075 32.7648 48.4932C32.7341 48.4626 32.6423 48.432 32.6423 48.4014C32.7035 47.6971 31.8156 47.6359 31.7238 47.0236C31.7238 46.9623 31.5094 46.9317 31.4176 46.8705C31.2033 46.7174 31.0502 46.5643 30.8971 46.3193C30.5603 45.8295 30.101 45.4008 29.703 44.9722C29.5193 44.7578 29.1825 44.7272 29.0906 44.3598C29.0294 44.0842 28.6926 43.8699 28.5701 43.5944C28.417 43.2576 28.2027 43.0432 27.8659 42.9514C27.6822 42.8901 27.5597 42.7677 27.4373 42.5534C27.1923 42.1247 26.7943 41.7573 26.4575 41.3593C26.3963 41.298 26.3656 41.1755 26.3044 41.1143C26.0288 40.655 25.7839 40.3795 25.5083 40.0121ZM41.7052 50.8508C42.1338 50.116 42.3175 49.2893 43.083 48.8606C43.2054 48.7994 43.2667 48.5851 43.3585 48.432C43.6953 47.9727 44.0321 47.4828 44.3995 47.0236C44.7363 46.5949 45.0731 46.1969 45.4099 45.7988C45.5324 45.6458 45.6855 45.5539 45.8386 45.4314C46.1141 45.2171 46.5122 45.0946 46.6346 44.8497C46.7877 44.5435 46.9714 44.2986 47.1858 44.0536C47.7063 43.38 48.1655 42.6146 48.6554 41.9104C48.8085 41.6961 48.9922 41.4205 49.1759 41.3899C49.6352 41.298 49.8801 40.9612 49.972 40.655C50.1863 40.0427 50.615 39.614 51.013 39.1854C51.3192 38.8486 51.7172 38.6036 52.0234 38.2669C52.9419 37.3177 53.8605 36.3379 54.7484 35.3888C55.0852 35.052 55.4832 34.7152 55.6975 34.3172C55.9425 33.8273 56.2793 33.4292 56.6161 33.0312C56.7385 32.8781 56.8916 32.725 57.0447 32.5413C57.5346 31.9596 58.0245 31.3472 58.545 30.7961C58.7899 30.5205 59.188 30.3675 59.4329 30.0613C59.7697 29.602 60.0452 29.0815 60.3514 28.6222C60.4127 28.5304 60.4739 28.4079 60.5658 28.3467C60.9638 28.0711 61.3006 27.7343 61.5455 27.3057C61.6068 27.2138 61.6986 27.0913 61.7905 27.0607C62.5865 26.7239 63.0764 26.0503 63.4744 25.3461C63.6582 25.0093 63.9031 24.8562 64.1787 24.6725C64.3317 24.5807 64.6073 24.4582 64.6073 24.3357C64.6379 23.6928 65.1584 23.3866 65.4952 22.9273C65.6483 22.7436 65.8014 22.5599 65.9239 22.3456C66.3525 21.672 66.5056 20.8453 67.3017 20.4473C67.3935 20.4167 67.4548 20.2942 67.4854 20.2329C67.5466 19.6512 68.0977 19.4675 68.4039 19.0695C68.4958 18.947 68.6489 18.8858 68.7101 18.7939C69.1081 17.7223 69.7205 16.7731 70.4247 15.9158C70.639 15.6403 70.7615 15.181 71.2208 15.2422C71.2514 15.0279 71.2208 14.8442 71.3126 14.7217C71.7106 14.2625 71.8331 13.6501 72.3842 13.3133C72.5986 13.1908 72.6904 12.8847 72.8129 12.6703C72.8741 12.5785 72.9354 12.3948 72.9966 12.3642C73.6396 12.2111 73.3334 11.8743 73.2109 11.5681C73.3334 11.415 73.5477 11.2925 73.5783 11.1395C73.7008 10.5577 74.1294 10.1597 74.405 9.70042C74.5581 9.45547 74.7418 9.21053 74.8949 8.96559C75.2623 8.44508 75.6297 7.89396 76.0278 7.40408C76.1502 7.25099 76.4258 7.15914 76.6095 7.06728C76.8544 6.94481 76.5789 6.66925 76.8238 6.48554C77.13 6.2406 77.3137 5.84257 77.528 5.50577C77.0994 5.56701 76.7626 5.7201 76.3952 5.9038C75.2929 6.42431 74.2213 7.00605 73.1191 7.49593C71.5575 8.16952 69.9654 8.72064 68.4958 9.63918C67.1792 10.4659 65.8014 11.1701 64.4236 11.9355C64.0562 12.1498 63.6582 12.3642 63.2907 12.6091C62.709 12.9765 62.1579 13.4358 61.5149 13.6807C60.9944 13.8951 60.5351 14.1706 60.0452 14.4462C59.6778 14.6605 59.3104 14.9054 58.8818 15.0585C58.3307 15.2729 57.7489 15.4872 57.2284 15.824C57.0753 15.9158 56.9222 16.0077 56.7691 16.0077C56.0037 15.9465 55.4526 16.4363 54.8096 16.7425C53.8604 17.2018 52.9113 17.6304 51.9621 18.0591C51.8397 18.1203 51.7172 18.1509 51.6253 18.1509C50.8293 18.1816 50.1557 18.6408 49.4515 18.947C48.5329 19.3144 47.7369 19.8962 46.7571 20.2023C46.3897 20.2942 46.1141 20.5085 45.8386 20.7228C45.5018 20.9984 45.2262 21.3964 44.7057 21.4883C44.3383 21.5801 44.0015 21.7945 43.6953 22.0088C42.6237 22.713 41.3378 23.0498 40.3274 23.8459C40.2049 23.9377 40.0518 23.9377 39.9293 23.9989C39.317 24.3051 38.5822 24.3051 38.0923 24.8256C37.8473 25.0706 37.633 25.3155 37.3268 25.4992C36.5614 25.9585 35.7347 26.3259 34.908 26.6933C34.2957 26.9689 33.6527 27.2444 33.0403 27.52C32.826 27.6118 32.6423 27.6731 32.428 27.7649C31.7238 28.1017 31.0196 28.4998 30.2847 28.8366C29.3356 29.2652 28.3558 29.6326 27.4066 30.0919C27.0086 30.2756 26.7024 30.6736 26.3044 30.7655C25.8451 30.8573 25.6002 31.1329 25.2634 31.3472C25.0797 31.4697 24.896 31.6228 24.6817 31.7453C25.1409 32.2351 25.4777 32.725 26.0901 33.0006C26.3044 33.1231 26.58 33.1843 26.7331 33.368C27.2536 33.9497 27.8353 34.5621 28.2333 35.2357C28.417 35.5725 28.6926 35.7256 28.9375 35.9399C29.0294 36.0011 29.1519 36.0624 29.2131 36.1236C29.5499 36.4604 29.7948 36.9503 30.1929 37.1646C30.6828 37.4096 30.6215 38.0831 31.2339 38.2362C31.387 38.2669 31.4482 38.6955 31.6013 38.9098C31.7238 39.0935 31.9075 39.2772 32.0912 39.4303C32.2443 39.5528 32.2136 39.8896 32.5198 39.8284C32.5504 40.0427 32.5504 40.257 32.6423 40.4101C32.7954 40.655 33.0097 41.0837 33.1934 41.0837C33.6221 41.0837 33.7139 41.298 33.867 41.6042C34.0507 42.0022 34.3569 42.3696 34.6631 42.7064C34.9692 43.0739 35.3367 43.4413 35.7041 43.7168C36.1021 44.023 36.0715 44.7578 36.7451 44.7578C36.7451 44.7578 36.7451 44.8191 36.7757 44.8191C37.1431 45.3396 37.235 46.1356 38.0004 46.3193V46.3806C38.5822 47.5747 38.5822 47.5747 39.5007 48.2789C39.5313 48.3095 39.5925 48.3401 39.6232 48.3707C39.8987 48.7688 40.1437 49.1668 40.4192 49.5342C40.8479 50.0241 41.0622 50.6058 41.7052 50.8508ZM5.91294 10.7108C6.00479 10.8639 6.00479 10.9251 6.03541 10.9557C6.86209 11.6293 7.65815 12.3029 8.23989 13.2215C8.30113 13.3133 8.33174 13.4052 8.4236 13.4358C9.25028 13.7726 9.52584 14.6299 10.1076 15.2116C10.4444 15.5178 10.8424 15.824 11.0261 16.222C11.2404 16.7119 11.6691 16.865 12.0059 17.1712C12.5876 17.6304 13.1694 18.1509 13.6592 18.6714C14.3022 19.345 14.884 20.1105 15.4657 20.8147C15.8637 21.3046 16.2311 21.7945 16.5986 22.2843C16.8435 22.6211 16.9966 22.6518 17.3946 22.4987C18.007 22.2537 18.6193 22.0394 19.2623 21.8557C20.1502 21.6108 21.0381 21.427 21.9261 21.2127C22.5384 21.0596 23.1508 20.9065 23.7631 20.7535C24.5898 20.5697 25.4777 20.4473 26.1819 19.9268C26.2738 19.8655 26.3656 19.8043 26.4575 19.8043C27.1617 19.8043 27.7434 19.4063 28.3558 19.1613C29.7336 18.5796 31.142 18.2734 32.5504 17.7835C33.3771 17.508 34.1426 17.1405 34.9692 16.8344C35.2448 16.7119 35.5816 16.5588 35.8572 16.62C36.3471 16.7119 36.7757 16.5588 37.1737 16.3139C37.6636 16.0383 38.1229 15.7321 38.7352 15.8852C38.8577 15.9158 38.9802 15.8546 39.1027 15.824C40.5111 15.4566 41.8583 14.8136 43.2973 14.5074C44.9507 14.14 46.5428 13.497 48.1349 12.9765C48.9922 12.701 49.8801 12.3948 50.7374 12.0886C51.8703 11.66 53.0032 11.1701 54.136 10.7414C54.4422 10.6189 54.8096 10.6496 55.1158 10.4965C55.9731 10.1291 56.8304 9.70042 57.6877 9.27177C58.7593 8.78188 59.8615 8.38385 60.8719 7.80211C61.27 7.58779 61.6986 7.40408 62.1273 7.25099C62.9233 6.97543 63.75 6.82234 64.5155 6.51616C65.5871 6.08751 66.6587 5.59763 67.6997 5.07712C68.2814 4.80156 68.8326 4.40353 69.5368 4.49538C69.6592 4.49538 69.8123 4.40353 69.9348 4.34229C70.9452 3.82179 72.0781 3.76056 73.1803 3.57685C73.7926 3.485 74.7724 3.17882 75.4766 2.65831C74.5887 2.75017 73.7927 2.68893 73.0884 2.87264C71.5882 3.27067 70.0573 3.17882 68.5264 3.39314C66.9343 3.63808 65.3115 3.72994 63.6888 3.91365C62.2497 4.06673 60.7801 4.25044 59.341 4.43415C58.8512 4.49538 58.3919 4.61786 57.902 4.67909C56.6773 4.83218 55.4526 4.92403 54.2279 5.07712C53.9523 5.10774 53.7074 5.19959 53.4318 5.23021C52.697 5.29145 51.9315 5.32207 51.1967 5.3833C50.2782 5.47515 49.3596 5.53639 48.4411 5.65886C47.8287 5.7201 47.247 5.84257 46.6346 5.96504C46.0835 6.05689 45.5324 6.2406 44.9813 6.20998C44.0627 6.14875 43.2054 6.45493 42.3175 6.48554C41.3684 6.54678 40.4498 6.79172 39.5007 6.85296C38.3066 6.91419 37.1431 7.31222 35.949 7.22037C35.9184 7.22037 35.8878 7.25099 35.8878 7.25099C35.2754 7.34284 34.6937 7.40408 34.0813 7.49593C33.8058 7.52655 33.4996 7.58779 33.224 7.6184C32.5811 7.67964 31.9381 7.74087 31.2951 7.80211C30.5909 7.86335 29.8561 7.89396 29.1519 7.9552C28.5089 8.01643 27.9272 8.35323 27.2229 8.26138C26.8249 8.20014 26.3656 8.32261 25.937 8.38385C25.0491 8.50632 24.1612 8.62879 23.2732 8.75126C22.2935 8.87373 21.3137 8.96559 20.3339 9.08806C19.844 9.14929 19.3235 9.17991 18.8337 9.24115C17.4252 9.39424 16.0474 9.57794 14.639 9.76165C13.2918 9.94536 11.8834 9.88412 10.5668 10.3128C10.4138 10.374 10.2301 10.3128 10.0463 10.3128C9.77078 10.3128 9.52584 10.3128 9.25028 10.3434C8.4236 10.4659 7.59692 10.6802 6.709 10.5883C6.46406 10.4965 6.21911 10.6496 5.91294 10.7108ZM71.1289 6.27122C71.0983 6.2406 71.0677 6.2406 71.0677 6.20998C70.639 6.33245 70.1797 6.45493 69.7511 6.60801C69.3224 6.7611 68.8326 6.85296 68.4651 7.12852C67.6691 7.71026 66.7199 7.9552 65.8626 8.32261C65.036 8.69003 64.1787 9.02682 63.2601 9.27177C62.4028 9.51671 61.6068 10.0066 60.7495 10.374C59.6778 10.8333 58.5756 11.1701 57.504 11.6906C56.463 12.1805 55.2995 12.456 54.1972 12.7928C54.0442 12.8234 53.9217 12.8847 53.7992 12.9459C52.6664 13.4052 51.5335 13.9257 50.37 14.3543C48.8697 14.8748 47.4307 15.6097 45.8386 15.9158C45.4406 15.9771 45.0119 16.0689 44.6445 16.1914C43.4198 16.62 42.1951 17.1099 40.9703 17.5386C40.1743 17.8141 39.4701 18.3346 38.5515 18.1816C38.4903 18.1816 38.3984 18.304 38.3066 18.3346C37.5105 18.5796 36.8369 19.1307 35.949 19.0082C35.8878 19.0082 35.7959 19.0389 35.7347 19.0695C34.2957 19.6512 32.8872 20.2329 31.387 20.6922C29.7642 21.2127 28.1721 21.8557 26.5493 22.4681C25.4471 22.8661 24.3142 23.2641 23.1202 23.4172C22.9977 23.4172 22.8752 23.4784 22.7527 23.5091C21.9873 23.6928 21.2218 23.8765 20.4258 24.0602C19.9665 24.1826 19.5379 24.3357 19.0786 24.3664C18.5275 24.397 18.1294 24.7032 17.6702 24.8869C17.5783 24.9175 17.4865 25.0706 17.4865 25.1624C17.4252 25.7135 17.2109 26.2647 17.4252 26.8158C17.4559 26.9076 17.4865 27.0607 17.4559 27.1832C17.1497 27.9793 17.1803 28.8366 17.1497 29.6632C17.1191 30.9492 16.8129 32.2045 16.8129 33.4905C16.7823 34.8683 16.6904 36.2461 16.6292 37.6239C16.6292 37.8382 16.721 38.0525 16.7516 38.2669C16.966 38.0219 17.1191 37.777 17.1803 37.532C17.4252 36.6747 18.0682 35.9705 18.1601 35.052C18.1601 35.0214 18.1907 35.0214 18.1907 34.9907C18.405 34.5621 18.6806 34.1641 18.8643 33.7354C19.0174 33.2761 19.048 32.7556 19.5685 32.5107C19.5991 32.4801 19.6297 32.4495 19.6297 32.3882C19.844 31.8983 20.0278 31.4085 20.2421 30.9186C20.3033 30.7655 20.4258 30.5818 20.5483 30.5205C21.1606 30.245 21.5893 29.6632 22.3241 29.5714C22.4159 29.5714 22.5078 29.5102 22.569 29.4489C22.9977 29.1734 23.4263 28.8978 23.855 28.6529C24.6204 28.1936 25.3859 27.7037 26.1819 27.2751C26.8861 26.877 27.7128 26.6015 28.2333 25.9585C28.3252 25.836 28.4477 25.7442 28.6007 25.7135C29.3662 25.4992 29.9785 25.0399 30.6215 24.6113C30.9583 24.397 31.3257 24.2133 31.6931 23.9989C32.3974 23.6009 33.1934 23.3866 33.8976 22.9579C34.8774 22.3762 36.0715 22.2231 36.99 21.4577C37.0819 21.3964 37.235 21.3964 37.3268 21.3352C38.0617 20.9372 39.0108 20.9372 39.5925 20.2023C39.6538 20.1105 39.8069 20.1105 39.9293 20.0492C40.5417 19.7737 41.2153 19.7124 41.797 19.4063C42.5012 19.0695 43.2361 18.8551 43.9403 18.5184C44.4608 18.2734 44.9507 17.9672 45.4712 17.7223C45.8386 17.5386 46.2366 17.4161 46.604 17.2324C47.2164 16.9568 47.7981 16.62 48.4411 16.3751C49.7883 15.824 51.1661 15.3647 52.5133 14.783C53.4318 14.3849 54.2891 13.8951 55.177 13.4664C55.2995 13.4052 55.4526 13.3439 55.575 13.3439C56.4936 13.1908 57.3509 12.7928 58.2388 12.5173C59.586 12.0886 60.7801 11.2313 62.1885 10.8945C62.5865 10.8027 62.8927 10.4046 63.2601 10.3128C64.3317 10.1291 65.1584 9.42486 66.077 8.93497C67.6691 8.10829 69.1081 7.03666 70.8227 6.48554C70.9452 6.45493 71.037 6.33245 71.1289 6.27122ZM21.773 33.5823C21.7117 33.7354 21.6505 33.8273 21.6199 33.9191C21.2831 34.9601 21.13 36.093 20.5483 37.0728C20.3339 37.4402 20.1196 37.8382 19.9665 38.2669C19.7216 38.9404 19.5685 39.6447 19.2011 40.2876C19.0174 40.6244 18.8949 40.9918 18.7724 41.3593C18.7112 41.5736 18.6806 41.7879 18.5887 42.1553C18.9561 41.9104 19.1398 41.7879 19.3542 41.6654C20.089 41.2368 20.7932 40.7775 21.5586 40.4101C22.4772 39.9508 23.4569 39.5222 24.3755 39.0935C24.4673 39.0323 24.6204 38.8486 24.5898 38.7874C24.4367 38.4199 24.253 38.0831 24.0693 37.7463C24.0081 37.6239 23.855 37.5626 23.7937 37.4402C23.6407 37.134 23.4569 36.8278 23.4263 36.5216C23.4263 36.1542 22.7834 36.2461 22.9671 35.7868C22.4159 35.3582 22.3241 34.6846 22.0179 34.1334C21.9567 33.9191 21.8954 33.7966 21.773 33.5823Z" fill="#76B39D"/>
</svg>
