<svg width="33" height="32" viewBox="0 0 33 32" fill="none" xmlns="http://www.w3.org/2000/svg">
<path d="M6.46748 8.24387C6.65156 8.06443 6.88167 7.92984 6.97371 7.72797C7.06576 7.57096 7.08877 7.3018 6.99672 7.14479C6.76661 6.65132 6.53651 6.20272 6.55952 5.64196C6.58253 5.39523 6.44446 5.14849 6.37543 4.90176C6.21436 4.31857 6.16834 3.71296 6.39844 3.17463C6.60554 2.7036 6.90468 2.23256 7.47995 2.05312C7.84812 1.9634 8.12425 1.76153 8.42339 1.55965C8.8836 1.26806 9.32081 0.909175 9.89608 0.729733C10.2873 0.617582 10.6554 0.39328 11.0236 0.191407C11.5529 -0.100186 12.1281 0.0343955 12.6804 0.0119653C12.7494 0.0119653 12.8415 0.101686 12.8875 0.168977C13.1406 0.46057 13.3707 0.752164 13.5548 1.06619C13.7619 1.40264 13.9 1.76153 14.084 2.09798C14.107 2.12041 14.1301 2.16527 14.1301 2.1877C14.1761 2.74846 14.5903 3.1522 14.7744 3.64567C15.0045 4.25128 15.1425 4.31857 15.7868 4.31857C16.178 4.31857 16.5922 4.31857 16.9834 4.31857C17.3516 3.6681 17.7427 3.08491 18.0419 2.43443C18.272 1.91854 18.6632 1.49236 18.9393 0.998896C19.1004 0.707303 19.3995 0.617582 19.7447 0.684873C20.1819 0.774594 20.6421 0.841885 21.0793 0.931606C21.2174 0.954036 21.3784 0.976466 21.4935 1.06619C21.7466 1.24563 21.9537 1.46993 22.2989 1.33535C22.7361 1.6718 23.3113 1.58208 23.8176 1.71666C24.3468 1.85125 24.5309 2.1877 24.623 2.61387C24.761 3.28678 24.5539 3.8924 24.3698 4.54288C24.2088 5.0812 24.0707 5.64196 23.9557 6.18028C23.9096 6.38216 23.9787 6.5616 24.2318 6.62889C24.4619 6.67375 24.669 6.7859 24.8761 6.87562C25.2443 7.03263 25.5894 7.14479 25.9576 6.87562C26.0036 6.83076 26.0957 6.80833 26.1647 6.80833C27.1311 6.83076 28.0746 6.60646 29.041 6.49431C29.2251 6.47188 29.4552 6.5616 29.5703 6.69618C30.0535 7.16722 30.5597 7.63825 30.9969 8.17658C31.2271 8.46817 31.3191 8.87192 31.4572 9.25323C31.5722 9.61211 31.5952 9.99343 31.7793 10.3299C32.1475 10.9804 32.0784 11.6308 31.9404 12.3037C31.8253 12.7972 31.5032 13.0888 31.043 13.2234C30.1225 13.4925 29.3172 13.986 28.5348 14.457C28.3967 15.2645 28.88 15.6907 29.3862 16.1617C29.8464 16.6104 30.3066 17.059 30.8359 17.4403C31.2271 17.7319 31.5722 18.1805 31.7793 18.6291C31.9634 18.9655 32.0094 19.4366 31.9634 19.8179C31.8944 20.6478 31.5952 21.4104 31.158 22.1282C31.089 22.2403 31.066 22.3974 31.02 22.5319C30.8589 22.9581 30.7668 23.4516 30.5137 23.8329C30.2146 24.3039 29.6853 24.6852 28.995 24.5058C28.3277 24.3488 27.6374 24.2366 26.9471 24.1021C26.763 24.0572 26.6019 23.9899 26.4178 23.945C26.0726 23.8553 25.7965 23.8553 25.5204 24.1693C25.3823 24.3264 25.3363 24.4609 25.3823 24.6404C25.4514 24.9095 25.5204 25.1563 25.5664 25.4254C25.6815 26.1432 25.8425 26.8834 25.8655 27.6012C25.8886 28.2741 25.7965 28.9919 25.6584 29.6648C25.5894 29.9564 25.3133 30.2255 24.9681 30.2928C24.3238 30.405 23.7946 30.7414 23.2423 31.033C22.644 31.347 22.0227 31.6835 21.3324 31.7956C20.5501 31.9302 19.8137 31.8405 19.1004 31.4816C18.8933 31.3695 18.7322 31.1452 18.5711 30.9433C18.295 30.5844 18.0419 30.2255 17.8118 29.8442C17.6277 29.575 17.5126 29.261 17.3516 28.9919C17.1675 28.6778 16.9374 28.3638 16.7533 28.0722C16.5002 28.4535 16.247 28.8124 16.0169 29.1713C15.9709 29.2386 15.9019 29.261 15.8789 29.3283C15.6258 30.1582 14.8894 30.6741 14.3372 31.3022C13.7849 31.9302 12.5193 32.2442 11.7369 31.7732C10.7705 31.1676 9.66597 30.7863 8.58447 30.4498C8.12425 30.3152 7.94016 30.0236 7.91715 29.5975C7.89414 29.2162 7.77909 28.8573 7.8021 28.476C7.82511 28.0274 7.82511 27.5787 7.98618 27.1301C8.14726 26.6367 8.21629 26.1208 8.28533 25.6273C8.30834 25.4927 8.21629 25.3357 8.17027 25.1338C7.64102 25.3582 7.20382 25.5376 6.76661 25.7395C6.55952 25.8292 6.37543 25.9189 6.19135 26.0086C4.85672 26.4797 3.5221 26.8161 2.16446 26.1432C1.68124 25.8965 1.45113 25.6049 1.47414 25.0441C1.47414 24.9993 1.47414 24.932 1.45113 24.9095C0.990914 24.3039 1.03694 23.5637 0.898871 22.8908C0.783818 22.2628 0.668764 21.6347 0.737796 20.9843C0.760807 20.6702 0.783818 20.3786 0.990914 20.1319C1.08296 20.0422 1.12898 19.93 1.175 19.7954C1.31307 19.3917 1.58919 19.1225 1.93436 18.9207C2.44059 18.6291 2.90081 18.2926 3.29199 17.8664C3.45307 17.687 3.66016 17.5076 3.86726 17.3954C4.12038 17.2384 4.18941 17.059 4.1664 16.7674C4.12038 15.915 3.86726 15.601 3.03887 15.3094C2.55565 15.13 2.09543 14.9505 1.63522 14.6814C1.29005 14.457 0.898871 14.3449 0.599732 14.0084C0.139516 13.515 0.0244625 12.9318 0.00145177 12.2813C-0.021559 11.429 0.231559 10.6215 0.576721 9.88128C0.85285 9.27566 1.10597 8.67004 1.33608 8.042C1.42812 7.77283 1.58919 7.57096 1.75027 7.36909C2.00339 7.05506 2.34855 7.0102 2.73973 7.0775C2.8778 7.09993 3.03887 7.16722 3.17694 7.14479C3.82124 7.0775 4.35049 7.48124 4.97178 7.57096C5.22489 7.61582 5.455 7.79526 5.70812 7.90741C5.93823 8.01957 6.16834 8.10929 6.46748 8.24387ZM8.60748 4.31857C8.63049 4.67746 8.6535 5.03634 8.67651 5.41766C8.67651 5.52981 8.72253 5.61953 8.74554 5.73168C8.86059 6.09056 9.04468 6.44945 9.11371 6.83076C9.22877 7.34666 9.34382 7.88498 9.2978 8.40088C9.27479 8.67004 9.2978 9.05136 8.92963 9.2308C8.86059 9.27566 8.83758 9.38781 8.76855 9.43267C8.46941 9.70183 8.21629 10.0383 7.77909 10.128C7.45694 10.1953 7.13479 10.2626 6.81264 10.285C6.67457 10.285 6.49049 10.2177 6.35242 10.1504C6.23737 10.1056 6.14532 9.94857 6.05328 9.92614C5.24791 9.76913 4.67264 9.14108 3.82124 9.07379C3.29199 9.02893 3.24597 8.96164 3.03887 9.43267C2.92382 9.6794 2.85479 9.92614 2.76274 10.1953C2.64769 10.5542 2.53264 10.9131 2.44059 11.2495C2.34855 11.5635 2.18747 11.8776 2.14145 12.214C2.11844 12.5505 1.98038 12.9542 2.30253 13.2234C2.80876 13.6271 3.33801 14.0309 4.00532 14.1655C4.76468 14.3225 5.40898 14.7262 5.6621 15.4215C5.91522 16.0945 6.05328 16.8347 5.89221 17.5749C5.82317 17.8664 5.73113 18.1132 5.38597 18.2029C5.2479 18.2478 5.13285 18.3375 5.0178 18.4272C4.48855 18.8309 3.98231 19.2347 3.45307 19.6384C3.36102 19.7057 3.26898 19.7506 3.17694 19.8179C2.6707 20.1768 2.30253 20.6254 2.32554 21.2758C2.32554 21.4777 2.32554 21.6796 2.37156 21.859C2.53264 22.5095 2.69371 23.16 3.17694 23.6535C3.59113 24.0796 3.72919 24.0796 4.25844 23.788C4.32747 23.7432 4.39651 23.7207 4.46554 23.6983C5.0178 23.5637 5.54704 23.317 5.98425 22.9581C6.14532 22.8235 6.35242 22.7338 6.55952 22.689C6.97371 22.5992 7.41092 22.5319 7.84812 22.5319C8.03221 22.5319 8.21629 22.689 8.37737 22.8011C8.60748 22.9805 8.69952 23.2497 8.72253 23.4964C8.74554 23.6983 8.81457 23.8553 8.99866 23.9899C9.45887 24.2815 9.735 24.7301 9.98812 25.1787C10.1032 25.3806 10.2182 25.6049 10.1952 25.8292C10.1722 26.4124 10.0572 26.9956 9.98812 27.5787C9.96511 27.8255 9.9421 28.0722 9.87307 28.2965C9.78102 28.5881 9.89608 28.7227 10.1492 28.8573C10.8165 29.2162 11.4608 29.575 12.1051 29.9115C12.2202 29.9788 12.3352 30.0012 12.4733 30.0236C12.8875 30.1358 13.0486 30.0461 13.3017 29.7096C13.4397 29.5526 13.6008 29.418 13.7619 29.261C13.8769 29.1489 14.015 29.0591 14.107 28.9246C14.4292 28.4311 14.7513 27.9152 15.0735 27.4217C15.5797 26.6591 16.3391 26.2778 17.2135 26.1656C17.6277 26.0983 18.1569 26.1656 18.5021 26.5245C18.7322 26.7713 18.9163 27.0629 19.1004 27.332C19.4916 27.8928 19.8597 28.476 20.2739 29.0143C20.6651 29.5302 20.8032 29.5302 21.4245 29.3283C22.2298 29.0591 22.8741 28.4311 23.7946 28.4087C24.0017 28.4087 24.0937 28.2292 24.0707 28.0274C24.0477 27.9152 24.0707 27.7806 24.0477 27.646C23.8406 26.7488 23.6335 25.8516 23.4034 24.9544C23.2653 24.4161 23.2193 23.8778 23.4494 23.3619C23.5415 23.16 23.6795 22.9581 23.8176 22.8011C24.2088 22.3974 24.5769 22.016 25.2443 22.0609C25.6815 22.0833 26.1187 22.016 26.4638 22.3749C26.4868 22.3974 26.5329 22.3974 26.5789 22.3974C27.0621 22.5768 27.5683 22.8011 28.0746 22.9581C28.4888 23.0703 28.88 23.317 29.3402 23.2273C29.3862 23.16 29.4092 23.0927 29.4552 23.0254C29.8234 22.2179 29.9615 21.3207 30.3757 20.5132C30.6978 19.8852 30.5597 19.4366 29.9615 19.0553C29.6853 18.8758 29.3632 18.7637 29.0871 18.6066C28.8569 18.4721 28.5808 18.3375 28.4427 18.1356C28.0516 17.6646 27.6144 17.2608 27.1541 16.8347C26.924 16.6328 26.74 16.3412 26.5789 16.072C26.5098 15.9599 26.5329 15.7804 26.5329 15.6234C26.5329 15.3767 26.5559 15.13 26.5559 14.8832C26.5559 14.7711 26.5559 14.6814 26.5789 14.5692C26.6939 14.0757 26.901 13.6271 27.4993 13.4925C27.5683 13.4701 27.5914 13.4028 27.6604 13.3355C27.9365 13.0888 28.2126 12.8196 28.4888 12.5729C28.7419 12.371 28.995 12.1916 29.2711 12.0122C29.4322 11.9 29.5933 11.7878 29.7774 11.7206C30.1455 11.5635 30.2146 11.4738 30.0305 11.1149C29.7544 10.5318 29.4552 9.94857 29.1561 9.36538C29.064 9.18594 28.926 9.0065 28.6959 9.02893C28.4197 9.07379 28.1206 9.16351 27.8675 9.27566C27.4303 9.47753 27.0391 9.76912 26.5789 9.94857C26.2337 10.0831 25.8655 10.1056 25.4974 10.1953C25.4514 10.1953 25.3823 10.1953 25.3363 10.1729C24.9681 10.0383 24.623 10.128 24.2548 10.1729C24.0477 10.1953 23.7716 10.1729 23.6565 10.0383C23.4034 9.81399 23.1963 9.54482 23.0352 9.2308C22.8281 8.84948 22.7821 8.40088 22.552 8.06443C22.1838 7.45881 22.2989 6.85319 22.46 6.24758C22.506 6.06813 22.552 5.86626 22.552 5.66439C22.598 5.12606 22.644 4.61017 22.6901 4.07184C22.7131 3.80268 22.7361 3.55595 22.7361 3.30921C22.3449 3.19706 21.9997 3.12977 21.6546 3.04005C21.3094 2.95033 20.9412 2.86061 20.5961 2.77089C20.1819 2.65874 20.0208 2.72603 19.7677 3.08491C19.5836 3.33164 19.3995 3.57838 19.1924 3.80268C18.8012 4.20642 18.387 4.61017 17.9729 4.99148C17.3286 5.57467 16.8683 5.73168 15.9939 5.75411C15.8329 5.75411 15.6718 5.70925 15.5107 5.70925C14.5903 5.70925 14.061 5.23821 13.7619 4.43073C13.6929 4.25128 13.5548 4.09427 13.4627 3.93726C13.2787 3.6681 13.0946 3.39893 12.9335 3.12977C12.7724 2.88304 12.6113 2.63631 12.4733 2.43443C11.944 2.61387 11.4838 2.74846 11.0236 2.90547C10.7935 2.99519 10.5404 3.08491 10.3333 3.21949C9.735 3.60081 9.18274 3.95969 8.60748 4.31857Z" fill="#EB611B"/>
<path d="M15.8559 10.5093C16.2241 10.5541 16.6843 10.5541 17.1445 10.6663C17.6508 10.7784 18.157 10.9803 18.6402 11.1822C18.9394 11.3168 19.2385 11.4065 19.5607 11.3841C20.1359 11.3616 20.5731 11.6757 20.9413 12.057C21.2404 12.371 21.4705 12.7299 21.7007 13.0888C21.9768 13.5149 22.0228 14.0084 22.1379 14.5019C22.2299 14.8832 22.1148 15.2421 22.2069 15.6009C22.2989 15.9598 22.3219 16.3636 22.2989 16.7449C22.2989 17.1038 22.2299 17.4402 22.0688 17.7767C21.8387 18.2926 21.4245 18.7187 21.4015 19.3244C21.4015 19.3692 21.3785 19.4141 21.3555 19.4141C20.9413 19.7505 20.6652 20.244 20.1589 20.4907C20.0439 20.558 19.9058 20.6477 19.8368 20.7375C19.5376 21.2085 19.0314 21.4104 18.5252 21.5898C18.18 21.7244 17.7888 21.7693 17.4206 21.8366C17.3056 21.859 17.1905 21.9263 17.0985 21.8814C16.5462 21.6122 15.948 21.8814 15.3727 21.7693C15.2116 21.7468 15.0275 21.7244 14.9125 21.6571C14.5213 21.3879 14.1071 21.2758 13.6469 21.1861C13.5779 21.1636 13.5088 21.1636 13.4398 21.1188C12.2892 20.4683 11.4378 19.5262 10.8626 18.3599C10.7475 18.1356 10.6785 17.8664 10.7935 17.5524C10.8856 17.2608 10.7935 16.8122 10.6095 16.543C10.3103 16.1168 10.4254 15.6907 10.4254 15.2645C10.4024 14.4121 10.9316 13.7168 11.2308 12.9542C11.2998 12.7972 11.4378 12.6402 11.5759 12.5504C12.1282 12.1915 12.5654 11.6757 13.0716 11.2719C13.3938 11.0027 13.854 10.8906 14.2682 10.7784C14.5903 10.7111 14.9125 10.7336 15.2116 10.5541C15.3267 10.5093 15.5338 10.5541 15.8559 10.5093ZM18.8013 15.3542C18.7323 15.2196 18.6862 15.0626 18.5942 14.928C18.2951 14.5019 18.3411 13.8738 17.8809 13.5374C17.8579 13.5149 17.8809 13.4028 17.8579 13.3579C17.6508 12.7972 17.3746 12.6626 16.7763 12.7972C16.5002 12.8645 16.2471 12.8869 15.971 12.9542C15.3727 13.0888 14.8434 13.4028 14.4523 13.8514C14.0381 14.3448 13.7619 14.9729 13.5318 15.5785C13.5088 15.6682 13.5088 15.7804 13.5088 15.8925C13.5088 16.0944 13.5088 16.2739 13.5548 16.4757C13.6469 16.9916 13.5548 17.5748 14.1531 17.8664C14.1991 17.8888 14.2222 18.001 14.2682 18.0458C14.3602 18.158 14.4523 18.2701 14.5673 18.3374C14.8434 18.4944 15.1196 18.629 15.3957 18.7412C15.5568 18.8085 15.7639 18.8309 15.9019 18.786C16.2931 18.6515 16.6843 18.4272 17.0755 18.315C17.7428 18.1356 18.0189 17.5748 18.3411 17.0813C18.6632 16.5879 18.9394 16.0495 18.6862 15.4439C18.7323 15.4215 18.7553 15.3991 18.8013 15.3542Z" fill="#EB611B"/>
</svg>
