<svg width="103" height="131" viewBox="0 0 103 131" fill="none" xmlns="http://www.w3.org/2000/svg">
<g clip-path="url(#clip0)">
<path d="M48.7912 34.315L48.9178 34.3599L48.8684 35.8038L49.7407 34.6522L49.8673 34.6971L49.2154 36.5329L49.0888 36.488L49.5946 35.0637L48.853 36.0478L48.7264 36.0029L48.7716 34.7714L48.2658 36.1957L48.1392 36.1508L48.7912 34.315Z" fill="#1E1F44"/>
<path d="M50.0063 36.8151C50.3781 36.27 50.7611 35.6931 51.133 35.148L51.2596 35.1929L51.0824 37.1973L50.9558 37.1524L50.9866 36.6643L50.3852 36.4507L50.1012 36.8489L50.0063 36.8151ZM50.9886 36.5581L51.0747 35.4124L50.4506 36.367L50.9886 36.5581Z" fill="#1E1F44"/>
<path d="M52.5082 35.9928L51.9686 37.5121L51.842 37.4671L52.494 35.6313L52.6206 35.6763L52.7141 37.4203L53.2536 35.9011L53.3802 35.946L52.7283 37.7818L52.6017 37.7369L52.5082 35.9928Z" fill="#1E1F44"/>
<path d="M53.9323 37.6034C53.8536 37.825 53.8382 38.0691 54.0914 38.159C54.313 38.2377 54.4754 38.0815 54.5428 37.8916L54.6664 37.5434L54.3816 37.4422L54.4153 37.3473L54.8268 37.4934L54.6807 37.9049C54.5795 38.1897 54.3834 38.4409 54.0352 38.3172C53.7503 38.2161 53.6595 37.97 53.7607 37.6851L54.0754 36.7988C54.1766 36.514 54.3931 36.3057 54.7413 36.4294C55.1528 36.5755 55.0403 36.892 54.9279 37.2085L54.9167 37.2402L54.7901 37.1952C54.8013 37.1636 54.8126 37.1319 54.8238 37.1003C54.9025 36.8787 54.9383 36.6776 54.6534 36.5764C54.4319 36.4977 54.2807 36.6222 54.202 36.8438L53.9323 37.6034Z" fill="#1E1F44"/>
<path d="M56.0073 36.879L56.7353 37.1375L56.7016 37.2325L56.1002 37.0189L55.8417 37.7469L56.3798 37.938L56.346 38.033L55.808 37.8419L55.5269 38.6332L56.1283 38.8467L56.0946 38.9417L55.3666 38.6831L56.0073 36.879Z" fill="#1E1F44"/>
<path d="M57.6659 39.5354L56.843 39.2431C56.8542 39.2114 56.8655 39.1798 56.9084 39.1594L58.1147 37.77L57.4816 37.5451L57.5154 37.4502L58.3066 37.7312C58.2954 37.7629 58.2954 37.7629 58.2842 37.7945L58.2729 37.8262C58.1534 37.9619 58.0227 38.1294 57.9032 38.2651C57.61 38.5888 57.3485 38.9236 57.0554 39.2472L57.7201 39.4833L57.6976 39.5466L57.6659 39.5354Z" fill="#1E1F44"/>
<path d="M60.3691 39.8525L60.654 39.9537L60.5978 40.1119C60.5079 40.3651 60.2505 40.4876 59.9973 40.3977C59.7441 40.3078 59.5787 40.0708 59.6799 39.7859L60.0396 38.7731C60.1408 38.4882 60.3869 38.3974 60.6717 38.4986C60.9249 38.5885 61.0474 38.8459 60.9575 39.0991L60.9013 39.2573L60.6164 39.1562C60.6277 39.1245 60.6389 39.0929 60.6501 39.0612C60.6951 38.9346 60.6972 38.8284 60.5389 38.7722C60.444 38.7385 60.3265 38.7681 60.2928 38.863L59.9331 39.8759C59.8994 39.9708 59.9606 40.0995 60.0556 40.1332C60.2138 40.1894 60.2792 40.1057 60.3242 39.9791C60.3467 39.9158 60.3579 39.8841 60.3691 39.8525Z" fill="#76B39D"/>
<path d="M62.5397 39.6622L62.1912 40.6434C62.0901 40.9283 61.8644 41.062 61.5795 40.9608C61.3263 40.8709 61.1722 40.6023 61.2621 40.3491L61.6218 39.3362C61.7229 39.0514 61.9691 38.9606 62.2539 39.0617C62.5071 39.1517 62.6296 39.409 62.5397 39.6622ZM61.5582 40.4186C61.5245 40.5136 61.5857 40.6422 61.6807 40.676C61.7756 40.7097 61.8726 40.6372 61.9064 40.5423L62.2661 39.5294C62.2998 39.4345 62.2161 39.3691 62.1528 39.3466C62.0578 39.3129 61.9404 39.3425 61.9066 39.4374L61.5582 40.4186Z" fill="#76B39D"/>
<path d="M63.5259 40.2976L63.11 41.4687L62.8252 41.3676L63.4771 39.5318L63.762 39.6329L63.8321 40.941L64.2367 39.8015L64.5216 39.9027L63.8697 41.7385L63.5848 41.6373L63.5259 40.2976Z" fill="#76B39D"/>
<path d="M65.9968 41.0682L65.712 40.967C65.7232 40.9354 65.7232 40.9354 65.7344 40.9037C65.7794 40.7771 65.8356 40.6188 65.6773 40.5626C65.5824 40.5289 65.4537 40.5901 65.42 40.6851C65.2626 41.1282 65.9406 41.2264 65.7158 41.8595C65.6146 42.1443 65.3256 42.2556 65.0724 42.1656C64.8192 42.0757 64.6855 41.85 64.7754 41.5968L64.8316 41.4385L65.1165 41.5397C65.1165 41.5397 65.1165 41.5397 65.1053 41.5714C65.0603 41.698 64.9928 41.8879 65.1828 41.9553C65.3094 42.0003 65.4176 41.8961 65.4626 41.7695C65.5975 41.3897 64.9532 41.1966 65.1555 40.6268C65.2567 40.342 65.5345 40.2624 65.7877 40.3523C66.0409 40.4422 66.1746 40.6679 66.0847 40.9212L66.0285 41.0794L65.9968 41.0682Z" fill="#76B39D"/>
<path d="M66.3701 42.6265L67.0221 40.7907L67.3069 40.8919L66.655 42.7277L66.3701 42.6265Z" fill="#76B39D"/>
<path d="M68.2053 41.6743L67.8456 42.6871C67.8119 42.7821 67.8731 42.9108 67.9681 42.9445C68.063 42.9782 68.1805 42.9486 68.2142 42.8537L68.3266 42.5371L68.1367 42.4697L68.2154 42.2481L68.6902 42.4167L68.4991 42.9548C68.4091 43.208 68.1518 43.3305 67.8986 43.2406C67.6454 43.1507 67.48 42.9137 67.5812 42.6289L67.9409 41.616C68.042 41.3311 68.2881 41.2403 68.573 41.3415C68.8262 41.4314 68.9487 41.6888 68.8588 41.942L68.7913 42.1319L68.5065 42.0307C68.5177 41.9991 68.5402 41.9358 68.5514 41.9041C68.5964 41.7775 68.5984 41.6713 68.4402 41.6151C68.3565 41.5497 68.2503 41.5477 68.2053 41.6743Z" fill="#76B39D"/>
<path d="M69.8563 42.5457L69.4403 43.7168L69.1555 43.6157L69.8074 41.7799L70.0923 41.881L70.1624 43.1891L70.5671 42.0496L70.8519 42.1508L70.2 43.9866L69.9151 43.8854L69.8563 42.5457Z" fill="#76B39D"/>
<path d="M71.9482 43.6807L71.5684 43.5458L71.3548 44.1472L71.8296 44.3158L71.7509 44.5374L70.9913 44.2676L71.6432 42.4318L72.4029 42.7016L72.3242 42.9231L71.8494 42.7545L71.6583 43.2926L72.0381 43.4275L71.9482 43.6807ZM72.4561 42.1502L71.921 42.3522L71.8485 42.2552C72.0313 42.1419 72.1283 42.0694 72.2907 41.9133L72.4561 42.1502Z" fill="#76B39D"/>
<path d="M84.3666 33.9047C84.4186 33.9589 84.4503 33.9701 84.5136 33.9926C84.7239 34.1029 84.8913 34.2337 85.0475 34.3961C85.0679 34.439 85.1312 34.4614 85.1404 34.536C85.1496 34.6105 85.0954 34.6626 85.0617 34.7575C85.0188 34.778 84.9759 34.7984 84.9126 34.7759C84.7748 34.7626 84.6594 34.686 84.5441 34.6094C84.3133 34.4561 84.0938 34.2712 83.8631 34.118C83.811 34.0639 83.759 34.0098 83.7069 33.9556C83.6865 33.9127 83.6661 33.8698 83.6886 33.8065C83.7335 33.6799 83.8101 33.5646 83.9501 33.4717C84.0787 33.4104 84.1645 33.3696 84.2932 33.3084C84.379 33.2676 84.4648 33.2267 84.5505 33.1859C84.6792 33.1247 84.8283 33.1063 84.9774 33.088C85.0203 33.0676 85.0836 33.0901 85.1152 33.1013C85.2102 33.135 85.2194 33.2096 85.1857 33.3045C85.1294 33.4628 85.0099 33.5986 84.87 33.6915C84.7413 33.7527 84.5698 33.8343 84.3666 33.9047C84.3778 33.8731 84.3778 33.8731 84.3666 33.9047ZM84.9079 33.3841C84.8129 33.3504 84.7588 33.4025 84.6843 33.4116C84.4494 33.4708 84.2349 33.5728 84.0205 33.6749C84.0521 33.6861 84.0521 33.6861 84.0838 33.6974C84.2012 33.6678 84.3503 33.6495 84.4677 33.6199C84.5535 33.5791 84.6393 33.5382 84.7567 33.5086C84.8425 33.4678 84.8854 33.4474 84.9079 33.3841Z" fill="#76B39D"/>
<path d="M81.7093 31.2502C81.7317 31.1869 81.743 31.1552 81.7655 31.0919C81.8441 30.8703 81.9432 30.6917 82.0536 30.4814C82.0761 30.418 82.1189 30.3976 82.1618 30.3772C82.2364 30.3681 82.2997 30.3905 82.3946 30.4243C82.4579 30.4467 82.4355 30.51 82.4559 30.5529C82.4426 30.6908 82.3976 30.8174 82.3526 30.944C82.2515 31.2289 82.0982 31.4596 81.9767 31.7016C81.9542 31.7649 81.9001 31.8169 81.8459 31.869C81.7918 31.9211 81.7489 31.9415 81.7173 31.9302C81.5906 31.8853 81.4528 31.872 81.3599 31.732C81.2874 31.635 81.215 31.538 81.1537 31.4093C81.1129 31.3235 81.0292 31.2582 80.9884 31.1724C80.9271 31.0437 80.8659 30.915 80.8159 30.7547C80.7955 30.7118 80.818 30.6485 80.8292 30.6168C80.8629 30.5219 80.9171 30.4698 81.012 30.5035C81.1703 30.5597 81.3173 30.6476 81.4214 30.7559C81.5143 30.8958 81.6389 31.0469 81.7093 31.2502C81.6776 31.2389 81.7093 31.2502 81.7093 31.2502ZM81.1233 30.7925C81.0895 30.8875 81.1416 30.9416 81.1937 30.9958C81.2957 31.2102 81.409 31.393 81.554 31.5871C81.5652 31.5554 81.5652 31.5554 81.5764 31.5238C81.5152 31.3951 81.4856 31.2777 81.4244 31.149C81.3836 31.0632 81.3111 30.9662 81.2703 30.8804C81.207 30.8579 81.1866 30.815 81.1233 30.7925Z" fill="#76B39D"/>
<path d="M84.0598 31.6572C84.1456 31.6164 84.1997 31.5643 84.2855 31.5235C84.5766 31.3061 84.9085 31.1744 85.2291 31.0744C85.3149 31.0336 85.3894 31.0244 85.4844 31.0582C85.5681 31.1235 85.6406 31.2206 85.7131 31.3176C85.7539 31.4034 85.6997 31.4554 85.6344 31.5391C85.5036 31.7066 85.3525 31.8311 85.1809 31.9128C84.8153 32.1393 84.3976 32.3118 83.9799 32.4843C83.8941 32.5251 83.7767 32.5547 83.6593 32.5843C83.5847 32.5934 83.4785 32.5914 83.4377 32.5056C83.2815 32.3432 83.1682 32.1604 83.1724 31.948C83.1765 31.7356 83.1694 31.5548 83.1735 31.3424C83.1552 31.1934 83.1798 31.0239 83.1931 30.886C83.2401 30.6532 83.2871 30.4204 83.3975 30.2101C83.4199 30.1468 83.4741 30.0947 83.5282 30.0427C83.6365 29.9385 83.7631 29.9835 83.8672 30.0918C84.0438 30.297 84.1346 30.5432 84.1509 30.7984C84.1243 31.0741 84.1405 31.3294 84.0598 31.6572C84.0394 31.6143 84.071 31.6255 84.0598 31.6572ZM83.7527 30.5145C83.6557 30.5869 83.674 30.736 83.6403 30.831C83.5483 31.1904 83.5309 31.5406 83.5338 31.9338C83.5767 31.9134 83.588 31.8817 83.588 31.8817C83.6238 31.6806 83.7229 31.5019 83.7587 31.3007C83.7832 31.1312 83.7965 30.9934 83.8098 30.8555C83.8231 30.7177 83.8252 30.6115 83.7527 30.5145Z" fill="#76B39D"/>
<path d="M48.8484 32.4475C48.4707 32.2065 48.0705 32.0287 47.7581 31.7039C47.5815 31.4986 47.5019 31.2208 47.4223 30.9431C47.3061 30.3671 47.2644 29.782 47.3288 29.199C47.4066 28.4781 47.5048 27.8001 47.8471 27.1375C48.0678 26.7168 48.268 26.2533 48.5203 25.8439C48.8064 25.3395 49.167 24.826 49.5571 24.4299C49.8819 24.1175 50.1863 23.7623 50.5948 23.5153C50.7776 23.402 50.9717 23.257 51.1749 23.1866C51.4323 23.0642 51.7284 23.1337 51.9366 23.3502C52.0091 23.4472 51.9866 23.5105 51.9529 23.6055C51.9079 23.7321 51.7476 23.7821 51.8088 23.9108C51.8497 23.9965 51.9763 24.0415 52.0916 24.1181C52.4377 24.348 52.6327 24.7023 52.7735 25.1088C53.0438 25.9533 53.0589 26.8141 52.9137 27.7249C52.8176 28.2967 52.6581 28.846 52.4875 29.427C52.1727 30.3133 51.7539 31.0912 51.093 31.7476C50.7141 32.1121 50.2515 32.4112 49.7592 32.5928C49.6734 32.6336 49.5673 32.6315 49.4927 32.6407C49.2824 32.5304 49.0608 32.4517 48.8484 32.4475ZM49.8228 27.6965C49.7441 27.9181 49.6338 28.1284 49.5867 28.3612C49.5581 28.7431 49.3711 29.0688 49.2791 29.4282C49.2433 29.6294 49.1963 29.8622 49.1288 30.0521C49.0052 30.4002 49.0194 30.7617 48.9907 31.1436C48.9753 31.3877 49.0386 31.4101 49.2735 31.351C49.3909 31.3214 49.5084 31.2918 49.6054 31.2193C50.0772 30.9948 50.4449 30.662 50.7605 30.2751C51.3152 29.6166 51.7749 28.9244 52.0038 28.079C52.1765 27.3918 52.286 26.6822 52.2576 25.9592C52.2434 25.5978 52.2404 25.2046 52.1946 24.8319C52.1467 24.5654 52.0221 24.4142 51.823 24.2722C51.624 24.1303 51.5811 24.1507 51.4391 24.3497C50.8241 25.3789 50.2816 26.505 49.8228 27.6965Z" fill="#EB611B"/>
<path d="M54.4537 31.0164C54.3363 31.0459 54.2709 31.1297 54.2055 31.2134C53.7163 31.7881 53.1841 32.3833 52.6836 32.9897C52.4987 33.2092 52.2843 33.3113 51.9769 33.2734C51.8707 33.2713 51.8074 33.2489 51.7666 33.1631C51.6625 33.0548 51.6645 32.9486 51.7728 32.8445C52.3795 32.2401 52.8392 31.5479 53.3622 30.8782C53.5695 30.5954 53.8085 30.3239 54.0159 30.0411C54.1579 29.842 54.257 29.6633 54.1978 29.4285C54.1682 29.311 54.202 29.2161 54.1611 29.1303C54.0816 28.8525 54.0449 28.5543 54.0715 28.2787C54.0756 28.0663 53.9848 27.8202 53.989 27.6078C53.9585 26.991 53.8851 26.3946 53.8547 25.7779C53.8425 25.3102 53.8192 24.8742 53.7641 24.4269C53.7183 24.0542 53.7899 23.6519 53.8502 23.2813C53.9443 22.8157 54.1762 22.3634 54.3968 21.9427C54.4193 21.8794 54.4847 21.7957 54.5797 21.8294C54.6746 21.8631 54.7267 21.9173 54.7246 22.0235C54.6938 22.5116 54.8234 22.9496 54.8672 23.4286C54.9018 23.8329 54.9793 24.2169 54.9823 24.61C54.9761 24.9286 55.0332 25.2697 55.0269 25.5883C55.0054 26.1509 55.1533 26.7381 55.1317 27.3007C55.1184 27.4386 55.1908 27.5356 55.1888 27.6418C55.2163 27.8654 55.2438 28.089 55.2397 28.3014C55.3234 28.3668 55.3459 28.3035 55.4 28.2514C55.7156 27.8645 56.0425 27.4459 56.3581 27.059C56.9015 26.4322 57.4337 25.837 57.9658 25.2419C58.0853 25.1061 58.2477 24.9499 58.3989 24.8253C58.5929 24.6804 58.8074 24.5783 59.0381 24.7316C59.2484 24.8419 59.2576 24.9165 59.1156 25.1155C58.9307 25.335 58.7346 25.5862 58.5497 25.8057C57.702 26.7878 56.9175 27.7923 56.1014 28.7857C55.9594 28.9847 55.7541 29.1613 55.5804 29.3492C55.3956 29.5687 55.3169 29.7902 55.3964 30.068C55.4944 30.4948 55.5065 30.9625 55.5615 31.4098C55.5961 31.8142 55.642 32.1869 55.7511 32.5821C55.8215 32.7853 55.8378 33.0406 55.9082 33.2438C56.049 33.6502 56.1153 34.0658 56.299 34.4519C56.3602 34.5806 56.4756 34.6572 56.5593 34.7225C56.7267 34.8533 56.7676 34.9391 56.6909 35.0544C56.6143 35.1698 56.454 35.2198 56.2957 35.1636C55.9792 35.0512 55.674 34.9071 55.434 34.6794C55.2462 34.5057 55.09 34.3433 55.0309 34.1085C55.0013 33.991 54.94 33.8623 54.8788 33.7337C54.8267 33.6795 54.8176 33.605 54.8084 33.5304C54.7738 33.1261 54.6217 32.7513 54.5759 32.3786C54.5096 31.963 54.3688 31.5565 54.3454 31.1205C54.5058 31.0705 54.4741 31.0593 54.4537 31.0164Z" fill="#EB611B"/>
<path d="M65.5584 27.0471L65.4572 27.332L61.7856 26.0281L60.2007 30.491L63.4292 31.6375L63.328 31.9224L60.0995 30.7758L58.4247 35.4919L62.1279 36.8071L62.0268 37.092L57.9754 35.6532L61.5386 25.6196L65.5584 27.0471Z" fill="#1E1F44"/>
<path d="M63.155 37.5283C65.2011 34.4767 67.2472 31.4251 69.3249 28.3847L69.7047 28.5196L68.7257 39.5066L68.3775 39.3829L68.6233 36.5831L65.0242 35.3762L63.5031 37.6519L63.155 37.5283ZM68.6295 36.2645L69.2808 29.0107L65.1999 35.0822L68.6295 36.2645Z" fill="#1E1F44"/>
<path d="M70.6565 40.1923L70.3083 40.0686L73.7816 30.2883L71.661 29.5351L71.7621 29.2503L76.3516 30.8802L76.2504 31.165L74.0981 30.4007L70.6248 40.181L70.6565 40.1923Z" fill="#1E1F44"/>
<path d="M76.4804 42.2605L76.1322 42.1369L77.8183 37.3891L77.0592 31.0958L77.4073 31.2194L78.1318 37.1084L82.4083 32.9954L82.7565 33.1191L78.1664 37.5128L76.4804 42.2605Z" fill="#1E1F44"/>
<path d="M47.4554 25.4301C47.6944 25.1585 47.9855 24.9411 48.2245 24.6695C48.7117 24.201 49.1468 23.6783 49.5299 23.1014C49.8793 22.6196 50.1653 22.1152 50.2727 21.5118C50.3463 21.0033 50.228 20.5335 49.8523 20.1862C49.5808 19.9472 49.298 19.7399 48.9611 19.5846C48.3822 19.3077 47.7562 19.2636 47.1507 19.2624C46.875 19.2358 46.5656 19.3042 46.2562 19.3725C46.0213 19.4317 46.0325 19.4 45.9938 19.208C45.9754 19.0589 45.8826 18.919 45.7355 18.8312C45.6202 18.7546 45.4936 18.7096 45.3782 18.633C45.1791 18.491 44.9759 18.5614 44.8043 18.643C44.6757 18.7043 44.599 18.8196 44.5541 18.9462C44.3222 19.3985 44.0698 19.8079 43.9329 20.294C43.7959 20.78 43.659 21.266 43.5537 21.7632C43.4842 22.0594 43.3513 22.333 43.3247 22.6087C43.296 22.9906 43.2561 23.4041 43.1325 23.7523C43.1212 23.7839 43.11 23.8156 43.1304 23.8585C43.0026 24.419 43.0014 25.0245 42.8736 25.5851C42.7234 26.209 42.6793 26.8349 42.4974 27.4475C42.4054 27.8069 42.4512 28.1796 42.3276 28.5278C42.2489 28.7494 42.3081 28.9843 42.2294 29.2058C42.1037 29.6602 42.0729 30.1483 41.9901 30.5822C41.9502 30.9958 42.1155 31.2327 42.4616 31.4625C42.6607 31.6045 42.9364 31.6311 43.158 31.7098C43.3795 31.7885 43.5919 31.7927 43.7543 31.6365C44.077 31.4303 44.3773 31.2874 44.6684 31.07C44.8624 30.925 45.0452 30.8117 45.2393 30.6668C45.6049 30.4402 45.9297 30.1278 46.2432 29.8471C46.4598 29.6388 46.6875 29.3989 46.8203 29.1253C47.1135 28.8017 47.1176 28.5893 46.9748 28.2891C46.9543 28.2462 46.9227 28.2349 46.9023 28.192C46.8819 28.1491 46.8615 28.1063 46.8094 28.0521C46.6644 27.8581 46.5083 27.6957 46.3408 27.5649C46.1213 27.3801 45.8681 27.2901 45.6037 27.2319C45.8202 27.0236 46.003 26.9103 46.2512 26.7133C46.6097 26.306 47.0428 25.8895 47.4554 25.4301ZM46.2621 20.1588C46.5399 20.0792 46.8809 20.0221 47.1679 20.0171C47.3915 19.9895 47.5926 20.0253 47.7846 19.9866C48.2002 19.9203 48.5801 20.0552 48.9395 20.1472C49.2672 20.228 49.5346 20.6794 49.4855 21.0184C49.4027 21.4523 49.2362 21.8209 48.9747 22.1557C48.3097 23.0245 47.6039 23.8076 46.9185 24.6335C46.5488 25.0724 46.1678 25.5431 45.8613 26.0045C45.5007 26.5181 45.2321 26.6722 44.892 27.2286C44.8807 27.2603 44.8491 27.249 44.7949 27.3011C44.8778 26.8671 44.8144 26.8446 44.8748 26.474C44.9484 25.9655 45.1487 25.502 45.1907 24.9822C45.1815 24.9077 45.2357 24.8556 45.2581 24.7923C45.3256 24.6024 45.4043 24.3808 45.4084 24.1685C45.4238 23.9244 45.5454 23.6824 45.5924 23.4496C45.7223 22.7829 45.8205 22.1049 45.9299 21.3952C45.9678 21.0879 46.0485 20.7601 46.0547 20.4416C46.0476 20.2608 46.1447 20.1883 46.2621 20.1588ZM43.6372 30.5612C43.5739 30.5387 43.9569 29.9619 43.9794 29.8986C44.0826 29.5075 44.3595 28.9286 44.4627 28.5376C44.4985 28.3364 44.6947 28.0853 44.8662 28.0036C45.1665 27.8607 45.7158 28.0202 46.0119 28.0897C46.2968 28.1909 46.4509 28.4595 46.2864 28.7218C46.221 28.8056 46.1986 28.8689 46.1648 28.9638C46.1107 29.0159 46.0453 29.0996 45.9912 29.1517C45.7859 29.3283 45.5694 29.5365 45.3641 29.7131L43.6372 30.5612Z" fill="#EB611B"/>
<path d="M36.7236 45.7131C36.5857 45.6998 36.4816 45.5915 36.3437 45.5782C36.2375 45.5761 36.1447 45.4362 36.158 45.2984C36.16 45.1922 36.1621 45.086 36.1958 44.991C36.252 44.8328 36.2878 44.6316 36.3757 44.4846C36.4206 44.358 36.4656 44.2314 36.5218 44.0731C36.578 43.9149 36.6342 43.7566 36.7221 43.6096C36.8436 43.3676 36.9223 43.1461 37.0122 42.8928C37.1563 42.5876 37.2687 42.2711 37.4128 41.9658C37.5456 41.6921 37.6467 41.4073 37.8 41.1766C37.8541 41.1245 37.8766 41.0612 37.942 40.9775C37.9644 40.9142 37.9757 40.8825 37.9011 40.8917C37.6254 40.8651 37.3835 40.7435 37.1303 40.6536C37.067 40.6311 37.0353 40.6198 36.9832 40.5657C36.9312 40.5116 36.8791 40.4574 36.9016 40.3941C36.9241 40.3308 36.9466 40.2675 37.064 40.238C37.1385 40.2288 37.2131 40.2196 37.2876 40.2104C37.5317 40.2258 37.7961 40.2841 38.0177 40.3628C38.0493 40.374 38.1126 40.3965 38.1443 40.4077C38.3883 40.4231 38.6099 40.5018 38.8427 40.5488C38.8743 40.5601 38.9377 40.5826 38.9805 40.5621C39.245 40.6204 39.5299 40.7216 39.7718 40.8432C39.8035 40.8544 39.8351 40.8656 39.8555 40.9085C39.9076 40.9627 39.928 41.0056 39.926 41.1118C39.9035 41.1751 39.8606 41.1955 39.786 41.2046C39.6369 41.223 39.5103 41.178 39.3837 41.1331C39.2684 41.0564 39.1734 41.0227 39.0243 41.0411C38.9498 41.0502 38.8548 41.0165 38.7915 40.994C38.6853 40.992 38.6853 40.992 38.6945 41.0665C38.6699 41.236 38.6342 41.4372 38.578 41.5954C38.4318 42.0069 38.2969 42.3867 38.1508 42.7982C38.1171 42.8931 38.0834 42.9881 38.0496 43.083C37.9035 43.4945 37.7257 43.8947 37.5796 44.3062C37.5009 44.5278 37.4222 44.7493 37.3323 45.0026C37.2649 45.1925 37.2403 45.362 37.1729 45.5519C37.1504 45.6152 37.1279 45.6785 37.0738 45.7305C37.0197 45.7826 36.9451 45.7918 36.8818 45.7693C36.8185 45.7468 36.7869 45.7356 36.7236 45.7131Z" fill="#1E1F44"/>
<path d="M38.3287 45.1077C38.4094 44.7799 38.5535 44.4746 38.6342 44.1469C38.6588 43.9774 38.7466 43.8303 38.8028 43.6721C38.8591 43.5138 38.9153 43.3556 38.9398 43.1861C38.951 43.1544 38.9623 43.1228 38.9735 43.0911C39.1063 42.8175 39.1759 42.5214 39.277 42.2365C39.4119 41.8567 39.5468 41.4769 39.7766 41.1308C39.8532 41.0154 39.9186 40.9317 40.0269 40.8276C40.0923 40.7439 40.2413 40.7255 40.3251 40.7909C40.3567 40.8021 40.42 40.8246 40.4404 40.8675C40.5241 40.9329 40.565 41.0187 40.5629 41.1249C40.5588 41.3373 40.5117 41.5701 40.4443 41.76C40.3768 41.9499 40.3298 42.1827 40.2624 42.3726C40.2174 42.4992 40.1724 42.6258 40.1162 42.7841C40.06 42.9423 40.0038 43.1006 39.9476 43.2588C39.8689 43.4804 39.779 43.7336 39.6687 43.9439C39.6574 43.9756 39.6574 43.9756 39.6462 44.0072C39.5992 44.24 39.4888 44.4504 39.4102 44.6719C39.3202 44.9251 39.2191 45.21 39.0975 45.452C39.03 45.6419 38.9197 45.8522 38.8523 46.0421C38.8185 46.1371 38.7848 46.232 38.6766 46.3361C38.6224 46.3882 38.5683 46.4403 38.4733 46.4066C38.2834 46.3391 38.1701 46.1563 38.1314 45.9643C38.1426 45.9327 38.1426 45.9327 38.1222 45.8898C38.1917 45.5937 38.2388 45.3609 38.3287 45.1077Z" fill="#1E1F44"/>
<path d="M40.426 45.4248C40.336 45.678 40.2349 45.9628 40.2082 46.2385C40.2062 46.3447 40.1949 46.3764 40.344 46.358C40.4931 46.3397 40.6422 46.3214 40.8229 46.3143C40.9291 46.3163 41.0578 46.2551 41.1752 46.2255C41.3243 46.2072 41.4734 46.1888 41.6225 46.1705C41.7287 46.1726 41.8237 46.2063 41.8645 46.2921C41.9053 46.3778 41.8828 46.4411 41.8083 46.4503C41.6163 46.4891 41.456 46.5391 41.2956 46.5891C41.2528 46.6095 41.2528 46.6095 41.2211 46.5982C41.1149 46.5962 41.0179 46.6686 40.9321 46.7095C40.8238 46.8136 40.6952 46.8748 40.5665 46.936L40.5236 46.9565C40.3837 47.0493 40.2458 47.036 40.0855 47.086C40.0109 47.0952 39.9476 47.0727 39.9272 47.0298C39.7598 46.8991 39.6128 46.8112 39.4566 46.6488C39.3525 46.5406 39.2912 46.4119 39.2729 46.2628C39.2362 45.9646 39.3057 45.6685 39.4069 45.3836C39.4519 45.257 39.4856 45.1621 39.4989 45.0242C39.5122 44.8864 39.5776 44.8027 39.6225 44.6761C39.7462 44.3279 39.9015 43.991 40.1201 43.6765C40.2621 43.4774 40.3928 43.31 40.5348 43.1109C40.6543 42.9752 40.7626 42.871 40.8504 42.724C40.9046 42.672 40.9587 42.6199 41.0128 42.5678C41.1527 42.4749 41.2722 42.3392 41.4213 42.3208L41.4642 42.3004C41.5725 42.1963 41.7216 42.1779 41.8819 42.128C42.1913 42.0596 42.6436 42.2915 42.809 42.5285C42.861 42.5826 42.859 42.6888 42.8681 42.7633C42.8569 42.795 42.8457 42.8266 42.8344 42.8583C42.7803 42.9104 42.7374 42.9308 42.6853 42.8766C42.6537 42.8654 42.6333 42.8225 42.6445 42.7909C42.5833 42.6622 42.4883 42.6285 42.3596 42.6897C42.1248 42.7489 41.9307 42.8938 41.7683 43.05C41.6059 43.2062 41.4752 43.3736 41.3332 43.5727C41.18 43.8034 41.038 44.0025 40.9164 44.2445C40.7386 44.6447 40.5608 45.0449 40.426 45.4248Z" fill="#1E1F44"/>
<path d="M43.7162 44.4903C43.7591 44.4699 43.802 44.4494 43.8132 44.4178C43.8674 44.3657 43.9215 44.3137 44.0073 44.2728C44.0614 44.2208 44.1043 44.2004 44.1585 44.1483C44.1697 44.1167 44.1697 44.1167 44.2126 44.0962C44.4608 43.8992 44.7518 43.6818 45 43.4848C45.1399 43.3919 45.2799 43.299 45.4402 43.249C45.5576 43.2195 45.6638 43.2215 45.7588 43.2552C45.8537 43.289 45.8741 43.3319 45.8404 43.4268C45.8067 43.5218 45.7301 43.6371 45.6647 43.7209C45.5452 43.8566 45.4461 44.0353 45.3266 44.1711C45.1305 44.4222 44.8915 44.6938 44.6749 44.902C44.5667 45.0062 44.4584 45.1103 44.3614 45.1828C44.199 45.3389 44.0366 45.4951 43.8538 45.6084C43.7139 45.7013 43.5627 45.8258 43.4432 45.9616C43.432 45.9933 43.4003 45.982 43.3891 46.0137C43.292 46.0862 43.2583 46.1811 43.2246 46.2761C43.2021 46.3394 43.1909 46.371 43.1684 46.4343C43.1234 46.5609 43.1326 46.6355 43.2163 46.7009C43.2888 46.7979 43.4042 46.8745 43.4879 46.9399C43.6237 47.0594 43.739 47.136 43.886 47.2238C43.9177 47.2351 43.9493 47.2463 43.9269 47.3096C43.9156 47.3413 43.8727 47.3617 43.8411 47.3504C43.8094 47.3392 43.7778 47.328 43.7461 47.3167C43.5674 47.2176 43.4 47.0869 43.2326 46.9561C43.0856 46.8683 43.0856 46.8683 43.0181 47.0582C42.9711 47.291 42.9037 47.4809 42.8566 47.7137C42.8341 47.777 42.78 47.8291 42.7167 47.8066C42.5789 47.7933 42.4094 47.7687 42.2623 47.6809C42.1786 47.6155 42.1378 47.5297 42.1715 47.4348C42.1624 47.3602 42.2165 47.3082 42.2073 47.2336C42.2319 47.0641 42.2881 46.9059 42.3126 46.7364C42.3954 46.3024 42.4783 45.8685 42.6356 45.4253C42.7368 45.1405 42.8176 44.8127 42.8871 44.5166C42.9433 44.3583 43.0107 44.1684 43.0353 43.9989C43.0935 43.7345 43.1835 43.4813 43.2846 43.1964C43.3858 42.9115 43.5186 42.6379 43.6718 42.4072C43.7485 42.2918 43.7913 42.2714 43.9496 42.3276C44.1712 42.4063 44.1916 42.4492 44.1762 42.6932C44.1629 42.8311 44.1383 43.0006 44.0934 43.1272C43.9789 43.5499 43.8848 44.0155 43.7387 44.427C43.7387 44.427 43.6958 44.4474 43.7162 44.4903Z" fill="#1E1F44"/>
<path d="M47.1739 43.6865C47.4905 43.7989 47.7437 43.8889 48.0398 43.9584C48.1347 43.9921 48.198 44.0146 48.293 44.0483C48.3246 44.0595 48.3879 44.082 48.3655 44.1453C48.343 44.2086 48.3113 44.1974 48.248 44.1749C48.0785 44.1503 47.9294 44.1687 47.7599 44.1441C47.5159 44.1288 47.3056 44.0184 47.0728 43.9714C46.9033 43.9468 46.8175 43.9877 46.7296 44.1347C46.6418 44.2817 46.5427 44.4604 46.4548 44.6074C46.3424 44.9239 46.1984 45.2292 46.0543 45.5345C45.9981 45.6927 45.9531 45.8193 45.9082 45.9459C45.8632 46.0725 45.8632 46.0725 46.0011 46.0858C46.1277 46.1308 46.2226 46.1645 46.3492 46.2095C46.4125 46.232 46.4646 46.2861 46.485 46.329C46.5054 46.3719 46.5258 46.4148 46.4401 46.4556C46.3543 46.4964 46.2797 46.5056 46.1848 46.4719C46.0898 46.4382 45.952 46.4248 45.8458 46.4228C45.7508 46.3891 45.7396 46.4207 45.7059 46.5157C45.6497 46.6739 45.5935 46.8322 45.5485 46.9588C45.4361 47.2753 45.3124 47.6235 45.1684 47.9287C45.1571 47.9604 45.1459 47.992 45.1459 47.992C45.1234 48.0554 45.1551 48.0666 45.2296 48.0574C45.2613 48.0687 45.3042 48.0482 45.3358 48.0595C45.6452 47.9912 45.9863 47.9341 46.3069 47.8341C46.456 47.8157 46.6051 47.7974 46.7338 47.7362C46.8083 47.727 46.8512 47.7066 46.8921 47.7924C46.9125 47.8353 46.89 47.8986 46.8359 47.9506C46.7817 48.0027 46.6643 48.0323 46.5897 48.0414C46.4294 48.0914 46.2691 48.1414 46.1088 48.1914C45.9168 48.2302 45.7248 48.2689 45.5216 48.3393C45.4041 48.3689 45.2438 48.4189 45.1264 48.4485C45.0089 48.4781 44.8915 48.5076 44.7874 48.3994L44.7557 48.3881C44.5658 48.3207 44.5158 48.1604 44.5404 47.9909C44.5762 47.7897 44.6232 47.5569 44.659 47.3558C44.7622 46.9647 44.8542 46.6053 44.9575 46.2142C45.027 45.9181 45.1598 45.6445 45.2497 45.3913C45.3059 45.233 45.405 45.0544 45.4612 44.8961C45.6165 44.5592 45.7718 44.2222 45.9904 43.9078C46.0558 43.8241 46.1324 43.7087 46.2294 43.6362C46.3377 43.5321 46.4551 43.5025 46.593 43.5158C46.6675 43.5067 46.7625 43.5404 46.8258 43.5629C46.984 43.6191 47.079 43.6528 47.1739 43.6865Z" fill="#1E1F44"/>
<path d="M47.928 49.6929C47.7901 49.6796 47.686 49.5714 47.5482 49.558C47.442 49.556 47.3491 49.4161 47.3624 49.2782C47.3645 49.172 47.3665 49.0658 47.4003 48.9709C47.4565 48.8126 47.4923 48.6115 47.5801 48.4644C47.6251 48.3378 47.67 48.2112 47.7262 48.053C47.7824 47.8947 47.8386 47.7365 47.9265 47.5894C48.0481 47.3475 48.1268 47.1259 48.2167 46.8727C48.3607 46.5674 48.4731 46.2509 48.6172 45.9456C48.75 45.672 48.8512 45.3871 49.0044 45.1564C49.0585 45.1043 49.081 45.041 49.1464 44.9573C49.1689 44.894 49.1801 44.8624 49.1056 44.8715C48.8299 44.8449 48.5879 44.7233 48.3347 44.6334C48.2714 44.6109 48.2397 44.5997 48.1877 44.5456C48.1356 44.4914 48.0836 44.4373 48.106 44.374C48.1285 44.3107 48.151 44.2474 48.2684 44.2178C48.343 44.2086 48.4175 44.1995 48.4921 44.1903C48.7361 44.2057 49.0006 44.2639 49.2221 44.3426C49.2538 44.3539 49.3171 44.3763 49.3487 44.3876C49.5928 44.403 49.8143 44.4816 50.0471 44.5287C50.0788 44.5399 50.1421 44.5624 50.185 44.542C50.4494 44.6003 50.7343 44.7014 50.9763 44.823C51.0079 44.8342 51.0396 44.8455 51.06 44.8884C51.112 44.9425 51.1325 44.9854 51.1304 45.0916C51.1079 45.1549 51.065 45.1753 50.9905 45.1845C50.8414 45.2028 50.7148 45.1579 50.5882 45.1129C50.4728 45.0363 50.3778 45.0026 50.2288 45.0209C50.1542 45.0301 50.0593 44.9964 49.996 44.9739C49.8898 44.9718 49.8898 44.9718 49.8989 45.0463C49.8744 45.2158 49.8386 45.417 49.7824 45.5753C49.6363 45.9867 49.5014 46.3665 49.3552 46.778C49.3215 46.873 49.2878 46.9679 49.2541 47.0629C49.108 47.4744 48.9302 47.8746 48.7841 48.2861C48.7054 48.5076 48.6267 48.7292 48.5368 48.9824C48.4693 49.1723 48.4448 49.3418 48.3773 49.5317C48.3548 49.595 48.3324 49.6583 48.2782 49.7104C48.2241 49.7625 48.1496 49.7716 48.0862 49.7491C48.0546 49.7379 47.9913 49.7154 47.928 49.6929Z" fill="#1E1F44"/>
<path d="M54.161 49.3045L53.9812 49.8109L52.0821 49.1365L52.2619 48.6301L54.161 49.3045Z" fill="#1E1F44"/>
<path d="M56.9165 51.2811C56.8265 51.5343 56.7254 51.8191 56.6988 52.0948C56.6967 52.201 56.6854 52.2327 56.8345 52.2143C56.9836 52.196 57.1327 52.1777 57.3134 52.1706C57.4196 52.1726 57.5483 52.1114 57.6658 52.0818C57.8148 52.0635 57.9639 52.0451 58.113 52.0268C58.2192 52.0289 58.3142 52.0626 58.355 52.1484C58.3958 52.2342 58.3733 52.2975 58.2988 52.3066C58.1068 52.3454 57.9465 52.3954 57.7862 52.4454C57.7433 52.4658 57.7433 52.4658 57.7116 52.4545C57.6054 52.4525 57.5084 52.5249 57.4226 52.5658C57.3143 52.6699 57.1857 52.7311 57.057 52.7924L57.0141 52.8128C56.8742 52.9057 56.7363 52.8923 56.576 52.9423C56.5015 52.9515 56.4382 52.929 56.4177 52.8861C56.2503 52.7554 56.1033 52.6675 55.9471 52.5051C55.843 52.3969 55.7818 52.2682 55.7634 52.1191C55.7267 51.8209 55.7962 51.5248 55.8974 51.24C55.9424 51.1134 55.9761 51.0184 55.9894 50.8805C56.0027 50.7427 56.0681 50.659 56.113 50.5324C56.2367 50.1842 56.392 49.8473 56.6106 49.5328C56.7526 49.3338 56.8833 49.1663 57.0253 48.9672C57.1448 48.8315 57.2531 48.7273 57.3409 48.5803C57.3951 48.5283 57.4492 48.4762 57.5033 48.4241C57.6432 48.3312 57.7628 48.1955 57.9118 48.1771L57.9547 48.1567C58.063 48.0526 58.2121 48.0342 58.3724 47.9843C58.6818 47.9159 59.1341 48.1478 59.2995 48.3848C59.3515 48.4389 59.3495 48.5451 59.3587 48.6196C59.3474 48.6513 59.3362 48.683 59.3249 48.7146C59.2708 48.7667 59.2279 48.7871 59.1758 48.7329C59.1442 48.7217 59.1238 48.6788 59.135 48.6472C59.0738 48.5185 58.9788 48.4848 58.8502 48.546C58.6153 48.6052 58.4212 48.7501 58.2588 48.9063C58.0964 49.0625 57.9657 49.2299 57.8237 49.429C57.6705 49.6597 57.5285 49.8588 57.4069 50.1008C57.2291 50.501 57.0514 50.9012 56.9165 51.2811Z" fill="#1E1F44"/>
<path d="M59.1327 53.6721C58.954 53.573 58.7754 53.4739 58.6508 53.3227C58.5784 53.2257 58.5171 53.097 58.4875 52.9796C58.4396 52.7131 58.4233 52.4578 58.45 52.1821C58.4878 51.8747 58.5369 51.5357 58.681 51.2305C58.7913 51.0202 58.8588 50.8302 59.0007 50.6312C59.154 50.4004 59.3072 50.1697 59.4808 49.9819C59.6432 49.8257 59.7627 49.6899 59.9456 49.5766C60.0313 49.5358 60.1284 49.4633 60.2141 49.4225C60.3428 49.3612 60.4694 49.4062 60.5419 49.5032C60.594 49.5574 60.5511 49.5778 60.5398 49.6094C60.5174 49.6727 60.4428 49.6819 60.4836 49.7677C60.504 49.8106 60.5674 49.8331 60.599 49.8443C60.7777 49.9434 60.8593 50.115 60.8981 50.3069C61.0072 50.7021 61.0418 51.1065 60.9703 51.5088C60.912 51.7733 60.8537 52.0377 60.7638 52.2909C60.6177 52.7024 60.4195 53.0597 60.1376 53.3517C59.9639 53.5396 59.7495 53.6416 59.535 53.7437C59.4921 53.7641 59.4492 53.7845 59.4176 53.7732C59.3339 53.7079 59.2389 53.6741 59.1327 53.6721ZM59.5785 51.5136C59.5448 51.6085 59.4681 51.7239 59.4661 51.8301C59.4415 51.9996 59.3537 52.1466 59.3291 52.3161C59.2954 52.411 59.2933 52.5172 59.2596 52.6122C59.2034 52.7705 59.2105 52.9512 59.1859 53.1207C59.1839 53.2269 59.2155 53.2381 59.2901 53.229C59.333 53.2085 59.4075 53.1994 59.4504 53.179C59.6649 53.0769 59.8273 52.9207 60.0009 52.7329C60.2512 52.4297 60.4698 52.1152 60.573 51.7242C60.6537 51.3964 60.6916 51.0891 60.7091 50.7388C60.702 50.5581 60.6948 50.3773 60.6765 50.2283C60.6469 50.1108 60.6061 50.025 60.5224 49.9597C60.4387 49.8943 60.407 49.8831 60.3304 49.9984C60.0352 50.4282 59.8125 50.9551 59.5785 51.5136Z" fill="#1E1F44"/>
<path d="M63.2344 54.1663L63.2456 54.1347C63.3692 53.7865 63.5358 53.4179 63.6911 53.081C63.8239 52.8074 63.9138 52.5542 64.0783 52.2918C64.1886 52.0815 64.2561 51.8916 64.3664 51.6812C64.4992 51.4076 64.6208 51.1656 64.7536 50.892C64.8639 50.6817 64.9743 50.4714 65.053 50.2498C65.1633 50.0395 65.2736 49.8292 65.3727 49.6505C65.3952 49.5872 65.4381 49.5668 65.4902 49.6209C65.6055 49.6975 65.6259 49.7404 65.5922 49.8354C65.5677 50.0049 65.4911 50.1203 65.4461 50.2469C65.2908 50.5838 65.1559 50.9636 65.0006 51.3005C64.8116 51.7324 64.6113 52.1959 64.4223 52.6278C64.3007 52.8698 64.2221 53.0914 64.1321 53.3446C63.9544 53.7448 63.7766 54.145 63.5672 54.534C63.5447 54.5973 63.4905 54.6494 63.4793 54.681C63.4139 54.7648 63.3394 54.7739 63.2444 54.7402C63.1495 54.7065 63.0974 54.6524 63.0678 54.5349C63.0087 54.3 62.9066 54.0856 62.8474 53.8507C62.7454 53.6363 62.7291 53.381 62.6587 53.1777C62.5679 52.9316 62.5087 52.6968 62.4925 52.4415C62.4741 52.2924 62.4445 52.175 62.415 52.0575C62.3945 52.0146 62.4058 51.983 62.417 51.9513C62.4395 51.888 62.4303 51.8135 62.3783 51.7594C62.3354 51.7798 62.3241 51.8114 62.3241 51.8114C62.2904 51.9064 62.2567 52.0013 62.2434 52.1392C62.1872 52.2974 62.1422 52.424 62.1177 52.5935C62.0727 52.7201 62.0594 52.858 62.0144 52.9846C61.9807 53.0795 61.947 53.1745 61.9133 53.2695C61.8458 53.4594 61.7784 53.6493 61.7426 53.8504C61.6864 54.0087 61.6414 54.1353 61.5536 54.2823C61.5311 54.3456 61.477 54.3977 61.3912 54.4385C61.3595 54.4273 61.3483 54.4589 61.3166 54.4477C61.19 54.4027 61.0022 54.2291 61.0043 54.1229C60.9655 53.9309 60.9901 53.7614 61.0146 53.5919C61.0729 53.3274 61.0995 53.0517 61.2007 52.7669C61.2814 52.4391 61.3509 52.143 61.4317 51.8153C61.49 51.5508 61.5799 51.2976 61.6494 51.0015C61.6852 50.8003 61.7639 50.5788 61.7997 50.3776C61.8355 50.1765 61.9029 49.9866 62.002 49.8079C62.0357 49.7129 62.1215 49.6721 62.2165 49.7058C62.5013 49.807 62.7749 49.9398 62.9403 50.1768C63.0128 50.2738 63.074 50.4025 63.0923 50.5516C63.1107 50.7006 63.1178 50.8814 63.1361 51.0305C63.1657 51.1479 63.1524 51.2858 63.1503 51.392C63.1391 51.4236 63.1595 51.4665 63.1799 51.5094C63.2207 51.5952 63.1554 51.6789 63.1645 51.7534C63.1737 51.828 63.2145 51.9138 63.1808 52.0087C63.1696 52.0404 63.1583 52.072 63.19 52.0833C63.2716 52.2548 63.2154 52.4131 63.2338 52.5622C63.2684 52.9665 63.2601 53.3913 63.2835 53.8273C63.1548 53.8886 63.1731 54.0377 63.2344 54.1663Z" fill="#1E1F44"/>
<path d="M67.7395 50.3128C67.8661 50.3577 68.0131 50.4456 68.106 50.5855C68.1377 50.5968 68.1264 50.6284 68.1581 50.6396C68.1785 50.6825 68.2101 50.6938 68.156 50.7458C68.1448 50.7775 68.0815 50.755 68.0815 50.755C67.8916 50.6876 67.6792 50.6834 67.4759 50.7538C67.0603 50.8201 66.6631 51.0355 66.3291 51.2733C66.1779 51.3978 66.0584 51.5336 65.9389 51.6694C65.8623 51.7848 65.8919 51.9022 65.9644 51.9992C66.0777 52.182 66.288 52.2924 66.4013 52.4752C66.6391 52.8091 66.7912 53.1839 66.74 53.6291C66.7134 53.9048 66.5918 54.1468 66.3753 54.355C66.2016 54.5429 66.028 54.7307 65.8656 54.8869C65.6062 55.1156 65.3672 55.3871 65.0873 55.5729C65.0444 55.5933 65.0015 55.6137 64.9586 55.6341C64.9158 55.6546 64.8616 55.7066 64.7667 55.6729C64.6717 55.6392 64.588 55.5738 64.5584 55.4564C64.538 55.4135 64.5492 55.3818 64.5717 55.3185C64.6371 55.2348 64.6912 55.1827 64.7454 55.1307C65.1018 54.8295 65.4378 54.4855 65.6993 54.1506C65.8301 53.9832 65.9496 53.8474 66.017 53.6575C66.1315 53.2348 66.1173 52.8733 65.8478 52.5281C65.7029 52.3341 65.5467 52.1717 65.3905 52.0093C65.3384 51.9551 65.318 51.9123 65.2976 51.8694C65.2568 51.7836 65.2476 51.709 65.2068 51.6232C65.1864 51.5804 65.1976 51.5487 65.2089 51.5171C65.2243 51.273 65.3346 51.0627 65.5286 50.9177C65.6798 50.7932 65.831 50.6687 66.0138 50.5554C66.1966 50.4421 66.4315 50.3829 66.6347 50.3125C66.795 50.2625 66.9757 50.2554 67.1248 50.2371C67.231 50.2391 67.3801 50.2208 67.4751 50.2545C67.57 50.2882 67.6446 50.2791 67.7395 50.3128Z" fill="#1E1F44"/>
<path d="M66.8785 55.2466C66.9592 54.9188 67.1033 54.6136 67.184 54.2858C67.2086 54.1163 67.2964 53.9693 67.3526 53.811C67.4088 53.6528 67.465 53.4945 67.4896 53.325C67.5008 53.2934 67.5121 53.2617 67.5233 53.2301C67.6561 52.9564 67.7256 52.6603 67.8268 52.3755C67.9617 51.9957 68.0966 51.6158 68.3264 51.2697C68.403 51.1544 68.4684 51.0707 68.5767 50.9665C68.642 50.8828 68.7911 50.8645 68.8748 50.9298C68.9065 50.9411 68.9698 50.9636 68.9902 51.0065C69.0739 51.0718 69.1147 51.1576 69.1127 51.2638C69.1085 51.4762 69.0615 51.709 68.9941 51.8989C68.9266 52.0888 68.8796 52.3216 68.8122 52.5115C68.7672 52.6381 68.7222 52.7648 68.666 52.923C68.6098 53.0813 68.5536 53.2395 68.4974 53.3978C68.4187 53.6194 68.3288 53.8726 68.2185 54.0829C68.2072 54.1145 68.2072 54.1145 68.196 54.1462C68.149 54.379 68.0386 54.5893 67.9599 54.8109C67.87 55.0641 67.7689 55.349 67.6473 55.5909C67.5798 55.7808 67.4695 55.9912 67.4021 56.1811C67.3683 56.276 67.3346 56.371 67.2263 56.4751C67.1722 56.5272 67.1181 56.5792 67.0231 56.5455C66.8332 56.4781 66.7199 56.2952 66.6812 56.1033C66.6924 56.0716 66.6924 56.0716 66.672 56.0287C66.7415 55.7326 66.8202 55.5111 66.8785 55.2466Z" fill="#1E1F44"/>
<path d="M69.3437 54.1261C69.2425 54.4109 69.1414 54.6958 69.0514 54.949C68.9166 55.3288 68.845 55.7311 68.7734 56.1334C68.7488 56.3029 68.7243 56.4724 68.7743 56.6328C68.8039 56.7502 68.8039 56.7502 68.9213 56.7206C69.2215 56.5777 69.3748 56.347 69.5709 56.0959C69.625 56.0438 69.6792 55.9917 69.67 55.9172C69.6608 55.8426 69.5659 55.8089 69.5138 55.7548C69.4617 55.7007 69.4322 55.5832 69.3688 55.5607C69.3372 55.5495 69.3801 55.5291 69.3913 55.4974C69.5292 55.5107 69.6783 55.4924 69.7732 55.5261C69.8682 55.5598 69.9744 55.5619 70.0581 55.6273C70.1734 55.7039 70.3113 55.7172 70.4379 55.7622C70.4696 55.7734 70.5329 55.7959 70.5533 55.8388C70.5737 55.8817 70.6053 55.8929 70.5941 55.9246C70.5716 55.9879 70.5287 56.0083 70.4858 56.0287C70.4113 56.0379 70.3367 56.047 70.3051 56.0358C70.2734 56.0246 70.2418 56.0133 70.2418 56.0133C70.1672 56.0225 70.0927 56.0317 70.0273 56.1154C69.9282 56.294 69.7975 56.4615 69.6351 56.6177C69.5156 56.7534 69.3532 56.9096 69.1704 57.0229C68.9334 57.1883 68.6894 57.1729 68.5015 56.9993C68.3025 56.8573 68.1892 56.6745 68.1729 56.4192C68.1658 56.2385 68.0954 56.0352 68.12 55.8657C68.1129 55.685 68.1058 55.5043 68.1303 55.3348C68.1415 55.3031 68.1211 55.2602 68.1324 55.2286C68.1436 55.1969 68.1232 55.154 68.1549 55.1653C68.2202 55.0815 68.2111 55.007 68.2019 54.9325C68.2131 54.9008 68.1927 54.8579 68.2152 54.7946C68.2755 54.424 68.3992 54.0758 68.5545 53.7389C68.6444 53.4856 68.7547 53.2753 68.908 53.0446C68.9846 52.9292 69.0408 52.771 69.1491 52.6668C69.2573 52.5627 69.3452 52.4157 69.5055 52.3657C69.6342 52.3045 69.72 52.2636 69.8691 52.2453C70.0181 52.227 70.1447 52.2719 70.2713 52.3169C70.5133 52.4384 70.7441 52.5917 70.9206 52.797C70.9411 52.8399 70.9931 52.894 71.0135 52.9369C71.0952 53.1085 71.2197 53.2596 71.2585 53.4516C71.3085 53.6119 71.3156 53.7927 71.2594 53.9509C71.2256 54.0459 71.1827 54.0663 71.1194 54.0438C70.9928 53.9988 70.9091 53.9335 70.8908 53.7844C70.852 53.5924 70.802 53.4321 70.7204 53.2605C70.6592 53.1318 70.5867 53.0348 70.5142 52.9378C70.3897 52.7866 70.2518 52.7733 70.1007 52.8978C69.9924 53.002 69.8841 53.1061 69.7646 53.2419C69.6226 53.441 69.4673 53.7779 69.3437 54.1261Z" fill="#1E1F44"/>
<path d="M73.1097 57.6734L73.1209 57.6417C73.2446 57.2936 73.4111 56.925 73.5664 56.5881C73.6992 56.3144 73.7891 56.0612 73.9536 55.7988C74.0639 55.5885 74.1314 55.3986 74.2417 55.1883C74.3745 54.9147 74.4961 54.6727 74.6289 54.3991C74.7393 54.1887 74.8496 53.9784 74.9283 53.7569C75.0386 53.5465 75.1489 53.3362 75.248 53.1576C75.2705 53.0942 75.3134 53.0738 75.3655 53.128C75.4808 53.2046 75.5013 53.2475 75.4675 53.3424C75.443 53.5119 75.3664 53.6273 75.3214 53.7539C75.1661 54.0908 75.0312 54.4706 74.8759 54.8076C74.6869 55.2395 74.4866 55.703 74.2976 56.1349C74.1761 56.3768 74.0974 56.5984 74.0074 56.8516C73.8297 57.2518 73.6519 57.6521 73.4425 58.0411C73.42 58.1044 73.3658 58.1564 73.3546 58.1881C73.2892 58.2718 73.2147 58.281 73.1197 58.2473C73.0248 58.2135 72.9727 58.1594 72.9431 58.042C72.884 57.8071 72.7819 57.5926 72.7228 57.3578C72.6207 57.1433 72.6044 56.888 72.534 56.6848C72.4432 56.4387 72.384 56.2038 72.3678 55.9485C72.3494 55.7994 72.3198 55.682 72.2903 55.5646C72.2699 55.5217 72.2811 55.49 72.2923 55.4584C72.3148 55.3951 72.3056 55.3205 72.2536 55.2664C72.2107 55.2868 72.1995 55.3185 72.1995 55.3185C72.1657 55.4134 72.132 55.5084 72.1187 55.6462C72.0625 55.8045 72.0175 55.9311 71.993 56.1006C71.948 56.2272 71.9347 56.365 71.8897 56.4916C71.856 56.5866 71.8223 56.6815 71.7886 56.7765C71.7211 56.9664 71.6537 57.1563 71.6179 57.3575C71.5617 57.5157 71.5167 57.6423 71.4289 57.7893C71.4064 57.8527 71.3523 57.9047 71.2665 57.9455C71.2348 57.9343 71.2236 57.9659 71.1919 57.9547C71.0653 57.9097 70.8775 57.7361 70.8796 57.6299C70.8408 57.4379 70.8654 57.2684 70.8899 57.0989C70.9482 56.8345 70.9748 56.5588 71.076 56.2739C71.1567 55.9462 71.2262 55.6501 71.307 55.3223C71.3653 55.0579 71.4552 54.8046 71.5247 54.5085C71.5605 54.3074 71.6392 54.0858 71.675 53.8847C71.7108 53.6835 71.7782 53.4936 71.8773 53.3149C71.911 53.22 71.9968 53.1792 72.0918 53.2129C72.3766 53.3141 72.6502 53.4469 72.8156 53.6838C72.8881 53.7808 72.9493 53.9095 72.9677 54.0586C72.986 54.2077 72.9931 54.3884 73.0114 54.5375C73.041 54.655 73.0277 54.7928 73.0256 54.899C73.0144 54.9306 73.0348 54.9735 73.0552 55.0164C73.096 55.1022 73.0307 55.1859 73.0398 55.2605C73.049 55.335 73.0898 55.4208 73.0561 55.5158C73.0449 55.5474 73.0336 55.5791 73.0653 55.5903C73.1469 55.7619 73.0907 55.9201 73.1091 56.0692C73.1437 56.4736 73.1354 56.8984 73.1588 57.3344C73.0301 57.3956 73.0484 57.5447 73.1097 57.6734Z" fill="#1E1F44"/>
<path d="M76.7049 54.1739C77.0215 54.2863 77.2747 54.3763 77.5708 54.4458C77.6657 54.4795 77.729 54.502 77.824 54.5357C77.8556 54.5469 77.9189 54.5694 77.8965 54.6327C77.874 54.696 77.8423 54.6848 77.779 54.6623C77.6095 54.6378 77.4604 54.6561 77.2909 54.6315C77.0469 54.6162 76.8366 54.5058 76.6038 54.4588C76.4343 54.4342 76.3485 54.4751 76.2606 54.6221C76.1728 54.7691 76.0737 54.9478 75.9858 55.0948C75.8734 55.4113 75.7294 55.7166 75.5853 56.0219C75.5291 56.1801 75.4842 56.3067 75.4392 56.4333C75.3942 56.5599 75.3942 56.5599 75.5321 56.5733C75.6587 56.6182 75.7536 56.6519 75.8802 56.6969C75.9435 56.7194 75.9956 56.7735 76.016 56.8164C76.0364 56.8593 76.0568 56.9022 75.9711 56.943C75.8853 56.9838 75.8107 56.993 75.7158 56.9593C75.6208 56.9256 75.483 56.9123 75.3768 56.9102C75.2818 56.8765 75.2706 56.9081 75.2369 57.0031C75.1807 57.1613 75.1245 57.3196 75.0795 57.4462C74.9671 57.7627 74.8434 58.1109 74.6994 58.4162C74.6881 58.4478 74.6769 58.4795 74.6769 58.4795C74.6544 58.5428 74.6861 58.554 74.7606 58.5448C74.7923 58.5561 74.8352 58.5357 74.8668 58.5469C75.1762 58.4786 75.5173 58.4215 75.838 58.3215C75.987 58.3031 76.1361 58.2848 76.2648 58.2236C76.3393 58.2144 76.3822 58.194 76.4231 58.2798C76.4435 58.3227 76.421 58.386 76.3669 58.438C76.3127 58.4901 76.1953 58.5197 76.1207 58.5288C75.9604 58.5788 75.8001 58.6288 75.6398 58.6788C75.4478 58.7176 75.2558 58.7563 75.0526 58.8267C74.9351 58.8563 74.7748 58.9063 74.6574 58.9359C74.5399 58.9655 74.4225 58.9951 74.3184 58.8868L74.2867 58.8755C74.0968 58.8081 74.0468 58.6478 74.0714 58.4783C74.1072 58.2771 74.1542 58.0443 74.19 57.8432C74.2932 57.4521 74.3852 57.0927 74.4885 56.7016C74.558 56.4055 74.6908 56.1319 74.7807 55.8787C74.8369 55.7204 74.936 55.5418 74.9922 55.3835C75.1475 55.0466 75.3028 54.7097 75.5214 54.3952C75.5868 54.3115 75.6634 54.1961 75.7604 54.1237C75.8687 54.0195 75.9861 53.9899 76.124 54.0033C76.1985 53.9941 76.2935 54.0278 76.3568 54.0503C76.515 54.1065 76.6416 54.1515 76.7049 54.1739Z" fill="#1E1F44"/>
<path d="M62.0499 126.777C62.3551 126.921 62.545 126.989 62.7237 127.088C62.69 127.183 62.6563 127.278 62.6134 127.298C62.3315 127.59 62.3285 127.197 62.1815 127.109C62.0303 127.234 61.8792 127.358 61.7076 127.44C60.9335 127.914 60.7956 127.9 60.2025 127.262C59.6819 126.721 59.0152 126.591 58.3596 126.429C58.0319 126.348 57.6725 126.256 57.3447 126.176C56.1511 125.823 54.9034 125.523 53.721 125.138C52.7919 124.844 51.829 124.645 50.8683 124.339C49.1886 123.849 47.5765 123.17 45.8948 122.787C44.1498 122.381 42.506 121.69 40.7947 121.189C40.1821 121.007 39.5582 120.857 38.9773 120.686C37.8786 120.368 36.8587 119.827 35.7488 119.54C34.935 119.322 34.1979 118.989 33.3616 118.835C32.9277 118.752 32.505 118.637 32.116 118.428C31.8536 118.264 31.5258 118.183 31.2185 118.145C30.4751 118.13 29.8799 117.598 29.1928 117.426C27.8389 117.123 26.5994 116.398 25.1576 116.242C24.9565 116.206 24.7891 116.075 24.5787 115.965C24.2418 115.81 23.8957 115.58 23.5567 115.531C22.9737 115.466 22.5101 115.266 21.9833 115.043C21.2145 114.699 20.367 114.576 19.5532 114.359C19.3 114.269 19.0376 114.104 18.7844 114.014C18.2147 113.812 17.6449 113.61 17.0752 113.407C16.1461 113.113 15.2486 112.83 14.3307 112.504C13.5394 112.223 12.8043 111.784 11.9252 111.65C11.4483 111.587 11.0206 111.186 10.5774 111.028C9.91276 110.792 9.27263 110.387 8.50264 110.648C8.47099 110.637 8.45975 110.668 8.42809 110.657C7.78796 110.252 7.04459 110.237 6.33701 110.022C5.9776 109.93 5.66316 109.711 5.32623 109.556C4.71568 109.268 4.5157 108.626 4.12168 108.13C4.04921 108.033 4.07376 107.863 4.04418 107.746C4.06784 107.077 3.84539 106.499 3.59128 105.91C3.28511 105.266 3.24547 104.575 3.31202 103.886C3.35906 103.653 3.37443 103.409 3.31527 103.174C3.23067 102.609 3.30432 102.101 3.42086 101.572C3.74388 100.261 3.97194 98.9163 4.23165 97.5828C4.28992 97.3183 4.37985 97.0651 4.46977 96.8119C4.7845 95.9257 4.96139 95.0261 5.37108 94.1736C5.68167 93.4997 5.80236 92.7584 6.11295 92.0846C6.52265 91.2321 6.69953 90.3325 7.03468 89.4891C7.23701 88.9194 7.4914 88.4038 7.78869 87.8678C8.05225 87.4268 8.48531 87.0102 8.41195 86.4139C9.03403 85.5655 9.14051 84.4627 9.67888 83.549C10.1069 82.8455 10.4083 82.0971 10.7731 81.3712C10.9059 81.0976 11.2623 80.7965 11.1807 80.6249C10.999 80.1327 11.5075 80.2063 11.5975 79.9531C11.7457 79.4354 11.9368 78.8974 12.1799 78.4134C12.5467 77.5813 12.7869 76.7042 13.3957 75.9937C13.6459 75.6905 13.7716 75.2361 13.9065 74.8563C14.1967 74.1395 14.4552 73.4116 14.7454 72.6948C15.2921 71.3563 15.9541 70.0943 16.4058 68.7221C16.8462 67.3815 17.5399 66.1308 17.8017 64.6911C17.9336 63.9181 18.3412 63.1718 18.6947 62.4775C19.0032 61.9099 19.0156 61.2727 19.2496 60.7142C19.5286 60.0291 19.7554 59.2899 20.014 58.5619C20.1264 58.2454 20.1122 57.8839 20.2562 57.5786C20.6118 56.7782 20.7141 55.8878 21.0697 55.0873C21.2812 54.5921 21.4723 54.054 21.6205 53.5364C21.8024 52.9238 21.9527 52.2999 22.3041 51.7118C22.4686 51.4494 22.4339 51.0451 22.5463 50.7286C22.996 49.4625 23.4139 48.1852 23.9902 46.9641C24.2895 46.3219 24.4194 45.6551 24.7504 45.0242C24.8832 44.7505 24.9527 44.4544 25.1917 44.1829C25.4307 43.9113 25.4186 43.4436 25.5422 43.0955C25.9898 41.9356 26.0259 40.6296 26.7266 39.5597C26.792 39.4759 26.7624 39.3585 26.7962 39.2635C26.971 38.4702 27.0621 37.6115 27.5013 36.8764C27.6658 36.614 27.6833 36.2637 27.6895 35.9452C27.8297 34.7474 28.4967 33.7724 28.8472 32.685C29.0404 32.0408 29.2019 31.3852 29.438 30.7206C29.5953 30.2774 29.816 29.8568 30.0163 29.3933C30.2165 28.9297 30.3647 28.4121 30.5333 27.9373C30.7244 27.3992 31.0105 26.8948 31.1066 26.323C31.1087 26.2168 31.1853 26.1015 31.2507 26.0178C32.0239 25.0448 32.2499 23.8063 32.8444 22.7343C33.1979 22.04 33.2666 21.2446 33.715 20.584C34.0102 20.1542 34.2534 19.6703 34.5169 19.2292C34.7376 18.8086 34.9266 18.3767 35.1473 17.9561C35.701 16.7982 36.1711 15.5751 36.9147 14.4847C37.548 13.6047 37.9506 12.5714 38.4053 11.5923C38.7046 10.9501 38.9203 10.2425 39.1563 9.57782C39.6397 8.21679 40.3966 6.98859 41.1536 5.76038C41.8115 4.71085 42.5735 3.76958 43.607 3.06732C44.372 2.51918 45.1787 2.55615 46.0282 2.57271C46.1028 2.56354 46.1957 2.70346 46.259 2.72594C46.6796 2.94661 47.0553 3.29388 47.4892 3.37671C48.4633 3.54442 49.3046 3.98577 50.1347 4.45876C50.198 4.48124 50.2817 4.54661 50.3562 4.53744C51.7439 4.74509 52.9088 5.47958 54.1636 5.96085C55.0703 6.31848 56.0198 6.65569 56.9265 7.01332C57.4962 7.21565 58.0322 7.51293 58.6132 7.68361C59.9017 8.06993 61.1361 8.50831 62.3797 9.02123C62.8545 9.18984 63.3068 9.42175 63.7703 9.62201C64.0552 9.72318 64.3084 9.8131 64.5933 9.91427C64.7515 9.97047 64.9435 9.93172 65.0476 10.04C65.7878 10.7662 66.8293 10.744 67.6818 11.1537C68.4915 11.5838 69.4543 11.7832 70.3293 12.1295C71.236 12.4872 72.1631 12.8877 73.0697 13.2453C74.1663 13.6704 75.2628 14.0955 76.3594 14.5205C77.8675 15.0917 79.3438 15.6517 80.8631 16.1912C81.6861 16.4835 82.5203 16.7441 83.3749 17.0476C84.1345 17.3173 84.84 17.6392 85.5996 17.909C86.6329 18.3115 87.7091 18.6937 88.7536 19.0647C89.8614 19.4581 90.9692 19.8515 92.077 20.2449C92.8999 20.5372 93.777 20.7774 94.5887 21.1013C95.9385 21.6163 97.277 22.1629 98.6043 22.7412C98.9729 22.9077 99.2874 23.1263 99.7284 23.3899C99.374 23.5848 99.3382 23.786 99.332 24.1046C99.4388 25.7108 99.419 27.2721 98.9632 28.8568C98.7813 29.4694 98.8526 30.1719 98.6911 30.8274C98.505 31.6525 98.1923 32.4325 97.943 33.235C97.5904 34.4286 97.2807 35.6018 96.8964 36.7842C96.7707 37.2385 96.5388 37.6908 96.3814 38.134C96.269 38.4505 96.1454 38.7986 96.0013 39.1039C95.7428 39.8319 95.4639 40.517 95.237 41.2562C94.9335 42.1108 94.6504 43.0083 94.3786 43.8741C94.3224 44.0324 94.3295 44.2131 94.2528 44.3285C93.7328 45.3914 93.2128 46.4542 92.7244 47.5283C92.4813 48.0122 92.2269 48.5278 92.0787 49.0455C91.8477 49.9971 91.4063 50.8384 90.9966 51.6909C90.8301 52.0595 90.6952 52.4393 90.6349 52.81C90.5387 53.3818 90.3589 53.8882 89.9891 54.3272C89.8471 54.5263 89.7368 54.7366 89.6265 54.9469C89.1626 55.8515 88.7621 56.7786 88.3095 57.6515C87.8682 58.4928 87.3952 59.3228 86.9539 60.1641C86.6116 60.8267 86.3327 61.5118 86.0017 62.1428C85.6931 62.7105 85.2897 63.2444 84.9178 63.7896C84.8187 63.9682 84.688 64.1357 84.6093 64.3572C83.8553 65.9786 83.1217 67.6428 82.336 69.2529C82.0367 69.8951 81.6424 70.5036 81.3114 71.1345C80.8363 72.0708 80.3408 72.9641 79.8974 73.9116C79.2333 75.2797 78.6009 76.6591 77.9481 77.9956C77.3065 79.3004 76.6332 80.594 75.9916 81.8988C75.726 82.446 75.5441 83.0587 75.3305 83.66C75.2968 83.755 75.2314 83.8387 75.166 83.9224C74.643 84.5921 74.3937 85.3947 74.1239 86.1543C73.8429 86.9456 73.4873 87.7461 73.2696 88.5598C72.9845 89.5635 72.3399 90.4752 72.1814 91.5239C72.119 92.0007 71.8125 92.4622 71.6122 92.9257C71.4794 93.1993 71.3354 93.5046 71.2659 93.8007C70.9653 95.0484 70.4116 96.2062 69.8895 97.3753C69.3112 98.7026 68.8166 100.095 68.3016 101.445C67.9777 102.257 67.6426 103.1 67.3186 103.912C67.2962 103.975 67.2849 104.007 67.2624 104.07C66.8291 105.591 66.4274 107.124 65.9624 108.634C65.7355 109.373 65.3504 110.056 65.1031 110.753C64.6626 112.093 64.2538 113.445 63.8134 114.786C63.6785 115.166 63.512 115.534 63.4087 115.925C63.2381 116.506 63.099 117.098 63.0233 117.713C62.9322 118.572 62.5654 119.404 62.3998 120.272C62.2116 121.203 62.0123 122.166 61.962 123.11C61.9271 123.811 62.0504 124.568 62.1963 125.261C62.3667 125.785 62.39 126.221 62.0499 126.777ZM59.4405 124.389C59.4875 124.156 59.5213 124.061 59.5233 123.955C59.5204 123.562 59.4858 123.158 59.5461 122.787C59.8283 121.39 60.1738 120.016 60.4243 118.608C60.6033 117.602 60.624 116.54 61.0153 115.539C61.328 114.759 61.6203 113.936 61.9013 113.144C62.8005 110.612 63.6569 108.1 64.5561 105.568C65.1294 103.954 65.8088 102.342 66.2555 100.683C66.6102 99.383 67.3334 98.2497 67.5819 96.9478C67.6514 96.6517 67.773 96.4098 67.8741 96.1249C68.2338 95.112 68.7834 94.1666 68.9645 93.0547C69.0627 92.3767 69.4253 91.757 69.6501 91.1239C69.9311 90.3326 70.1917 89.4985 70.4728 88.7072C70.7538 87.9159 71.0144 87.0817 71.2954 86.2904C71.5427 85.5941 71.7583 84.8865 72.0373 84.2014C72.4378 83.2743 72.8699 82.3585 73.2705 81.4314C73.626 80.631 73.9387 79.8509 74.2942 79.0504C74.6273 78.3133 75.1074 77.664 75.3772 76.9043C75.6582 76.113 76.1904 75.5179 76.4826 74.6949C76.8331 73.6075 77.3532 72.5447 77.9661 71.6218C78.8088 70.3527 79.1676 68.8406 80.0737 67.594C80.7182 66.6823 80.9963 65.4979 81.4734 64.4555C81.9168 63.508 82.4665 62.5626 82.9415 61.6263C83.5157 60.5114 84.1102 59.4394 84.716 58.3357C85.1574 57.4945 85.662 56.6756 86.1146 55.8027C86.7654 54.5724 87.4274 53.3105 88.0149 52.0578C88.4583 51.1103 88.7751 50.1178 89.144 49.1795C89.2901 48.7681 89.3617 48.3657 89.5394 47.9655C90.604 45.6703 91.5737 43.3414 92.3218 40.9338C92.4679 40.5223 92.7202 40.1129 92.8664 39.7015C93.3701 38.3833 93.8739 37.0652 94.346 35.7358C94.3684 35.6725 94.4022 35.5776 94.4246 35.5143C94.6302 34.2328 95.184 33.075 95.5682 31.8927C95.7614 31.2484 96.0607 30.6062 96.1906 29.9394C96.345 29.1032 96.6577 28.3231 96.8641 27.541C97.1718 26.474 97.3844 25.3733 97.64 24.2522C97.3868 24.1623 97.1652 24.0836 96.9437 24.0049C96.1095 23.7443 95.2641 23.5154 94.4411 23.2231C93.3017 22.8184 92.1939 22.425 91.0656 21.9887C90.6225 21.8314 90.1477 21.6627 89.7158 21.4737C89.1778 21.2826 88.6938 21.0395 88.1557 20.8484C87.2266 20.5541 86.3179 20.3026 85.4 19.9767C84.2493 19.6037 83.1527 19.1786 82.0133 18.7739C81.5701 18.6166 81.1474 18.5021 80.7043 18.3447C79.7435 18.0392 78.7827 17.7336 77.7903 17.4168C77.4738 17.3044 77.1481 17.1174 76.8315 17.005C75.9453 16.6903 75.0703 16.3439 74.1616 16.0925C73.7389 15.978 73.3366 15.9064 72.9588 15.6653C72.8118 15.5775 72.6331 15.4784 72.432 15.4426C71.2792 15.1758 70.1601 14.814 69.0636 14.3889C68.4101 14.1212 67.7097 14.0863 67.0562 13.8186C64.6303 12.9215 62.1369 12.2142 59.6547 11.4753C59.1054 11.3159 58.5132 11.1768 57.9976 10.9224C57.577 10.7018 57.1655 10.5556 56.7428 10.4412C56.0669 10.2368 55.3256 10.1161 54.6721 9.84837C53.5439 9.41206 52.4044 9.0074 51.1996 8.68646C49.8049 8.29807 48.4572 7.67688 47.0624 7.28849C46.2486 7.07078 45.4798 6.72647 44.6252 6.42297C44.375 6.72618 44.1247 7.02938 43.949 7.32342C43.4985 8.09016 43.1429 8.89062 42.672 9.61447C41.8293 10.8835 41.4817 12.364 40.8289 13.7005C40.365 14.6051 39.9012 15.5097 39.4803 16.3939C39.1156 17.1198 38.7937 17.8253 38.4923 18.5737C38.2358 19.1955 38.0314 19.8714 37.775 20.4932C37.1201 21.9359 36.4447 23.3356 35.8327 24.7579C35.6774 25.0948 35.7325 25.5421 35.5047 25.782C34.95 26.4405 34.9447 27.2584 34.6229 27.9639C34.0129 29.2799 33.6991 30.6655 33.132 31.9612C32.6437 33.0352 32.239 34.1747 31.8139 35.2713C31.6791 35.6511 31.3838 36.0809 31.4838 36.4016C31.6797 37.2553 31.1883 37.9362 31.036 38.6663C30.6884 40.1468 30.0652 41.6007 29.591 43.0363C29.2854 43.9971 29.0115 44.9691 28.6743 45.9187C28.4382 46.5833 28.1185 47.1827 27.8508 47.8361C27.5156 48.6794 27.1692 49.5545 26.8658 50.409C26.596 51.1687 26.3579 51.9396 26.0881 52.6992C25.7171 53.7437 25.1675 54.6891 24.9549 55.7898C24.8025 56.5199 24.5236 57.205 24.3079 57.9126C24.1035 58.5885 23.7613 59.2511 23.6519 59.9608C23.3992 61.475 22.5024 62.7961 22.3243 64.3012C22.3018 64.3645 22.2906 64.3961 22.2681 64.4594C21.4886 65.7509 21.4055 67.2897 20.6894 68.6037C20.3042 69.2868 20.2131 70.1455 19.8484 70.8714C19.4162 71.7872 19.3843 72.8808 18.6356 73.6843C18.5815 73.7363 18.5794 73.8425 18.5569 73.9058C18.42 74.3919 18.2514 74.8666 18.1461 75.3639C18.0203 75.8182 17.863 76.2614 17.579 76.6595C17.437 76.8586 17.2001 77.024 17.1959 77.2364C17.1989 77.6295 16.8016 77.8448 16.8067 78.1318C16.8096 78.5249 16.5818 78.7648 16.4174 79.0272C15.8903 79.9093 15.6796 80.9038 15.2271 81.7767C14.9073 82.3761 14.6712 83.0408 14.3515 83.6401C14.2187 83.9137 13.8959 84.1199 13.7948 84.4047C13.5475 85.1011 13.2481 85.7433 12.7905 86.3293C12.6598 86.4967 12.5811 86.7183 12.5024 86.9398C12.4012 87.2247 12.3838 87.5749 12.2193 87.8373C11.6789 88.8573 11.118 89.8343 10.6092 90.8655C10.267 91.5281 9.98806 92.2132 9.70911 92.8983C9.49761 93.3935 9.33818 93.9428 9.14709 94.4809C9.00096 94.8924 8.81194 95.3243 8.80366 95.7491C8.73504 96.5445 8.77262 97.342 8.73564 98.1487C8.72234 98.2865 8.70902 98.4244 8.63241 98.5397C8.35968 98.9062 8.43718 99.2902 8.57799 99.6966C8.64839 99.8998 8.66467 100.155 8.68094 100.41C8.71023 101.633 8.83655 102.783 9.43054 103.92C10.0562 105.069 10.8463 105.956 11.808 106.761C11.9438 106.88 12.1878 106.895 12.389 106.931C12.7167 107.012 13.164 106.957 13.3835 107.142C14.1573 107.773 15.156 107.771 16.0514 108.161C17.2725 108.737 18.5948 109.028 19.8925 109.489C20.4939 109.703 21.0728 109.979 21.6966 110.13C22.3001 110.237 22.8698 110.439 23.4283 110.673C23.7765 110.797 24.1021 110.984 24.4503 111.108C24.9567 111.288 25.454 111.393 25.9492 111.604C27.0253 111.986 28.0678 112.464 29.1664 112.782C29.874 112.998 30.5612 113.171 31.2013 113.576C31.3167 113.653 31.5178 113.689 31.6557 113.702C32.4082 113.791 33.0708 114.133 33.7109 114.539C33.8896 114.638 34.0908 114.674 34.2807 114.741C35.1486 114.907 35.9624 115.125 36.772 115.555C37.4663 115.908 38.183 116.198 38.9222 116.425C39.9147 116.742 40.9317 116.889 41.8229 117.491C41.97 117.579 42.1711 117.615 42.361 117.682C43.1319 117.92 43.9365 118.063 44.6308 118.417C45.2413 118.705 45.8202 118.982 46.487 119.112C46.6565 119.136 46.7831 119.181 46.9413 119.238C48.3115 119.795 49.6388 120.374 51.0203 120.9C52.3067 121.392 53.6157 121.822 54.8909 122.346C56.0712 122.836 57.229 123.39 58.4093 123.88C58.7442 124.142 59.0607 124.254 59.4405 124.389Z" fill="#1E1F44"/>
<path d="M38.242 87.7066C38.707 86.1965 39.1811 84.7609 39.6349 83.2824C39.7361 82.9976 39.7739 82.6902 39.9272 82.4595C40.0916 82.1971 40.3623 81.9368 40.6288 81.8889C40.8208 81.8501 41.0903 82.1953 41.3414 82.3915C41.5017 82.3415 41.7703 82.1873 42.0573 82.1823C43.0243 82.1693 43.4612 82.6452 43.3976 83.7276C43.6937 83.7971 43.9898 83.8666 44.2634 83.9995C44.5371 84.1323 44.8199 84.3396 45.1772 84.5378C45.2671 84.2846 45.3887 84.0426 45.4357 83.8098C45.586 83.186 45.7679 82.5733 45.8865 81.9382C45.9918 81.441 46.337 81.1715 46.7577 81.3922C47.115 81.5904 47.4928 81.8314 47.8501 82.0296C48.1758 82.2166 48.287 82.5056 48.1634 82.8538C48.051 83.1703 47.9815 83.4664 47.869 83.7829C47.5768 84.6058 47.5339 84.6262 46.7568 84.7067C46.4504 85.1682 46.1664 85.5663 45.8712 85.9962C45.7833 86.1432 45.7067 86.2585 45.6505 86.4168C45.3695 87.2081 45.0772 88.031 44.7962 88.8223C44.5939 89.392 44.2303 89.5124 43.6831 89.2468C43.2941 89.0374 42.8714 88.9229 42.4058 88.8288C42.1413 88.7706 42.0106 88.938 41.9094 89.2229C41.5926 90.2153 41.3391 91.2302 41.2551 92.2697C41.2285 92.5454 41.1702 92.8098 41.0803 93.063C40.8218 93.791 40.4562 94.0176 39.7394 93.7274C38.9594 93.4148 38.1701 93.0276 37.3697 92.672C37.2481 92.914 37.1469 93.1989 37.0029 93.5041C37.4652 94.3099 38.4988 93.6076 39.0244 94.4359C38.9549 94.732 38.9038 95.1772 38.7984 95.6745C39.3049 95.8543 39.7797 96.0229 40.3494 96.2253C40.7756 94.5232 41.8757 93.1317 42.2183 91.3642C43.3415 91.5136 44.1061 92.0703 44.7267 92.9323C44.112 92.8566 43.4861 92.8125 42.9347 92.7592C42.4177 94.2152 41.9231 95.6079 41.4397 96.9689C41.2262 97.5703 40.9259 97.7132 40.345 97.5425C39.764 97.3718 39.1718 97.2328 38.5796 97.0938C38.3293 97.397 38.1607 97.8717 37.84 97.9717C37.5194 98.0717 37.0783 97.8081 36.624 97.6824C36.4799 97.9877 36.3563 98.3359 36.1897 98.7045C36.0682 98.9464 35.9782 99.1996 35.6076 99.1393C35.2369 99.0789 35.2748 98.7716 35.2269 98.5051C35.1881 98.3131 35.2239 98.112 35.2801 97.9537C35.5948 97.0674 35.6676 96.0596 36.2356 95.2633C36.2897 95.2112 36.2601 95.0938 36.2847 94.9243C35.8415 94.7669 35.3872 94.6412 34.9553 94.4522C34.3968 94.2182 34.3989 94.112 34.7411 93.4494C34.9535 93.4536 35.1659 93.4577 35.3671 93.4935C36.1941 93.5733 36.1941 93.5734 36.4435 92.7708C36.5222 92.5493 36.6009 92.3277 36.6479 92.0949C36.8044 91.1525 37.4028 90.9729 38.1533 91.1681C38.6189 91.2622 39.0732 91.3879 39.5909 91.5361C39.7166 91.0817 39.8198 90.6907 39.9139 90.2251C38.9348 89.7704 37.8841 89.7181 36.8425 89.7403C36.6964 90.1517 36.5503 90.5632 36.4041 90.9747C36.3255 91.1962 36.2468 91.4178 36.1364 91.6281C35.9495 91.9538 35.4144 92.1558 35.0887 91.9689C34.763 91.7819 34.5997 91.4388 34.6917 91.0794C34.8174 90.625 35.0064 90.1932 35.2067 89.7296C35.2629 89.5714 35.362 89.3927 35.4723 89.1824C34.8189 88.9147 34.7434 88.4245 34.957 87.8231C35.1818 87.1901 35.6986 86.839 36.397 86.9801C37.0996 86.9088 37.5518 87.1407 38.242 87.7066ZM40.0763 86.255C41.3065 86.9058 42.7412 86.8806 43.8479 87.8796C44.0839 87.2149 44.275 86.6768 44.4998 86.0438C44.3507 86.0621 44.2129 86.0488 44.0954 86.0784C43.3275 86.2334 42.1585 85.7113 41.7349 85.0975C41.4562 84.6778 41.103 84.2672 40.7611 83.8249C40.2881 84.655 39.9979 85.3717 40.0763 86.255Z" fill="#1E1F44"/>
<path d="M32.9671 90.7165C32.3658 90.5029 31.8277 90.3118 31.2579 90.1095C31.0997 90.0533 30.8781 89.9746 30.774 89.8663C30.6607 89.6835 30.5066 89.4149 30.5628 89.2567C30.619 89.0984 30.908 88.9872 31.0908 88.8739C31.2195 88.8126 31.389 88.8372 31.6443 88.8209C31.7117 88.631 31.7587 88.3982 31.8262 88.2083C30.7929 87.8057 29.8025 87.3827 28.7376 86.9689C28.5803 87.412 28.4679 87.7285 28.3555 88.045C28.2993 88.2033 28.2002 88.382 28.049 88.5065C27.8549 88.6515 27.5609 88.4757 27.5967 88.2746C27.8573 87.4404 27.686 86.4172 28.5276 85.7537C29.1606 85.9785 29.8253 86.2146 30.49 86.4506C30.5687 86.229 30.6361 86.0391 30.7148 85.8176C30.2513 85.6173 29.7877 85.4171 29.3242 85.2168C28.6708 84.9491 28.4871 84.5631 28.7435 83.9413C29.1103 83.1092 29.5404 82.2995 29.9705 81.4899C30.1912 81.0692 30.5435 80.9805 31.0499 81.1603C32.1782 81.5967 33.3176 82.0013 34.4142 82.4264C34.6357 82.5051 34.891 82.4888 35.1238 82.5358C35.7906 82.6657 36.0601 83.0109 35.8669 83.6552C35.5838 84.5526 35.2262 85.4593 34.9002 86.3772C34.5183 86.3485 34.0731 86.2973 33.6167 86.2778C33.2907 87.1957 32.9648 88.1136 32.6051 89.1265C32.8787 89.2593 33.1207 89.3809 33.3626 89.5025C33.7516 89.7119 34.2264 89.8805 34.2048 90.4431C34.1607 91.0691 33.9788 91.6817 33.4508 92.0645C33.1281 92.2706 32.7391 92.0612 32.6728 91.6456C32.6432 91.5282 32.6678 91.3587 32.7015 91.2637C32.8435 91.0646 32.8885 90.938 32.9671 90.7165ZM31.4091 82.3572C31.2721 82.8432 31.1576 83.2659 31.0544 83.657C31.2964 83.7786 31.475 83.8776 31.6537 83.9767C31.6854 83.988 31.6966 83.9563 31.8028 83.9584C31.9489 83.5469 32.1175 83.0721 32.2974 82.5657C32.0013 82.4962 31.7368 82.4379 31.4091 82.3572ZM31.8096 85.244C31.6655 85.5493 31.5644 85.8341 31.4203 86.1394C31.7277 86.1773 31.9288 86.2131 32.1616 86.2601C32.2515 86.0069 32.3302 85.7853 32.4202 85.5321C32.2415 85.433 32.0832 85.3768 31.8096 85.244Z" fill="#1E1F44"/>
<path d="M43.598 98.5195C43.9352 97.57 44.2724 96.6204 44.6096 95.6709C44.8232 95.0695 44.9315 94.9654 45.4808 95.1248C46.8643 95.5448 48.259 95.9332 49.6201 96.4166C50.4747 96.7201 50.543 97.0295 50.2395 97.8841C50.1046 98.2639 49.9605 98.5692 49.6674 98.8928C49.3967 99.1531 49.3343 99.63 49.1882 100.041C49.0175 100.622 48.8356 101.235 48.6649 101.816C48.4493 102.524 48.1807 102.678 47.419 102.514C46.3295 102.27 45.2513 101.994 44.173 101.718C43.9086 101.66 43.6666 101.538 43.4359 101.385C42.9428 101.067 42.8111 100.735 43.0135 100.165C43.1729 99.6161 43.3956 99.0893 43.598 98.5195ZM44.0979 100.123C45.4007 100.871 46.6647 101.426 48.1135 101.763C48.5427 100.454 49.3405 99.3114 49.0826 97.8297C47.8073 97.3055 46.4892 96.8017 45.1507 96.2551C44.796 97.5549 44.4638 98.7914 44.0979 100.123Z" fill="#1E1F44"/>
<path d="M33.0688 72.9664C33.3966 73.0472 33.7151 73.0534 33.9684 73.1433C35.2528 73.742 36.5484 74.3091 37.8103 74.9711C38.5046 75.3246 38.5709 75.7402 38.3123 76.4682C37.9751 77.4177 37.7328 78.401 37.4273 79.3618C37.3016 79.8162 37.1125 80.248 36.9439 80.7228C36.8091 81.1026 36.4996 81.171 36.1719 81.0902C34.5556 80.6232 32.9505 80.1244 31.3342 79.6574C30.9432 79.5541 30.8319 79.2651 30.9239 78.9057C31.0067 78.4718 31.1641 78.0286 31.2786 77.6059C31.6282 76.0192 32.2627 74.5336 33.0688 72.9664ZM36.2384 80.401C36.7821 78.6693 37.2604 77.0213 37.7592 75.4163C37.0628 75.169 36.4298 74.9442 35.7968 74.7194C35.1321 74.4833 34.4766 74.3218 33.7373 74.0949C33.1865 75.6459 32.647 77.1652 32.0962 78.7161C33.4981 79.2852 34.8049 79.8206 36.2384 80.401Z" fill="#1E1F44"/>
<path d="M41.8869 81.6584C41.983 81.0866 42.0679 80.5465 42.1865 79.9114C42.0079 79.8123 41.7771 79.659 41.5148 79.4946C41.4157 79.6732 41.3278 79.8203 41.2512 79.9356C40.6791 80.9443 40.049 81.1126 39.0199 80.4977C38.3685 80.1238 38.3289 79.4325 38.9723 79.1263C39.1867 79.0242 39.4737 79.0192 39.7494 79.0458C39.9301 79.0387 40.0975 79.1695 40.3191 79.2482C40.4069 79.1011 40.4631 78.9429 40.5622 78.7642C40.3519 78.6539 40.1733 78.5548 40.0058 78.424C39.87 78.3045 39.6934 78.0992 39.6863 77.9185C39.6813 77.6316 39.9295 77.4346 40.2164 77.4295C40.4717 77.4133 40.7045 77.4603 40.9486 77.4757C41.1672 77.1612 41.3654 76.8039 41.584 76.4894C42.0833 76.4886 42.1833 76.8092 42.1342 77.1482C42.0851 77.4872 41.9727 77.8037 41.849 78.1519C41.7928 78.3101 41.757 78.5113 41.6896 78.7012C42.2481 78.9352 42.7474 78.9343 43.16 78.4749C43.4644 78.1196 43.7943 78.0942 44.2261 78.2832C45.1328 78.6408 46.0936 78.9464 47.1381 79.3173C47.2372 79.1387 47.3904 78.9079 47.5436 78.6772C47.609 78.5935 47.7806 78.5118 47.8755 78.5456C48.0021 78.5905 48.1583 78.7529 48.1563 78.8591C48.2092 79.4126 47.9661 79.8965 47.5984 80.2293C47.3931 80.4059 46.8846 80.3323 46.5568 80.2515C45.7002 80.0542 44.8547 79.8253 43.9777 79.5851C43.8295 80.1027 43.7038 80.5571 43.578 81.0115C43.5556 81.0748 43.5535 81.181 43.531 81.2443C43.2929 82.0151 42.8119 82.1651 41.8869 81.6584Z" fill="#1E1F44"/>
<path d="M48.5347 84.5182C49.0538 82.9561 49.53 81.4143 50.0583 79.9267C50.2719 79.3253 50.5384 79.2774 51.1398 79.491C52.3109 79.9069 53.5137 80.334 54.6848 80.7499C54.843 80.8061 54.9921 80.7878 55.1729 80.7807C55.7784 80.7818 55.9121 81.0075 55.7098 81.5773C55.4512 82.3053 55.1611 83.022 54.9025 83.75C54.6328 84.5096 54.363 85.2693 54.0616 86.0177C53.9154 86.4291 53.6468 86.5832 53.267 86.4484C51.9897 86.0304 50.7236 85.5808 49.5005 85.1107C49.1523 84.9871 48.9124 84.7593 48.5347 84.5182ZM54.749 81.2717C53.3655 80.8517 52.1402 80.4878 50.8833 80.1127C50.4858 81.4329 50.1107 82.6898 49.7244 83.9784C50.9588 84.4168 52.1299 84.8327 53.3327 85.2598C53.8048 83.9304 54.2769 82.6011 54.749 81.2717Z" fill="#1E1F44"/>
<path d="M31.9327 90.9194C32.2622 91.9988 31.8209 92.8401 31.4316 93.7355C31.1639 94.3889 30.9912 95.0761 30.7031 95.6867C30.1248 97.014 30.0206 96.9057 28.9578 96.3857C28.2635 96.0322 27.6009 95.6899 26.8392 95.5263C26.6697 95.5018 26.5023 95.371 26.3236 95.272C26.4585 94.8921 26.6638 94.7155 26.9895 94.9025C27.2947 95.0465 27.7216 94.9486 27.8083 95.4071C27.8287 95.45 27.8807 95.5042 27.9236 95.4837C28.5241 95.198 29.0335 95.771 29.7156 95.6568C30.2102 94.2641 30.7161 92.8398 31.2444 91.3522C30.1141 91.022 28.995 90.6603 27.7381 90.2852C27.219 91.8474 26.32 93.2747 25.9796 94.9359C25.3516 94.998 25.2158 94.8785 25.3977 94.2659C25.6696 93.4001 25.9414 92.5342 26.2449 91.6796C26.4697 91.0466 26.7058 90.3819 26.9939 89.7714C27.282 89.1608 27.3565 89.1517 27.9804 89.3019C29.4497 89.6811 30.7341 90.2798 31.9327 90.9194Z" fill="#1E1F44"/>
<path d="M47.9688 89.0222C47.6819 89.0273 47.3949 89.0323 47.1621 88.9853C46.8977 88.927 46.5699 88.8462 46.3821 88.6726C46.0064 88.3253 46.1803 87.0326 46.5705 86.6365C46.7554 86.4171 46.8882 86.1434 47.0414 85.9127C47.1293 85.7657 47.2804 85.6411 47.3999 85.5054C47.4632 85.5278 47.5265 85.5503 47.5898 85.5728C47.5949 85.8597 47.6112 86.115 47.6162 86.402C47.9735 86.6001 48.3625 86.8096 48.7832 87.0303C49.1825 86.7087 49.6593 86.7711 50.13 87.1521C50.1167 87.29 50.1758 87.5248 50.088 87.6719C49.5966 88.3528 49.623 89.182 49.2583 89.9079C49.1592 90.0866 49.1346 90.2561 49.0355 90.4347C48.8823 90.6655 48.7586 91.0136 48.3788 90.8787C48.0623 90.7663 47.7591 90.5161 47.799 90.1025C47.8277 89.7206 47.8972 89.4245 47.9688 89.0222Z" fill="#1E1F44"/>
<path d="M33.5558 92.6721C33.3402 93.3796 33.1674 94.0668 32.9518 94.7744C33.1417 94.8418 33.3428 94.8776 33.5011 94.9338C34.1137 95.1157 34.3607 95.5242 34.2105 96.1481C34.1072 96.5391 34.004 96.9302 33.8691 97.31C33.8129 97.4683 33.7251 97.6153 33.6168 97.7194C33.4769 97.8123 33.2532 97.8398 33.1154 97.8265C33.0204 97.7928 32.9184 97.5783 32.9317 97.4405C32.9267 97.1535 32.9329 96.835 32.9911 96.5705C33.0944 96.1794 32.8953 96.0375 32.4951 95.8597C32.1978 96.3957 31.8893 96.9633 31.6032 97.4677C30.9048 97.3266 30.7711 97.1009 30.8785 96.4975C30.948 96.2013 31.0287 95.8736 31.1412 95.5571C31.4875 94.6821 31.8023 93.7958 32.2007 92.975C32.543 92.3124 32.6808 92.3257 33.5558 92.6721Z" fill="#1E1F44"/>
<path d="M49.1609 91.0852C49.4041 90.6013 49.6268 90.0744 49.8812 89.5588C50.0365 89.2219 50.3051 89.0678 50.6441 89.1169C50.9514 89.1548 51.2271 89.1814 51.5232 89.2509C52.2829 89.5207 52.5432 89.7913 52.4746 90.5868C52.3835 91.4455 52.2291 92.2817 52.043 93.1068C51.9827 93.4774 51.6937 93.5886 51.2689 93.5803C50.4193 93.5638 49.7138 93.242 49.1074 92.7415C48.9716 92.6219 48.8716 92.3013 48.8962 92.1318C48.9024 91.8132 49.0577 91.4763 49.1609 91.0852ZM51.2109 92.74C51.4082 91.8833 51.5922 91.1645 51.7874 90.414C51.236 90.3608 50.8021 90.2779 50.3569 90.2268C50.2445 90.5433 50.1433 90.8281 50.0421 91.113C49.941 91.3979 49.8602 91.7256 49.7907 92.0217C50.0327 92.1433 50.243 92.2537 50.4646 92.3323C50.6749 92.4427 50.8852 92.553 51.2109 92.74Z" fill="#1E1F44"/>
<path d="M26.8774 94.1141C27.1471 93.3545 27.3853 92.5836 27.6867 91.8352C27.9094 91.3084 28.1443 91.2492 28.6936 91.4087C29.0101 91.5211 29.3062 91.5906 29.6227 91.703C30.1292 91.8828 30.2854 92.0452 30.1913 92.5108C30.0614 93.1776 29.8571 93.8535 29.621 94.5182C29.4974 94.8664 29.2921 95.043 28.8694 94.9285C28.2138 94.767 27.5134 94.7321 26.8774 94.1141Z" fill="#1E1F44"/>
<path d="M32.2012 71.6959C32.003 72.0533 31.7619 72.431 31.5729 72.8629C31.2735 73.5051 31.0804 74.1494 30.781 74.7916C30.736 74.9182 30.4991 75.0835 30.4041 75.0498C30.2775 75.0049 30.1642 74.8221 30.0826 74.6505C30.0622 74.6076 30.1071 74.481 30.1296 74.4177C30.473 73.1496 30.8052 71.9131 31.1487 70.6449C31.3306 70.0323 31.3959 69.9486 32.0331 69.961C32.9256 69.9572 33.6719 70.3648 34.3845 70.8674C34.5203 70.9869 34.557 71.285 34.5212 71.4862C34.4629 71.7506 34.2484 71.8527 33.9728 71.8261C33.3785 71.7932 32.8271 71.74 32.2012 71.6959Z" fill="#1E1F44"/>
<path d="M51.9691 98.534C51.8617 99.1374 51.8402 99.7 51.6603 100.206C51.2648 101.42 50.806 102.612 50.3676 103.846C50.3452 103.91 50.2798 103.993 50.2573 104.057C49.7669 105.237 49.7669 105.237 48.5058 105.074C48.029 105.012 47.5634 104.918 47.1294 104.835C47.0907 104.643 47.0611 104.526 47.0632 104.419C47.0776 103.676 47.4116 103.438 48.1621 103.633C48.6164 103.759 49.0821 103.853 49.6314 104.013C50.0473 102.842 50.4407 101.734 50.8454 100.594C51.0364 100.056 51.1846 99.5385 51.3757 99.0004C51.4656 98.7472 51.4656 98.7472 51.9691 98.534Z" fill="#1E1F44"/>
<path d="M38.8676 81.2277C39.0942 81.5934 39.0971 81.9865 38.9306 82.3551C38.5055 83.4516 38.0917 84.5165 37.635 85.6019C37.401 86.1604 37.0895 86.3349 36.7413 86.2112C36.3932 86.0876 36.3248 85.7782 36.4006 85.1635C36.5183 84.0291 36.8259 82.9621 37.4092 81.9217C37.8914 81.1662 37.8393 81.1121 38.8676 81.2277Z" fill="#1E1F44"/>
<path d="M23.4687 94.5789C24.0068 94.77 24.4612 94.8957 24.8931 95.0847C25.1463 95.1746 25.3974 95.3708 25.2105 95.6965C25.0664 96.0017 24.8499 96.21 24.4384 96.0638C24.0698 95.8973 23.6788 95.7941 23.3102 95.6275C22.573 95.2945 22.3148 94.9176 22.5733 94.1896C22.9688 92.9756 23.4593 91.7953 23.9609 90.5834C24.0509 90.3302 24.3195 90.1761 24.5697 89.8729C24.8984 90.4529 24.7298 90.9277 24.604 91.3821C24.3996 92.058 24.1207 92.7431 23.8734 93.4394C23.7498 93.7876 23.6149 94.1674 23.4687 94.5789Z" fill="#1E1F44"/>
<path d="M57.7053 80.575C57.2305 80.4064 56.8507 80.2715 56.5025 80.1479C56.3443 80.0917 56.134 79.9814 56.0411 79.8414C55.9482 79.7015 55.9319 79.4462 56.0085 79.3309C56.0852 79.2155 56.3425 79.093 56.4375 79.1268C57.0388 79.3403 57.6402 79.5539 58.2191 79.8308C58.3457 79.8757 58.4365 80.1219 58.4436 80.3026C58.4262 80.6528 58.3771 80.9918 58.328 81.3308C58.097 82.2824 57.8659 83.2341 57.592 84.2061C57.5113 84.5339 57.3785 84.8075 57.2661 85.124C57.122 85.4293 56.8667 85.4455 56.6023 85.3873C56.3062 85.3178 56.247 85.0829 56.2624 84.8388C56.2869 84.6693 56.3544 84.4794 56.4218 84.2895C56.8285 83.0439 57.2669 81.8095 57.7053 80.575Z" fill="#1E1F44"/>
<path d="M38.9077 99.8835C39.0834 99.5895 39.162 99.3679 39.3244 99.2118C39.6176 98.8881 40.0036 98.7044 40.4692 98.7985C41.0818 98.9804 41.4371 99.2848 41.4288 99.7096C41.4297 100.209 41.2723 100.652 40.8209 100.919C40.4666 101.114 39.6845 100.908 39.2996 100.486C39.1751 100.335 39.0414 100.109 38.9077 99.8835Z" fill="#1E1F44"/>
<path d="M37.8226 98.322C38.7813 98.7337 39.01 98.9931 38.7985 99.4883C38.4971 100.237 38.111 100.42 37.4688 100.121C36.847 99.8646 36.6133 99.3183 36.9015 98.7077C37.0701 98.2329 37.3591 98.1217 37.8226 98.322Z" fill="#1E1F44"/>
<path d="M44.1765 80.8319C44.6104 80.9147 44.9086 80.8781 45.1352 81.2437C45.4863 81.7604 45.4198 82.4497 44.903 82.8008C44.6232 82.9866 44.3383 82.8854 44.0872 82.6893C43.8248 82.5248 43.445 82.3899 43.5911 81.9785C43.7689 81.5782 43.9987 81.2321 44.1765 80.8319Z" fill="#1E1F44"/>
<path d="M53.2952 88.2762C53.1757 88.412 53.0112 88.6743 52.8059 88.8509C52.5148 89.0684 52.0196 88.8569 52.0371 88.5066C52.0545 88.1564 52.1261 87.7541 52.3018 87.46C52.4234 87.2181 52.692 87.064 53.0402 87.1876C53.42 87.3225 53.3934 87.5982 53.3984 87.8851C53.3759 87.9484 53.3422 88.0434 53.2952 88.2762Z" fill="#1E1F44"/>
<path d="M52.1273 87.1486C51.9812 87.56 51.7013 87.7458 51.3623 87.6967C51.0662 87.6272 50.8671 87.4852 50.9591 87.1258C50.9837 86.9563 51.0286 86.8297 51.0848 86.6714C51.2422 86.2283 51.4679 86.0946 51.7528 86.1958C52.1009 86.3194 52.2755 86.6309 52.1722 87.0219C52.161 87.0536 52.1385 87.1169 52.1273 87.1486Z" fill="#1E1F44"/>
<path d="M45.0122 98.4515C45.0797 98.2616 45.1042 98.0921 45.2033 97.9134C45.469 97.3661 45.9499 97.2162 46.486 97.5135C46.9699 97.7566 47.4855 98.011 47.9582 98.2858C48.1369 98.3849 48.2164 98.6627 48.3297 98.8455C48.3502 98.8884 48.3277 98.9517 48.3052 99.015C48.2088 100.692 47.692 101.043 46.1094 100.481C46.0461 100.458 45.9511 100.425 45.8878 100.402C44.7413 99.8166 44.5626 99.7175 45.0122 98.4515Z" fill="#1E1F44"/>
<path d="M33.8728 75.3193C34.3017 75.1152 34.7428 75.3787 35.1859 75.5361C35.3442 75.5923 35.4595 75.6689 35.6065 75.7568C36.4478 76.1981 36.4866 76.3901 36.1718 77.2763C36.0145 77.7195 35.8775 78.2055 35.7202 78.6486C35.4841 79.3133 35.2155 79.4674 34.5825 79.2426C34.2027 79.1077 33.8228 78.9728 33.4543 78.8063C32.8754 78.5294 32.6713 78.1005 32.8848 77.4991C33.031 77.0876 33.2291 76.7303 33.4386 76.3413C33.5826 76.036 33.7063 75.6879 33.8728 75.3193Z" fill="#1E1F44"/>
<path d="M52.6955 81.4335C53.8441 81.9127 53.7983 81.54 53.5385 82.8735C53.4332 83.3708 53.3596 83.8793 52.8132 84.113C52.3527 84.3058 51.4306 84.1922 51.0029 83.7908C50.5639 83.4211 50.5089 82.9738 50.7337 82.3408C50.7674 82.2458 50.8011 82.1509 50.8777 82.0355C51.2895 81.0768 51.4498 81.0268 52.3994 81.364C52.4943 81.3977 52.5893 81.4315 52.6955 81.4335Z" fill="#1E1F44"/>
<path d="M50.9565 91.0457C51.0227 91.4606 50.8922 91.6277 50.5201 91.6735C50.4111 91.279 50.6252 91.1771 50.9565 91.0457Z" fill="#1E1F44"/>
</g>
<defs>
<clipPath id="clip0">
<rect width="67.1095" height="114.603" fill="white" transform="translate(38.8785) rotate(19.5516)"/>
</clipPath>
</defs>
</svg>
