<svg width="75" height="97" viewBox="0 0 75 97" fill="none" xmlns="http://www.w3.org/2000/svg">
<path d="M35.0608 24.5732L35.158 24.6077L35.1201 25.7164L35.7899 24.8321L35.8871 24.8667L35.3865 26.2763L35.2893 26.2418L35.6777 25.1481L35.1083 25.9038L35.0111 25.8693L35.0458 24.9237L34.6574 26.0174L34.5602 25.9828L35.0608 24.5732Z" fill="#76B39D"/>
<path d="M35.9946 26.4921C36.2801 26.0735 36.5743 25.6305 36.8598 25.2119L36.957 25.2464L36.8209 26.7855L36.7237 26.751L36.7474 26.3762L36.2856 26.2122L36.0675 26.518L35.9946 26.4921ZM36.7489 26.2947L36.815 25.415L36.3358 26.148L36.7489 26.2947Z" fill="#76B39D"/>
<path d="M37.9155 25.8606L37.5012 27.0272L37.404 26.9927L37.9046 25.5831L38.0018 25.6176L38.0736 26.9568L38.4879 25.7902L38.5851 25.8247L38.0845 27.2344L37.9873 27.1999L37.9155 25.8606Z" fill="#76B39D"/>
<path d="M39.0089 27.0974C38.9485 27.2675 38.9367 27.4549 39.1311 27.524C39.3012 27.5844 39.4259 27.4645 39.4777 27.3186L39.5727 27.0513L39.3539 26.9736L39.3798 26.9007L39.6958 27.0129L39.5836 27.3289C39.5059 27.5476 39.3553 27.7404 39.0879 27.6455C38.8692 27.5678 38.7995 27.3788 38.8771 27.1601L39.1188 26.4796C39.1965 26.2608 39.3628 26.1009 39.6301 26.1959C39.9461 26.3081 39.8598 26.5511 39.7734 26.7942L39.7648 26.8185L39.6676 26.7839C39.6762 26.7596 39.6849 26.7353 39.6935 26.711C39.7539 26.5409 39.7814 26.3864 39.5627 26.3088C39.3925 26.2483 39.2765 26.344 39.216 26.5141L39.0089 27.0974Z" fill="#76B39D"/>
<path d="M40.602 26.5411L41.161 26.7396L41.1351 26.8125L40.6733 26.6486L40.4748 27.2076L40.888 27.3543L40.8621 27.4272L40.4489 27.2805L40.2331 27.8881L40.6949 28.0521L40.669 28.125L40.11 27.9265L40.602 26.5411Z" fill="#76B39D"/>
<path d="M41.2432 28.3564C41.2519 28.3321 41.2605 28.3078 41.2934 28.2922L42.2197 27.2253L41.7336 27.0526L41.7595 26.9797L42.3671 27.1955C42.3585 27.2198 42.3585 27.2198 42.3499 27.2441L42.3412 27.2684C42.2495 27.3727 42.1491 27.5012 42.0573 27.6055C41.8322 27.854 41.6314 28.1111 41.4063 28.3596L41.9167 28.5409L41.8995 28.5895L41.2432 28.3564Z" fill="#76B39D"/>
<path d="M43.9511 28.8252L44.1698 28.9029L44.1266 29.0244C44.0576 29.2188 43.86 29.3129 43.6656 29.2438C43.4711 29.1748 43.3441 28.9928 43.4218 28.7741L43.698 27.9964C43.7757 27.7776 43.9647 27.7079 44.1834 27.7856C44.3779 27.8546 44.4719 28.0523 44.4028 28.2467L44.3597 28.3682L44.141 28.2905C44.1496 28.2662 44.1582 28.2419 44.1668 28.2176C44.2014 28.1204 44.203 28.0389 44.0814 27.9957C44.0085 27.9698 43.9184 27.9925 43.8925 28.0654L43.6163 28.8432C43.5904 28.9161 43.6374 29.0149 43.7103 29.0408C43.8318 29.0839 43.882 29.0196 43.9165 28.9224C43.9338 28.8738 43.9424 28.8495 43.9511 28.8252Z" fill="#76B39D"/>
<path d="M45.6174 28.6782L45.3498 29.4317C45.2721 29.6504 45.0988 29.7531 44.8801 29.6754C44.6856 29.6064 44.5673 29.4001 44.6363 29.2057L44.9125 28.4279C44.9902 28.2092 45.1792 28.1395 45.3979 28.2172C45.5924 28.2862 45.6864 28.4838 45.6174 28.6782ZM44.8637 29.2591C44.8378 29.332 44.8848 29.4308 44.9577 29.4567C45.0307 29.4826 45.1052 29.4269 45.1311 29.354L45.4073 28.5763C45.4332 28.5034 45.3689 28.4532 45.3203 28.4359C45.2473 28.41 45.1572 28.4327 45.1313 28.5056L44.8637 29.2591Z" fill="#76B39D"/>
<path d="M46.375 29.1661L46.0557 30.0654L45.8369 29.9877L46.3375 28.5781L46.5563 28.6558L46.6101 29.6602L46.9208 28.7852L47.1396 28.8629L46.639 30.2725L46.4202 30.1949L46.375 29.1661Z" fill="#76B39D"/>
<path d="M48.0537 29.6801C48.0623 29.6558 48.0623 29.6558 48.0709 29.6315C48.1055 29.5343 48.1486 29.4128 48.0271 29.3696C47.9542 29.3437 47.8554 29.3908 47.8295 29.4637C47.7087 29.8039 48.2293 29.8793 48.0566 30.3654C47.979 30.5842 47.757 30.6696 47.5626 30.6005C47.3682 30.5315 47.2655 30.3582 47.3346 30.1637L47.3777 30.0422L47.5964 30.1199C47.5964 30.1199 47.5964 30.1199 47.5878 30.1442C47.5533 30.2414 47.5015 30.3872 47.6473 30.439C47.7445 30.4736 47.8277 30.3936 47.8622 30.2964C47.9658 30.0047 47.4711 29.8564 47.6264 29.4189C47.7041 29.2002 47.9174 29.1391 48.1118 29.2081C48.3063 29.2772 48.4089 29.4505 48.3399 29.6449L48.2967 29.7665L48.0537 29.6801Z" fill="#76B39D"/>
<path d="M48.5583 30.9544L49.0589 29.5448L49.2776 29.6224L48.777 31.0321L48.5583 30.9544Z" fill="#76B39D"/>
<path d="M49.968 30.2232L49.6918 31.001C49.6659 31.0739 49.7129 31.1727 49.7858 31.1986C49.8587 31.2245 49.9489 31.2018 49.9748 31.1288L50.0611 30.8858L49.9153 30.834L49.9757 30.6639L50.3403 30.7934L50.1935 31.2065C50.1245 31.401 49.9269 31.495 49.7324 31.4259C49.538 31.3569 49.411 31.175 49.4887 30.9562L49.7649 30.1785C49.8426 29.9597 50.0316 29.89 50.2503 29.9677C50.4448 30.0367 50.5388 30.2344 50.4697 30.4288L50.418 30.5746L50.1992 30.4969C50.2078 30.4726 50.2251 30.424 50.2337 30.3997C50.2683 30.3025 50.2699 30.221 50.1483 30.1778C50.0841 30.1276 50.0025 30.126 49.968 30.2232Z" fill="#76B39D"/>
<path d="M51.2352 30.8924L50.9159 31.7916L50.6971 31.714L51.1977 30.3043L51.4165 30.382L51.4703 31.3864L51.781 30.5115L51.9998 30.5891L51.4992 31.9988L51.2804 31.9211L51.2352 30.8924Z" fill="#76B39D"/>
<path d="M52.8421 31.7639L52.5504 31.6603L52.3864 32.1221L52.751 32.2516L52.6906 32.4217L52.1073 32.2146L52.6079 30.8049L53.1912 31.0121L53.1308 31.1822L52.7662 31.0527L52.6195 31.4659L52.9111 31.5695L52.8421 31.7639ZM53.2321 30.5887L52.8212 30.7438L52.7655 30.6693C52.9059 30.5823 52.9804 30.5267 53.1051 30.4067L53.2321 30.5887Z" fill="#76B39D"/>
<path d="M62.3782 24.2573C62.4182 24.2988 62.4425 24.3075 62.4911 24.3247C62.6526 24.4094 62.7811 24.5098 62.9011 24.6345C62.9167 24.6675 62.9654 24.6847 62.9724 24.742C62.9794 24.7992 62.9379 24.8392 62.912 24.9121C62.879 24.9278 62.8461 24.9435 62.7975 24.9262C62.6917 24.916 62.6031 24.8571 62.5145 24.7983C62.3373 24.6807 62.1688 24.5387 61.9916 24.421C61.9516 24.3795 61.9116 24.3379 61.8717 24.2963C61.856 24.2634 61.8403 24.2305 61.8576 24.1819C61.8921 24.0846 61.9509 23.9961 62.0584 23.9247C62.1572 23.8777 62.2231 23.8464 62.3219 23.7993C62.3877 23.768 62.4536 23.7367 62.5195 23.7053C62.6183 23.6583 62.7328 23.6442 62.8472 23.6301C62.8802 23.6145 62.9288 23.6317 62.9531 23.6403C63.026 23.6662 63.033 23.7235 63.0071 23.7964C62.964 23.9179 62.8722 24.0222 62.7648 24.0935C62.666 24.1405 62.5342 24.2032 62.3782 24.2573C62.3868 24.233 62.3868 24.233 62.3782 24.2573ZM62.7939 23.8575C62.7209 23.8316 62.6794 23.8716 62.6221 23.8786C62.4418 23.924 62.2771 24.0024 62.1124 24.0808C62.1367 24.0894 62.1367 24.0894 62.161 24.098C62.2512 24.0753 62.3657 24.0612 62.4559 24.0385C62.5217 24.0072 62.5876 23.9758 62.6778 23.9531C62.7437 23.9218 62.7766 23.9061 62.7939 23.8575Z" fill="#76B39D"/>
<path d="M60.3373 22.2189C60.3546 22.1703 60.3632 22.146 60.3805 22.0974C60.4409 21.9273 60.517 21.7901 60.6017 21.6286C60.619 21.58 60.6519 21.5643 60.6848 21.5486C60.7421 21.5416 60.7907 21.5588 60.8636 21.5847C60.9122 21.602 60.8949 21.6506 60.9106 21.6835C60.9004 21.7894 60.8659 21.8866 60.8313 21.9838C60.7537 22.2026 60.636 22.3797 60.5426 22.5655C60.5254 22.6141 60.4838 22.6541 60.4422 22.6941C60.4007 22.7341 60.3677 22.7498 60.3434 22.7411C60.2462 22.7066 60.1404 22.6964 60.0691 22.5889C60.0134 22.5144 59.9578 22.4399 59.9107 22.3411C59.8794 22.2753 59.8151 22.2251 59.7838 22.1592C59.7367 22.0604 59.6897 21.9616 59.6513 21.8385C59.6357 21.8055 59.6529 21.7569 59.6616 21.7326C59.6875 21.6597 59.729 21.6197 59.8019 21.6456C59.9235 21.6888 60.0363 21.7562 60.1163 21.8394C60.1876 21.9468 60.2832 22.0629 60.3373 22.2189ZM59.8873 21.8675C59.8614 21.9405 59.9014 21.982 59.9414 22.0236C60.0198 22.1883 60.1068 22.3286 60.2181 22.4776C60.2267 22.4533 60.2267 22.4533 60.2353 22.429C60.1883 22.3302 60.1656 22.24 60.1186 22.1412C60.0872 22.0754 60.0316 22.0009 60.0002 21.935C59.9516 21.9177 59.9359 21.8848 59.8873 21.8675Z" fill="#76B39D"/>
<path d="M62.1425 22.5315C62.2084 22.5001 62.25 22.4601 62.3159 22.4288C62.5394 22.2618 62.7942 22.1607 63.0404 22.084C63.1063 22.0526 63.1635 22.0456 63.2365 22.0715C63.3007 22.1217 63.3564 22.1962 63.412 22.2707C63.4434 22.3366 63.4018 22.3765 63.3516 22.4408C63.2512 22.5694 63.1352 22.665 63.0034 22.7277C62.7227 22.9017 62.4019 23.0341 62.0812 23.1665C62.0154 23.1979 61.9252 23.2206 61.835 23.2433C61.7778 23.2504 61.6962 23.2488 61.6649 23.1829C61.5449 23.0582 61.458 22.9178 61.4611 22.7547C61.4643 22.5916 61.4589 22.4529 61.462 22.2898C61.4479 22.1753 61.4668 22.0451 61.477 21.9393C61.5131 21.7605 61.5492 21.5818 61.634 21.4203C61.6512 21.3717 61.6928 21.3317 61.7344 21.2917C61.8175 21.2118 61.9147 21.2463 61.9947 21.3294C62.1303 21.4871 62.2 21.676 62.2125 21.8721C62.1921 22.0838 62.2046 22.2798 62.1425 22.5315C62.1512 22.5071 62.1269 22.4985 62.1425 22.5315ZM61.9068 21.654C61.8323 21.7097 61.8464 21.8241 61.8205 21.897C61.7498 22.173 61.7364 22.442 61.7387 22.7438C61.7716 22.7282 61.7803 22.7039 61.7803 22.7039C61.8077 22.5494 61.8838 22.4122 61.9113 22.2577C61.9302 22.1276 61.9404 22.0217 61.9506 21.9159C61.9608 21.81 61.9624 21.7285 61.9068 21.654Z" fill="#76B39D"/>
<path d="M35.1046 23.1383C34.8145 22.9532 34.5072 22.8167 34.2673 22.5673C34.1317 22.4097 34.0706 22.1964 34.0095 21.9831C33.9202 21.5409 33.8882 21.0916 33.9377 20.6439C33.9974 20.0903 34.0728 19.5697 34.3356 19.0609C34.5051 18.7379 34.6589 18.382 34.8526 18.0676C35.0723 17.6804 35.3491 17.286 35.6487 16.9819C35.8981 16.742 36.1319 16.4692 36.4455 16.2796C36.5859 16.1926 36.7349 16.0813 36.891 16.0272C37.0886 15.9332 37.316 15.9866 37.4759 16.1528C37.5315 16.2273 37.5142 16.2759 37.4884 16.3488C37.4538 16.4461 37.3307 16.4844 37.3777 16.5833C37.4091 16.6491 37.5063 16.6836 37.5949 16.7425C37.8606 16.919 38.0103 17.1911 38.1185 17.5032C38.3261 18.1517 38.3377 18.8126 38.2261 19.512C38.1523 19.9511 38.0299 20.3729 37.8988 20.819C37.6572 21.4995 37.3355 22.0969 36.8281 22.6009C36.5371 22.8808 36.1819 23.1104 35.8039 23.2499C35.738 23.2812 35.6565 23.2796 35.5993 23.2867C35.4378 23.2019 35.2676 23.1415 35.1046 23.1383ZM35.8527 19.4902C35.7923 19.6604 35.7076 19.8218 35.6715 20.0006C35.6494 20.2938 35.5059 20.5439 35.4353 20.8199C35.4078 20.9744 35.3717 21.1531 35.3199 21.299C35.2249 21.5663 35.2358 21.8439 35.2138 22.1371C35.202 22.3245 35.2506 22.3418 35.431 22.2963C35.5211 22.2736 35.6113 22.2509 35.6858 22.1953C36.0481 22.0228 36.3304 21.7673 36.5728 21.4702C36.9987 20.9646 37.3516 20.4331 37.5275 19.7839C37.6601 19.2563 37.7441 18.7113 37.7223 18.1562C37.7114 17.8786 37.7091 17.5768 37.6739 17.2906C37.6371 17.0859 37.5415 16.9698 37.3886 16.8608C37.2358 16.7518 37.2028 16.7675 37.0938 16.9203C36.6216 17.7106 36.205 18.5753 35.8527 19.4902Z" fill="#76B39D"/>
<path d="M39.4088 22.0394C39.3186 22.0621 39.2684 22.1264 39.2182 22.1907C38.8425 22.632 38.4339 23.089 38.0496 23.5547C37.9076 23.7232 37.743 23.8016 37.507 23.7725C37.4254 23.7709 37.3768 23.7536 37.3455 23.6878C37.2655 23.6046 37.2671 23.5231 37.3502 23.4431C37.8161 22.9791 38.1691 22.4476 38.5706 21.9333C38.7299 21.7162 38.9134 21.5077 39.0726 21.2905C39.1817 21.1376 39.2577 21.0004 39.2123 20.8201C39.1896 20.7299 39.2155 20.657 39.1841 20.5911C39.123 20.3779 39.0949 20.1489 39.1153 19.9372C39.1185 19.7741 39.0488 19.5851 39.0519 19.422C39.0285 18.9485 38.9722 18.4905 38.9488 18.0169C38.9395 17.6578 38.9215 17.323 38.8793 16.9796C38.8441 16.6934 38.8991 16.3845 38.9454 16.0999C39.0176 15.7424 39.1957 15.395 39.3651 15.0721C39.3824 15.0234 39.4326 14.9592 39.5055 14.9851C39.5784 15.011 39.6184 15.0525 39.6168 15.1341C39.5932 15.5088 39.6927 15.8452 39.7263 16.213C39.7529 16.5235 39.8124 16.8183 39.8147 17.1202C39.8099 17.3648 39.8537 17.6267 39.849 17.8713C39.8324 18.3034 39.946 18.7542 39.9294 19.1863C39.9192 19.2921 39.9748 19.3666 39.9732 19.4482C39.9944 19.6199 40.0155 19.7916 40.0123 19.9547C40.0766 20.0049 40.0938 19.9563 40.1354 19.9163C40.3778 19.6192 40.6288 19.2978 40.8711 19.0007C41.2884 18.5194 41.697 18.0624 42.1056 17.6053C42.1974 17.5011 42.3221 17.3812 42.4382 17.2855C42.5872 17.1742 42.7518 17.0959 42.929 17.2135C43.0905 17.2982 43.0975 17.3555 42.9885 17.5083C42.8466 17.6769 42.696 17.8697 42.554 18.0383C41.903 18.7924 41.3006 19.5638 40.674 20.3265C40.5649 20.4794 40.4073 20.615 40.274 20.7592C40.132 20.9278 40.0716 21.0979 40.1327 21.3112C40.2079 21.6389 40.2172 21.998 40.2594 22.3415C40.286 22.652 40.3212 22.9382 40.4051 23.2416C40.4591 23.3977 40.4716 23.5937 40.5257 23.7498C40.6338 24.0618 40.6847 24.381 40.8257 24.6774C40.8727 24.7762 40.9613 24.835 41.0256 24.8852C41.1542 24.9856 41.1855 25.0515 41.1267 25.1401C41.0679 25.2287 40.9448 25.2671 40.8232 25.2239C40.5802 25.1376 40.3458 25.027 40.1616 24.8521C40.0173 24.7187 39.8974 24.594 39.852 24.4137C39.8293 24.3235 39.7822 24.2247 39.7352 24.1259C39.6952 24.0843 39.6882 24.0271 39.6812 23.9699C39.6546 23.6594 39.5378 23.3716 39.5026 23.0854C39.4517 22.7662 39.3436 22.4542 39.3257 22.1193C39.4488 22.081 39.4245 22.0723 39.4088 22.0394Z" fill="#76B39D"/>
<path d="M47.9355 18.9916L47.8578 19.2103L45.0385 18.2091L43.8215 21.636L46.3005 22.5164L46.2228 22.7351L43.7438 21.8547L42.4578 25.476L45.3014 26.4859L45.2237 26.7046L42.1127 25.5998L44.8488 17.8954L47.9355 18.9916Z" fill="#76B39D"/>
<path d="M46.0905 27.0396C47.6616 24.6964 49.2328 22.3532 50.8282 20.0187L51.1198 20.1222L50.3681 28.5587L50.1007 28.4638L50.2895 26.3139L47.5258 25.3872L46.3579 27.1346L46.0905 27.0396ZM50.2942 26.0693L50.7943 20.4993L47.6607 25.1614L50.2942 26.0693Z" fill="#76B39D"/>
<path d="M51.8508 29.0853L51.5834 28.9903L54.2505 21.4803L52.6221 20.902L52.6998 20.6833L56.2239 21.9348L56.1462 22.1535L54.4935 21.5666L51.8265 29.0766L51.8508 29.0853Z" fill="#76B39D"/>
<path d="M56.3225 30.6734L56.0551 30.5785L57.3498 26.9328L56.7669 22.1004L57.0343 22.1953L57.5906 26.7173L60.8743 23.5591L61.1417 23.654L57.6172 27.0278L56.3225 30.6734Z" fill="#76B39D"/>
<path d="M34.0352 17.7499C34.2187 17.5414 34.4422 17.3744 34.6258 17.1659C34.9999 16.8061 35.334 16.4047 35.6281 15.9618C35.8964 15.5918 36.116 15.2045 36.1985 14.7411C36.255 14.3507 36.1642 13.99 35.8757 13.7233C35.6672 13.5398 35.45 13.3806 35.1913 13.2613C34.7468 13.0487 34.2662 13.0149 33.8012 13.014C33.5895 12.9935 33.3519 13.046 33.1143 13.0985C32.934 13.1439 32.9426 13.1196 32.9129 12.9722C32.8988 12.8577 32.8275 12.7503 32.7146 12.6828C32.626 12.624 32.5288 12.5894 32.4402 12.5306C32.2873 12.4216 32.1313 12.4757 31.9995 12.5383C31.9007 12.5854 31.8419 12.674 31.8074 12.7712C31.6293 13.1185 31.4355 13.4328 31.3304 13.806C31.2252 14.1792 31.12 14.5524 31.0392 14.9342C30.9858 15.1616 30.8838 15.3717 30.8634 15.5834C30.8414 15.8767 30.8107 16.1942 30.7157 16.4615C30.7071 16.4858 30.6985 16.5102 30.7142 16.5431C30.616 16.9735 30.6151 17.4385 30.517 17.8689C30.4016 18.348 30.3678 18.8286 30.2281 19.299C30.1575 19.575 30.1927 19.8612 30.0977 20.1285C30.0373 20.2987 30.0827 20.479 30.0223 20.6491C29.9258 20.998 29.9022 21.3728 29.8386 21.706C29.8079 22.0236 29.9349 22.2055 30.2006 22.382C30.3535 22.491 30.5652 22.5115 30.7353 22.5719C30.9055 22.6323 31.0685 22.6355 31.1932 22.5155C31.4411 22.3572 31.6716 22.2475 31.8951 22.0806C32.0441 21.9693 32.1845 21.8823 32.3335 21.771C32.6142 21.597 32.8636 21.3571 33.1044 21.1416C33.2707 20.9816 33.4456 20.7974 33.5476 20.5873C33.7726 20.3388 33.7758 20.1757 33.6661 19.9452C33.6504 19.9123 33.6261 19.9036 33.6105 19.8707C33.5948 19.8378 33.5791 19.8048 33.5391 19.7633C33.4278 19.6143 33.3079 19.4896 33.1793 19.3892C33.0108 19.2472 32.8164 19.1781 32.6133 19.1334C32.7796 18.9735 32.9199 18.8865 33.1105 18.7352C33.3858 18.4224 33.7183 18.1026 34.0352 17.7499ZM33.1189 13.7022C33.3322 13.6411 33.5941 13.5973 33.8144 13.5934C33.9861 13.5723 34.1406 13.5998 34.288 13.57C34.6071 13.5191 34.8988 13.6227 35.1747 13.6933C35.4264 13.7553 35.6318 14.102 35.5941 14.3623C35.5305 14.6955 35.4026 14.9785 35.2018 15.2356C34.6912 15.9027 34.1492 16.504 33.6229 17.1382C33.339 17.4753 33.0465 17.8366 32.8111 18.191C32.5343 18.5853 32.328 18.7036 32.0668 19.1309C32.0582 19.1552 32.0339 19.1466 31.9923 19.1866C32.0559 18.8533 32.0073 18.8361 32.0536 18.5515C32.1102 18.161 32.264 17.8051 32.2962 17.406C32.2892 17.3487 32.3307 17.3088 32.348 17.2602C32.3998 17.1143 32.4602 16.9442 32.4634 16.7811C32.4752 16.5937 32.5685 16.4079 32.6047 16.2292C32.7044 15.7172 32.7798 15.1966 32.8638 14.6517C32.8929 14.4157 32.9549 14.164 32.9597 13.9194C32.9542 13.7806 33.0287 13.7249 33.1189 13.7022ZM31.1033 21.6899C31.0547 21.6726 31.3488 21.2297 31.3661 21.1811C31.4454 20.8808 31.658 20.4363 31.7372 20.136C31.7647 19.9816 31.9153 19.7887 32.0471 19.726C32.2776 19.6163 32.6994 19.7387 32.9268 19.7921C33.1455 19.8698 33.2639 20.076 33.1376 20.2775C33.0874 20.3418 33.0701 20.3904 33.0442 20.4633C33.0026 20.5033 32.9524 20.5676 32.9109 20.6075C32.7532 20.7431 32.587 20.9031 32.4293 21.0387L31.1033 21.6899Z" fill="#76B39D"/>
<path d="M25.7946 33.325C25.6887 33.3148 25.6088 33.2317 25.5029 33.2214C25.4214 33.2199 25.3501 33.1124 25.3603 33.0066C25.3619 32.925 25.3635 32.8435 25.3894 32.7706C25.4325 32.6491 25.46 32.4946 25.5274 32.3817C25.562 32.2845 25.5965 32.1873 25.6397 32.0658C25.6828 31.9442 25.726 31.8227 25.7934 31.7098C25.8868 31.524 25.9472 31.3539 26.0163 31.1595C26.1269 30.925 26.2132 30.682 26.3238 30.4476C26.4258 30.2375 26.5035 30.0187 26.6211 29.8416C26.6627 29.8016 26.6799 29.753 26.7301 29.6887C26.7474 29.6401 26.756 29.6158 26.6988 29.6228C26.4871 29.6024 26.3013 29.509 26.1069 29.44C26.0583 29.4227 26.034 29.4141 25.994 29.3725C25.954 29.331 25.914 29.2894 25.9313 29.2408C25.9485 29.1922 25.9658 29.1436 26.056 29.1209C26.1132 29.1138 26.1705 29.1068 26.2277 29.0997C26.4151 29.1115 26.6182 29.1563 26.7883 29.2167C26.8126 29.2253 26.8612 29.2426 26.8855 29.2512C27.0729 29.263 27.243 29.3235 27.4218 29.3596C27.4461 29.3682 27.4947 29.3855 27.5276 29.3698C27.7307 29.4145 27.9494 29.4922 28.1352 29.5856C28.1595 29.5942 28.1839 29.6028 28.1995 29.6358C28.2395 29.6773 28.2552 29.7103 28.2536 29.7918C28.2363 29.8404 28.2034 29.8561 28.1461 29.8631C28.0317 29.8772 27.9345 29.8427 27.8372 29.8082C27.7487 29.7493 27.6757 29.7234 27.5613 29.7375C27.504 29.7446 27.4311 29.7187 27.3825 29.7014C27.301 29.6998 27.301 29.6998 27.308 29.7571C27.2891 29.8872 27.2617 30.0417 27.2185 30.1632C27.1063 30.4792 27.0027 30.7708 26.8905 31.0868C26.8646 31.1597 26.8387 31.2326 26.8128 31.3055C26.7006 31.6215 26.5641 31.9288 26.4519 32.2447C26.3915 32.4149 26.3311 32.585 26.262 32.7794C26.2102 32.9253 26.1914 33.0554 26.1396 33.2012C26.1223 33.2498 26.1051 33.2984 26.0635 33.3384C26.0219 33.3784 25.9647 33.3854 25.9161 33.3682C25.8675 33.3509 25.8432 33.3423 25.7946 33.325Z" fill="#76B39D"/>
<path d="M27.0271 32.8596C27.0891 32.6079 27.1997 32.3735 27.2617 32.1218C27.2806 31.9917 27.348 31.8788 27.3912 31.7573C27.4343 31.6358 27.4775 31.5142 27.4963 31.3841C27.505 31.3598 27.5136 31.3355 27.5222 31.3112C27.6242 31.1011 27.6776 30.8737 27.7553 30.655C27.8589 30.3633 27.9624 30.0717 28.1389 29.8059C28.1977 29.7173 28.2479 29.653 28.3311 29.5731C28.3813 29.5088 28.4958 29.4947 28.56 29.5449C28.5843 29.5535 28.6329 29.5708 28.6486 29.6037C28.7129 29.6539 28.7442 29.7198 28.7427 29.8014C28.7395 29.9644 28.7034 30.1432 28.6516 30.289C28.5998 30.4348 28.5637 30.6136 28.5119 30.7594C28.4774 30.8567 28.4428 30.9539 28.3997 31.0754C28.3565 31.1969 28.3134 31.3184 28.2702 31.44C28.2098 31.6101 28.1407 31.8045 28.056 31.966C28.0474 31.9903 28.0474 31.9903 28.0388 32.0146C28.0026 32.1934 27.9179 32.3549 27.8575 32.525C27.7885 32.7194 27.7108 32.9382 27.6174 33.124C27.5656 33.2698 27.4809 33.4313 27.4291 33.5771C27.4032 33.6501 27.3773 33.723 27.2942 33.8029C27.2526 33.8429 27.2111 33.8829 27.1382 33.857C26.9923 33.8052 26.9053 33.6648 26.8756 33.5174C26.8842 33.4931 26.8842 33.4931 26.8685 33.4602C26.9219 33.2328 26.958 33.054 27.0271 32.8596Z" fill="#76B39D"/>
<path d="M28.6373 33.1031C28.5682 33.2975 28.4906 33.5163 28.4701 33.728C28.4685 33.8095 28.4599 33.8338 28.5744 33.8197C28.6889 33.8056 28.8033 33.7916 28.9421 33.7861C29.0237 33.7877 29.1225 33.7407 29.2126 33.718C29.3271 33.7039 29.4416 33.6898 29.5561 33.6757C29.6376 33.6773 29.7105 33.7032 29.7419 33.7691C29.7732 33.8349 29.756 33.8835 29.6987 33.8906C29.5513 33.9203 29.4282 33.9587 29.3051 33.9971C29.2722 34.0128 29.2722 34.0128 29.2479 34.0042C29.1663 34.0026 29.0918 34.0582 29.0259 34.0896C28.9428 34.1695 28.844 34.2165 28.7452 34.2636L28.7123 34.2792C28.6048 34.3506 28.499 34.3403 28.3759 34.3787C28.3186 34.3858 28.27 34.3685 28.2543 34.3356C28.1258 34.2352 28.0129 34.1677 27.8929 34.043C27.813 33.9599 27.766 33.8611 27.7519 33.7466C27.7237 33.5176 27.7771 33.2903 27.8548 33.0715C27.8893 32.9743 27.9152 32.9014 27.9254 32.7955C27.9356 32.6897 27.9858 32.6254 28.0204 32.5282C28.1153 32.2608 28.2346 32.0021 28.4024 31.7607C28.5114 31.6078 28.6118 31.4793 28.7209 31.3264C28.8126 31.2221 28.8958 31.1422 28.9632 31.0293C29.0048 30.9893 29.0464 30.9493 29.0879 30.9093C29.1954 30.838 29.2871 30.7338 29.4016 30.7197L29.4345 30.704C29.5177 30.6241 29.6322 30.61 29.7553 30.5716C29.9929 30.5191 30.3402 30.6972 30.4671 30.8791C30.5071 30.9207 30.5055 31.0022 30.5126 31.0595C30.5039 31.0838 30.4953 31.1081 30.4867 31.1324C30.4451 31.1724 30.4122 31.188 30.3722 31.1465C30.3479 31.1378 30.3322 31.1049 30.3408 31.0806C30.2938 30.9818 30.2209 30.9559 30.1221 31.0029C29.9417 31.0484 29.7927 31.1597 29.668 31.2796C29.5433 31.3995 29.4429 31.5281 29.3339 31.6809C29.2163 31.8581 29.1072 32.011 29.0139 32.1968C28.8774 32.5041 28.7409 32.8114 28.6373 33.1031Z" fill="#76B39D"/>
<path d="M31.1638 32.3855C31.1967 32.3698 31.2297 32.3542 31.2383 32.3299C31.2798 32.2899 31.3214 32.2499 31.3873 32.2186C31.4289 32.1786 31.4618 32.1629 31.5034 32.1229C31.512 32.0986 31.512 32.0986 31.5449 32.083C31.7355 31.9317 31.959 31.7647 32.1496 31.6135C32.257 31.5421 32.3644 31.4708 32.4875 31.4324C32.5777 31.4097 32.6593 31.4113 32.7322 31.4372C32.8051 31.4631 32.8208 31.496 32.7949 31.5689C32.769 31.6418 32.7101 31.7304 32.66 31.7947C32.5682 31.899 32.4921 32.0362 32.4003 32.1404C32.2497 32.3333 32.0662 32.5418 31.8999 32.7017C31.8168 32.7817 31.7337 32.8616 31.6592 32.9173C31.5345 33.0372 31.4098 33.1571 31.2694 33.2441C31.162 33.3154 31.0459 33.4111 30.9541 33.5153C30.9455 33.5396 30.9212 33.531 30.9126 33.5553C30.8381 33.611 30.8122 33.6839 30.7863 33.7568C30.769 33.8054 30.7604 33.8297 30.7431 33.8783C30.7086 33.9755 30.7156 34.0328 30.7799 34.083C30.8356 34.1575 30.9242 34.2163 30.9884 34.2665C31.0927 34.3582 31.1813 34.4171 31.2942 34.4845C31.3185 34.4932 31.3428 34.5018 31.3255 34.5504C31.3169 34.5747 31.2839 34.5904 31.2596 34.5818C31.2353 34.5731 31.211 34.5645 31.1867 34.5559C31.0495 34.4798 30.921 34.3794 30.7924 34.279C30.6795 34.2115 30.6795 34.2115 30.6277 34.3573C30.5916 34.5361 30.5398 34.6819 30.5037 34.8607C30.4865 34.9093 30.4449 34.9493 30.3963 34.932C30.2904 34.9218 30.1603 34.9029 30.0474 34.8355C29.9831 34.7853 29.9518 34.7194 29.9777 34.6465C29.9706 34.5893 30.0122 34.5493 30.0051 34.492C30.024 34.3619 30.0672 34.2404 30.086 34.1102C30.1496 33.777 30.2132 33.4438 30.334 33.1035C30.4117 32.8848 30.4737 32.6331 30.5271 32.4057C30.5703 32.2842 30.622 32.1384 30.6409 32.0082C30.6856 31.8052 30.7547 31.6107 30.8324 31.392C30.9101 31.1733 31.012 30.9632 31.1297 30.786C31.1885 30.6974 31.2215 30.6817 31.343 30.7249C31.5131 30.7853 31.5288 30.8182 31.517 31.0056C31.5068 31.1115 31.4879 31.2416 31.4534 31.3389C31.3655 31.6634 31.2932 32.021 31.181 32.3369C31.181 32.3369 31.1481 32.3526 31.1638 32.3855Z" fill="#76B39D"/>
<path d="M33.8189 31.7684C34.0619 31.8547 34.2564 31.9237 34.4837 31.9771C34.5566 32.003 34.6052 32.0203 34.6782 32.0462C34.7025 32.0548 34.7511 32.0721 34.7338 32.1207C34.7165 32.1693 34.6922 32.1606 34.6436 32.1434C34.5135 32.1245 34.399 32.1386 34.2688 32.1198C34.0815 32.1079 33.92 32.0232 33.7412 31.9871C33.611 31.9683 33.5452 31.9996 33.4777 32.1125C33.4103 32.2254 33.3342 32.3626 33.2667 32.4755C33.1804 32.7185 33.0698 32.9529 32.9592 33.1873C32.916 33.3089 32.8815 33.4061 32.847 33.5033C32.8124 33.6005 32.8124 33.6005 32.9183 33.6107C33.0155 33.6452 33.0884 33.6711 33.1856 33.7057C33.2342 33.7229 33.2742 33.7645 33.2899 33.7974C33.3056 33.8304 33.3212 33.8633 33.2554 33.8946C33.1895 33.926 33.1322 33.933 33.0593 33.9071C32.9864 33.8812 32.8806 33.871 32.799 33.8694C32.7261 33.8435 32.7175 33.8678 32.6916 33.9408C32.6484 34.0623 32.6053 34.1838 32.5708 34.281C32.4844 34.5241 32.3895 34.7914 32.2789 35.0258C32.2702 35.0501 32.2616 35.0744 32.2616 35.0744C32.2444 35.123 32.2687 35.1317 32.3259 35.1246C32.3502 35.1333 32.3831 35.1176 32.4074 35.1262C32.645 35.0737 32.9069 35.0299 33.1531 34.9531C33.2676 34.939 33.3821 34.925 33.4809 34.8779C33.5382 34.8709 33.5711 34.8552 33.6024 34.9211C33.6181 34.954 33.6008 35.0026 33.5593 35.0426C33.5177 35.0826 33.4275 35.1053 33.3703 35.1124C33.2472 35.1507 33.1241 35.1891 33.001 35.2275C32.8535 35.2573 32.7061 35.287 32.5501 35.3411C32.4599 35.3638 32.3368 35.4022 32.2466 35.4249C32.1565 35.4476 32.0663 35.4703 31.9863 35.3872L31.962 35.3786C31.8162 35.3268 31.7778 35.2037 31.7967 35.0735C31.8241 34.9191 31.8603 34.7403 31.8877 34.5858C31.967 34.2856 32.0376 34.0096 32.1169 33.7093C32.1703 33.4819 32.2723 33.2718 32.3413 33.0774C32.3845 32.9559 32.4606 32.8187 32.5037 32.6972C32.623 32.4384 32.7422 32.1797 32.9101 31.9383C32.9603 31.874 33.0191 31.7854 33.0936 31.7298C33.1767 31.6498 33.2669 31.6271 33.3728 31.6373C33.43 31.6303 33.5029 31.6562 33.5515 31.6734C33.673 31.7166 33.746 31.7425 33.8189 31.7684Z" fill="#76B39D"/>
<path d="M34.3979 36.3805C34.292 36.3702 34.2121 36.2871 34.1062 36.2769C34.0247 36.2753 33.9534 36.1679 33.9636 36.062C33.9652 35.9805 33.9668 35.8989 33.9927 35.826C34.0358 35.7045 34.0633 35.55 34.1308 35.4372C34.1653 35.3399 34.1998 35.2427 34.243 35.1212C34.2861 34.9997 34.3293 34.8782 34.3967 34.7653C34.4901 34.5795 34.5505 34.4093 34.6196 34.2149C34.7302 33.9805 34.8165 33.7374 34.9271 33.503C35.0291 33.2929 35.1068 33.0742 35.2244 32.897C35.266 32.857 35.2833 32.8084 35.3335 32.7441C35.3507 32.6955 35.3594 32.6712 35.3021 32.6783C35.0904 32.6578 34.9046 32.5645 34.7102 32.4954C34.6616 32.4782 34.6373 32.4695 34.5973 32.428C34.5573 32.3864 34.5173 32.3448 34.5346 32.2962C34.5519 32.2476 34.5691 32.199 34.6593 32.1763C34.7165 32.1693 34.7738 32.1622 34.831 32.1552C35.0184 32.167 35.2215 32.2117 35.3916 32.2721C35.4159 32.2808 35.4645 32.298 35.4888 32.3067C35.6762 32.3185 35.8463 32.3789 36.0251 32.415C36.0494 32.4236 36.098 32.4409 36.1309 32.4252C36.334 32.47 36.5528 32.5477 36.7386 32.641C36.7629 32.6496 36.7872 32.6583 36.8028 32.6912C36.8428 32.7328 36.8585 32.7657 36.8569 32.8473C36.8396 32.8959 36.8067 32.9115 36.7495 32.9186C36.635 32.9327 36.5378 32.8981 36.4405 32.8636C36.352 32.8048 36.279 32.7789 36.1646 32.793C36.1073 32.8 36.0344 32.7741 35.9858 32.7569C35.9043 32.7553 35.9043 32.7553 35.9113 32.8125C35.8925 32.9427 35.865 33.0971 35.8218 33.2186C35.7096 33.5346 35.606 33.8262 35.4938 34.1422C35.4679 34.2151 35.442 34.288 35.4161 34.3609C35.3039 34.6769 35.1674 34.9842 35.0552 35.3002C34.9948 35.4703 34.9344 35.6404 34.8653 35.8349C34.8135 35.9807 34.7947 36.1109 34.7429 36.2567C34.7257 36.3053 34.7084 36.3539 34.6668 36.3939C34.6253 36.4338 34.568 36.4409 34.5194 36.4236C34.4951 36.415 34.4465 36.3977 34.3979 36.3805Z" fill="#76B39D"/>
<path d="M39.1844 36.0822L39.0463 36.4711L37.588 35.9532L37.7261 35.5643L39.1844 36.0822Z" fill="#76B39D"/>
<path d="M41.2994 37.5999C41.2304 37.7944 41.1527 38.0131 41.1323 38.2248C41.1307 38.3064 41.1221 38.3307 41.2365 38.3166C41.351 38.3025 41.4655 38.2884 41.6043 38.283C41.6858 38.2845 41.7846 38.2375 41.8748 38.2148C41.9893 38.2007 42.1038 38.1866 42.2182 38.1726C42.2998 38.1741 42.3727 38.2 42.404 38.2659C42.4354 38.3318 42.4181 38.3804 42.3609 38.3874C42.2135 38.4172 42.0904 38.4556 41.9673 38.494C41.9343 38.5096 41.9343 38.5096 41.91 38.501C41.8285 38.4994 41.754 38.5551 41.6881 38.5864C41.605 38.6664 41.5062 38.7134 41.4074 38.7604L41.3744 38.7761C41.267 38.8474 41.1611 38.8372 41.038 38.8756C40.9808 38.8826 40.9322 38.8653 40.9165 38.8324C40.7879 38.732 40.675 38.6646 40.5551 38.5399C40.4752 38.4567 40.4281 38.3579 40.4141 38.2434C40.3859 38.0145 40.4393 37.7871 40.5169 37.5684C40.5515 37.4712 40.5774 37.3982 40.5876 37.2924C40.5978 37.1865 40.648 37.1223 40.6825 37.025C40.7775 36.7577 40.8967 36.499 41.0646 36.2575C41.1736 36.1047 41.274 35.9761 41.383 35.8232C41.4748 35.719 41.5579 35.639 41.6254 35.5261C41.667 35.4862 41.7085 35.4462 41.7501 35.4062C41.8575 35.3349 41.9493 35.2306 42.0638 35.2165L42.0967 35.2009C42.1798 35.1209 42.2943 35.1068 42.4174 35.0684C42.655 35.016 43.0023 35.194 43.1293 35.376C43.1693 35.4175 43.1677 35.4991 43.1747 35.5563C43.1661 35.5806 43.1575 35.6049 43.1488 35.6292C43.1073 35.6692 43.0743 35.6849 43.0343 35.6433C43.01 35.6347 42.9944 35.6018 43.003 35.5775C42.956 35.4787 42.8831 35.4528 42.7843 35.4998C42.6039 35.5452 42.4549 35.6565 42.3302 35.7764C42.2055 35.8964 42.1051 36.0249 41.9961 36.1778C41.8784 36.355 41.7694 36.5078 41.676 36.6936C41.5395 37.001 41.403 37.3083 41.2994 37.5999Z" fill="#76B39D"/>
<path d="M43.0018 39.4359C42.8646 39.3598 42.7274 39.2837 42.6317 39.1677C42.5761 39.0932 42.5291 38.9944 42.5064 38.9042C42.4696 38.6995 42.4571 38.5035 42.4775 38.2918C42.5066 38.0558 42.5443 37.7955 42.6549 37.5611C42.7396 37.3996 42.7914 37.2538 42.9004 37.1009C43.0181 36.9237 43.1357 36.7466 43.2691 36.6023C43.3938 36.4824 43.4855 36.3781 43.6259 36.2911C43.6918 36.2598 43.7663 36.2041 43.8322 36.1728C43.931 36.1258 44.0282 36.1603 44.0838 36.2348C44.1238 36.2764 44.0909 36.292 44.0822 36.3163C44.065 36.365 44.0077 36.372 44.0391 36.4379C44.0548 36.4708 44.1034 36.4881 44.1277 36.4967C44.2649 36.5728 44.3276 36.7045 44.3573 36.8519C44.4411 37.1554 44.4677 37.4659 44.4128 37.7748C44.368 37.9779 44.3233 38.181 44.2542 38.3754C44.142 38.6913 43.9898 38.9657 43.7734 39.1899C43.64 39.3342 43.4753 39.4125 43.3107 39.4909C43.2777 39.5066 43.2448 39.5222 43.2205 39.5136C43.1562 39.4634 43.0833 39.4375 43.0018 39.4359ZM43.344 37.7785C43.3182 37.8514 43.2593 37.94 43.2577 38.0215C43.2389 38.1517 43.1714 38.2645 43.1526 38.3947C43.1267 38.4676 43.1251 38.5492 43.0992 38.6221C43.056 38.7436 43.0615 38.8824 43.0426 39.0125C43.041 39.0941 43.0654 39.1027 43.1226 39.0957C43.1555 39.08 43.2128 39.0729 43.2457 39.0573C43.4104 38.9789 43.5351 38.859 43.6684 38.7147C43.8606 38.4819 44.0284 38.2405 44.1077 37.9402C44.1697 37.6885 44.1988 37.4525 44.2122 37.1836C44.2067 37.0448 44.2013 36.906 44.1872 36.7915C44.1645 36.7014 44.1331 36.6355 44.0688 36.5853C44.0046 36.5351 43.9803 36.5265 43.9214 36.615C43.6947 36.9451 43.5237 37.3496 43.344 37.7785Z" fill="#76B39D"/>
<path d="M46.1518 39.8155L46.1604 39.7912C46.2553 39.5238 46.3832 39.2408 46.5025 38.9821C46.6044 38.772 46.6735 38.5775 46.7998 38.3761C46.8845 38.2146 46.9363 38.0687 47.021 37.9072C47.123 37.6971 47.2163 37.5113 47.3183 37.3012C47.4031 37.1397 47.4878 36.9782 47.5482 36.8081C47.6329 36.6466 47.7176 36.4851 47.7937 36.3479C47.811 36.2993 47.8439 36.2836 47.8839 36.3252C47.9725 36.384 47.9882 36.417 47.9623 36.4899C47.9434 36.62 47.8846 36.7086 47.8501 36.8058C47.7308 37.0645 47.6272 37.3562 47.508 37.6149C47.3629 37.9465 47.2091 38.3025 47.0639 38.6341C46.9706 38.8199 46.9102 38.99 46.8411 39.1845C46.7046 39.4918 46.5681 39.7991 46.4073 40.0978C46.39 40.1464 46.3485 40.1864 46.3398 40.2107C46.2896 40.275 46.2324 40.282 46.1595 40.2561C46.0866 40.2302 46.0466 40.1887 46.0239 40.0985C45.9784 39.9181 45.9001 39.7535 45.8547 39.5731C45.7763 39.4084 45.7638 39.2124 45.7097 39.0564C45.64 38.8674 45.5946 38.687 45.5821 38.491C45.568 38.3765 45.5453 38.2864 45.5226 38.1962C45.5069 38.1632 45.5155 38.1389 45.5242 38.1146C45.5414 38.066 45.5344 38.0088 45.4944 37.9672C45.4615 37.9829 45.4528 38.0072 45.4528 38.0072C45.4269 38.0801 45.401 38.153 45.3908 38.2589C45.3477 38.3804 45.3131 38.4776 45.2943 38.6078C45.2598 38.705 45.2495 38.8108 45.215 38.908C45.1891 38.981 45.1632 39.0539 45.1373 39.1268C45.0855 39.2726 45.0338 39.4184 45.0063 39.5729C44.9631 39.6944 44.9286 39.7916 44.8611 39.9045C44.8439 39.9531 44.8023 39.9931 44.7364 40.0244C44.7121 40.0158 44.7035 40.0401 44.6792 40.0315C44.582 39.997 44.4377 39.8636 44.4393 39.7821C44.4096 39.6347 44.4284 39.5045 44.4473 39.3744C44.492 39.1713 44.5125 38.9596 44.5901 38.7409C44.6522 38.4892 44.7055 38.2618 44.7675 38.0102C44.8123 37.8071 44.8813 37.6127 44.9347 37.3853C44.9622 37.2308 45.0226 37.0607 45.0501 36.9062C45.0776 36.7518 45.1294 36.606 45.2055 36.4688C45.2314 36.3959 45.2972 36.3645 45.3701 36.3904C45.5889 36.4681 45.799 36.5701 45.926 36.752C45.9816 36.8265 46.0286 36.9253 46.0427 37.0398C46.0568 37.1543 46.0622 37.2931 46.0763 37.4075C46.099 37.4977 46.0888 37.6036 46.0872 37.6851C46.0786 37.7094 46.0943 37.7423 46.1099 37.7753C46.1413 37.8412 46.0911 37.9054 46.0981 37.9627C46.1052 38.0199 46.1365 38.0858 46.1106 38.1587C46.102 38.183 46.0934 38.2073 46.1177 38.2159C46.1804 38.3477 46.1372 38.4692 46.1513 38.5837C46.1779 38.8942 46.1715 39.2204 46.1895 39.5552C46.0907 39.6022 46.1047 39.7167 46.1518 39.8155Z" fill="#76B39D"/>
<path d="M49.6107 36.8564C49.7079 36.891 49.8208 36.9584 49.8921 37.0659C49.9164 37.0745 49.9078 37.0988 49.9321 37.1074C49.9478 37.1404 49.9721 37.149 49.9305 37.189C49.9219 37.2133 49.8733 37.196 49.8733 37.196C49.7275 37.1442 49.5644 37.141 49.4083 37.1951C49.0892 37.246 48.7842 37.4114 48.5277 37.594C48.4116 37.6896 48.3199 37.7939 48.2281 37.8981C48.1693 37.9867 48.192 38.0769 48.2476 38.1514C48.3346 38.2918 48.4961 38.3765 48.5831 38.5169C48.7658 38.7733 48.8825 39.0611 48.8432 39.4029C48.8228 39.6146 48.7294 39.8004 48.5632 39.9603C48.4298 40.1046 48.2965 40.2488 48.1718 40.3687C47.9726 40.5443 47.7891 40.7528 47.5742 40.8955C47.5413 40.9112 47.5083 40.9268 47.4754 40.9425C47.4424 40.9582 47.4009 40.9982 47.328 40.9723C47.2551 40.9464 47.1908 40.8962 47.1681 40.806C47.1524 40.7731 47.161 40.7488 47.1783 40.7002C47.2285 40.6359 47.27 40.5959 47.3116 40.5559C47.5853 40.3247 47.8433 40.0605 48.0441 39.8034C48.1445 39.6748 48.2363 39.5706 48.2881 39.4247C48.376 39.1002 48.3651 38.8226 48.1582 38.5575C48.0469 38.4085 47.9269 38.2838 47.807 38.1591C47.767 38.1175 47.7513 38.0846 47.7357 38.0517C47.7043 37.9858 47.6973 37.9286 47.6659 37.8627C47.6503 37.8298 47.6589 37.8055 47.6675 37.7812C47.6793 37.5938 47.7641 37.4323 47.9131 37.321C48.0291 37.2253 48.1452 37.1297 48.2856 37.0427C48.4259 36.9557 48.6063 36.9103 48.7623 36.8562C48.8855 36.8178 49.0242 36.8124 49.1387 36.7983C49.2203 36.7999 49.3347 36.7858 49.4076 36.8117C49.4806 36.8376 49.5378 36.8305 49.6107 36.8564Z" fill="#76B39D"/>
<path d="M48.9496 40.645C49.0116 40.3933 49.1222 40.1589 49.1842 39.9072C49.203 39.777 49.2705 39.6642 49.3137 39.5426C49.3568 39.4211 49.4 39.2996 49.4188 39.1694C49.4275 39.1451 49.4361 39.1208 49.4447 39.0965C49.5467 38.8864 49.6001 38.659 49.6778 38.4403C49.7813 38.1487 49.8849 37.857 50.0614 37.5913C50.1202 37.5027 50.1704 37.4384 50.2536 37.3584C50.3038 37.2942 50.4182 37.2801 50.4825 37.3303C50.5068 37.3389 50.5554 37.3562 50.5711 37.3891C50.6354 37.4393 50.6667 37.5052 50.6651 37.5867C50.662 37.7498 50.6258 37.9286 50.5741 38.0744C50.5223 38.2202 50.4862 38.399 50.4344 38.5448C50.3998 38.642 50.3653 38.7392 50.3222 38.8607C50.279 38.9823 50.2359 39.1038 50.1927 39.2253C50.1323 39.3954 50.0632 39.5899 49.9785 39.7514C49.9699 39.7757 49.9699 39.7757 49.9612 39.8C49.9251 39.9787 49.8404 40.1402 49.78 40.3104C49.7109 40.5048 49.6333 40.7235 49.5399 40.9093C49.4881 41.0552 49.4034 41.2167 49.3516 41.3625C49.3257 41.4354 49.2998 41.5083 49.2167 41.5883C49.1751 41.6283 49.1336 41.6682 49.0606 41.6423C48.9148 41.5905 48.8278 41.4502 48.7981 41.3028C48.8067 41.2785 48.8067 41.2785 48.791 41.2455C48.8444 41.0182 48.9048 40.848 48.9496 40.645Z" fill="#76B39D"/>
<path d="M50.8422 39.7845C50.7645 40.0033 50.6868 40.222 50.6177 40.4164C50.5142 40.7081 50.4592 41.017 50.4042 41.3259C50.3854 41.4561 50.3665 41.5862 50.4049 41.7093C50.4276 41.7995 50.4276 41.7995 50.5178 41.7768C50.7484 41.6671 50.866 41.4899 51.0166 41.2971C51.0582 41.2571 51.0997 41.2171 51.0927 41.1599C51.0857 41.1026 51.0127 41.0767 50.9728 41.0352C50.9328 40.9936 50.9101 40.9034 50.8615 40.8862C50.8372 40.8775 50.8701 40.8619 50.8787 40.8376C50.9846 40.8478 51.0991 40.8337 51.172 40.8596C51.2449 40.8855 51.3264 40.8871 51.3907 40.9373C51.4793 40.9961 51.5851 41.0063 51.6824 41.0408C51.7067 41.0495 51.7553 41.0667 51.7709 41.0997C51.7866 41.1326 51.8109 41.1412 51.8023 41.1655C51.785 41.2141 51.7521 41.2298 51.7192 41.2455C51.6619 41.2525 51.6047 41.2596 51.5804 41.2509C51.5561 41.2423 51.5318 41.2337 51.5318 41.2337C51.4745 41.2407 51.4173 41.2478 51.3671 41.312C51.291 41.4492 51.1906 41.5778 51.0659 41.6977C50.9741 41.802 50.8494 41.9219 50.7091 42.0089C50.5271 42.1359 50.3397 42.1241 50.1955 41.9908C50.0426 41.8817 49.9556 41.7414 49.9431 41.5453C49.9377 41.4066 49.8836 41.2505 49.9025 41.1203C49.897 40.9816 49.8916 40.8428 49.9104 40.7126C49.9191 40.6883 49.9034 40.6554 49.912 40.6311C49.9206 40.6068 49.905 40.5738 49.9293 40.5825C49.9795 40.5182 49.9724 40.461 49.9654 40.4037C49.974 40.3794 49.9583 40.3465 49.9756 40.2979C50.0219 40.0133 50.1169 39.7459 50.2361 39.4872C50.3052 39.2928 50.3899 39.1313 50.5076 38.9541C50.5664 38.8655 50.6096 38.744 50.6927 38.664C50.7758 38.5841 50.8433 38.4712 50.9664 38.4328C51.0652 38.3858 51.1311 38.3544 51.2455 38.3403C51.36 38.3263 51.4572 38.3608 51.5545 38.3953C51.7403 38.4887 51.9174 38.6063 52.053 38.764C52.0687 38.7969 52.1087 38.8385 52.1244 38.8714C52.187 39.0031 52.2827 39.1192 52.3124 39.2666C52.3508 39.3897 52.3563 39.5285 52.3131 39.65C52.2872 39.723 52.2543 39.7386 52.2057 39.7214C52.1085 39.6868 52.0442 39.6366 52.0301 39.5222C52.0003 39.3747 51.962 39.2516 51.8993 39.1199C51.8522 39.0211 51.7966 38.9466 51.7409 38.8721C51.6453 38.756 51.5395 38.7458 51.4234 38.8414C51.3403 38.9214 51.2571 39.0013 51.1654 39.1056C51.0563 39.2585 50.9371 39.5172 50.8422 39.7845Z" fill="#76B39D"/>
<path d="M53.7343 42.5084L53.743 42.4841C53.8379 42.2167 53.9658 41.9337 54.085 41.675C54.187 41.4649 54.2561 41.2705 54.3824 41.069C54.4671 40.9075 54.5189 40.7617 54.6036 40.6002C54.7056 40.39 54.7989 40.2042 54.9009 39.9941C54.9857 39.8326 55.0704 39.6711 55.1308 39.501C55.2155 39.3395 55.3002 39.178 55.3763 39.0408C55.3936 38.9922 55.4265 38.9765 55.4665 39.0181C55.5551 39.0769 55.5708 39.1099 55.5449 39.1828C55.526 39.3129 55.4672 39.4015 55.4327 39.4987C55.3134 39.7575 55.2098 40.0491 55.0906 40.3078C54.9455 40.6394 54.7917 40.9954 54.6465 41.327C54.5532 41.5128 54.4928 41.6829 54.4237 41.8774C54.2872 42.1847 54.1507 42.492 53.9899 42.7907C53.9726 42.8393 53.9311 42.8793 53.9224 42.9036C53.8722 42.9679 53.815 42.9749 53.7421 42.949C53.6692 42.9231 53.6292 42.8816 53.6065 42.7914C53.561 42.611 53.4827 42.4464 53.4372 42.266C53.3589 42.1013 53.3464 41.9053 53.2923 41.7493C53.2226 41.5603 53.1772 41.3799 53.1647 41.1839C53.1506 41.0694 53.1279 40.9793 53.1052 40.8891C53.0895 40.8562 53.0981 40.8319 53.1067 40.8075C53.124 40.7589 53.117 40.7017 53.077 40.6601C53.044 40.6758 53.0354 40.7001 53.0354 40.7001C53.0095 40.773 52.9836 40.8459 52.9734 40.9518C52.9303 41.0733 52.8957 41.1705 52.8769 41.3007C52.8424 41.3979 52.8321 41.5037 52.7976 41.601C52.7717 41.6739 52.7458 41.7468 52.7199 41.8197C52.6681 41.9655 52.6164 42.1113 52.5889 42.2658C52.5457 42.3873 52.5112 42.4845 52.4437 42.5974C52.4265 42.646 52.3849 42.686 52.319 42.7174C52.2947 42.7087 52.2861 42.733 52.2618 42.7244C52.1646 42.6899 52.0203 42.5565 52.0219 42.475C51.9922 42.3276 52.011 42.1974 52.0299 42.0673C52.0746 41.8642 52.0951 41.6525 52.1727 41.4338C52.2347 41.1821 52.2881 40.9547 52.3501 40.7031C52.3949 40.5 52.4639 40.3056 52.5173 40.0782C52.5448 39.9237 52.6052 39.7536 52.6327 39.5992C52.6602 39.4447 52.712 39.2989 52.788 39.1617C52.8139 39.0888 52.8798 39.0574 52.9527 39.0833C53.1715 39.161 53.3816 39.263 53.5085 39.4449C53.5642 39.5194 53.6112 39.6182 53.6253 39.7327C53.6394 39.8472 53.6448 39.986 53.6589 40.1004C53.6816 40.1906 53.6714 40.2965 53.6698 40.378C53.6612 40.4023 53.6769 40.4353 53.6925 40.4682C53.7239 40.5341 53.6737 40.5983 53.6807 40.6556C53.6878 40.7128 53.7191 40.7787 53.6932 40.8516C53.6846 40.8759 53.676 40.9002 53.7003 40.9088C53.763 41.0406 53.7198 41.1621 53.7339 41.2766C53.7605 41.5871 53.7541 41.9133 53.772 42.2481C53.6732 42.2951 53.6873 42.4096 53.7343 42.5084Z" fill="#76B39D"/>
<path d="M56.4949 39.8213C56.7379 39.9076 56.9323 39.9767 57.1597 40.03C57.2326 40.0559 57.2812 40.0732 57.3541 40.0991C57.3784 40.1077 57.427 40.125 57.4098 40.1736C57.3925 40.2222 57.3682 40.2136 57.3196 40.1963C57.1895 40.1774 57.075 40.1915 56.9448 40.1727C56.7574 40.1609 56.5959 40.0761 56.4172 40.04C56.287 40.0212 56.2211 40.0525 56.1537 40.1654C56.0862 40.2783 56.0101 40.4155 55.9427 40.5284C55.8564 40.7714 55.7457 41.0058 55.6351 41.2402C55.592 41.3618 55.5574 41.459 55.5229 41.5562C55.4884 41.6534 55.4884 41.6534 55.5942 41.6636C55.6915 41.6982 55.7644 41.7241 55.8616 41.7586C55.9102 41.7758 55.9502 41.8174 55.9659 41.8503C55.9815 41.8833 55.9972 41.9162 55.9313 41.9476C55.8655 41.9789 55.8082 41.986 55.7353 41.9601C55.6624 41.9342 55.5565 41.9239 55.475 41.9224C55.4021 41.8965 55.3935 41.9208 55.3676 41.9937C55.3244 42.1152 55.2813 42.2367 55.2467 42.3339C55.1604 42.577 55.0655 42.8443 54.9549 43.0787C54.9462 43.103 54.9376 43.1273 54.9376 43.1273C54.9203 43.176 54.9446 43.1846 55.0019 43.1775C55.0262 43.1862 55.0591 43.1705 55.0834 43.1791C55.321 43.1267 55.5829 43.0828 55.8291 43.0061C55.9436 42.992 56.0581 42.9779 56.1569 42.9309C56.2141 42.9238 56.2471 42.9081 56.2784 42.974C56.2941 43.007 56.2768 43.0556 56.2353 43.0955C56.1937 43.1355 56.1035 43.1582 56.0463 43.1653C55.9232 43.2037 55.8001 43.2421 55.6769 43.2804C55.5295 43.3102 55.3821 43.34 55.2261 43.394C55.1359 43.4167 55.0128 43.4551 54.9226 43.4778C54.8324 43.5005 54.7423 43.5233 54.6623 43.4401L54.638 43.4315C54.4922 43.3797 54.4538 43.2566 54.4726 43.1264C54.5001 42.972 54.5362 42.7932 54.5637 42.6388C54.643 42.3385 54.7136 42.0625 54.7929 41.7622C54.8463 41.5349 54.9482 41.3247 55.0173 41.1303C55.0605 41.0088 55.1366 40.8716 55.1797 40.7501C55.299 40.4914 55.4182 40.2326 55.5861 39.9912C55.6363 39.9269 55.6951 39.8383 55.7696 39.7827C55.8527 39.7027 55.9429 39.68 56.0487 39.6902C56.106 39.6832 56.1789 39.7091 56.2275 39.7263C56.349 39.7695 56.4462 39.804 56.4949 39.8213Z" fill="#76B39D"/>
<path d="M45.2386 95.5706C45.473 95.6812 45.6189 95.733 45.7561 95.8091C45.7302 95.882 45.7043 95.9549 45.6713 95.9706C45.4549 96.1948 45.4526 95.8929 45.3397 95.8254C45.2237 95.9211 45.1076 96.0167 44.9758 96.0794C44.3814 96.443 44.2756 96.4328 43.8201 95.9427C43.4204 95.527 42.9084 95.4273 42.405 95.3033C42.1534 95.2412 41.8774 95.1706 41.6257 95.1086C40.7092 94.8379 39.7511 94.6071 38.8432 94.312C38.1298 94.086 37.3904 93.933 36.6527 93.6983C35.363 93.3224 34.125 92.8007 32.8337 92.5063C31.4938 92.1947 30.2316 91.6643 28.9176 91.2798C28.4472 91.1401 27.9681 91.0247 27.522 90.8936C26.6784 90.6488 25.8952 90.2338 25.043 90.0133C24.4181 89.8461 23.8521 89.5903 23.2099 89.4718C22.8767 89.4082 22.5521 89.3203 22.2534 89.1595C22.052 89.0332 21.8003 88.9712 21.5643 88.9421C20.9935 88.931 20.5365 88.5223 20.0088 88.3897C18.9692 88.1573 18.0175 87.6004 16.9104 87.4809C16.7559 87.4534 16.6274 87.353 16.4659 87.2683C16.2072 87.1491 15.9414 86.9726 15.6811 86.9349C15.2334 86.8854 14.8775 86.7316 14.4729 86.5606C13.8826 86.2962 13.2318 86.2019 12.6069 86.0347C12.4125 85.9657 12.211 85.8394 12.0166 85.7703C11.5791 85.615 11.1417 85.4596 10.7042 85.3043C9.99072 85.0783 9.30157 84.8609 8.59675 84.6106C7.98915 84.3948 7.4247 84.0575 6.74963 83.9546C6.38348 83.9067 6.05503 83.5985 5.71477 83.4776C5.20438 83.2964 4.71285 82.985 4.1216 83.1855C4.09729 83.1769 4.08866 83.2012 4.06436 83.1926C3.57282 82.8812 3.00202 82.87 2.45869 82.7045C2.18271 82.6338 1.94126 82.466 1.68255 82.3467C1.21372 82.1255 1.06017 81.633 0.757617 81.2519C0.701967 81.1774 0.720818 81.0472 0.698104 80.9571C0.716272 80.4435 0.545457 79.9997 0.350341 79.5472C0.115244 79.0532 0.0848033 78.5223 0.135908 77.9931C0.17202 77.8143 0.183831 77.627 0.138401 77.4466C0.0734362 77.013 0.129992 76.6225 0.219482 76.2164C0.467514 75.2097 0.642633 74.1771 0.842057 73.1532C0.886802 72.9501 0.955851 72.7557 1.0249 72.5612C1.26657 71.8807 1.4024 71.19 1.71699 70.5354C1.95548 70.0179 2.04815 69.4487 2.28664 68.9313C2.60123 68.2766 2.73706 67.5859 2.9944 66.9383C3.14977 66.5009 3.3451 66.1049 3.57338 65.6934C3.77576 65.3547 4.10829 65.0349 4.05196 64.577C4.52963 63.9255 4.6114 63.0787 5.02479 62.3771C5.35346 61.8369 5.58491 61.2623 5.86497 60.7049C5.96696 60.4948 6.24066 60.2635 6.17797 60.1318C6.0385 59.7538 6.42896 59.8104 6.49801 59.6159C6.6118 59.2184 6.75854 58.8053 6.94524 58.4337C7.22689 57.7947 7.41133 57.1212 7.87878 56.5756C8.07094 56.3428 8.16748 55.9939 8.27105 55.7023C8.49387 55.1519 8.69239 54.5929 8.91521 54.0425C9.33496 53.0147 9.8433 52.0457 10.1901 50.992C10.5283 49.9626 11.061 49.0023 11.262 47.8968C11.3633 47.3032 11.6763 46.7302 11.9477 46.1971C12.1846 45.7612 12.1942 45.2719 12.3738 44.8431C12.588 44.317 12.7622 43.7494 12.9608 43.1904C13.0471 42.9473 13.0362 42.6698 13.1468 42.4354C13.4198 41.8207 13.4984 41.137 13.7714 40.5224C13.9338 40.1421 14.0805 39.729 14.1943 39.3315C14.334 38.861 14.4494 38.382 14.7192 37.9304C14.8455 37.729 14.819 37.4185 14.9053 37.1754C15.2505 36.2033 15.5715 35.2225 16.0139 34.2848C16.2438 33.7917 16.3435 33.2797 16.5977 32.7952C16.6997 32.5851 16.753 32.3577 16.9366 32.1492C17.1201 31.9407 17.1108 31.5816 17.2057 31.3142C17.5494 30.4236 17.5771 29.4208 18.1152 28.5992C18.1654 28.5349 18.1427 28.4448 18.1685 28.3718C18.3028 27.7627 18.3727 27.1033 18.71 26.5388C18.8363 26.3373 18.8497 26.0684 18.8545 25.8238C18.9622 24.9041 19.4744 24.1554 19.7435 23.3204C19.8918 22.8257 20.0158 22.3224 20.1971 21.812C20.3179 21.4717 20.4874 21.1487 20.6412 20.7928C20.7949 20.4369 20.9087 20.0394 21.0382 19.6748C21.1849 19.2616 21.4046 18.8744 21.4784 18.4353C21.48 18.3537 21.5388 18.2652 21.589 18.2009C22.1827 17.4538 22.3563 16.5028 22.8128 15.6796C23.0843 15.1465 23.1369 14.5357 23.4813 14.0285C23.708 13.6985 23.8947 13.3269 24.0971 12.9882C24.2665 12.6652 24.4116 12.3336 24.5811 12.0106C25.0063 11.1215 25.3672 10.1823 25.9382 9.34505C26.4246 8.6693 26.7337 7.87589 27.0828 7.12405C27.3127 6.63093 27.4782 6.0876 27.6595 5.57721C28.0306 4.53213 28.6119 3.58904 29.1931 2.64594C29.6983 1.84004 30.2834 1.11727 31.077 0.578029C31.6644 0.157132 32.2838 0.18552 32.9362 0.198236C32.9934 0.191194 33.0648 0.298631 33.1134 0.315894C33.4364 0.485339 33.7248 0.752001 34.058 0.815598C34.806 0.944382 35.452 1.28327 36.0894 1.64647C36.138 1.66373 36.2023 1.71393 36.2595 1.70689C37.325 1.86633 38.2195 2.43032 39.1831 2.79987C39.8792 3.07448 40.6084 3.33342 41.3046 3.60803C41.742 3.76339 42.1536 3.99166 42.5997 4.12272C43.5892 4.41936 44.537 4.75598 45.4919 5.14983C45.8565 5.2793 46.2038 5.45738 46.5597 5.61115C46.7785 5.68883 46.9729 5.75788 47.1916 5.83556C47.3132 5.87872 47.4606 5.84896 47.5405 5.9321C48.1088 6.48972 48.9086 6.47268 49.5632 6.78727C50.1849 7.11753 50.9243 7.27062 51.5962 7.53659C52.2923 7.8112 53.0042 8.11875 53.7004 8.39336C54.5424 8.71975 55.3844 9.04615 56.2264 9.37255C57.3844 9.81115 58.5181 10.2411 59.6847 10.6554C60.3166 10.8798 60.9571 11.0799 61.6134 11.313C62.1967 11.5201 62.7384 11.7673 63.3217 11.9744C64.1151 12.2835 64.9414 12.577 65.7435 12.8618C66.5941 13.1639 67.4448 13.466 68.2954 13.7681C68.9273 13.9925 69.6008 14.177 70.2241 14.4257C71.2605 14.8211 72.2884 15.2409 73.3075 15.6849C73.5906 15.8128 73.832 15.9807 74.1707 16.183C73.8986 16.3327 73.8711 16.4872 73.8663 16.7318C73.9483 17.9652 73.9331 19.164 73.5831 20.3808C73.4434 20.8513 73.4982 21.3907 73.3741 21.8941C73.2313 22.5276 72.9912 23.1265 72.7997 23.7428C72.529 24.6593 72.2912 25.5601 71.9961 26.468C71.8996 26.8169 71.7215 27.1642 71.6007 27.5045C71.5144 27.7475 71.4194 28.0149 71.3088 28.2493C71.1103 28.8083 70.8961 29.3343 70.7219 29.902C70.4888 30.5582 70.2715 31.2473 70.0627 31.9122C70.0196 32.0337 70.025 32.1725 69.9662 32.2611C69.5669 33.0772 69.1676 33.8933 68.7926 34.7181C68.6059 35.0897 68.4105 35.4856 68.2967 35.8831C68.1193 36.6138 67.7804 37.2598 67.4659 37.9144C67.338 38.1974 67.2344 38.4891 67.1881 38.7737C67.1143 39.2127 66.9761 39.6016 66.6922 39.9387C66.5832 40.0916 66.4985 40.2531 66.4137 40.4146C66.0576 41.1092 65.75 41.821 65.4025 42.4913C65.0636 43.1373 64.7004 43.7747 64.3615 44.4207C64.0988 44.9295 63.8846 45.4555 63.6304 45.94C63.3935 46.3759 63.0837 46.7859 62.7982 47.2045C62.7221 47.3417 62.6217 47.4703 62.5613 47.6404C61.9823 48.8854 61.419 50.1633 60.8157 51.3996C60.5858 51.8927 60.2831 52.36 60.0289 52.8445C59.6641 53.5634 59.2836 54.2493 58.9432 54.9769C58.4332 56.0274 57.9476 57.0866 57.4463 58.1128C56.9537 59.1147 56.4367 60.108 55.944 61.11C55.7401 61.5302 55.6004 62.0006 55.4364 62.4624C55.4105 62.5353 55.3603 62.5996 55.3101 62.6638C54.9085 63.1781 54.717 63.7943 54.5099 64.3776C54.2941 64.9852 54.0211 65.5999 53.8539 66.2247C53.635 66.9954 53.14 67.6955 53.0183 68.5007C52.9703 68.8669 52.735 69.2212 52.5813 69.5771C52.4793 69.7872 52.3687 70.0217 52.3153 70.249C52.0845 71.2071 51.6593 72.0961 51.2584 72.9938C50.8144 74.013 50.4346 75.0824 50.0391 76.1188C49.7904 76.7421 49.5331 77.3897 49.2844 78.013C49.2671 78.0616 49.2585 78.0859 49.2412 78.1345C48.9085 79.3027 48.6 80.4795 48.2429 81.6391C48.0687 82.2067 47.773 82.7312 47.5831 83.2659C47.2449 84.2953 46.931 85.3333 46.5928 86.3627C46.4892 86.6544 46.3613 86.9374 46.2821 87.2377C46.151 87.6838 46.0443 88.1385 45.9861 88.6105C45.9162 89.2699 45.6345 89.9089 45.5073 90.5753C45.3629 91.2903 45.2098 92.0297 45.1712 92.7549C45.1444 93.2928 45.2391 93.8738 45.3511 94.4063C45.4819 94.8085 45.4998 95.1433 45.2386 95.5706ZM43.235 93.7369C43.2711 93.5581 43.297 93.4852 43.2986 93.4037C43.2963 93.1018 43.2698 92.7913 43.3161 92.5067C43.5328 91.4341 43.7981 90.3788 43.9905 89.2976C44.1279 88.5253 44.1438 87.7099 44.4443 86.9408C44.6843 86.3418 44.9088 85.7099 45.1245 85.1023C45.815 83.158 46.4726 81.2293 47.1631 79.285C47.6033 78.0455 48.125 76.8075 48.468 75.5335C48.7403 74.5354 49.2957 73.6653 49.4865 72.6656C49.5399 72.4382 49.6332 72.2524 49.7109 72.0337C49.9871 71.256 50.4091 70.53 50.5481 69.6762C50.6235 69.1556 50.902 68.6797 51.0746 68.1936C51.2904 67.586 51.4905 66.9455 51.7063 66.3379C51.9221 65.7303 52.1222 65.0897 52.338 64.4821C52.5278 63.9474 52.6934 63.4041 52.9076 62.878C53.2152 62.1662 53.547 61.4629 53.8546 60.7511C54.1276 60.1364 54.3677 59.5375 54.6407 58.9228C54.8964 58.3568 55.2651 57.8582 55.4722 57.2749C55.688 56.6673 56.0966 56.2103 56.321 55.5784C56.5902 54.7434 56.9895 53.9273 57.4601 53.2186C58.1073 52.2441 58.3828 51.083 59.0785 50.1258C59.5734 49.4258 59.787 48.5163 60.1533 47.7158C60.4938 46.9883 60.9158 46.2624 61.2806 45.5434C61.7215 44.6874 62.178 43.8642 62.6432 43.0167C62.9821 42.3707 63.3696 41.742 63.7171 41.0717C64.2168 40.127 64.7252 39.158 65.1763 38.1961C65.5167 37.4685 65.76 36.7065 66.0433 35.986C66.1555 35.67 66.2104 35.3611 66.3469 35.0538C67.1644 33.2914 67.909 31.5031 68.4834 29.6544C68.5956 29.3384 68.7893 29.0241 68.9015 28.7081C69.2884 27.696 69.6752 26.6838 70.0377 25.663C70.0549 25.6144 70.0808 25.5415 70.0981 25.4929C70.256 24.5089 70.6812 23.6199 70.9762 22.712C71.1245 22.2173 71.3544 21.7242 71.4541 21.2122C71.5727 20.5701 71.8128 19.9711 71.9713 19.3705C72.2075 18.5512 72.3708 17.706 72.5671 16.8452C72.3726 16.7761 72.2025 16.7157 72.0324 16.6553C71.3918 16.4552 70.7427 16.2794 70.1108 16.055C69.2358 15.7442 68.3852 15.4421 67.5188 15.1071C67.1786 14.9863 66.814 14.8568 66.4824 14.7117C66.0692 14.5649 65.6976 14.3782 65.2844 14.2315C64.571 14.0055 63.8732 13.8124 63.1684 13.5621C62.2848 13.2757 61.4428 12.9493 60.5678 12.6386C60.2276 12.5177 59.903 12.4298 59.5627 12.309C58.825 12.0744 58.0872 11.8397 57.3251 11.5965C57.0821 11.5102 56.832 11.3666 56.589 11.2803C55.9085 11.0386 55.2366 10.7727 54.5388 10.5796C54.2142 10.4917 53.9053 10.4367 53.6152 10.2516C53.5023 10.1841 53.3652 10.1081 53.2107 10.0806C52.3255 9.87569 51.4662 9.59791 50.6242 9.27151C50.1225 9.06595 49.5846 9.03915 49.0828 8.83359C47.22 8.14468 45.3055 7.6016 43.3995 7.03421C42.9777 6.91179 42.523 6.80504 42.1271 6.6097C41.8041 6.44025 41.4881 6.32805 41.1635 6.24014C40.6445 6.08319 40.0753 5.99052 39.5735 5.78496C38.7072 5.44994 37.8323 5.13921 36.9071 4.89277C35.8361 4.59454 34.8013 4.11755 33.7303 3.81932C33.1054 3.65215 32.5151 3.38776 31.8589 3.15472C31.6667 3.38754 31.4746 3.62036 31.3396 3.84614C30.9937 4.43489 30.7207 5.04954 30.3591 5.60536C29.712 6.5798 29.4451 7.71665 28.9438 8.74288C28.5876 9.43748 28.2315 10.1321 27.9083 10.811C27.6282 11.3684 27.3811 11.9102 27.1496 12.4848C26.9527 12.9623 26.7957 13.4813 26.5988 13.9587C26.0959 15.0665 25.5774 16.1414 25.1074 17.2335C24.9882 17.4922 25.0304 17.8356 24.8555 18.0198C24.4296 18.5254 24.4256 19.1535 24.1784 19.6952C23.7101 20.7058 23.4691 21.7697 23.0337 22.7646C22.6586 23.5894 22.3479 24.4643 22.0215 25.3063C21.918 25.598 21.6913 25.928 21.768 26.1742C21.9184 26.8298 21.5411 27.3526 21.4242 27.9132C21.1573 29.0501 20.6787 30.1665 20.3146 31.2688C20.08 32.0066 19.8696 32.7529 19.6107 33.4821C19.4295 33.9925 19.1839 34.4526 18.9784 34.9544C18.721 35.602 18.455 36.2739 18.222 36.9301C18.0148 37.5134 17.832 38.1053 17.6248 38.6886C17.34 39.4907 16.918 40.2166 16.7547 41.0618C16.6377 41.6224 16.4235 42.1485 16.2579 42.6918C16.101 43.2108 15.8382 43.7196 15.7542 44.2645C15.5602 45.4272 14.8715 46.4417 14.7348 47.5974C14.7175 47.646 14.7089 47.6703 14.6916 47.7189C14.0931 48.7106 14.0293 49.8922 13.4794 50.9012C13.1836 51.4256 13.1137 52.085 12.8336 52.6424C12.5018 53.3457 12.4772 54.1854 11.9024 54.8023C11.8608 54.8423 11.8592 54.9238 11.8419 54.9725C11.7368 55.3456 11.6073 55.7102 11.5264 56.092C11.4299 56.4409 11.3091 56.7812 11.091 57.0869C10.982 57.2398 10.8001 57.3668 10.7969 57.5298C10.7992 57.8317 10.4941 57.9971 10.498 58.2174C10.5002 58.5193 10.3253 58.7035 10.1991 58.905C9.79429 59.5823 9.63257 60.346 9.28505 61.0163C9.03951 61.4764 8.85826 61.9868 8.61272 62.447C8.51074 62.6571 8.26292 62.8154 8.18525 63.0342C7.99536 63.5689 7.76549 64.062 7.41411 64.512C7.31371 64.6405 7.25329 64.8107 7.19287 64.9808C7.1152 65.1995 7.1018 65.4685 6.97551 65.6699C6.56052 66.4531 6.12987 67.2034 5.73919 67.9952C5.47639 68.504 5.2622 69.0301 5.04801 69.5561C4.8856 69.9364 4.76318 70.3582 4.61645 70.7713C4.50424 71.0873 4.3591 71.4189 4.35275 71.7451C4.30005 72.3559 4.32891 72.9682 4.30052 73.5877C4.2903 73.6935 4.28007 73.7994 4.22125 73.8879C4.01182 74.1694 4.07134 74.4642 4.17946 74.7763C4.23352 74.9324 4.24601 75.1284 4.25851 75.3244C4.281 76.2629 4.378 77.1458 4.83411 78.0194C5.31451 78.9016 5.92121 79.5824 6.65966 80.2004C6.76392 80.2922 6.95131 80.304 7.10576 80.3315C7.35744 80.3935 7.70088 80.3512 7.86942 80.4932C8.46362 80.9779 9.23045 80.9765 9.91801 81.2755C10.8557 81.7179 11.871 81.9417 12.8675 82.2955C13.3292 82.4595 13.7738 82.6721 14.2528 82.7875C14.7162 82.87 15.1536 83.0253 15.5825 83.205C15.8498 83.2999 16.0999 83.4435 16.3673 83.5384C16.7561 83.6765 17.138 83.7574 17.5182 83.9198C18.3445 84.2132 19.145 84.5796 19.9886 84.8245C20.5319 84.9901 21.0596 85.1227 21.5511 85.4341C21.6397 85.4929 21.7941 85.5204 21.9 85.5306C22.4778 85.599 22.9866 85.8618 23.4782 86.1732C23.6154 86.2493 23.7698 86.2768 23.9157 86.3286C24.5821 86.4558 25.207 86.6229 25.8286 86.9532C26.3617 87.2246 26.9121 87.4475 27.4797 87.6217C28.2418 87.8649 29.0227 87.9781 29.7071 88.44C29.82 88.5075 29.9744 88.535 30.1203 88.5868C30.7122 88.7696 31.33 88.8796 31.8631 89.151C32.332 89.3722 32.7765 89.5848 33.2884 89.6845C33.4186 89.7034 33.5158 89.7379 33.6373 89.7811C34.6895 90.2094 35.7087 90.6535 36.7694 91.0576C37.7572 91.4358 38.7624 91.7653 39.7416 92.1678C40.6479 92.5444 41.5369 92.9696 42.4432 93.3462C42.7003 93.547 42.9434 93.6333 43.235 93.7369Z" fill="#76B39D"/>
<path d="M26.9605 65.5698C27.3176 64.4103 27.6817 63.3079 28.0301 62.1727C28.1078 61.954 28.1369 61.718 28.2545 61.5408C28.3808 61.3393 28.5886 61.1394 28.7933 61.1026C28.9407 61.0729 29.1476 61.3379 29.3405 61.4885C29.4636 61.4501 29.6698 61.3318 29.8902 61.3279C30.6327 61.3179 30.9682 61.6834 30.9193 62.5145C31.1467 62.5679 31.3741 62.6213 31.5842 62.7233C31.7943 62.8252 32.0114 62.9845 32.2858 63.1367C32.3549 62.9422 32.4482 62.7564 32.4844 62.5777C32.5997 62.0986 32.7394 61.6282 32.8305 61.1405C32.9114 60.7587 33.1764 60.5518 33.4994 60.7212C33.7738 60.8734 34.0639 61.0585 34.3383 61.2107C34.5884 61.3543 34.6738 61.5762 34.5788 61.8435C34.4925 62.0866 34.4391 62.3139 34.3528 62.557C34.1284 63.1889 34.0955 63.2046 33.4988 63.2663C33.2635 63.6207 33.0454 63.9264 32.8187 64.2565C32.7513 64.3693 32.6924 64.4579 32.6493 64.5794C32.4335 65.187 32.2091 65.819 31.9933 66.4266C31.8379 66.864 31.5588 66.9565 31.1386 66.7525C30.8399 66.5917 30.5153 66.5038 30.1578 66.4316C29.9547 66.3868 29.8543 66.5154 29.7766 66.7341C29.5334 67.4962 29.3387 68.2755 29.2742 69.0737C29.2538 69.2854 29.209 69.4884 29.14 69.6829C28.9415 70.2419 28.6607 70.4159 28.1103 70.193C27.5114 69.953 26.9054 69.6556 26.2907 69.3826C26.1974 69.5684 26.1197 69.7872 26.0091 70.0216C26.3641 70.6403 27.1577 70.1011 27.5613 70.7371C27.508 70.9644 27.4687 71.3063 27.3878 71.6881C27.7767 71.8262 28.1413 71.9557 28.5787 72.111C28.906 70.804 29.7508 69.7356 30.0138 68.3784C30.8762 68.4931 31.4634 68.9206 31.9399 69.5825C31.4679 69.5243 30.9873 69.4905 30.5639 69.4496C30.1669 70.5676 29.7871 71.637 29.416 72.6821C29.252 73.1438 29.0214 73.2535 28.5753 73.1225C28.1292 72.9914 27.6745 72.8847 27.2197 72.7779C27.0276 73.0107 26.8981 73.3753 26.6519 73.4521C26.4057 73.5289 26.067 73.3265 25.7181 73.2299C25.6075 73.4644 25.5126 73.7317 25.3847 74.0147C25.2913 74.2005 25.2223 74.395 24.9377 74.3486C24.6531 74.3023 24.6821 74.0663 24.6453 73.8616C24.6156 73.7142 24.6431 73.5598 24.6862 73.4382C24.9279 72.7577 24.9838 71.9838 25.4199 71.3724C25.4614 71.3324 25.4387 71.2422 25.4576 71.1121C25.1173 70.9912 24.7684 70.8947 24.4368 70.7496C24.0079 70.5699 24.0095 70.4884 24.2723 69.9796C24.4354 69.9827 24.5985 69.9859 24.753 70.0134C25.3881 70.0747 25.3881 70.0747 25.5795 69.4585C25.6399 69.2884 25.7004 69.1182 25.7365 68.9395C25.8566 68.2158 26.3161 68.0779 26.8924 68.2278C27.2499 68.3001 27.5988 68.3966 27.9963 68.5104C28.0928 68.1615 28.1721 67.8612 28.2443 67.5037C27.4925 67.1546 26.6857 67.1144 25.8859 67.1314C25.7737 67.4474 25.6615 67.7633 25.5493 68.0793C25.4889 68.2494 25.4285 68.4195 25.3438 68.581C25.2002 68.8311 24.7893 68.9863 24.5392 68.8427C24.2891 68.6992 24.1637 68.4357 24.2344 68.1597C24.3309 67.8108 24.4761 67.4792 24.6298 67.1233C24.673 67.0017 24.7491 66.8645 24.8338 66.703C24.332 66.4975 24.2741 66.1211 24.4381 65.6593C24.6107 65.1732 25.0076 64.9036 25.5438 65.012C26.0833 64.9572 26.4306 65.1353 26.9605 65.5698ZM28.369 64.4552C29.3137 64.9549 30.4153 64.9356 31.2651 65.7027C31.4463 65.1923 31.5931 64.7791 31.7657 64.293C31.6512 64.3071 31.5454 64.2969 31.4552 64.3196C30.8655 64.4386 29.9679 64.0377 29.6426 63.5664C29.4286 63.2441 29.1574 62.9288 28.8948 62.5893C28.5316 63.2266 28.3088 63.777 28.369 64.4552Z" fill="#76B39D"/>
<path d="M22.9095 67.881C22.4478 67.717 22.0346 67.5703 21.5971 67.4149C21.4756 67.3718 21.3055 67.3114 21.2255 67.2282C21.1385 67.0879 21.0202 66.8816 21.0633 66.7601C21.1065 66.6386 21.3284 66.5532 21.4688 66.4662C21.5676 66.4192 21.6977 66.438 21.8938 66.4255C21.9455 66.2797 21.9817 66.1009 22.0334 65.9551C21.24 65.646 20.4796 65.3212 19.6619 65.0034C19.541 65.3437 19.4547 65.5867 19.3684 65.8297C19.3252 65.9513 19.2491 66.0885 19.1331 66.1841C18.9841 66.2954 18.7583 66.1605 18.7858 66.006C18.9859 65.3655 18.8544 64.5798 19.5006 64.0703C19.9867 64.2429 20.497 64.4242 21.0074 64.6054C21.0679 64.4353 21.1196 64.2895 21.1801 64.1193C20.8241 63.9656 20.4682 63.8118 20.1123 63.658C19.6105 63.4525 19.4695 63.1561 19.6664 62.6786C19.948 62.0396 20.2783 61.4179 20.6086 60.7963C20.778 60.4733 21.0485 60.4051 21.4374 60.5432C22.3037 60.8782 23.1787 61.189 24.0207 61.5154C24.1908 61.5758 24.3868 61.5633 24.5656 61.5994C25.0776 61.6991 25.2845 61.9642 25.1362 62.4589C24.9188 63.1481 24.6442 63.8442 24.3939 64.5491C24.1007 64.527 23.7588 64.4877 23.4083 64.4728C23.158 65.1776 22.9077 65.8824 22.6315 66.6601C22.8416 66.7621 23.0274 66.8555 23.2132 66.9488C23.5119 67.1096 23.8765 67.2391 23.8599 67.6711C23.8261 68.1518 23.6864 68.6222 23.2809 68.9161C23.0331 69.0744 22.7344 68.9136 22.6835 68.5945C22.6608 68.5043 22.6797 68.3742 22.7056 68.3012C22.8146 68.1484 22.8491 68.0512 22.9095 67.881ZM21.7131 61.4622C21.608 61.8354 21.5201 62.16 21.4408 62.4603C21.6266 62.5536 21.7638 62.6297 21.901 62.7058C21.9253 62.7145 21.9339 62.6902 22.0155 62.6917C22.1277 62.3758 22.2572 62.0112 22.3953 61.6224C22.1679 61.569 21.9648 61.5242 21.7131 61.4622ZM22.0207 63.6789C21.9101 63.9133 21.8324 64.1321 21.7218 64.3665C21.9578 64.3955 22.1123 64.423 22.291 64.4591C22.3601 64.2647 22.4205 64.0946 22.4895 63.9001C22.3523 63.824 22.2308 63.7809 22.0207 63.6789Z" fill="#76B39D"/>
<path d="M31.0735 73.8727C31.3324 73.1436 31.5914 72.4145 31.8503 71.6853C32.0143 71.2236 32.0974 71.1436 32.5192 71.266C33.5816 71.5886 34.6525 71.8868 35.6976 72.2579C36.3538 72.491 36.4063 72.7286 36.1733 73.3848C36.0697 73.6764 35.9591 73.9109 35.734 74.1593C35.5261 74.3592 35.4782 74.7254 35.366 75.0413C35.235 75.4874 35.0953 75.9579 34.9642 76.404C34.7986 76.9473 34.5924 77.0656 34.0075 76.94C33.1709 76.7524 32.343 76.5405 31.5151 76.3286C31.312 76.2838 31.1262 76.1905 30.949 76.0728C30.5704 75.8289 30.4693 75.574 30.6247 75.1365C30.7471 74.7147 30.9181 74.3102 31.0735 73.8727ZM31.4574 75.1038C32.4577 75.678 33.4283 76.1048 34.5408 76.3631C34.8704 75.358 35.483 74.4807 35.2849 73.343C34.3057 72.9405 33.2936 72.5537 32.2657 72.1339C31.9934 73.132 31.7383 74.0815 31.4574 75.1038Z" fill="#76B39D"/>
<path d="M22.9881 54.2514C23.2398 54.3134 23.4844 54.3182 23.6789 54.3872C24.6651 54.847 25.66 55.2824 26.629 55.7907C27.1621 56.0621 27.213 56.3813 27.0145 56.9403C26.7555 57.6694 26.5695 58.4244 26.3349 59.1622C26.2383 59.5111 26.0932 59.8427 25.9637 60.2073C25.8602 60.4989 25.6226 60.5514 25.3709 60.4894C24.1298 60.1307 22.8973 59.7478 21.6562 59.3891C21.3559 59.3099 21.2705 59.0879 21.3412 58.812C21.4048 58.4787 21.5256 58.1385 21.6135 57.8139C21.882 56.5955 22.3692 55.4548 22.9881 54.2514ZM25.422 59.9601C25.8395 58.6304 26.2068 57.365 26.5897 56.1326C26.055 55.9427 25.5689 55.77 25.0828 55.5974C24.5725 55.4162 24.0691 55.2922 23.5015 55.1179C23.0786 56.3088 22.6643 57.4754 22.2413 58.6664C23.3178 59.1034 24.3213 59.5145 25.422 59.9601Z" fill="#76B39D"/>
<path d="M29.7594 60.9257C29.8333 60.4866 29.8984 60.0718 29.9895 59.5842C29.8523 59.5081 29.6752 59.3904 29.4737 59.2641C29.3976 59.4013 29.3301 59.5142 29.2713 59.6028C28.832 60.3773 28.3482 60.5066 27.558 60.0344C27.0578 59.7473 27.0274 59.2164 27.5214 58.9813C27.6861 58.903 27.9064 58.8991 28.1181 58.9196C28.2569 58.9141 28.3854 59.0145 28.5556 59.0749C28.623 58.962 28.6662 58.8405 28.7423 58.7033C28.5808 58.6186 28.4436 58.5425 28.315 58.4421C28.2108 58.3503 28.0752 58.1927 28.0697 58.0539C28.0658 57.8336 28.2564 57.6823 28.4767 57.6785C28.6728 57.666 28.8515 57.7021 29.0389 57.7139C29.2068 57.4724 29.359 57.198 29.5268 56.9566C29.9102 56.9559 29.987 57.2021 29.9493 57.4624C29.9116 57.7227 29.8253 57.9658 29.7303 58.2331C29.6872 58.3546 29.6597 58.5091 29.6079 58.6549C30.0368 58.8346 30.4202 58.8339 30.737 58.4812C30.9708 58.2084 31.224 58.1888 31.5557 58.334C32.2518 58.6086 32.9896 58.8432 33.7916 59.128C33.8677 58.9908 33.9854 58.8137 34.103 58.6365C34.1532 58.5722 34.285 58.5095 34.3579 58.5354C34.4551 58.5699 34.5751 58.6946 34.5735 58.7762C34.6141 59.2012 34.4274 59.5728 34.1451 59.8283C33.9874 59.9639 33.597 59.9074 33.3453 59.8453C32.6875 59.6938 32.0383 59.518 31.3649 59.3336C31.2511 59.7311 31.1545 60.08 31.058 60.4289C31.0407 60.4775 31.0391 60.559 31.0219 60.6077C30.839 61.1996 30.4697 61.3147 29.7594 60.9257Z" fill="#76B39D"/>
<path d="M34.8643 63.1216C35.2629 61.9221 35.6286 60.7382 36.0343 59.5959C36.1983 59.1341 36.4029 59.0973 36.8647 59.2613C37.764 59.5807 38.6875 59.9087 39.5868 60.228C39.7083 60.2712 39.8228 60.2571 39.9616 60.2516C40.4265 60.2525 40.5292 60.4259 40.3738 60.8633C40.1753 61.4223 39.9525 61.9727 39.754 62.5317C39.5468 63.115 39.3397 63.6983 39.1082 64.273C38.996 64.5889 38.7898 64.7073 38.4981 64.6037C37.5173 64.2827 36.5452 63.9375 35.6059 63.5766C35.3386 63.4816 35.1544 63.3067 34.8643 63.1216ZM39.6361 60.6287C38.5737 60.3062 37.6329 60.0268 36.6678 59.7388C36.3625 60.7525 36.0745 61.7176 35.7779 62.7071C36.7257 63.0437 37.625 63.363 38.5485 63.691C38.911 62.6703 39.2736 61.6495 39.6361 60.6287Z" fill="#76B39D"/>
<path d="M22.1156 68.0368C22.3686 68.8657 22.0298 69.5117 21.7308 70.1992C21.5253 70.701 21.3926 71.2286 21.1714 71.6974C20.7274 72.7166 20.6474 72.6335 19.8313 72.2342C19.2982 71.9627 18.7894 71.7 18.2045 71.5743C18.0743 71.5555 17.9458 71.4551 17.8086 71.379C17.9122 71.0874 18.0698 70.9518 18.3199 71.0953C18.5543 71.2059 18.882 71.1307 18.9486 71.4828C18.9643 71.5157 19.0043 71.5573 19.0372 71.5416C19.4983 71.3222 19.8894 71.7622 20.4132 71.6745C20.793 70.6051 21.1814 69.5114 21.5871 68.3691C20.7191 68.1156 19.8599 67.8379 18.8947 67.5499C18.4961 68.7494 17.8058 69.8454 17.5444 71.121C17.0622 71.1687 16.9579 71.0769 17.0976 70.6065C17.3064 69.9417 17.5151 69.2768 17.7481 68.6206C17.9208 68.1345 18.102 67.6241 18.3232 67.1553C18.5445 66.6865 18.6017 66.6795 19.0808 66.7948C20.209 67.086 21.1952 67.5457 22.1156 68.0368Z" fill="#76B39D"/>
<path d="M34.4294 66.5801C34.2091 66.5839 33.9887 66.5878 33.81 66.5517C33.6069 66.507 33.3552 66.4449 33.211 66.3116C32.9225 66.045 33.0561 65.0523 33.3557 64.7482C33.4976 64.5797 33.5996 64.3695 33.7173 64.1924C33.7847 64.0795 33.9008 63.9839 33.9926 63.8796C34.0412 63.8969 34.0898 63.9141 34.1384 63.9314C34.1423 64.1517 34.1548 64.3477 34.1586 64.5681C34.433 64.7202 34.7317 64.8811 35.0547 65.0505C35.3613 64.8036 35.7275 64.8515 36.0889 65.1441C36.0787 65.2499 36.1241 65.4303 36.0566 65.5432C35.6793 66.0661 35.6996 66.7027 35.4195 67.2601C35.3434 67.3973 35.3246 67.5275 35.2485 67.6647C35.1308 67.8419 35.0359 68.1092 34.7442 68.0056C34.5012 67.9193 34.2684 67.7271 34.299 67.4096C34.321 67.1164 34.3744 66.889 34.4294 66.5801Z" fill="#76B39D"/>
<path d="M23.3626 69.3826C23.197 69.926 23.0643 70.4536 22.8988 70.9969C23.0446 71.0487 23.199 71.0762 23.3206 71.1194C23.791 71.259 23.9806 71.5727 23.8652 72.0518C23.786 72.352 23.7067 72.6523 23.6031 72.944C23.56 73.0655 23.4925 73.1784 23.4094 73.2583C23.3019 73.3297 23.1302 73.3508 23.0244 73.3406C22.9515 73.3147 22.8731 73.15 22.8833 73.0442C22.8795 72.8238 22.8842 72.5792 22.929 72.3761C23.0082 72.0759 22.8554 71.9668 22.5481 71.8303C22.3198 72.2419 22.0829 72.6778 21.8632 73.0651C21.3269 72.9567 21.2243 72.7834 21.3067 72.32C21.3601 72.0927 21.4221 71.841 21.5084 71.598C21.7744 70.9261 22.0161 70.2456 22.322 69.6152C22.5848 69.1064 22.6907 69.1167 23.3626 69.3826Z" fill="#76B39D"/>
<path d="M35.3448 68.1642C35.5315 67.7926 35.7025 67.388 35.8979 66.9921C36.0171 66.7334 36.2234 66.6151 36.4837 66.6528C36.7197 66.6818 36.9314 66.7023 37.1587 66.7556C37.742 66.9628 37.9419 67.1706 37.8892 67.7814C37.8193 68.4408 37.7007 69.0829 37.5578 69.7164C37.5115 70.001 37.2896 70.0865 36.9634 70.0801C36.3111 70.0674 35.7693 69.8203 35.3037 69.4359C35.1994 69.3442 35.1227 69.098 35.1415 68.9678C35.1463 68.7232 35.2655 68.4645 35.3448 68.1642ZM36.9189 69.4348C37.0704 68.777 37.2117 68.225 37.3616 67.6488C36.9382 67.6079 36.605 67.5443 36.2631 67.505C36.1768 67.748 36.0991 67.9668 36.0215 68.1855C35.9438 68.4043 35.8818 68.6559 35.8284 68.8833C36.0142 68.9767 36.1757 69.0614 36.3458 69.1218C36.5073 69.2065 36.6688 69.2912 36.9189 69.4348Z" fill="#76B39D"/>
<path d="M18.2338 70.49C18.441 69.9067 18.6238 69.3147 18.8553 68.7401C19.0263 68.3355 19.2067 68.2901 19.6285 68.4125C19.8715 68.4988 20.0989 68.5522 20.3419 68.6385C20.7308 68.7766 20.8507 68.9013 20.7785 69.2589C20.6788 69.7708 20.5218 70.2898 20.3406 70.8002C20.2456 71.0676 20.088 71.2032 19.7634 71.1153C19.2601 70.9913 18.7222 70.9645 18.2338 70.49Z" fill="#76B39D"/>
<path d="M22.3222 53.2758C22.17 53.5502 21.9849 53.8403 21.8398 54.1719C21.6099 54.665 21.4616 55.1597 21.2317 55.6529C21.1972 55.7501 21.0153 55.8771 20.9423 55.8512C20.8451 55.8166 20.7581 55.6763 20.6954 55.5445C20.6798 55.5116 20.7143 55.4144 20.7316 55.3658C20.9953 54.392 21.2503 53.4426 21.514 52.4688C21.6537 51.9984 21.7039 51.9341 22.1932 51.9436C22.8785 51.9407 23.4515 52.2537 23.9987 52.6396C24.103 52.7314 24.1312 52.9603 24.1037 53.1148C24.0589 53.3178 23.8943 53.3962 23.6826 53.3758C23.2262 53.3505 22.8028 53.3097 22.3222 53.2758Z" fill="#76B39D"/>
<path d="M37.5013 73.8838C37.4189 74.3472 37.4023 74.7792 37.2642 75.1681C36.9605 76.1003 36.6082 77.0152 36.2716 77.9631C36.2544 78.0117 36.2042 78.0759 36.1869 78.1245C35.8103 79.0308 35.8103 79.0308 34.842 78.9059C34.4758 78.858 34.1183 78.7858 33.7851 78.7222C33.7553 78.5748 33.7326 78.4846 33.7342 78.403C33.7453 77.8322 34.0018 77.6496 34.578 77.7995C34.9269 77.8961 35.2845 77.9683 35.7063 78.0907C36.0256 77.1915 36.3277 76.3408 36.6384 75.4659C36.7852 75.0527 36.899 74.6552 37.0457 74.242C37.1147 74.0476 37.1147 74.0476 37.5013 73.8838Z" fill="#76B39D"/>
<path d="M27.441 60.595C27.615 60.8757 27.6173 61.1776 27.4894 61.4606C27.163 62.3026 26.8452 63.1203 26.4945 63.9537C26.3149 64.3826 26.0757 64.5166 25.8084 64.4216C25.541 64.3267 25.4885 64.0891 25.5467 63.6171C25.6371 62.746 25.8733 61.9267 26.3212 61.1278C26.6915 60.5477 26.6515 60.5062 27.441 60.595Z" fill="#76B39D"/>
<path d="M15.6164 70.8469C16.0295 70.9936 16.3784 71.0901 16.71 71.2353C16.9045 71.3043 17.0973 71.4549 16.9538 71.705C16.8432 71.9394 16.6769 72.0993 16.3609 71.9871C16.0779 71.8592 15.7776 71.7799 15.4946 71.6521C14.9286 71.3963 14.7303 71.1069 14.9288 70.5479C15.2325 69.6157 15.6091 68.7094 15.9943 67.7788C16.0633 67.5844 16.2696 67.4661 16.4617 67.2333C16.7141 67.6787 16.5846 68.0432 16.4881 68.3921C16.3312 68.9111 16.117 69.4372 15.9271 69.9719C15.8321 70.2393 15.7286 70.5309 15.6164 70.8469Z" fill="#76B39D"/>
<path d="M41.9053 60.0938C41.5408 59.9643 41.2491 59.8607 40.9818 59.7658C40.8603 59.7226 40.6988 59.6379 40.6274 59.5305C40.5561 59.423 40.5436 59.227 40.6024 59.1384C40.6613 59.0498 40.8589 58.9558 40.9318 58.9817C41.3936 59.1457 41.8554 59.3097 42.2999 59.5223C42.3971 59.5568 42.4668 59.7458 42.4723 59.8846C42.4589 60.1535 42.4212 60.4138 42.3835 60.6741C42.2061 61.4048 42.0287 62.1355 41.8184 62.8819C41.7564 63.1336 41.6544 63.3437 41.5681 63.5868C41.4574 63.8212 41.2614 63.8337 41.0584 63.7889C40.831 63.7355 40.7856 63.5552 40.7974 63.3678C40.8162 63.2376 40.868 63.0918 40.9198 62.946C41.2321 61.9895 41.5687 61.0416 41.9053 60.0938Z" fill="#76B39D"/>
<path d="M27.4715 74.9201C27.6065 74.6943 27.6669 74.5242 27.7916 74.4042C28.0167 74.1557 28.3131 74.0147 28.6706 74.0869C29.141 74.2266 29.4138 74.4603 29.4075 74.7865C29.4081 75.1699 29.2873 75.5102 28.9407 75.7155C28.6686 75.8652 28.068 75.7067 27.7725 75.3828C27.6769 75.2667 27.5742 75.0934 27.4715 74.9201Z" fill="#76B39D"/>
<path d="M26.6382 73.721C27.3744 74.0372 27.5499 74.2364 27.3875 74.6166C27.1561 75.1913 26.8597 75.3324 26.3665 75.1025C25.8891 74.9056 25.7096 74.486 25.9309 74.0172C26.0603 73.6526 26.2822 73.5672 26.6382 73.721Z" fill="#76B39D"/>
<path d="M31.5172 60.291C31.8504 60.3546 32.0793 60.3265 32.2533 60.6072C32.5229 61.004 32.4718 61.5333 32.075 61.8029C31.8601 61.9455 31.6414 61.8678 31.4486 61.7172C31.2471 61.591 30.9554 61.4874 31.0676 61.1714C31.2042 60.8641 31.3806 60.5983 31.5172 60.291Z" fill="#76B39D"/>
<path d="M38.5193 66.0072C38.4276 66.1115 38.3013 66.313 38.1436 66.4486C37.9201 66.6155 37.5399 66.4531 37.5533 66.1842C37.5667 65.9152 37.6217 65.6063 37.7566 65.3805C37.8499 65.1947 38.0562 65.0764 38.3235 65.1713C38.6152 65.2749 38.5947 65.4866 38.5986 65.7069C38.5813 65.7555 38.5554 65.8285 38.5193 66.0072Z" fill="#76B39D"/>
<path d="M37.6222 65.1414C37.51 65.4573 37.2951 65.6 37.0348 65.5623C36.8075 65.5089 36.6546 65.3999 36.7252 65.1239C36.7441 64.9937 36.7786 64.8965 36.8218 64.775C36.9426 64.4347 37.1159 64.3321 37.3347 64.4097C37.602 64.5047 37.736 64.7439 37.6567 65.0441C37.6481 65.0685 37.6308 65.1171 37.6222 65.1414Z" fill="#76B39D"/>
<path d="M32.1594 73.8205C32.2112 73.6747 32.23 73.5445 32.3061 73.4073C32.5101 72.9871 32.8794 72.8719 33.291 73.1002C33.6626 73.2869 34.0585 73.4822 34.4215 73.6933C34.5587 73.7693 34.6198 73.9826 34.7068 74.123C34.7224 74.1559 34.7052 74.2046 34.6879 74.2532C34.6139 75.5406 34.217 75.8102 33.0018 75.3787C32.9532 75.3614 32.8803 75.3355 32.8317 75.3182C31.9513 74.8687 31.8141 74.7926 32.1594 73.8205Z" fill="#76B39D"/>
<path d="M23.6057 56.0581C23.9351 55.9013 24.2737 56.1037 24.614 56.2246C24.7355 56.2677 24.8241 56.3265 24.937 56.394C25.583 56.7329 25.6127 56.8803 25.3711 57.5608C25.2502 57.9011 25.1451 58.2743 25.0242 58.6145C24.843 59.1249 24.6367 59.2433 24.1506 59.0706C23.859 58.9671 23.5673 58.8635 23.2843 58.7356C22.8398 58.523 22.6831 58.1936 22.8471 57.7319C22.9593 57.4159 23.1115 57.1415 23.2723 56.8428C23.3829 56.6084 23.4778 56.3411 23.6057 56.0581Z" fill="#76B39D"/>
<path d="M38.0585 60.753C38.9405 61.1209 38.9053 60.8347 38.7059 61.8587C38.625 62.2405 38.5685 62.631 38.149 62.8104C37.7953 62.9585 37.0873 62.8713 36.7588 62.5631C36.4218 62.2791 36.3795 61.9357 36.5521 61.4496C36.578 61.3767 36.6039 61.3038 36.6628 61.2152C36.9789 60.479 37.102 60.4407 37.8312 60.6996C37.9041 60.7255 37.977 60.7514 38.0585 60.753Z" fill="#76B39D"/>
<path d="M36.724 68.1339C36.7749 68.4531 36.6745 68.5817 36.3883 68.6169C36.3045 68.3134 36.4692 68.235 36.724 68.1339Z" fill="#76B39D"/>
</svg>
