<svg id="Calque_1" data-name="Calque 1" xmlns="http://www.w3.org/2000/svg" viewBox="0 0 171 80"><defs><style>.cls-1{fill:#1e1f44;}</style></defs><path class="cls-1" d="M169.81,38.48,164.61,13a3,3,0,0,0-3-2.42h-23V4a3,3,0,0,0-3-3H4.15a3,3,0,0,0-3,3V62.11a3,3,0,0,0,3,3H8.39a13.94,13.94,0,0,0,27.87,0H72.6a13.93,13.93,0,1,0,27.86,0H136.8a13.94,13.94,0,0,0,27.87,0h2.18a3,3,0,0,0,3-3v-23A3,3,0,0,0,169.81,38.48ZM22.32,73a7.88,7.88,0,0,1-7.87-7.87,8.11,8.11,0,0,1,.05-.86c0-.09,0-.18,0-.27s.06-.37.1-.56,0-.2.07-.3.09-.34.15-.5.07-.2.11-.3.12-.32.19-.47.09-.19.14-.29l.25-.44.15-.26.31-.44.16-.22.39-.44.15-.16a7.68,7.68,0,0,1,.59-.55h0a7.85,7.85,0,0,1,10.05,0h0c.2.17.4.36.59.55l.15.16c.13.14.26.29.38.44l.17.22c.1.15.21.29.3.44a2.26,2.26,0,0,1,.16.26l.25.44a2.59,2.59,0,0,0,.14.29c.06.15.13.31.19.47l.11.3c.05.16.1.33.14.5s.06.2.08.3.07.37.1.56,0,.18,0,.27a8.11,8.11,0,0,1,.05.86A7.88,7.88,0,0,1,22.32,73Zm64.21,0a7.88,7.88,0,0,1-7.87-7.87,8.12,8.12,0,0,1,0-.86,2.56,2.56,0,0,1,0-.27,5.43,5.43,0,0,1,.09-.56c0-.1,0-.2.08-.3s.09-.34.14-.5l.12-.3c.06-.16.12-.32.19-.47l.14-.29c.07-.15.16-.29.24-.44l.16-.26.3-.44.17-.22a5.34,5.34,0,0,1,.39-.44l.14-.16a7.82,7.82,0,0,1,.6-.55h0a7.83,7.83,0,0,1,10,0h0a7.82,7.82,0,0,1,.6.55l.14.16a5.34,5.34,0,0,1,.39.44l.17.22.3.44.16.26c.08.15.17.29.24.44l.14.29c.07.15.13.31.19.47l.12.3c0,.16.1.33.14.5s.06.2.08.3a5.43,5.43,0,0,1,.09.56,2.56,2.56,0,0,1,0,.27,8.12,8.12,0,0,1,0,.86A7.88,7.88,0,0,1,86.53,73Zm46-59.36V59.08H99.06a13.91,13.91,0,0,0-25.06,0H34.85a13.9,13.9,0,0,0-25,0H7.18V7H132.56Zm6.06,3h20.55l4,19.38H138.62ZM150.74,73a7.88,7.88,0,0,1-7.88-7.87,8.11,8.11,0,0,1,0-.86c0-.09,0-.18,0-.27s.06-.37.1-.56,0-.2.08-.3.09-.34.14-.5.07-.2.11-.3.13-.32.19-.47a2.59,2.59,0,0,0,.14-.29l.25-.44a2.26,2.26,0,0,1,.16-.26c.09-.15.2-.29.3-.44l.17-.22c.12-.15.25-.3.38-.44l.15-.16a7.68,7.68,0,0,1,.59-.55h0a7.85,7.85,0,0,1,10,0h0a7.68,7.68,0,0,1,.59.55l.15.16.39.44.16.22.31.44.15.26.25.44c.05.1.09.2.14.29s.13.31.19.47.08.2.11.3.1.33.15.5.05.2.07.3.07.37.1.56,0,.18,0,.27a8.11,8.11,0,0,1,.05.86A7.88,7.88,0,0,1,150.74,73Zm0-21.8a13.94,13.94,0,0,0-12.12,7.07V42.12h25.2v17h-.56A13.92,13.92,0,0,0,150.74,51.21Z"/></svg>