<svg width="158" height="64" viewBox="0 0 158 64" fill="none" xmlns="http://www.w3.org/2000/svg">
<g clip-path="url(#clip0)">
<path d="M33.4516 56.8335H33.9223L35.5439 61.829L37.1132 56.8335H37.6101V63.8952H37.1132V58.4812L35.7532 62.6921H35.3085L33.9223 58.4812V63.8952H33.4254V56.8335H33.4516Z" fill="white"/>
<path d="M40.5656 63.8952C41.1671 61.5413 41.7687 59.1874 42.3964 56.8335H42.8671L44.698 63.8952H44.201L43.7564 62.1952L41.5071 62.2213L41.0625 63.8952H40.5656ZM43.6518 61.8028L42.6318 57.8535L41.6117 61.829L43.6518 61.8028Z" fill="white"/>
<path d="M48.1503 58.0105V63.8691H47.6796V56.8074H48.1503L50.6089 62.6398V56.8074H51.0797V63.8691H50.6089L48.1503 58.0105Z" fill="white"/>
<path d="M54.8721 61.8029C54.8721 62.6398 55.1075 63.5029 56.1013 63.5029C56.9644 63.5029 57.2783 62.7706 57.2783 62.0121V60.6521H56.1537V60.2336H57.7491V61.829C57.7491 62.9014 57.4091 63.9998 56.1013 63.9998C55.0029 63.9998 54.349 63.2152 54.349 62.169V58.7428C54.349 57.592 54.8198 56.7028 56.1275 56.7028C57.6706 56.7028 57.7491 57.932 57.7491 59.109V59.1874H57.2783C57.2783 59.0567 57.2783 58.952 57.2783 58.8213C57.2783 58.0105 57.1998 57.1997 56.1013 57.1997C55.2121 57.1997 54.8459 57.8274 54.8459 58.6382V61.8029H54.8721Z" fill="white"/>
<path d="M61.0707 56.8335H63.9215V57.252H61.5676V60.0505H63.5815V60.469H61.5676V63.4506H63.9215V63.869H61.0707V56.8335Z" fill="white"/>
<path d="M69.937 63.8953H66.8508C66.8508 63.7645 66.877 63.6076 66.9031 63.4768L69.3093 57.2782H66.877V56.8597H69.8847C69.8847 56.9644 69.8586 57.0428 69.8324 57.1213C69.8324 57.1736 69.8324 57.1997 69.8063 57.2521C69.5709 57.8536 69.3093 58.5336 69.074 59.1613C68.5247 60.5998 67.9493 62.0383 67.4001 63.4768H69.937V63.8953Z" fill="white"/>
<path d="M79.4311 61.6983H80.4773V62.2998C80.4773 63.2675 79.7711 63.9737 78.8034 63.9737C77.8096 63.9737 76.9988 63.3198 76.9988 62.2998V58.3766C76.9988 57.3566 77.7834 56.7028 78.7773 56.7028C79.7973 56.7028 80.4511 57.4351 80.4511 58.429V59.0828H79.405C79.405 58.952 79.405 58.7951 79.405 58.6643C79.405 58.2197 79.3265 57.7751 78.725 57.7751C78.385 57.7751 78.0188 58.0105 78.0188 58.3766V62.2214C78.0188 62.6398 78.3326 62.9275 78.725 62.9275C79.3265 62.9275 79.405 62.5352 79.405 62.0906C79.4311 61.9598 79.4311 61.829 79.4311 61.6983Z" fill="white"/>
<path d="M86.6236 58.4028V62.169C86.6236 63.1891 85.9959 63.9998 84.9236 63.9998C83.9559 63.9998 83.1713 63.2937 83.1713 62.2998V58.3766C83.1713 57.3566 83.9559 56.7028 84.9498 56.7028C85.9436 56.7028 86.6236 57.4089 86.6236 58.4028ZM84.1913 62.2213C84.1913 62.6398 84.5313 62.9275 84.9498 62.9275C85.3682 62.9275 85.5775 62.5875 85.5775 62.1952V58.272C85.5775 57.9582 85.1851 57.7489 84.9236 57.7489C84.5836 57.7489 84.2174 57.9843 84.2174 58.3505V62.2213H84.1913Z" fill="white"/>
<path d="M90.7038 59.3967V63.843H89.6576V56.7812H90.7038L92.5346 61.1752V56.7812H93.5808V63.843H92.5346V63.7906L90.7038 59.3967Z" fill="white"/>
<path d="M100.067 59.0044H99.0208C99.0208 58.9259 99.0208 58.8736 99.0208 58.769C99.0208 58.2982 98.9685 57.7228 98.3931 57.7228C97.9746 57.7228 97.6869 58.0628 97.6869 58.4551C97.6869 60.2075 100.119 59.6582 100.119 62.0645C100.119 63.1368 99.3346 63.8953 98.2623 63.8953C97.2946 63.8953 96.5361 63.2676 96.5361 62.2737V61.6721H97.5823C97.5823 61.6983 97.5823 61.7244 97.5823 61.7506C97.5823 62.2737 97.6085 62.9537 98.3146 62.9537C98.8639 62.9537 99.0731 62.4045 99.0731 61.9337C99.0731 60.4952 96.6146 60.5475 96.6146 58.4813C96.6146 57.4351 97.4515 56.7812 98.4454 56.7812C99.4131 56.7812 100.119 57.409 100.119 58.3767V59.0044H100.067Z" fill="white"/>
<path d="M103.153 63.8952V56.8335H104.199V63.8952H103.153Z" fill="white"/>
<path d="M108.358 58.3767V62.2214C108.358 62.6399 108.672 62.9276 109.064 62.9276C109.43 62.9276 109.744 62.7184 109.744 62.3261V61.123H109.012V60.2337H110.79V62.3261C110.79 63.2938 110.084 63.9999 109.116 63.9999C108.123 63.9999 107.312 63.3461 107.312 62.3261V58.4029C107.312 57.3829 108.096 56.729 109.09 56.729C110.11 56.729 110.764 57.4613 110.764 58.4552V59.2398H109.718C109.718 59.0829 109.718 58.8998 109.718 58.7167C109.718 58.246 109.64 57.8275 109.038 57.8275C108.698 57.7752 108.358 58.0106 108.358 58.3767Z" fill="white"/>
<path d="M114.975 59.3967V63.843H113.929V56.7812H114.975L116.806 61.1752V56.7812H117.852V63.843H116.806V63.7906L114.975 59.3967Z" fill="white"/>
<path d="M123.449 60.7306H121.958V63.006H123.789V63.8953H120.912V56.8336H123.789V57.7228H121.958V59.8152H123.449V60.7306ZM123.345 54.9504L121.749 56.2843L121.331 55.9966C121.775 55.3427 122.037 54.9766 122.455 54.3489L123.345 54.9504Z" fill="white"/>
<path d="M153.841 12.5018C154.024 12.5802 154.233 12.5802 154.416 12.5802C155.253 12.6587 156.011 12.9464 156.77 13.2603C156.953 13.3387 157.136 13.391 157.188 13.6003C157.267 13.8618 157.241 14.1495 157.162 14.3849C157.11 14.568 156.901 14.5941 156.718 14.6203C156.247 14.6988 155.776 14.6464 155.305 14.5418C154.285 14.3587 153.317 13.9664 152.35 13.6787C152.088 13.6003 151.853 13.4695 151.644 13.3126C151.487 13.2079 151.356 13.051 151.356 12.8418C151.382 12.3449 151.434 11.8479 151.8 11.4294C152.114 11.0894 152.454 10.7756 152.768 10.4356C153.004 10.174 153.265 9.93864 153.553 9.70325C153.971 9.36324 154.416 9.07554 154.913 8.86631C155.07 8.78784 155.253 8.78784 155.41 8.78784C155.75 8.814 155.933 9.04939 155.907 9.36324C155.854 9.99095 155.645 10.5402 155.279 11.0371C154.887 11.5602 154.468 12.0572 153.867 12.4233C153.841 12.4495 153.841 12.4756 153.841 12.5018ZM155.07 10.0956C154.756 10.0694 154.599 10.331 154.39 10.4617C153.684 10.9587 153.082 11.5341 152.507 12.1618C152.611 12.2141 152.664 12.1879 152.69 12.1618C153.082 11.8741 153.527 11.691 153.893 11.4033C154.181 11.1679 154.416 10.9325 154.704 10.6971C154.887 10.5402 155.017 10.3571 155.07 10.0956Z" fill="white"/>
<path d="M141.574 6.69549C141.626 6.48626 141.574 6.30318 141.574 6.09394C141.522 5.257 141.679 4.47236 141.862 3.66158C141.914 3.47849 141.94 3.26926 142.123 3.19079C142.385 3.06002 142.646 3.06002 142.908 3.08618C143.091 3.11233 143.169 3.32157 143.222 3.47849C143.379 3.92312 143.379 4.3939 143.379 4.86468C143.353 5.91086 143.143 6.90473 142.986 7.92475C142.96 8.1863 142.856 8.44784 142.751 8.68323C142.673 8.86632 142.542 9.02324 142.333 9.02324C141.836 9.07555 141.339 9.10171 140.868 8.81401C140.476 8.57862 140.109 8.26476 139.717 8.02937C139.403 7.84629 139.142 7.6109 138.88 7.37551C138.462 7.00935 138.122 6.61703 137.834 6.1724C137.729 6.04163 137.703 5.85855 137.677 5.70162C137.651 5.36162 137.834 5.15238 138.174 5.10007C138.802 5.04776 139.377 5.17853 139.926 5.46623C140.502 5.78009 141.077 6.1201 141.522 6.61703C141.522 6.69549 141.548 6.69549 141.574 6.69549ZM139.011 5.85855C139.037 6.1724 139.299 6.27702 139.482 6.4601C140.083 7.06166 140.737 7.58475 141.469 8.05553C141.496 7.95091 141.469 7.8986 141.443 7.87245C141.103 7.53244 140.842 7.11397 140.476 6.80011C140.214 6.56472 139.926 6.35549 139.639 6.1201C139.456 5.98932 139.246 5.88471 139.011 5.85855Z" fill="white"/>
<path d="M150.048 5.25701C150.284 5.04777 150.44 4.76007 150.597 4.52468C151.304 3.45235 152.245 2.61541 153.239 1.80462C153.474 1.62154 153.71 1.4123 154.024 1.46461C154.442 1.54307 154.808 1.80462 155.096 2.09232C155.305 2.30155 155.201 2.61541 155.096 2.87695C154.834 3.58312 154.442 4.18467 153.971 4.76007C152.977 6.01549 151.748 7.06167 150.624 8.18631C150.336 8.47401 149.97 8.7094 149.604 8.89248C149.316 9.02325 149.028 9.10172 148.767 8.91863C148.087 8.52632 147.459 8.08169 147.145 7.29706C146.883 6.61704 146.7 5.91087 146.465 5.23085C146.282 4.70776 146.151 4.18467 146.047 3.63543C145.89 2.79849 145.837 1.9877 145.89 1.15075C145.916 0.88921 146.02 0.653819 146.151 0.418429C146.413 -0.026197 146.883 -0.130815 147.302 0.156884C148.113 0.679974 148.714 1.35999 149.133 2.24924C149.577 3.1908 149.944 4.13236 149.996 5.17854C149.996 5.2047 150.022 5.23085 150.048 5.25701ZM147.668 1.80462C147.407 2.22309 147.642 2.61541 147.668 2.98157C147.825 4.28929 148.165 5.57086 148.61 6.82628C148.74 6.72166 148.767 6.64319 148.74 6.56473C148.662 5.83241 148.714 5.07393 148.584 4.3416C148.479 3.79236 148.322 3.26927 148.191 2.72002C148.113 2.40617 147.982 2.06616 147.668 1.80462Z" fill="white"/>
<path d="M31.4638 50.3997C29.9207 50.0597 28.3514 49.8504 26.9129 49.1704C26.0237 48.7258 25.4221 47.8888 24.899 47.0519C23.8267 45.2211 22.9897 43.2857 22.519 41.2194C21.9436 38.7348 21.4989 36.1978 21.7866 33.6608C21.9959 31.9085 22.1267 30.1561 22.4667 28.4299C22.8851 26.3114 23.4605 24.2452 24.3236 22.3098C25.0036 20.819 25.6837 19.2758 26.756 17.9681C27.2791 17.3404 27.7499 16.6865 28.3253 16.1111C29.0576 15.3788 30.1822 15.2481 31.0715 15.7188C31.4638 15.9281 31.3853 16.2419 31.3853 16.5819C31.3853 17.0004 30.9145 17.445 31.2807 17.8373C31.5684 18.125 32.0392 18.0466 32.4577 18.1512C33.9485 18.5174 35.047 19.4851 35.9362 20.662C37.8716 23.2252 38.9963 26.1545 39.5455 29.3192C39.9117 31.4115 40.0948 33.5039 40.0948 35.5962C40.1209 38.944 39.5978 42.1872 38.1332 45.1949C37.2701 46.9211 36.0931 48.4904 34.5762 49.7197C34.3146 49.955 34.0269 50.112 33.6608 50.1381C32.9546 50.2166 32.1961 50.1643 31.4638 50.3997ZM29.0314 33.1116C29.0314 33.9485 28.8745 34.8378 29.0576 35.6485C29.3714 36.9563 29.1622 38.2901 29.3191 39.5979C29.4237 40.3563 29.5545 41.141 29.5807 41.9256C29.633 43.2595 30.0515 44.5149 30.4438 45.7965C30.7053 46.6073 30.9146 46.6857 31.5946 46.215C31.9607 45.9534 32.3007 45.6919 32.6146 45.378C33.9223 44.0441 34.8116 42.4487 35.4393 40.7225C36.5116 37.8194 37.2439 34.8639 36.9824 31.7515C36.7731 29.1622 36.2239 26.6252 35.2823 24.219C34.7854 22.9636 34.3408 21.6559 33.6608 20.4789C33.2161 19.6943 32.5361 19.2235 31.6992 18.962C30.8622 18.7004 30.7053 18.8051 30.5222 19.6682C29.5807 24.0883 29.136 28.5868 29.0314 33.1116Z" fill="white"/>
<path d="M48.778 38.8394C48.3595 39.0225 48.3334 39.441 48.2026 39.781C47.2087 42.3703 46.2149 44.9857 45.1948 47.6012C44.8287 48.5427 44.201 49.2227 43.181 49.432C42.8671 49.5104 42.5794 49.5104 42.2917 49.3535C41.7948 49.1181 41.6378 48.7781 41.8732 48.2812C43.181 45.5088 43.9394 42.5534 44.9333 39.6502C45.3518 38.4209 45.7441 37.1917 46.1887 35.9886C46.4764 35.1778 46.6072 34.4193 46.1102 33.6347C45.901 33.3208 45.8487 32.9285 45.6395 32.6146C45.0379 31.7515 44.6194 30.7838 44.2794 29.79C44.0179 29.0053 43.4686 28.3776 43.181 27.6191C42.3963 25.5791 41.324 23.6437 40.5655 21.5513C40.0163 20.0343 39.3885 18.5174 38.6824 17.0527C38.0808 15.7973 37.8454 14.4111 37.6362 13.0249C37.3747 11.2726 37.61 9.57255 37.9239 7.87251C37.9762 7.58481 38.0285 7.32327 38.3947 7.29711C38.7347 7.27096 38.9962 7.42789 39.0747 7.76789C39.5455 9.41563 40.5917 10.8018 41.2194 12.3449C41.7686 13.6527 42.5009 14.8819 42.9979 16.2419C43.3902 17.3404 44.0179 18.3866 44.3841 19.5113C45.0118 21.4728 46.1626 23.2513 46.7903 25.2129C46.921 25.6576 47.2349 25.9714 47.418 26.3637C47.7841 27.0961 48.1765 27.8022 48.3334 28.5869C48.6995 28.6392 48.7257 28.4038 48.8042 28.2469C49.4319 26.5207 50.0073 24.7683 50.6611 23.0683C51.7073 20.3482 52.7796 17.6281 53.8781 14.9081C54.1397 14.2542 54.5058 13.6265 54.8981 13.0249C55.3951 12.2926 55.9966 11.7172 57.0167 11.9003C57.8274 12.0572 58.0367 12.3188 57.7751 13.0773C57.4351 14.0711 57.0951 15.065 56.7028 16.0589C55.0028 20.3744 53.512 24.7422 51.9688 29.1099C51.655 29.973 51.2627 30.81 50.8965 31.6469C50.478 32.5885 50.5827 33.3993 51.1581 34.3147C52.0212 35.7009 52.6489 37.1917 53.355 38.6563C53.9566 39.9379 54.5581 41.2456 55.3951 42.3964C55.8659 43.0503 56.232 43.7826 56.729 44.4365C57.6444 45.6396 58.3767 46.9996 59.5275 48.0196C59.9198 48.3596 60.3383 48.4643 60.7829 48.6473C61.5152 48.9089 61.7506 49.1704 61.646 49.5889C61.5414 50.0597 61.0968 50.3997 60.4691 50.3997C59.2659 50.3735 58.089 50.2951 56.9644 49.8504C56.1536 49.5366 55.4474 49.0658 54.9505 48.3335C54.6889 47.9412 54.3751 47.575 54.0089 47.2612C53.7997 47.0781 53.5904 46.8688 53.4858 46.6334C52.9104 45.3257 51.9427 44.2272 51.2888 42.9718C50.5827 41.6118 49.5888 40.4348 48.9611 39.0225C48.9611 38.944 48.8565 38.9179 48.778 38.8394Z" fill="white"/>
<path d="M81.7065 11.9003V13.0249H67.6092V30.0776H79.928V31.2023H67.6092V49.275H81.7065V50.3997H66.3276V11.9003H81.7065Z" fill="white"/>
<path d="M86.179 50.3997C89.4744 37.584 92.7699 24.6898 96.0392 11.8741H97.4254L107.286 50.3997H106.004L103.493 40.6441L89.8406 40.8795L87.3821 50.4258H86.179V50.3997ZM103.232 39.5194L96.7192 14.1496L90.2067 39.7548L103.232 39.5194Z" fill="white"/>
<path d="M114.792 50.3997H113.51V13.0249H105.402V11.9003H122.978V13.0249H114.792V50.3997Z" fill="white"/>
<path d="M137.076 50.3997H135.794V32.327L125.594 11.9265H126.875L136.474 31.0977L146.073 11.9265H147.354L137.102 32.3793V50.3997H137.076Z" fill="white"/>
<path d="M18.2034 28.3253C18.7265 27.1222 19.3804 25.9714 19.9558 24.7944C21.0281 22.5713 21.8912 20.2697 22.5451 17.8897C23.1205 15.8234 23.5651 13.7572 23.1728 11.5603C22.8328 9.67715 21.8912 8.31711 20.1912 7.53248C19.0142 7.00939 17.7588 6.72169 16.4772 6.56476C14.1757 6.30322 12.031 6.98324 9.88632 7.66325C8.78783 8.00326 7.82012 8.57866 6.8524 9.20637C6.17239 9.65099 6.09392 9.62484 5.70161 8.94482C5.38775 8.42173 4.96928 8.08172 4.39388 7.9248C3.9231 7.79402 3.40001 7.76787 2.92923 7.6371C2.06613 7.37555 1.49074 7.87249 0.967646 8.42173C0.627638 8.76174 0.52302 9.25867 0.470711 9.7033C0.235321 11.4556 -0.0785328 13.208 0.0260851 15.0127C0.130703 16.8173 0.28763 18.622 0.470711 20.4266C0.575329 21.499 0.444557 22.5713 0.679947 23.6175C0.993801 25.0037 1.43843 26.3375 1.38612 27.776C1.38612 27.8807 1.43843 27.9853 1.46458 28.0899C1.75228 30.1561 2.40614 32.17 2.61538 34.2624C2.85077 36.5116 3.45232 38.7348 3.60925 41.0102C3.71387 42.3179 4.36773 43.5472 4.36773 44.8811C4.36773 45.718 4.83851 46.4503 4.89082 47.2611C4.96928 48.9873 5.44006 50.6089 5.78007 52.2828C6.09392 53.7474 7.06164 54.4013 8.39552 54.7413C9.31092 54.9767 10.174 54.7413 11.0371 54.7413C11.8741 54.7413 12.6064 54.5582 12.9202 53.7997L12.9464 53.8259C13.7833 52.7274 14.6464 51.9166 15.4049 50.7658C15.8757 50.0597 16.4249 49.4319 16.8957 48.7519C17.8111 47.4965 18.6219 46.1365 19.3281 44.7503C19.825 43.7564 20.2435 42.7364 20.4004 41.6379C21.002 40.1733 20.7143 39.4148 19.9035 38.6563C19.7989 38.5778 19.6943 38.4994 19.5373 38.4209C19.4065 38.2901 19.2496 38.1332 19.0665 38.0286C18.3865 37.5578 17.6542 37.244 16.8696 36.9824C15.8757 36.6686 14.908 36.6686 13.9141 36.747C14.411 35.8055 14.9341 35.1778 15.4311 34.1839C16.4249 32.3008 17.3403 30.313 18.2034 28.3253ZM7.84627 11.7957C8.76168 11.1418 9.72939 10.6449 10.7233 10.1741C11.4033 9.86023 12.1356 9.62484 12.7895 9.28483C14.0972 8.60481 15.5095 8.5525 16.948 8.47404C18.125 8.39558 19.5896 9.54637 19.825 10.7495C20.1389 12.2664 19.9296 13.7311 19.485 15.1696C18.3342 18.8835 16.7911 22.4405 15.4572 26.076C14.7249 28.0376 14.0449 30.0253 13.4695 32.0392C12.8418 34.2624 12.1095 35.0993 11.6648 37.3747C11.6387 37.4793 11.5602 37.5317 11.4294 37.767C11.1679 36.2501 10.9848 36.2239 10.7233 34.8377C10.3833 33.0331 10.4356 31.15 9.96478 29.3715C9.91248 29.1361 9.91248 28.8745 9.91248 28.6391C9.91248 27.8545 9.88632 27.0699 9.70324 26.3114C9.494 25.4483 9.59862 24.5329 9.4417 23.6698C9.07553 21.2113 8.55244 18.7789 8.05551 16.3204C7.82012 15.1696 7.66319 14.0188 7.34934 12.868C7.19241 12.3711 7.45396 12.0572 7.84627 11.7957ZM11.4817 50.3212C11.2987 50.2689 11.8218 47.8627 11.7956 47.6796C11.6125 46.2411 11.9002 43.8872 11.7694 42.4487C11.691 41.7425 12.031 40.6702 12.5279 40.1733C13.3387 39.3363 15.4049 39.2317 16.5557 39.1271C17.5757 39.1271 18.465 39.8333 18.2296 40.9056C18.1511 41.2456 18.125 41.5595 18.125 41.8733C18.0204 42.161 17.8896 42.4226 17.7588 42.7102C17.288 43.5995 16.7649 44.4626 16.2419 45.3257L11.4817 50.3212Z" fill="white"/>
</g>
<defs>
<clipPath id="clip0">
<rect width="157.241" height="64" fill="white"/>
</clipPath>
</defs>
</svg>
