<svg width="80" height="80" viewBox="0 0 80 80" fill="none" xmlns="http://www.w3.org/2000/svg">
<rect width="80" height="80" rx="40" fill="#890620" fill-opacity="0.1"/>
<path d="M28.5951 43.6842C28.5951 43.5315 28.6035 43.3704 28.5951 43.2178C28.5696 42.726 28.4594 42.2426 28.5951 41.7508C28.6035 41.7084 28.612 41.666 28.5951 41.6236C28.4255 41.242 28.5357 40.8605 28.5527 40.4789C28.5781 39.9447 28.5527 39.4104 28.5781 38.8847C28.612 38.2403 28.6799 37.5958 28.7223 36.9429C28.7392 36.68 28.7731 36.4256 28.9258 36.2052C29.0614 36.0101 29.0784 35.7642 29.2056 35.5522C29.4006 35.2385 29.4685 34.84 29.5956 34.4669C29.2734 34.3566 28.9766 34.221 28.6629 34.1446C27.993 33.975 27.7641 33.7207 27.6708 33.0169C27.6538 32.8897 27.6199 32.7709 27.569 32.6522C27.3655 32.1519 27.3062 31.6008 26.9924 31.1513C26.8313 30.9139 26.95 30.6511 27.0009 30.4221C27.0687 30.0914 27.179 29.7437 27.374 29.4724C27.5266 29.2519 27.8065 29.0908 28.0693 28.9806C28.4679 28.8195 28.8834 28.6923 29.3073 28.6329C29.8331 28.5566 30.3758 28.5736 30.91 28.5312C31.5544 28.4888 32.1989 28.404 32.8518 28.387C33.3012 28.37 33.7506 28.4294 34.1916 28.4548C34.5223 28.4718 34.8445 28.5057 35.1328 28.5227C35.3363 28.2768 35.277 28.0478 35.2685 27.8358C35.243 27.3695 35.3194 26.9285 35.5822 26.5215C35.7349 26.2926 35.8112 26.0127 35.9638 25.7838C36.2182 25.3852 36.515 25.0376 36.9644 24.8256C37.2273 24.7069 37.4477 24.4949 37.6936 24.3423C37.8039 24.2744 37.9395 24.2151 38.0752 24.1981C38.8299 24.0879 39.5761 23.9607 40.3393 24.0116C40.5004 24.02 40.6615 24.0709 40.8141 24.1218C41.1618 24.249 41.5094 24.3762 41.8486 24.5203C42.1115 24.639 42.3998 24.7493 42.6118 24.9273C42.8577 25.1393 43.0358 25.4276 43.2393 25.682C43.2817 25.7329 43.2902 25.8262 43.341 25.8601C43.5021 25.9619 43.5445 26.1145 43.6293 26.2671C43.9092 26.8098 44.0364 27.3779 44.0703 27.9715C44.0788 28.1326 44.1042 28.2937 44.1212 28.4972C44.6214 28.4972 45.0878 28.4972 45.5542 28.4972C45.7577 28.4972 45.9782 28.4718 46.1647 28.5396C46.4361 28.6414 46.6989 28.616 46.9703 28.616C47.4112 28.6244 47.8606 28.6753 48.3016 28.7092C48.6153 28.7347 48.9375 28.7516 49.2513 28.7686C49.5396 28.7855 49.8279 28.794 50.1162 28.8025C50.7607 28.8279 51.244 29.2519 51.7782 29.5233C51.8715 29.5741 51.9224 29.7183 51.9817 29.8285C52.1598 30.1508 52.3548 30.473 52.5159 30.8122C52.7194 31.2446 52.9653 31.6771 53.0756 32.135C53.1604 32.4911 53.1095 32.9066 52.7873 33.2034C52.4227 33.5426 52.1004 33.9496 51.5493 34.0005C51.4984 34.009 51.439 34.0344 51.3966 34.0683C51.1168 34.3397 50.7607 34.3651 50.396 34.3651C50.3706 34.3651 50.3452 34.3905 50.2773 34.4245C50.3367 34.7891 50.2434 35.1707 50.3706 35.5692C50.4469 35.8066 50.3876 36.0865 50.4045 36.3493C50.4384 36.7733 50.5063 37.1973 50.5317 37.6213C50.5402 37.7824 50.4893 37.9435 50.4639 38.1046C50.4469 38.2233 50.43 38.3505 50.4469 38.4692C50.4893 38.9356 50.5317 39.3935 50.4723 39.8599C50.4639 39.9362 50.396 40.004 50.3791 40.0803C50.3621 40.1651 50.3367 40.2754 50.3791 40.3517C50.43 40.4534 50.4639 40.5213 50.3621 40.6061C50.3282 40.6315 50.3112 40.7078 50.3282 40.7502C50.5147 41.276 50.3876 41.8186 50.4215 42.3529C50.4639 43.0567 50.4384 43.7605 50.4554 44.4643C50.4639 44.8967 50.5063 45.3377 50.5063 45.7701C50.5063 45.9397 50.396 46.1432 50.4469 46.2789C50.5911 46.652 50.4469 47.0166 50.4978 47.3812C50.5402 47.6865 50.5063 48.0003 50.4978 48.3055C50.4978 48.3564 50.5063 48.4158 50.4893 48.4666C50.3112 48.95 50.3876 49.4587 50.3706 49.9506C50.3621 50.1371 50.2688 50.3152 50.2519 50.5017C50.2349 50.6883 50.3367 50.9087 50.2773 51.0614C50.1756 51.2988 50.2434 51.5956 50.0229 51.7821C50.1162 52.2485 49.6583 52.4859 49.5735 52.876C49.5481 52.9947 49.5142 53.1134 49.5057 53.2321C49.4887 53.5544 49.4718 53.8681 49.1835 54.0886C49.1326 54.1225 49.1156 54.2327 49.1241 54.3091C49.1665 54.9026 48.6747 55.2333 48.2253 55.352C47.7504 55.4792 47.2756 55.564 46.7922 55.6573C46.7074 55.6743 46.5887 55.6827 46.5209 55.6403C46.1902 55.4623 45.8595 55.4453 45.5203 55.5979C45.427 55.6403 45.2998 55.6488 45.1896 55.6319C44.6723 55.5725 44.1551 55.5047 43.6293 55.4453C43.4513 55.4284 43.2817 55.4029 43.1036 55.4029C42.8153 55.3944 42.527 55.4029 42.2302 55.4029C42.2048 55.4029 42.1624 55.3775 42.1539 55.386C41.891 55.6319 41.5434 55.4453 41.2381 55.5556C40.9244 55.6658 40.5597 55.6658 40.2206 55.6573C39.8983 55.6488 39.5931 55.7082 39.2878 55.7845C39.1012 55.8354 38.9062 55.8608 38.7112 55.8608C38.1176 55.8608 37.5325 55.9202 36.9474 55.9965C36.8796 56.005 36.8118 55.9965 36.7354 55.988C36.3878 55.9541 36.0486 55.8354 35.6755 55.9626C35.5313 56.0134 35.3448 55.9202 35.1752 55.8947C34.7936 55.8354 34.4036 55.9032 34.0389 55.7336C33.5386 55.4962 32.996 55.4623 32.4533 55.564C32.2074 55.6149 31.9614 55.5979 31.7155 55.4962C31.5799 55.4368 31.4272 55.4368 31.2831 55.386C30.9269 55.2672 30.5623 55.1655 30.3503 54.8178C30.3334 54.7924 30.3164 54.7585 30.2995 54.7585C29.9433 54.6822 29.8246 54.3769 29.638 54.1225C29.3497 53.7324 29.2225 53.2915 29.1547 52.8166C29.1462 52.7403 29.1293 52.6471 29.0784 52.5877C28.8325 52.274 28.8918 51.9093 28.8918 51.5532C28.8918 51.3327 28.8749 51.1123 28.841 50.8918C28.7731 50.4169 28.7223 49.9506 28.7986 49.4587C28.8494 49.128 28.7392 48.7804 28.7307 48.4412C28.7223 47.9494 28.7392 47.4491 28.7392 46.9573C28.7392 46.6435 28.7392 46.3213 28.6883 46.0076C28.6629 45.8719 28.6629 45.7616 28.6883 45.626C28.7223 45.4564 28.6799 45.2698 28.6459 45.1002C28.5781 44.8119 28.5357 44.5236 28.6544 44.2438C28.7392 44.0403 28.6968 43.8707 28.5103 43.7266C28.5442 43.7181 28.5696 43.7011 28.5951 43.6842ZM47.2247 53.2491C47.5045 53.0541 47.6826 52.7827 47.6995 52.4605C47.7334 51.7737 48.0981 51.1462 48.0302 50.4424C48.0218 50.3661 48.0726 50.2813 48.0896 50.2049C48.1066 50.1117 48.132 50.0099 48.115 49.9251C48.0218 49.5011 48.132 49.0856 48.1829 48.6701C48.1913 48.5853 48.2253 48.509 48.2253 48.4327C48.2168 47.8307 48.1913 47.2201 48.1829 46.6181C48.1829 46.4315 48.2507 46.245 48.2253 46.0584C48.1574 45.5242 48.2761 44.9985 48.2846 44.4643C48.2931 44.176 48.344 43.8877 48.2337 43.6078C48.2083 43.54 48.2337 43.4552 48.2422 43.3704C48.2677 43.0991 48.3694 42.8023 48.3016 42.5564C48.2422 42.3274 48.2168 42.107 48.2083 41.878C48.1829 41.064 48.1829 40.2584 48.3694 39.4613C48.3864 39.3935 48.344 39.3087 48.3525 39.2324C48.3694 39.1561 48.4712 39.0628 48.4542 39.0289C48.3185 38.8169 48.4118 38.5964 48.4118 38.3844C48.4118 37.9774 48.4966 37.5789 48.5729 37.1718C48.6832 36.5528 48.751 35.9338 48.8528 35.3148C48.8951 35.035 48.9799 34.7636 49.0563 34.4669C48.1489 34.4245 47.2671 34.3821 46.3767 34.3566C46.2156 34.3481 46.046 34.3821 45.8849 34.399C45.7747 34.4075 45.656 34.4499 45.5542 34.4245C45.2235 34.3397 44.8843 34.3566 44.5451 34.3651C44.1975 34.3736 43.8498 34.2464 43.5106 34.4075C43.4428 34.4414 43.3495 34.416 43.2647 34.4075C42.7814 34.3905 42.298 34.3566 41.8232 34.3651C41.3653 34.3736 40.9074 34.3905 40.458 34.4669C40.034 34.5432 39.61 34.4923 39.186 34.5347C39.008 34.5517 38.8299 34.628 38.6518 34.628C37.9395 34.6025 37.2273 34.6704 36.5319 34.806C35.9299 34.9163 35.3448 34.9248 34.7427 34.8654C34.429 34.8315 34.1068 34.806 33.793 34.806C33.6065 34.806 33.4115 34.8824 33.2334 34.8654C32.8433 34.84 32.4533 34.7806 32.0632 34.7212C31.6647 34.6619 31.2576 34.6365 30.8421 34.611C30.893 34.8145 30.9439 34.9587 30.9693 35.1113C31.0457 35.4929 31.0202 35.8914 31.0541 36.273C31.1135 36.892 30.9948 37.511 31.0881 38.1385C31.1305 38.4099 31.0796 38.6897 31.0796 38.961C31.0796 39.2493 31.0881 39.5376 31.0796 39.8259C31.0711 40.0973 31.0372 40.3686 31.0117 40.64C30.9863 40.8944 30.9609 41.1318 31.0287 41.4031C31.0881 41.6236 31.122 41.895 31.0711 42.1578C31.0202 42.4377 31.0541 42.7344 31.0287 43.0227C30.9948 43.4637 31.1389 43.9216 30.9524 44.354C30.9269 44.4134 30.9778 44.5067 30.9948 44.583C31.0117 44.6847 31.0541 44.795 31.0541 44.8967C31.0457 45.1002 30.9778 45.3038 30.9948 45.5073C31.0202 45.7108 31.1474 45.9058 30.9778 46.1093C30.9609 46.1263 31.0033 46.1771 31.0117 46.2195C31.0287 46.3383 31.0541 46.457 31.0626 46.5757C31.0711 47.2541 31.0796 47.9409 31.0711 48.6193C31.0711 48.95 31.0796 49.2891 31.0202 49.6114C30.9524 49.9506 30.9439 50.2813 30.9948 50.612C31.0372 50.8663 31.0287 51.1292 31.0711 51.3921C31.1135 51.6465 31.1135 51.9009 31.1898 52.1637C31.2746 52.4605 31.3848 52.7064 31.6731 52.8675C31.8427 52.9693 32.0038 53.1304 32.1141 53.3C32.3176 53.6137 32.6653 53.6561 32.9451 53.6731C33.5132 53.6985 34.0898 53.6222 34.658 53.5629C34.9632 53.5289 35.2515 53.5968 35.5398 53.5968C36.1164 53.5968 36.7015 53.4102 37.2612 53.69C37.3036 53.7155 37.3714 53.69 37.4223 53.69C37.5749 53.6731 37.7106 53.6307 37.8632 53.7324C37.9565 53.8003 38.0667 53.6222 38.2363 53.707C38.4314 53.8003 38.6942 53.8342 38.8977 53.7918C39.2369 53.724 39.5761 53.7748 39.9068 53.7664C40.0425 53.7664 40.1782 53.7664 40.3138 53.7664C40.7378 53.7833 41.1618 53.8088 41.5773 53.8003C41.7808 53.8003 41.9758 53.724 42.1793 53.6985C42.6627 53.6392 43.1375 53.6052 43.6209 53.5459C44.0279 53.495 44.4349 53.4272 44.8419 53.3933C45.3676 53.3509 45.9019 53.3424 46.4276 53.2576C46.6735 53.2152 46.9533 53.2491 47.2247 53.2491ZM50.7183 30.5239C50.2688 30.3373 49.3191 30.2016 48.8782 30.2016C48.4118 30.2016 47.9115 30.3373 47.4706 30.0151C47.4197 29.9812 47.318 30.0151 47.2416 30.0066C46.8261 29.9981 46.4022 30.0575 46.0036 29.9727C45.427 29.854 44.8419 29.8964 44.2653 29.8879C43.4682 29.8709 42.6711 29.9727 41.8656 30.0236C41.7808 30.032 41.696 30.032 41.6197 30.0066C41.3399 29.9049 41.077 29.9472 40.8056 30.0405C40.7378 30.066 40.67 30.0744 40.6021 30.0744C40.1358 30.1084 39.6694 30.1338 39.203 30.1592C38.6094 30.1847 38.0159 30.2271 37.4308 30.2271C37.0662 30.2356 36.7015 30.1762 36.3284 30.1677C35.4635 30.1508 34.5986 30.2101 33.7337 30.0151C32.9112 29.8285 32.0632 29.8709 31.2237 29.9727C30.9778 29.9981 30.715 29.9218 30.4775 29.9812C30.0281 30.0914 29.5872 30.2525 29.1547 30.4306C28.6968 30.6171 28.5866 30.897 28.7138 31.3633C28.7986 31.6686 28.8834 31.9739 28.9682 32.2876C29.053 32.6183 29.1802 32.7201 29.5193 32.7201C29.867 32.7201 30.2062 32.7116 30.5538 32.7031C31.0711 32.6862 31.5968 32.6183 32.1141 32.6692C32.6059 32.7201 33.0723 32.7879 33.5726 32.7031C33.9372 32.6353 34.3527 32.5844 34.6834 32.6946C35.0735 32.8303 35.4466 32.6268 35.8197 32.754C35.9723 32.8049 36.1419 32.7794 36.3115 32.7879C36.3963 32.7879 36.4726 32.7879 36.5574 32.7709C36.7439 32.7285 36.922 32.6522 37.1085 32.6353C37.5664 32.5929 38.0243 32.559 38.4738 32.5759C38.7366 32.5844 38.991 32.6014 39.2539 32.5505C39.3302 32.5335 39.4235 32.559 39.4998 32.559C40.1358 32.5335 40.7717 32.5844 41.3992 32.4742C41.5434 32.4487 41.7045 32.4742 41.8571 32.4826C42.0776 32.4996 42.298 32.5166 42.5185 32.5505C42.8238 32.6014 43.1121 32.5335 43.4173 32.5081C43.7904 32.4742 44.172 32.4911 44.5451 32.5081C45.232 32.542 45.9273 32.4826 46.6226 32.4657C46.9109 32.4572 47.2077 32.4487 47.496 32.4402C47.6571 32.4318 47.8352 32.3809 47.9878 32.4063C48.4118 32.4911 48.8273 32.5081 49.2513 32.3978C49.7516 32.2707 50.3028 32.3131 50.7267 31.9908C50.7183 31.4905 50.7183 31.0242 50.7183 30.5239ZM42.6881 28.3616C42.7983 28.0563 42.5948 27.8443 42.4676 27.6238C42.1793 27.1236 41.8571 26.6317 41.2975 26.3774C41.0007 26.2417 40.6869 26.1314 40.3817 26.0127C40.3308 25.9958 40.2714 25.9958 40.2206 26.0042C39.7287 26.0212 39.2284 26.0127 38.7621 26.2247C38.4822 26.3519 38.1939 26.4876 37.9141 26.6233C37.8802 26.6402 37.8548 26.6826 37.8293 26.7081C37.6512 26.8861 37.4732 27.0557 37.2951 27.2338C37.134 27.3949 36.9983 28.0054 37.0746 28.192C37.2018 28.4888 37.5156 28.6329 37.8632 28.582C38.0243 28.5566 38.1939 28.5227 38.355 28.5312C38.7027 28.5481 39.0419 28.616 39.3896 28.6075C39.9322 28.5905 40.4665 28.5312 41.0007 28.4972C41.3738 28.4718 41.7384 28.4379 42.1115 28.4633C42.315 28.4633 42.51 28.4803 42.6881 28.3616Z" fill="#890620"/>
<path d="M40.865 50.6796C40.6615 50.9594 40.4834 51.2138 40.2629 51.5275C40.1018 51.5021 39.9068 51.4682 39.7033 51.4512C39.5506 51.4343 39.398 51.4512 39.2454 51.4512C39.2199 51.4936 39.1945 51.536 39.169 51.5784C39.1436 51.5106 39.1267 51.4088 39.0843 51.3919C38.584 51.1968 38.5755 50.7983 38.6264 50.3489C38.6433 50.1708 38.5585 49.9843 38.5416 49.7977C38.5076 49.4585 38.4907 49.1109 38.4652 48.7717C38.4313 48.3816 38.372 48 38.3465 47.61C38.3041 47.0079 38.2617 46.3974 38.2533 45.7953C38.2448 45.3035 38.2448 44.8117 38.3465 44.3284C38.4059 44.0486 38.3889 43.7518 38.355 43.4635C38.2956 42.9717 38.4228 42.5053 38.5246 42.0389C38.5755 41.7845 38.55 41.5301 38.5585 41.2757C38.5755 40.8518 38.6603 40.4278 38.7535 40.0123C38.8214 39.6901 38.9486 39.3763 39.0503 39.0626C39.0843 38.9608 39.1182 38.8506 39.1606 38.7488C39.3132 38.3927 39.8389 38.2824 40.0933 38.5623C40.2205 38.7064 40.3477 38.876 40.3901 39.0541C40.4919 39.4865 40.6021 39.9275 40.5851 40.3599C40.5682 40.8094 40.6954 41.2079 40.7717 41.6319C40.7971 41.7676 40.7293 41.9202 40.7378 42.0643C40.7547 42.3357 40.8565 42.607 40.7208 42.8784C40.6954 42.9208 40.7208 42.9886 40.7208 43.0395C40.7717 43.3871 40.831 43.7348 40.865 44.0825C40.8734 44.1927 40.7463 44.3538 40.7887 44.4217C40.9413 44.6506 40.6275 44.8456 40.7632 45.0067C40.9328 45.2187 40.7208 45.4392 40.831 45.6342C40.8565 45.6766 40.865 45.7699 40.8395 45.7953C40.5343 46.0837 40.8226 46.4652 40.6869 46.779C40.6615 46.8299 40.7378 46.9231 40.7632 46.9994C40.7802 47.0503 40.8141 47.1436 40.7971 47.1521C40.5682 47.3047 40.7632 47.4743 40.7717 47.6269C40.7971 48.0848 40.848 48.5342 40.8565 48.9921C40.8565 49.3313 40.9328 49.679 40.7887 50.0182C40.7632 50.069 40.7717 50.1708 40.8056 50.2217C40.9243 50.4082 40.7802 50.4845 40.6445 50.5863C40.7208 50.6202 40.7717 50.6372 40.865 50.6796Z" fill="#890620"/>
<path d="M45.2914 40.4789C45.3253 40.7503 45.3762 41.0216 45.3931 41.293C45.4101 41.5643 45.3677 41.8441 45.3931 42.1155C45.427 42.4971 45.4949 42.8786 45.5712 43.2517C45.6814 43.8453 45.8256 44.4389 45.9273 45.0325C45.9612 45.2444 45.9188 45.4734 45.9273 45.6854C45.9358 45.9652 45.9697 46.245 45.9867 46.5333C45.9952 46.7538 45.9273 46.9912 45.9952 47.1778C46.0884 47.4237 46.063 47.6696 46.0715 47.907C46.08 48.2801 46.1224 48.6532 46.0036 49.0179C45.9867 49.0772 45.9358 49.162 45.9612 49.1959C46.1648 49.4842 46.0715 49.7895 46.0206 50.0863C46.0121 50.1287 45.9952 50.1711 46.0121 50.1965C46.2241 50.5781 46.08 50.9342 45.9528 51.2904C45.9273 51.3497 45.9528 51.4261 45.9358 51.4854C45.851 51.7144 45.7747 51.9518 45.6645 52.1638C45.6221 52.2401 45.4949 52.291 45.3931 52.3079C45.1302 52.3503 44.8674 52.3758 44.6045 52.3758C44.4943 52.3758 44.3162 52.3164 44.2908 52.2401C44.206 52.0111 43.9007 51.9772 43.8837 51.672C43.8668 51.3073 43.7566 50.9512 43.6972 50.5866C43.6802 50.5103 43.6972 50.4255 43.6972 50.3491C43.7057 50.2559 43.7396 50.1456 43.7142 50.0608C43.57 49.569 43.6633 49.0772 43.6718 48.5854C43.6802 48.1445 43.7735 47.695 43.7989 47.2541C43.8159 46.9743 43.7566 46.686 43.7481 46.4061C43.7396 45.9652 43.7481 45.5243 43.7396 45.0833C43.7396 44.8883 43.7142 44.7018 43.7142 44.5067C43.6972 43.8368 43.6718 43.1585 43.6718 42.4886C43.6718 42.1155 43.7142 41.7424 43.765 41.3778C43.8074 41.0047 43.8922 40.64 43.9431 40.2754C43.9685 40.0549 43.994 39.8345 43.9685 39.614C43.9261 39.2494 44.0449 38.9272 44.2145 38.6219C44.2908 38.4777 44.3756 38.2742 44.613 38.3251C44.8589 38.3845 45.0455 38.5456 45.0963 38.783C45.2066 39.3342 45.2829 39.8938 45.3762 40.4535C45.3422 40.4789 45.3168 40.4789 45.2914 40.4789Z" fill="#890620"/>
<path d="M34.2849 50.1031C34.2849 49.5011 34.3018 48.899 34.2764 48.297C34.2594 47.8391 34.2001 47.3812 34.1831 46.9233C34.1747 46.7367 34.2255 46.5417 34.2255 46.3552C34.217 46.0414 34.1831 45.7277 34.1662 45.4139C34.1407 45.0578 34.1153 44.7017 34.0983 44.337C34.0644 43.7095 34.1831 43.0821 34.0899 42.4461C34.039 42.1239 34.1323 41.7847 34.1238 41.4455C34.1153 40.7332 34.4036 40.0718 34.4545 39.368C34.4799 39.0712 34.641 38.944 34.9293 38.8847C35.2092 38.8338 35.3364 38.9016 35.3957 39.1815C35.4635 39.5037 35.5229 39.8344 35.5399 40.1651C35.5653 40.5636 35.5483 40.9622 35.5568 41.3692C35.5653 41.7508 35.6077 42.1239 35.6162 42.5054C35.6331 42.9209 35.6247 43.328 35.6331 43.7435C35.6416 44.1166 35.6162 44.4981 35.6755 44.8628C35.7179 45.1511 35.7434 45.4224 35.7095 45.7192C35.6671 46.0669 35.7264 46.4315 35.7519 46.7876C35.7773 47.1777 35.7942 47.5762 35.8197 47.9663C35.8621 48.509 35.913 49.0517 35.9469 49.5944C35.9808 50.0777 35.9554 50.561 35.7688 51.0104C35.7095 51.1631 35.5059 51.2903 35.3533 51.3751C35.2431 51.4429 35.082 51.4344 34.9463 51.4514C34.641 51.4853 34.4714 51.3751 34.4121 51.0698C34.3442 50.7476 34.2934 50.4254 34.234 50.1031C34.2594 50.1031 34.2764 50.1031 34.2849 50.1031Z" fill="#890620"/>
</svg>
