<svg id="Calque_1" data-name="Calque 1" xmlns="http://www.w3.org/2000/svg" viewBox="0 0 53 79">
    <defs>
        <style>.cls-1{fill:#fff;}</style>
    </defs>
    <path class="cls-1"
          d="M51.47,2.87A10.89,10.89,0,0,0,45.31.66C43.56.63,42.52,2,41.53,3.2c-4.31,5.17-8.4,10.5-11,16.81a16.91,16.91,0,0,1-2.12,4.41c-.19-.19-.39-.29-.43-.43-1.34-5.39-4.24-9.92-7.44-14.37A24.9,24.9,0,0,0,9,.58,4.14,4.14,0,0,0,3.18,3.12,8.62,8.62,0,0,0,2.57,7.2,51.17,51.17,0,0,0,5.93,20a60.64,60.64,0,0,0,3.83,7.91c1.94,3.29,3.55,6.75,5.58,10a12.76,12.76,0,0,0,1.21,1.63l-.29.42C12.14,47,7.49,53.59,4.09,61.15A38.63,38.63,0,0,0,.68,72c-.2,1.51-.38,3.2.72,4.12a8.68,8.68,0,0,0,5.34,2.21C8.26,78.37,9.17,77,10,75.8c3.74-5.17,7.29-10.5,9.56-16.81a17.81,17.81,0,0,1,1.84-4.41c.16.19.34.29.37.43,1.16,5.39,3.68,9.92,6.46,14.37a22.38,22.38,0,0,0,10,9c2.22,1,4.22,0,5-2.54a9.87,9.87,0,0,0,.53-4.08A57.14,57.14,0,0,0,40.91,59a63.21,63.21,0,0,0-3.32-7.91c-1.68-3.29-3.08-6.75-4.84-10l0-.06a17.36,17.36,0,0,0,1.62-2c4.75-7,10.11-13.62,14-21.18A35.28,35.28,0,0,0,52.3,7C52.53,5.48,52.74,3.79,51.47,2.87ZM13.71,15c-.6-1.87-2.18-3.69-1.22-6.13A8.4,8.4,0,0,1,16.16,13c1.18,2.69,2.58,5.27,3.66,8,1.46,3.74,1.9,7.68,3.11,11.44A1.31,1.31,0,0,1,22.5,34,95.53,95.53,0,0,1,13.71,15Zm20.45,49.1c.52,1.87,1.89,3.69,1.07,6.13A8.1,8.1,0,0,1,32,66c-1-2.69-2.24-5.27-3.18-8-1.26-3.74-1.65-7.68-2.7-11.44A1.45,1.45,0,0,1,26.53,45,101.54,101.54,0,0,1,34.16,64.05Z"/>
</svg>