<svg width="146" height="146" viewBox="0 0 146 146" fill="none" xmlns="http://www.w3.org/2000/svg">
<rect width="146" height="146" rx="73" fill="#76B39D" fill-opacity="0.2"/>
<path d="M74.3087 75.3246C75.6963 73.7635 76.2167 71.682 76.9105 69.774C80.2062 61.7951 85.2363 55.2038 90.7869 48.786C92.0011 47.2249 93.3887 45.4903 95.4702 45.6638C98.2455 45.6638 101.021 46.878 103.102 48.4391C104.663 49.6533 104.49 51.7347 104.143 53.6427C103.449 58.4995 101.368 63.0093 99.2862 67.1722C94.4295 76.5388 87.6647 84.8646 81.7673 93.5373C80.2062 95.7922 78.1247 97.7002 76.0432 99.4348C74.3087 100.649 72.5741 101.516 70.4927 100.649C65.636 98.9144 60.9527 96.833 58.0039 91.9762C55.4021 87.8133 53.4941 83.4769 51.0657 79.4875C49.1577 76.3653 47.5967 73.0697 46.209 69.6006C44.1276 64.3969 42.7399 59.0198 42.0461 53.6427C41.8726 51.9082 42.2196 50.1736 42.7399 48.6125C43.9541 45.3169 46.7294 44.2762 50.025 45.4903C55.9225 47.7453 60.7792 51.5613 64.5952 56.7649C68.5847 62.3155 72.2272 68.0395 73.9618 74.8042C73.7883 74.9777 74.1352 75.1511 74.3087 75.3246ZM54.3614 55.7242C53.1472 58.8464 55.2287 61.1013 55.9225 63.5296C58.5243 71.8555 62.5138 79.6609 66.8501 87.293C67.7174 86.4257 67.544 85.9053 67.3705 85.385C65.8094 80.7017 65.289 75.6715 63.5545 70.9882C62.1669 67.5191 60.4323 64.2235 59.0447 60.9278C58.0039 59.0198 56.6163 56.9384 54.3614 55.7242Z" fill="#76B39D"/>
</svg>
