<?xml version="1.0" encoding="utf-8"?>
<!-- Generator: Adobe Illustrator 25.3.1, SVG Export Plug-In . SVG Version: 6.00 Build 0)  -->
<svg version="1.1" id="Calque_1" xmlns="http://www.w3.org/2000/svg" xmlns:xlink="http://www.w3.org/1999/xlink" x="0px" y="0px"
	 viewBox="0 0 88 79" style="enable-background:new 0 0 88 79;" xml:space="preserve">
<style type="text/css">
	.st0{fill:#FFFFFF;}
</style>
<path class="st0" d="M43.1,41.9c2.4-9.5,7.5-17.5,13.1-25.3c5-7.2,12.2-12.8,20.4-15.9c4.5-1.7,8.5,0,10.2,4.5
	c1,2.3,1.3,4.7,1.1,7.2c-1,7.7-3,15.3-5.9,22.5c-1.9,4.8-4.2,9.5-6.7,13.9c-3.4,5.8-6.3,11.9-9.8,17.7c-4.3,6.9-10.8,9.6-17.7,12.1
	c-2.7,1-5.4,0-7.7-1.8c-3.1-2.3-5.9-5.1-8.1-8.3c-8.4-12.3-17.8-24-24.7-37.3C4.1,25,1.4,18.8,0.3,12c-0.4-2.6-0.8-5.6,1.5-7.2
	C4.9,2.3,8.7,1,12.6,0.8c3.1,0,4.9,2.4,6.7,4.5c7.6,9.1,14.8,18.5,19.4,29.6c1.1,2.6,1.9,5.5,3.7,7.8C42.7,42.4,43.1,42.2,43.1,41.9
	z M64,22.5c-2.1,4.7-4.6,9.3-6.5,14.1c-2.6,6.6-3.4,13.5-5.5,20.2c-0.4,1-0.1,2.1,0.8,2.7C59.2,49,64.4,37.8,68.3,26
	c1.1-3.3,3.8-6.5,2.2-10.8C67.5,16.9,65.2,19.4,64,22.5z"/>
</svg>
