<svg id="Calque_1" data-name="Calque 1" xmlns="http://www.w3.org/2000/svg" viewBox="0 0 80 80"><defs><style>.cls-1,.cls-2{fill:#890620;}.cls-1{opacity:0.1;}</style></defs><circle class="cls-1" cx="40" cy="40" r="39.64"/><path class="cls-2" d="M24.12,45.12c0-.22,0-.43,0-.65a6.35,6.35,0,0,1,0-2,.28.28,0,0,0,0-.18,3.42,3.42,0,0,1-.06-1.59c0-.74,0-1.49,0-2.23,0-.9.13-1.79.2-2.69a2.07,2.07,0,0,1,.28-1c.2-.27.21-.61.4-.91a7.69,7.69,0,0,0,.54-1.51c-.45-.16-.86-.34-1.29-.45a1.54,1.54,0,0,1-1.38-1.57,1.78,1.78,0,0,0-.14-.5,11.34,11.34,0,0,0-.82-2.09c-.23-.33-.06-.69,0-1a3.61,3.61,0,0,1,.52-1.32,2.09,2.09,0,0,1,1-.68,7.49,7.49,0,0,1,1.72-.49c.74-.1,1.49-.08,2.23-.14.9-.06,1.8-.17,2.7-.2.62,0,1.25.06,1.87.09l1.31.1a1.15,1.15,0,0,0,.18-1,3,3,0,0,1,.44-1.83c.21-.32.33-.7.53-1a3.36,3.36,0,0,1,1.39-1.33,9.52,9.52,0,0,0,1-.68,1.7,1.7,0,0,1,.53-.2,14.55,14.55,0,0,1,3.16-.25,2.12,2.12,0,0,1,.65.15c.49.17,1,.35,1.45.56a4,4,0,0,1,1.06.57,6.84,6.84,0,0,1,.87,1c.06.08.07.2.14.25a1.29,1.29,0,0,1,.4.57,5.63,5.63,0,0,1,.61,2.37c0,.23,0,.46.07.73.7,0,1.35,0,2,0a2.59,2.59,0,0,1,.84.06,3.1,3.1,0,0,0,1.13.1c.62,0,1.23.09,1.85.14l1.32.08,1.21.05a5.62,5.62,0,0,1,2.31,1c.13.07.2.27.28.42.25.46.51.9.74,1.37a9.24,9.24,0,0,1,.78,1.84,1.49,1.49,0,0,1-.4,1.49A3,3,0,0,1,56,31.66a.38.38,0,0,0-.2.1,1.9,1.9,0,0,1-1.39.41s-.07,0-.17.08a9.83,9.83,0,0,0,.13,1.59,4.8,4.8,0,0,1,.06,1.08c.05.59.13,1.18.17,1.77a3.26,3.26,0,0,1-.09.68,2.74,2.74,0,0,0,0,.5,8.31,8.31,0,0,1,0,1.93c0,.11-.12.2-.14.31a.7.7,0,0,0,0,.38c.07.13.11.23,0,.35a.2.2,0,0,0-.06.19,7.33,7.33,0,0,1,.13,2.24c.06,1,0,2,.05,2.94,0,.6.06,1.21.07,1.82,0,.24-.16.52-.08.71.21.52,0,1,.08,1.54a9.11,9.11,0,0,1,0,1.28.87.87,0,0,1,0,.23,6.29,6.29,0,0,0-.16,2.07c0,.26-.15.51-.17.77s.12.56,0,.77,0,.75-.35,1c.13.65-.5,1-.62,1.52a3,3,0,0,0-.1.5,1.4,1.4,0,0,1-.44,1.19c-.07.05-.09.2-.09.3a1.47,1.47,0,0,1-1.25,1.45c-.65.18-1.32.29-2,.42a.55.55,0,0,1-.38,0,1.48,1.48,0,0,0-1.4-.05,1,1,0,0,1-.45.05L45,61.51c-.24,0-.49-.06-.73-.07H43.1s-.09,0-.11,0c-.37.34-.85.08-1.27.23a3.72,3.72,0,0,1-1.42.14A5.15,5.15,0,0,0,39,62a3.16,3.16,0,0,1-.81.11,18.37,18.37,0,0,0-2.45.19,1.46,1.46,0,0,1-.29,0,3.31,3.31,0,0,0-1.47,0c-.19.07-.46-.06-.69-.1a5.69,5.69,0,0,1-1.58-.22,3.5,3.5,0,0,0-2.21-.24,1.82,1.82,0,0,1-1-.09,5.84,5.84,0,0,0-.6-.15,2.19,2.19,0,0,1-1.3-.79s0-.09-.07-.09c-.5-.1-.66-.53-.92-.89a3.88,3.88,0,0,1-.67-1.81.68.68,0,0,0-.11-.32,2.07,2.07,0,0,1-.25-1.44,7.26,7.26,0,0,0-.07-.92,6.63,6.63,0,0,1-.06-2,8.51,8.51,0,0,0-.1-1.41c0-.69,0-1.38,0-2.07a8.28,8.28,0,0,0-.07-1.32,1.57,1.57,0,0,1,0-.53,1.66,1.66,0,0,0-.06-.73,2,2,0,0,1,0-1.2.55.55,0,0,0-.2-.72ZM50,58.44a1.43,1.43,0,0,0,.66-1.1c0-1,.56-1.83.46-2.8a1.51,1.51,0,0,1,.08-.34,1.23,1.23,0,0,0,0-.38,5.14,5.14,0,0,1,.09-1.75c0-.11.06-.22.06-.33,0-.85,0-1.69-.06-2.53a5.22,5.22,0,0,0,.06-.78,14.94,14.94,0,0,1,.09-2.22A3,3,0,0,0,51.45,45a.93.93,0,0,1,0-.33,3.66,3.66,0,0,0,.08-1.13,4.32,4.32,0,0,1-.12-.94,12.7,12.7,0,0,1,.22-3.37c0-.09,0-.21,0-.31s.16-.24.14-.28c-.19-.3-.07-.6-.07-.9a9.66,9.66,0,0,1,.22-1.69c.15-.86.25-1.72.39-2.58.06-.39.18-.78.28-1.18-1.26-.06-2.49-.12-3.73-.16a5.05,5.05,0,0,0-.68.06,1.46,1.46,0,0,1-.46,0,4.7,4.7,0,0,0-1.4-.08,3.19,3.19,0,0,0-1.44.06,1,1,0,0,1-.34,0c-.67,0-1.34-.07-2,0a13.39,13.39,0,0,0-1.9.14c-.59.1-1.18,0-1.77.1a6,6,0,0,1-.74.12,13.74,13.74,0,0,0-2.94.25,8.39,8.39,0,0,1-2.5.08c-.43,0-.88-.08-1.32-.09-.26,0-.52.1-.78.09-.55,0-1.09-.13-1.64-.21s-1.11-.12-1.7-.15c.08.28.14.48.18.69a14.53,14.53,0,0,1,.12,1.61c.08.87-.08,1.73,0,2.59a8.83,8.83,0,0,1,0,1.15c0,.4,0,.81,0,1.21s0,.75-.09,1.13a2.72,2.72,0,0,0,0,1.06A2.44,2.44,0,0,1,27.55,43a11.91,11.91,0,0,0-.05,1.2,5.54,5.54,0,0,1-.11,1.86c0,.08,0,.21.06.32a1.63,1.63,0,0,1,.08.43,6.41,6.41,0,0,0-.08.85c0,.29.22.56,0,.83,0,0,0,.1,0,.16a2.76,2.76,0,0,1,.07.49c0,.95,0,1.9,0,2.84a7.93,7.93,0,0,1-.07,1.38,3.88,3.88,0,0,0,0,1.4c.06.36,0,.72.1,1.09a8.14,8.14,0,0,0,.16,1.07,1.47,1.47,0,0,0,.67,1,1.94,1.94,0,0,1,.61.6,1.29,1.29,0,0,0,1.15.51,14.63,14.63,0,0,0,2.38-.15,10,10,0,0,1,1.23,0,5,5,0,0,1,2.4.13c.06,0,.15,0,.23,0a.77.77,0,0,1,.61.06c.13.1.28-.15.51,0a1.56,1.56,0,0,0,.93.12,8.3,8.3,0,0,1,1.41,0h.56c.59,0,1.18.06,1.77.05a6,6,0,0,0,.83-.14l2-.21c.56-.06,1.13-.17,1.7-.21.73-.06,1.47-.07,2.2-.19A7.11,7.11,0,0,1,50,58.44Zm4.87-31.62a8.9,8.9,0,0,0-2.56-.45c-.65,0-1.34.19-2-.26-.07-.05-.21,0-.32,0a9.05,9.05,0,0,1-1.73-.05,14.07,14.07,0,0,0-2.42-.12c-1.11,0-2.22.12-3.33.19a.78.78,0,0,1-.34,0,1.72,1.72,0,0,0-1.14,0,1.27,1.27,0,0,1-.28.06l-2,.11c-.82,0-1.64.09-2.47.1-.51,0-1-.07-1.53-.08a17.56,17.56,0,0,1-3.61-.22,10.22,10.22,0,0,0-3.49-.06,7,7,0,0,0-1,0,14.88,14.88,0,0,0-1.85.62A.93.93,0,0,0,24.3,28l.36,1.28c.12.46.29.6.77.6s1,0,1.44,0A17.47,17.47,0,0,1,29,29.79a7.19,7.19,0,0,0,2,.05,3.21,3.21,0,0,1,1.54,0c.55.19,1.06-.1,1.58.08a2.54,2.54,0,0,0,.68.05,2,2,0,0,0,.34,0,5.36,5.36,0,0,1,.77-.18,13.43,13.43,0,0,1,1.9-.09,4.86,4.86,0,0,0,1.08,0,2.08,2.08,0,0,1,.35,0,19.37,19.37,0,0,0,2.64-.12,2.29,2.29,0,0,1,.64,0c.3,0,.61.05.92.1a5.14,5.14,0,0,0,1.24-.06,10.29,10.29,0,0,1,1.57,0c1,.05,1.93,0,2.89-.06l1.21,0a3.24,3.24,0,0,1,.69,0,4,4,0,0,0,1.76,0,5.1,5.1,0,0,0,2-.57Zm-11.18-3c.15-.43-.13-.72-.31-1a3.77,3.77,0,0,0-1.62-1.73c-.42-.18-.85-.34-1.28-.51a.87.87,0,0,0-.23,0,5.19,5.19,0,0,0-2,.3l-1.18.55s-.08.09-.12.13c-.25.24-.5.48-.74.73a1.9,1.9,0,0,0-.31,1.33,1,1,0,0,0,1.1.55A3.25,3.25,0,0,1,37.7,24c.48,0,1,.12,1.43.11.75,0,1.5-.11,2.25-.16a11.32,11.32,0,0,1,1.54,0A1.3,1.3,0,0,0,43.73,23.81Z"/><path class="cls-2" d="M41.2,54.86,40.37,56c-.23,0-.5-.09-.78-.12s-.42,0-.63,0l-.11.18c0-.09-.05-.24-.11-.26-.7-.28-.72-.83-.65-1.45a4.2,4.2,0,0,0-.11-.77c0-.47-.07-.95-.11-1.43s-.13-1.07-.16-1.61c-.06-.84-.12-1.69-.14-2.53a8.76,8.76,0,0,1,.14-2,4,4,0,0,0,0-1.2,5.81,5.81,0,0,1,.23-2,6.19,6.19,0,0,0,0-1A10.57,10.57,0,0,1,38.27,40c.1-.45.27-.89.41-1.33,0-.14.09-.29.15-.43a.82.82,0,0,1,1.3-.26,1.59,1.59,0,0,1,.41.69,7.1,7.1,0,0,1,.28,1.81,8,8,0,0,0,.25,1.78,3.9,3.9,0,0,1,0,.59A2.1,2.1,0,0,1,41,44c0,.06,0,.15,0,.23.07.48.16,1,.2,1.45,0,.16-.16.38-.1.47.21.31-.22.59,0,.82s-.06.6.09.87a.24.24,0,0,1,0,.23c-.42.4,0,.93-.21,1.37,0,.07.07.2.11.3s.06.2,0,.22c-.32.2,0,.44,0,.66,0,.63.11,1.26.11,1.89a3.15,3.15,0,0,1-.1,1.43.4.4,0,0,0,0,.28c.17.25,0,.36-.22.5Z"/><path class="cls-2" d="M47.36,40.67c0,.38.12.76.14,1.14s0,.77,0,1.15.14,1.06.24,1.58c.16.83.36,1.65.5,2.48,0,.3,0,.61,0,.91s.06.79.08,1.18a3,3,0,0,0,0,.9,2.94,2.94,0,0,1,.1,1,4.26,4.26,0,0,1-.1,1.55c0,.08-.09.2-.06.24a1.6,1.6,0,0,1,.09,1.25.3.3,0,0,0,0,.16,1.65,1.65,0,0,1-.09,1.51c0,.09,0,.19,0,.28a7.64,7.64,0,0,1-.37.94.57.57,0,0,1-.38.2,6.7,6.7,0,0,1-1.09.1c-.15,0-.4-.08-.44-.19-.11-.32-.54-.37-.57-.79a11.64,11.64,0,0,0-.26-1.51,1.22,1.22,0,0,1,0-.33,1.38,1.38,0,0,0,0-.4A6.72,6.72,0,0,1,45.09,52c0-.62.14-1.23.17-1.85,0-.39-.06-.79-.07-1.18,0-.62,0-1.24,0-1.85,0-.27,0-.54,0-.8,0-.94-.06-1.87-.06-2.81a13.31,13.31,0,0,1,.13-1.55c.06-.52.18-1,.25-1.54a4.05,4.05,0,0,0,0-.92,2.23,2.23,0,0,1,.34-1.37c.12-.2.23-.49.56-.42a.83.83,0,0,1,.67.64c.16.77.26,1.55.39,2.33Z"/><path class="cls-2" d="M32,54.05c0-.84,0-1.68,0-2.52,0-.63-.1-1.27-.13-1.9,0-.26.06-.53.06-.79,0-.44-.06-.88-.09-1.32L31.78,46c-.05-.88.12-1.75,0-2.63A10.83,10.83,0,0,1,31.82,42c0-1,.39-1.91.47-2.89,0-.41.26-.59.66-.67s.57,0,.66.42a10.52,10.52,0,0,1,.2,1.37c0,.55,0,1.11,0,1.67s.07,1.05.09,1.58,0,1.15,0,1.72A11.56,11.56,0,0,0,34,46.77a4.31,4.31,0,0,1,0,1.19,9.29,9.29,0,0,0,.06,1.49c0,.55.06,1.1.1,1.64,0,.76.12,1.51.18,2.27a4.21,4.21,0,0,1-.25,2,1.26,1.26,0,0,1-.58.51,1.47,1.47,0,0,1-.56.1.59.59,0,0,1-.75-.53c-.09-.44-.17-.89-.25-1.34Z"/></svg>